<?xml version="1.0" encoding="utf-8"?>
<svg xmlns="http://www.w3.org/2000/svg" xmlns:xlink="http://www.w3.org/1999/xlink" width="672" height="480" viewBox="0 0 2688 1920">
<defs>
  <clipPath id="clip850">
    <rect x="0" y="0" width="2688" height="1920"/>
  </clipPath>
</defs>
<path clip-path="url(#clip850)" d="M0 1920 L2688 1920 L2688 -4.26326e-14 L0 -4.26326e-14  Z" fill="#ffffff" fill-rule="evenodd" fill-opacity="1"/>
<defs>
  <clipPath id="clip851">
    <rect x="537" y="0" width="1883" height="1883"/>
  </clipPath>
</defs>
<path clip-path="url(#clip850)" d="M225.654 1734.12 L2640.76 1734.12 L2640.76 47.2441 L225.654 47.2441  Z" fill="#ffffff" fill-rule="evenodd" fill-opacity="1"/>
<defs>
  <clipPath id="clip852">
    <rect x="225" y="47" width="2416" height="1688"/>
  </clipPath>
</defs>
<polyline clip-path="url(#clip852)" style="stroke:#000000; stroke-linecap:round; stroke-linejoin:round; stroke-width:2; stroke-opacity:0.1; fill:none" points="225.654,1734.12 225.654,47.2441 "/>
<polyline clip-path="url(#clip852)" style="stroke:#000000; stroke-linecap:round; stroke-linejoin:round; stroke-width:2; stroke-opacity:0.1; fill:none" points="708.675,1734.12 708.675,47.2441 "/>
<polyline clip-path="url(#clip852)" style="stroke:#000000; stroke-linecap:round; stroke-linejoin:round; stroke-width:2; stroke-opacity:0.1; fill:none" points="1191.7,1734.12 1191.7,47.2441 "/>
<polyline clip-path="url(#clip852)" style="stroke:#000000; stroke-linecap:round; stroke-linejoin:round; stroke-width:2; stroke-opacity:0.1; fill:none" points="1674.72,1734.12 1674.72,47.2441 "/>
<polyline clip-path="url(#clip852)" style="stroke:#000000; stroke-linecap:round; stroke-linejoin:round; stroke-width:2; stroke-opacity:0.1; fill:none" points="2157.74,1734.12 2157.74,47.2441 "/>
<polyline clip-path="url(#clip852)" style="stroke:#000000; stroke-linecap:round; stroke-linejoin:round; stroke-width:2; stroke-opacity:0.1; fill:none" points="2640.76,1734.12 2640.76,47.2441 "/>
<polyline clip-path="url(#clip852)" style="stroke:#000000; stroke-linecap:round; stroke-linejoin:round; stroke-width:2; stroke-opacity:0.1; fill:none" points="225.654,1699.66 2640.76,1699.66 "/>
<polyline clip-path="url(#clip852)" style="stroke:#000000; stroke-linecap:round; stroke-linejoin:round; stroke-width:2; stroke-opacity:0.1; fill:none" points="225.654,1294.44 2640.76,1294.44 "/>
<polyline clip-path="url(#clip852)" style="stroke:#000000; stroke-linecap:round; stroke-linejoin:round; stroke-width:2; stroke-opacity:0.1; fill:none" points="225.654,889.221 2640.76,889.221 "/>
<polyline clip-path="url(#clip852)" style="stroke:#000000; stroke-linecap:round; stroke-linejoin:round; stroke-width:2; stroke-opacity:0.1; fill:none" points="225.654,483.999 2640.76,483.999 "/>
<polyline clip-path="url(#clip852)" style="stroke:#000000; stroke-linecap:round; stroke-linejoin:round; stroke-width:2; stroke-opacity:0.1; fill:none" points="225.654,78.7769 2640.76,78.7769 "/>
<polyline clip-path="url(#clip850)" style="stroke:#000000; stroke-linecap:round; stroke-linejoin:round; stroke-width:4; stroke-opacity:1; fill:none" points="225.654,1734.12 2640.76,1734.12 "/>
<polyline clip-path="url(#clip850)" style="stroke:#000000; stroke-linecap:round; stroke-linejoin:round; stroke-width:4; stroke-opacity:1; fill:none" points="225.654,1734.12 225.654,1715.22 "/>
<polyline clip-path="url(#clip850)" style="stroke:#000000; stroke-linecap:round; stroke-linejoin:round; stroke-width:4; stroke-opacity:1; fill:none" points="708.675,1734.12 708.675,1715.22 "/>
<polyline clip-path="url(#clip850)" style="stroke:#000000; stroke-linecap:round; stroke-linejoin:round; stroke-width:4; stroke-opacity:1; fill:none" points="1191.7,1734.12 1191.7,1715.22 "/>
<polyline clip-path="url(#clip850)" style="stroke:#000000; stroke-linecap:round; stroke-linejoin:round; stroke-width:4; stroke-opacity:1; fill:none" points="1674.72,1734.12 1674.72,1715.22 "/>
<polyline clip-path="url(#clip850)" style="stroke:#000000; stroke-linecap:round; stroke-linejoin:round; stroke-width:4; stroke-opacity:1; fill:none" points="2157.74,1734.12 2157.74,1715.22 "/>
<polyline clip-path="url(#clip850)" style="stroke:#000000; stroke-linecap:round; stroke-linejoin:round; stroke-width:4; stroke-opacity:1; fill:none" points="2640.76,1734.12 2640.76,1715.22 "/>
<path clip-path="url(#clip850)" d="M225.654 1767.34 Q222.043 1767.34 220.215 1770.9 Q218.409 1774.45 218.409 1781.58 Q218.409 1788.68 220.215 1792.25 Q222.043 1795.79 225.654 1795.79 Q229.289 1795.79 231.094 1792.25 Q232.923 1788.68 232.923 1781.58 Q232.923 1774.45 231.094 1770.9 Q229.289 1767.34 225.654 1767.34 M225.654 1763.64 Q231.465 1763.64 234.52 1768.24 Q237.599 1772.83 237.599 1781.58 Q237.599 1790.3 234.52 1794.91 Q231.465 1799.49 225.654 1799.49 Q219.844 1799.49 216.766 1794.91 Q213.71 1790.3 213.71 1781.58 Q213.71 1772.83 216.766 1768.24 Q219.844 1763.64 225.654 1763.64 Z" fill="#000000" fill-rule="nonzero" fill-opacity="1" /><path clip-path="url(#clip850)" d="M687.448 1794.89 L703.767 1794.89 L703.767 1798.82 L681.823 1798.82 L681.823 1794.89 Q684.485 1792.13 689.068 1787.5 Q693.675 1782.85 694.855 1781.51 Q697.101 1778.98 697.98 1777.25 Q698.883 1775.49 698.883 1773.8 Q698.883 1771.04 696.939 1769.31 Q695.017 1767.57 691.916 1767.57 Q689.717 1767.57 687.263 1768.34 Q684.832 1769.1 682.055 1770.65 L682.055 1765.93 Q684.879 1764.79 687.332 1764.21 Q689.786 1763.64 691.823 1763.64 Q697.193 1763.64 700.388 1766.32 Q703.582 1769.01 703.582 1773.5 Q703.582 1775.63 702.772 1777.55 Q701.985 1779.45 699.878 1782.04 Q699.3 1782.71 696.198 1785.93 Q693.096 1789.12 687.448 1794.89 Z" fill="#000000" fill-rule="nonzero" fill-opacity="1" /><path clip-path="url(#clip850)" d="M723.582 1767.34 Q719.971 1767.34 718.142 1770.9 Q716.337 1774.45 716.337 1781.58 Q716.337 1788.68 718.142 1792.25 Q719.971 1795.79 723.582 1795.79 Q727.216 1795.79 729.022 1792.25 Q730.851 1788.68 730.851 1781.58 Q730.851 1774.45 729.022 1770.9 Q727.216 1767.34 723.582 1767.34 M723.582 1763.64 Q729.392 1763.64 732.448 1768.24 Q735.526 1772.83 735.526 1781.58 Q735.526 1790.3 732.448 1794.91 Q729.392 1799.49 723.582 1799.49 Q717.772 1799.49 714.693 1794.91 Q711.638 1790.3 711.638 1781.58 Q711.638 1772.83 714.693 1768.24 Q717.772 1763.64 723.582 1763.64 Z" fill="#000000" fill-rule="nonzero" fill-opacity="1" /><path clip-path="url(#clip850)" d="M1179.87 1768.34 L1168.06 1786.78 L1179.87 1786.78 L1179.87 1768.34 M1178.64 1764.26 L1184.52 1764.26 L1184.52 1786.78 L1189.45 1786.78 L1189.45 1790.67 L1184.52 1790.67 L1184.52 1798.82 L1179.87 1798.82 L1179.87 1790.67 L1164.26 1790.67 L1164.26 1786.16 L1178.64 1764.26 Z" fill="#000000" fill-rule="nonzero" fill-opacity="1" /><path clip-path="url(#clip850)" d="M1207.18 1767.34 Q1203.57 1767.34 1201.74 1770.9 Q1199.94 1774.45 1199.94 1781.58 Q1199.94 1788.68 1201.74 1792.25 Q1203.57 1795.79 1207.18 1795.79 Q1210.82 1795.79 1212.62 1792.25 Q1214.45 1788.68 1214.45 1781.58 Q1214.45 1774.45 1212.62 1770.9 Q1210.82 1767.34 1207.18 1767.34 M1207.18 1763.64 Q1212.99 1763.64 1216.05 1768.24 Q1219.13 1772.83 1219.13 1781.58 Q1219.13 1790.3 1216.05 1794.91 Q1212.99 1799.49 1207.18 1799.49 Q1201.37 1799.49 1198.29 1794.91 Q1195.24 1790.3 1195.24 1781.58 Q1195.24 1772.83 1198.29 1768.24 Q1201.37 1763.64 1207.18 1763.64 Z" fill="#000000" fill-rule="nonzero" fill-opacity="1" /><path clip-path="url(#clip850)" d="M1660.12 1779.68 Q1656.97 1779.68 1655.12 1781.83 Q1653.29 1783.98 1653.29 1787.73 Q1653.29 1791.46 1655.12 1793.64 Q1656.97 1795.79 1660.12 1795.79 Q1663.27 1795.79 1665.1 1793.64 Q1666.95 1791.46 1666.95 1787.73 Q1666.95 1783.98 1665.1 1781.83 Q1663.27 1779.68 1660.12 1779.68 M1669.4 1765.02 L1669.4 1769.28 Q1667.64 1768.45 1665.84 1768.01 Q1664.06 1767.57 1662.3 1767.57 Q1657.67 1767.57 1655.21 1770.7 Q1652.78 1773.82 1652.44 1780.14 Q1653.8 1778.13 1655.86 1777.06 Q1657.92 1775.97 1660.4 1775.97 Q1665.61 1775.97 1668.62 1779.15 Q1671.65 1782.29 1671.65 1787.73 Q1671.65 1793.06 1668.5 1796.27 Q1665.35 1799.49 1660.12 1799.49 Q1654.13 1799.49 1650.95 1794.91 Q1647.78 1790.3 1647.78 1781.58 Q1647.78 1773.38 1651.67 1768.52 Q1655.56 1763.64 1662.11 1763.64 Q1663.87 1763.64 1665.65 1763.98 Q1667.46 1764.33 1669.4 1765.02 Z" fill="#000000" fill-rule="nonzero" fill-opacity="1" /><path clip-path="url(#clip850)" d="M1689.7 1767.34 Q1686.09 1767.34 1684.26 1770.9 Q1682.46 1774.45 1682.46 1781.58 Q1682.46 1788.68 1684.26 1792.25 Q1686.09 1795.79 1689.7 1795.79 Q1693.34 1795.79 1695.14 1792.25 Q1696.97 1788.68 1696.97 1781.58 Q1696.97 1774.45 1695.14 1770.9 Q1693.34 1767.34 1689.7 1767.34 M1689.7 1763.64 Q1695.51 1763.64 1698.57 1768.24 Q1701.65 1772.83 1701.65 1781.58 Q1701.65 1790.3 1698.57 1794.91 Q1695.51 1799.49 1689.7 1799.49 Q1683.89 1799.49 1680.81 1794.91 Q1677.76 1790.3 1677.76 1781.58 Q1677.76 1772.83 1680.81 1768.24 Q1683.89 1763.64 1689.7 1763.64 Z" fill="#000000" fill-rule="nonzero" fill-opacity="1" /><path clip-path="url(#clip850)" d="M2142.61 1782.41 Q2139.28 1782.41 2137.35 1784.19 Q2135.46 1785.97 2135.46 1789.1 Q2135.46 1792.22 2137.35 1794.01 Q2139.28 1795.79 2142.61 1795.79 Q2145.94 1795.79 2147.86 1794.01 Q2149.78 1792.2 2149.78 1789.1 Q2149.78 1785.97 2147.86 1784.19 Q2145.96 1782.41 2142.61 1782.41 M2137.93 1780.42 Q2134.92 1779.68 2133.23 1777.62 Q2131.57 1775.56 2131.57 1772.59 Q2131.57 1768.45 2134.51 1766.04 Q2137.47 1763.64 2142.61 1763.64 Q2147.77 1763.64 2150.71 1766.04 Q2153.65 1768.45 2153.65 1772.59 Q2153.65 1775.56 2151.96 1777.62 Q2150.29 1779.68 2147.31 1780.42 Q2150.69 1781.21 2152.56 1783.5 Q2154.46 1785.79 2154.46 1789.1 Q2154.46 1794.12 2151.38 1796.81 Q2148.33 1799.49 2142.61 1799.49 Q2136.89 1799.49 2133.81 1796.81 Q2130.76 1794.12 2130.76 1789.1 Q2130.76 1785.79 2132.65 1783.5 Q2134.55 1781.21 2137.93 1780.42 M2136.22 1773.03 Q2136.22 1775.72 2137.89 1777.22 Q2139.58 1778.73 2142.61 1778.73 Q2145.62 1778.73 2147.31 1777.22 Q2149.02 1775.72 2149.02 1773.03 Q2149.02 1770.35 2147.31 1768.84 Q2145.62 1767.34 2142.61 1767.34 Q2139.58 1767.34 2137.89 1768.84 Q2136.22 1770.35 2136.22 1773.03 Z" fill="#000000" fill-rule="nonzero" fill-opacity="1" /><path clip-path="url(#clip850)" d="M2172.77 1767.34 Q2169.16 1767.34 2167.33 1770.9 Q2165.52 1774.45 2165.52 1781.58 Q2165.52 1788.68 2167.33 1792.25 Q2169.16 1795.79 2172.77 1795.79 Q2176.4 1795.79 2178.21 1792.25 Q2180.04 1788.68 2180.04 1781.58 Q2180.04 1774.45 2178.21 1770.9 Q2176.4 1767.34 2172.77 1767.34 M2172.77 1763.64 Q2178.58 1763.64 2181.64 1768.24 Q2184.71 1772.83 2184.71 1781.58 Q2184.71 1790.3 2181.64 1794.91 Q2178.58 1799.49 2172.77 1799.49 Q2166.96 1799.49 2163.88 1794.91 Q2160.83 1790.3 2160.83 1781.58 Q2160.83 1772.83 2163.88 1768.24 Q2166.96 1763.64 2172.77 1763.64 Z" fill="#000000" fill-rule="nonzero" fill-opacity="1" /><path clip-path="url(#clip850)" d="M2600.36 1794.89 L2608 1794.89 L2608 1768.52 L2599.69 1770.19 L2599.69 1765.93 L2607.96 1764.26 L2612.63 1764.26 L2612.63 1794.89 L2620.27 1794.89 L2620.27 1798.82 L2600.36 1798.82 L2600.36 1794.89 Z" fill="#000000" fill-rule="nonzero" fill-opacity="1" /><path clip-path="url(#clip850)" d="M2639.71 1767.34 Q2636.1 1767.34 2634.27 1770.9 Q2632.47 1774.45 2632.47 1781.58 Q2632.47 1788.68 2634.27 1792.25 Q2636.1 1795.79 2639.71 1795.79 Q2643.35 1795.79 2645.15 1792.25 Q2646.98 1788.68 2646.98 1781.58 Q2646.98 1774.45 2645.15 1770.9 Q2643.35 1767.34 2639.71 1767.34 M2639.71 1763.64 Q2645.52 1763.64 2648.58 1768.24 Q2651.66 1772.83 2651.66 1781.58 Q2651.66 1790.3 2648.58 1794.91 Q2645.52 1799.49 2639.71 1799.49 Q2633.9 1799.49 2630.83 1794.91 Q2627.77 1790.3 2627.77 1781.58 Q2627.77 1772.83 2630.83 1768.24 Q2633.9 1763.64 2639.71 1763.64 Z" fill="#000000" fill-rule="nonzero" fill-opacity="1" /><path clip-path="url(#clip850)" d="M2669.88 1767.34 Q2666.27 1767.34 2664.44 1770.9 Q2662.63 1774.45 2662.63 1781.58 Q2662.63 1788.68 2664.44 1792.25 Q2666.27 1795.79 2669.88 1795.79 Q2673.51 1795.79 2675.32 1792.25 Q2677.14 1788.68 2677.14 1781.58 Q2677.14 1774.45 2675.32 1770.9 Q2673.51 1767.34 2669.88 1767.34 M2669.88 1763.64 Q2675.69 1763.64 2678.74 1768.24 Q2681.82 1772.83 2681.82 1781.58 Q2681.82 1790.3 2678.74 1794.91 Q2675.69 1799.49 2669.88 1799.49 Q2664.07 1799.49 2660.99 1794.91 Q2657.93 1790.3 2657.93 1781.58 Q2657.93 1772.83 2660.99 1768.24 Q2664.07 1763.64 2669.88 1763.64 Z" fill="#000000" fill-rule="nonzero" fill-opacity="1" /><path clip-path="url(#clip850)" d="M1355.08 1835.78 L1395.28 1835.78 L1395.28 1841.19 L1378.41 1841.19 L1378.41 1883.3 L1371.95 1883.3 L1371.95 1841.19 L1355.08 1841.19 L1355.08 1835.78 Z" fill="#000000" fill-rule="nonzero" fill-opacity="1" /><path clip-path="url(#clip850)" d="M1399.23 1847.65 L1405.08 1847.65 L1405.08 1883.3 L1399.23 1883.3 L1399.23 1847.65 M1399.23 1833.78 L1405.08 1833.78 L1405.08 1841.19 L1399.23 1841.19 L1399.23 1833.78 Z" fill="#000000" fill-rule="nonzero" fill-opacity="1" /><path clip-path="url(#clip850)" d="M1445.09 1854.5 Q1447.29 1850.55 1450.34 1848.67 Q1453.4 1846.79 1457.54 1846.79 Q1463.11 1846.79 1466.13 1850.71 Q1469.16 1854.59 1469.16 1861.78 L1469.16 1883.3 L1463.27 1883.3 L1463.27 1861.98 Q1463.27 1856.85 1461.45 1854.37 Q1459.64 1851.89 1455.91 1851.89 Q1451.36 1851.89 1448.72 1854.91 Q1446.08 1857.93 1446.08 1863.15 L1446.08 1883.3 L1440.19 1883.3 L1440.19 1861.98 Q1440.19 1856.82 1438.38 1854.37 Q1436.56 1851.89 1432.78 1851.89 Q1428.29 1851.89 1425.65 1854.94 Q1423 1857.97 1423 1863.15 L1423 1883.3 L1417.12 1883.3 L1417.12 1847.65 L1423 1847.65 L1423 1853.19 Q1425.01 1849.91 1427.81 1848.35 Q1430.61 1846.79 1434.46 1846.79 Q1438.35 1846.79 1441.05 1848.77 Q1443.79 1850.74 1445.09 1854.5 Z" fill="#000000" fill-rule="nonzero" fill-opacity="1" /><path clip-path="url(#clip850)" d="M1511.33 1864.01 L1511.33 1866.88 L1484.4 1866.88 Q1484.78 1872.92 1488.03 1876.11 Q1491.31 1879.26 1497.13 1879.26 Q1500.51 1879.26 1503.66 1878.43 Q1506.84 1877.6 1509.96 1875.95 L1509.96 1881.49 Q1506.81 1882.82 1503.5 1883.52 Q1500.19 1884.22 1496.78 1884.22 Q1488.25 1884.22 1483.26 1879.26 Q1478.29 1874.29 1478.29 1865.83 Q1478.29 1857.07 1483 1851.95 Q1487.74 1846.79 1495.76 1846.79 Q1502.96 1846.79 1507.13 1851.44 Q1511.33 1856.06 1511.33 1864.01 M1505.47 1862.29 Q1505.41 1857.49 1502.77 1854.62 Q1500.16 1851.76 1495.83 1851.76 Q1490.93 1851.76 1487.97 1854.53 Q1485.04 1857.3 1484.59 1862.33 L1505.47 1862.29 Z" fill="#000000" fill-rule="nonzero" fill-opacity="1" /><polyline clip-path="url(#clip850)" style="stroke:#000000; stroke-linecap:round; stroke-linejoin:round; stroke-width:4; stroke-opacity:1; fill:none" points="225.654,1734.12 225.654,47.2441 "/>
<polyline clip-path="url(#clip850)" style="stroke:#000000; stroke-linecap:round; stroke-linejoin:round; stroke-width:4; stroke-opacity:1; fill:none" points="225.654,1699.66 244.552,1699.66 "/>
<polyline clip-path="url(#clip850)" style="stroke:#000000; stroke-linecap:round; stroke-linejoin:round; stroke-width:4; stroke-opacity:1; fill:none" points="225.654,1294.44 244.552,1294.44 "/>
<polyline clip-path="url(#clip850)" style="stroke:#000000; stroke-linecap:round; stroke-linejoin:round; stroke-width:4; stroke-opacity:1; fill:none" points="225.654,889.221 244.552,889.221 "/>
<polyline clip-path="url(#clip850)" style="stroke:#000000; stroke-linecap:round; stroke-linejoin:round; stroke-width:4; stroke-opacity:1; fill:none" points="225.654,483.999 244.552,483.999 "/>
<polyline clip-path="url(#clip850)" style="stroke:#000000; stroke-linecap:round; stroke-linejoin:round; stroke-width:4; stroke-opacity:1; fill:none" points="225.654,78.7769 244.552,78.7769 "/>
<path clip-path="url(#clip850)" d="M128.159 1685.46 Q124.548 1685.46 122.719 1689.03 Q120.913 1692.57 120.913 1699.7 Q120.913 1706.81 122.719 1710.37 Q124.548 1713.91 128.159 1713.91 Q131.793 1713.91 133.599 1710.37 Q135.427 1706.81 135.427 1699.7 Q135.427 1692.57 133.599 1689.03 Q131.793 1685.46 128.159 1685.46 M128.159 1681.76 Q133.969 1681.76 137.025 1686.37 Q140.103 1690.95 140.103 1699.7 Q140.103 1708.43 137.025 1713.03 Q133.969 1717.62 128.159 1717.62 Q122.349 1717.62 119.27 1713.03 Q116.214 1708.43 116.214 1699.7 Q116.214 1690.95 119.27 1686.37 Q122.349 1681.76 128.159 1681.76 Z" fill="#000000" fill-rule="nonzero" fill-opacity="1" /><path clip-path="url(#clip850)" d="M148.321 1711.07 L153.205 1711.07 L153.205 1716.94 L148.321 1716.94 L148.321 1711.07 Z" fill="#000000" fill-rule="nonzero" fill-opacity="1" /><path clip-path="url(#clip850)" d="M173.39 1685.46 Q169.779 1685.46 167.95 1689.03 Q166.145 1692.57 166.145 1699.7 Q166.145 1706.81 167.95 1710.37 Q169.779 1713.91 173.39 1713.91 Q177.024 1713.91 178.83 1710.37 Q180.659 1706.81 180.659 1699.7 Q180.659 1692.57 178.83 1689.03 Q177.024 1685.46 173.39 1685.46 M173.39 1681.76 Q179.2 1681.76 182.256 1686.37 Q185.334 1690.95 185.334 1699.7 Q185.334 1708.43 182.256 1713.03 Q179.2 1717.62 173.39 1717.62 Q167.58 1717.62 164.501 1713.03 Q161.446 1708.43 161.446 1699.7 Q161.446 1690.95 164.501 1686.37 Q167.58 1681.76 173.39 1681.76 Z" fill="#000000" fill-rule="nonzero" fill-opacity="1" /><path clip-path="url(#clip850)" d="M129.154 1280.24 Q125.543 1280.24 123.714 1283.81 Q121.909 1287.35 121.909 1294.48 Q121.909 1301.58 123.714 1305.15 Q125.543 1308.69 129.154 1308.69 Q132.788 1308.69 134.594 1305.15 Q136.423 1301.58 136.423 1294.48 Q136.423 1287.35 134.594 1283.81 Q132.788 1280.24 129.154 1280.24 M129.154 1276.54 Q134.964 1276.54 138.02 1281.14 Q141.099 1285.73 141.099 1294.48 Q141.099 1303.2 138.02 1307.81 Q134.964 1312.39 129.154 1312.39 Q123.344 1312.39 120.265 1307.81 Q117.21 1303.2 117.21 1294.48 Q117.21 1285.73 120.265 1281.14 Q123.344 1276.54 129.154 1276.54 Z" fill="#000000" fill-rule="nonzero" fill-opacity="1" /><path clip-path="url(#clip850)" d="M149.316 1305.84 L154.2 1305.84 L154.2 1311.72 L149.316 1311.72 L149.316 1305.84 Z" fill="#000000" fill-rule="nonzero" fill-opacity="1" /><path clip-path="url(#clip850)" d="M164.432 1277.16 L182.788 1277.16 L182.788 1281.1 L168.714 1281.1 L168.714 1289.57 Q169.733 1289.22 170.751 1289.06 Q171.77 1288.88 172.788 1288.88 Q178.575 1288.88 181.955 1292.05 Q185.334 1295.22 185.334 1300.63 Q185.334 1306.21 181.862 1309.32 Q178.39 1312.39 172.071 1312.39 Q169.895 1312.39 167.626 1312.02 Q165.381 1311.65 162.973 1310.91 L162.973 1306.21 Q165.057 1307.35 167.279 1307.9 Q169.501 1308.46 171.978 1308.46 Q175.983 1308.46 178.321 1306.35 Q180.659 1304.25 180.659 1300.63 Q180.659 1297.02 178.321 1294.92 Q175.983 1292.81 171.978 1292.81 Q170.103 1292.81 168.228 1293.23 Q166.376 1293.64 164.432 1294.52 L164.432 1277.16 Z" fill="#000000" fill-rule="nonzero" fill-opacity="1" /><path clip-path="url(#clip850)" d="M118.969 902.566 L126.608 902.566 L126.608 876.2 L118.298 877.867 L118.298 873.607 L126.562 871.941 L131.238 871.941 L131.238 902.566 L138.876 902.566 L138.876 906.501 L118.969 906.501 L118.969 902.566 Z" fill="#000000" fill-rule="nonzero" fill-opacity="1" /><path clip-path="url(#clip850)" d="M148.321 900.621 L153.205 900.621 L153.205 906.501 L148.321 906.501 L148.321 900.621 Z" fill="#000000" fill-rule="nonzero" fill-opacity="1" /><path clip-path="url(#clip850)" d="M173.39 875.02 Q169.779 875.02 167.95 878.584 Q166.145 882.126 166.145 889.256 Q166.145 896.362 167.95 899.927 Q169.779 903.468 173.39 903.468 Q177.024 903.468 178.83 899.927 Q180.659 896.362 180.659 889.256 Q180.659 882.126 178.83 878.584 Q177.024 875.02 173.39 875.02 M173.39 871.316 Q179.2 871.316 182.256 875.922 Q185.334 880.506 185.334 889.256 Q185.334 897.982 182.256 902.589 Q179.2 907.172 173.39 907.172 Q167.58 907.172 164.501 902.589 Q161.446 897.982 161.446 889.256 Q161.446 880.506 164.501 875.922 Q167.58 871.316 173.39 871.316 Z" fill="#000000" fill-rule="nonzero" fill-opacity="1" /><path clip-path="url(#clip850)" d="M119.964 497.344 L127.603 497.344 L127.603 470.978 L119.293 472.645 L119.293 468.386 L127.557 466.719 L132.233 466.719 L132.233 497.344 L139.872 497.344 L139.872 501.279 L119.964 501.279 L119.964 497.344 Z" fill="#000000" fill-rule="nonzero" fill-opacity="1" /><path clip-path="url(#clip850)" d="M149.316 495.399 L154.2 495.399 L154.2 501.279 L149.316 501.279 L149.316 495.399 Z" fill="#000000" fill-rule="nonzero" fill-opacity="1" /><path clip-path="url(#clip850)" d="M164.432 466.719 L182.788 466.719 L182.788 470.654 L168.714 470.654 L168.714 479.126 Q169.733 478.779 170.751 478.617 Q171.77 478.432 172.788 478.432 Q178.575 478.432 181.955 481.603 Q185.334 484.774 185.334 490.191 Q185.334 495.77 181.862 498.871 Q178.39 501.95 172.071 501.95 Q169.895 501.95 167.626 501.58 Q165.381 501.209 162.973 500.469 L162.973 495.77 Q165.057 496.904 167.279 497.459 Q169.501 498.015 171.978 498.015 Q175.983 498.015 178.321 495.909 Q180.659 493.802 180.659 490.191 Q180.659 486.58 178.321 484.473 Q175.983 482.367 171.978 482.367 Q170.103 482.367 168.228 482.784 Q166.376 483.2 164.432 484.08 L164.432 466.719 Z" fill="#000000" fill-rule="nonzero" fill-opacity="1" /><path clip-path="url(#clip850)" d="M122.187 92.1217 L138.506 92.1217 L138.506 96.0569 L116.562 96.0569 L116.562 92.1217 Q119.224 89.3671 123.807 84.7375 Q128.413 80.0848 129.594 78.7422 Q131.839 76.219 132.719 74.4829 Q133.622 72.7237 133.622 71.0339 Q133.622 68.2793 131.677 66.5432 Q129.756 64.8071 126.654 64.8071 Q124.455 64.8071 122.001 65.571 Q119.571 66.3348 116.793 67.8858 L116.793 63.1636 Q119.617 62.0293 122.071 61.4506 Q124.525 60.8719 126.562 60.8719 Q131.932 60.8719 135.126 63.5571 Q138.321 66.2422 138.321 70.733 Q138.321 72.8626 137.511 74.7839 Q136.724 76.682 134.617 79.2746 Q134.038 79.9459 130.937 83.1635 Q127.835 86.3579 122.187 92.1217 Z" fill="#000000" fill-rule="nonzero" fill-opacity="1" /><path clip-path="url(#clip850)" d="M148.321 90.1773 L153.205 90.1773 L153.205 96.0569 L148.321 96.0569 L148.321 90.1773 Z" fill="#000000" fill-rule="nonzero" fill-opacity="1" /><path clip-path="url(#clip850)" d="M173.39 64.5756 Q169.779 64.5756 167.95 68.1404 Q166.145 71.682 166.145 78.8116 Q166.145 85.9181 167.95 89.4829 Q169.779 93.0245 173.39 93.0245 Q177.024 93.0245 178.83 89.4829 Q180.659 85.9181 180.659 78.8116 Q180.659 71.682 178.83 68.1404 Q177.024 64.5756 173.39 64.5756 M173.39 60.8719 Q179.2 60.8719 182.256 65.4784 Q185.334 70.0617 185.334 78.8116 Q185.334 87.5384 182.256 92.1449 Q179.2 96.7282 173.39 96.7282 Q167.58 96.7282 164.501 92.1449 Q161.446 87.5384 161.446 78.8116 Q161.446 70.0617 164.501 65.4784 Q167.58 60.8719 173.39 60.8719 Z" fill="#000000" fill-rule="nonzero" fill-opacity="1" /><path clip-path="url(#clip850)" d="M14.1184 1018.41 L14.1184 1009.75 L53.8723 988.681 L14.1184 988.681 L14.1184 982.442 L61.6384 982.442 L61.6384 991.1 L21.8846 1012.17 L61.6384 1012.17 L61.6384 1018.41 L14.1184 1018.41 Z" fill="#000000" fill-rule="nonzero" fill-opacity="1" /><path clip-path="url(#clip850)" d="M47.5702 970.507 L25.9905 970.507 L25.9905 964.65 L47.3474 964.65 Q52.4082 964.65 54.9545 962.677 Q57.4689 960.703 57.4689 956.757 Q57.4689 952.014 54.4452 949.277 Q51.4215 946.508 46.2016 946.508 L25.9905 946.508 L25.9905 940.651 L61.6384 940.651 L61.6384 946.508 L56.1639 946.508 Q59.4104 948.64 61.0019 951.473 Q62.5615 954.274 62.5615 957.998 Q62.5615 964.141 58.742 967.324 Q54.9226 970.507 47.5702 970.507 M25.1311 955.77 L25.1311 955.77 Z" fill="#000000" fill-rule="nonzero" fill-opacity="1" /><path clip-path="url(#clip850)" d="M32.8336 900.834 Q28.8869 898.638 27.009 895.582 Q25.1311 892.527 25.1311 888.389 Q25.1311 882.819 29.046 879.795 Q32.9291 876.771 40.1224 876.771 L61.6384 876.771 L61.6384 882.66 L40.3133 882.66 Q35.1889 882.66 32.7063 884.474 Q30.2237 886.288 30.2237 890.012 Q30.2237 894.564 33.2474 897.205 Q36.2711 899.847 41.491 899.847 L61.6384 899.847 L61.6384 905.735 L40.3133 905.735 Q35.1571 905.735 32.7063 907.55 Q30.2237 909.364 30.2237 913.151 Q30.2237 917.639 33.2792 920.281 Q36.3029 922.923 41.491 922.923 L61.6384 922.923 L61.6384 928.811 L25.9905 928.811 L25.9905 922.923 L31.5287 922.923 Q28.2503 920.918 26.6907 918.117 Q25.1311 915.316 25.1311 911.465 Q25.1311 907.581 27.1045 904.876 Q29.0779 902.139 32.8336 900.834 Z" fill="#000000" fill-rule="nonzero" fill-opacity="1" /><path clip-path="url(#clip850)" d="M43.8463 839.5 Q37.3851 839.5 33.7248 842.174 Q30.0327 844.816 30.0327 849.463 Q30.0327 854.11 33.7248 856.783 Q37.3851 859.425 43.8463 859.425 Q50.3075 859.425 53.9996 856.783 Q57.6599 854.11 57.6599 849.463 Q57.6599 844.816 53.9996 842.174 Q50.3075 839.5 43.8463 839.5 M31.4013 859.425 Q28.2185 857.579 26.6907 854.778 Q25.1311 851.945 25.1311 848.03 Q25.1311 841.537 30.2873 837.495 Q35.4436 833.421 43.8463 833.421 Q52.249 833.421 57.4052 837.495 Q62.5615 841.537 62.5615 848.03 Q62.5615 851.945 61.0337 854.778 Q59.4741 857.579 56.2912 859.425 L61.6384 859.425 L61.6384 865.313 L12.1132 865.313 L12.1132 859.425 L31.4013 859.425 Z" fill="#000000" fill-rule="nonzero" fill-opacity="1" /><path clip-path="url(#clip850)" d="M42.3504 793.222 L45.2149 793.222 L45.2149 820.149 Q51.2623 819.767 54.4452 816.52 Q57.5962 813.242 57.5962 807.417 Q57.5962 804.043 56.7687 800.892 Q55.9411 797.709 54.2861 794.59 L59.8242 794.59 Q61.161 797.741 61.8612 801.051 Q62.5615 804.362 62.5615 807.767 Q62.5615 816.297 57.5962 821.294 Q52.631 826.26 44.1646 826.26 Q35.4117 826.26 30.2873 821.549 Q25.1311 816.807 25.1311 808.786 Q25.1311 801.592 29.7781 797.423 Q34.3932 793.222 42.3504 793.222 M40.6316 799.078 Q35.8255 799.142 32.9609 801.783 Q30.0964 804.393 30.0964 808.722 Q30.0964 813.624 32.8654 816.584 Q35.6345 819.512 40.6634 819.958 L40.6316 799.078 Z" fill="#000000" fill-rule="nonzero" fill-opacity="1" /><path clip-path="url(#clip850)" d="M31.465 762.953 Q30.8921 763.939 30.6375 765.117 Q30.351 766.263 30.351 767.663 Q30.351 772.629 33.5975 775.302 Q36.8122 777.944 42.8596 777.944 L61.6384 777.944 L61.6384 783.832 L25.9905 783.832 L25.9905 777.944 L31.5287 777.944 Q28.2821 776.098 26.7225 773.138 Q25.1311 770.178 25.1311 765.945 Q25.1311 765.34 25.2266 764.608 Q25.2903 763.876 25.4494 762.984 L31.465 762.953 Z" fill="#000000" fill-rule="nonzero" fill-opacity="1" /><polyline clip-path="url(#clip852)" style="stroke:#009af9; stroke-linecap:round; stroke-linejoin:round; stroke-width:4; stroke-opacity:1; fill:none" points="225.654,94.9858 228.07,103.812 230.485,112.608 232.9,121.376 235.315,130.116 237.73,138.826 240.145,147.509 242.56,156.164 244.975,164.79 247.39,173.389 249.805,181.961 252.221,190.504 254.636,199.021 257.051,207.51 259.466,215.972 261.881,224.407 264.296,232.815 266.711,241.196 269.126,249.55 271.541,257.878 273.956,266.179 276.372,274.453 278.787,282.7 281.202,290.921 283.617,299.116 286.032,307.284 288.447,315.425 290.862,323.54 293.277,331.628 295.692,339.69 298.107,347.725 300.523,355.733 302.938,363.715 305.353,371.67 307.768,379.598 310.183,387.499 312.598,395.373 315.013,403.22 317.428,411.04 319.843,418.833 322.259,426.599 324.674,434.337 327.089,442.047 329.504,449.73 331.919,457.385 334.334,465.012 336.749,472.611 339.164,480.181 341.579,487.724 343.994,495.237 346.41,502.723 348.825,510.179 351.24,517.606 353.655,525.004 356.07,532.373 358.485,539.712 360.9,547.021 363.315,554.301 365.73,561.55 368.145,568.77 370.561,575.959 372.976,583.117 375.391,590.244 377.806,597.34 380.221,604.406 382.636,611.439 385.051,618.442 387.466,625.412 389.881,632.351 392.296,639.257 394.712,646.131 397.127,652.972 399.542,659.781 401.957,666.557 404.372,673.3 406.787,680.01 409.202,686.686 411.617,693.328 414.032,699.937 416.447,706.512 418.863,713.053 421.278,719.559 423.693,726.031 426.108,732.469 428.523,738.872 430.938,745.24 433.353,751.573 435.768,757.871 438.183,764.133 440.598,770.36 443.014,776.552 445.429,782.708 447.844,788.828 450.259,794.913 452.674,800.961 455.089,806.974 457.504,812.95 459.919,818.89 462.334,824.794 464.749,830.662 467.165,836.493 469.58,842.288 471.995,848.046 474.41,853.767 476.825,859.453 479.24,865.101 481.655,870.713 484.07,876.288 486.485,881.826 488.901,887.328 491.316,892.793 493.731,898.221 496.146,903.613 498.561,908.968 500.976,914.286 503.391,919.568 505.806,924.813 508.221,930.022 510.636,935.194 513.052,940.33 515.467,945.429 517.882,950.493 520.297,955.52 522.712,960.51 525.127,965.465 527.542,970.384 529.957,975.267 532.372,980.114 534.787,984.926 537.203,989.702 539.618,994.442 542.033,999.147 544.448,1003.82 546.863,1008.45 549.278,1013.05 551.693,1017.62 554.108,1022.15 556.523,1026.64 558.938,1031.11 561.354,1035.53 563.769,1039.93 566.184,1044.29 568.599,1048.61 571.014,1052.9 573.429,1057.16 575.844,1061.39 578.259,1065.58 580.674,1069.74 583.089,1073.87 585.505,1077.96 587.92,1082.03 590.335,1086.06 592.75,1090.06 595.165,1094.02 597.58,1097.96 599.995,1101.86 602.41,1105.74 604.825,1109.58 607.24,1113.39 609.656,1117.17 612.071,1120.92 614.486,1124.64 616.901,1128.33 619.316,1132 621.731,1135.63 624.146,1139.23 626.561,1142.81 628.976,1146.35 631.391,1149.87 633.807,1153.36 636.222,1156.82 638.637,1160.25 641.052,1163.66 643.467,1167.03 645.882,1170.38 648.297,1173.71 650.712,1177 653.127,1180.28 655.543,1183.52 657.958,1186.74 660.373,1189.93 662.788,1193.1 665.203,1196.24 667.618,1199.35 670.033,1202.45 672.448,1205.51 674.863,1208.55 677.278,1211.57 679.694,1214.57 682.109,1217.54 684.524,1220.48 686.939,1223.41 689.354,1226.31 691.769,1229.18 694.184,1232.04 696.599,1234.87 699.014,1237.68 701.429,1240.46 703.845,1243.23 706.26,1245.97 708.675,1248.7 711.09,1251.4 713.505,1254.08 715.92,1256.73 718.335,1259.37 720.75,1261.99 723.165,1264.59 725.58,1267.16 727.996,1269.72 730.411,1272.26 732.826,1274.78 735.241,1277.28 737.656,1279.76 740.071,1282.22 742.486,1284.66 744.901,1287.08 747.316,1289.49 749.731,1291.87 752.147,1294.24 754.562,1296.59 756.977,1298.93 759.392,1301.24 761.807,1303.54 764.222,1305.82 766.637,1308.09 769.052,1310.33 771.467,1312.56 773.882,1314.78 776.298,1316.98 778.713,1319.16 781.128,1321.33 783.543,1323.48 785.958,1325.61 788.373,1327.73 790.788,1329.83 793.203,1331.92 795.618,1334 798.033,1336.05 800.449,1338.1 802.864,1340.13 805.279,1342.14 807.694,1344.14 810.109,1346.13 812.524,1348.1 814.939,1350.06 817.354,1352.01 819.769,1353.94 822.185,1355.86 824.6,1357.76 827.015,1359.65 829.43,1361.53 831.845,1363.39 834.26,1365.25 836.675,1367.09 839.09,1368.91 841.505,1370.73 843.92,1372.53 846.336,1374.32 848.751,1376.1 851.166,1377.86 853.581,1379.62 855.996,1381.36 858.411,1383.09 860.826,1384.81 863.241,1386.52 865.656,1388.22 868.071,1389.9 870.487,1391.58 872.902,1393.24 875.317,1394.89 877.732,1396.53 880.147,1398.16 882.562,1399.78 884.977,1401.39 887.392,1402.99 889.807,1404.58 892.222,1406.16 894.638,1407.73 897.053,1409.29 899.468,1410.84 901.883,1412.38 904.298,1413.91 906.713,1415.43 909.128,1416.94 911.543,1418.44 913.958,1419.93 916.373,1421.41 918.789,1422.89 921.204,1424.35 923.619,1425.8 926.034,1427.25 928.449,1428.69 930.864,1430.11 933.279,1431.53 935.694,1432.94 938.109,1434.35 940.524,1435.74 942.94,1437.12 945.355,1438.5 947.77,1439.87 950.185,1441.23 952.6,1442.58 955.015,1443.93 957.43,1445.26 959.845,1446.59 962.26,1447.91 964.675,1449.22 967.091,1450.53 969.506,1451.82 971.921,1453.11 974.336,1454.39 976.751,1455.67 979.166,1456.93 981.581,1458.19 983.996,1459.44 986.411,1460.69 988.827,1461.93 991.242,1463.16 993.657,1464.38 996.072,1465.59 998.487,1466.8 1000.9,1468 1003.32,1469.2 1005.73,1470.39 1008.15,1471.57 1010.56,1472.74 1012.98,1473.91 1015.39,1475.07 1017.81,1476.23 1020.22,1477.38 1022.64,1478.52 1025.05,1479.65 1027.47,1480.78 1029.88,1481.9 1032.3,1483.02 1034.71,1484.13 1037.13,1485.23 1039.54,1486.33 1041.96,1487.42 1044.37,1488.51 1046.79,1489.59 1049.2,1490.66 1051.62,1491.73 1054.03,1492.79 1056.45,1493.85 1058.86,1494.9 1061.28,1495.94 1063.69,1496.98 1066.11,1498.01 1068.52,1499.04 1070.94,1500.06 1073.36,1501.08 1075.77,1502.09 1078.19,1503.09 1080.6,1504.09 1083.02,1505.09 1085.43,1506.07 1087.85,1507.06 1090.26,1508.03 1092.68,1509.01 1095.09,1509.97 1097.51,1510.94 1099.92,1511.89 1102.34,1512.85 1104.75,1513.79 1107.17,1514.73 1109.58,1515.67 1112,1516.6 1114.41,1517.53 1116.83,1518.45 1119.24,1519.37 1121.66,1520.28 1124.07,1521.18 1126.49,1522.09 1128.9,1522.98 1131.32,1523.87 1133.73,1524.76 1136.15,1525.65 1138.56,1526.52 1140.98,1527.4 1143.39,1528.27 1145.81,1529.13 1148.22,1529.99 1150.64,1530.84 1153.05,1531.7 1155.47,1532.54 1157.88,1533.38 1160.3,1534.22 1162.71,1535.05 1165.13,1535.88 1167.54,1536.71 1169.96,1537.53 1172.37,1538.34 1174.79,1539.15 1177.2,1539.96 1179.62,1540.76 1182.03,1541.56 1184.45,1542.35 1186.86,1543.14 1189.28,1543.93 1191.7,1544.71 1194.11,1545.49 1196.53,1546.26 1198.94,1547.03 1201.36,1547.8 1203.77,1548.56 1206.19,1549.31 1208.6,1550.07 1211.02,1550.82 1213.43,1551.56 1215.85,1552.3 1218.26,1553.04 1220.68,1553.78 1223.09,1554.51 1225.51,1555.23 1227.92,1555.95 1230.34,1556.67 1232.75,1557.39 1235.17,1558.1 1237.58,1558.81 1240,1559.51 1242.41,1560.21 1244.83,1560.91 1247.24,1561.6 1249.66,1562.29 1252.07,1562.97 1254.49,1563.65 1256.9,1564.33 1259.32,1565.01 1261.73,1565.68 1264.15,1566.34 1266.56,1567.01 1268.98,1567.67 1271.39,1568.33 1273.81,1568.98 1276.22,1569.63 1278.64,1570.28 1281.05,1570.92 1283.47,1571.56 1285.88,1572.19 1288.3,1572.83 1290.71,1573.46 1293.13,1574.08 1295.54,1574.71 1297.96,1575.33 1300.37,1575.94 1302.79,1576.55 1305.2,1577.16 1307.62,1577.77 1310.03,1578.37 1312.45,1578.97 1314.87,1579.57 1317.28,1580.16 1319.7,1580.75 1322.11,1581.34 1324.53,1581.92 1326.94,1582.51 1329.36,1583.08 1331.77,1583.66 1334.19,1584.23 1336.6,1584.8 1339.02,1585.36 1341.43,1585.92 1343.85,1586.48 1346.26,1587.04 1348.68,1587.59 1351.09,1588.14 1353.51,1588.69 1355.92,1589.23 1358.34,1589.77 1360.75,1590.31 1363.17,1590.84 1365.58,1591.37 1368,1591.9 1370.41,1592.43 1372.83,1592.95 1375.24,1593.47 1377.66,1593.99 1380.07,1594.5 1382.49,1595.01 1384.9,1595.52 1387.32,1596.02 1389.73,1596.52 1392.15,1597.02 1394.56,1597.52 1396.98,1598.01 1399.39,1598.5 1401.81,1598.99 1404.22,1599.47 1406.64,1599.95 1409.05,1600.43 1411.47,1600.91 1413.88,1601.38 1416.3,1601.85 1418.71,1602.32 1421.13,1602.78 1423.54,1603.24 1425.96,1603.7 1428.37,1604.15 1430.79,1604.61 1433.21,1605.05 1435.62,1605.5 1438.04,1605.94 1440.45,1606.38 1442.87,1606.82 1445.28,1607.26 1447.7,1607.69 1450.11,1608.12 1452.53,1608.54 1454.94,1608.96 1457.36,1609.38 1459.77,1609.8 1462.19,1610.21 1464.6,1610.62 1467.02,1611.03 1469.43,1611.44 1471.85,1611.84 1474.26,1612.24 1476.68,1612.63 1479.09,1613.02 1481.51,1613.41 1483.92,1613.8 1486.34,1614.18 1488.75,1614.56 1491.17,1614.94 1493.58,1615.31 1496,1615.68 1498.41,1616.05 1500.83,1616.41 1503.24,1616.77 1505.66,1617.13 1508.07,1617.48 1510.49,1617.83 1512.9,1618.18 1515.32,1618.52 1517.73,1618.86 1520.15,1619.2 1522.56,1619.53 1524.98,1619.86 1527.39,1620.19 1529.81,1620.51 1532.22,1620.83 1534.64,1621.15 1537.05,1621.46 1539.47,1621.77 1541.88,1622.07 1544.3,1622.37 1546.71,1622.67 1549.13,1622.96 1551.55,1623.25 1553.96,1623.53 1556.38,1623.81 1558.79,1624.09 1561.21,1624.36 1563.62,1624.63 1566.04,1624.89 1568.45,1625.15 1570.87,1625.41 1573.28,1625.66 1575.7,1625.91 1578.11,1626.16 1580.53,1626.4 1582.94,1626.63 1585.36,1626.86 1587.77,1627.09 1590.19,1627.32 1592.6,1627.54 1595.02,1627.75 1597.43,1627.97 1599.85,1628.17 1602.26,1628.38 1604.68,1628.58 1607.09,1628.78 1609.51,1628.97 1611.92,1629.17 1614.34,1629.35 1616.75,1629.54 1619.17,1629.72 1621.58,1629.9 1624,1630.08 1626.41,1630.25 1628.83,1630.42 1631.24,1630.59 1633.66,1630.75 1636.07,1630.91 1638.49,1631.07 1640.9,1631.23 1643.32,1631.39 1645.73,1631.54 1648.15,1631.69 1650.56,1631.84 1652.98,1631.99 1655.39,1632.13 1657.81,1632.28 1660.22,1632.42 1662.64,1632.56 1665.05,1632.7 1667.47,1632.84 1669.89,1632.97 1672.3,1633.11 1674.72,1633.24 1677.13,1633.37 1679.55,1633.5 1681.96,1633.63 1684.38,1633.76 1686.79,1633.89 1689.21,1634.01 1691.62,1634.14 1694.04,1634.26 1696.45,1634.38 1698.87,1634.5 1701.28,1634.62 1703.7,1634.74 1706.11,1634.86 1708.53,1634.98 1710.94,1635.1 1713.36,1635.21 1715.77,1635.33 1718.19,1635.44 1720.6,1635.56 1723.02,1635.67 1725.43,1635.78 1727.85,1635.9 1730.26,1636.01 1732.68,1636.12 1735.09,1636.23 1737.51,1636.34 1739.92,1636.45 1742.34,1636.56 1744.75,1636.67 1747.17,1636.77 1749.58,1636.88 1752,1636.99 1754.41,1637.1 1756.83,1637.2 1759.24,1637.31 1761.66,1637.41 1764.07,1637.52 1766.49,1637.62 1768.9,1637.73 1771.32,1637.83 1773.73,1637.93 1776.15,1638.04 1778.56,1638.14 1780.98,1638.24 1783.39,1638.34 1785.81,1638.44 1788.23,1638.55 1790.64,1638.65 1793.06,1638.75 1795.47,1638.85 1797.89,1638.95 1800.3,1639.05 1802.72,1639.15 1805.13,1639.25 1807.55,1639.35 1809.96,1639.45 1812.38,1639.55 1814.79,1639.65 1817.21,1639.74 1819.62,1639.84 1822.04,1639.94 1824.45,1640.04 1826.87,1640.14 1829.28,1640.23 1831.7,1640.33 1834.11,1640.43 1836.53,1640.53 1838.94,1640.62 1841.36,1640.72 1843.77,1640.82 1846.19,1640.91 1848.6,1641.01 1851.02,1641.11 1853.43,1641.2 1855.85,1641.3 1858.26,1641.39 1860.68,1641.49 1863.09,1641.58 1865.51,1641.68 1867.92,1641.78 1870.34,1641.87 1872.75,1641.97 1875.17,1642.06 1877.58,1642.16 1880,1642.25 1882.41,1642.35 1884.83,1642.44 1887.24,1642.53 1889.66,1642.63 1892.07,1642.72 1894.49,1642.82 1896.9,1642.91 1899.32,1643.01 1901.73,1643.1 1904.15,1643.19 1906.57,1643.29 1908.98,1643.38 1911.4,1643.48 1913.81,1643.57 1916.23,1643.66 1918.64,1643.76 1921.06,1643.85 1923.47,1643.94 1925.89,1644.04 1928.3,1644.13 1930.72,1644.22 1933.13,1644.32 1935.55,1644.41 1937.96,1644.5 1940.38,1644.59 1942.79,1644.69 1945.21,1644.78 1947.62,1644.87 1950.04,1644.97 1952.45,1645.06 1954.87,1645.15 1957.28,1645.24 1959.7,1645.34 1962.11,1645.43 1964.53,1645.52 1966.94,1645.61 1969.36,1645.71 1971.77,1645.8 1974.19,1645.89 1976.6,1645.98 1979.02,1646.07 1981.43,1646.17 1983.85,1646.26 1986.26,1646.35 1988.68,1646.44 1991.09,1646.53 1993.51,1646.63 1995.92,1646.72 1998.34,1646.81 2000.75,1646.9 2003.17,1646.99 2005.58,1647.09 2008,1647.18 2010.41,1647.27 2012.83,1647.36 2015.24,1647.45 2017.66,1647.54 2020.07,1647.63 2022.49,1647.73 2024.91,1647.82 2027.32,1647.91 2029.74,1648 2032.15,1648.09 2034.57,1648.18 2036.98,1648.27 2039.4,1648.37 2041.81,1648.46 2044.23,1648.55 2046.64,1648.64 2049.06,1648.73 2051.47,1648.82 2053.89,1648.91 2056.3,1649 2058.72,1649.09 2061.13,1649.18 2063.55,1649.28 2065.96,1649.37 2068.38,1649.46 2070.79,1649.55 2073.21,1649.64 2075.62,1649.73 2078.04,1649.82 2080.45,1649.91 2082.87,1650 2085.28,1650.09 2087.7,1650.18 2090.11,1650.27 2092.53,1650.36 2094.94,1650.45 2097.36,1650.54 2099.77,1650.63 2102.19,1650.72 2104.6,1650.81 2107.02,1650.9 2109.43,1650.99 2111.85,1651.08 2114.26,1651.17 2116.68,1651.26 2119.09,1651.35 2121.51,1651.44 2123.92,1651.53 2126.34,1651.62 2128.75,1651.71 2131.17,1651.8 2133.58,1651.89 2136,1651.98 2138.41,1652.07 2140.83,1652.16 2143.25,1652.25 2145.66,1652.34 2148.08,1652.43 2150.49,1652.52 2152.91,1652.61 2155.32,1652.7 2157.74,1652.79 2160.15,1652.88 2162.57,1652.97 2164.98,1653.06 2167.4,1653.15 2169.81,1653.24 2172.23,1653.33 2174.64,1653.41 2177.06,1653.5 2179.47,1653.59 2181.89,1653.68 2184.3,1653.77 2186.72,1653.86 2189.13,1653.95 2191.55,1654.04 2193.96,1654.13 2196.38,1654.21 2198.79,1654.3 2201.21,1654.39 2203.62,1654.48 2206.04,1654.57 2208.45,1654.66 2210.87,1654.75 2213.28,1654.83 2215.7,1654.92 2218.11,1655.01 2220.53,1655.1 2222.94,1655.19 2225.36,1655.28 2227.77,1655.36 2230.19,1655.45 2232.6,1655.54 2235.02,1655.63 2237.43,1655.72 2239.85,1655.8 2242.26,1655.89 2244.68,1655.98 2247.09,1656.07 2249.51,1656.15 2251.92,1656.24 2254.34,1656.33 2256.75,1656.42 2259.17,1656.51 2261.58,1656.59 2264,1656.68 2266.42,1656.77 2268.83,1656.85 2271.25,1656.94 2273.66,1657.03 2276.08,1657.12 2278.49,1657.2 2280.91,1657.29 2283.32,1657.38 2285.74,1657.46 2288.15,1657.55 2290.57,1657.64 2292.98,1657.72 2295.4,1657.81 2297.81,1657.9 2300.23,1657.98 2302.64,1658.07 2305.06,1658.16 2307.47,1658.24 2309.89,1658.33 2312.3,1658.42 2314.72,1658.5 2317.13,1658.59 2319.55,1658.67 2321.96,1658.76 2324.38,1658.85 2326.79,1658.93 2329.21,1659.02 2331.62,1659.1 2334.04,1659.19 2336.45,1659.27 2338.87,1659.36 2341.28,1659.45 2343.7,1659.53 2346.11,1659.62 2348.53,1659.7 2350.94,1659.79 2353.36,1659.87 2355.77,1659.96 2358.19,1660.04 2360.6,1660.13 2363.02,1660.21 2365.43,1660.3 2367.85,1660.38 2370.26,1660.47 2372.68,1660.55 2375.09,1660.64 2377.51,1660.72 2379.92,1660.81 2382.34,1660.89 2384.76,1660.97 2387.17,1661.06 2389.59,1661.14 2392,1661.23 2394.42,1661.31 2396.83,1661.39 2399.25,1661.48 2401.66,1661.56 2404.08,1661.65 2406.49,1661.73 2408.91,1661.81 2411.32,1661.9 2413.74,1661.98 2416.15,1662.06 2418.57,1662.15 2420.98,1662.23 2423.4,1662.31 2425.81,1662.4 2428.23,1662.48 2430.64,1662.56 2433.06,1662.65 2435.47,1662.73 2437.89,1662.81 2440.3,1662.89 2442.72,1662.98 2445.13,1663.06 2447.55,1663.14 2449.96,1663.22 2452.38,1663.31 2454.79,1663.39 2457.21,1663.47 2459.62,1663.55 2462.04,1663.64 2464.45,1663.72 2466.87,1663.8 2469.28,1663.88 2471.7,1663.96 2474.11,1664.04 2476.53,1664.13 2478.94,1664.21 2481.36,1664.29 2483.77,1664.37 2486.19,1664.45 2488.6,1664.53 2491.02,1664.61 2493.43,1664.69 2495.85,1664.77 2498.26,1664.86 2500.68,1664.94 2503.1,1665.02 2505.51,1665.1 2507.93,1665.18 2510.34,1665.26 2512.76,1665.34 2515.17,1665.42 2517.59,1665.5 2520,1665.58 2522.42,1665.66 2524.83,1665.74 2527.25,1665.82 2529.66,1665.9 2532.08,1665.98 2534.49,1666.06 2536.91,1666.14 2539.32,1666.22 2541.74,1666.3 2544.15,1666.38 2546.57,1666.45 2548.98,1666.53 2551.4,1666.61 2553.81,1666.69 2556.23,1666.77 2558.64,1666.85 2561.06,1666.93 2563.47,1667.01 2565.89,1667.08 2568.3,1667.16 2570.72,1667.24 2573.13,1667.32 2575.55,1667.4 2577.96,1667.48 2580.38,1667.55 2582.79,1667.63 2585.21,1667.71 2587.62,1667.79 2590.04,1667.86 2592.45,1667.94 2594.87,1668.02 2597.28,1668.1 2599.7,1668.17 2602.11,1668.25 2604.53,1668.33 2606.94,1668.4 2609.36,1668.48 2611.77,1668.56 2614.19,1668.63 2616.6,1668.71 2619.02,1668.79 2621.44,1668.86 2623.85,1668.94 2626.27,1669.02 2628.68,1669.09 2631.1,1669.17 2633.51,1669.24 2635.93,1669.32 2638.34,1669.4 2640.76,1669.47 "/>
<polyline clip-path="url(#clip852)" style="stroke:#e26f46; stroke-linecap:round; stroke-linejoin:round; stroke-width:4; stroke-opacity:1; fill:none" points="225.654,175.22 228.07,183.604 230.485,191.961 232.9,200.291 235.315,208.593 237.73,216.868 240.145,225.117 242.56,233.339 244.975,241.534 247.39,249.703 249.805,257.846 252.221,265.962 254.636,274.053 257.051,282.118 259.466,290.157 261.881,298.17 264.296,306.157 266.711,314.119 269.126,322.056 271.541,329.967 273.956,337.853 276.372,345.713 278.787,353.549 281.202,361.359 283.617,369.143 286.032,376.903 288.447,384.637 290.862,392.346 293.277,400.03 295.692,407.688 298.107,415.322 300.523,422.93 302.938,430.512 305.353,438.069 307.768,445.601 310.183,453.107 312.598,460.588 315.013,468.042 317.428,475.471 319.843,482.875 322.259,490.252 324.674,497.603 327.089,504.928 329.504,512.226 331.919,519.499 334.334,526.744 336.749,533.963 339.164,541.155 341.579,548.321 343.994,555.459 346.41,562.57 348.825,569.653 351.24,576.709 353.655,583.737 356.07,590.737 358.485,597.709 360.9,604.653 363.315,611.569 365.73,618.456 368.145,625.314 370.561,632.144 372.976,638.944 375.391,645.715 377.806,652.457 380.221,659.169 382.636,665.851 385.051,672.503 387.466,679.125 389.881,685.716 392.296,692.277 394.712,698.808 397.127,705.307 399.542,711.775 401.957,718.212 404.372,724.618 406.787,730.992 409.202,737.335 411.617,743.645 414.032,749.923 416.447,756.17 418.863,762.383 421.278,768.565 423.693,774.713 426.108,780.829 428.523,786.911 430.938,792.961 433.353,798.977 435.768,804.96 438.183,810.91 440.598,816.825 443.014,822.708 445.429,828.556 447.844,834.37 450.259,840.15 452.674,845.896 455.089,851.608 457.504,857.286 459.919,862.929 462.334,868.538 464.749,874.112 467.165,879.651 469.58,885.156 471.995,890.627 474.41,896.062 476.825,901.463 479.24,906.829 481.655,912.16 484.07,917.456 486.485,922.718 488.901,927.945 491.316,933.136 493.731,938.293 496.146,943.415 498.561,948.503 500.976,953.555 503.391,958.573 505.806,963.556 508.221,968.504 510.636,973.418 513.052,978.297 515.467,983.141 517.882,987.951 520.297,992.727 522.712,997.468 525.127,1002.17 527.542,1006.85 529.957,1011.49 532.372,1016.09 534.787,1020.66 537.203,1025.2 539.618,1029.7 542.033,1034.17 544.448,1038.61 546.863,1043.01 549.278,1047.38 551.693,1051.72 554.108,1056.02 556.523,1060.29 558.938,1064.53 561.354,1068.74 563.769,1072.91 566.184,1077.05 568.599,1081.16 571.014,1085.24 573.429,1089.29 575.844,1093.3 578.259,1097.29 580.674,1101.24 583.089,1105.16 585.505,1109.05 587.92,1112.91 590.335,1116.74 592.75,1120.54 595.165,1124.3 597.58,1128.04 599.995,1131.75 602.41,1135.43 604.825,1139.08 607.24,1142.7 609.656,1146.3 612.071,1149.86 614.486,1153.39 616.901,1156.9 619.316,1160.38 621.731,1163.83 624.146,1167.25 626.561,1170.65 628.976,1174.02 631.391,1177.36 633.807,1180.67 636.222,1183.96 638.637,1187.22 641.052,1190.46 643.467,1193.66 645.882,1196.85 648.297,1200.01 650.712,1203.14 653.127,1206.24 655.543,1209.33 657.958,1212.38 660.373,1215.42 662.788,1218.42 665.203,1221.41 667.618,1224.37 670.033,1227.31 672.448,1230.22 674.863,1233.11 677.278,1235.98 679.694,1238.82 682.109,1241.64 684.524,1244.44 686.939,1247.22 689.354,1249.97 691.769,1252.71 694.184,1255.42 696.599,1258.11 699.014,1260.78 701.429,1263.42 703.845,1266.05 706.26,1268.66 708.675,1271.24 711.09,1273.81 713.505,1276.35 715.92,1278.88 718.335,1281.39 720.75,1283.87 723.165,1286.34 725.58,1288.79 727.996,1291.22 730.411,1293.63 732.826,1296.02 735.241,1298.39 737.656,1300.75 740.071,1303.09 742.486,1305.41 744.901,1307.71 747.316,1309.99 749.731,1312.26 752.147,1314.51 754.562,1316.75 756.977,1318.96 759.392,1321.16 761.807,1323.35 764.222,1325.51 766.637,1327.66 769.052,1329.8 771.467,1331.92 773.882,1334.02 776.298,1336.11 778.713,1338.18 781.128,1340.24 783.543,1342.28 785.958,1344.31 788.373,1346.33 790.788,1348.32 793.203,1350.31 795.618,1352.28 798.033,1354.23 800.449,1356.18 802.864,1358.1 805.279,1360.02 807.694,1361.92 810.109,1363.81 812.524,1365.68 814.939,1367.54 817.354,1369.39 819.769,1371.22 822.185,1373.04 824.6,1374.85 827.015,1376.65 829.43,1378.43 831.845,1380.21 834.26,1381.97 836.675,1383.71 839.09,1385.45 841.505,1387.17 843.92,1388.89 846.336,1390.59 848.751,1392.28 851.166,1393.95 853.581,1395.62 855.996,1397.28 858.411,1398.92 860.826,1400.55 863.241,1402.18 865.656,1403.79 868.071,1405.39 870.487,1406.98 872.902,1408.56 875.317,1410.13 877.732,1411.69 880.147,1413.24 882.562,1414.78 884.977,1416.31 887.392,1417.83 889.807,1419.34 892.222,1420.84 894.638,1422.33 897.053,1423.81 899.468,1425.28 901.883,1426.74 904.298,1428.19 906.713,1429.64 909.128,1431.07 911.543,1432.5 913.958,1433.91 916.373,1435.32 918.789,1436.72 921.204,1438.11 923.619,1439.49 926.034,1440.87 928.449,1442.23 930.864,1443.59 933.279,1444.94 935.694,1446.28 938.109,1447.61 940.524,1448.93 942.94,1450.25 945.355,1451.56 947.77,1452.86 950.185,1454.15 952.6,1455.43 955.015,1456.71 957.43,1457.98 959.845,1459.24 962.26,1460.49 964.675,1461.74 967.091,1462.98 969.506,1464.21 971.921,1465.43 974.336,1466.65 976.751,1467.86 979.166,1469.07 981.581,1470.26 983.996,1471.45 986.411,1472.63 988.827,1473.81 991.242,1474.98 993.657,1476.14 996.072,1477.29 998.487,1478.44 1000.9,1479.58 1003.32,1480.72 1005.73,1481.85 1008.15,1482.97 1010.56,1484.08 1012.98,1485.19 1015.39,1486.3 1017.81,1487.39 1020.22,1488.48 1022.64,1489.57 1025.05,1490.65 1027.47,1491.72 1029.88,1492.79 1032.3,1493.85 1034.71,1494.9 1037.13,1495.95 1039.54,1496.99 1041.96,1498.03 1044.37,1499.06 1046.79,1500.09 1049.2,1501.11 1051.62,1502.12 1054.03,1503.13 1056.45,1504.13 1058.86,1505.13 1061.28,1506.12 1063.69,1507.11 1066.11,1508.09 1068.52,1509.06 1070.94,1510.03 1073.36,1511 1075.77,1511.96 1078.19,1512.91 1080.6,1513.86 1083.02,1514.8 1085.43,1515.74 1087.85,1516.68 1090.26,1517.61 1092.68,1518.53 1095.09,1519.45 1097.51,1520.36 1099.92,1521.27 1102.34,1522.17 1104.75,1523.07 1107.17,1523.97 1109.58,1524.86 1112,1525.74 1114.41,1526.62 1116.83,1527.5 1119.24,1528.37 1121.66,1529.23 1124.07,1530.09 1126.49,1530.95 1128.9,1531.8 1131.32,1532.65 1133.73,1533.49 1136.15,1534.33 1138.56,1535.16 1140.98,1535.99 1143.39,1536.82 1145.81,1537.64 1148.22,1538.46 1150.64,1539.27 1153.05,1540.08 1155.47,1540.88 1157.88,1541.68 1160.3,1542.47 1162.71,1543.26 1165.13,1544.05 1167.54,1544.83 1169.96,1545.61 1172.37,1546.38 1174.79,1547.15 1177.2,1547.92 1179.62,1548.68 1182.03,1549.44 1184.45,1550.19 1186.86,1550.94 1189.28,1551.69 1191.7,1552.43 1194.11,1553.17 1196.53,1553.9 1198.94,1554.63 1201.36,1555.36 1203.77,1556.08 1206.19,1556.8 1208.6,1557.52 1211.02,1558.23 1213.43,1558.94 1215.85,1559.64 1218.26,1560.34 1220.68,1561.04 1223.09,1561.73 1225.51,1562.42 1227.92,1563.1 1230.34,1563.78 1232.75,1564.46 1235.17,1565.14 1237.58,1565.81 1240,1566.48 1242.41,1567.14 1244.83,1567.8 1247.24,1568.46 1249.66,1569.11 1252.07,1569.76 1254.49,1570.41 1256.9,1571.05 1259.32,1571.69 1261.73,1572.33 1264.15,1572.96 1266.56,1573.59 1268.98,1574.21 1271.39,1574.84 1273.81,1575.46 1276.22,1576.07 1278.64,1576.68 1281.05,1577.29 1283.47,1577.9 1285.88,1578.5 1288.3,1579.1 1290.71,1579.7 1293.13,1580.29 1295.54,1580.88 1297.96,1581.47 1300.37,1582.05 1302.79,1582.63 1305.2,1583.21 1307.62,1583.79 1310.03,1584.36 1312.45,1584.93 1314.87,1585.49 1317.28,1586.05 1319.7,1586.61 1322.11,1587.17 1324.53,1587.72 1326.94,1588.27 1329.36,1588.81 1331.77,1589.36 1334.19,1589.9 1336.6,1590.44 1339.02,1590.97 1341.43,1591.5 1343.85,1592.03 1346.26,1592.56 1348.68,1593.08 1351.09,1593.6 1353.51,1594.11 1355.92,1594.63 1358.34,1595.14 1360.75,1595.64 1363.17,1596.15 1365.58,1596.65 1368,1597.15 1370.41,1597.65 1372.83,1598.14 1375.24,1598.63 1377.66,1599.11 1380.07,1599.6 1382.49,1600.08 1384.9,1600.56 1387.32,1601.03 1389.73,1601.51 1392.15,1601.98 1394.56,1602.44 1396.98,1602.91 1399.39,1603.37 1401.81,1603.82 1404.22,1604.28 1406.64,1604.73 1409.05,1605.18 1411.47,1605.63 1413.88,1606.07 1416.3,1606.51 1418.71,1606.95 1421.13,1607.38 1423.54,1607.81 1425.96,1608.24 1428.37,1608.67 1430.79,1609.09 1433.21,1609.51 1435.62,1609.93 1438.04,1610.34 1440.45,1610.75 1442.87,1611.16 1445.28,1611.57 1447.7,1611.97 1450.11,1612.37 1452.53,1612.76 1454.94,1613.16 1457.36,1613.55 1459.77,1613.93 1462.19,1614.32 1464.6,1614.7 1467.02,1615.07 1469.43,1615.45 1471.85,1615.82 1474.26,1616.19 1476.68,1616.55 1479.09,1616.91 1481.51,1617.27 1483.92,1617.63 1486.34,1617.98 1488.75,1618.32 1491.17,1618.67 1493.58,1619.01 1496,1619.35 1498.41,1619.68 1500.83,1620.01 1503.24,1620.34 1505.66,1620.67 1508.07,1620.99 1510.49,1621.3 1512.9,1621.61 1515.32,1621.92 1517.73,1622.23 1520.15,1622.53 1522.56,1622.83 1524.98,1623.12 1527.39,1623.41 1529.81,1623.7 1532.22,1623.98 1534.64,1624.26 1537.05,1624.53 1539.47,1624.8 1541.88,1625.07 1544.3,1625.33 1546.71,1625.59 1549.13,1625.84 1551.55,1626.09 1553.96,1626.34 1556.38,1626.58 1558.79,1626.81 1561.21,1627.05 1563.62,1627.27 1566.04,1627.5 1568.45,1627.72 1570.87,1627.93 1573.28,1628.14 1575.7,1628.35 1578.11,1628.56 1580.53,1628.76 1582.94,1628.95 1585.36,1629.15 1587.77,1629.33 1590.19,1629.52 1592.6,1629.7 1595.02,1629.88 1597.43,1630.06 1599.85,1630.23 1602.26,1630.4 1604.68,1630.56 1607.09,1630.73 1609.51,1630.89 1611.92,1631.05 1614.34,1631.2 1616.75,1631.36 1619.17,1631.51 1621.58,1631.66 1624,1631.81 1626.41,1631.95 1628.83,1632.09 1631.24,1632.24 1633.66,1632.38 1636.07,1632.52 1638.49,1632.65 1640.9,1632.79 1643.32,1632.92 1645.73,1633.05 1648.15,1633.19 1650.56,1633.32 1652.98,1633.44 1655.39,1633.57 1657.81,1633.7 1660.22,1633.82 1662.64,1633.95 1665.05,1634.07 1667.47,1634.19 1669.89,1634.32 1672.3,1634.44 1674.72,1634.56 1677.13,1634.67 1679.55,1634.79 1681.96,1634.91 1684.38,1635.03 1686.79,1635.14 1689.21,1635.26 1691.62,1635.37 1694.04,1635.48 1696.45,1635.6 1698.87,1635.71 1701.28,1635.82 1703.7,1635.93 1706.11,1636.04 1708.53,1636.15 1710.94,1636.26 1713.36,1636.37 1715.77,1636.48 1718.19,1636.59 1720.6,1636.69 1723.02,1636.8 1725.43,1636.91 1727.85,1637.01 1730.26,1637.12 1732.68,1637.22 1735.09,1637.33 1737.51,1637.43 1739.92,1637.54 1742.34,1637.64 1744.75,1637.75 1747.17,1637.85 1749.58,1637.95 1752,1638.05 1754.41,1638.16 1756.83,1638.26 1759.24,1638.36 1761.66,1638.46 1764.07,1638.56 1766.49,1638.66 1768.9,1638.76 1771.32,1638.86 1773.73,1638.96 1776.15,1639.06 1778.56,1639.16 1780.98,1639.26 1783.39,1639.36 1785.81,1639.46 1788.23,1639.56 1790.64,1639.66 1793.06,1639.75 1795.47,1639.85 1797.89,1639.95 1800.3,1640.05 1802.72,1640.15 1805.13,1640.24 1807.55,1640.34 1809.96,1640.44 1812.38,1640.53 1814.79,1640.63 1817.21,1640.73 1819.62,1640.82 1822.04,1640.92 1824.45,1641.02 1826.87,1641.11 1829.28,1641.21 1831.7,1641.3 1834.11,1641.4 1836.53,1641.5 1838.94,1641.59 1841.36,1641.69 1843.77,1641.78 1846.19,1641.88 1848.6,1641.97 1851.02,1642.07 1853.43,1642.16 1855.85,1642.26 1858.26,1642.35 1860.68,1642.45 1863.09,1642.54 1865.51,1642.63 1867.92,1642.73 1870.34,1642.82 1872.75,1642.92 1875.17,1643.01 1877.58,1643.1 1880,1643.2 1882.41,1643.29 1884.83,1643.39 1887.24,1643.48 1889.66,1643.57 1892.07,1643.67 1894.49,1643.76 1896.9,1643.85 1899.32,1643.95 1901.73,1644.04 1904.15,1644.13 1906.57,1644.23 1908.98,1644.32 1911.4,1644.41 1913.81,1644.5 1916.23,1644.6 1918.64,1644.69 1921.06,1644.78 1923.47,1644.88 1925.89,1644.97 1928.3,1645.06 1930.72,1645.15 1933.13,1645.25 1935.55,1645.34 1937.96,1645.43 1940.38,1645.52 1942.79,1645.62 1945.21,1645.71 1947.62,1645.8 1950.04,1645.89 1952.45,1645.98 1954.87,1646.08 1957.28,1646.17 1959.7,1646.26 1962.11,1646.35 1964.53,1646.44 1966.94,1646.54 1969.36,1646.63 1971.77,1646.72 1974.19,1646.81 1976.6,1646.9 1979.02,1647 1981.43,1647.09 1983.85,1647.18 1986.26,1647.27 1988.68,1647.36 1991.09,1647.45 1993.51,1647.55 1995.92,1647.64 1998.34,1647.73 2000.75,1647.82 2003.17,1647.91 2005.58,1648 2008,1648.09 2010.41,1648.18 2012.83,1648.28 2015.24,1648.37 2017.66,1648.46 2020.07,1648.55 2022.49,1648.64 2024.91,1648.73 2027.32,1648.82 2029.74,1648.91 2032.15,1649 2034.57,1649.09 2036.98,1649.19 2039.4,1649.28 2041.81,1649.37 2044.23,1649.46 2046.64,1649.55 2049.06,1649.64 2051.47,1649.73 2053.89,1649.82 2056.3,1649.91 2058.72,1650 2061.13,1650.09 2063.55,1650.18 2065.96,1650.27 2068.38,1650.36 2070.79,1650.45 2073.21,1650.54 2075.62,1650.63 2078.04,1650.73 2080.45,1650.82 2082.87,1650.91 2085.28,1651 2087.7,1651.09 2090.11,1651.18 2092.53,1651.27 2094.94,1651.36 2097.36,1651.45 2099.77,1651.54 2102.19,1651.63 2104.6,1651.72 2107.02,1651.81 2109.43,1651.9 2111.85,1651.99 2114.26,1652.07 2116.68,1652.16 2119.09,1652.25 2121.51,1652.34 2123.92,1652.43 2126.34,1652.52 2128.75,1652.61 2131.17,1652.7 2133.58,1652.79 2136,1652.88 2138.41,1652.97 2140.83,1653.06 2143.25,1653.15 2145.66,1653.24 2148.08,1653.33 2150.49,1653.42 2152.91,1653.51 2155.32,1653.59 2157.74,1653.68 2160.15,1653.77 2162.57,1653.86 2164.98,1653.95 2167.4,1654.04 2169.81,1654.13 2172.23,1654.22 2174.64,1654.31 2177.06,1654.39 2179.47,1654.48 2181.89,1654.57 2184.3,1654.66 2186.72,1654.75 2189.13,1654.84 2191.55,1654.92 2193.96,1655.01 2196.38,1655.1 2198.79,1655.19 2201.21,1655.28 2203.62,1655.37 2206.04,1655.45 2208.45,1655.54 2210.87,1655.63 2213.28,1655.72 2215.7,1655.81 2218.11,1655.89 2220.53,1655.98 2222.94,1656.07 2225.36,1656.16 2227.77,1656.24 2230.19,1656.33 2232.6,1656.42 2235.02,1656.51 2237.43,1656.59 2239.85,1656.68 2242.26,1656.77 2244.68,1656.86 2247.09,1656.94 2249.51,1657.03 2251.92,1657.12 2254.34,1657.21 2256.75,1657.29 2259.17,1657.38 2261.58,1657.47 2264,1657.55 2266.42,1657.64 2268.83,1657.73 2271.25,1657.81 2273.66,1657.9 2276.08,1657.99 2278.49,1658.07 2280.91,1658.16 2283.32,1658.25 2285.74,1658.33 2288.15,1658.42 2290.57,1658.5 2292.98,1658.59 2295.4,1658.68 2297.81,1658.76 2300.23,1658.85 2302.64,1658.93 2305.06,1659.02 2307.47,1659.11 2309.89,1659.19 2312.3,1659.28 2314.72,1659.36 2317.13,1659.45 2319.55,1659.53 2321.96,1659.62 2324.38,1659.7 2326.79,1659.79 2329.21,1659.88 2331.62,1659.96 2334.04,1660.05 2336.45,1660.13 2338.87,1660.22 2341.28,1660.3 2343.7,1660.39 2346.11,1660.47 2348.53,1660.55 2350.94,1660.64 2353.36,1660.72 2355.77,1660.81 2358.19,1660.89 2360.6,1660.98 2363.02,1661.06 2365.43,1661.15 2367.85,1661.23 2370.26,1661.31 2372.68,1661.4 2375.09,1661.48 2377.51,1661.57 2379.92,1661.65 2382.34,1661.73 2384.76,1661.82 2387.17,1661.9 2389.59,1661.98 2392,1662.07 2394.42,1662.15 2396.83,1662.23 2399.25,1662.32 2401.66,1662.4 2404.08,1662.48 2406.49,1662.57 2408.91,1662.65 2411.32,1662.73 2413.74,1662.82 2416.15,1662.9 2418.57,1662.98 2420.98,1663.06 2423.4,1663.15 2425.81,1663.23 2428.23,1663.31 2430.64,1663.39 2433.06,1663.47 2435.47,1663.56 2437.89,1663.64 2440.3,1663.72 2442.72,1663.8 2445.13,1663.88 2447.55,1663.97 2449.96,1664.05 2452.38,1664.13 2454.79,1664.21 2457.21,1664.29 2459.62,1664.37 2462.04,1664.45 2464.45,1664.54 2466.87,1664.62 2469.28,1664.7 2471.7,1664.78 2474.11,1664.86 2476.53,1664.94 2478.94,1665.02 2481.36,1665.1 2483.77,1665.18 2486.19,1665.26 2488.6,1665.34 2491.02,1665.42 2493.43,1665.5 2495.85,1665.58 2498.26,1665.66 2500.68,1665.74 2503.1,1665.82 2505.51,1665.9 2507.93,1665.98 2510.34,1666.06 2512.76,1666.14 2515.17,1666.22 2517.59,1666.3 2520,1666.38 2522.42,1666.46 2524.83,1666.54 2527.25,1666.62 2529.66,1666.7 2532.08,1666.77 2534.49,1666.85 2536.91,1666.93 2539.32,1667.01 2541.74,1667.09 2544.15,1667.17 2546.57,1667.24 2548.98,1667.32 2551.4,1667.4 2553.81,1667.48 2556.23,1667.56 2558.64,1667.63 2561.06,1667.71 2563.47,1667.79 2565.89,1667.87 2568.3,1667.95 2570.72,1668.02 2573.13,1668.1 2575.55,1668.18 2577.96,1668.25 2580.38,1668.33 2582.79,1668.41 2585.21,1668.48 2587.62,1668.56 2590.04,1668.64 2592.45,1668.71 2594.87,1668.79 2597.28,1668.87 2599.7,1668.94 2602.11,1669.02 2604.53,1669.1 2606.94,1669.17 2609.36,1669.25 2611.77,1669.32 2614.19,1669.4 2616.6,1669.47 2619.02,1669.55 2621.44,1669.63 2623.85,1669.7 2626.27,1669.78 2628.68,1669.85 2631.1,1669.93 2633.51,1670 2635.93,1670.08 2638.34,1670.15 2640.76,1670.23 "/>
<polyline clip-path="url(#clip852)" style="stroke:#3da44d; stroke-linecap:round; stroke-linejoin:round; stroke-width:4; stroke-opacity:1; fill:none" points="225.654,1659.14 228.07,1659.14 230.485,1659.14 232.9,1659.14 235.315,1659.14 237.73,1659.14 240.145,1659.14 242.56,1659.14 244.975,1659.14 247.39,1659.14 249.805,1659.14 252.221,1659.14 254.636,1659.14 257.051,1659.14 259.466,1659.14 261.881,1659.14 264.296,1659.14 266.711,1659.14 269.126,1659.14 271.541,1659.14 273.956,1659.14 276.372,1659.14 278.787,1659.14 281.202,1659.14 283.617,1659.14 286.032,1659.14 288.447,1659.14 290.862,1659.14 293.277,1659.14 295.692,1659.14 298.107,1659.14 300.523,1659.14 302.938,1659.14 305.353,1659.14 307.768,1659.14 310.183,1659.14 312.598,1659.14 315.013,1659.14 317.428,1659.14 319.843,1659.14 322.259,1659.14 324.674,1659.14 327.089,1659.14 329.504,1659.14 331.919,1659.14 334.334,1659.14 336.749,1659.14 339.164,1659.14 341.579,1659.14 343.994,1659.14 346.41,1659.14 348.825,1659.14 351.24,1659.14 353.655,1659.14 356.07,1659.14 358.485,1659.14 360.9,1659.14 363.315,1659.14 365.73,1659.14 368.145,1659.14 370.561,1659.14 372.976,1659.14 375.391,1659.14 377.806,1659.14 380.221,1659.14 382.636,1659.14 385.051,1659.14 387.466,1659.14 389.881,1659.14 392.296,1659.14 394.712,1659.14 397.127,1659.14 399.542,1659.14 401.957,1659.14 404.372,1659.14 406.787,1659.14 409.202,1659.14 411.617,1659.14 414.032,1659.14 416.447,1659.14 418.863,1659.14 421.278,1659.14 423.693,1659.14 426.108,1659.14 428.523,1659.14 430.938,1659.14 433.353,1659.14 435.768,1659.14 438.183,1659.14 440.598,1659.14 443.014,1659.14 445.429,1659.14 447.844,1659.14 450.259,1659.14 452.674,1659.14 455.089,1659.14 457.504,1659.14 459.919,1659.14 462.334,1659.14 464.749,1659.14 467.165,1659.14 469.58,1659.14 471.995,1659.14 474.41,1659.14 476.825,1659.14 479.24,1659.14 481.655,1659.14 484.07,1659.14 486.485,1659.14 488.901,1659.14 491.316,1659.14 493.731,1659.14 496.146,1659.14 498.561,1659.14 500.976,1659.14 503.391,1659.14 505.806,1659.14 508.221,1659.14 510.636,1659.14 513.052,1659.14 515.467,1659.14 517.882,1659.14 520.297,1659.14 522.712,1659.14 525.127,1659.14 527.542,1659.14 529.957,1659.14 532.372,1659.14 534.787,1659.14 537.203,1659.14 539.618,1659.14 542.033,1659.14 544.448,1659.14 546.863,1659.14 549.278,1659.14 551.693,1659.14 554.108,1659.14 556.523,1659.14 558.938,1659.14 561.354,1659.14 563.769,1659.14 566.184,1659.14 568.599,1659.14 571.014,1659.14 573.429,1659.14 575.844,1659.14 578.259,1659.14 580.674,1659.14 583.089,1659.14 585.505,1659.14 587.92,1659.14 590.335,1659.14 592.75,1659.14 595.165,1659.14 597.58,1659.14 599.995,1659.14 602.41,1659.14 604.825,1659.14 607.24,1659.14 609.656,1659.14 612.071,1659.14 614.486,1659.14 616.901,1659.14 619.316,1659.14 621.731,1659.14 624.146,1659.14 626.561,1659.14 628.976,1659.14 631.391,1659.14 633.807,1659.14 636.222,1659.14 638.637,1659.14 641.052,1659.14 643.467,1659.14 645.882,1659.14 648.297,1659.14 650.712,1659.14 653.127,1659.14 655.543,1659.14 657.958,1659.14 660.373,1659.14 662.788,1659.14 665.203,1659.14 667.618,1659.14 670.033,1659.14 672.448,1659.14 674.863,1659.14 677.278,1659.14 679.694,1659.14 682.109,1659.14 684.524,1659.14 686.939,1659.14 689.354,1659.14 691.769,1659.14 694.184,1659.14 696.599,1659.14 699.014,1659.14 701.429,1659.14 703.845,1659.14 706.26,1659.14 708.675,1659.14 711.09,1659.14 713.505,1659.14 715.92,1659.14 718.335,1659.14 720.75,1659.14 723.165,1659.14 725.58,1659.14 727.996,1659.14 730.411,1659.14 732.826,1659.14 735.241,1659.14 737.656,1659.14 740.071,1659.14 742.486,1659.14 744.901,1659.14 747.316,1659.14 749.731,1659.14 752.147,1659.14 754.562,1659.14 756.977,1659.14 759.392,1659.14 761.807,1659.14 764.222,1659.14 766.637,1659.14 769.052,1659.14 771.467,1659.14 773.882,1659.14 776.298,1659.14 778.713,1659.14 781.128,1659.14 783.543,1659.14 785.958,1659.14 788.373,1659.14 790.788,1659.14 793.203,1659.14 795.618,1659.14 798.033,1659.14 800.449,1659.14 802.864,1659.14 805.279,1659.14 807.694,1659.15 810.109,1659.15 812.524,1659.15 814.939,1659.15 817.354,1659.15 819.769,1659.15 822.185,1659.15 824.6,1659.15 827.015,1659.15 829.43,1659.15 831.845,1659.15 834.26,1659.15 836.675,1659.15 839.09,1659.15 841.505,1659.15 843.92,1659.15 846.336,1659.15 848.751,1659.15 851.166,1659.15 853.581,1659.15 855.996,1659.15 858.411,1659.15 860.826,1659.15 863.241,1659.15 865.656,1659.15 868.071,1659.15 870.487,1659.15 872.902,1659.15 875.317,1659.15 877.732,1659.15 880.147,1659.15 882.562,1659.15 884.977,1659.15 887.392,1659.15 889.807,1659.15 892.222,1659.15 894.638,1659.15 897.053,1659.15 899.468,1659.15 901.883,1659.15 904.298,1659.15 906.713,1659.15 909.128,1659.15 911.543,1659.15 913.958,1659.15 916.373,1659.15 918.789,1659.15 921.204,1659.15 923.619,1659.15 926.034,1659.15 928.449,1659.15 930.864,1659.15 933.279,1659.15 935.694,1659.15 938.109,1659.15 940.524,1659.15 942.94,1659.15 945.355,1659.15 947.77,1659.15 950.185,1659.15 952.6,1659.15 955.015,1659.15 957.43,1659.15 959.845,1659.15 962.26,1659.15 964.675,1659.15 967.091,1659.15 969.506,1659.16 971.921,1659.16 974.336,1659.16 976.751,1659.16 979.166,1659.16 981.581,1659.16 983.996,1659.16 986.411,1659.16 988.827,1659.16 991.242,1659.16 993.657,1659.16 996.072,1659.16 998.487,1659.16 1000.9,1659.16 1003.32,1659.16 1005.73,1659.16 1008.15,1659.16 1010.56,1659.16 1012.98,1659.16 1015.39,1659.16 1017.81,1659.16 1020.22,1659.16 1022.64,1659.16 1025.05,1659.17 1027.47,1659.17 1029.88,1659.17 1032.3,1659.17 1034.71,1659.17 1037.13,1659.17 1039.54,1659.17 1041.96,1659.17 1044.37,1659.17 1046.79,1659.17 1049.2,1659.17 1051.62,1659.17 1054.03,1659.17 1056.45,1659.17 1058.86,1659.18 1061.28,1659.18 1063.69,1659.18 1066.11,1659.18 1068.52,1659.18 1070.94,1659.18 1073.36,1659.18 1075.77,1659.18 1078.19,1659.18 1080.6,1659.18 1083.02,1659.18 1085.43,1659.19 1087.85,1659.19 1090.26,1659.19 1092.68,1659.19 1095.09,1659.19 1097.51,1659.19 1099.92,1659.19 1102.34,1659.19 1104.75,1659.2 1107.17,1659.2 1109.58,1659.2 1112,1659.2 1114.41,1659.2 1116.83,1659.2 1119.24,1659.21 1121.66,1659.21 1124.07,1659.21 1126.49,1659.21 1128.9,1659.21 1131.32,1659.21 1133.73,1659.22 1136.15,1659.22 1138.56,1659.22 1140.98,1659.22 1143.39,1659.22 1145.81,1659.23 1148.22,1659.23 1150.64,1659.23 1153.05,1659.23 1155.47,1659.24 1157.88,1659.24 1160.3,1659.24 1162.71,1659.24 1165.13,1659.25 1167.54,1659.25 1169.96,1659.25 1172.37,1659.26 1174.79,1659.26 1177.2,1659.26 1179.62,1659.26 1182.03,1659.27 1184.45,1659.27 1186.86,1659.28 1189.28,1659.28 1191.7,1659.28 1194.11,1659.29 1196.53,1659.29 1198.94,1659.29 1201.36,1659.3 1203.77,1659.3 1206.19,1659.31 1208.6,1659.31 1211.02,1659.32 1213.43,1659.32 1215.85,1659.33 1218.26,1659.33 1220.68,1659.34 1223.09,1659.34 1225.51,1659.35 1227.92,1659.35 1230.34,1659.36 1232.75,1659.37 1235.17,1659.37 1237.58,1659.38 1240,1659.38 1242.41,1659.39 1244.83,1659.4 1247.24,1659.41 1249.66,1659.41 1252.07,1659.42 1254.49,1659.43 1256.9,1659.44 1259.32,1659.44 1261.73,1659.45 1264.15,1659.46 1266.56,1659.47 1268.98,1659.48 1271.39,1659.49 1273.81,1659.5 1276.22,1659.51 1278.64,1659.52 1281.05,1659.53 1283.47,1659.54 1285.88,1659.55 1288.3,1659.56 1290.71,1659.57 1293.13,1659.59 1295.54,1659.6 1297.96,1659.61 1300.37,1659.63 1302.79,1659.64 1305.2,1659.65 1307.62,1659.67 1310.03,1659.68 1312.45,1659.7 1314.87,1659.71 1317.28,1659.73 1319.7,1659.75 1322.11,1659.76 1324.53,1659.78 1326.94,1659.8 1329.36,1659.82 1331.77,1659.84 1334.19,1659.86 1336.6,1659.88 1339.02,1659.9 1341.43,1659.92 1343.85,1659.94 1346.26,1659.97 1348.68,1659.99 1351.09,1660.02 1353.51,1660.04 1355.92,1660.07 1358.34,1660.09 1360.75,1660.12 1363.17,1660.15 1365.58,1660.18 1368,1660.21 1370.41,1660.24 1372.83,1660.27 1375.24,1660.31 1377.66,1660.34 1380.07,1660.37 1382.49,1660.41 1384.9,1660.45 1387.32,1660.49 1389.73,1660.52 1392.15,1660.57 1394.56,1660.61 1396.98,1660.65 1399.39,1660.69 1401.81,1660.74 1404.22,1660.79 1406.64,1660.84 1409.05,1660.89 1411.47,1660.94 1413.88,1660.99 1416.3,1661.05 1418.71,1661.1 1421.13,1661.16 1423.54,1661.22 1425.96,1661.28 1428.37,1661.35 1430.79,1661.41 1433.21,1661.48 1435.62,1661.55 1438.04,1661.63 1440.45,1661.7 1442.87,1661.78 1445.28,1661.86 1447.7,1661.94 1450.11,1662.03 1452.53,1662.11 1454.94,1662.2 1457.36,1662.3 1459.77,1662.39 1462.19,1662.49 1464.6,1662.6 1467.02,1662.7 1469.43,1662.81 1471.85,1662.92 1474.26,1663.04 1476.68,1663.16 1479.09,1663.28 1481.51,1663.41 1483.92,1663.54 1486.34,1663.68 1488.75,1663.82 1491.17,1663.97 1493.58,1664.12 1496,1664.27 1498.41,1664.43 1500.83,1664.6 1503.24,1664.77 1505.66,1664.94 1508.07,1665.13 1510.49,1665.31 1512.9,1665.51 1515.32,1665.71 1517.73,1665.91 1520.15,1666.12 1522.56,1666.34 1524.98,1666.56 1527.39,1666.8 1529.81,1667.03 1532.22,1667.28 1534.64,1667.53 1537.05,1667.79 1539.47,1668.06 1541.88,1668.33 1544.3,1668.62 1546.71,1668.9 1549.13,1669.2 1551.55,1669.5 1553.96,1669.81 1556.38,1670.12 1558.79,1670.44 1561.21,1670.77 1563.62,1671.1 1566.04,1671.44 1568.45,1671.79 1570.87,1672.13 1573.28,1672.48 1575.7,1672.84 1578.11,1673.19 1580.53,1673.55 1582.94,1673.91 1585.36,1674.27 1587.77,1674.63 1590.19,1674.99 1592.6,1675.35 1595.02,1675.7 1597.43,1676.05 1599.85,1676.4 1602.26,1676.74 1604.68,1677.07 1607.09,1677.4 1609.51,1677.73 1611.92,1678.05 1614.34,1678.36 1616.75,1678.66 1619.17,1678.95 1621.58,1679.24 1624,1679.52 1626.41,1679.79 1628.83,1680.05 1631.24,1680.31 1633.66,1680.55 1636.07,1680.79 1638.49,1681.02 1640.9,1681.24 1643.32,1681.46 1645.73,1681.66 1648.15,1681.86 1650.56,1682.05 1652.98,1682.24 1655.39,1682.42 1657.81,1682.59 1660.22,1682.75 1662.64,1682.91 1665.05,1683.06 1667.47,1683.21 1669.89,1683.35 1672.3,1683.49 1674.72,1683.62 1677.13,1683.74 1679.55,1683.86 1681.96,1683.98 1684.38,1684.09 1686.79,1684.2 1689.21,1684.3 1691.62,1684.4 1694.04,1684.49 1696.45,1684.58 1698.87,1684.67 1701.28,1684.75 1703.7,1684.83 1706.11,1684.91 1708.53,1684.98 1710.94,1685.06 1713.36,1685.12 1715.77,1685.19 1718.19,1685.25 1720.6,1685.31 1723.02,1685.37 1725.43,1685.43 1727.85,1685.48 1730.26,1685.53 1732.68,1685.58 1735.09,1685.62 1737.51,1685.67 1739.92,1685.71 1742.34,1685.75 1744.75,1685.79 1747.17,1685.83 1749.58,1685.87 1752,1685.9 1754.41,1685.93 1756.83,1685.96 1759.24,1685.99 1761.66,1686.02 1764.07,1686.05 1766.49,1686.07 1768.9,1686.1 1771.32,1686.12 1773.73,1686.14 1776.15,1686.16 1778.56,1686.18 1780.98,1686.2 1783.39,1686.22 1785.81,1686.23 1788.23,1686.25 1790.64,1686.26 1793.06,1686.27 1795.47,1686.29 1797.89,1686.3 1800.3,1686.31 1802.72,1686.32 1805.13,1686.33 1807.55,1686.33 1809.96,1686.34 1812.38,1686.35 1814.79,1686.35 1817.21,1686.36 1819.62,1686.36 1822.04,1686.37 1824.45,1686.37 1826.87,1686.37 1829.28,1686.37 1831.7,1686.37 1834.11,1686.38 1836.53,1686.38 1838.94,1686.37 1841.36,1686.37 1843.77,1686.37 1846.19,1686.37 1848.6,1686.37 1851.02,1686.36 1853.43,1686.36 1855.85,1686.36 1858.26,1686.35 1860.68,1686.35 1863.09,1686.34 1865.51,1686.34 1867.92,1686.33 1870.34,1686.32 1872.75,1686.32 1875.17,1686.31 1877.58,1686.3 1880,1686.29 1882.41,1686.28 1884.83,1686.28 1887.24,1686.27 1889.66,1686.26 1892.07,1686.25 1894.49,1686.24 1896.9,1686.23 1899.32,1686.22 1901.73,1686.21 1904.15,1686.19 1906.57,1686.18 1908.98,1686.17 1911.4,1686.16 1913.81,1686.15 1916.23,1686.13 1918.64,1686.12 1921.06,1686.11 1923.47,1686.1 1925.89,1686.08 1928.3,1686.07 1930.72,1686.05 1933.13,1686.04 1935.55,1686.03 1937.96,1686.01 1940.38,1686 1942.79,1685.98 1945.21,1685.97 1947.62,1685.95 1950.04,1685.94 1952.45,1685.92 1954.87,1685.9 1957.28,1685.89 1959.7,1685.87 1962.11,1685.86 1964.53,1685.84 1966.94,1685.82 1969.36,1685.81 1971.77,1685.79 1974.19,1685.77 1976.6,1685.75 1979.02,1685.74 1981.43,1685.72 1983.85,1685.7 1986.26,1685.68 1988.68,1685.67 1991.09,1685.65 1993.51,1685.63 1995.92,1685.61 1998.34,1685.59 2000.75,1685.58 2003.17,1685.56 2005.58,1685.54 2008,1685.52 2010.41,1685.5 2012.83,1685.48 2015.24,1685.46 2017.66,1685.44 2020.07,1685.42 2022.49,1685.4 2024.91,1685.38 2027.32,1685.37 2029.74,1685.35 2032.15,1685.33 2034.57,1685.31 2036.98,1685.29 2039.4,1685.27 2041.81,1685.25 2044.23,1685.23 2046.64,1685.21 2049.06,1685.19 2051.47,1685.16 2053.89,1685.14 2056.3,1685.12 2058.72,1685.1 2061.13,1685.08 2063.55,1685.06 2065.96,1685.04 2068.38,1685.02 2070.79,1685 2073.21,1684.98 2075.62,1684.96 2078.04,1684.94 2080.45,1684.91 2082.87,1684.89 2085.28,1684.87 2087.7,1684.85 2090.11,1684.83 2092.53,1684.81 2094.94,1684.79 2097.36,1684.77 2099.77,1684.74 2102.19,1684.72 2104.6,1684.7 2107.02,1684.68 2109.43,1684.66 2111.85,1684.64 2114.26,1684.61 2116.68,1684.59 2119.09,1684.57 2121.51,1684.55 2123.92,1684.53 2126.34,1684.5 2128.75,1684.48 2131.17,1684.46 2133.58,1684.44 2136,1684.42 2138.41,1684.39 2140.83,1684.37 2143.25,1684.35 2145.66,1684.33 2148.08,1684.3 2150.49,1684.28 2152.91,1684.26 2155.32,1684.24 2157.74,1684.21 2160.15,1684.19 2162.57,1684.17 2164.98,1684.15 2167.4,1684.12 2169.81,1684.1 2172.23,1684.08 2174.64,1684.06 2177.06,1684.03 2179.47,1684.01 2181.89,1683.99 2184.3,1683.96 2186.72,1683.94 2189.13,1683.92 2191.55,1683.9 2193.96,1683.87 2196.38,1683.85 2198.79,1683.83 2201.21,1683.8 2203.62,1683.78 2206.04,1683.76 2208.45,1683.74 2210.87,1683.71 2213.28,1683.69 2215.7,1683.67 2218.11,1683.64 2220.53,1683.62 2222.94,1683.6 2225.36,1683.57 2227.77,1683.55 2230.19,1683.53 2232.6,1683.5 2235.02,1683.48 2237.43,1683.46 2239.85,1683.44 2242.26,1683.41 2244.68,1683.39 2247.09,1683.37 2249.51,1683.34 2251.92,1683.32 2254.34,1683.3 2256.75,1683.27 2259.17,1683.25 2261.58,1683.23 2264,1683.2 2266.42,1683.18 2268.83,1683.15 2271.25,1683.13 2273.66,1683.11 2276.08,1683.08 2278.49,1683.06 2280.91,1683.04 2283.32,1683.01 2285.74,1682.99 2288.15,1682.97 2290.57,1682.94 2292.98,1682.92 2295.4,1682.9 2297.81,1682.87 2300.23,1682.85 2302.64,1682.82 2305.06,1682.8 2307.47,1682.78 2309.89,1682.75 2312.3,1682.73 2314.72,1682.71 2317.13,1682.68 2319.55,1682.66 2321.96,1682.64 2324.38,1682.61 2326.79,1682.59 2329.21,1682.56 2331.62,1682.54 2334.04,1682.52 2336.45,1682.49 2338.87,1682.47 2341.28,1682.44 2343.7,1682.42 2346.11,1682.4 2348.53,1682.37 2350.94,1682.35 2353.36,1682.33 2355.77,1682.3 2358.19,1682.28 2360.6,1682.25 2363.02,1682.23 2365.43,1682.21 2367.85,1682.18 2370.26,1682.16 2372.68,1682.13 2375.09,1682.11 2377.51,1682.09 2379.92,1682.06 2382.34,1682.04 2384.76,1682.01 2387.17,1681.99 2389.59,1681.97 2392,1681.94 2394.42,1681.92 2396.83,1681.89 2399.25,1681.87 2401.66,1681.84 2404.08,1681.82 2406.49,1681.8 2408.91,1681.77 2411.32,1681.75 2413.74,1681.72 2416.15,1681.7 2418.57,1681.68 2420.98,1681.65 2423.4,1681.63 2425.81,1681.6 2428.23,1681.58 2430.64,1681.55 2433.06,1681.53 2435.47,1681.51 2437.89,1681.48 2440.3,1681.46 2442.72,1681.43 2445.13,1681.41 2447.55,1681.38 2449.96,1681.36 2452.38,1681.33 2454.79,1681.31 2457.21,1681.29 2459.62,1681.26 2462.04,1681.24 2464.45,1681.21 2466.87,1681.19 2469.28,1681.16 2471.7,1681.14 2474.11,1681.11 2476.53,1681.09 2478.94,1681.07 2481.36,1681.04 2483.77,1681.02 2486.19,1680.99 2488.6,1680.97 2491.02,1680.94 2493.43,1680.92 2495.85,1680.89 2498.26,1680.87 2500.68,1680.84 2503.1,1680.82 2505.51,1680.8 2507.93,1680.77 2510.34,1680.75 2512.76,1680.72 2515.17,1680.7 2517.59,1680.67 2520,1680.65 2522.42,1680.62 2524.83,1680.6 2527.25,1680.57 2529.66,1680.55 2532.08,1680.52 2534.49,1680.5 2536.91,1680.47 2539.32,1680.45 2541.74,1680.42 2544.15,1680.4 2546.57,1680.38 2548.98,1680.35 2551.4,1680.33 2553.81,1680.3 2556.23,1680.28 2558.64,1680.25 2561.06,1680.23 2563.47,1680.2 2565.89,1680.18 2568.3,1680.15 2570.72,1680.13 2573.13,1680.1 2575.55,1680.08 2577.96,1680.05 2580.38,1680.03 2582.79,1680 2585.21,1679.98 2587.62,1679.95 2590.04,1679.93 2592.45,1679.9 2594.87,1679.88 2597.28,1679.85 2599.7,1679.83 2602.11,1679.8 2604.53,1679.78 2606.94,1679.75 2609.36,1679.73 2611.77,1679.7 2614.19,1679.68 2616.6,1679.66 2619.02,1679.63 2621.44,1679.61 2623.85,1679.58 2626.27,1679.56 2628.68,1679.53 2631.1,1679.51 2633.51,1679.48 2635.93,1679.46 2638.34,1679.43 2640.76,1679.41 "/>
<polyline clip-path="url(#clip852)" style="stroke:#808080; stroke-linecap:round; stroke-linejoin:round; stroke-width:4; stroke-opacity:0.5; fill:none" points="489.735,3420.99 489.735,-1639.63 "/>
<polyline clip-path="url(#clip852)" style="stroke:#808080; stroke-linecap:round; stroke-linejoin:round; stroke-width:4; stroke-opacity:0.5; fill:none" points="-2189.45,889.221 5055.86,889.221 "/>
<path clip-path="url(#clip850)" d="M2031.54 310.833 L2560.25 310.833 L2560.25 103.473 L2031.54 103.473  Z" fill="#ffffff" fill-rule="evenodd" fill-opacity="1"/>
<polyline clip-path="url(#clip850)" style="stroke:#000000; stroke-linecap:round; stroke-linejoin:round; stroke-width:4; stroke-opacity:1; fill:none" points="2031.54,310.833 2560.25,310.833 2560.25,103.473 2031.54,103.473 2031.54,310.833 "/>
<polyline clip-path="url(#clip850)" style="stroke:#009af9; stroke-linecap:round; stroke-linejoin:round; stroke-width:4; stroke-opacity:1; fill:none" points="2058.38,155.313 2219.39,155.313 "/>
<path clip-path="url(#clip850)" d="M2262.61 156.39 Q2264.11 156.899 2265.53 158.565 Q2266.96 160.232 2268.4 163.149 L2273.14 172.593 L2268.12 172.593 L2263.7 163.727 Q2261.98 160.255 2260.36 159.121 Q2258.77 157.987 2255.99 157.987 L2250.9 157.987 L2250.9 172.593 L2246.22 172.593 L2246.22 138.033 L2256.78 138.033 Q2262.7 138.033 2265.62 140.51 Q2268.54 142.987 2268.54 147.987 Q2268.54 151.251 2267.01 153.403 Q2265.5 155.556 2262.61 156.39 M2250.9 141.876 L2250.9 154.144 L2256.78 154.144 Q2260.16 154.144 2261.87 152.593 Q2263.6 151.019 2263.6 147.987 Q2263.6 144.954 2261.87 143.427 Q2260.16 141.876 2256.78 141.876 L2250.9 141.876 Z" fill="#000000" fill-rule="nonzero" fill-opacity="1" /><path clip-path="url(#clip850)" d="M2279.97 153.959 L2279.97 158.079 L2285.5 158.079 L2285.5 159.931 L2279.97 159.931 L2279.97 167.802 Q2279.97 169.584 2280.53 170.093 Q2281.08 170.602 2282.75 170.602 L2285.5 170.602 L2285.5 172.593 L2282.75 172.593 Q2279.65 172.593 2278.47 171.552 Q2277.29 170.533 2277.29 167.802 L2277.29 159.931 L2275.32 159.931 L2275.32 158.079 L2277.29 158.079 L2277.29 153.959 L2279.97 153.959 Z" fill="#000000" fill-rule="nonzero" fill-opacity="1" /><polyline clip-path="url(#clip850)" style="stroke:#e26f46; stroke-linecap:round; stroke-linejoin:round; stroke-width:4; stroke-opacity:1; fill:none" points="2058.38,207.153 2219.39,207.153 "/>
<path clip-path="url(#clip850)" d="M2262.61 208.23 Q2264.11 208.739 2265.53 210.405 Q2266.96 212.072 2268.4 214.989 L2273.14 224.433 L2268.12 224.433 L2263.7 215.567 Q2261.98 212.095 2260.36 210.961 Q2258.77 209.827 2255.99 209.827 L2250.9 209.827 L2250.9 224.433 L2246.22 224.433 L2246.22 189.873 L2256.78 189.873 Q2262.7 189.873 2265.62 192.35 Q2268.54 194.827 2268.54 199.827 Q2268.54 203.091 2267.01 205.243 Q2265.5 207.396 2262.61 208.23 M2250.9 193.716 L2250.9 205.984 L2256.78 205.984 Q2260.16 205.984 2261.87 204.433 Q2263.6 202.859 2263.6 199.827 Q2263.6 196.794 2261.87 195.267 Q2260.16 193.716 2256.78 193.716 L2250.9 193.716 Z" fill="#000000" fill-rule="nonzero" fill-opacity="1" /><path clip-path="url(#clip850)" d="M2279.97 205.799 L2279.97 209.919 L2285.5 209.919 L2285.5 211.771 L2279.97 211.771 L2279.97 219.642 Q2279.97 221.424 2280.53 221.933 Q2281.08 222.442 2282.75 222.442 L2285.5 222.442 L2285.5 224.433 L2282.75 224.433 Q2279.65 224.433 2278.47 223.392 Q2277.29 222.373 2277.29 219.642 L2277.29 211.771 L2275.32 211.771 L2275.32 209.919 L2277.29 209.919 L2277.29 205.799 L2279.97 205.799 Z" fill="#000000" fill-rule="nonzero" fill-opacity="1" /><path clip-path="url(#clip850)" d="M2318.07 201.493 Q2314.65 201.493 2312.66 204.179 Q2310.66 206.841 2310.66 211.493 Q2310.66 216.146 2312.63 218.831 Q2314.62 221.493 2318.07 221.493 Q2321.47 221.493 2323.47 218.808 Q2325.46 216.123 2325.46 211.493 Q2325.46 206.887 2323.47 204.202 Q2321.47 201.493 2318.07 201.493 M2318.07 197.882 Q2323.63 197.882 2326.8 201.493 Q2329.97 205.105 2329.97 211.493 Q2329.97 217.859 2326.8 221.493 Q2323.63 225.104 2318.07 225.104 Q2312.49 225.104 2309.32 221.493 Q2306.17 217.859 2306.17 211.493 Q2306.17 205.105 2309.32 201.493 Q2312.49 197.882 2318.07 197.882 Z" fill="#000000" fill-rule="nonzero" fill-opacity="1" /><path clip-path="url(#clip850)" d="M2341.15 220.544 L2341.15 234.294 L2336.87 234.294 L2336.87 198.507 L2341.15 198.507 L2341.15 202.443 Q2342.49 200.128 2344.53 199.017 Q2346.59 197.882 2349.44 197.882 Q2354.16 197.882 2357.1 201.632 Q2360.06 205.382 2360.06 211.493 Q2360.06 217.605 2357.1 221.355 Q2354.16 225.104 2349.44 225.104 Q2346.59 225.104 2344.53 223.993 Q2342.49 222.859 2341.15 220.544 M2355.64 211.493 Q2355.64 206.794 2353.7 204.132 Q2351.78 201.447 2348.4 201.447 Q2345.02 201.447 2343.07 204.132 Q2341.15 206.794 2341.15 211.493 Q2341.15 216.192 2343.07 218.878 Q2345.02 221.54 2348.4 221.54 Q2351.78 221.54 2353.7 218.878 Q2355.64 216.192 2355.64 211.493 Z" fill="#000000" fill-rule="nonzero" fill-opacity="1" /><path clip-path="url(#clip850)" d="M2371.34 191.146 L2371.34 198.507 L2380.11 198.507 L2380.11 201.818 L2371.34 201.818 L2371.34 215.892 Q2371.34 219.063 2372.19 219.966 Q2373.07 220.868 2375.73 220.868 L2380.11 220.868 L2380.11 224.433 L2375.73 224.433 Q2370.8 224.433 2368.93 222.604 Q2367.05 220.753 2367.05 215.892 L2367.05 201.818 L2363.93 201.818 L2363.93 198.507 L2367.05 198.507 L2367.05 191.146 L2371.34 191.146 Z" fill="#000000" fill-rule="nonzero" fill-opacity="1" /><path clip-path="url(#clip850)" d="M2385.71 198.507 L2389.97 198.507 L2389.97 224.433 L2385.71 224.433 L2385.71 198.507 M2385.71 188.415 L2389.97 188.415 L2389.97 193.808 L2385.71 193.808 L2385.71 188.415 Z" fill="#000000" fill-rule="nonzero" fill-opacity="1" /><path clip-path="url(#clip850)" d="M2419.07 203.484 Q2420.66 200.614 2422.89 199.248 Q2425.11 197.882 2428.12 197.882 Q2432.17 197.882 2434.37 200.73 Q2436.57 203.554 2436.57 208.785 L2436.57 224.433 L2432.28 224.433 L2432.28 208.924 Q2432.28 205.197 2430.96 203.392 Q2429.65 201.586 2426.94 201.586 Q2423.63 201.586 2421.71 203.785 Q2419.78 205.984 2419.78 209.78 L2419.78 224.433 L2415.5 224.433 L2415.5 208.924 Q2415.5 205.174 2414.18 203.392 Q2412.86 201.586 2410.11 201.586 Q2406.84 201.586 2404.92 203.808 Q2403 206.007 2403 209.78 L2403 224.433 L2398.72 224.433 L2398.72 198.507 L2403 198.507 L2403 202.535 Q2404.46 200.151 2406.5 199.017 Q2408.53 197.882 2411.34 197.882 Q2414.16 197.882 2416.13 199.318 Q2418.12 200.753 2419.07 203.484 Z" fill="#000000" fill-rule="nonzero" fill-opacity="1" /><path clip-path="url(#clip850)" d="M2445.06 198.507 L2449.32 198.507 L2449.32 224.433 L2445.06 224.433 L2445.06 198.507 M2445.06 188.415 L2449.32 188.415 L2449.32 193.808 L2445.06 193.808 L2445.06 188.415 Z" fill="#000000" fill-rule="nonzero" fill-opacity="1" /><path clip-path="url(#clip850)" d="M2474.76 199.271 L2474.76 203.299 Q2472.96 202.373 2471.01 201.91 Q2469.07 201.447 2466.98 201.447 Q2463.81 201.447 2462.21 202.419 Q2460.64 203.392 2460.64 205.336 Q2460.64 206.818 2461.77 207.674 Q2462.91 208.507 2466.34 209.271 L2467.79 209.595 Q2472.33 210.568 2474.23 212.35 Q2476.15 214.109 2476.15 217.28 Q2476.15 220.892 2473.28 222.998 Q2470.43 225.104 2465.43 225.104 Q2463.35 225.104 2461.08 224.688 Q2458.84 224.294 2456.34 223.484 L2456.34 219.086 Q2458.7 220.313 2460.99 220.938 Q2463.28 221.54 2465.52 221.54 Q2468.53 221.54 2470.15 220.521 Q2471.77 219.48 2471.77 217.605 Q2471.77 215.868 2470.59 214.943 Q2469.44 214.017 2465.48 213.16 L2464 212.813 Q2460.04 211.98 2458.28 210.267 Q2456.52 208.53 2456.52 205.521 Q2456.52 201.864 2459.11 199.873 Q2461.71 197.882 2466.47 197.882 Q2468.84 197.882 2470.92 198.23 Q2473 198.577 2474.76 199.271 Z" fill="#000000" fill-rule="nonzero" fill-opacity="1" /><path clip-path="url(#clip850)" d="M2505.11 210.405 L2505.11 212.489 L2485.52 212.489 Q2485.8 216.887 2488.16 219.202 Q2490.55 221.493 2494.78 221.493 Q2497.24 221.493 2499.53 220.892 Q2501.84 220.29 2504.11 219.086 L2504.11 223.114 Q2501.82 224.086 2499.41 224.595 Q2497.01 225.104 2494.53 225.104 Q2488.33 225.104 2484.69 221.493 Q2481.08 217.882 2481.08 211.725 Q2481.08 205.359 2484.51 201.632 Q2487.96 197.882 2493.79 197.882 Q2499.02 197.882 2502.05 201.262 Q2505.11 204.618 2505.11 210.405 M2500.85 209.155 Q2500.8 205.66 2498.88 203.577 Q2496.98 201.493 2493.83 201.493 Q2490.27 201.493 2488.12 203.507 Q2485.99 205.521 2485.66 209.179 L2500.85 209.155 Z" fill="#000000" fill-rule="nonzero" fill-opacity="1" /><path clip-path="url(#clip850)" d="M2529.16 202.443 L2529.16 188.415 L2533.42 188.415 L2533.42 224.433 L2529.16 224.433 L2529.16 220.544 Q2527.82 222.859 2525.76 223.993 Q2523.72 225.104 2520.85 225.104 Q2516.15 225.104 2513.19 221.355 Q2510.25 217.605 2510.25 211.493 Q2510.25 205.382 2513.19 201.632 Q2516.15 197.882 2520.85 197.882 Q2523.72 197.882 2525.76 199.017 Q2527.82 200.128 2529.16 202.443 M2514.65 211.493 Q2514.65 216.192 2516.57 218.878 Q2518.51 221.54 2521.89 221.54 Q2525.27 221.54 2527.21 218.878 Q2529.16 216.192 2529.16 211.493 Q2529.16 206.794 2527.21 204.132 Q2525.27 201.447 2521.89 201.447 Q2518.51 201.447 2516.57 204.132 Q2514.65 206.794 2514.65 211.493 Z" fill="#000000" fill-rule="nonzero" fill-opacity="1" /><polyline clip-path="url(#clip850)" style="stroke:#3da44d; stroke-linecap:round; stroke-linejoin:round; stroke-width:4; stroke-opacity:1; fill:none" points="2058.38,258.993 2219.39,258.993 "/>
<path clip-path="url(#clip850)" d="M2262.24 244.884 Q2257.15 244.884 2254.14 248.681 Q2251.15 252.477 2251.15 259.028 Q2251.15 265.556 2254.14 269.352 Q2257.15 273.148 2262.24 273.148 Q2267.33 273.148 2270.29 269.352 Q2273.28 265.556 2273.28 259.028 Q2273.28 252.477 2270.29 248.681 Q2267.33 244.884 2262.24 244.884 M2262.24 241.088 Q2269.51 241.088 2273.86 245.972 Q2278.21 250.834 2278.21 259.028 Q2278.21 267.199 2273.86 272.083 Q2269.51 276.944 2262.24 276.944 Q2254.95 276.944 2250.57 272.083 Q2246.22 267.222 2246.22 259.028 Q2246.22 250.834 2250.57 245.972 Q2254.95 241.088 2262.24 241.088 Z" fill="#000000" fill-rule="nonzero" fill-opacity="1" /><path clip-path="url(#clip850)" d="M2289.46 272.384 L2289.46 286.134 L2285.18 286.134 L2285.18 250.347 L2289.46 250.347 L2289.46 254.283 Q2290.8 251.968 2292.84 250.857 Q2294.9 249.722 2297.75 249.722 Q2302.47 249.722 2305.41 253.472 Q2308.37 257.222 2308.37 263.333 Q2308.37 269.445 2305.41 273.195 Q2302.47 276.944 2297.75 276.944 Q2294.9 276.944 2292.84 275.833 Q2290.8 274.699 2289.46 272.384 M2303.95 263.333 Q2303.95 258.634 2302.01 255.972 Q2300.09 253.287 2296.71 253.287 Q2293.33 253.287 2291.38 255.972 Q2289.46 258.634 2289.46 263.333 Q2289.46 268.032 2291.38 270.718 Q2293.33 273.38 2296.71 273.38 Q2300.09 273.38 2302.01 270.718 Q2303.95 268.032 2303.95 263.333 Z" fill="#000000" fill-rule="nonzero" fill-opacity="1" /><path clip-path="url(#clip850)" d="M2319.65 242.986 L2319.65 250.347 L2328.42 250.347 L2328.42 253.658 L2319.65 253.658 L2319.65 267.732 Q2319.65 270.903 2320.5 271.806 Q2321.38 272.708 2324.04 272.708 L2328.42 272.708 L2328.42 276.273 L2324.04 276.273 Q2319.11 276.273 2317.24 274.444 Q2315.36 272.593 2315.36 267.732 L2315.36 253.658 L2312.24 253.658 L2312.24 250.347 L2315.36 250.347 L2315.36 242.986 L2319.65 242.986 Z" fill="#000000" fill-rule="nonzero" fill-opacity="1" /><path clip-path="url(#clip850)" d="M2334.02 250.347 L2338.28 250.347 L2338.28 276.273 L2334.02 276.273 L2334.02 250.347 M2334.02 240.255 L2338.28 240.255 L2338.28 245.648 L2334.02 245.648 L2334.02 240.255 Z" fill="#000000" fill-rule="nonzero" fill-opacity="1" /><path clip-path="url(#clip850)" d="M2367.38 255.324 Q2368.97 252.454 2371.2 251.088 Q2373.42 249.722 2376.43 249.722 Q2380.48 249.722 2382.68 252.57 Q2384.88 255.394 2384.88 260.625 L2384.88 276.273 L2380.59 276.273 L2380.59 260.764 Q2380.59 257.037 2379.28 255.232 Q2377.96 253.426 2375.25 253.426 Q2371.94 253.426 2370.02 255.625 Q2368.09 257.824 2368.09 261.62 L2368.09 276.273 L2363.81 276.273 L2363.81 260.764 Q2363.81 257.014 2362.49 255.232 Q2361.17 253.426 2358.42 253.426 Q2355.16 253.426 2353.23 255.648 Q2351.31 257.847 2351.31 261.62 L2351.31 276.273 L2347.03 276.273 L2347.03 250.347 L2351.31 250.347 L2351.31 254.375 Q2352.77 251.991 2354.81 250.857 Q2356.84 249.722 2359.65 249.722 Q2362.47 249.722 2364.44 251.158 Q2366.43 252.593 2367.38 255.324 Z" fill="#000000" fill-rule="nonzero" fill-opacity="1" /><path clip-path="url(#clip850)" d="M2393.37 250.347 L2397.63 250.347 L2397.63 276.273 L2393.37 276.273 L2393.37 250.347 M2393.37 240.255 L2397.63 240.255 L2397.63 245.648 L2393.37 245.648 L2393.37 240.255 Z" fill="#000000" fill-rule="nonzero" fill-opacity="1" /><path clip-path="url(#clip850)" d="M2404.69 250.347 L2424.92 250.347 L2424.92 254.236 L2408.9 272.87 L2424.92 272.87 L2424.92 276.273 L2404.11 276.273 L2404.11 272.384 L2420.13 253.75 L2404.69 253.75 L2404.69 250.347 Z" fill="#000000" fill-rule="nonzero" fill-opacity="1" /><path clip-path="url(#clip850)" d="M2453.6 262.245 L2453.6 264.329 L2434.02 264.329 Q2434.3 268.727 2436.66 271.042 Q2439.04 273.333 2443.28 273.333 Q2445.73 273.333 2448.03 272.732 Q2450.34 272.13 2452.61 270.926 L2452.61 274.954 Q2450.32 275.926 2447.91 276.435 Q2445.5 276.944 2443.03 276.944 Q2436.82 276.944 2433.19 273.333 Q2429.58 269.722 2429.58 263.565 Q2429.58 257.199 2433 253.472 Q2436.45 249.722 2442.28 249.722 Q2447.52 249.722 2450.55 253.102 Q2453.6 256.458 2453.6 262.245 M2449.34 260.995 Q2449.3 257.5 2447.38 255.417 Q2445.48 253.333 2442.33 253.333 Q2438.77 253.333 2436.61 255.347 Q2434.48 257.361 2434.16 261.019 L2449.34 260.995 Z" fill="#000000" fill-rule="nonzero" fill-opacity="1" /><path clip-path="url(#clip850)" d="M2477.65 254.283 L2477.65 240.255 L2481.91 240.255 L2481.91 276.273 L2477.65 276.273 L2477.65 272.384 Q2476.31 274.699 2474.25 275.833 Q2472.21 276.944 2469.34 276.944 Q2464.65 276.944 2461.68 273.195 Q2458.74 269.445 2458.74 263.333 Q2458.74 257.222 2461.68 253.472 Q2464.65 249.722 2469.34 249.722 Q2472.21 249.722 2474.25 250.857 Q2476.31 251.968 2477.65 254.283 M2463.14 263.333 Q2463.14 268.032 2465.06 270.718 Q2467.01 273.38 2470.39 273.38 Q2473.77 273.38 2475.71 270.718 Q2477.65 268.032 2477.65 263.333 Q2477.65 258.634 2475.71 255.972 Q2473.77 253.287 2470.39 253.287 Q2467.01 253.287 2465.06 255.972 Q2463.14 258.634 2463.14 263.333 Z" fill="#000000" fill-rule="nonzero" fill-opacity="1" /><path clip-path="url(#clip850)" d="M2509.11 250.347 L2509.11 267.13 Q2509.11 270.255 2510.27 271.736 Q2511.54 273.333 2514.02 273.333 Q2517.49 273.333 2519.92 268.519 Q2521.29 265.787 2521.64 261.458 Q2521.82 259.097 2521.13 256.134 Q2520.48 253.38 2518.02 250.347 L2522.33 250.347 L2522.33 250.347 Q2523.95 252.431 2524.99 255.278 Q2525.96 257.94 2525.96 261.505 Q2525.96 267.361 2523 271.69 Q2519.39 276.968 2513.51 276.944 Q2509.37 276.944 2507.03 274.167 Q2504.76 271.435 2504.76 266.875 L2504.74 250.347 L2509.11 250.347 Z" fill="#000000" fill-rule="nonzero" fill-opacity="1" /></svg>
