<?xml version="1.0" encoding="utf-8"?>
<svg xmlns="http://www.w3.org/2000/svg" xmlns:xlink="http://www.w3.org/1999/xlink" width="672" height="480" viewBox="0 0 2688 1920">
<defs>
  <clipPath id="clip780">
    <rect x="0" y="0" width="2688" height="1920"/>
  </clipPath>
</defs>
<path clip-path="url(#clip780)" d="M0 1920 L2688 1920 L2688 -4.26326e-14 L0 -4.26326e-14  Z" fill="#ffffff" fill-rule="evenodd" fill-opacity="1"/>
<defs>
  <clipPath id="clip781">
    <rect x="537" y="0" width="1883" height="1883"/>
  </clipPath>
</defs>
<path clip-path="url(#clip780)" d="M255.816 1734.12 L2640.76 1734.12 L2640.76 47.2441 L255.816 47.2441  Z" fill="#ffffff" fill-rule="evenodd" fill-opacity="1"/>
<defs>
  <clipPath id="clip782">
    <rect x="255" y="47" width="2386" height="1688"/>
  </clipPath>
</defs>
<polyline clip-path="url(#clip782)" style="stroke:#000000; stroke-linecap:round; stroke-linejoin:round; stroke-width:2; stroke-opacity:0.1; fill:none" points="323.315,1734.12 323.315,47.2441 "/>
<polyline clip-path="url(#clip782)" style="stroke:#000000; stroke-linecap:round; stroke-linejoin:round; stroke-width:2; stroke-opacity:0.1; fill:none" points="885.8,1734.12 885.8,47.2441 "/>
<polyline clip-path="url(#clip782)" style="stroke:#000000; stroke-linecap:round; stroke-linejoin:round; stroke-width:2; stroke-opacity:0.1; fill:none" points="1448.29,1734.12 1448.29,47.2441 "/>
<polyline clip-path="url(#clip782)" style="stroke:#000000; stroke-linecap:round; stroke-linejoin:round; stroke-width:2; stroke-opacity:0.1; fill:none" points="2010.77,1734.12 2010.77,47.2441 "/>
<polyline clip-path="url(#clip782)" style="stroke:#000000; stroke-linecap:round; stroke-linejoin:round; stroke-width:2; stroke-opacity:0.1; fill:none" points="2573.26,1734.12 2573.26,47.2441 "/>
<polyline clip-path="url(#clip782)" style="stroke:#000000; stroke-linecap:round; stroke-linejoin:round; stroke-width:2; stroke-opacity:0.1; fill:none" points="255.816,1686.38 2640.76,1686.38 "/>
<polyline clip-path="url(#clip782)" style="stroke:#000000; stroke-linecap:round; stroke-linejoin:round; stroke-width:2; stroke-opacity:0.1; fill:none" points="255.816,1284.51 2640.76,1284.51 "/>
<polyline clip-path="url(#clip782)" style="stroke:#000000; stroke-linecap:round; stroke-linejoin:round; stroke-width:2; stroke-opacity:0.1; fill:none" points="255.816,882.643 2640.76,882.643 "/>
<polyline clip-path="url(#clip782)" style="stroke:#000000; stroke-linecap:round; stroke-linejoin:round; stroke-width:2; stroke-opacity:0.1; fill:none" points="255.816,480.777 2640.76,480.777 "/>
<polyline clip-path="url(#clip782)" style="stroke:#000000; stroke-linecap:round; stroke-linejoin:round; stroke-width:2; stroke-opacity:0.1; fill:none" points="255.816,78.9111 2640.76,78.9111 "/>
<polyline clip-path="url(#clip780)" style="stroke:#000000; stroke-linecap:round; stroke-linejoin:round; stroke-width:4; stroke-opacity:1; fill:none" points="255.816,1734.12 2640.76,1734.12 "/>
<polyline clip-path="url(#clip780)" style="stroke:#000000; stroke-linecap:round; stroke-linejoin:round; stroke-width:4; stroke-opacity:1; fill:none" points="323.315,1734.12 323.315,1715.22 "/>
<polyline clip-path="url(#clip780)" style="stroke:#000000; stroke-linecap:round; stroke-linejoin:round; stroke-width:4; stroke-opacity:1; fill:none" points="885.8,1734.12 885.8,1715.22 "/>
<polyline clip-path="url(#clip780)" style="stroke:#000000; stroke-linecap:round; stroke-linejoin:round; stroke-width:4; stroke-opacity:1; fill:none" points="1448.29,1734.12 1448.29,1715.22 "/>
<polyline clip-path="url(#clip780)" style="stroke:#000000; stroke-linecap:round; stroke-linejoin:round; stroke-width:4; stroke-opacity:1; fill:none" points="2010.77,1734.12 2010.77,1715.22 "/>
<polyline clip-path="url(#clip780)" style="stroke:#000000; stroke-linecap:round; stroke-linejoin:round; stroke-width:4; stroke-opacity:1; fill:none" points="2573.26,1734.12 2573.26,1715.22 "/>
<path clip-path="url(#clip780)" d="M323.315 1767.34 Q319.704 1767.34 317.875 1770.9 Q316.069 1774.45 316.069 1781.58 Q316.069 1788.68 317.875 1792.25 Q319.704 1795.79 323.315 1795.79 Q326.949 1795.79 328.754 1792.25 Q330.583 1788.68 330.583 1781.58 Q330.583 1774.45 328.754 1770.9 Q326.949 1767.34 323.315 1767.34 M323.315 1763.64 Q329.125 1763.64 332.18 1768.24 Q335.259 1772.83 335.259 1781.58 Q335.259 1790.3 332.18 1794.91 Q329.125 1799.49 323.315 1799.49 Q317.504 1799.49 314.426 1794.91 Q311.37 1790.3 311.37 1781.58 Q311.37 1772.83 314.426 1768.24 Q317.504 1763.64 323.315 1763.64 Z" fill="#000000" fill-rule="nonzero" fill-opacity="1" /><path clip-path="url(#clip780)" d="M865.071 1794.89 L881.391 1794.89 L881.391 1798.82 L859.446 1798.82 L859.446 1794.89 Q862.108 1792.13 866.692 1787.5 Q871.298 1782.85 872.479 1781.51 Q874.724 1778.98 875.604 1777.25 Q876.506 1775.49 876.506 1773.8 Q876.506 1771.04 874.562 1769.31 Q872.641 1767.57 869.539 1767.57 Q867.34 1767.57 864.886 1768.34 Q862.456 1769.1 859.678 1770.65 L859.678 1765.93 Q862.502 1764.79 864.956 1764.21 Q867.409 1763.64 869.446 1763.64 Q874.817 1763.64 878.011 1766.32 Q881.205 1769.01 881.205 1773.5 Q881.205 1775.63 880.395 1777.55 Q879.608 1779.45 877.502 1782.04 Q876.923 1782.71 873.821 1785.93 Q870.719 1789.12 865.071 1794.89 Z" fill="#000000" fill-rule="nonzero" fill-opacity="1" /><path clip-path="url(#clip780)" d="M891.252 1764.26 L909.608 1764.26 L909.608 1768.2 L895.534 1768.2 L895.534 1776.67 Q896.553 1776.32 897.571 1776.16 Q898.59 1775.97 899.608 1775.97 Q905.395 1775.97 908.775 1779.15 Q912.154 1782.32 912.154 1787.73 Q912.154 1793.31 908.682 1796.41 Q905.21 1799.49 898.891 1799.49 Q896.715 1799.49 894.446 1799.12 Q892.201 1798.75 889.793 1798.01 L889.793 1793.31 Q891.877 1794.45 894.099 1795 Q896.321 1795.56 898.798 1795.56 Q902.803 1795.56 905.141 1793.45 Q907.478 1791.34 907.478 1787.73 Q907.478 1784.12 905.141 1782.02 Q902.803 1779.91 898.798 1779.91 Q896.923 1779.91 895.048 1780.33 Q893.196 1780.74 891.252 1781.62 L891.252 1764.26 Z" fill="#000000" fill-rule="nonzero" fill-opacity="1" /><path clip-path="url(#clip780)" d="M1422.99 1764.26 L1441.34 1764.26 L1441.34 1768.2 L1427.27 1768.2 L1427.27 1776.67 Q1428.29 1776.32 1429.3 1776.16 Q1430.32 1775.97 1431.34 1775.97 Q1437.13 1775.97 1440.51 1779.15 Q1443.89 1782.32 1443.89 1787.73 Q1443.89 1793.31 1440.42 1796.41 Q1436.94 1799.49 1430.62 1799.49 Q1428.45 1799.49 1426.18 1799.12 Q1423.93 1798.75 1421.53 1798.01 L1421.53 1793.31 Q1423.61 1794.45 1425.83 1795 Q1428.05 1795.56 1430.53 1795.56 Q1434.54 1795.56 1436.87 1793.45 Q1439.21 1791.34 1439.21 1787.73 Q1439.21 1784.12 1436.87 1782.02 Q1434.54 1779.91 1430.53 1779.91 Q1428.66 1779.91 1426.78 1780.33 Q1424.93 1780.74 1422.99 1781.62 L1422.99 1764.26 Z" fill="#000000" fill-rule="nonzero" fill-opacity="1" /><path clip-path="url(#clip780)" d="M1463.1 1767.34 Q1459.49 1767.34 1457.66 1770.9 Q1455.86 1774.45 1455.86 1781.58 Q1455.86 1788.68 1457.66 1792.25 Q1459.49 1795.79 1463.1 1795.79 Q1466.74 1795.79 1468.54 1792.25 Q1470.37 1788.68 1470.37 1781.58 Q1470.37 1774.45 1468.54 1770.9 Q1466.74 1767.34 1463.1 1767.34 M1463.1 1763.64 Q1468.91 1763.64 1471.97 1768.24 Q1475.05 1772.83 1475.05 1781.58 Q1475.05 1790.3 1471.97 1794.91 Q1468.91 1799.49 1463.1 1799.49 Q1457.29 1799.49 1454.21 1794.91 Q1451.16 1790.3 1451.16 1781.58 Q1451.16 1772.83 1454.21 1768.24 Q1457.29 1763.64 1463.1 1763.64 Z" fill="#000000" fill-rule="nonzero" fill-opacity="1" /><path clip-path="url(#clip780)" d="M1984.63 1764.26 L2006.85 1764.26 L2006.85 1766.25 L1994.3 1798.82 L1989.42 1798.82 L2001.22 1768.2 L1984.63 1768.2 L1984.63 1764.26 Z" fill="#000000" fill-rule="nonzero" fill-opacity="1" /><path clip-path="url(#clip780)" d="M2016.01 1764.26 L2034.37 1764.26 L2034.37 1768.2 L2020.3 1768.2 L2020.3 1776.67 Q2021.32 1776.32 2022.33 1776.16 Q2023.35 1775.97 2024.37 1775.97 Q2030.16 1775.97 2033.54 1779.15 Q2036.92 1782.32 2036.92 1787.73 Q2036.92 1793.31 2033.45 1796.41 Q2029.97 1799.49 2023.65 1799.49 Q2021.48 1799.49 2019.21 1799.12 Q2016.96 1798.75 2014.56 1798.01 L2014.56 1793.31 Q2016.64 1794.45 2018.86 1795 Q2021.08 1795.56 2023.56 1795.56 Q2027.57 1795.56 2029.9 1793.45 Q2032.24 1791.34 2032.24 1787.73 Q2032.24 1784.12 2029.9 1782.02 Q2027.57 1779.91 2023.56 1779.91 Q2021.69 1779.91 2019.81 1780.33 Q2017.96 1780.74 2016.01 1781.62 L2016.01 1764.26 Z" fill="#000000" fill-rule="nonzero" fill-opacity="1" /><path clip-path="url(#clip780)" d="M2532.86 1794.89 L2540.5 1794.89 L2540.5 1768.52 L2532.19 1770.19 L2532.19 1765.93 L2540.46 1764.26 L2545.13 1764.26 L2545.13 1794.89 L2552.77 1794.89 L2552.77 1798.82 L2532.86 1798.82 L2532.86 1794.89 Z" fill="#000000" fill-rule="nonzero" fill-opacity="1" /><path clip-path="url(#clip780)" d="M2572.22 1767.34 Q2568.6 1767.34 2566.78 1770.9 Q2564.97 1774.45 2564.97 1781.58 Q2564.97 1788.68 2566.78 1792.25 Q2568.6 1795.79 2572.22 1795.79 Q2575.85 1795.79 2577.66 1792.25 Q2579.48 1788.68 2579.48 1781.58 Q2579.48 1774.45 2577.66 1770.9 Q2575.85 1767.34 2572.22 1767.34 M2572.22 1763.64 Q2578.03 1763.64 2581.08 1768.24 Q2584.16 1772.83 2584.16 1781.58 Q2584.16 1790.3 2581.08 1794.91 Q2578.03 1799.49 2572.22 1799.49 Q2566.41 1799.49 2563.33 1794.91 Q2560.27 1790.3 2560.27 1781.58 Q2560.27 1772.83 2563.33 1768.24 Q2566.41 1763.64 2572.22 1763.64 Z" fill="#000000" fill-rule="nonzero" fill-opacity="1" /><path clip-path="url(#clip780)" d="M2602.38 1767.34 Q2598.77 1767.34 2596.94 1770.9 Q2595.13 1774.45 2595.13 1781.58 Q2595.13 1788.68 2596.94 1792.25 Q2598.77 1795.79 2602.38 1795.79 Q2606.01 1795.79 2607.82 1792.25 Q2609.65 1788.68 2609.65 1781.58 Q2609.65 1774.45 2607.82 1770.9 Q2606.01 1767.34 2602.38 1767.34 M2602.38 1763.64 Q2608.19 1763.64 2611.24 1768.24 Q2614.32 1772.83 2614.32 1781.58 Q2614.32 1790.3 2611.24 1794.91 Q2608.19 1799.49 2602.38 1799.49 Q2596.57 1799.49 2593.49 1794.91 Q2590.43 1790.3 2590.43 1781.58 Q2590.43 1772.83 2593.49 1768.24 Q2596.57 1763.64 2602.38 1763.64 Z" fill="#000000" fill-rule="nonzero" fill-opacity="1" /><path clip-path="url(#clip780)" d="M1370.16 1835.78 L1410.36 1835.78 L1410.36 1841.19 L1393.49 1841.19 L1393.49 1883.3 L1387.03 1883.3 L1387.03 1841.19 L1370.16 1841.19 L1370.16 1835.78 Z" fill="#000000" fill-rule="nonzero" fill-opacity="1" /><path clip-path="url(#clip780)" d="M1414.31 1847.65 L1420.17 1847.65 L1420.17 1883.3 L1414.31 1883.3 L1414.31 1847.65 M1414.31 1833.78 L1420.17 1833.78 L1420.17 1841.19 L1414.31 1841.19 L1414.31 1833.78 Z" fill="#000000" fill-rule="nonzero" fill-opacity="1" /><path clip-path="url(#clip780)" d="M1460.17 1854.5 Q1462.37 1850.55 1465.43 1848.67 Q1468.48 1846.79 1472.62 1846.79 Q1478.19 1846.79 1481.21 1850.71 Q1484.24 1854.59 1484.24 1861.78 L1484.24 1883.3 L1478.35 1883.3 L1478.35 1861.98 Q1478.35 1856.85 1476.53 1854.37 Q1474.72 1851.89 1471 1851.89 Q1466.44 1851.89 1463.8 1854.91 Q1461.16 1857.93 1461.16 1863.15 L1461.16 1883.3 L1455.27 1883.3 L1455.27 1861.98 Q1455.27 1856.82 1453.46 1854.37 Q1451.64 1851.89 1447.86 1851.89 Q1443.37 1851.89 1440.73 1854.94 Q1438.09 1857.97 1438.09 1863.15 L1438.09 1883.3 L1432.2 1883.3 L1432.2 1847.65 L1438.09 1847.65 L1438.09 1853.19 Q1440.09 1849.91 1442.89 1848.35 Q1445.69 1846.79 1449.54 1846.79 Q1453.43 1846.79 1456.13 1848.77 Q1458.87 1850.74 1460.17 1854.5 Z" fill="#000000" fill-rule="nonzero" fill-opacity="1" /><path clip-path="url(#clip780)" d="M1526.41 1864.01 L1526.41 1866.88 L1499.48 1866.88 Q1499.86 1872.92 1503.11 1876.11 Q1506.39 1879.26 1512.21 1879.26 Q1515.59 1879.26 1518.74 1878.43 Q1521.92 1877.6 1525.04 1875.95 L1525.04 1881.49 Q1521.89 1882.82 1518.58 1883.52 Q1515.27 1884.22 1511.86 1884.22 Q1503.33 1884.22 1498.34 1879.26 Q1493.37 1874.29 1493.37 1865.83 Q1493.37 1857.07 1498.08 1851.95 Q1502.82 1846.79 1510.85 1846.79 Q1518.04 1846.79 1522.21 1851.44 Q1526.41 1856.06 1526.41 1864.01 M1520.55 1862.29 Q1520.49 1857.49 1517.85 1854.62 Q1515.24 1851.76 1510.91 1851.76 Q1506.01 1851.76 1503.05 1854.53 Q1500.12 1857.3 1499.67 1862.33 L1520.55 1862.29 Z" fill="#000000" fill-rule="nonzero" fill-opacity="1" /><polyline clip-path="url(#clip780)" style="stroke:#000000; stroke-linecap:round; stroke-linejoin:round; stroke-width:4; stroke-opacity:1; fill:none" points="255.816,1734.12 255.816,47.2441 "/>
<polyline clip-path="url(#clip780)" style="stroke:#000000; stroke-linecap:round; stroke-linejoin:round; stroke-width:4; stroke-opacity:1; fill:none" points="255.816,1686.38 274.714,1686.38 "/>
<polyline clip-path="url(#clip780)" style="stroke:#000000; stroke-linecap:round; stroke-linejoin:round; stroke-width:4; stroke-opacity:1; fill:none" points="255.816,1284.51 274.714,1284.51 "/>
<polyline clip-path="url(#clip780)" style="stroke:#000000; stroke-linecap:round; stroke-linejoin:round; stroke-width:4; stroke-opacity:1; fill:none" points="255.816,882.643 274.714,882.643 "/>
<polyline clip-path="url(#clip780)" style="stroke:#000000; stroke-linecap:round; stroke-linejoin:round; stroke-width:4; stroke-opacity:1; fill:none" points="255.816,480.777 274.714,480.777 "/>
<polyline clip-path="url(#clip780)" style="stroke:#000000; stroke-linecap:round; stroke-linejoin:round; stroke-width:4; stroke-opacity:1; fill:none" points="255.816,78.9111 274.714,78.9111 "/>
<path clip-path="url(#clip780)" d="M128.159 1672.17 Q124.548 1672.17 122.719 1675.74 Q120.913 1679.28 120.913 1686.41 Q120.913 1693.52 122.719 1697.08 Q124.548 1700.62 128.159 1700.62 Q131.793 1700.62 133.599 1697.08 Q135.427 1693.52 135.427 1686.41 Q135.427 1679.28 133.599 1675.74 Q131.793 1672.17 128.159 1672.17 M128.159 1668.47 Q133.969 1668.47 137.025 1673.08 Q140.103 1677.66 140.103 1686.41 Q140.103 1695.14 137.025 1699.74 Q133.969 1704.33 128.159 1704.33 Q122.349 1704.33 119.27 1699.74 Q116.214 1695.14 116.214 1686.41 Q116.214 1677.66 119.27 1673.08 Q122.349 1668.47 128.159 1668.47 Z" fill="#000000" fill-rule="nonzero" fill-opacity="1" /><path clip-path="url(#clip780)" d="M148.321 1697.78 L153.205 1697.78 L153.205 1703.66 L148.321 1703.66 L148.321 1697.78 Z" fill="#000000" fill-rule="nonzero" fill-opacity="1" /><path clip-path="url(#clip780)" d="M173.39 1672.17 Q169.779 1672.17 167.95 1675.74 Q166.145 1679.28 166.145 1686.41 Q166.145 1693.52 167.95 1697.08 Q169.779 1700.62 173.39 1700.62 Q177.024 1700.62 178.83 1697.08 Q180.659 1693.52 180.659 1686.41 Q180.659 1679.28 178.83 1675.74 Q177.024 1672.17 173.39 1672.17 M173.39 1668.47 Q179.2 1668.47 182.256 1673.08 Q185.334 1677.66 185.334 1686.41 Q185.334 1695.14 182.256 1699.74 Q179.2 1704.33 173.39 1704.33 Q167.58 1704.33 164.501 1699.74 Q161.446 1695.14 161.446 1686.41 Q161.446 1677.66 164.501 1673.08 Q167.58 1668.47 173.39 1668.47 Z" fill="#000000" fill-rule="nonzero" fill-opacity="1" /><path clip-path="url(#clip780)" d="M203.552 1672.17 Q199.941 1672.17 198.112 1675.74 Q196.307 1679.28 196.307 1686.41 Q196.307 1693.52 198.112 1697.08 Q199.941 1700.62 203.552 1700.62 Q207.186 1700.62 208.992 1697.08 Q210.82 1693.52 210.82 1686.41 Q210.82 1679.28 208.992 1675.74 Q207.186 1672.17 203.552 1672.17 M203.552 1668.47 Q209.362 1668.47 212.418 1673.08 Q215.496 1677.66 215.496 1686.41 Q215.496 1695.14 212.418 1699.74 Q209.362 1704.33 203.552 1704.33 Q197.742 1704.33 194.663 1699.74 Q191.608 1695.14 191.608 1686.41 Q191.608 1677.66 194.663 1673.08 Q197.742 1668.47 203.552 1668.47 Z" fill="#000000" fill-rule="nonzero" fill-opacity="1" /><path clip-path="url(#clip780)" d="M129.154 1270.31 Q125.543 1270.31 123.714 1273.87 Q121.909 1277.41 121.909 1284.54 Q121.909 1291.65 123.714 1295.22 Q125.543 1298.76 129.154 1298.76 Q132.788 1298.76 134.594 1295.22 Q136.423 1291.65 136.423 1284.54 Q136.423 1277.41 134.594 1273.87 Q132.788 1270.31 129.154 1270.31 M129.154 1266.6 Q134.964 1266.6 138.02 1271.21 Q141.099 1275.79 141.099 1284.54 Q141.099 1293.27 138.02 1297.88 Q134.964 1302.46 129.154 1302.46 Q123.344 1302.46 120.265 1297.88 Q117.21 1293.27 117.21 1284.54 Q117.21 1275.79 120.265 1271.21 Q123.344 1266.6 129.154 1266.6 Z" fill="#000000" fill-rule="nonzero" fill-opacity="1" /><path clip-path="url(#clip780)" d="M149.316 1295.91 L154.2 1295.91 L154.2 1301.79 L149.316 1301.79 L149.316 1295.91 Z" fill="#000000" fill-rule="nonzero" fill-opacity="1" /><path clip-path="url(#clip780)" d="M168.413 1297.85 L184.733 1297.85 L184.733 1301.79 L162.788 1301.79 L162.788 1297.85 Q165.45 1295.1 170.034 1290.47 Q174.64 1285.82 175.821 1284.47 Q178.066 1281.95 178.946 1280.22 Q179.848 1278.46 179.848 1276.77 Q179.848 1274.01 177.904 1272.28 Q175.983 1270.54 172.881 1270.54 Q170.682 1270.54 168.228 1271.3 Q165.798 1272.07 163.02 1273.62 L163.02 1268.9 Q165.844 1267.76 168.297 1267.18 Q170.751 1266.6 172.788 1266.6 Q178.159 1266.6 181.353 1269.29 Q184.547 1271.97 184.547 1276.47 Q184.547 1278.59 183.737 1280.52 Q182.95 1282.41 180.844 1285.01 Q180.265 1285.68 177.163 1288.9 Q174.061 1292.09 168.413 1297.85 Z" fill="#000000" fill-rule="nonzero" fill-opacity="1" /><path clip-path="url(#clip780)" d="M194.594 1267.23 L212.95 1267.23 L212.95 1271.16 L198.876 1271.16 L198.876 1279.64 Q199.895 1279.29 200.913 1279.13 Q201.932 1278.94 202.95 1278.94 Q208.737 1278.94 212.117 1282.11 Q215.496 1285.28 215.496 1290.7 Q215.496 1296.28 212.024 1299.38 Q208.552 1302.46 202.233 1302.46 Q200.057 1302.46 197.788 1302.09 Q195.543 1301.72 193.135 1300.98 L193.135 1296.28 Q195.219 1297.41 197.441 1297.97 Q199.663 1298.53 202.14 1298.53 Q206.145 1298.53 208.482 1296.42 Q210.82 1294.31 210.82 1290.7 Q210.82 1287.09 208.482 1284.98 Q206.145 1282.88 202.14 1282.88 Q200.265 1282.88 198.39 1283.29 Q196.538 1283.71 194.594 1284.59 L194.594 1267.23 Z" fill="#000000" fill-rule="nonzero" fill-opacity="1" /><path clip-path="url(#clip780)" d="M128.159 868.442 Q124.548 868.442 122.719 872.007 Q120.913 875.548 120.913 882.678 Q120.913 889.784 122.719 893.349 Q124.548 896.891 128.159 896.891 Q131.793 896.891 133.599 893.349 Q135.427 889.784 135.427 882.678 Q135.427 875.548 133.599 872.007 Q131.793 868.442 128.159 868.442 M128.159 864.738 Q133.969 864.738 137.025 869.345 Q140.103 873.928 140.103 882.678 Q140.103 891.405 137.025 896.011 Q133.969 900.595 128.159 900.595 Q122.349 900.595 119.27 896.011 Q116.214 891.405 116.214 882.678 Q116.214 873.928 119.27 869.345 Q122.349 864.738 128.159 864.738 Z" fill="#000000" fill-rule="nonzero" fill-opacity="1" /><path clip-path="url(#clip780)" d="M148.321 894.044 L153.205 894.044 L153.205 899.923 L148.321 899.923 L148.321 894.044 Z" fill="#000000" fill-rule="nonzero" fill-opacity="1" /><path clip-path="url(#clip780)" d="M163.436 865.363 L181.793 865.363 L181.793 869.298 L167.719 869.298 L167.719 877.771 Q168.737 877.423 169.756 877.261 Q170.774 877.076 171.793 877.076 Q177.58 877.076 180.959 880.247 Q184.339 883.419 184.339 888.835 Q184.339 894.414 180.867 897.516 Q177.395 900.595 171.075 900.595 Q168.899 900.595 166.631 900.224 Q164.385 899.854 161.978 899.113 L161.978 894.414 Q164.061 895.548 166.284 896.104 Q168.506 896.659 170.983 896.659 Q174.987 896.659 177.325 894.553 Q179.663 892.446 179.663 888.835 Q179.663 885.224 177.325 883.118 Q174.987 881.011 170.983 881.011 Q169.108 881.011 167.233 881.428 Q165.381 881.845 163.436 882.724 L163.436 865.363 Z" fill="#000000" fill-rule="nonzero" fill-opacity="1" /><path clip-path="url(#clip780)" d="M203.552 868.442 Q199.941 868.442 198.112 872.007 Q196.307 875.548 196.307 882.678 Q196.307 889.784 198.112 893.349 Q199.941 896.891 203.552 896.891 Q207.186 896.891 208.992 893.349 Q210.82 889.784 210.82 882.678 Q210.82 875.548 208.992 872.007 Q207.186 868.442 203.552 868.442 M203.552 864.738 Q209.362 864.738 212.418 869.345 Q215.496 873.928 215.496 882.678 Q215.496 891.405 212.418 896.011 Q209.362 900.595 203.552 900.595 Q197.742 900.595 194.663 896.011 Q191.608 891.405 191.608 882.678 Q191.608 873.928 194.663 869.345 Q197.742 864.738 203.552 864.738 Z" fill="#000000" fill-rule="nonzero" fill-opacity="1" /><path clip-path="url(#clip780)" d="M129.154 466.576 Q125.543 466.576 123.714 470.141 Q121.909 473.682 121.909 480.812 Q121.909 487.918 123.714 491.483 Q125.543 495.025 129.154 495.025 Q132.788 495.025 134.594 491.483 Q136.423 487.918 136.423 480.812 Q136.423 473.682 134.594 470.141 Q132.788 466.576 129.154 466.576 M129.154 462.872 Q134.964 462.872 138.02 467.479 Q141.099 472.062 141.099 480.812 Q141.099 489.539 138.02 494.145 Q134.964 498.728 129.154 498.728 Q123.344 498.728 120.265 494.145 Q117.21 489.539 117.21 480.812 Q117.21 472.062 120.265 467.479 Q123.344 462.872 129.154 462.872 Z" fill="#000000" fill-rule="nonzero" fill-opacity="1" /><path clip-path="url(#clip780)" d="M149.316 492.178 L154.2 492.178 L154.2 498.057 L149.316 498.057 L149.316 492.178 Z" fill="#000000" fill-rule="nonzero" fill-opacity="1" /><path clip-path="url(#clip780)" d="M163.205 463.497 L185.427 463.497 L185.427 465.488 L172.881 498.057 L167.997 498.057 L179.802 467.432 L163.205 467.432 L163.205 463.497 Z" fill="#000000" fill-rule="nonzero" fill-opacity="1" /><path clip-path="url(#clip780)" d="M194.594 463.497 L212.95 463.497 L212.95 467.432 L198.876 467.432 L198.876 475.905 Q199.895 475.557 200.913 475.395 Q201.932 475.21 202.95 475.21 Q208.737 475.21 212.117 478.381 Q215.496 481.553 215.496 486.969 Q215.496 492.548 212.024 495.65 Q208.552 498.728 202.233 498.728 Q200.057 498.728 197.788 498.358 Q195.543 497.988 193.135 497.247 L193.135 492.548 Q195.219 493.682 197.441 494.238 Q199.663 494.793 202.14 494.793 Q206.145 494.793 208.482 492.687 Q210.82 490.58 210.82 486.969 Q210.82 483.358 208.482 481.252 Q206.145 479.145 202.14 479.145 Q200.265 479.145 198.39 479.562 Q196.538 479.979 194.594 480.858 L194.594 463.497 Z" fill="#000000" fill-rule="nonzero" fill-opacity="1" /><path clip-path="url(#clip780)" d="M118.969 92.256 L126.608 92.256 L126.608 65.8904 L118.298 67.557 L118.298 63.2978 L126.562 61.6311 L131.238 61.6311 L131.238 92.256 L138.876 92.256 L138.876 96.1911 L118.969 96.1911 L118.969 92.256 Z" fill="#000000" fill-rule="nonzero" fill-opacity="1" /><path clip-path="url(#clip780)" d="M148.321 90.3115 L153.205 90.3115 L153.205 96.1911 L148.321 96.1911 L148.321 90.3115 Z" fill="#000000" fill-rule="nonzero" fill-opacity="1" /><path clip-path="url(#clip780)" d="M173.39 64.7098 Q169.779 64.7098 167.95 68.2746 Q166.145 71.8163 166.145 78.9459 Q166.145 86.0523 167.95 89.6171 Q169.779 93.1587 173.39 93.1587 Q177.024 93.1587 178.83 89.6171 Q180.659 86.0523 180.659 78.9459 Q180.659 71.8163 178.83 68.2746 Q177.024 64.7098 173.39 64.7098 M173.39 61.0061 Q179.2 61.0061 182.256 65.6126 Q185.334 70.1959 185.334 78.9459 Q185.334 87.6727 182.256 92.2791 Q179.2 96.8624 173.39 96.8624 Q167.58 96.8624 164.501 92.2791 Q161.446 87.6727 161.446 78.9459 Q161.446 70.1959 164.501 65.6126 Q167.58 61.0061 173.39 61.0061 Z" fill="#000000" fill-rule="nonzero" fill-opacity="1" /><path clip-path="url(#clip780)" d="M203.552 64.7098 Q199.941 64.7098 198.112 68.2746 Q196.307 71.8163 196.307 78.9459 Q196.307 86.0523 198.112 89.6171 Q199.941 93.1587 203.552 93.1587 Q207.186 93.1587 208.992 89.6171 Q210.82 86.0523 210.82 78.9459 Q210.82 71.8163 208.992 68.2746 Q207.186 64.7098 203.552 64.7098 M203.552 61.0061 Q209.362 61.0061 212.418 65.6126 Q215.496 70.1959 215.496 78.9459 Q215.496 87.6727 212.418 92.2791 Q209.362 96.8624 203.552 96.8624 Q197.742 96.8624 194.663 92.2791 Q191.608 87.6727 191.608 78.9459 Q191.608 70.1959 194.663 65.6126 Q197.742 61.0061 203.552 61.0061 Z" fill="#000000" fill-rule="nonzero" fill-opacity="1" /><path clip-path="url(#clip780)" d="M14.1184 1018.41 L14.1184 1009.75 L53.8723 988.681 L14.1184 988.681 L14.1184 982.442 L61.6384 982.442 L61.6384 991.1 L21.8846 1012.17 L61.6384 1012.17 L61.6384 1018.41 L14.1184 1018.41 Z" fill="#000000" fill-rule="nonzero" fill-opacity="1" /><path clip-path="url(#clip780)" d="M47.5702 970.507 L25.9905 970.507 L25.9905 964.65 L47.3474 964.65 Q52.4082 964.65 54.9545 962.677 Q57.4689 960.703 57.4689 956.757 Q57.4689 952.014 54.4452 949.277 Q51.4215 946.508 46.2016 946.508 L25.9905 946.508 L25.9905 940.651 L61.6384 940.651 L61.6384 946.508 L56.1639 946.508 Q59.4104 948.64 61.0019 951.473 Q62.5615 954.274 62.5615 957.998 Q62.5615 964.141 58.742 967.324 Q54.9226 970.507 47.5702 970.507 M25.1311 955.77 L25.1311 955.77 Z" fill="#000000" fill-rule="nonzero" fill-opacity="1" /><path clip-path="url(#clip780)" d="M32.8336 900.834 Q28.8869 898.638 27.009 895.582 Q25.1311 892.527 25.1311 888.389 Q25.1311 882.819 29.046 879.795 Q32.9291 876.771 40.1224 876.771 L61.6384 876.771 L61.6384 882.66 L40.3133 882.66 Q35.1889 882.66 32.7063 884.474 Q30.2237 886.288 30.2237 890.012 Q30.2237 894.564 33.2474 897.205 Q36.2711 899.847 41.491 899.847 L61.6384 899.847 L61.6384 905.735 L40.3133 905.735 Q35.1571 905.735 32.7063 907.55 Q30.2237 909.364 30.2237 913.151 Q30.2237 917.639 33.2792 920.281 Q36.3029 922.923 41.491 922.923 L61.6384 922.923 L61.6384 928.811 L25.9905 928.811 L25.9905 922.923 L31.5287 922.923 Q28.2503 920.918 26.6907 918.117 Q25.1311 915.316 25.1311 911.465 Q25.1311 907.581 27.1045 904.876 Q29.0779 902.139 32.8336 900.834 Z" fill="#000000" fill-rule="nonzero" fill-opacity="1" /><path clip-path="url(#clip780)" d="M43.8463 839.5 Q37.3851 839.5 33.7248 842.174 Q30.0327 844.816 30.0327 849.463 Q30.0327 854.11 33.7248 856.783 Q37.3851 859.425 43.8463 859.425 Q50.3075 859.425 53.9996 856.783 Q57.6599 854.11 57.6599 849.463 Q57.6599 844.816 53.9996 842.174 Q50.3075 839.5 43.8463 839.5 M31.4013 859.425 Q28.2185 857.579 26.6907 854.778 Q25.1311 851.945 25.1311 848.03 Q25.1311 841.537 30.2873 837.495 Q35.4436 833.421 43.8463 833.421 Q52.249 833.421 57.4052 837.495 Q62.5615 841.537 62.5615 848.03 Q62.5615 851.945 61.0337 854.778 Q59.4741 857.579 56.2912 859.425 L61.6384 859.425 L61.6384 865.313 L12.1132 865.313 L12.1132 859.425 L31.4013 859.425 Z" fill="#000000" fill-rule="nonzero" fill-opacity="1" /><path clip-path="url(#clip780)" d="M42.3504 793.222 L45.2149 793.222 L45.2149 820.149 Q51.2623 819.767 54.4452 816.52 Q57.5962 813.242 57.5962 807.417 Q57.5962 804.043 56.7687 800.892 Q55.9411 797.709 54.2861 794.59 L59.8242 794.59 Q61.161 797.741 61.8612 801.051 Q62.5615 804.362 62.5615 807.767 Q62.5615 816.297 57.5962 821.294 Q52.631 826.26 44.1646 826.26 Q35.4117 826.26 30.2873 821.549 Q25.1311 816.807 25.1311 808.786 Q25.1311 801.592 29.7781 797.423 Q34.3932 793.222 42.3504 793.222 M40.6316 799.078 Q35.8255 799.142 32.9609 801.783 Q30.0964 804.393 30.0964 808.722 Q30.0964 813.624 32.8654 816.584 Q35.6345 819.512 40.6634 819.958 L40.6316 799.078 Z" fill="#000000" fill-rule="nonzero" fill-opacity="1" /><path clip-path="url(#clip780)" d="M31.465 762.953 Q30.8921 763.939 30.6375 765.117 Q30.351 766.263 30.351 767.663 Q30.351 772.629 33.5975 775.302 Q36.8122 777.944 42.8596 777.944 L61.6384 777.944 L61.6384 783.832 L25.9905 783.832 L25.9905 777.944 L31.5287 777.944 Q28.2821 776.098 26.7225 773.138 Q25.1311 770.178 25.1311 765.945 Q25.1311 765.34 25.2266 764.608 Q25.2903 763.876 25.4494 762.984 L31.465 762.953 Z" fill="#000000" fill-rule="nonzero" fill-opacity="1" /><polyline clip-path="url(#clip782)" style="stroke:#009af9; stroke-linecap:round; stroke-linejoin:round; stroke-width:4; stroke-opacity:1; fill:none" points="323.315,94.9858 325.565,103.738 327.814,112.462 330.064,121.158 332.314,129.825 334.564,138.463 336.814,147.074 339.064,155.657 341.314,164.212 343.564,172.74 345.814,181.24 348.064,189.713 350.314,198.159 352.564,206.578 354.814,214.97 357.064,223.335 359.314,231.673 361.564,239.985 363.814,248.27 366.064,256.529 368.313,264.761 370.563,272.967 372.813,281.146 375.063,289.299 377.313,297.425 379.563,305.526 381.813,313.6 384.063,321.647 386.313,329.668 388.563,337.663 390.813,345.632 393.063,353.574 395.313,361.489 397.563,369.378 399.813,377.241 402.063,385.076 404.313,392.885 406.563,400.668 408.812,408.423 411.062,416.151 413.312,423.852 415.562,431.526 417.812,439.173 420.062,446.792 422.312,454.383 424.562,461.947 426.812,469.483 429.062,476.991 431.312,484.471 433.562,491.923 435.812,499.346 438.062,506.74 440.312,514.106 442.562,521.443 444.812,528.75 447.061,536.029 449.311,543.278 451.561,550.497 453.811,557.687 456.061,564.846 458.311,571.975 460.561,579.074 462.811,586.143 465.061,593.18 467.311,600.187 469.561,607.162 471.811,614.107 474.061,621.019 476.311,627.9 478.561,634.749 480.811,641.567 483.061,648.351 485.311,655.104 487.56,661.824 489.81,668.511 492.06,675.165 494.31,681.786 496.56,688.373 498.81,694.927 501.06,701.448 503.31,707.934 505.56,714.387 507.81,720.805 510.06,727.19 512.31,733.539 514.56,739.855 516.81,746.135 519.06,752.381 521.31,758.592 523.56,764.767 525.809,770.907 528.059,777.013 530.309,783.082 532.559,789.116 534.809,795.115 537.059,801.077 539.309,807.004 541.559,812.895 543.809,818.75 546.059,824.569 548.309,830.352 550.559,836.099 552.809,841.809 555.059,847.484 557.309,853.121 559.559,858.723 561.809,864.288 564.059,869.817 566.308,875.31 568.558,880.766 570.808,886.186 573.058,891.569 575.308,896.916 577.558,902.227 579.808,907.501 582.058,912.739 584.308,917.941 586.558,923.106 588.808,928.236 591.058,933.329 593.308,938.386 595.558,943.408 597.808,948.393 600.058,953.342 602.308,958.256 604.557,963.134 606.807,967.977 609.057,972.784 611.307,977.555 613.557,982.292 615.807,986.993 618.057,991.659 620.307,996.291 622.557,1000.89 624.807,1005.45 627.057,1009.98 629.307,1014.47 631.557,1018.93 633.807,1023.35 636.057,1027.74 638.307,1032.1 640.557,1036.42 642.807,1040.71 645.056,1044.97 647.306,1049.19 649.556,1053.39 651.806,1057.54 654.056,1061.67 656.306,1065.76 658.556,1069.82 660.806,1073.85 663.056,1077.85 665.306,1081.82 667.556,1085.75 669.806,1089.65 672.056,1093.52 674.306,1097.37 676.556,1101.18 678.806,1104.96 681.056,1108.71 683.305,1112.43 685.555,1116.12 687.805,1119.78 690.055,1123.41 692.305,1127.01 694.555,1130.58 696.805,1134.13 699.055,1137.64 701.305,1141.13 703.555,1144.59 705.805,1148.02 708.055,1151.43 710.305,1154.8 712.555,1158.15 714.805,1161.48 717.055,1164.77 719.305,1168.04 721.555,1171.29 723.804,1174.5 726.054,1177.7 728.304,1180.86 730.554,1184 732.804,1187.12 735.054,1190.21 737.304,1193.27 739.554,1196.32 741.804,1199.33 744.054,1202.33 746.304,1205.29 748.554,1208.24 750.804,1211.16 753.054,1214.06 755.304,1216.94 757.554,1219.79 759.804,1222.62 762.053,1225.43 764.303,1228.21 766.553,1230.98 768.803,1233.72 771.053,1236.44 773.303,1239.14 775.553,1241.82 777.803,1244.48 780.053,1247.11 782.303,1249.73 784.553,1252.32 786.803,1254.9 789.053,1257.46 791.303,1259.99 793.553,1262.51 795.803,1265.01 798.053,1267.48 800.303,1269.94 802.552,1272.38 804.802,1274.81 807.052,1277.21 809.302,1279.59 811.552,1281.96 813.802,1284.31 816.052,1286.64 818.302,1288.96 820.552,1291.25 822.802,1293.53 825.052,1295.79 827.302,1298.04 829.552,1300.27 831.802,1302.48 834.052,1304.68 836.302,1306.86 838.552,1309.02 840.802,1311.17 843.051,1313.3 845.301,1315.42 847.551,1317.52 849.801,1319.61 852.051,1321.68 854.301,1323.74 856.551,1325.78 858.801,1327.8 861.051,1329.82 863.301,1331.81 865.551,1333.8 867.801,1335.77 870.051,1337.73 872.301,1339.67 874.551,1341.6 876.801,1343.51 879.051,1345.41 881.3,1347.3 883.55,1349.18 885.8,1351.04 888.05,1352.89 890.3,1354.73 892.55,1356.55 894.8,1358.36 897.05,1360.16 899.3,1361.95 901.55,1363.73 903.8,1365.49 906.05,1367.24 908.3,1368.98 910.55,1370.71 912.8,1372.42 915.05,1374.13 917.3,1375.82 919.55,1377.51 921.799,1379.18 924.049,1380.84 926.299,1382.49 928.549,1384.13 930.799,1385.75 933.049,1387.37 935.299,1388.98 937.549,1390.58 939.799,1392.16 942.049,1393.74 944.299,1395.3 946.549,1396.86 948.799,1398.41 951.049,1399.94 953.299,1401.47 955.549,1402.99 957.799,1404.49 960.048,1405.99 962.298,1407.48 964.548,1408.96 966.798,1410.43 969.048,1411.89 971.298,1413.34 973.548,1414.78 975.798,1416.22 978.048,1417.64 980.298,1419.06 982.548,1420.46 984.798,1421.86 987.048,1423.25 989.298,1424.64 991.548,1426.01 993.798,1427.37 996.048,1428.73 998.298,1430.08 1000.55,1431.42 1002.8,1432.75 1005.05,1434.08 1007.3,1435.4 1009.55,1436.7 1011.8,1438.01 1014.05,1439.3 1016.3,1440.59 1018.55,1441.86 1020.8,1443.13 1023.05,1444.4 1025.3,1445.65 1027.55,1446.9 1029.8,1448.14 1032.05,1449.38 1034.3,1450.6 1036.55,1451.82 1038.8,1453.04 1041.05,1454.24 1043.3,1455.44 1045.55,1456.63 1047.8,1457.82 1050.05,1459 1052.3,1460.17 1054.55,1461.33 1056.8,1462.49 1059.05,1463.64 1061.3,1464.79 1063.55,1465.93 1065.8,1467.06 1068.05,1468.19 1070.3,1469.31 1072.55,1470.42 1074.8,1471.53 1077.05,1472.63 1079.3,1473.72 1081.55,1474.81 1083.8,1475.89 1086.05,1476.97 1088.3,1478.04 1090.55,1479.1 1092.8,1480.16 1095.05,1481.22 1097.3,1482.26 1099.54,1483.3 1101.79,1484.34 1104.04,1485.37 1106.29,1486.39 1108.54,1487.41 1110.79,1488.42 1113.04,1489.43 1115.29,1490.43 1117.54,1491.43 1119.79,1492.42 1122.04,1493.41 1124.29,1494.39 1126.54,1495.36 1128.79,1496.33 1131.04,1497.3 1133.29,1498.26 1135.54,1499.21 1137.79,1500.16 1140.04,1501.1 1142.29,1502.04 1144.54,1502.98 1146.79,1503.9 1149.04,1504.83 1151.29,1505.75 1153.54,1506.66 1155.79,1507.57 1158.04,1508.47 1160.29,1509.37 1162.54,1510.27 1164.79,1511.16 1167.04,1512.04 1169.29,1512.92 1171.54,1513.8 1173.79,1514.67 1176.04,1515.53 1178.29,1516.4 1180.54,1517.25 1182.79,1518.11 1185.04,1518.95 1187.29,1519.8 1189.54,1520.64 1191.79,1521.47 1194.04,1522.3 1196.29,1523.13 1198.54,1523.95 1200.79,1524.77 1203.04,1525.58 1205.29,1526.39 1207.54,1527.19 1209.79,1527.99 1212.04,1528.79 1214.29,1529.58 1216.54,1530.37 1218.79,1531.15 1221.04,1531.93 1223.29,1532.7 1225.54,1533.48 1227.79,1534.24 1230.04,1535.01 1232.29,1535.76 1234.54,1536.52 1236.79,1537.27 1239.04,1538.02 1241.29,1538.76 1243.54,1539.5 1245.79,1540.24 1248.04,1540.97 1250.29,1541.69 1252.54,1542.42 1254.79,1543.14 1257.04,1543.85 1259.29,1544.57 1261.54,1545.28 1263.79,1545.98 1266.04,1546.68 1268.29,1547.38 1270.54,1548.07 1272.79,1548.76 1275.04,1549.45 1277.29,1550.13 1279.54,1550.81 1281.79,1551.49 1284.04,1552.16 1286.29,1552.83 1288.54,1553.5 1290.79,1554.16 1293.04,1554.82 1295.29,1555.47 1297.54,1556.12 1299.79,1556.77 1302.04,1557.42 1304.29,1558.06 1306.54,1558.7 1308.79,1559.33 1311.04,1559.96 1313.29,1560.59 1315.54,1561.21 1317.79,1561.83 1320.04,1562.45 1322.29,1563.07 1324.54,1563.68 1326.79,1564.28 1329.04,1564.89 1331.29,1565.49 1333.54,1566.09 1335.79,1566.68 1338.04,1567.28 1340.29,1567.86 1342.54,1568.45 1344.79,1569.03 1347.04,1569.61 1349.29,1570.19 1351.54,1570.76 1353.79,1571.33 1356.04,1571.9 1358.29,1572.46 1360.54,1573.02 1362.79,1573.58 1365.04,1574.13 1367.29,1574.68 1369.54,1575.23 1371.79,1575.77 1374.04,1576.32 1376.29,1576.86 1378.54,1577.39 1380.79,1577.92 1383.04,1578.45 1385.29,1578.98 1387.54,1579.51 1389.79,1580.03 1392.04,1580.55 1394.29,1581.06 1396.54,1581.57 1398.79,1582.08 1401.04,1582.59 1403.29,1583.09 1405.54,1583.59 1407.79,1584.09 1410.04,1584.58 1412.29,1585.08 1414.54,1585.56 1416.79,1586.05 1419.04,1586.53 1421.29,1587.01 1423.54,1587.49 1425.79,1587.96 1428.04,1588.44 1430.29,1588.9 1432.54,1589.37 1434.79,1589.83 1437.04,1590.29 1439.29,1590.75 1441.54,1591.2 1443.79,1591.65 1446.04,1592.1 1448.29,1592.55 1450.54,1592.99 1452.79,1593.43 1455.04,1593.87 1457.29,1594.3 1459.54,1594.73 1461.79,1595.16 1464.04,1595.58 1466.29,1596.01 1468.54,1596.43 1470.79,1596.84 1473.04,1597.25 1475.29,1597.66 1477.54,1598.07 1479.79,1598.48 1482.04,1598.88 1484.29,1599.28 1486.54,1599.67 1488.79,1600.06 1491.04,1600.45 1493.28,1600.84 1495.53,1601.22 1497.78,1601.6 1500.03,1601.98 1502.28,1602.35 1504.53,1602.72 1506.78,1603.09 1509.03,1603.45 1511.28,1603.81 1513.53,1604.17 1515.78,1604.52 1518.03,1604.87 1520.28,1605.22 1522.53,1605.57 1524.78,1605.91 1527.03,1606.24 1529.28,1606.58 1531.53,1606.91 1533.78,1607.24 1536.03,1607.56 1538.28,1607.88 1540.53,1608.19 1542.78,1608.51 1545.03,1608.82 1547.28,1609.12 1549.53,1609.42 1551.78,1609.72 1554.03,1610.01 1556.28,1610.3 1558.53,1610.59 1560.78,1610.87 1563.03,1611.15 1565.28,1611.42 1567.53,1611.69 1569.78,1611.96 1572.03,1612.22 1574.28,1612.48 1576.53,1612.74 1578.78,1612.99 1581.03,1613.23 1583.28,1613.47 1585.53,1613.71 1587.78,1613.95 1590.03,1614.18 1592.28,1614.4 1594.53,1614.63 1596.78,1614.84 1599.03,1615.06 1601.28,1615.27 1603.53,1615.48 1605.78,1615.68 1608.03,1615.88 1610.28,1616.08 1612.53,1616.27 1614.78,1616.46 1617.03,1616.65 1619.28,1616.83 1621.53,1617.01 1623.78,1617.19 1626.03,1617.36 1628.28,1617.53 1630.53,1617.7 1632.78,1617.87 1635.03,1618.03 1637.28,1618.19 1639.53,1618.35 1641.78,1618.51 1644.03,1618.66 1646.28,1618.82 1648.53,1618.97 1650.78,1619.11 1653.03,1619.26 1655.28,1619.4 1657.53,1619.55 1659.78,1619.69 1662.03,1619.83 1664.28,1619.96 1666.53,1620.1 1668.78,1620.24 1671.03,1620.37 1673.28,1620.5 1675.53,1620.63 1677.78,1620.76 1680.03,1620.89 1682.28,1621.01 1684.53,1621.14 1686.78,1621.27 1689.03,1621.39 1691.28,1621.51 1693.53,1621.63 1695.78,1621.75 1698.03,1621.87 1700.28,1621.99 1702.53,1622.11 1704.78,1622.23 1707.03,1622.34 1709.28,1622.46 1711.53,1622.57 1713.78,1622.69 1716.03,1622.8 1718.28,1622.91 1720.53,1623.02 1722.78,1623.14 1725.03,1623.25 1727.28,1623.36 1729.53,1623.47 1731.78,1623.58 1734.03,1623.68 1736.28,1623.79 1738.53,1623.9 1740.78,1624.01 1743.03,1624.11 1745.28,1624.22 1747.53,1624.32 1749.78,1624.43 1752.03,1624.53 1754.28,1624.64 1756.53,1624.74 1758.78,1624.85 1761.03,1624.95 1763.28,1625.05 1765.53,1625.15 1767.78,1625.26 1770.03,1625.36 1772.28,1625.46 1774.53,1625.56 1776.78,1625.66 1779.03,1625.76 1781.28,1625.86 1783.53,1625.96 1785.78,1626.06 1788.03,1626.16 1790.28,1626.26 1792.53,1626.36 1794.78,1626.46 1797.03,1626.56 1799.28,1626.66 1801.53,1626.76 1803.78,1626.85 1806.03,1626.95 1808.28,1627.05 1810.53,1627.15 1812.78,1627.24 1815.03,1627.34 1817.28,1627.44 1819.53,1627.53 1821.78,1627.63 1824.03,1627.73 1826.28,1627.82 1828.53,1627.92 1830.78,1628.01 1833.03,1628.11 1835.28,1628.21 1837.53,1628.3 1839.78,1628.4 1842.03,1628.49 1844.28,1628.59 1846.53,1628.68 1848.78,1628.78 1851.03,1628.87 1853.28,1628.97 1855.53,1629.06 1857.78,1629.15 1860.03,1629.25 1862.28,1629.34 1864.53,1629.44 1866.78,1629.53 1869.03,1629.62 1871.28,1629.72 1873.53,1629.81 1875.78,1629.91 1878.03,1630 1880.28,1630.09 1882.53,1630.19 1884.78,1630.28 1887.02,1630.37 1889.27,1630.47 1891.52,1630.56 1893.77,1630.65 1896.02,1630.74 1898.27,1630.84 1900.52,1630.93 1902.77,1631.02 1905.02,1631.11 1907.27,1631.21 1909.52,1631.3 1911.77,1631.39 1914.02,1631.48 1916.27,1631.58 1918.52,1631.67 1920.77,1631.76 1923.02,1631.85 1925.27,1631.95 1927.52,1632.04 1929.77,1632.13 1932.02,1632.22 1934.27,1632.31 1936.52,1632.41 1938.77,1632.5 1941.02,1632.59 1943.27,1632.68 1945.52,1632.77 1947.77,1632.86 1950.02,1632.95 1952.27,1633.05 1954.52,1633.14 1956.77,1633.23 1959.02,1633.32 1961.27,1633.41 1963.52,1633.5 1965.77,1633.59 1968.02,1633.69 1970.27,1633.78 1972.52,1633.87 1974.77,1633.96 1977.02,1634.05 1979.27,1634.14 1981.52,1634.23 1983.77,1634.32 1986.02,1634.41 1988.27,1634.5 1990.52,1634.59 1992.77,1634.69 1995.02,1634.78 1997.27,1634.87 1999.52,1634.96 2001.77,1635.05 2004.02,1635.14 2006.27,1635.23 2008.52,1635.32 2010.77,1635.41 2013.02,1635.5 2015.27,1635.59 2017.52,1635.68 2019.77,1635.77 2022.02,1635.86 2024.27,1635.95 2026.52,1636.04 2028.77,1636.13 2031.02,1636.22 2033.27,1636.31 2035.52,1636.4 2037.77,1636.49 2040.02,1636.58 2042.27,1636.67 2044.52,1636.76 2046.77,1636.85 2049.02,1636.94 2051.27,1637.03 2053.52,1637.12 2055.77,1637.21 2058.02,1637.3 2060.27,1637.39 2062.52,1637.48 2064.77,1637.57 2067.02,1637.66 2069.27,1637.75 2071.52,1637.84 2073.77,1637.93 2076.02,1638.02 2078.27,1638.11 2080.52,1638.2 2082.77,1638.29 2085.02,1638.38 2087.27,1638.47 2089.52,1638.55 2091.77,1638.64 2094.02,1638.73 2096.27,1638.82 2098.52,1638.91 2100.77,1639 2103.02,1639.09 2105.27,1639.18 2107.52,1639.27 2109.77,1639.36 2112.02,1639.44 2114.27,1639.53 2116.52,1639.62 2118.77,1639.71 2121.02,1639.8 2123.27,1639.89 2125.52,1639.98 2127.77,1640.07 2130.02,1640.15 2132.27,1640.24 2134.52,1640.33 2136.77,1640.42 2139.02,1640.51 2141.27,1640.6 2143.52,1640.68 2145.77,1640.77 2148.02,1640.86 2150.27,1640.95 2152.52,1641.04 2154.77,1641.13 2157.02,1641.21 2159.27,1641.3 2161.52,1641.39 2163.77,1641.48 2166.02,1641.57 2168.27,1641.65 2170.52,1641.74 2172.77,1641.83 2175.02,1641.92 2177.27,1642 2179.52,1642.09 2181.77,1642.18 2184.02,1642.27 2186.27,1642.35 2188.52,1642.44 2190.77,1642.53 2193.02,1642.62 2195.27,1642.7 2197.52,1642.79 2199.77,1642.88 2202.02,1642.96 2204.27,1643.05 2206.52,1643.14 2208.77,1643.23 2211.02,1643.31 2213.27,1643.4 2215.52,1643.49 2217.77,1643.57 2220.02,1643.66 2222.27,1643.75 2224.52,1643.83 2226.77,1643.92 2229.02,1644.01 2231.27,1644.09 2233.52,1644.18 2235.77,1644.27 2238.02,1644.35 2240.27,1644.44 2242.52,1644.52 2244.77,1644.61 2247.02,1644.7 2249.27,1644.78 2251.52,1644.87 2253.77,1644.95 2256.02,1645.04 2258.27,1645.13 2260.52,1645.21 2262.77,1645.3 2265.02,1645.38 2267.27,1645.47 2269.52,1645.55 2271.77,1645.64 2274.02,1645.72 2276.27,1645.81 2278.52,1645.89 2280.77,1645.98 2283.01,1646.06 2285.26,1646.15 2287.51,1646.23 2289.76,1646.32 2292.01,1646.4 2294.26,1646.49 2296.51,1646.57 2298.76,1646.66 2301.01,1646.74 2303.26,1646.83 2305.51,1646.91 2307.76,1647 2310.01,1647.08 2312.26,1647.17 2314.51,1647.25 2316.76,1647.33 2319.01,1647.42 2321.26,1647.5 2323.51,1647.59 2325.76,1647.67 2328.01,1647.75 2330.26,1647.84 2332.51,1647.92 2334.76,1648.01 2337.01,1648.09 2339.26,1648.17 2341.51,1648.26 2343.76,1648.34 2346.01,1648.42 2348.26,1648.51 2350.51,1648.59 2352.76,1648.67 2355.01,1648.75 2357.26,1648.84 2359.51,1648.92 2361.76,1649 2364.01,1649.09 2366.26,1649.17 2368.51,1649.25 2370.76,1649.33 2373.01,1649.42 2375.26,1649.5 2377.51,1649.58 2379.76,1649.66 2382.01,1649.75 2384.26,1649.83 2386.51,1649.91 2388.76,1649.99 2391.01,1650.07 2393.26,1650.16 2395.51,1650.24 2397.76,1650.32 2400.01,1650.4 2402.26,1650.48 2404.51,1650.56 2406.76,1650.64 2409.01,1650.73 2411.26,1650.81 2413.51,1650.89 2415.76,1650.97 2418.01,1651.05 2420.26,1651.13 2422.51,1651.21 2424.76,1651.29 2427.01,1651.37 2429.26,1651.45 2431.51,1651.53 2433.76,1651.61 2436.01,1651.69 2438.26,1651.77 2440.51,1651.85 2442.76,1651.93 2445.01,1652.01 2447.26,1652.09 2449.51,1652.17 2451.76,1652.25 2454.01,1652.33 2456.26,1652.41 2458.51,1652.49 2460.76,1652.57 2463.01,1652.65 2465.26,1652.73 2467.51,1652.81 2469.76,1652.89 2472.01,1652.97 2474.26,1653.05 2476.51,1653.13 2478.76,1653.2 2481.01,1653.28 2483.26,1653.36 2485.51,1653.44 2487.76,1653.52 2490.01,1653.6 2492.26,1653.68 2494.51,1653.75 2496.76,1653.83 2499.01,1653.91 2501.26,1653.99 2503.51,1654.06 2505.76,1654.14 2508.01,1654.22 2510.26,1654.3 2512.51,1654.38 2514.76,1654.45 2517.01,1654.53 2519.26,1654.61 2521.51,1654.68 2523.76,1654.76 2526.01,1654.84 2528.26,1654.91 2530.51,1654.99 2532.76,1655.07 2535.01,1655.14 2537.26,1655.22 2539.51,1655.3 2541.76,1655.37 2544.01,1655.45 2546.26,1655.53 2548.51,1655.6 2550.76,1655.68 2553.01,1655.75 2555.26,1655.83 2557.51,1655.9 2559.76,1655.98 2562.01,1656.06 2564.26,1656.13 2566.51,1656.21 2568.76,1656.28 2571.01,1656.36 2573.26,1656.43 "/>
<polyline clip-path="url(#clip782)" style="stroke:#e26f46; stroke-linecap:round; stroke-linejoin:round; stroke-width:4; stroke-opacity:1; fill:none" points="323.315,1670.3 325.565,1669.91 327.814,1669.51 330.064,1669.1 332.314,1668.69 334.564,1668.28 336.814,1667.86 339.064,1667.44 341.314,1667.01 343.564,1666.58 345.814,1666.14 348.064,1665.7 350.314,1665.25 352.564,1664.8 354.814,1664.35 357.064,1663.89 359.314,1663.43 361.564,1662.97 363.814,1662.5 366.064,1662.03 368.313,1661.55 370.563,1661.08 372.813,1660.6 375.063,1660.11 377.313,1659.63 379.563,1659.14 381.813,1658.65 384.063,1658.16 386.313,1657.67 388.563,1657.18 390.813,1656.68 393.063,1656.19 395.313,1655.69 397.563,1655.19 399.813,1654.69 402.063,1654.2 404.313,1653.7 406.563,1653.2 408.812,1652.7 411.062,1652.21 413.312,1651.71 415.562,1651.22 417.812,1650.72 420.062,1650.23 422.312,1649.74 424.562,1649.25 426.812,1648.77 429.062,1648.28 431.312,1647.8 433.562,1647.32 435.812,1646.85 438.062,1646.38 440.312,1645.91 442.562,1645.45 444.812,1644.99 447.061,1644.53 449.311,1644.08 451.561,1643.63 453.811,1643.19 456.061,1642.76 458.311,1642.33 460.561,1641.9 462.811,1641.48 465.061,1641.07 467.311,1640.66 469.561,1640.26 471.811,1639.86 474.061,1639.47 476.311,1639.09 478.561,1638.72 480.811,1638.35 483.061,1637.99 485.311,1637.64 487.56,1637.29 489.81,1636.95 492.06,1636.62 494.31,1636.3 496.56,1635.99 498.81,1635.69 501.06,1635.39 503.31,1635.1 505.56,1634.82 507.81,1634.55 510.06,1634.29 512.31,1634.04 514.56,1633.8 516.81,1633.57 519.06,1633.34 521.31,1633.13 523.56,1632.92 525.809,1632.72 528.059,1632.54 530.309,1632.36 532.559,1632.19 534.809,1632.04 537.059,1631.89 539.309,1631.75 541.559,1631.62 543.809,1631.5 546.059,1631.39 548.309,1631.29 550.559,1631.21 552.809,1631.13 555.059,1631.06 557.309,1630.99 559.559,1630.94 561.809,1630.9 564.059,1630.87 566.308,1630.85 568.558,1630.84 570.808,1630.83 573.058,1630.84 575.308,1630.85 577.558,1630.88 579.808,1630.91 582.058,1630.96 584.308,1631.01 586.558,1631.07 588.808,1631.14 591.058,1631.22 593.308,1631.3 595.558,1631.4 597.808,1631.5 600.058,1631.61 602.308,1631.74 604.557,1631.86 606.807,1632 609.057,1632.14 611.307,1632.3 613.557,1632.46 615.807,1632.62 618.057,1632.8 620.307,1632.98 622.557,1633.17 624.807,1633.36 627.057,1633.57 629.307,1633.78 631.557,1633.99 633.807,1634.21 636.057,1634.44 638.307,1634.68 640.557,1634.92 642.807,1635.16 645.056,1635.41 647.306,1635.67 649.556,1635.93 651.806,1636.2 654.056,1636.48 656.306,1636.75 658.556,1637.04 660.806,1637.32 663.056,1637.61 665.306,1637.91 667.556,1638.21 669.806,1638.52 672.056,1638.82 674.306,1639.14 676.556,1639.45 678.806,1639.77 681.056,1640.09 683.305,1640.42 685.555,1640.75 687.805,1641.08 690.055,1641.41 692.305,1641.75 694.555,1642.09 696.805,1642.43 699.055,1642.77 701.305,1643.12 703.555,1643.47 705.805,1643.82 708.055,1644.17 710.305,1644.52 712.555,1644.87 714.805,1645.23 717.055,1645.59 719.305,1645.95 721.555,1646.3 723.804,1646.66 726.054,1647.02 728.304,1647.39 730.554,1647.75 732.804,1648.11 735.054,1648.47 737.304,1648.83 739.554,1649.2 741.804,1649.56 744.054,1649.92 746.304,1650.28 748.554,1650.65 750.804,1651.01 753.054,1651.37 755.304,1651.73 757.554,1652.09 759.804,1652.45 762.053,1652.81 764.303,1653.17 766.553,1653.52 768.803,1653.88 771.053,1654.24 773.303,1654.59 775.553,1654.94 777.803,1655.29 780.053,1655.64 782.303,1655.99 784.553,1656.34 786.803,1656.68 789.053,1657.03 791.303,1657.37 793.553,1657.71 795.803,1658.05 798.053,1658.39 800.303,1658.72 802.552,1659.05 804.802,1659.38 807.052,1659.71 809.302,1660.04 811.552,1660.37 813.802,1660.69 816.052,1661.01 818.302,1661.33 820.552,1661.65 822.802,1661.96 825.052,1662.27 827.302,1662.58 829.552,1662.89 831.802,1663.19 834.052,1663.5 836.302,1663.8 838.552,1664.1 840.802,1664.39 843.051,1664.68 845.301,1664.97 847.551,1665.26 849.801,1665.55 852.051,1665.83 854.301,1666.11 856.551,1666.39 858.801,1666.67 861.051,1666.94 863.301,1667.21 865.551,1667.48 867.801,1667.74 870.051,1668 872.301,1668.26 874.551,1668.52 876.801,1668.78 879.051,1669.03 881.3,1669.28 883.55,1669.53 885.8,1669.77 888.05,1670.01 890.3,1670.25 892.55,1670.49 894.8,1670.72 897.05,1670.95 899.3,1671.18 901.55,1671.41 903.8,1671.63 906.05,1671.85 908.3,1672.07 910.55,1672.29 912.8,1672.5 915.05,1672.72 917.3,1672.92 919.55,1673.13 921.799,1673.33 924.049,1673.54 926.299,1673.73 928.549,1673.93 930.799,1674.13 933.049,1674.32 935.299,1674.51 937.549,1674.69 939.799,1674.88 942.049,1675.06 944.299,1675.24 946.549,1675.42 948.799,1675.59 951.049,1675.77 953.299,1675.94 955.549,1676.1 957.799,1676.27 960.048,1676.44 962.298,1676.6 964.548,1676.76 966.798,1676.91 969.048,1677.07 971.298,1677.22 973.548,1677.37 975.798,1677.52 978.048,1677.67 980.298,1677.81 982.548,1677.96 984.798,1678.1 987.048,1678.24 989.298,1678.37 991.548,1678.51 993.798,1678.64 996.048,1678.77 998.298,1678.9 1000.55,1679.03 1002.8,1679.15 1005.05,1679.28 1007.3,1679.4 1009.55,1679.52 1011.8,1679.64 1014.05,1679.75 1016.3,1679.87 1018.55,1679.98 1020.8,1680.09 1023.05,1680.2 1025.3,1680.31 1027.55,1680.42 1029.8,1680.52 1032.05,1680.62 1034.3,1680.73 1036.55,1680.83 1038.8,1680.92 1041.05,1681.02 1043.3,1681.12 1045.55,1681.21 1047.8,1681.3 1050.05,1681.39 1052.3,1681.48 1054.55,1681.57 1056.8,1681.66 1059.05,1681.74 1061.3,1681.82 1063.55,1681.91 1065.8,1681.99 1068.05,1682.07 1070.3,1682.15 1072.55,1682.22 1074.8,1682.3 1077.05,1682.37 1079.3,1682.45 1081.55,1682.52 1083.8,1682.59 1086.05,1682.66 1088.3,1682.73 1090.55,1682.8 1092.8,1682.86 1095.05,1682.93 1097.3,1682.99 1099.54,1683.06 1101.79,1683.12 1104.04,1683.18 1106.29,1683.24 1108.54,1683.3 1110.79,1683.36 1113.04,1683.41 1115.29,1683.47 1117.54,1683.52 1119.79,1683.58 1122.04,1683.63 1124.29,1683.68 1126.54,1683.73 1128.79,1683.78 1131.04,1683.83 1133.29,1683.88 1135.54,1683.93 1137.79,1683.98 1140.04,1684.02 1142.29,1684.07 1144.54,1684.11 1146.79,1684.16 1149.04,1684.2 1151.29,1684.24 1153.54,1684.28 1155.79,1684.32 1158.04,1684.36 1160.29,1684.4 1162.54,1684.44 1164.79,1684.48 1167.04,1684.52 1169.29,1684.55 1171.54,1684.59 1173.79,1684.62 1176.04,1684.66 1178.29,1684.69 1180.54,1684.72 1182.79,1684.76 1185.04,1684.79 1187.29,1684.82 1189.54,1684.85 1191.79,1684.88 1194.04,1684.91 1196.29,1684.94 1198.54,1684.97 1200.79,1685 1203.04,1685.02 1205.29,1685.05 1207.54,1685.08 1209.79,1685.1 1212.04,1685.13 1214.29,1685.15 1216.54,1685.18 1218.79,1685.2 1221.04,1685.23 1223.29,1685.25 1225.54,1685.27 1227.79,1685.3 1230.04,1685.32 1232.29,1685.34 1234.54,1685.36 1236.79,1685.38 1239.04,1685.4 1241.29,1685.42 1243.54,1685.44 1245.79,1685.46 1248.04,1685.48 1250.29,1685.5 1252.54,1685.51 1254.79,1685.53 1257.04,1685.55 1259.29,1685.57 1261.54,1685.58 1263.79,1685.6 1266.04,1685.62 1268.29,1685.63 1270.54,1685.65 1272.79,1685.66 1275.04,1685.68 1277.29,1685.69 1279.54,1685.7 1281.79,1685.72 1284.04,1685.73 1286.29,1685.75 1288.54,1685.76 1290.79,1685.77 1293.04,1685.78 1295.29,1685.8 1297.54,1685.81 1299.79,1685.82 1302.04,1685.83 1304.29,1685.84 1306.54,1685.85 1308.79,1685.87 1311.04,1685.88 1313.29,1685.89 1315.54,1685.9 1317.79,1685.91 1320.04,1685.92 1322.29,1685.93 1324.54,1685.94 1326.79,1685.95 1329.04,1685.95 1331.29,1685.96 1333.54,1685.97 1335.79,1685.98 1338.04,1685.99 1340.29,1686 1342.54,1686.01 1344.79,1686.01 1347.04,1686.02 1349.29,1686.03 1351.54,1686.04 1353.79,1686.04 1356.04,1686.05 1358.29,1686.06 1360.54,1686.06 1362.79,1686.07 1365.04,1686.08 1367.29,1686.08 1369.54,1686.09 1371.79,1686.1 1374.04,1686.1 1376.29,1686.11 1378.54,1686.11 1380.79,1686.12 1383.04,1686.13 1385.29,1686.13 1387.54,1686.14 1389.79,1686.14 1392.04,1686.15 1394.29,1686.15 1396.54,1686.16 1398.79,1686.16 1401.04,1686.17 1403.29,1686.17 1405.54,1686.17 1407.79,1686.18 1410.04,1686.18 1412.29,1686.19 1414.54,1686.19 1416.79,1686.2 1419.04,1686.2 1421.29,1686.2 1423.54,1686.21 1425.79,1686.21 1428.04,1686.21 1430.29,1686.22 1432.54,1686.22 1434.79,1686.22 1437.04,1686.23 1439.29,1686.23 1441.54,1686.23 1443.79,1686.24 1446.04,1686.24 1448.29,1686.24 1450.54,1686.25 1452.79,1686.25 1455.04,1686.25 1457.29,1686.25 1459.54,1686.26 1461.79,1686.26 1464.04,1686.26 1466.29,1686.27 1468.54,1686.27 1470.79,1686.27 1473.04,1686.27 1475.29,1686.27 1477.54,1686.28 1479.79,1686.28 1482.04,1686.28 1484.29,1686.28 1486.54,1686.29 1488.79,1686.29 1491.04,1686.29 1493.28,1686.29 1495.53,1686.29 1497.78,1686.29 1500.03,1686.3 1502.28,1686.3 1504.53,1686.3 1506.78,1686.3 1509.03,1686.3 1511.28,1686.31 1513.53,1686.31 1515.78,1686.31 1518.03,1686.31 1520.28,1686.31 1522.53,1686.31 1524.78,1686.31 1527.03,1686.32 1529.28,1686.32 1531.53,1686.32 1533.78,1686.32 1536.03,1686.32 1538.28,1686.32 1540.53,1686.32 1542.78,1686.32 1545.03,1686.33 1547.28,1686.33 1549.53,1686.33 1551.78,1686.33 1554.03,1686.33 1556.28,1686.33 1558.53,1686.33 1560.78,1686.33 1563.03,1686.33 1565.28,1686.33 1567.53,1686.34 1569.78,1686.34 1572.03,1686.34 1574.28,1686.34 1576.53,1686.34 1578.78,1686.34 1581.03,1686.34 1583.28,1686.34 1585.53,1686.34 1587.78,1686.34 1590.03,1686.34 1592.28,1686.34 1594.53,1686.35 1596.78,1686.35 1599.03,1686.35 1601.28,1686.35 1603.53,1686.35 1605.78,1686.35 1608.03,1686.35 1610.28,1686.35 1612.53,1686.35 1614.78,1686.35 1617.03,1686.35 1619.28,1686.35 1621.53,1686.35 1623.78,1686.35 1626.03,1686.35 1628.28,1686.35 1630.53,1686.35 1632.78,1686.35 1635.03,1686.36 1637.28,1686.36 1639.53,1686.36 1641.78,1686.36 1644.03,1686.36 1646.28,1686.36 1648.53,1686.36 1650.78,1686.36 1653.03,1686.36 1655.28,1686.36 1657.53,1686.36 1659.78,1686.36 1662.03,1686.36 1664.28,1686.36 1666.53,1686.36 1668.78,1686.36 1671.03,1686.36 1673.28,1686.36 1675.53,1686.36 1677.78,1686.36 1680.03,1686.36 1682.28,1686.36 1684.53,1686.36 1686.78,1686.36 1689.03,1686.36 1691.28,1686.36 1693.53,1686.36 1695.78,1686.36 1698.03,1686.36 1700.28,1686.37 1702.53,1686.37 1704.78,1686.37 1707.03,1686.37 1709.28,1686.37 1711.53,1686.37 1713.78,1686.37 1716.03,1686.37 1718.28,1686.37 1720.53,1686.37 1722.78,1686.37 1725.03,1686.37 1727.28,1686.37 1729.53,1686.37 1731.78,1686.37 1734.03,1686.37 1736.28,1686.37 1738.53,1686.37 1740.78,1686.37 1743.03,1686.37 1745.28,1686.37 1747.53,1686.37 1749.78,1686.37 1752.03,1686.37 1754.28,1686.37 1756.53,1686.37 1758.78,1686.37 1761.03,1686.37 1763.28,1686.37 1765.53,1686.37 1767.78,1686.37 1770.03,1686.37 1772.28,1686.37 1774.53,1686.37 1776.78,1686.37 1779.03,1686.37 1781.28,1686.37 1783.53,1686.37 1785.78,1686.37 1788.03,1686.37 1790.28,1686.37 1792.53,1686.37 1794.78,1686.37 1797.03,1686.37 1799.28,1686.37 1801.53,1686.37 1803.78,1686.37 1806.03,1686.37 1808.28,1686.37 1810.53,1686.37 1812.78,1686.37 1815.03,1686.37 1817.28,1686.37 1819.53,1686.37 1821.78,1686.37 1824.03,1686.37 1826.28,1686.37 1828.53,1686.37 1830.78,1686.37 1833.03,1686.37 1835.28,1686.37 1837.53,1686.37 1839.78,1686.37 1842.03,1686.37 1844.28,1686.37 1846.53,1686.37 1848.78,1686.37 1851.03,1686.37 1853.28,1686.37 1855.53,1686.37 1857.78,1686.37 1860.03,1686.37 1862.28,1686.37 1864.53,1686.37 1866.78,1686.37 1869.03,1686.37 1871.28,1686.37 1873.53,1686.37 1875.78,1686.37 1878.03,1686.37 1880.28,1686.37 1882.53,1686.37 1884.78,1686.37 1887.02,1686.37 1889.27,1686.37 1891.52,1686.37 1893.77,1686.37 1896.02,1686.37 1898.27,1686.37 1900.52,1686.37 1902.77,1686.37 1905.02,1686.37 1907.27,1686.37 1909.52,1686.37 1911.77,1686.37 1914.02,1686.37 1916.27,1686.37 1918.52,1686.37 1920.77,1686.37 1923.02,1686.37 1925.27,1686.37 1927.52,1686.37 1929.77,1686.37 1932.02,1686.37 1934.27,1686.37 1936.52,1686.37 1938.77,1686.37 1941.02,1686.37 1943.27,1686.37 1945.52,1686.37 1947.77,1686.37 1950.02,1686.37 1952.27,1686.37 1954.52,1686.37 1956.77,1686.37 1959.02,1686.37 1961.27,1686.37 1963.52,1686.37 1965.77,1686.37 1968.02,1686.37 1970.27,1686.37 1972.52,1686.37 1974.77,1686.37 1977.02,1686.37 1979.27,1686.37 1981.52,1686.37 1983.77,1686.37 1986.02,1686.37 1988.27,1686.37 1990.52,1686.37 1992.77,1686.37 1995.02,1686.37 1997.27,1686.37 1999.52,1686.37 2001.77,1686.37 2004.02,1686.37 2006.27,1686.37 2008.52,1686.37 2010.77,1686.37 2013.02,1686.37 2015.27,1686.37 2017.52,1686.37 2019.77,1686.37 2022.02,1686.37 2024.27,1686.37 2026.52,1686.37 2028.77,1686.37 2031.02,1686.37 2033.27,1686.37 2035.52,1686.37 2037.77,1686.38 2040.02,1686.38 2042.27,1686.38 2044.52,1686.38 2046.77,1686.38 2049.02,1686.38 2051.27,1686.38 2053.52,1686.38 2055.77,1686.38 2058.02,1686.38 2060.27,1686.38 2062.52,1686.38 2064.77,1686.38 2067.02,1686.38 2069.27,1686.38 2071.52,1686.38 2073.77,1686.38 2076.02,1686.38 2078.27,1686.38 2080.52,1686.38 2082.77,1686.38 2085.02,1686.38 2087.27,1686.38 2089.52,1686.38 2091.77,1686.38 2094.02,1686.38 2096.27,1686.38 2098.52,1686.38 2100.77,1686.38 2103.02,1686.38 2105.27,1686.38 2107.52,1686.38 2109.77,1686.38 2112.02,1686.38 2114.27,1686.38 2116.52,1686.38 2118.77,1686.38 2121.02,1686.38 2123.27,1686.38 2125.52,1686.38 2127.77,1686.38 2130.02,1686.38 2132.27,1686.38 2134.52,1686.38 2136.77,1686.38 2139.02,1686.38 2141.27,1686.38 2143.52,1686.38 2145.77,1686.38 2148.02,1686.38 2150.27,1686.38 2152.52,1686.38 2154.77,1686.38 2157.02,1686.38 2159.27,1686.38 2161.52,1686.38 2163.77,1686.38 2166.02,1686.38 2168.27,1686.38 2170.52,1686.38 2172.77,1686.38 2175.02,1686.38 2177.27,1686.38 2179.52,1686.38 2181.77,1686.38 2184.02,1686.38 2186.27,1686.38 2188.52,1686.38 2190.77,1686.38 2193.02,1686.38 2195.27,1686.38 2197.52,1686.38 2199.77,1686.38 2202.02,1686.38 2204.27,1686.38 2206.52,1686.38 2208.77,1686.38 2211.02,1686.38 2213.27,1686.38 2215.52,1686.38 2217.77,1686.38 2220.02,1686.38 2222.27,1686.38 2224.52,1686.38 2226.77,1686.38 2229.02,1686.38 2231.27,1686.38 2233.52,1686.38 2235.77,1686.38 2238.02,1686.38 2240.27,1686.38 2242.52,1686.38 2244.77,1686.38 2247.02,1686.38 2249.27,1686.38 2251.52,1686.38 2253.77,1686.38 2256.02,1686.38 2258.27,1686.38 2260.52,1686.38 2262.77,1686.38 2265.02,1686.38 2267.27,1686.38 2269.52,1686.38 2271.77,1686.38 2274.02,1686.38 2276.27,1686.38 2278.52,1686.38 2280.77,1686.38 2283.01,1686.38 2285.26,1686.38 2287.51,1686.38 2289.76,1686.38 2292.01,1686.38 2294.26,1686.38 2296.51,1686.38 2298.76,1686.38 2301.01,1686.38 2303.26,1686.38 2305.51,1686.38 2307.76,1686.38 2310.01,1686.38 2312.26,1686.38 2314.51,1686.38 2316.76,1686.38 2319.01,1686.38 2321.26,1686.38 2323.51,1686.38 2325.76,1686.38 2328.01,1686.38 2330.26,1686.38 2332.51,1686.38 2334.76,1686.38 2337.01,1686.38 2339.26,1686.38 2341.51,1686.38 2343.76,1686.38 2346.01,1686.38 2348.26,1686.38 2350.51,1686.38 2352.76,1686.38 2355.01,1686.38 2357.26,1686.38 2359.51,1686.38 2361.76,1686.38 2364.01,1686.38 2366.26,1686.38 2368.51,1686.38 2370.76,1686.38 2373.01,1686.38 2375.26,1686.38 2377.51,1686.38 2379.76,1686.38 2382.01,1686.38 2384.26,1686.38 2386.51,1686.38 2388.76,1686.38 2391.01,1686.38 2393.26,1686.38 2395.51,1686.38 2397.76,1686.38 2400.01,1686.38 2402.26,1686.38 2404.51,1686.38 2406.76,1686.38 2409.01,1686.38 2411.26,1686.38 2413.51,1686.38 2415.76,1686.38 2418.01,1686.38 2420.26,1686.38 2422.51,1686.38 2424.76,1686.38 2427.01,1686.38 2429.26,1686.38 2431.51,1686.38 2433.76,1686.38 2436.01,1686.38 2438.26,1686.38 2440.51,1686.38 2442.76,1686.38 2445.01,1686.38 2447.26,1686.38 2449.51,1686.38 2451.76,1686.38 2454.01,1686.38 2456.26,1686.38 2458.51,1686.38 2460.76,1686.38 2463.01,1686.38 2465.26,1686.38 2467.51,1686.38 2469.76,1686.38 2472.01,1686.38 2474.26,1686.38 2476.51,1686.38 2478.76,1686.38 2481.01,1686.38 2483.26,1686.38 2485.51,1686.38 2487.76,1686.38 2490.01,1686.38 2492.26,1686.38 2494.51,1686.38 2496.76,1686.38 2499.01,1686.38 2501.26,1686.38 2503.51,1686.38 2505.76,1686.38 2508.01,1686.38 2510.26,1686.38 2512.51,1686.38 2514.76,1686.38 2517.01,1686.38 2519.26,1686.38 2521.51,1686.38 2523.76,1686.38 2526.01,1686.38 2528.26,1686.38 2530.51,1686.38 2532.76,1686.38 2535.01,1686.38 2537.26,1686.38 2539.51,1686.38 2541.76,1686.38 2544.01,1686.38 2546.26,1686.38 2548.51,1686.38 2550.76,1686.38 2553.01,1686.38 2555.26,1686.38 2557.51,1686.38 2559.76,1686.38 2562.01,1686.38 2564.26,1686.38 2566.51,1686.38 2568.76,1686.38 2571.01,1686.38 2573.26,1686.38 "/>
<polyline clip-path="url(#clip782)" style="stroke:#3da44d; stroke-linecap:round; stroke-linejoin:round; stroke-width:4; stroke-opacity:1; fill:none" points="323.315,1686.38 325.565,1685.58 327.814,1684.77 330.064,1683.94 332.314,1683.1 334.564,1682.25 336.814,1681.38 339.064,1680.49 341.314,1679.59 343.564,1678.67 345.814,1677.74 348.064,1676.79 350.314,1675.83 352.564,1674.85 354.814,1673.86 357.064,1672.85 359.314,1671.83 361.564,1670.79 363.814,1669.73 366.064,1668.67 368.313,1667.58 370.563,1666.49 372.813,1665.37 375.063,1664.25 377.313,1663.11 379.563,1661.95 381.813,1660.78 384.063,1659.6 386.313,1658.4 388.563,1657.19 390.813,1655.96 393.063,1654.72 395.313,1653.47 397.563,1652.21 399.813,1650.93 402.063,1649.64 404.313,1648.34 406.563,1647.02 408.812,1645.7 411.062,1644.36 413.312,1643.01 415.562,1641.65 417.812,1640.28 420.062,1638.89 422.312,1637.5 424.562,1636.09 426.812,1634.68 429.062,1633.26 431.312,1631.82 433.562,1630.38 435.812,1628.93 438.062,1627.47 440.312,1626 442.562,1624.53 444.812,1623.05 447.061,1621.56 449.311,1620.06 451.561,1618.55 453.811,1617.04 456.061,1615.53 458.311,1614.01 460.561,1612.48 462.811,1610.95 465.061,1609.41 467.311,1607.87 469.561,1606.33 471.811,1604.78 474.061,1603.23 476.311,1601.67 478.561,1600.12 480.811,1598.56 483.061,1597 485.311,1595.43 487.56,1593.87 489.81,1592.31 492.06,1590.74 494.31,1589.18 496.56,1587.61 498.81,1586.05 501.06,1584.48 503.31,1582.92 505.56,1581.36 507.81,1579.8 510.06,1578.25 512.31,1576.69 514.56,1575.14 516.81,1573.59 519.06,1572.05 521.31,1570.51 523.56,1568.97 525.809,1567.44 528.059,1565.91 530.309,1564.39 532.559,1562.87 534.809,1561.36 537.059,1559.85 539.309,1558.35 541.559,1556.86 543.809,1555.37 546.059,1553.89 548.309,1552.42 550.559,1550.95 552.809,1549.49 555.059,1548.04 557.309,1546.6 559.559,1545.16 561.809,1543.73 564.059,1542.31 566.308,1540.9 568.558,1539.5 570.808,1538.11 573.058,1536.73 575.308,1535.36 577.558,1533.99 579.808,1532.64 582.058,1531.3 584.308,1529.96 586.558,1528.64 588.808,1527.33 591.058,1526.02 593.308,1524.73 595.558,1523.45 597.808,1522.18 600.058,1520.92 602.308,1519.67 604.557,1518.43 606.807,1517.21 609.057,1515.99 611.307,1514.79 613.557,1513.6 615.807,1512.42 618.057,1511.25 620.307,1510.09 622.557,1508.94 624.807,1507.81 627.057,1506.69 629.307,1505.57 631.557,1504.47 633.807,1503.39 636.057,1502.31 638.307,1501.25 640.557,1500.2 642.807,1499.16 645.056,1498.13 647.306,1497.11 649.556,1496.11 651.806,1495.11 654.056,1494.13 656.306,1493.16 658.556,1492.2 660.806,1491.26 663.056,1490.32 665.306,1489.4 667.556,1488.49 669.806,1487.59 672.056,1486.7 674.306,1485.82 676.556,1484.96 678.806,1484.1 681.056,1483.26 683.305,1482.43 685.555,1481.61 687.805,1480.8 690.055,1480 692.305,1479.21 694.555,1478.44 696.805,1477.67 699.055,1476.92 701.305,1476.17 703.555,1475.44 705.805,1474.72 708.055,1474 710.305,1473.3 712.555,1472.61 714.805,1471.93 717.055,1471.25 719.305,1470.59 721.555,1469.94 723.804,1469.3 726.054,1468.67 728.304,1468.04 730.554,1467.43 732.804,1466.83 735.054,1466.23 737.304,1465.65 739.554,1465.07 741.804,1464.51 744.054,1463.95 746.304,1463.4 748.554,1462.86 750.804,1462.33 753.054,1461.81 755.304,1461.29 757.554,1460.78 759.804,1460.29 762.053,1459.8 764.303,1459.32 766.553,1458.84 768.803,1458.38 771.053,1457.92 773.303,1457.47 775.553,1457.03 777.803,1456.59 780.053,1456.17 782.303,1455.75 784.553,1455.33 786.803,1454.93 789.053,1454.53 791.303,1454.14 793.553,1453.75 795.803,1453.38 798.053,1453 800.303,1452.64 802.552,1452.28 804.802,1451.93 807.052,1451.58 809.302,1451.25 811.552,1450.91 813.802,1450.58 816.052,1450.26 818.302,1449.95 820.552,1449.64 822.802,1449.33 825.052,1449.04 827.302,1448.74 829.552,1448.46 831.802,1448.17 834.052,1447.9 836.302,1447.63 838.552,1447.36 840.802,1447.1 843.051,1446.84 845.301,1446.59 847.551,1446.34 849.801,1446.1 852.051,1445.86 854.301,1445.63 856.551,1445.4 858.801,1445.18 861.051,1444.96 863.301,1444.74 865.551,1444.53 867.801,1444.32 870.051,1444.12 872.301,1443.92 874.551,1443.72 876.801,1443.53 879.051,1443.35 881.3,1443.16 883.55,1442.98 885.8,1442.8 888.05,1442.63 890.3,1442.46 892.55,1442.3 894.8,1442.13 897.05,1441.97 899.3,1441.82 901.55,1441.66 903.8,1441.51 906.05,1441.37 908.3,1441.22 910.55,1441.08 912.8,1440.94 915.05,1440.81 917.3,1440.67 919.55,1440.54 921.799,1440.42 924.049,1440.29 926.299,1440.17 928.549,1440.05 930.799,1439.93 933.049,1439.82 935.299,1439.71 937.549,1439.6 939.799,1439.49 942.049,1439.38 944.299,1439.28 946.549,1439.18 948.799,1439.08 951.049,1438.99 953.299,1438.89 955.549,1438.8 957.799,1438.71 960.048,1438.62 962.298,1438.53 964.548,1438.45 966.798,1438.36 969.048,1438.28 971.298,1438.2 973.548,1438.13 975.798,1438.05 978.048,1437.98 980.298,1437.9 982.548,1437.83 984.798,1437.76 987.048,1437.69 989.298,1437.63 991.548,1437.56 993.798,1437.5 996.048,1437.44 998.298,1437.38 1000.55,1437.32 1002.8,1437.26 1005.05,1437.2 1007.3,1437.14 1009.55,1437.09 1011.8,1437.04 1014.05,1436.98 1016.3,1436.93 1018.55,1436.88 1020.8,1436.84 1023.05,1436.79 1025.3,1436.74 1027.55,1436.7 1029.8,1436.65 1032.05,1436.61 1034.3,1436.57 1036.55,1436.52 1038.8,1436.48 1041.05,1436.44 1043.3,1436.41 1045.55,1436.37 1047.8,1436.33 1050.05,1436.3 1052.3,1436.26 1054.55,1436.23 1056.8,1436.19 1059.05,1436.16 1061.3,1436.13 1063.55,1436.1 1065.8,1436.06 1068.05,1436.03 1070.3,1436.01 1072.55,1435.98 1074.8,1435.95 1077.05,1435.92 1079.3,1435.9 1081.55,1435.87 1083.8,1435.84 1086.05,1435.82 1088.3,1435.8 1090.55,1435.77 1092.8,1435.75 1095.05,1435.73 1097.3,1435.7 1099.54,1435.68 1101.79,1435.66 1104.04,1435.64 1106.29,1435.62 1108.54,1435.6 1110.79,1435.58 1113.04,1435.56 1115.29,1435.55 1117.54,1435.53 1119.79,1435.51 1122.04,1435.49 1124.29,1435.48 1126.54,1435.46 1128.79,1435.45 1131.04,1435.43 1133.29,1435.42 1135.54,1435.4 1137.79,1435.39 1140.04,1435.37 1142.29,1435.36 1144.54,1435.35 1146.79,1435.33 1149.04,1435.32 1151.29,1435.31 1153.54,1435.3 1155.79,1435.28 1158.04,1435.27 1160.29,1435.26 1162.54,1435.25 1164.79,1435.24 1167.04,1435.23 1169.29,1435.22 1171.54,1435.21 1173.79,1435.2 1176.04,1435.19 1178.29,1435.18 1180.54,1435.17 1182.79,1435.16 1185.04,1435.16 1187.29,1435.15 1189.54,1435.14 1191.79,1435.13 1194.04,1435.12 1196.29,1435.12 1198.54,1435.11 1200.79,1435.1 1203.04,1435.1 1205.29,1435.09 1207.54,1435.08 1209.79,1435.08 1212.04,1435.07 1214.29,1435.06 1216.54,1435.06 1218.79,1435.05 1221.04,1435.05 1223.29,1435.04 1225.54,1435.03 1227.79,1435.03 1230.04,1435.02 1232.29,1435.02 1234.54,1435.01 1236.79,1435.01 1239.04,1435.01 1241.29,1435 1243.54,1435 1245.79,1434.99 1248.04,1434.99 1250.29,1434.98 1252.54,1434.98 1254.79,1434.98 1257.04,1434.97 1259.29,1434.97 1261.54,1434.97 1263.79,1434.96 1266.04,1434.96 1268.29,1434.95 1270.54,1434.95 1272.79,1434.95 1275.04,1434.95 1277.29,1434.94 1279.54,1434.94 1281.79,1434.94 1284.04,1434.93 1286.29,1434.93 1288.54,1434.93 1290.79,1434.93 1293.04,1434.92 1295.29,1434.92 1297.54,1434.92 1299.79,1434.92 1302.04,1434.91 1304.29,1434.91 1306.54,1434.91 1308.79,1434.91 1311.04,1434.91 1313.29,1434.9 1315.54,1434.9 1317.79,1434.9 1320.04,1434.9 1322.29,1434.9 1324.54,1434.89 1326.79,1434.89 1329.04,1434.89 1331.29,1434.89 1333.54,1434.89 1335.79,1434.89 1338.04,1434.89 1340.29,1434.88 1342.54,1434.88 1344.79,1434.88 1347.04,1434.88 1349.29,1434.88 1351.54,1434.88 1353.79,1434.88 1356.04,1434.88 1358.29,1434.87 1360.54,1434.87 1362.79,1434.87 1365.04,1434.87 1367.29,1434.87 1369.54,1434.87 1371.79,1434.87 1374.04,1434.87 1376.29,1434.87 1378.54,1434.86 1380.79,1434.86 1383.04,1434.86 1385.29,1434.86 1387.54,1434.86 1389.79,1434.86 1392.04,1434.86 1394.29,1434.86 1396.54,1434.86 1398.79,1434.86 1401.04,1434.86 1403.29,1434.86 1405.54,1434.86 1407.79,1434.85 1410.04,1434.85 1412.29,1434.85 1414.54,1434.85 1416.79,1434.85 1419.04,1434.85 1421.29,1434.85 1423.54,1434.85 1425.79,1434.85 1428.04,1434.85 1430.29,1434.85 1432.54,1434.85 1434.79,1434.85 1437.04,1434.85 1439.29,1434.85 1441.54,1434.85 1443.79,1434.85 1446.04,1434.85 1448.29,1434.85 1450.54,1434.85 1452.79,1434.85 1455.04,1434.84 1457.29,1434.84 1459.54,1434.84 1461.79,1434.84 1464.04,1434.84 1466.29,1434.84 1468.54,1434.84 1470.79,1434.84 1473.04,1434.84 1475.29,1434.84 1477.54,1434.84 1479.79,1434.84 1482.04,1434.84 1484.29,1434.84 1486.54,1434.84 1488.79,1434.84 1491.04,1434.84 1493.28,1434.84 1495.53,1434.84 1497.78,1434.84 1500.03,1434.84 1502.28,1434.84 1504.53,1434.84 1506.78,1434.84 1509.03,1434.84 1511.28,1434.84 1513.53,1434.84 1515.78,1434.84 1518.03,1434.84 1520.28,1434.84 1522.53,1434.84 1524.78,1434.84 1527.03,1434.84 1529.28,1434.84 1531.53,1434.84 1533.78,1434.84 1536.03,1434.84 1538.28,1434.84 1540.53,1434.84 1542.78,1434.84 1545.03,1434.84 1547.28,1434.84 1549.53,1434.84 1551.78,1434.84 1554.03,1434.84 1556.28,1434.84 1558.53,1434.84 1560.78,1434.84 1563.03,1434.84 1565.28,1434.84 1567.53,1434.83 1569.78,1434.83 1572.03,1434.83 1574.28,1434.83 1576.53,1434.83 1578.78,1434.83 1581.03,1434.83 1583.28,1434.83 1585.53,1434.83 1587.78,1434.83 1590.03,1434.83 1592.28,1434.83 1594.53,1434.83 1596.78,1434.83 1599.03,1434.83 1601.28,1434.83 1603.53,1434.83 1605.78,1434.83 1608.03,1434.83 1610.28,1434.83 1612.53,1434.83 1614.78,1434.83 1617.03,1434.83 1619.28,1434.83 1621.53,1434.83 1623.78,1434.83 1626.03,1434.83 1628.28,1434.83 1630.53,1434.83 1632.78,1434.83 1635.03,1434.83 1637.28,1434.83 1639.53,1434.83 1641.78,1434.83 1644.03,1434.83 1646.28,1434.83 1648.53,1434.83 1650.78,1434.83 1653.03,1434.83 1655.28,1434.83 1657.53,1434.83 1659.78,1434.83 1662.03,1434.83 1664.28,1434.83 1666.53,1434.83 1668.78,1434.83 1671.03,1434.83 1673.28,1434.83 1675.53,1434.83 1677.78,1434.83 1680.03,1434.83 1682.28,1434.83 1684.53,1434.83 1686.78,1434.83 1689.03,1434.83 1691.28,1434.83 1693.53,1434.83 1695.78,1434.83 1698.03,1434.83 1700.28,1434.83 1702.53,1434.83 1704.78,1434.83 1707.03,1434.83 1709.28,1434.83 1711.53,1434.83 1713.78,1434.83 1716.03,1434.83 1718.28,1434.83 1720.53,1434.83 1722.78,1434.83 1725.03,1434.83 1727.28,1434.83 1729.53,1434.83 1731.78,1434.83 1734.03,1434.83 1736.28,1434.83 1738.53,1434.83 1740.78,1434.83 1743.03,1434.83 1745.28,1434.83 1747.53,1434.83 1749.78,1434.83 1752.03,1434.83 1754.28,1434.83 1756.53,1434.83 1758.78,1434.83 1761.03,1434.83 1763.28,1434.83 1765.53,1434.83 1767.78,1434.83 1770.03,1434.83 1772.28,1434.83 1774.53,1434.83 1776.78,1434.83 1779.03,1434.83 1781.28,1434.83 1783.53,1434.83 1785.78,1434.83 1788.03,1434.83 1790.28,1434.83 1792.53,1434.83 1794.78,1434.83 1797.03,1434.83 1799.28,1434.83 1801.53,1434.83 1803.78,1434.83 1806.03,1434.83 1808.28,1434.83 1810.53,1434.83 1812.78,1434.83 1815.03,1434.83 1817.28,1434.83 1819.53,1434.83 1821.78,1434.83 1824.03,1434.83 1826.28,1434.83 1828.53,1434.83 1830.78,1434.83 1833.03,1434.83 1835.28,1434.83 1837.53,1434.83 1839.78,1434.83 1842.03,1434.83 1844.28,1434.83 1846.53,1434.83 1848.78,1434.83 1851.03,1434.83 1853.28,1434.83 1855.53,1434.83 1857.78,1434.83 1860.03,1434.83 1862.28,1434.83 1864.53,1434.83 1866.78,1434.83 1869.03,1434.83 1871.28,1434.83 1873.53,1434.83 1875.78,1434.83 1878.03,1434.83 1880.28,1434.83 1882.53,1434.83 1884.78,1434.83 1887.02,1434.83 1889.27,1434.83 1891.52,1434.83 1893.77,1434.83 1896.02,1434.83 1898.27,1434.83 1900.52,1434.83 1902.77,1434.83 1905.02,1434.83 1907.27,1434.83 1909.52,1434.83 1911.77,1434.83 1914.02,1434.83 1916.27,1434.83 1918.52,1434.83 1920.77,1434.83 1923.02,1434.83 1925.27,1434.83 1927.52,1434.83 1929.77,1434.83 1932.02,1434.83 1934.27,1434.83 1936.52,1434.83 1938.77,1434.83 1941.02,1434.83 1943.27,1434.83 1945.52,1434.83 1947.77,1434.83 1950.02,1434.83 1952.27,1434.83 1954.52,1434.83 1956.77,1434.83 1959.02,1434.83 1961.27,1434.83 1963.52,1434.83 1965.77,1434.83 1968.02,1434.83 1970.27,1434.83 1972.52,1434.83 1974.77,1434.83 1977.02,1434.83 1979.27,1434.83 1981.52,1434.83 1983.77,1434.83 1986.02,1434.83 1988.27,1434.83 1990.52,1434.83 1992.77,1434.83 1995.02,1434.83 1997.27,1434.83 1999.52,1434.83 2001.77,1434.83 2004.02,1434.83 2006.27,1434.83 2008.52,1434.83 2010.77,1434.83 2013.02,1434.83 2015.27,1434.83 2017.52,1434.83 2019.77,1434.83 2022.02,1434.83 2024.27,1434.83 2026.52,1434.83 2028.77,1434.83 2031.02,1434.83 2033.27,1434.83 2035.52,1434.83 2037.77,1434.83 2040.02,1434.83 2042.27,1434.83 2044.52,1434.83 2046.77,1434.83 2049.02,1434.83 2051.27,1434.83 2053.52,1434.83 2055.77,1434.83 2058.02,1434.83 2060.27,1434.83 2062.52,1434.83 2064.77,1434.83 2067.02,1434.83 2069.27,1434.83 2071.52,1434.83 2073.77,1434.83 2076.02,1434.83 2078.27,1434.83 2080.52,1434.83 2082.77,1434.83 2085.02,1434.83 2087.27,1434.83 2089.52,1434.83 2091.77,1434.83 2094.02,1434.83 2096.27,1434.83 2098.52,1434.83 2100.77,1434.83 2103.02,1434.83 2105.27,1434.83 2107.52,1434.83 2109.77,1434.83 2112.02,1434.83 2114.27,1434.83 2116.52,1434.83 2118.77,1434.83 2121.02,1434.83 2123.27,1434.83 2125.52,1434.83 2127.77,1434.83 2130.02,1434.83 2132.27,1434.83 2134.52,1434.83 2136.77,1434.83 2139.02,1434.83 2141.27,1434.83 2143.52,1434.83 2145.77,1434.83 2148.02,1434.83 2150.27,1434.83 2152.52,1434.83 2154.77,1434.83 2157.02,1434.83 2159.27,1434.83 2161.52,1434.83 2163.77,1434.83 2166.02,1434.83 2168.27,1434.83 2170.52,1434.83 2172.77,1434.83 2175.02,1434.83 2177.27,1434.83 2179.52,1434.83 2181.77,1434.83 2184.02,1434.83 2186.27,1434.83 2188.52,1434.83 2190.77,1434.83 2193.02,1434.83 2195.27,1434.83 2197.52,1434.83 2199.77,1434.83 2202.02,1434.83 2204.27,1434.83 2206.52,1434.83 2208.77,1434.83 2211.02,1434.83 2213.27,1434.83 2215.52,1434.83 2217.77,1434.83 2220.02,1434.83 2222.27,1434.83 2224.52,1434.83 2226.77,1434.83 2229.02,1434.83 2231.27,1434.83 2233.52,1434.83 2235.77,1434.83 2238.02,1434.83 2240.27,1434.83 2242.52,1434.83 2244.77,1434.83 2247.02,1434.83 2249.27,1434.83 2251.52,1434.83 2253.77,1434.83 2256.02,1434.83 2258.27,1434.83 2260.52,1434.83 2262.77,1434.83 2265.02,1434.83 2267.27,1434.83 2269.52,1434.83 2271.77,1434.83 2274.02,1434.83 2276.27,1434.83 2278.52,1434.83 2280.77,1434.83 2283.01,1434.83 2285.26,1434.83 2287.51,1434.83 2289.76,1434.83 2292.01,1434.83 2294.26,1434.83 2296.51,1434.83 2298.76,1434.83 2301.01,1434.83 2303.26,1434.83 2305.51,1434.83 2307.76,1434.83 2310.01,1434.83 2312.26,1434.83 2314.51,1434.83 2316.76,1434.83 2319.01,1434.83 2321.26,1434.83 2323.51,1434.83 2325.76,1434.83 2328.01,1434.83 2330.26,1434.83 2332.51,1434.83 2334.76,1434.83 2337.01,1434.83 2339.26,1434.83 2341.51,1434.83 2343.76,1434.83 2346.01,1434.83 2348.26,1434.83 2350.51,1434.83 2352.76,1434.83 2355.01,1434.83 2357.26,1434.83 2359.51,1434.83 2361.76,1434.83 2364.01,1434.83 2366.26,1434.83 2368.51,1434.83 2370.76,1434.83 2373.01,1434.83 2375.26,1434.83 2377.51,1434.83 2379.76,1434.83 2382.01,1434.83 2384.26,1434.83 2386.51,1434.83 2388.76,1434.83 2391.01,1434.83 2393.26,1434.83 2395.51,1434.83 2397.76,1434.83 2400.01,1434.83 2402.26,1434.83 2404.51,1434.83 2406.76,1434.83 2409.01,1434.83 2411.26,1434.83 2413.51,1434.83 2415.76,1434.83 2418.01,1434.83 2420.26,1434.83 2422.51,1434.83 2424.76,1434.83 2427.01,1434.83 2429.26,1434.83 2431.51,1434.83 2433.76,1434.83 2436.01,1434.83 2438.26,1434.83 2440.51,1434.83 2442.76,1434.83 2445.01,1434.83 2447.26,1434.83 2449.51,1434.83 2451.76,1434.83 2454.01,1434.83 2456.26,1434.83 2458.51,1434.83 2460.76,1434.83 2463.01,1434.83 2465.26,1434.83 2467.51,1434.83 2469.76,1434.83 2472.01,1434.83 2474.26,1434.83 2476.51,1434.83 2478.76,1434.83 2481.01,1434.83 2483.26,1434.83 2485.51,1434.83 2487.76,1434.83 2490.01,1434.83 2492.26,1434.83 2494.51,1434.83 2496.76,1434.83 2499.01,1434.83 2501.26,1434.83 2503.51,1434.83 2505.76,1434.83 2508.01,1434.83 2510.26,1434.83 2512.51,1434.83 2514.76,1434.83 2517.01,1434.83 2519.26,1434.83 2521.51,1434.83 2523.76,1434.83 2526.01,1434.83 2528.26,1434.83 2530.51,1434.83 2532.76,1434.83 2535.01,1434.83 2537.26,1434.83 2539.51,1434.83 2541.76,1434.83 2544.01,1434.83 2546.26,1434.83 2548.51,1434.83 2550.76,1434.83 2553.01,1434.83 2555.26,1434.83 2557.51,1434.83 2559.76,1434.83 2562.01,1434.83 2564.26,1434.83 2566.51,1434.83 2568.76,1434.83 2571.01,1434.83 2573.26,1434.83 "/>
<polyline clip-path="url(#clip782)" style="stroke:#c271d2; stroke-linecap:round; stroke-linejoin:round; stroke-width:4; stroke-opacity:1; fill:none" points="323.315,1606 325.565,1606 327.814,1606 330.064,1606 332.314,1606 334.564,1606 336.814,1606 339.064,1606 341.314,1606 343.564,1606 345.814,1606 348.064,1606 350.314,1606 352.564,1606 354.814,1606 357.064,1606 359.314,1606 361.564,1606 363.814,1606 366.064,1606 368.313,1606 370.563,1606 372.813,1606 375.063,1606 377.313,1606 379.563,1606 381.813,1606 384.063,1606 386.313,1606 388.563,1606 390.813,1606 393.063,1606 395.313,1606 397.563,1606 399.813,1606 402.063,1606 404.313,1606 406.563,1606 408.812,1606 411.062,1606 413.312,1606 415.562,1606 417.812,1606 420.062,1606 422.312,1606 424.562,1606 426.812,1606 429.062,1606 431.312,1606 433.562,1606 435.812,1606 438.062,1606 440.312,1606 442.562,1606 444.812,1606 447.061,1606 449.311,1606 451.561,1606 453.811,1606 456.061,1606 458.311,1606 460.561,1606 462.811,1606 465.061,1606 467.311,1606 469.561,1606 471.811,1606 474.061,1606 476.311,1606 478.561,1606 480.811,1606 483.061,1606 485.311,1606 487.56,1606 489.81,1606 492.06,1606 494.31,1606 496.56,1606 498.81,1606 501.06,1606 503.31,1606 505.56,1606 507.81,1606 510.06,1606 512.31,1606 514.56,1606 516.81,1606 519.06,1606 521.31,1606 523.56,1606 525.809,1606 528.059,1606 530.309,1606 532.559,1606 534.809,1606 537.059,1606 539.309,1606 541.559,1606 543.809,1606 546.059,1606 548.309,1606 550.559,1606 552.809,1606 555.059,1606 557.309,1606 559.559,1606 561.809,1606 564.059,1606 566.308,1606 568.558,1606 570.808,1606 573.058,1606 575.308,1606 577.558,1606 579.808,1606 582.058,1606 584.308,1606 586.558,1606 588.808,1606 591.058,1606 593.308,1606 595.558,1606 597.808,1606 600.058,1606 602.308,1606 604.557,1606 606.807,1606 609.057,1606 611.307,1606 613.557,1606 615.807,1606 618.057,1606 620.307,1606 622.557,1606 624.807,1606 627.057,1606 629.307,1606 631.557,1606 633.807,1606 636.057,1606 638.307,1606 640.557,1606 642.807,1606 645.056,1606 647.306,1606 649.556,1606 651.806,1606 654.056,1606 656.306,1606 658.556,1606 660.806,1606 663.056,1606 665.306,1606 667.556,1606 669.806,1606 672.056,1606 674.306,1606 676.556,1606 678.806,1606 681.056,1606 683.305,1606 685.555,1606 687.805,1606 690.055,1606 692.305,1606 694.555,1606 696.805,1606 699.055,1606 701.305,1606 703.555,1606 705.805,1606 708.055,1606 710.305,1606 712.555,1606 714.805,1606 717.055,1606 719.305,1606 721.555,1606 723.804,1606 726.054,1606 728.304,1606 730.554,1606 732.804,1606 735.054,1606 737.304,1606 739.554,1606 741.804,1606 744.054,1606 746.304,1606 748.554,1606 750.804,1606 753.054,1606 755.304,1606 757.554,1606 759.804,1606 762.053,1606 764.303,1606 766.553,1606 768.803,1606 771.053,1606 773.303,1606 775.553,1606 777.803,1606 780.053,1606 782.303,1606 784.553,1606 786.803,1606 789.053,1606 791.303,1606 793.553,1606 795.803,1606 798.053,1606 800.303,1606 802.552,1606 804.802,1606 807.052,1606 809.302,1606 811.552,1606 813.802,1606 816.052,1606.01 818.302,1606.01 820.552,1606.01 822.802,1606.01 825.052,1606.01 827.302,1606.01 829.552,1606.01 831.802,1606.01 834.052,1606.01 836.302,1606.01 838.552,1606.01 840.802,1606.01 843.051,1606.01 845.301,1606.01 847.551,1606.01 849.801,1606.01 852.051,1606.01 854.301,1606.01 856.551,1606.01 858.801,1606.01 861.051,1606.01 863.301,1606.01 865.551,1606.01 867.801,1606.01 870.051,1606.01 872.301,1606.01 874.551,1606.01 876.801,1606.01 879.051,1606.01 881.3,1606.01 883.55,1606.01 885.8,1606.01 888.05,1606.01 890.3,1606.01 892.55,1606.01 894.8,1606.01 897.05,1606.01 899.3,1606.01 901.55,1606.01 903.8,1606.01 906.05,1606.01 908.3,1606.01 910.55,1606.01 912.8,1606.01 915.05,1606.01 917.3,1606.01 919.55,1606.01 921.799,1606.01 924.049,1606.01 926.299,1606.01 928.549,1606.01 930.799,1606.01 933.049,1606.01 935.299,1606.01 937.549,1606.01 939.799,1606.01 942.049,1606.01 944.299,1606.01 946.549,1606.01 948.799,1606.01 951.049,1606.01 953.299,1606.01 955.549,1606.01 957.799,1606.02 960.048,1606.02 962.298,1606.02 964.548,1606.02 966.798,1606.02 969.048,1606.02 971.298,1606.02 973.548,1606.02 975.798,1606.02 978.048,1606.02 980.298,1606.02 982.548,1606.02 984.798,1606.02 987.048,1606.02 989.298,1606.02 991.548,1606.02 993.798,1606.02 996.048,1606.02 998.298,1606.02 1000.55,1606.02 1002.8,1606.02 1005.05,1606.02 1007.3,1606.02 1009.55,1606.03 1011.8,1606.03 1014.05,1606.03 1016.3,1606.03 1018.55,1606.03 1020.8,1606.03 1023.05,1606.03 1025.3,1606.03 1027.55,1606.03 1029.8,1606.03 1032.05,1606.03 1034.3,1606.03 1036.55,1606.03 1038.8,1606.03 1041.05,1606.04 1043.3,1606.04 1045.55,1606.04 1047.8,1606.04 1050.05,1606.04 1052.3,1606.04 1054.55,1606.04 1056.8,1606.04 1059.05,1606.04 1061.3,1606.04 1063.55,1606.04 1065.8,1606.05 1068.05,1606.05 1070.3,1606.05 1072.55,1606.05 1074.8,1606.05 1077.05,1606.05 1079.3,1606.05 1081.55,1606.05 1083.8,1606.06 1086.05,1606.06 1088.3,1606.06 1090.55,1606.06 1092.8,1606.06 1095.05,1606.06 1097.3,1606.06 1099.54,1606.07 1101.79,1606.07 1104.04,1606.07 1106.29,1606.07 1108.54,1606.07 1110.79,1606.08 1113.04,1606.08 1115.29,1606.08 1117.54,1606.08 1119.79,1606.08 1122.04,1606.09 1124.29,1606.09 1126.54,1606.09 1128.79,1606.09 1131.04,1606.1 1133.29,1606.1 1135.54,1606.1 1137.79,1606.1 1140.04,1606.11 1142.29,1606.11 1144.54,1606.11 1146.79,1606.11 1149.04,1606.12 1151.29,1606.12 1153.54,1606.12 1155.79,1606.13 1158.04,1606.13 1160.29,1606.13 1162.54,1606.14 1164.79,1606.14 1167.04,1606.14 1169.29,1606.15 1171.54,1606.15 1173.79,1606.16 1176.04,1606.16 1178.29,1606.16 1180.54,1606.17 1182.79,1606.17 1185.04,1606.18 1187.29,1606.18 1189.54,1606.19 1191.79,1606.19 1194.04,1606.2 1196.29,1606.2 1198.54,1606.21 1200.79,1606.21 1203.04,1606.22 1205.29,1606.23 1207.54,1606.23 1209.79,1606.24 1212.04,1606.24 1214.29,1606.25 1216.54,1606.26 1218.79,1606.27 1221.04,1606.27 1223.29,1606.28 1225.54,1606.29 1227.79,1606.3 1230.04,1606.3 1232.29,1606.31 1234.54,1606.32 1236.79,1606.33 1239.04,1606.34 1241.29,1606.35 1243.54,1606.36 1245.79,1606.37 1248.04,1606.38 1250.29,1606.39 1252.54,1606.4 1254.79,1606.41 1257.04,1606.42 1259.29,1606.43 1261.54,1606.44 1263.79,1606.46 1266.04,1606.47 1268.29,1606.48 1270.54,1606.49 1272.79,1606.51 1275.04,1606.52 1277.29,1606.54 1279.54,1606.55 1281.79,1606.57 1284.04,1606.58 1286.29,1606.6 1288.54,1606.62 1290.79,1606.63 1293.04,1606.65 1295.29,1606.67 1297.54,1606.69 1299.79,1606.71 1302.04,1606.73 1304.29,1606.75 1306.54,1606.77 1308.79,1606.79 1311.04,1606.81 1313.29,1606.84 1315.54,1606.86 1317.79,1606.88 1320.04,1606.91 1322.29,1606.93 1324.54,1606.96 1326.79,1606.99 1329.04,1607.02 1331.29,1607.04 1333.54,1607.07 1335.79,1607.1 1338.04,1607.14 1340.29,1607.17 1342.54,1607.2 1344.79,1607.24 1347.04,1607.27 1349.29,1607.31 1351.54,1607.34 1353.79,1607.38 1356.04,1607.42 1358.29,1607.46 1360.54,1607.51 1362.79,1607.55 1365.04,1607.59 1367.29,1607.64 1369.54,1607.69 1371.79,1607.73 1374.04,1607.78 1376.29,1607.84 1378.54,1607.89 1380.79,1607.94 1383.04,1608 1385.29,1608.06 1387.54,1608.12 1389.79,1608.18 1392.04,1608.24 1394.29,1608.31 1396.54,1608.38 1398.79,1608.44 1401.04,1608.52 1403.29,1608.59 1405.54,1608.67 1407.79,1608.74 1410.04,1608.82 1412.29,1608.91 1414.54,1608.99 1416.79,1609.08 1419.04,1609.17 1421.29,1609.27 1423.54,1609.36 1425.79,1609.46 1428.04,1609.56 1430.29,1609.67 1432.54,1609.78 1434.79,1609.89 1437.04,1610.01 1439.29,1610.13 1441.54,1610.25 1443.79,1610.38 1446.04,1610.51 1448.29,1610.64 1450.54,1610.78 1452.79,1610.93 1455.04,1611.08 1457.29,1611.23 1459.54,1611.39 1461.79,1611.55 1464.04,1611.72 1466.29,1611.89 1468.54,1612.07 1470.79,1612.26 1473.04,1612.45 1475.29,1612.65 1477.54,1612.85 1479.79,1613.06 1482.04,1613.28 1484.29,1613.5 1486.54,1613.73 1488.79,1613.97 1491.04,1614.22 1493.28,1614.47 1495.53,1614.73 1497.78,1615 1500.03,1615.28 1502.28,1615.57 1504.53,1615.87 1506.78,1616.18 1509.03,1616.5 1511.28,1616.82 1513.53,1617.16 1515.78,1617.51 1518.03,1617.87 1520.28,1618.24 1522.53,1618.62 1524.78,1619.02 1527.03,1619.43 1529.28,1619.85 1531.53,1620.28 1533.78,1620.72 1536.03,1621.18 1538.28,1621.66 1540.53,1622.14 1542.78,1622.64 1545.03,1623.16 1547.28,1623.69 1549.53,1624.23 1551.78,1624.79 1554.03,1625.36 1556.28,1625.95 1558.53,1626.55 1560.78,1627.16 1563.03,1627.78 1565.28,1628.42 1567.53,1629.07 1569.78,1629.73 1572.03,1630.4 1574.28,1631.08 1576.53,1631.77 1578.78,1632.46 1581.03,1633.17 1583.28,1633.87 1585.53,1634.58 1587.78,1635.3 1590.03,1636.01 1592.28,1636.72 1594.53,1637.43 1596.78,1638.14 1599.03,1638.84 1601.28,1639.54 1603.53,1640.22 1605.78,1640.9 1608.03,1641.57 1610.28,1642.22 1612.53,1642.87 1614.78,1643.5 1617.03,1644.11 1619.28,1644.71 1621.53,1645.3 1623.78,1645.87 1626.03,1646.42 1628.28,1646.96 1630.53,1647.48 1632.78,1647.98 1635.03,1648.47 1637.28,1648.94 1639.53,1649.4 1641.78,1649.84 1644.03,1650.26 1646.28,1650.67 1648.53,1651.07 1650.78,1651.45 1653.03,1651.81 1655.28,1652.17 1657.53,1652.5 1659.78,1652.83 1662.03,1653.15 1664.28,1653.45 1666.53,1653.74 1668.78,1654.02 1671.03,1654.29 1673.28,1654.54 1675.53,1654.79 1677.78,1655.03 1680.03,1655.26 1682.28,1655.48 1684.53,1655.69 1686.78,1655.9 1689.03,1656.09 1691.28,1656.28 1693.53,1656.46 1695.78,1656.63 1698.03,1656.8 1700.28,1656.96 1702.53,1657.11 1704.78,1657.26 1707.03,1657.4 1709.28,1657.53 1711.53,1657.66 1713.78,1657.79 1716.03,1657.91 1718.28,1658.02 1720.53,1658.13 1722.78,1658.24 1725.03,1658.34 1727.28,1658.44 1729.53,1658.53 1731.78,1658.62 1734.03,1658.7 1736.28,1658.78 1738.53,1658.86 1740.78,1658.93 1743.03,1659 1745.28,1659.07 1747.53,1659.14 1749.78,1659.2 1752.03,1659.26 1754.28,1659.31 1756.53,1659.36 1758.78,1659.42 1761.03,1659.46 1763.28,1659.51 1765.53,1659.55 1767.78,1659.59 1770.03,1659.63 1772.28,1659.67 1774.53,1659.7 1776.78,1659.73 1779.03,1659.76 1781.28,1659.79 1783.53,1659.82 1785.78,1659.84 1788.03,1659.86 1790.28,1659.88 1792.53,1659.9 1794.78,1659.92 1797.03,1659.93 1799.28,1659.95 1801.53,1659.96 1803.78,1659.97 1806.03,1659.98 1808.28,1659.99 1810.53,1660 1812.78,1660 1815.03,1660.01 1817.28,1660.01 1819.53,1660.02 1821.78,1660.02 1824.03,1660.02 1826.28,1660.02 1828.53,1660.01 1830.78,1660.01 1833.03,1660.01 1835.28,1660 1837.53,1659.99 1839.78,1659.99 1842.03,1659.98 1844.28,1659.97 1846.53,1659.96 1848.78,1659.95 1851.03,1659.94 1853.28,1659.93 1855.53,1659.91 1857.78,1659.9 1860.03,1659.88 1862.28,1659.87 1864.53,1659.85 1866.78,1659.84 1869.03,1659.82 1871.28,1659.8 1873.53,1659.78 1875.78,1659.76 1878.03,1659.74 1880.28,1659.72 1882.53,1659.7 1884.78,1659.68 1887.02,1659.66 1889.27,1659.63 1891.52,1659.61 1893.77,1659.59 1896.02,1659.56 1898.27,1659.54 1900.52,1659.51 1902.77,1659.49 1905.02,1659.46 1907.27,1659.43 1909.52,1659.41 1911.77,1659.38 1914.02,1659.35 1916.27,1659.32 1918.52,1659.29 1920.77,1659.27 1923.02,1659.24 1925.27,1659.21 1927.52,1659.18 1929.77,1659.14 1932.02,1659.11 1934.27,1659.08 1936.52,1659.05 1938.77,1659.02 1941.02,1658.99 1943.27,1658.95 1945.52,1658.92 1947.77,1658.89 1950.02,1658.85 1952.27,1658.82 1954.52,1658.79 1956.77,1658.75 1959.02,1658.72 1961.27,1658.68 1963.52,1658.65 1965.77,1658.61 1968.02,1658.57 1970.27,1658.54 1972.52,1658.5 1974.77,1658.47 1977.02,1658.43 1979.27,1658.39 1981.52,1658.36 1983.77,1658.32 1986.02,1658.28 1988.27,1658.24 1990.52,1658.21 1992.77,1658.17 1995.02,1658.13 1997.27,1658.09 1999.52,1658.05 2001.77,1658.01 2004.02,1657.97 2006.27,1657.93 2008.52,1657.9 2010.77,1657.86 2013.02,1657.82 2015.27,1657.78 2017.52,1657.74 2019.77,1657.7 2022.02,1657.66 2024.27,1657.62 2026.52,1657.57 2028.77,1657.53 2031.02,1657.49 2033.27,1657.45 2035.52,1657.41 2037.77,1657.37 2040.02,1657.33 2042.27,1657.29 2044.52,1657.25 2046.77,1657.2 2049.02,1657.16 2051.27,1657.12 2053.52,1657.08 2055.77,1657.04 2058.02,1656.99 2060.27,1656.95 2062.52,1656.91 2064.77,1656.87 2067.02,1656.82 2069.27,1656.78 2071.52,1656.74 2073.77,1656.69 2076.02,1656.65 2078.27,1656.61 2080.52,1656.57 2082.77,1656.52 2085.02,1656.48 2087.27,1656.44 2089.52,1656.39 2091.77,1656.35 2094.02,1656.3 2096.27,1656.26 2098.52,1656.22 2100.77,1656.17 2103.02,1656.13 2105.27,1656.08 2107.52,1656.04 2109.77,1656 2112.02,1655.95 2114.27,1655.91 2116.52,1655.86 2118.77,1655.82 2121.02,1655.77 2123.27,1655.73 2125.52,1655.69 2127.77,1655.64 2130.02,1655.6 2132.27,1655.55 2134.52,1655.51 2136.77,1655.46 2139.02,1655.42 2141.27,1655.37 2143.52,1655.33 2145.77,1655.28 2148.02,1655.24 2150.27,1655.19 2152.52,1655.15 2154.77,1655.1 2157.02,1655.05 2159.27,1655.01 2161.52,1654.96 2163.77,1654.92 2166.02,1654.87 2168.27,1654.83 2170.52,1654.78 2172.77,1654.74 2175.02,1654.69 2177.27,1654.64 2179.52,1654.6 2181.77,1654.55 2184.02,1654.51 2186.27,1654.46 2188.52,1654.41 2190.77,1654.37 2193.02,1654.32 2195.27,1654.28 2197.52,1654.23 2199.77,1654.18 2202.02,1654.14 2204.27,1654.09 2206.52,1654.05 2208.77,1654 2211.02,1653.95 2213.27,1653.91 2215.52,1653.86 2217.77,1653.81 2220.02,1653.77 2222.27,1653.72 2224.52,1653.68 2226.77,1653.63 2229.02,1653.58 2231.27,1653.54 2233.52,1653.49 2235.77,1653.44 2238.02,1653.4 2240.27,1653.35 2242.52,1653.3 2244.77,1653.26 2247.02,1653.21 2249.27,1653.16 2251.52,1653.12 2253.77,1653.07 2256.02,1653.02 2258.27,1652.97 2260.52,1652.93 2262.77,1652.88 2265.02,1652.83 2267.27,1652.79 2269.52,1652.74 2271.77,1652.69 2274.02,1652.65 2276.27,1652.6 2278.52,1652.55 2280.77,1652.5 2283.01,1652.46 2285.26,1652.41 2287.51,1652.36 2289.76,1652.32 2292.01,1652.27 2294.26,1652.22 2296.51,1652.17 2298.76,1652.13 2301.01,1652.08 2303.26,1652.03 2305.51,1651.98 2307.76,1651.94 2310.01,1651.89 2312.26,1651.84 2314.51,1651.79 2316.76,1651.75 2319.01,1651.7 2321.26,1651.65 2323.51,1651.6 2325.76,1651.56 2328.01,1651.51 2330.26,1651.46 2332.51,1651.41 2334.76,1651.36 2337.01,1651.32 2339.26,1651.27 2341.51,1651.22 2343.76,1651.17 2346.01,1651.13 2348.26,1651.08 2350.51,1651.03 2352.76,1650.98 2355.01,1650.93 2357.26,1650.89 2359.51,1650.84 2361.76,1650.79 2364.01,1650.74 2366.26,1650.69 2368.51,1650.65 2370.76,1650.6 2373.01,1650.55 2375.26,1650.5 2377.51,1650.45 2379.76,1650.4 2382.01,1650.36 2384.26,1650.31 2386.51,1650.26 2388.76,1650.21 2391.01,1650.16 2393.26,1650.12 2395.51,1650.07 2397.76,1650.02 2400.01,1649.97 2402.26,1649.92 2404.51,1649.87 2406.76,1649.82 2409.01,1649.78 2411.26,1649.73 2413.51,1649.68 2415.76,1649.63 2418.01,1649.58 2420.26,1649.53 2422.51,1649.48 2424.76,1649.44 2427.01,1649.39 2429.26,1649.34 2431.51,1649.29 2433.76,1649.24 2436.01,1649.19 2438.26,1649.14 2440.51,1649.1 2442.76,1649.05 2445.01,1649 2447.26,1648.95 2449.51,1648.9 2451.76,1648.85 2454.01,1648.8 2456.26,1648.75 2458.51,1648.7 2460.76,1648.66 2463.01,1648.61 2465.26,1648.56 2467.51,1648.51 2469.76,1648.46 2472.01,1648.41 2474.26,1648.36 2476.51,1648.31 2478.76,1648.26 2481.01,1648.21 2483.26,1648.17 2485.51,1648.12 2487.76,1648.07 2490.01,1648.02 2492.26,1647.97 2494.51,1647.92 2496.76,1647.87 2499.01,1647.82 2501.26,1647.77 2503.51,1647.72 2505.76,1647.67 2508.01,1647.62 2510.26,1647.58 2512.51,1647.53 2514.76,1647.48 2517.01,1647.43 2519.26,1647.38 2521.51,1647.33 2523.76,1647.28 2526.01,1647.23 2528.26,1647.18 2530.51,1647.13 2532.76,1647.08 2535.01,1647.03 2537.26,1646.98 2539.51,1646.93 2541.76,1646.89 2544.01,1646.84 2546.26,1646.79 2548.51,1646.74 2550.76,1646.69 2553.01,1646.64 2555.26,1646.59 2557.51,1646.54 2559.76,1646.49 2562.01,1646.44 2564.26,1646.39 2566.51,1646.34 2568.76,1646.29 2571.01,1646.24 2573.26,1646.19 "/>
<path clip-path="url(#clip780)" d="M2043.02 362.673 L2561.26 362.673 L2561.26 103.473 L2043.02 103.473  Z" fill="#ffffff" fill-rule="evenodd" fill-opacity="1"/>
<polyline clip-path="url(#clip780)" style="stroke:#000000; stroke-linecap:round; stroke-linejoin:round; stroke-width:4; stroke-opacity:1; fill:none" points="2043.02,362.673 2561.26,362.673 2561.26,103.473 2043.02,103.473 2043.02,362.673 "/>
<polyline clip-path="url(#clip780)" style="stroke:#009af9; stroke-linecap:round; stroke-linejoin:round; stroke-width:4; stroke-opacity:1; fill:none" points="2069.52,155.313 2228.52,155.313 "/>
<path clip-path="url(#clip780)" d="M2277.26 139.167 L2277.26 143.728 Q2274.6 142.454 2272.24 141.829 Q2269.88 141.204 2267.68 141.204 Q2263.86 141.204 2261.77 142.686 Q2259.71 144.167 2259.71 146.899 Q2259.71 149.191 2261.08 150.371 Q2262.47 151.528 2266.31 152.246 L2269.14 152.825 Q2274.37 153.82 2276.84 156.343 Q2279.34 158.843 2279.34 163.056 Q2279.34 168.079 2275.96 170.672 Q2272.61 173.264 2266.1 173.264 Q2263.65 173.264 2260.87 172.709 Q2258.12 172.153 2255.15 171.065 L2255.15 166.251 Q2258 167.848 2260.73 168.658 Q2263.46 169.468 2266.1 169.468 Q2270.11 169.468 2272.28 167.894 Q2274.46 166.32 2274.46 163.403 Q2274.46 160.857 2272.88 159.422 Q2271.33 157.987 2267.77 157.269 L2264.92 156.714 Q2259.69 155.672 2257.35 153.45 Q2255.01 151.228 2255.01 147.269 Q2255.01 142.686 2258.23 140.047 Q2261.47 137.408 2267.14 137.408 Q2269.57 137.408 2272.1 137.848 Q2274.62 138.288 2277.26 139.167 Z" fill="#000000" fill-rule="nonzero" fill-opacity="1" /><polyline clip-path="url(#clip780)" style="stroke:#e26f46; stroke-linecap:round; stroke-linejoin:round; stroke-width:4; stroke-opacity:1; fill:none" points="2069.52,207.153 2228.52,207.153 "/>
<path clip-path="url(#clip780)" d="M2255.01 189.873 L2259.69 189.873 L2259.69 224.433 L2255.01 224.433 L2255.01 189.873 Z" fill="#000000" fill-rule="nonzero" fill-opacity="1" /><polyline clip-path="url(#clip780)" style="stroke:#3da44d; stroke-linecap:round; stroke-linejoin:round; stroke-width:4; stroke-opacity:1; fill:none" points="2069.52,258.993 2228.52,258.993 "/>
<path clip-path="url(#clip780)" d="M2282.88 244.375 L2282.88 249.306 Q2280.52 247.107 2277.84 246.019 Q2275.18 244.931 2272.17 244.931 Q2266.24 244.931 2263.09 248.565 Q2259.95 252.176 2259.95 259.028 Q2259.95 265.857 2263.09 269.491 Q2266.24 273.102 2272.17 273.102 Q2275.18 273.102 2277.84 272.014 Q2280.52 270.926 2282.88 268.727 L2282.88 273.611 Q2280.43 275.278 2277.68 276.111 Q2274.95 276.944 2271.89 276.944 Q2264.04 276.944 2259.53 272.153 Q2255.01 267.338 2255.01 259.028 Q2255.01 250.695 2259.53 245.903 Q2264.04 241.088 2271.89 241.088 Q2274.99 241.088 2277.72 241.922 Q2280.48 242.732 2282.88 244.375 Z" fill="#000000" fill-rule="nonzero" fill-opacity="1" /><polyline clip-path="url(#clip780)" style="stroke:#c271d2; stroke-linecap:round; stroke-linejoin:round; stroke-width:4; stroke-opacity:1; fill:none" points="2069.52,310.833 2228.52,310.833 "/>
<path clip-path="url(#clip780)" d="M2271.03 296.724 Q2265.94 296.724 2262.93 300.521 Q2259.95 304.317 2259.95 310.868 Q2259.95 317.396 2262.93 321.192 Q2265.94 324.988 2271.03 324.988 Q2276.13 324.988 2279.09 321.192 Q2282.07 317.396 2282.07 310.868 Q2282.07 304.317 2279.09 300.521 Q2276.13 296.724 2271.03 296.724 M2271.03 292.928 Q2278.3 292.928 2282.65 297.812 Q2287.01 302.674 2287.01 310.868 Q2287.01 319.039 2282.65 323.923 Q2278.3 328.784 2271.03 328.784 Q2263.74 328.784 2259.37 323.923 Q2255.01 319.062 2255.01 310.868 Q2255.01 302.674 2259.37 297.812 Q2263.74 292.928 2271.03 292.928 Z" fill="#000000" fill-rule="nonzero" fill-opacity="1" /><path clip-path="url(#clip780)" d="M2298.26 324.224 L2298.26 337.974 L2293.97 337.974 L2293.97 302.187 L2298.26 302.187 L2298.26 306.123 Q2299.6 303.808 2301.63 302.697 Q2303.7 301.562 2306.54 301.562 Q2311.26 301.562 2314.2 305.312 Q2317.17 309.062 2317.17 315.173 Q2317.17 321.285 2314.2 325.035 Q2311.26 328.784 2306.54 328.784 Q2303.7 328.784 2301.63 327.673 Q2299.6 326.539 2298.26 324.224 M2312.75 315.173 Q2312.75 310.474 2310.8 307.812 Q2308.88 305.127 2305.5 305.127 Q2302.12 305.127 2300.18 307.812 Q2298.26 310.474 2298.26 315.173 Q2298.26 319.872 2300.18 322.558 Q2302.12 325.22 2305.5 325.22 Q2308.88 325.22 2310.8 322.558 Q2312.75 319.872 2312.75 315.173 Z" fill="#000000" fill-rule="nonzero" fill-opacity="1" /><path clip-path="url(#clip780)" d="M2328.44 294.826 L2328.44 302.187 L2337.21 302.187 L2337.21 305.498 L2328.44 305.498 L2328.44 319.572 Q2328.44 322.743 2329.3 323.646 Q2330.18 324.548 2332.84 324.548 L2337.21 324.548 L2337.21 328.113 L2332.84 328.113 Q2327.91 328.113 2326.03 326.284 Q2324.16 324.433 2324.16 319.572 L2324.16 305.498 L2321.03 305.498 L2321.03 302.187 L2324.16 302.187 L2324.16 294.826 L2328.44 294.826 Z" fill="#000000" fill-rule="nonzero" fill-opacity="1" /><path clip-path="url(#clip780)" d="M2342.82 302.187 L2347.07 302.187 L2347.07 328.113 L2342.82 328.113 L2342.82 302.187 M2342.82 292.095 L2347.07 292.095 L2347.07 297.488 L2342.82 297.488 L2342.82 292.095 Z" fill="#000000" fill-rule="nonzero" fill-opacity="1" /><path clip-path="url(#clip780)" d="M2376.17 307.164 Q2377.77 304.294 2379.99 302.928 Q2382.21 301.562 2385.22 301.562 Q2389.27 301.562 2391.47 304.41 Q2393.67 307.234 2393.67 312.465 L2393.67 328.113 L2389.39 328.113 L2389.39 312.604 Q2389.39 308.877 2388.07 307.072 Q2386.75 305.266 2384.04 305.266 Q2380.73 305.266 2378.81 307.465 Q2376.89 309.664 2376.89 313.46 L2376.89 328.113 L2372.61 328.113 L2372.61 312.604 Q2372.61 308.854 2371.29 307.072 Q2369.97 305.266 2367.21 305.266 Q2363.95 305.266 2362.03 307.488 Q2360.11 309.687 2360.11 313.46 L2360.11 328.113 L2355.82 328.113 L2355.82 302.187 L2360.11 302.187 L2360.11 306.215 Q2361.57 303.831 2363.6 302.697 Q2365.64 301.562 2368.44 301.562 Q2371.26 301.562 2373.23 302.998 Q2375.22 304.433 2376.17 307.164 Z" fill="#000000" fill-rule="nonzero" fill-opacity="1" /><path clip-path="url(#clip780)" d="M2402.17 302.187 L2406.43 302.187 L2406.43 328.113 L2402.17 328.113 L2402.17 302.187 M2402.17 292.095 L2406.43 292.095 L2406.43 297.488 L2402.17 297.488 L2402.17 292.095 Z" fill="#000000" fill-rule="nonzero" fill-opacity="1" /><path clip-path="url(#clip780)" d="M2413.49 302.187 L2433.72 302.187 L2433.72 306.076 L2417.7 324.71 L2433.72 324.71 L2433.72 328.113 L2412.91 328.113 L2412.91 324.224 L2428.93 305.59 L2413.49 305.59 L2413.49 302.187 Z" fill="#000000" fill-rule="nonzero" fill-opacity="1" /><path clip-path="url(#clip780)" d="M2462.4 314.085 L2462.4 316.169 L2442.81 316.169 Q2443.09 320.567 2445.45 322.882 Q2447.84 325.173 2452.07 325.173 Q2454.53 325.173 2456.82 324.572 Q2459.13 323.97 2461.4 322.766 L2461.4 326.794 Q2459.11 327.766 2456.7 328.275 Q2454.3 328.784 2451.82 328.784 Q2445.62 328.784 2441.98 325.173 Q2438.37 321.562 2438.37 315.405 Q2438.37 309.039 2441.8 305.312 Q2445.25 301.562 2451.08 301.562 Q2456.31 301.562 2459.34 304.942 Q2462.4 308.298 2462.4 314.085 M2458.14 312.835 Q2458.09 309.34 2456.17 307.257 Q2454.27 305.173 2451.12 305.173 Q2447.56 305.173 2445.41 307.187 Q2443.28 309.201 2442.95 312.859 L2458.14 312.835 Z" fill="#000000" fill-rule="nonzero" fill-opacity="1" /><path clip-path="url(#clip780)" d="M2486.45 306.123 L2486.45 292.095 L2490.71 292.095 L2490.71 328.113 L2486.45 328.113 L2486.45 324.224 Q2485.11 326.539 2483.05 327.673 Q2481.01 328.784 2478.14 328.784 Q2473.44 328.784 2470.48 325.035 Q2467.54 321.285 2467.54 315.173 Q2467.54 309.062 2470.48 305.312 Q2473.44 301.562 2478.14 301.562 Q2481.01 301.562 2483.05 302.697 Q2485.11 303.808 2486.45 306.123 M2471.93 315.173 Q2471.93 319.872 2473.86 322.558 Q2475.8 325.22 2479.18 325.22 Q2482.56 325.22 2484.5 322.558 Q2486.45 319.872 2486.45 315.173 Q2486.45 310.474 2484.5 307.812 Q2482.56 305.127 2479.18 305.127 Q2475.8 305.127 2473.86 307.812 Q2471.93 310.474 2471.93 315.173 Z" fill="#000000" fill-rule="nonzero" fill-opacity="1" /><path clip-path="url(#clip780)" d="M2517.91 302.187 L2517.91 318.97 Q2517.91 322.095 2519.06 323.576 Q2520.34 325.173 2522.81 325.173 Q2526.29 325.173 2528.72 320.359 Q2530.08 317.627 2530.43 313.298 Q2530.62 310.937 2529.92 307.974 Q2529.27 305.22 2526.82 302.187 L2531.12 302.187 L2531.12 302.187 Q2532.74 304.271 2533.79 307.118 Q2534.76 309.78 2534.76 313.345 Q2534.76 319.201 2531.8 323.53 Q2528.18 328.808 2522.3 328.784 Q2518.16 328.784 2515.82 326.007 Q2513.56 323.275 2513.56 318.715 L2513.53 302.187 L2517.91 302.187 Z" fill="#000000" fill-rule="nonzero" fill-opacity="1" /></svg>
