<?xml version="1.0" encoding="utf-8"?>
<svg xmlns="http://www.w3.org/2000/svg" xmlns:xlink="http://www.w3.org/1999/xlink" width="700" height="500" viewBox="0 0 2800 2000">
<defs>
  <clipPath id="clip310">
    <rect x="0" y="0" width="2800" height="2000"/>
  </clipPath>
</defs>
<path clip-path="url(#clip310)" d="M0 2000 L2800 2000 L2800 -4.44089e-14 L0 -4.44089e-14  Z" fill="#ffffff" fill-rule="evenodd" fill-opacity="1"/>
<defs>
  <clipPath id="clip311">
    <rect x="560" y="0" width="1961" height="1961"/>
  </clipPath>
</defs>
<path clip-path="url(#clip310)" d="M271.74 1762.4 L2752.76 1762.4 L2752.76 47.2441 L271.74 47.2441  Z" fill="#ffffff" fill-rule="evenodd" fill-opacity="1"/>
<defs>
  <clipPath id="clip312">
    <rect x="271" y="47" width="2482" height="1716"/>
  </clipPath>
</defs>
<polyline clip-path="url(#clip312)" style="stroke:#000000; stroke-linecap:round; stroke-linejoin:round; stroke-width:2; stroke-opacity:0.1; fill:none" points="271.74,1762.4 271.74,47.2441 "/>
<polyline clip-path="url(#clip312)" style="stroke:#000000; stroke-linecap:round; stroke-linejoin:round; stroke-width:2; stroke-opacity:0.1; fill:none" points="767.943,1762.4 767.943,47.2441 "/>
<polyline clip-path="url(#clip312)" style="stroke:#000000; stroke-linecap:round; stroke-linejoin:round; stroke-width:2; stroke-opacity:0.1; fill:none" points="1264.15,1762.4 1264.15,47.2441 "/>
<polyline clip-path="url(#clip312)" style="stroke:#000000; stroke-linecap:round; stroke-linejoin:round; stroke-width:2; stroke-opacity:0.1; fill:none" points="1760.35,1762.4 1760.35,47.2441 "/>
<polyline clip-path="url(#clip312)" style="stroke:#000000; stroke-linecap:round; stroke-linejoin:round; stroke-width:2; stroke-opacity:0.1; fill:none" points="2256.55,1762.4 2256.55,47.2441 "/>
<polyline clip-path="url(#clip312)" style="stroke:#000000; stroke-linecap:round; stroke-linejoin:round; stroke-width:2; stroke-opacity:0.1; fill:none" points="2752.76,1762.4 2752.76,47.2441 "/>
<polyline clip-path="url(#clip312)" style="stroke:#000000; stroke-linecap:round; stroke-linejoin:round; stroke-width:2; stroke-opacity:0.1; fill:none" points="271.74,1762.4 2752.76,1762.4 "/>
<polyline clip-path="url(#clip312)" style="stroke:#000000; stroke-linecap:round; stroke-linejoin:round; stroke-width:2; stroke-opacity:0.1; fill:none" points="271.74,1190.68 2752.76,1190.68 "/>
<polyline clip-path="url(#clip312)" style="stroke:#000000; stroke-linecap:round; stroke-linejoin:round; stroke-width:2; stroke-opacity:0.1; fill:none" points="271.74,618.964 2752.76,618.964 "/>
<polyline clip-path="url(#clip312)" style="stroke:#000000; stroke-linecap:round; stroke-linejoin:round; stroke-width:2; stroke-opacity:0.1; fill:none" points="271.74,47.2441 2752.76,47.2441 "/>
<polyline clip-path="url(#clip310)" style="stroke:#000000; stroke-linecap:round; stroke-linejoin:round; stroke-width:4; stroke-opacity:1; fill:none" points="271.74,1762.4 2752.76,1762.4 "/>
<polyline clip-path="url(#clip310)" style="stroke:#000000; stroke-linecap:round; stroke-linejoin:round; stroke-width:4; stroke-opacity:1; fill:none" points="271.74,1762.4 271.74,1743.51 "/>
<polyline clip-path="url(#clip310)" style="stroke:#000000; stroke-linecap:round; stroke-linejoin:round; stroke-width:4; stroke-opacity:1; fill:none" points="767.943,1762.4 767.943,1743.51 "/>
<polyline clip-path="url(#clip310)" style="stroke:#000000; stroke-linecap:round; stroke-linejoin:round; stroke-width:4; stroke-opacity:1; fill:none" points="1264.15,1762.4 1264.15,1743.51 "/>
<polyline clip-path="url(#clip310)" style="stroke:#000000; stroke-linecap:round; stroke-linejoin:round; stroke-width:4; stroke-opacity:1; fill:none" points="1760.35,1762.4 1760.35,1743.51 "/>
<polyline clip-path="url(#clip310)" style="stroke:#000000; stroke-linecap:round; stroke-linejoin:round; stroke-width:4; stroke-opacity:1; fill:none" points="2256.55,1762.4 2256.55,1743.51 "/>
<polyline clip-path="url(#clip310)" style="stroke:#000000; stroke-linecap:round; stroke-linejoin:round; stroke-width:4; stroke-opacity:1; fill:none" points="2752.76,1762.4 2752.76,1743.51 "/>
<path clip-path="url(#clip310)" d="M271.74 1805.31 Q265.421 1805.31 262.22 1811.55 Q259.061 1817.75 259.061 1830.22 Q259.061 1842.66 262.22 1848.9 Q265.421 1855.1 271.74 1855.1 Q278.1 1855.1 281.26 1848.9 Q284.46 1842.66 284.46 1830.22 Q284.46 1817.75 281.26 1811.55 Q278.1 1805.31 271.74 1805.31 M271.74 1798.83 Q281.908 1798.83 287.255 1806.89 Q292.643 1814.91 292.643 1830.22 Q292.643 1845.5 287.255 1853.56 Q281.908 1861.58 271.74 1861.58 Q261.572 1861.58 256.185 1853.56 Q250.837 1845.5 250.837 1830.22 Q250.837 1814.91 256.185 1806.89 Q261.572 1798.83 271.74 1798.83 Z" fill="#000000" fill-rule="nonzero" fill-opacity="1" /><path clip-path="url(#clip310)" d="M750.929 1799.92 L783.053 1799.92 L783.053 1806.81 L758.424 1806.81 L758.424 1821.64 Q760.206 1821.03 761.988 1820.74 Q763.771 1820.42 765.553 1820.42 Q775.68 1820.42 781.595 1825.97 Q787.509 1831.52 787.509 1841 Q787.509 1850.76 781.433 1856.19 Q775.356 1861.58 764.297 1861.58 Q760.49 1861.58 756.52 1860.93 Q752.59 1860.28 748.377 1858.98 L748.377 1850.76 Q752.023 1852.75 755.912 1853.72 Q759.801 1854.69 764.135 1854.69 Q771.143 1854.69 775.235 1851 Q779.326 1847.32 779.326 1841 Q779.326 1834.68 775.235 1830.99 Q771.143 1827.31 764.135 1827.31 Q760.854 1827.31 757.573 1828.04 Q754.332 1828.77 750.929 1830.3 L750.929 1799.92 Z" fill="#000000" fill-rule="nonzero" fill-opacity="1" /><path clip-path="url(#clip310)" d="M1219.85 1853.52 L1233.22 1853.52 L1233.22 1807.38 L1218.68 1810.29 L1218.68 1802.84 L1233.14 1799.92 L1241.32 1799.92 L1241.32 1853.52 L1254.69 1853.52 L1254.69 1860.4 L1219.85 1860.4 L1219.85 1853.52 Z" fill="#000000" fill-rule="nonzero" fill-opacity="1" /><path clip-path="url(#clip310)" d="M1288.72 1805.31 Q1282.4 1805.31 1279.2 1811.55 Q1276.04 1817.75 1276.04 1830.22 Q1276.04 1842.66 1279.2 1848.9 Q1282.4 1855.1 1288.72 1855.1 Q1295.08 1855.1 1298.23 1848.9 Q1301.43 1842.66 1301.43 1830.22 Q1301.43 1817.75 1298.23 1811.55 Q1295.08 1805.31 1288.72 1805.31 M1288.72 1798.83 Q1298.88 1798.83 1304.23 1806.89 Q1309.62 1814.91 1309.62 1830.22 Q1309.62 1845.5 1304.23 1853.56 Q1298.88 1861.58 1288.72 1861.58 Q1278.55 1861.58 1273.16 1853.56 Q1267.81 1845.5 1267.81 1830.22 Q1267.81 1814.91 1273.16 1806.89 Q1278.55 1798.83 1288.72 1798.83 Z" fill="#000000" fill-rule="nonzero" fill-opacity="1" /><path clip-path="url(#clip310)" d="M1716.92 1853.52 L1730.29 1853.52 L1730.29 1807.38 L1715.75 1810.29 L1715.75 1802.84 L1730.21 1799.92 L1738.39 1799.92 L1738.39 1853.52 L1751.76 1853.52 L1751.76 1860.4 L1716.92 1860.4 L1716.92 1853.52 Z" fill="#000000" fill-rule="nonzero" fill-opacity="1" /><path clip-path="url(#clip310)" d="M1768.37 1799.92 L1800.49 1799.92 L1800.49 1806.81 L1775.86 1806.81 L1775.86 1821.64 Q1777.65 1821.03 1779.43 1820.74 Q1781.21 1820.42 1782.99 1820.42 Q1793.12 1820.42 1799.04 1825.97 Q1804.95 1831.52 1804.95 1841 Q1804.95 1850.76 1798.87 1856.19 Q1792.8 1861.58 1781.74 1861.58 Q1777.93 1861.58 1773.96 1860.93 Q1770.03 1860.28 1765.82 1858.98 L1765.82 1850.76 Q1769.46 1852.75 1773.35 1853.72 Q1777.24 1854.69 1781.58 1854.69 Q1788.58 1854.69 1792.68 1851 Q1796.77 1847.32 1796.77 1841 Q1796.77 1834.68 1792.68 1830.99 Q1788.58 1827.31 1781.58 1827.31 Q1778.3 1827.31 1775.01 1828.04 Q1771.77 1828.77 1768.37 1830.3 L1768.37 1799.92 Z" fill="#000000" fill-rule="nonzero" fill-opacity="1" /><path clip-path="url(#clip310)" d="M2219.41 1853.52 L2247.96 1853.52 L2247.96 1860.4 L2209.56 1860.4 L2209.56 1853.52 Q2214.22 1848.7 2222.24 1840.59 Q2230.3 1832.45 2232.37 1830.1 Q2236.3 1825.69 2237.84 1822.65 Q2239.42 1819.57 2239.42 1816.61 Q2239.42 1811.79 2236.01 1808.75 Q2232.65 1805.72 2227.22 1805.72 Q2223.38 1805.72 2219.08 1807.05 Q2214.83 1808.39 2209.97 1811.1 L2209.97 1802.84 Q2214.91 1800.85 2219.2 1799.84 Q2223.5 1798.83 2227.06 1798.83 Q2236.46 1798.83 2242.05 1803.53 Q2247.64 1808.23 2247.64 1816.09 Q2247.64 1819.81 2246.22 1823.17 Q2244.85 1826.5 2241.16 1831.03 Q2240.15 1832.21 2234.72 1837.84 Q2229.29 1843.43 2219.41 1853.52 Z" fill="#000000" fill-rule="nonzero" fill-opacity="1" /><path clip-path="url(#clip310)" d="M2282.64 1805.31 Q2276.32 1805.31 2273.12 1811.55 Q2269.96 1817.75 2269.96 1830.22 Q2269.96 1842.66 2273.12 1848.9 Q2276.32 1855.1 2282.64 1855.1 Q2289 1855.1 2292.16 1848.9 Q2295.36 1842.66 2295.36 1830.22 Q2295.36 1817.75 2292.16 1811.55 Q2289 1805.31 2282.64 1805.31 M2282.64 1798.83 Q2292.81 1798.83 2298.16 1806.89 Q2303.54 1814.91 2303.54 1830.22 Q2303.54 1845.5 2298.16 1853.56 Q2292.81 1861.58 2282.64 1861.58 Q2272.47 1861.58 2267.09 1853.56 Q2261.74 1845.5 2261.74 1830.22 Q2261.74 1814.91 2267.09 1806.89 Q2272.47 1798.83 2282.64 1798.83 Z" fill="#000000" fill-rule="nonzero" fill-opacity="1" /><path clip-path="url(#clip310)" d="M2716.48 1853.52 L2745.04 1853.52 L2745.04 1860.4 L2706.64 1860.4 L2706.64 1853.52 Q2711.29 1848.7 2719.32 1840.59 Q2727.38 1832.45 2729.44 1830.1 Q2733.37 1825.69 2734.91 1822.65 Q2736.49 1819.57 2736.49 1816.61 Q2736.49 1811.79 2733.09 1808.75 Q2729.73 1805.72 2724.3 1805.72 Q2720.45 1805.72 2716.16 1807.05 Q2711.9 1808.39 2707.04 1811.1 L2707.04 1802.84 Q2711.98 1800.85 2716.28 1799.84 Q2720.57 1798.83 2724.14 1798.83 Q2733.53 1798.83 2739.12 1803.53 Q2744.71 1808.23 2744.71 1816.09 Q2744.71 1819.81 2743.3 1823.17 Q2741.92 1826.5 2738.23 1831.03 Q2737.22 1832.21 2731.79 1837.84 Q2726.36 1843.43 2716.48 1853.52 Z" fill="#000000" fill-rule="nonzero" fill-opacity="1" /><path clip-path="url(#clip310)" d="M2762.3 1799.92 L2794.42 1799.92 L2794.42 1806.81 L2769.79 1806.81 L2769.79 1821.64 Q2771.57 1821.03 2773.35 1820.74 Q2775.14 1820.42 2776.92 1820.42 Q2787.05 1820.42 2792.96 1825.97 Q2798.88 1831.52 2798.88 1841 Q2798.88 1850.76 2792.8 1856.19 Q2786.72 1861.58 2775.66 1861.58 Q2771.86 1861.58 2767.89 1860.93 Q2763.96 1860.28 2759.74 1858.98 L2759.74 1850.76 Q2763.39 1852.75 2767.28 1853.72 Q2771.17 1854.69 2775.5 1854.69 Q2782.51 1854.69 2786.6 1851 Q2790.69 1847.32 2790.69 1841 Q2790.69 1834.68 2786.6 1830.99 Q2782.51 1827.31 2775.5 1827.31 Q2772.22 1827.31 2768.94 1828.04 Q2765.7 1828.77 2762.3 1830.3 L2762.3 1799.92 Z" fill="#000000" fill-rule="nonzero" fill-opacity="1" /><path clip-path="url(#clip310)" d="M1236.21 1908.95 L1294.68 1908.95 L1294.68 1916.82 L1270.14 1916.82 L1270.14 1978.07 L1260.74 1978.07 L1260.74 1916.82 L1236.21 1916.82 L1236.21 1908.95 Z" fill="#000000" fill-rule="nonzero" fill-opacity="1" /><path clip-path="url(#clip310)" d="M1300.42 1926.22 L1308.94 1926.22 L1308.94 1978.07 L1300.42 1978.07 L1300.42 1926.22 M1300.42 1906.03 L1308.94 1906.03 L1308.94 1916.82 L1300.42 1916.82 L1300.42 1906.03 Z" fill="#000000" fill-rule="nonzero" fill-opacity="1" /><path clip-path="url(#clip310)" d="M1367.13 1936.17 Q1370.33 1930.43 1374.77 1927.7 Q1379.22 1924.97 1385.23 1924.97 Q1393.34 1924.97 1397.73 1930.66 Q1402.13 1936.31 1402.13 1946.77 L1402.13 1978.07 L1393.57 1978.07 L1393.57 1947.05 Q1393.57 1939.59 1390.93 1935.98 Q1388.29 1932.37 1382.87 1932.37 Q1376.25 1932.37 1372.41 1936.77 Q1368.57 1941.17 1368.57 1948.76 L1368.57 1978.07 L1360 1978.07 L1360 1947.05 Q1360 1939.55 1357.36 1935.98 Q1354.73 1932.37 1349.22 1932.37 Q1342.69 1932.37 1338.85 1936.82 Q1335 1941.22 1335 1948.76 L1335 1978.07 L1326.44 1978.07 L1326.44 1926.22 L1335 1926.22 L1335 1934.27 Q1337.92 1929.5 1341.99 1927.23 Q1346.07 1924.97 1351.67 1924.97 Q1357.32 1924.97 1361.25 1927.84 Q1365.23 1930.71 1367.13 1936.17 Z" fill="#000000" fill-rule="nonzero" fill-opacity="1" /><path clip-path="url(#clip310)" d="M1463.48 1950.01 L1463.48 1954.18 L1424.31 1954.18 Q1424.86 1962.97 1429.59 1967.6 Q1434.35 1972.19 1442.83 1972.19 Q1447.73 1972.19 1452.32 1970.98 Q1456.95 1969.78 1461.48 1967.37 L1461.48 1975.43 Q1456.9 1977.37 1452.09 1978.39 Q1447.27 1979.41 1442.32 1979.41 Q1429.91 1979.41 1422.64 1972.19 Q1415.42 1964.96 1415.42 1952.65 Q1415.42 1939.92 1422.27 1932.47 Q1429.17 1924.97 1440.84 1924.97 Q1451.3 1924.97 1457.36 1931.72 Q1463.48 1938.44 1463.48 1950.01 M1454.96 1947.51 Q1454.86 1940.52 1451.02 1936.35 Q1447.23 1932.19 1440.93 1932.19 Q1433.8 1932.19 1429.49 1936.22 Q1425.23 1940.24 1424.59 1947.56 L1454.96 1947.51 Z" fill="#000000" fill-rule="nonzero" fill-opacity="1" /><path clip-path="url(#clip310)" d="M1528.06 1906.12 Q1521.85 1916.77 1518.85 1927.19 Q1515.84 1937.6 1515.84 1948.3 Q1515.84 1958.99 1518.85 1969.5 Q1521.9 1979.96 1528.06 1990.57 L1520.65 1990.57 Q1513.71 1979.69 1510.23 1969.18 Q1506.81 1958.67 1506.81 1948.3 Q1506.81 1937.97 1510.23 1927.51 Q1513.66 1917.05 1520.65 1906.12 L1528.06 1906.12 Z" fill="#000000" fill-rule="nonzero" fill-opacity="1" /><path clip-path="url(#clip310)" d="M1578.71 1934.09 L1578.71 1906.03 L1587.22 1906.03 L1587.22 1978.07 L1578.71 1978.07 L1578.71 1970.29 Q1576.02 1974.92 1571.9 1977.19 Q1567.83 1979.41 1562.09 1979.41 Q1552.69 1979.41 1546.76 1971.91 Q1540.88 1964.41 1540.88 1952.19 Q1540.88 1939.97 1546.76 1932.47 Q1552.69 1924.97 1562.09 1924.97 Q1567.83 1924.97 1571.9 1927.23 Q1576.02 1929.46 1578.71 1934.09 M1549.68 1952.19 Q1549.68 1961.59 1553.52 1966.96 Q1557.41 1972.28 1564.17 1972.28 Q1570.93 1972.28 1574.82 1966.96 Q1578.71 1961.59 1578.71 1952.19 Q1578.71 1942.79 1574.82 1937.47 Q1570.93 1932.09 1564.17 1932.09 Q1557.41 1932.09 1553.52 1937.47 Q1549.68 1942.79 1549.68 1952.19 Z" fill="#000000" fill-rule="nonzero" fill-opacity="1" /><path clip-path="url(#clip310)" d="M1628.34 1952 Q1618.01 1952 1614.03 1954.36 Q1610.05 1956.72 1610.05 1962.42 Q1610.05 1966.96 1613.01 1969.64 Q1616.02 1972.28 1621.16 1972.28 Q1628.24 1972.28 1632.5 1967.28 Q1636.81 1962.23 1636.81 1953.9 L1636.81 1952 L1628.34 1952 M1645.33 1948.48 L1645.33 1978.07 L1636.81 1978.07 L1636.81 1970.2 Q1633.89 1974.92 1629.54 1977.19 Q1625.19 1979.41 1618.89 1979.41 Q1610.93 1979.41 1606.21 1974.96 Q1601.53 1970.47 1601.53 1962.97 Q1601.53 1954.22 1607.36 1949.78 Q1613.24 1945.34 1624.86 1945.34 L1636.81 1945.34 L1636.81 1944.5 Q1636.81 1938.62 1632.92 1935.43 Q1629.08 1932.19 1622.09 1932.19 Q1617.64 1932.19 1613.43 1933.25 Q1609.22 1934.32 1605.33 1936.45 L1605.33 1928.58 Q1610 1926.77 1614.4 1925.89 Q1618.8 1924.97 1622.97 1924.97 Q1634.21 1924.97 1639.77 1930.8 Q1645.33 1936.63 1645.33 1948.48 Z" fill="#000000" fill-rule="nonzero" fill-opacity="1" /><path clip-path="url(#clip310)" d="M1684.45 1982.88 Q1680.84 1992.14 1677.41 1994.96 Q1673.98 1997.79 1668.24 1997.79 L1661.44 1997.79 L1661.44 1990.66 L1666.44 1990.66 Q1669.96 1990.66 1671.9 1988.99 Q1673.84 1987.33 1676.21 1981.12 L1677.73 1977.23 L1656.76 1926.22 L1665.79 1926.22 L1681.99 1966.77 L1698.2 1926.22 L1707.22 1926.22 L1684.45 1982.88 Z" fill="#000000" fill-rule="nonzero" fill-opacity="1" /><path clip-path="url(#clip310)" d="M1752.04 1927.74 L1752.04 1935.8 Q1748.43 1933.95 1744.54 1933.02 Q1740.65 1932.09 1736.48 1932.09 Q1730.14 1932.09 1726.95 1934.04 Q1723.8 1935.98 1723.8 1939.87 Q1723.8 1942.84 1726.07 1944.55 Q1728.33 1946.22 1735.19 1947.74 L1738.1 1948.39 Q1747.18 1950.34 1750.97 1953.9 Q1754.82 1957.42 1754.82 1963.76 Q1754.82 1970.98 1749.08 1975.2 Q1743.38 1979.41 1733.38 1979.41 Q1729.21 1979.41 1724.68 1978.58 Q1720.19 1977.79 1715.19 1976.17 L1715.19 1967.37 Q1719.91 1969.83 1724.49 1971.08 Q1729.08 1972.28 1733.57 1972.28 Q1739.58 1972.28 1742.83 1970.24 Q1746.07 1968.16 1746.07 1964.41 Q1746.07 1960.94 1743.71 1959.09 Q1741.39 1957.23 1733.47 1955.52 L1730.51 1954.83 Q1722.59 1953.16 1719.08 1949.73 Q1715.56 1946.26 1715.56 1940.24 Q1715.56 1932.93 1720.74 1928.95 Q1725.93 1924.97 1735.46 1924.97 Q1740.19 1924.97 1744.35 1925.66 Q1748.52 1926.35 1752.04 1927.74 Z" fill="#000000" fill-rule="nonzero" fill-opacity="1" /><path clip-path="url(#clip310)" d="M1767.04 1906.12 L1774.45 1906.12 Q1781.39 1917.05 1784.82 1927.51 Q1788.29 1937.97 1788.29 1948.3 Q1788.29 1958.67 1784.82 1969.18 Q1781.39 1979.69 1774.45 1990.57 L1767.04 1990.57 Q1773.2 1979.96 1776.2 1969.5 Q1779.26 1958.99 1779.26 1948.3 Q1779.26 1937.6 1776.2 1927.19 Q1773.2 1916.77 1767.04 1906.12 Z" fill="#000000" fill-rule="nonzero" fill-opacity="1" /><polyline clip-path="url(#clip310)" style="stroke:#000000; stroke-linecap:round; stroke-linejoin:round; stroke-width:4; stroke-opacity:1; fill:none" points="271.74,1762.4 271.74,47.2441 "/>
<polyline clip-path="url(#clip310)" style="stroke:#000000; stroke-linecap:round; stroke-linejoin:round; stroke-width:4; stroke-opacity:1; fill:none" points="271.74,1762.4 290.638,1762.4 "/>
<polyline clip-path="url(#clip310)" style="stroke:#000000; stroke-linecap:round; stroke-linejoin:round; stroke-width:4; stroke-opacity:1; fill:none" points="271.74,1190.68 290.638,1190.68 "/>
<polyline clip-path="url(#clip310)" style="stroke:#000000; stroke-linecap:round; stroke-linejoin:round; stroke-width:4; stroke-opacity:1; fill:none" points="271.74,618.964 290.638,618.964 "/>
<polyline clip-path="url(#clip310)" style="stroke:#000000; stroke-linecap:round; stroke-linejoin:round; stroke-width:4; stroke-opacity:1; fill:none" points="271.74,47.2441 290.638,47.2441 "/>
<path clip-path="url(#clip310)" d="M208.837 1737.55 Q202.518 1737.55 199.318 1743.79 Q196.158 1749.99 196.158 1762.46 Q196.158 1774.9 199.318 1781.14 Q202.518 1787.34 208.837 1787.34 Q215.197 1787.34 218.357 1781.14 Q221.557 1774.9 221.557 1762.46 Q221.557 1749.99 218.357 1743.79 Q215.197 1737.55 208.837 1737.55 M208.837 1731.07 Q219.005 1731.07 224.352 1739.13 Q229.74 1747.15 229.74 1762.46 Q229.74 1777.74 224.352 1785.8 Q219.005 1793.82 208.837 1793.82 Q198.67 1793.82 193.282 1785.8 Q187.935 1777.74 187.935 1762.46 Q187.935 1747.15 193.282 1739.13 Q198.67 1731.07 208.837 1731.07 Z" fill="#000000" fill-rule="nonzero" fill-opacity="1" /><path clip-path="url(#clip310)" d="M193.16 1160.44 L225.284 1160.44 L225.284 1167.33 L200.655 1167.33 L200.655 1182.16 Q202.437 1181.55 204.219 1181.26 Q206.002 1180.94 207.784 1180.94 Q217.911 1180.94 223.826 1186.49 Q229.74 1192.04 229.74 1201.52 Q229.74 1211.28 223.664 1216.71 Q217.587 1222.1 206.528 1222.1 Q202.721 1222.1 198.751 1221.45 Q194.821 1220.8 190.608 1219.51 L190.608 1211.28 Q194.254 1213.27 198.143 1214.24 Q202.032 1215.21 206.366 1215.21 Q213.374 1215.21 217.466 1211.53 Q221.557 1207.84 221.557 1201.52 Q221.557 1195.2 217.466 1191.51 Q213.374 1187.83 206.366 1187.83 Q203.085 1187.83 199.804 1188.56 Q196.563 1189.29 193.16 1190.82 L193.16 1160.44 Z" fill="#000000" fill-rule="nonzero" fill-opacity="1" /><path clip-path="url(#clip310)" d="M139.972 642.317 L153.34 642.317 L153.34 596.177 L138.797 599.094 L138.797 591.64 L153.259 588.724 L161.442 588.724 L161.442 642.317 L174.81 642.317 L174.81 649.204 L139.972 649.204 L139.972 642.317 Z" fill="#000000" fill-rule="nonzero" fill-opacity="1" /><path clip-path="url(#clip310)" d="M208.837 594.111 Q202.518 594.111 199.318 600.35 Q196.158 606.548 196.158 619.024 Q196.158 631.461 199.318 637.699 Q202.518 643.897 208.837 643.897 Q215.197 643.897 218.357 637.699 Q221.557 631.461 221.557 619.024 Q221.557 606.548 218.357 600.35 Q215.197 594.111 208.837 594.111 M208.837 587.63 Q219.005 587.63 224.352 595.691 Q229.74 603.712 229.74 619.024 Q229.74 634.296 224.352 642.358 Q219.005 650.378 208.837 650.378 Q198.67 650.378 193.282 642.358 Q187.935 634.296 187.935 619.024 Q187.935 603.712 193.282 595.691 Q198.67 587.63 208.837 587.63 Z" fill="#000000" fill-rule="nonzero" fill-opacity="1" /><path clip-path="url(#clip310)" d="M141.714 70.5976 L155.082 70.5976 L155.082 24.4578 L140.539 27.3744 L140.539 19.9207 L155.001 17.0041 L163.184 17.0041 L163.184 70.5976 L176.552 70.5976 L176.552 77.4841 L141.714 77.4841 L141.714 70.5976 Z" fill="#000000" fill-rule="nonzero" fill-opacity="1" /><path clip-path="url(#clip310)" d="M193.16 17.0041 L225.284 17.0041 L225.284 23.8906 L200.655 23.8906 L200.655 38.7169 Q202.437 38.1093 204.219 37.8257 Q206.002 37.5017 207.784 37.5017 Q217.911 37.5017 223.826 43.0514 Q229.74 48.6011 229.74 58.0803 Q229.74 67.8429 223.664 73.2712 Q217.587 78.6589 206.528 78.6589 Q202.721 78.6589 198.751 78.0107 Q194.821 77.3626 190.608 76.0663 L190.608 67.8429 Q194.254 69.8279 198.143 70.8001 Q202.032 71.7723 206.366 71.7723 Q213.374 71.7723 217.466 68.086 Q221.557 64.3997 221.557 58.0803 Q221.557 51.7609 217.466 48.0745 Q213.374 44.3882 206.366 44.3882 Q203.085 44.3882 199.804 45.1174 Q196.563 45.8465 193.16 47.3859 L193.16 17.0041 Z" fill="#000000" fill-rule="nonzero" fill-opacity="1" /><path clip-path="url(#clip310)" d="M14.6264 1135.86 L40.5985 1135.86 L40.5985 1124.1 Q40.5985 1117.58 37.2189 1114.01 Q33.8393 1110.45 27.5893 1110.45 Q21.3857 1110.45 18.0061 1114.01 Q14.6264 1117.58 14.6264 1124.1 L14.6264 1135.86 M6.9413 1145.22 L6.9413 1124.1 Q6.9413 1112.48 12.219 1106.56 Q17.4505 1100.59 27.5893 1100.59 Q37.8208 1100.59 43.0522 1106.56 Q48.2837 1112.48 48.2837 1124.1 L48.2837 1135.86 L76.0613 1135.86 L76.0613 1145.22 L6.9413 1145.22 Z" fill="#000000" fill-rule="nonzero" fill-opacity="1" /><path clip-path="url(#clip310)" d="M30.1819 1071.7 Q30.1819 1078.55 35.5523 1082.53 Q40.8763 1086.51 50.1818 1086.51 Q59.4873 1086.51 64.8577 1082.58 Q70.1817 1078.6 70.1817 1071.7 Q70.1817 1064.89 64.8114 1060.91 Q59.441 1056.93 50.1818 1056.93 Q40.9689 1056.93 35.5986 1060.91 Q30.1819 1064.89 30.1819 1071.7 M22.9597 1071.7 Q22.9597 1060.59 30.1819 1054.24 Q37.4041 1047.9 50.1818 1047.9 Q62.9132 1047.9 70.1817 1054.24 Q77.4039 1060.59 77.4039 1071.7 Q77.4039 1082.85 70.1817 1089.2 Q62.9132 1095.49 50.1818 1095.49 Q37.4041 1095.49 30.1819 1089.2 Q22.9597 1082.85 22.9597 1071.7 Z" fill="#000000" fill-rule="nonzero" fill-opacity="1" /><path clip-path="url(#clip310)" d="M68.2836 1025.54 L95.7834 1025.54 L95.7834 1034.11 L24.2097 1034.11 L24.2097 1025.54 L32.0801 1025.54 Q27.4504 1022.86 25.2282 1018.78 Q22.9597 1014.66 22.9597 1008.97 Q22.9597 999.522 30.4597 993.642 Q37.9597 987.716 50.1818 987.716 Q62.404 987.716 69.9039 993.642 Q77.4039 999.522 77.4039 1008.97 Q77.4039 1014.66 75.1817 1018.78 Q72.9132 1022.86 68.2836 1025.54 M50.1818 996.559 Q40.7837 996.559 35.4597 1000.45 Q30.0893 1004.29 30.0893 1011.05 Q30.0893 1017.81 35.4597 1021.7 Q40.7837 1025.54 50.1818 1025.54 Q59.5799 1025.54 64.9502 1021.7 Q70.2743 1017.81 70.2743 1011.05 Q70.2743 1004.29 64.9502 1000.45 Q59.5799 996.559 50.1818 996.559 Z" fill="#000000" fill-rule="nonzero" fill-opacity="1" /><path clip-path="url(#clip310)" d="M55.5984 974.476 L24.2097 974.476 L24.2097 965.957 L55.2744 965.957 Q62.6354 965.957 66.3391 963.087 Q69.9965 960.217 69.9965 954.476 Q69.9965 947.578 65.5984 943.596 Q61.2003 939.569 53.6077 939.569 L24.2097 939.569 L24.2097 931.05 L76.0613 931.05 L76.0613 939.569 L68.0984 939.569 Q72.8206 942.67 75.1354 946.791 Q77.4039 950.865 77.4039 956.281 Q77.4039 965.217 71.8484 969.846 Q66.2928 974.476 55.5984 974.476 M22.9597 953.041 L22.9597 953.041 Z" fill="#000000" fill-rule="nonzero" fill-opacity="1" /><path clip-path="url(#clip310)" d="M4.02465 913.504 L4.02465 904.985 L76.0613 904.985 L76.0613 913.504 L4.02465 913.504 Z" fill="#000000" fill-rule="nonzero" fill-opacity="1" /><path clip-path="url(#clip310)" d="M49.9966 863.597 Q49.9966 873.921 52.3577 877.902 Q54.7188 881.884 60.4132 881.884 Q64.9502 881.884 67.6354 878.921 Q70.2743 875.912 70.2743 870.773 Q70.2743 863.689 65.2743 859.43 Q60.2281 855.125 51.8948 855.125 L49.9966 855.125 L49.9966 863.597 M46.4781 846.606 L76.0613 846.606 L76.0613 855.125 L68.191 855.125 Q72.9132 858.041 75.1817 862.393 Q77.4039 866.745 77.4039 873.041 Q77.4039 881.004 72.9595 885.726 Q68.4687 890.402 60.9688 890.402 Q52.2188 890.402 47.7744 884.569 Q43.33 878.689 43.33 867.069 L43.33 855.125 L42.4967 855.125 Q36.6171 855.125 33.4226 859.013 Q30.1819 862.856 30.1819 869.847 Q30.1819 874.291 31.2467 878.504 Q32.3115 882.717 34.4412 886.606 L26.5708 886.606 Q24.7653 881.93 23.8857 877.532 Q22.9597 873.134 22.9597 868.967 Q22.9597 857.717 28.793 852.162 Q34.6263 846.606 46.4781 846.606 Z" fill="#000000" fill-rule="nonzero" fill-opacity="1" /><path clip-path="url(#clip310)" d="M9.48758 820.634 L24.2097 820.634 L24.2097 803.088 L30.8301 803.088 L30.8301 820.634 L58.9781 820.634 Q65.3206 820.634 67.1262 818.921 Q68.9317 817.162 68.9317 811.838 L68.9317 803.088 L76.0613 803.088 L76.0613 811.838 Q76.0613 821.699 72.4039 825.449 Q68.7002 829.199 58.9781 829.199 L30.8301 829.199 L30.8301 835.449 L24.2097 835.449 L24.2097 829.199 L9.48758 829.199 L9.48758 820.634 Z" fill="#000000" fill-rule="nonzero" fill-opacity="1" /><path clip-path="url(#clip310)" d="M24.2097 791.884 L24.2097 783.366 L76.0613 783.366 L76.0613 791.884 L24.2097 791.884 M4.02465 791.884 L4.02465 783.366 L14.8116 783.366 L14.8116 791.884 L4.02465 791.884 Z" fill="#000000" fill-rule="nonzero" fill-opacity="1" /><path clip-path="url(#clip310)" d="M30.1819 745.449 Q30.1819 752.301 35.5523 756.283 Q40.8763 760.264 50.1818 760.264 Q59.4873 760.264 64.8577 756.329 Q70.1817 752.347 70.1817 745.449 Q70.1817 738.644 64.8114 734.662 Q59.441 730.681 50.1818 730.681 Q40.9689 730.681 35.5986 734.662 Q30.1819 738.644 30.1819 745.449 M22.9597 745.449 Q22.9597 734.338 30.1819 727.996 Q37.4041 721.653 50.1818 721.653 Q62.9132 721.653 70.1817 727.996 Q77.4039 734.338 77.4039 745.449 Q77.4039 756.607 70.1817 762.949 Q62.9132 769.245 50.1818 769.245 Q37.4041 769.245 30.1819 762.949 Q22.9597 756.607 22.9597 745.449 Z" fill="#000000" fill-rule="nonzero" fill-opacity="1" /><path clip-path="url(#clip310)" d="M44.7652 664.431 L76.0613 664.431 L76.0613 672.95 L45.0429 672.95 Q37.6819 672.95 34.0245 675.82 Q30.3671 678.69 30.3671 684.431 Q30.3671 691.329 34.7652 695.311 Q39.1633 699.292 46.7559 699.292 L76.0613 699.292 L76.0613 707.857 L24.2097 707.857 L24.2097 699.292 L32.2652 699.292 Q27.5893 696.237 25.2745 692.116 Q22.9597 687.95 22.9597 682.533 Q22.9597 673.598 28.5153 669.014 Q34.0245 664.431 44.7652 664.431 Z" fill="#000000" fill-rule="nonzero" fill-opacity="1" /><polyline clip-path="url(#clip312)" style="stroke:#ff0000; stroke-linecap:round; stroke-linejoin:round; stroke-width:20; stroke-opacity:1; fill:none" points="271.74,1750.97 281.664,1750.74 291.588,1750.5 301.512,1750.26 311.436,1750.02 321.36,1749.77 331.284,1749.51 341.209,1749.25 351.133,1748.98 361.057,1748.71 370.981,1748.44 380.905,1748.15 390.829,1747.87 400.753,1747.57 410.677,1747.27 420.601,1746.97 430.525,1746.66 440.449,1746.34 450.373,1746.01 460.297,1745.68 470.221,1745.34 480.145,1745 490.069,1744.65 499.994,1744.29 509.918,1743.92 519.842,1743.55 529.766,1743.17 539.69,1742.78 549.614,1742.38 559.538,1741.98 569.462,1741.57 579.386,1741.15 589.31,1740.72 599.234,1740.28 609.158,1739.83 619.082,1739.38 629.006,1738.91 638.93,1738.44 648.855,1737.95 658.779,1737.46 668.703,1736.96 678.627,1736.44 688.551,1735.92 698.475,1735.38 708.399,1734.84 718.323,1734.28 728.247,1733.71 738.171,1733.13 748.095,1732.54 758.019,1731.94 767.943,1731.32 777.867,1730.69 787.791,1730.05 797.715,1729.4 807.64,1728.73 817.564,1728.05 827.488,1727.36 837.412,1726.65 847.336,1725.93 857.26,1725.19 867.184,1724.44 877.108,1723.67 887.032,1722.89 896.956,1722.09 906.88,1721.28 916.804,1720.45 926.728,1719.6 936.652,1718.73 946.576,1717.85 956.5,1716.95 966.425,1716.03 976.349,1715.1 986.273,1714.14 996.197,1713.17 1006.12,1712.17 1016.04,1711.16 1025.97,1710.12 1035.89,1709.07 1045.82,1707.99 1055.74,1706.89 1065.67,1705.77 1075.59,1704.62 1085.51,1703.46 1095.44,1702.27 1105.36,1701.05 1115.29,1699.81 1125.21,1698.55 1135.13,1697.26 1145.06,1695.94 1154.98,1694.6 1164.91,1693.23 1174.83,1691.83 1184.75,1690.41 1194.68,1688.95 1204.6,1687.47 1214.53,1685.95 1224.45,1684.41 1234.37,1682.83 1244.3,1681.23 1254.22,1679.59 1264.15,1677.91 1274.07,1676.21 1283.99,1674.47 1293.92,1672.69 1303.84,1670.88 1313.77,1669.03 1323.69,1667.14 1333.61,1665.22 1343.54,1663.25 1353.46,1661.25 1363.39,1659.21 1373.31,1657.12 1383.24,1655 1393.16,1652.83 1403.08,1650.61 1413.01,1648.35 1422.93,1646.05 1432.86,1643.7 1442.78,1641.3 1452.7,1638.86 1462.63,1636.36 1472.55,1633.81 1482.48,1631.22 1492.4,1628.57 1502.32,1625.86 1512.25,1623.1 1522.17,1620.29 1532.1,1617.42 1542.02,1614.49 1551.94,1611.5 1561.87,1608.45 1571.79,1605.34 1581.72,1602.17 1591.64,1598.94 1601.56,1595.63 1611.49,1592.26 1621.41,1588.83 1631.34,1585.32 1641.26,1581.74 1651.18,1578.1 1661.11,1574.37 1671.03,1570.57 1680.96,1566.7 1690.88,1562.74 1700.81,1558.71 1710.73,1554.6 1720.65,1550.4 1730.58,1546.11 1740.5,1541.74 1750.43,1537.29 1760.35,1532.74 1770.27,1528.1 1780.2,1523.37 1790.12,1518.54 1800.05,1513.61 1809.97,1508.58 1819.89,1503.46 1829.82,1498.22 1839.74,1492.89 1849.67,1487.44 1859.59,1481.89 1869.51,1476.22 1879.44,1470.44 1889.36,1464.54 1899.29,1458.53 1909.21,1452.39 1919.13,1446.13 1929.06,1439.74 1938.98,1433.22 1948.91,1426.58 1958.83,1419.79 1968.75,1412.87 1978.68,1405.81 1988.6,1398.61 1998.53,1391.26 2008.45,1383.76 2018.38,1376.11 2028.3,1368.31 2038.22,1360.35 2048.15,1352.22 2058.07,1343.94 2068,1335.48 2077.92,1326.86 2087.84,1318.06 2097.77,1309.08 2107.69,1299.92 2117.62,1290.58 2127.54,1281.04 2137.46,1271.32 2147.39,1261.4 2157.31,1251.28 2167.24,1240.95 2177.16,1230.42 2187.08,1219.67 2197.01,1208.71 2206.93,1197.52 2216.86,1186.11 2226.78,1174.47 2236.7,1162.59 2246.63,1150.48 2256.55,1138.12 2266.48,1125.51 2276.4,1112.65 2286.32,1099.52 2296.25,1086.14 2306.17,1072.48 2316.1,1058.54 2326.02,1044.33 2335.95,1029.82 2345.87,1015.03 2355.79,999.93 2365.72,984.528 2375.64,968.815 2385.57,952.784 2395.49,936.428 2405.41,919.741 2415.34,902.716 2425.26,885.347 2435.19,867.627 2445.11,849.548 2455.03,831.103 2464.96,812.286 2474.88,793.089 2484.81,773.504 2494.73,753.523 2504.65,733.14 2514.58,712.347 2524.5,691.134 2534.43,669.492 2544.35,647.411 2554.27,624.885 2564.2,601.904 2574.12,578.46 2584.05,554.542 2593.97,530.143 2603.89,505.251 2613.82,479.858 2623.74,453.953 2633.67,427.526 2643.59,400.565 2653.52,373.062 2663.44,345.003 2673.36,316.378 2683.29,287.175 2693.21,257.382 2703.14,226.987 2713.06,195.978 2722.98,164.342 2732.91,132.066 2742.83,99.137 2752.76,65.5418 2762.68,31.2666 2772.6,-3.7025 2782.53,-39.3796 2792.45,-75.779 2802.38,-112.915 2812.3,-150.804 2822.22,-189.459 2832.15,-228.897 2842.07,-269.132 2852,-310.182 2861.92,-352.062 2871.84,-394.788 2881.77,-438.376 2891.69,-482.845 2901.62,-528.211 2911.54,-574.492 2921.46,-621.704 2931.39,-669.867 2941.31,-719.005 2951.24,-769.137 2961.16,-820.283 2971.09,-872.461 2981.01,-925.692 2990.93,-979.997 3000.86,-1035.4 3010.78,-1091.91 3020.71,-1149.56 3030.63,-1208.38 3040.55,-1268.38 3050.48,-1329.59 3060.4,-1392.03 3070.33,-1455.74 3080.25,-1520.73 3090.17,-1587.02 3100.1,-1654.66 3110.02,-1723.67 3119.95,-1794.06 3129.87,-1865.89 3139.79,-1939.16 3149.72,-2013.91 3159.64,-2090.18 3169.57,-2168 3179.49,-2247.38 3189.41,-2328.38 3199.34,-2411.01 3209.26,-2495.32 3219.19,-2581.34 3229.11,-2669.1 3239.04,-2758.63 3248.96,-2849.98 3258.88,-2943.18 3268.81,-3038.27 3278.73,-3135.28 3288.66,-3234.25 3298.58,-3335.22 3308.5,-3438.23 3318.43,-3543.32 3328.35,-3650.53 3338.28,-3759.9 3348.2,-3871.47 3358.12,-3985.29 3368.05,-4101.4 3377.97,-4219.87 3387.9,-4340.73 3397.82,-4464.04 3407.74,-4589.83 3417.67,-4718.16 3427.59,-4849.08 3437.52,-4982.63 3447.44,-5118.88 3457.36,-5257.86 3467.29,-5399.65 3477.21,-5544.29 3487.14,-5691.85 3497.06,-5842.38 3506.98,-5995.94 3516.91,-6152.61 3526.83,-6312.43 3536.76,-6475.48 3546.68,-6641.82 3556.61,-6811.53 3566.53,-6984.66 3576.45,-7161.29 3586.38,-7341.5 3596.3,-7525.36 3606.23,-7712.93 3616.15,-7904.31 3626.07,-8099.56 3636,-8298.77 3645.92,-8502.01 3655.85,-8709.38 3665.77,-8920.94 3675.69,-9136.79 3685.62,-9357.01 3695.54,-9581.7 3705.47,-9810.93 3715.39,-10044.8 3725.31,-10283.4 3735.24,-10526.8 3745.16,-10775.2 3755.09,-11028.6 3765.01,-11287.1 3774.93,-11550.7 3784.86,-11819.8 3794.78,-12094.2 3804.71,-12374.1 3814.63,-12659.7 3824.55,-12951.1 3834.48,-13248.4 3844.4,-13551.6 3854.33,-13861 3864.25,-14176.7 3874.18,-14498.7 3884.1,-14827.1 3894.02,-15162.2 3903.95,-15504.1 3913.87,-15852.8 3923.8,-16208.6 3933.72,-16571.5 3943.64,-16941.7 3953.57,-17319.4 3963.49,-17704.7 3973.42,-18097.7 3983.34,-18498.7 3993.26,-18907.8 4003.19,-19325.2 4013.11,-19750.9 4023.04,-20185.3 4032.96,-20628.5 4042.88,-21080.7 4052.81,-21541.9 4062.73,-22012.6 4072.66,-22492.7 4082.58,-22982.6 4092.5,-23482.5 4102.43,-23992.4 4112.35,-24512.7 4122.28,-25043.5 4132.2,-25585.1 4142.12,-26137.7 4152.05,-26701.5 4161.97,-27276.7 4171.9,-27863.5 4181.82,-28462.2 4191.75,-29073.1 4201.67,-29696.3 4211.59,-30332 4221.52,-30980.7 4231.44,-31642.4 4241.37,-32317.4 4251.29,-33006.1 4261.21,-33708.6 4271.14,-34425.2 4281.06,-35156.3 4290.99,-35902.2 4300.91,-36663.1 4310.83,-37439.5 4320.76,-38231.5 4330.68,-39039.5 4340.61,-39863.8 4350.53,-40704.7 4360.45,-41562.5 4370.38,-42437.5 4380.3,-43330.2 4390.23,-44240.9 4400.15,-45169.8 4410.07,-46117.5 4420,-47084.3 4429.92,-48070.5 4439.85,-49076.7 4449.77,-50103.1 4459.69,-51150.2 4469.62,-52218.5 4479.54,-53308.3 4489.47,-54420.2 4499.39,-55554.6 4509.32,-56711.9 4519.24,-57892.6 4529.16,-59097.2 4539.09,-60326.3 4549.01,-61580.2 4558.94,-62859.5 4568.86,-64164.8 4578.78,-65496.6 4588.71,-66855.3 4598.63,-68241.6 4608.56,-69656 4618.48,-71099.1 4628.4,-72571.5 4638.33,-74073.6 4648.25,-75606.2 4658.18,-77169.9 4668.1,-78765.2 4678.02,-80392.7 4687.95,-82053.2 4697.87,-83747.2 4707.8,-85475.4 4717.72,-87238.4 4727.64,-89037 4737.57,-90871.7 4747.49,-92743.4 4757.42,-94652.6 4767.34,-96600.4 4777.26,-98587.8 4787.19,-100615 4797.11,-102684 4807.04,-104794 4816.96,-106947 4826.89,-109143 4836.81,-111383 4846.73,-113668 4856.66,-116000 4866.58,-118378 4876.51,-120804 4886.43,-123279 4896.35,-125804 4906.28,-128379 4916.2,-131007 4926.13,-133687 4936.05,-136422 4945.97,-139211 4955.9,-142057 4965.82,-144961 4975.75,-147923 4985.67,-150945 4995.59,-154028 5005.52,-157174 5015.44,-160383 5025.37,-163657 5035.29,-166998 5045.21,-170406 5055.14,-173884 5065.06,-177432 5074.99,-181052 5084.91,-184745 5094.83,-188513 5104.76,-192358 5114.68,-196281 5124.61,-200283 5134.53,-204366 5144.46,-208532 5154.38,-212783 5164.3,-217119 5174.23,-221543 5184.15,-226057 5194.08,-230661 5204,-235359 5213.92,-240151 5223.85,-245040 5233.77,-250027 5243.7,-255114 5253.62,-260304 5263.54,-265598 5273.47,-271000 5283.39,-276511 5293.32,-282134 5303.24,-287869 5313.16,-293721 5323.09,-299690 5333.01,-305779 5342.94,-311991 5352.86,-318327 5362.78,-324791 5372.71,-331386 5382.63,-338112 5392.56,-344974 5402.48,-351975 5412.4,-359116 5422.33,-366401 5432.25,-373833 5442.18,-381415 5452.1,-389150 5462.03,-397042 5471.95,-405092 5481.87,-413306 5491.8,-421686 5501.72,-430235 5511.65,-438957 5521.57,-447856 5531.49,-456936 5541.42,-466200 5551.34,-475651 5561.27,-485294 5571.19,-495133 5581.11,-505172 5591.04,-515414 5600.96,-525864 5610.89,-536525 5620.81,-547404 5630.73,-558502 5640.66,-569826 5650.58,-581379 5660.51,-593166 5670.43,-605191 5680.35,-617460 5690.28,-629976 5700.2,-642745 5710.13,-655772 5720.05,-669061 5729.97,-682617 5739.9,-696446 5749.82,-710553 5759.75,-724943 5769.67,-739625 5779.6,-754605 5789.52,-769887 5799.44,-785478 5809.37,-801383 5819.29,-817609 5829.22,-834161 5839.14,-851046 5849.06,-868271 5858.99,-885842 5868.91,-903767 5878.84,-922051 5888.76,-940704 5898.68,-959732 5908.61,-979142 5918.53,-998944 5928.46,-1.01914e+06 5938.38,-1.03975e+06 5948.3,-1.06078e+06 5958.23,-1.08222e+06 5968.15,-1.1041e+06 5978.08,-1.12643e+06 5988,-1.1492e+06 5997.92,-1.17244e+06 6007.85,-1.19614e+06 6017.77,-1.22033e+06 6027.7,-1.245e+06 6037.62,-1.27018e+06 6047.54,-1.29586e+06 6057.47,-1.32207e+06 6067.39,-1.34881e+06 6077.32,-1.37609e+06 6087.24,-1.40393e+06 6097.17,-1.43233e+06 6107.09,-1.4613e+06 6117.01,-1.49086e+06 6126.94,-1.52103e+06 6136.86,-1.5518e+06 6146.79,-1.5832e+06 6156.71,-1.61524e+06 6166.63,-1.64792e+06 6176.56,-1.68127e+06 6186.48,-1.71529e+06 6196.41,-1.75e+06 6206.33,-1.78541e+06 6216.25,-1.82154e+06 6226.18,-1.85839e+06 6236.1,-1.89598e+06 6246.03,-1.93433e+06 6255.95,-1.97346e+06 6265.87,-2.01336e+06 6275.8,-2.05407e+06 6285.72,-2.09561e+06 6295.65,-2.13799e+06 6305.57,-2.18122e+06 6315.49,-2.22533e+06 6325.42,-2.27032e+06 6335.34,-2.31622e+06 6345.27,-2.36305e+06 6355.19,-2.41082e+06 6365.11,-2.45954e+06 6375.04,-2.50925e+06 6384.96,-2.55996e+06 6394.89,-2.61168e+06 6404.81,-2.66445e+06 6414.74,-2.71827e+06 6424.66,-2.77318e+06 6434.58,-2.8292e+06 6444.51,-2.88634e+06 6454.43,-2.94464e+06 6464.36,-3.00411e+06 6474.28,-3.06478e+06 6484.2,-3.12668e+06 6494.13,-3.18982e+06 6504.05,-3.25425e+06 6513.98,-3.31998e+06 6523.9,-3.38703e+06 6533.82,-3.45545e+06 6543.75,-3.52525e+06 6553.67,-3.59647e+06 6563.6,-3.66913e+06 6573.52,-3.74326e+06 6583.44,-3.8189e+06 6593.37,-3.89607e+06 6603.29,-3.97481e+06 6613.22,-4.05515e+06 6623.14,-4.13712e+06 6633.06,-4.1943e+06 6642.99,-4.1943e+06 6652.91,-4.1943e+06 6662.84,-4.1943e+06 6672.76,-4.1943e+06 6682.68,-4.1943e+06 6692.61,-4.1943e+06 6702.53,-4.1943e+06 6712.46,-4.1943e+06 6722.38,-4.1943e+06 6732.31,-4.1943e+06 6742.23,-4.1943e+06 6752.15,-4.1943e+06 6762.08,-4.1943e+06 6772,-4.1943e+06 6781.93,-4.1943e+06 6791.85,-4.1943e+06 6801.77,-4.1943e+06 6811.7,-4.1943e+06 6821.62,-4.1943e+06 6831.55,-4.1943e+06 6841.47,-4.1943e+06 6851.39,-4.1943e+06 6861.32,-4.1943e+06 6871.24,-4.1943e+06 6881.17,-4.1943e+06 6891.09,-4.1943e+06 6901.01,-4.1943e+06 6910.94,-4.1943e+06 6920.86,-4.1943e+06 6930.79,-4.1943e+06 6940.71,-4.1943e+06 6950.63,-4.1943e+06 6960.56,-4.1943e+06 6970.48,-4.1943e+06 6980.41,-4.1943e+06 6990.33,-4.1943e+06 7000.25,-4.1943e+06 7010.18,-4.1943e+06 7020.1,-4.1943e+06 7030.03,-4.1943e+06 7039.95,-4.1943e+06 7049.88,-4.1943e+06 7059.8,-4.1943e+06 7069.72,-4.1943e+06 7079.65,-4.1943e+06 7089.57,-4.1943e+06 7099.5,-4.1943e+06 7109.42,-4.1943e+06 7119.34,-4.1943e+06 7129.27,-4.1943e+06 7139.19,-4.1943e+06 7149.12,-4.1943e+06 7159.04,-4.1943e+06 7168.96,-4.1943e+06 7178.89,-4.1943e+06 7188.81,-4.1943e+06 7198.74,-4.1943e+06 7208.66,-4.1943e+06 7218.58,-4.1943e+06 7228.51,-4.1943e+06 7238.43,-4.1943e+06 7248.36,-4.1943e+06 7258.28,-4.1943e+06 7268.2,-4.1943e+06 7278.13,-4.1943e+06 7288.05,-4.1943e+06 7297.98,-4.1943e+06 7307.9,-4.1943e+06 7317.82,-4.1943e+06 7327.75,-4.1943e+06 7337.67,-4.1943e+06 7347.6,-4.1943e+06 7357.52,-4.1943e+06 7367.45,-4.1943e+06 7377.37,-4.1943e+06 7387.29,-4.1943e+06 7397.22,-4.1943e+06 7407.14,-4.1943e+06 7417.07,-4.1943e+06 7426.99,-4.1943e+06 7436.91,-4.1943e+06 7446.84,-4.1943e+06 7456.76,-4.1943e+06 7466.69,-4.1943e+06 7476.61,-4.1943e+06 7486.53,-4.1943e+06 7496.46,-4.1943e+06 7506.38,-4.1943e+06 7516.31,-4.1943e+06 7526.23,-4.1943e+06 7536.15,-4.1943e+06 7546.08,-4.1943e+06 7556,-4.1943e+06 7565.93,-4.1943e+06 7575.85,-4.1943e+06 7585.77,-4.1943e+06 7595.7,-4.1943e+06 7605.62,-4.1943e+06 7615.55,-4.1943e+06 7625.47,-4.1943e+06 7635.4,-4.1943e+06 7645.32,-4.1943e+06 7655.24,-4.1943e+06 7665.17,-4.1943e+06 7675.09,-4.1943e+06 7685.02,-4.1943e+06 7694.94,-4.1943e+06 7704.86,-4.1943e+06 7714.79,-4.1943e+06 7724.71,-4.1943e+06 7734.64,-4.1943e+06 7744.56,-4.1943e+06 7754.48,-4.1943e+06 7764.41,-4.1943e+06 7774.33,-4.1943e+06 7784.26,-4.1943e+06 7794.18,-4.1943e+06 7804.1,-4.1943e+06 7814.03,-4.1943e+06 7823.95,-4.1943e+06 7833.88,-4.1943e+06 7843.8,-4.1943e+06 7853.72,-4.1943e+06 7863.65,-4.1943e+06 7873.57,-4.1943e+06 7883.5,-4.1943e+06 7893.42,-4.1943e+06 7903.34,-4.1943e+06 7913.27,-4.1943e+06 7923.19,-4.1943e+06 7933.12,-4.1943e+06 7943.04,-4.1943e+06 7952.97,-4.1943e+06 7962.89,-4.1943e+06 7972.81,-4.1943e+06 7982.74,-4.1943e+06 7992.66,-4.1943e+06 8002.59,-4.1943e+06 8012.51,-4.1943e+06 8022.43,-4.1943e+06 8032.36,-4.1943e+06 8042.28,-4.1943e+06 8052.21,-4.1943e+06 8062.13,-4.1943e+06 8072.05,-4.1943e+06 8081.98,-4.1943e+06 8091.9,-4.1943e+06 8101.83,-4.1943e+06 8111.75,-4.1943e+06 8121.67,-4.1943e+06 8131.6,-4.1943e+06 8141.52,-4.1943e+06 8151.45,-4.1943e+06 8161.37,-4.1943e+06 8171.29,-4.1943e+06 8181.22,-4.1943e+06 8191.14,-4.1943e+06 8201.07,-4.1943e+06 8210.99,-4.1943e+06 8220.91,-4.1943e+06 8230.84,-4.1943e+06 8240.76,-4.1943e+06 8250.69,-4.1943e+06 8260.61,-4.1943e+06 8270.54,-4.1943e+06 8280.46,-4.1943e+06 8290.38,-4.1943e+06 8300.31,-4.1943e+06 8310.23,-4.1943e+06 8320.16,-4.1943e+06 8330.08,-4.1943e+06 8340,-4.1943e+06 8349.93,-4.1943e+06 8359.85,-4.1943e+06 8369.78,-4.1943e+06 8379.7,-4.1943e+06 8389.62,-4.1943e+06 8399.55,-4.1943e+06 8409.47,-4.1943e+06 8419.4,-4.1943e+06 8429.32,-4.1943e+06 8439.24,-4.1943e+06 8449.17,-4.1943e+06 8459.09,-4.1943e+06 8469.02,-4.1943e+06 8478.94,-4.1943e+06 8488.86,-4.1943e+06 8498.79,-4.1943e+06 8508.71,-4.1943e+06 8518.64,-4.1943e+06 8528.56,-4.1943e+06 8538.48,-4.1943e+06 8548.41,-4.1943e+06 8558.33,-4.1943e+06 8568.26,-4.1943e+06 8578.18,-4.1943e+06 8588.11,-4.1943e+06 8598.03,-4.1943e+06 8607.95,-4.1943e+06 8617.88,-4.1943e+06 8627.8,-4.1943e+06 8637.73,-4.1943e+06 8647.65,-4.1943e+06 8657.57,-4.1943e+06 8667.5,-4.1943e+06 8677.42,-4.1943e+06 8687.35,-4.1943e+06 8697.27,-4.1943e+06 8707.19,-4.1943e+06 8717.12,-4.1943e+06 8727.04,-4.1943e+06 8736.97,-4.1943e+06 8746.89,-4.1943e+06 8756.81,-4.1943e+06 8766.74,-4.1943e+06 8776.66,-4.1943e+06 8786.59,-4.1943e+06 8796.51,-4.1943e+06 8806.43,-4.1943e+06 8816.36,-4.1943e+06 8826.28,-4.1943e+06 8836.21,-4.1943e+06 8846.13,-4.1943e+06 8856.05,-4.1943e+06 8865.98,-4.1943e+06 8875.9,-4.1943e+06 8885.83,-4.1943e+06 8895.75,-4.1943e+06 8905.68,-4.1943e+06 8915.6,-4.1943e+06 8925.52,-4.1943e+06 8935.45,-4.1943e+06 8945.37,-4.1943e+06 8955.3,-4.1943e+06 8965.22,-4.1943e+06 8975.14,-4.1943e+06 8985.07,-4.1943e+06 8994.99,-4.1943e+06 9004.92,-4.1943e+06 9014.84,-4.1943e+06 9024.76,-4.1943e+06 9034.69,-4.1943e+06 9044.61,-4.1943e+06 9054.54,-4.1943e+06 9064.46,-4.1943e+06 9074.38,-4.1943e+06 9084.31,-4.1943e+06 9094.23,-4.1943e+06 9104.16,-4.1943e+06 9114.08,-4.1943e+06 9124,-4.1943e+06 9133.93,-4.1943e+06 9143.85,-4.1943e+06 9153.78,-4.1943e+06 9163.7,-4.1943e+06 9173.62,-4.1943e+06 9183.55,-4.1943e+06 9193.47,-4.1943e+06 9203.4,-4.1943e+06 9213.32,-4.1943e+06 9223.25,-4.1943e+06 9233.17,-4.1943e+06 9243.09,-4.1943e+06 9253.02,-4.1943e+06 9262.94,-4.1943e+06 9272.87,-4.1943e+06 9282.79,-4.1943e+06 9292.71,-4.1943e+06 9302.64,-4.1943e+06 9312.56,-4.1943e+06 9322.49,-4.1943e+06 9332.41,-4.1943e+06 9342.33,-4.1943e+06 9352.26,-4.1943e+06 9362.18,-4.1943e+06 9372.11,-4.1943e+06 9382.03,-4.1943e+06 9391.95,-4.1943e+06 9401.88,-4.1943e+06 9411.8,-4.1943e+06 9421.73,-4.1943e+06 9431.65,-4.1943e+06 9441.57,-4.1943e+06 9451.5,-4.1943e+06 9461.42,-4.1943e+06 9471.35,-4.1943e+06 9481.27,-4.1943e+06 9491.19,-4.1943e+06 9501.12,-4.1943e+06 9511.04,-4.1943e+06 9520.97,-4.1943e+06 9530.89,-4.1943e+06 9540.82,-4.1943e+06 9550.74,-4.1943e+06 9560.66,-4.1943e+06 9570.59,-4.1943e+06 9580.51,-4.1943e+06 9590.44,-4.1943e+06 9600.36,-4.1943e+06 9610.28,-4.1943e+06 9620.21,-4.1943e+06 9630.13,-4.1943e+06 9640.06,-4.1943e+06 9649.98,-4.1943e+06 9659.9,-4.1943e+06 9669.83,-4.1943e+06 9679.75,-4.1943e+06 9689.68,-4.1943e+06 9699.6,-4.1943e+06 9709.52,-4.1943e+06 9719.45,-4.1943e+06 9729.37,-4.1943e+06 9739.3,-4.1943e+06 9749.22,-4.1943e+06 9759.14,-4.1943e+06 9769.07,-4.1943e+06 9778.99,-4.1943e+06 9788.92,-4.1943e+06 9798.84,-4.1943e+06 9808.76,-4.1943e+06 9818.69,-4.1943e+06 9828.61,-4.1943e+06 9838.54,-4.1943e+06 9848.46,-4.1943e+06 9858.39,-4.1943e+06 9868.31,-4.1943e+06 9878.23,-4.1943e+06 9888.16,-4.1943e+06 9898.08,-4.1943e+06 9908.01,-4.1943e+06 9917.93,-4.1943e+06 9927.85,-4.1943e+06 9937.78,-4.1943e+06 9947.7,-4.1943e+06 9957.63,-4.1943e+06 9967.55,-4.1943e+06 9977.47,-4.1943e+06 9987.4,-4.1943e+06 9997.32,-4.1943e+06 10007.2,-4.1943e+06 10017.2,-4.1943e+06 10027.1,-4.1943e+06 10037,-4.1943e+06 10046.9,-4.1943e+06 10056.9,-4.1943e+06 10066.8,-4.1943e+06 10076.7,-4.1943e+06 10086.6,-4.1943e+06 10096.6,-4.1943e+06 10106.5,-4.1943e+06 10116.4,-4.1943e+06 10126.3,-4.1943e+06 10136.3,-4.1943e+06 10146.2,-4.1943e+06 10156.1,-4.1943e+06 10166,-4.1943e+06 10176,-4.1943e+06 10185.9,-4.1943e+06 10195.8,-4.1943e+06 "/>
<path clip-path="url(#clip310)" d="M354.441 285.856 L610.725 285.856 L610.725 104.416 L354.441 104.416  Z" fill="#ffffff" fill-rule="evenodd" fill-opacity="1"/>
<polyline clip-path="url(#clip310)" style="stroke:#000000; stroke-linecap:round; stroke-linejoin:round; stroke-width:4; stroke-opacity:1; fill:none" points="354.441,285.856 610.725,285.856 610.725,104.416 354.441,104.416 354.441,285.856 "/>
<polyline clip-path="url(#clip310)" style="stroke:#ff0000; stroke-linecap:round; stroke-linejoin:round; stroke-width:35; stroke-opacity:1; fill:none" points="382.007,195.136 547.409,195.136 "/>
<path clip-path="url(#clip310)" d="M574.975 164.896 L583.158 164.896 L583.158 225.376 L574.975 225.376 L574.975 164.896 Z" fill="#000000" fill-rule="nonzero" fill-opacity="1" /></svg>
