<?xml version="1.0" encoding="utf-8"?>
<svg xmlns="http://www.w3.org/2000/svg" xmlns:xlink="http://www.w3.org/1999/xlink" width="528" height="336" viewBox="0 0 2112 1344">
<defs>
  <clipPath id="clip410">
    <rect x="0" y="0" width="2112" height="1344"/>
  </clipPath>
</defs>
<path clip-path="url(#clip410)" d="M0 1344 L2112 1344 L2112 2.13163e-14 L0 2.13163e-14  Z" fill="#ffffff" fill-rule="evenodd" fill-opacity="1"/>
<defs>
  <clipPath id="clip411">
    <rect x="422" y="0" width="1479" height="1344"/>
  </clipPath>
</defs>
<path clip-path="url(#clip410)" d="M214.34 1173.47 L2064.76 1173.47 L2064.76 47.2441 L214.34 47.2441  Z" fill="#ffffff" fill-rule="evenodd" fill-opacity="1"/>
<defs>
  <clipPath id="clip412">
    <rect x="214" y="47" width="1851" height="1127"/>
  </clipPath>
</defs>
<polyline clip-path="url(#clip412)" style="stroke:#000000; stroke-linecap:round; stroke-linejoin:round; stroke-width:2; stroke-opacity:0.1; fill:none" points="214.34,1173.47 214.34,47.2441 "/>
<polyline clip-path="url(#clip412)" style="stroke:#000000; stroke-linecap:round; stroke-linejoin:round; stroke-width:2; stroke-opacity:0.1; fill:none" points="522.743,1173.47 522.743,47.2441 "/>
<polyline clip-path="url(#clip412)" style="stroke:#000000; stroke-linecap:round; stroke-linejoin:round; stroke-width:2; stroke-opacity:0.1; fill:none" points="831.145,1173.47 831.145,47.2441 "/>
<polyline clip-path="url(#clip412)" style="stroke:#000000; stroke-linecap:round; stroke-linejoin:round; stroke-width:2; stroke-opacity:0.1; fill:none" points="1139.55,1173.47 1139.55,47.2441 "/>
<polyline clip-path="url(#clip412)" style="stroke:#000000; stroke-linecap:round; stroke-linejoin:round; stroke-width:2; stroke-opacity:0.1; fill:none" points="1447.95,1173.47 1447.95,47.2441 "/>
<polyline clip-path="url(#clip412)" style="stroke:#000000; stroke-linecap:round; stroke-linejoin:round; stroke-width:2; stroke-opacity:0.1; fill:none" points="1756.35,1173.47 1756.35,47.2441 "/>
<polyline clip-path="url(#clip412)" style="stroke:#000000; stroke-linecap:round; stroke-linejoin:round; stroke-width:2; stroke-opacity:0.1; fill:none" points="2064.76,1173.47 2064.76,47.2441 "/>
<polyline clip-path="url(#clip412)" style="stroke:#000000; stroke-linecap:round; stroke-linejoin:round; stroke-width:2; stroke-opacity:0.1; fill:none" points="214.34,1141.6 2064.76,1141.6 "/>
<polyline clip-path="url(#clip412)" style="stroke:#000000; stroke-linecap:round; stroke-linejoin:round; stroke-width:2; stroke-opacity:0.1; fill:none" points="214.34,873.295 2064.76,873.295 "/>
<polyline clip-path="url(#clip412)" style="stroke:#000000; stroke-linecap:round; stroke-linejoin:round; stroke-width:2; stroke-opacity:0.1; fill:none" points="214.34,604.992 2064.76,604.992 "/>
<polyline clip-path="url(#clip412)" style="stroke:#000000; stroke-linecap:round; stroke-linejoin:round; stroke-width:2; stroke-opacity:0.1; fill:none" points="214.34,336.689 2064.76,336.689 "/>
<polyline clip-path="url(#clip412)" style="stroke:#000000; stroke-linecap:round; stroke-linejoin:round; stroke-width:2; stroke-opacity:0.1; fill:none" points="214.34,68.3863 2064.76,68.3863 "/>
<polyline clip-path="url(#clip410)" style="stroke:#000000; stroke-linecap:round; stroke-linejoin:round; stroke-width:4; stroke-opacity:1; fill:none" points="214.34,1173.47 2064.76,1173.47 "/>
<polyline clip-path="url(#clip410)" style="stroke:#000000; stroke-linecap:round; stroke-linejoin:round; stroke-width:4; stroke-opacity:1; fill:none" points="214.34,1173.47 214.34,1154.57 "/>
<polyline clip-path="url(#clip410)" style="stroke:#000000; stroke-linecap:round; stroke-linejoin:round; stroke-width:4; stroke-opacity:1; fill:none" points="522.743,1173.47 522.743,1154.57 "/>
<polyline clip-path="url(#clip410)" style="stroke:#000000; stroke-linecap:round; stroke-linejoin:round; stroke-width:4; stroke-opacity:1; fill:none" points="831.145,1173.47 831.145,1154.57 "/>
<polyline clip-path="url(#clip410)" style="stroke:#000000; stroke-linecap:round; stroke-linejoin:round; stroke-width:4; stroke-opacity:1; fill:none" points="1139.55,1173.47 1139.55,1154.57 "/>
<polyline clip-path="url(#clip410)" style="stroke:#000000; stroke-linecap:round; stroke-linejoin:round; stroke-width:4; stroke-opacity:1; fill:none" points="1447.95,1173.47 1447.95,1154.57 "/>
<polyline clip-path="url(#clip410)" style="stroke:#000000; stroke-linecap:round; stroke-linejoin:round; stroke-width:4; stroke-opacity:1; fill:none" points="1756.35,1173.47 1756.35,1154.57 "/>
<polyline clip-path="url(#clip410)" style="stroke:#000000; stroke-linecap:round; stroke-linejoin:round; stroke-width:4; stroke-opacity:1; fill:none" points="2064.76,1173.47 2064.76,1154.57 "/>
<path clip-path="url(#clip410)" d="M214.34 1202.09 Q210.729 1202.09 208.9 1205.65 Q207.095 1209.19 207.095 1216.32 Q207.095 1223.43 208.9 1226.99 Q210.729 1230.53 214.34 1230.53 Q217.974 1230.53 219.78 1226.99 Q221.609 1223.43 221.609 1216.32 Q221.609 1209.19 219.78 1205.65 Q217.974 1202.09 214.34 1202.09 M214.34 1198.38 Q220.15 1198.38 223.206 1202.99 Q226.285 1207.57 226.285 1216.32 Q226.285 1225.05 223.206 1229.65 Q220.15 1234.24 214.34 1234.24 Q208.53 1234.24 205.451 1229.65 Q202.396 1225.05 202.396 1216.32 Q202.396 1207.57 205.451 1202.99 Q208.53 1198.38 214.34 1198.38 Z" fill="#000000" fill-rule="nonzero" fill-opacity="1" /><path clip-path="url(#clip410)" d="M497.43 1229.63 L505.069 1229.63 L505.069 1203.27 L496.759 1204.93 L496.759 1200.67 L505.023 1199.01 L509.699 1199.01 L509.699 1229.63 L517.338 1229.63 L517.338 1233.57 L497.43 1233.57 L497.43 1229.63 Z" fill="#000000" fill-rule="nonzero" fill-opacity="1" /><path clip-path="url(#clip410)" d="M536.782 1202.09 Q533.171 1202.09 531.342 1205.65 Q529.537 1209.19 529.537 1216.32 Q529.537 1223.43 531.342 1226.99 Q533.171 1230.53 536.782 1230.53 Q540.416 1230.53 542.222 1226.99 Q544.051 1223.43 544.051 1216.32 Q544.051 1209.19 542.222 1205.65 Q540.416 1202.09 536.782 1202.09 M536.782 1198.38 Q542.592 1198.38 545.648 1202.99 Q548.726 1207.57 548.726 1216.32 Q548.726 1225.05 545.648 1229.65 Q542.592 1234.24 536.782 1234.24 Q530.972 1234.24 527.893 1229.65 Q524.838 1225.05 524.838 1216.32 Q524.838 1207.57 527.893 1202.99 Q530.972 1198.38 536.782 1198.38 Z" fill="#000000" fill-rule="nonzero" fill-opacity="1" /><path clip-path="url(#clip410)" d="M809.919 1229.63 L826.238 1229.63 L826.238 1233.57 L804.294 1233.57 L804.294 1229.63 Q806.956 1226.88 811.539 1222.25 Q816.145 1217.59 817.326 1216.25 Q819.571 1213.73 820.451 1211.99 Q821.354 1210.23 821.354 1208.54 Q821.354 1205.79 819.409 1204.05 Q817.488 1202.32 814.386 1202.32 Q812.187 1202.32 809.733 1203.08 Q807.303 1203.84 804.525 1205.4 L804.525 1200.67 Q807.349 1199.54 809.803 1198.96 Q812.257 1198.38 814.294 1198.38 Q819.664 1198.38 822.858 1201.07 Q826.053 1203.75 826.053 1208.24 Q826.053 1210.37 825.243 1212.29 Q824.456 1214.19 822.349 1216.78 Q821.77 1217.46 818.669 1220.67 Q815.567 1223.87 809.919 1229.63 Z" fill="#000000" fill-rule="nonzero" fill-opacity="1" /><path clip-path="url(#clip410)" d="M846.053 1202.09 Q842.442 1202.09 840.613 1205.65 Q838.807 1209.19 838.807 1216.32 Q838.807 1223.43 840.613 1226.99 Q842.442 1230.53 846.053 1230.53 Q849.687 1230.53 851.493 1226.99 Q853.321 1223.43 853.321 1216.32 Q853.321 1209.19 851.493 1205.65 Q849.687 1202.09 846.053 1202.09 M846.053 1198.38 Q851.863 1198.38 854.918 1202.99 Q857.997 1207.57 857.997 1216.32 Q857.997 1225.05 854.918 1229.65 Q851.863 1234.24 846.053 1234.24 Q840.243 1234.24 837.164 1229.65 Q834.108 1225.05 834.108 1216.32 Q834.108 1207.57 837.164 1202.99 Q840.243 1198.38 846.053 1198.38 Z" fill="#000000" fill-rule="nonzero" fill-opacity="1" /><path clip-path="url(#clip410)" d="M1128.39 1214.93 Q1131.75 1215.65 1133.62 1217.92 Q1135.52 1220.19 1135.52 1223.52 Q1135.52 1228.64 1132 1231.44 Q1128.48 1234.24 1122 1234.24 Q1119.83 1234.24 1117.51 1233.8 Q1115.22 1233.38 1112.77 1232.53 L1112.77 1228.01 Q1114.71 1229.15 1117.03 1229.72 Q1119.34 1230.3 1121.86 1230.3 Q1126.26 1230.3 1128.55 1228.57 Q1130.87 1226.83 1130.87 1223.52 Q1130.87 1220.46 1128.71 1218.75 Q1126.59 1217.02 1122.77 1217.02 L1118.74 1217.02 L1118.74 1213.17 L1122.95 1213.17 Q1126.4 1213.17 1128.23 1211.81 Q1130.06 1210.42 1130.06 1207.83 Q1130.06 1205.16 1128.16 1203.75 Q1126.28 1202.32 1122.77 1202.32 Q1120.84 1202.32 1118.65 1202.73 Q1116.45 1203.15 1113.81 1204.03 L1113.81 1199.86 Q1116.47 1199.12 1118.78 1198.75 Q1121.12 1198.38 1123.18 1198.38 Q1128.51 1198.38 1131.61 1200.81 Q1134.71 1203.22 1134.71 1207.34 Q1134.71 1210.21 1133.07 1212.2 Q1131.42 1214.17 1128.39 1214.93 Z" fill="#000000" fill-rule="nonzero" fill-opacity="1" /><path clip-path="url(#clip410)" d="M1154.39 1202.09 Q1150.77 1202.09 1148.95 1205.65 Q1147.14 1209.19 1147.14 1216.32 Q1147.14 1223.43 1148.95 1226.99 Q1150.77 1230.53 1154.39 1230.53 Q1158.02 1230.53 1159.83 1226.99 Q1161.65 1223.43 1161.65 1216.32 Q1161.65 1209.19 1159.83 1205.65 Q1158.02 1202.09 1154.39 1202.09 M1154.39 1198.38 Q1160.2 1198.38 1163.25 1202.99 Q1166.33 1207.57 1166.33 1216.32 Q1166.33 1225.05 1163.25 1229.65 Q1160.2 1234.24 1154.39 1234.24 Q1148.58 1234.24 1145.5 1229.65 Q1142.44 1225.05 1142.44 1216.32 Q1142.44 1207.57 1145.5 1202.99 Q1148.58 1198.38 1154.39 1198.38 Z" fill="#000000" fill-rule="nonzero" fill-opacity="1" /><path clip-path="url(#clip410)" d="M1436.12 1203.08 L1424.32 1221.53 L1436.12 1221.53 L1436.12 1203.08 M1434.9 1199.01 L1440.77 1199.01 L1440.77 1221.53 L1445.71 1221.53 L1445.71 1225.42 L1440.77 1225.42 L1440.77 1233.57 L1436.12 1233.57 L1436.12 1225.42 L1420.52 1225.42 L1420.52 1220.9 L1434.9 1199.01 Z" fill="#000000" fill-rule="nonzero" fill-opacity="1" /><path clip-path="url(#clip410)" d="M1463.44 1202.09 Q1459.83 1202.09 1458 1205.65 Q1456.19 1209.19 1456.19 1216.32 Q1456.19 1223.43 1458 1226.99 Q1459.83 1230.53 1463.44 1230.53 Q1467.07 1230.53 1468.88 1226.99 Q1470.71 1223.43 1470.71 1216.32 Q1470.71 1209.19 1468.88 1205.65 Q1467.07 1202.09 1463.44 1202.09 M1463.44 1198.38 Q1469.25 1198.38 1472.3 1202.99 Q1475.38 1207.57 1475.38 1216.32 Q1475.38 1225.05 1472.3 1229.65 Q1469.25 1234.24 1463.44 1234.24 Q1457.63 1234.24 1454.55 1229.65 Q1451.49 1225.05 1451.49 1216.32 Q1451.49 1207.57 1454.55 1202.99 Q1457.63 1198.38 1463.44 1198.38 Z" fill="#000000" fill-rule="nonzero" fill-opacity="1" /><path clip-path="url(#clip410)" d="M1731.05 1199.01 L1749.41 1199.01 L1749.41 1202.94 L1735.33 1202.94 L1735.33 1211.41 Q1736.35 1211.07 1737.37 1210.9 Q1738.39 1210.72 1739.41 1210.72 Q1745.2 1210.72 1748.58 1213.89 Q1751.96 1217.06 1751.96 1222.48 Q1751.96 1228.06 1748.48 1231.16 Q1745.01 1234.24 1738.69 1234.24 Q1736.52 1234.24 1734.25 1233.87 Q1732 1233.5 1729.59 1232.76 L1729.59 1228.06 Q1731.68 1229.19 1733.9 1229.75 Q1736.12 1230.3 1738.6 1230.3 Q1742.6 1230.3 1744.94 1228.2 Q1747.28 1226.09 1747.28 1222.48 Q1747.28 1218.87 1744.94 1216.76 Q1742.6 1214.65 1738.6 1214.65 Q1736.72 1214.65 1734.85 1215.07 Q1733 1215.49 1731.05 1216.37 L1731.05 1199.01 Z" fill="#000000" fill-rule="nonzero" fill-opacity="1" /><path clip-path="url(#clip410)" d="M1771.17 1202.09 Q1767.56 1202.09 1765.73 1205.65 Q1763.92 1209.19 1763.92 1216.32 Q1763.92 1223.43 1765.73 1226.99 Q1767.56 1230.53 1771.17 1230.53 Q1774.8 1230.53 1776.61 1226.99 Q1778.44 1223.43 1778.44 1216.32 Q1778.44 1209.19 1776.61 1205.65 Q1774.8 1202.09 1771.17 1202.09 M1771.17 1198.38 Q1776.98 1198.38 1780.03 1202.99 Q1783.11 1207.57 1783.11 1216.32 Q1783.11 1225.05 1780.03 1229.65 Q1776.98 1234.24 1771.17 1234.24 Q1765.36 1234.24 1762.28 1229.65 Q1759.22 1225.05 1759.22 1216.32 Q1759.22 1207.57 1762.28 1202.99 Q1765.36 1198.38 1771.17 1198.38 Z" fill="#000000" fill-rule="nonzero" fill-opacity="1" /><path clip-path="url(#clip410)" d="M2050.16 1214.42 Q2047.01 1214.42 2045.16 1216.58 Q2043.33 1218.73 2043.33 1222.48 Q2043.33 1226.21 2045.16 1228.38 Q2047.01 1230.53 2050.16 1230.53 Q2053.31 1230.53 2055.14 1228.38 Q2056.99 1226.21 2056.99 1222.48 Q2056.99 1218.73 2055.14 1216.58 Q2053.31 1214.42 2050.16 1214.42 M2059.44 1199.77 L2059.44 1204.03 Q2057.68 1203.2 2055.88 1202.76 Q2054.1 1202.32 2052.34 1202.32 Q2047.71 1202.32 2045.25 1205.44 Q2042.82 1208.57 2042.48 1214.89 Q2043.84 1212.87 2045.9 1211.81 Q2047.96 1210.72 2050.44 1210.72 Q2055.65 1210.72 2058.66 1213.89 Q2061.69 1217.04 2061.69 1222.48 Q2061.69 1227.8 2058.54 1231.02 Q2055.39 1234.24 2050.16 1234.24 Q2044.17 1234.24 2040.99 1229.65 Q2037.82 1225.05 2037.82 1216.32 Q2037.82 1208.13 2041.71 1203.27 Q2045.6 1198.38 2052.15 1198.38 Q2053.91 1198.38 2055.69 1198.73 Q2057.5 1199.08 2059.44 1199.77 Z" fill="#000000" fill-rule="nonzero" fill-opacity="1" /><path clip-path="url(#clip410)" d="M2079.74 1202.09 Q2076.13 1202.09 2074.3 1205.65 Q2072.5 1209.19 2072.5 1216.32 Q2072.5 1223.43 2074.3 1226.99 Q2076.13 1230.53 2079.74 1230.53 Q2083.38 1230.53 2085.18 1226.99 Q2087.01 1223.43 2087.01 1216.32 Q2087.01 1209.19 2085.18 1205.65 Q2083.38 1202.09 2079.74 1202.09 M2079.74 1198.38 Q2085.55 1198.38 2088.61 1202.99 Q2091.69 1207.57 2091.69 1216.32 Q2091.69 1225.05 2088.61 1229.65 Q2085.55 1234.24 2079.74 1234.24 Q2073.93 1234.24 2070.86 1229.65 Q2067.8 1225.05 2067.8 1216.32 Q2067.8 1207.57 2070.86 1202.99 Q2073.93 1198.38 2079.74 1198.38 Z" fill="#000000" fill-rule="nonzero" fill-opacity="1" /><path clip-path="url(#clip410)" d="M1061.42 1266.49 L1101.62 1266.49 L1101.62 1271.91 L1084.76 1271.91 L1084.76 1314.01 L1078.29 1314.01 L1078.29 1271.91 L1061.42 1271.91 L1061.42 1266.49 Z" fill="#000000" fill-rule="nonzero" fill-opacity="1" /><path clip-path="url(#clip410)" d="M1105.57 1278.37 L1111.43 1278.37 L1111.43 1314.01 L1105.57 1314.01 L1105.57 1278.37 M1105.57 1264.49 L1111.43 1264.49 L1111.43 1271.91 L1105.57 1271.91 L1105.57 1264.49 Z" fill="#000000" fill-rule="nonzero" fill-opacity="1" /><path clip-path="url(#clip410)" d="M1151.44 1285.21 Q1153.63 1281.26 1156.69 1279.39 Q1159.74 1277.51 1163.88 1277.51 Q1169.45 1277.51 1172.47 1281.42 Q1175.5 1285.31 1175.5 1292.5 L1175.5 1314.01 L1169.61 1314.01 L1169.61 1292.69 Q1169.61 1287.57 1167.8 1285.08 Q1165.98 1282.6 1162.26 1282.6 Q1157.71 1282.6 1155.06 1285.62 Q1152.42 1288.65 1152.42 1293.87 L1152.42 1314.01 L1146.53 1314.01 L1146.53 1292.69 Q1146.53 1287.53 1144.72 1285.08 Q1142.91 1282.6 1139.12 1282.6 Q1134.63 1282.6 1131.99 1285.66 Q1129.35 1288.68 1129.35 1293.87 L1129.35 1314.01 L1123.46 1314.01 L1123.46 1278.37 L1129.35 1278.37 L1129.35 1283.9 Q1131.35 1280.63 1134.15 1279.07 Q1136.95 1277.51 1140.81 1277.51 Q1144.69 1277.51 1147.39 1279.48 Q1150.13 1281.45 1151.44 1285.21 Z" fill="#000000" fill-rule="nonzero" fill-opacity="1" /><path clip-path="url(#clip410)" d="M1217.67 1294.73 L1217.67 1297.59 L1190.74 1297.59 Q1191.13 1303.64 1194.37 1306.82 Q1197.65 1309.97 1203.48 1309.97 Q1206.85 1309.97 1210 1309.14 Q1213.18 1308.32 1216.3 1306.66 L1216.3 1312.2 Q1213.15 1313.54 1209.84 1314.24 Q1206.53 1314.94 1203.13 1314.94 Q1194.6 1314.94 1189.6 1309.97 Q1184.63 1305.01 1184.63 1296.54 Q1184.63 1287.79 1189.34 1282.66 Q1194.09 1277.51 1202.11 1277.51 Q1209.3 1277.51 1213.47 1282.15 Q1217.67 1286.77 1217.67 1294.73 M1211.81 1293.01 Q1211.75 1288.2 1209.11 1285.34 Q1206.5 1282.47 1202.17 1282.47 Q1197.27 1282.47 1194.31 1285.24 Q1191.38 1288.01 1190.94 1293.04 L1211.81 1293.01 Z" fill="#000000" fill-rule="nonzero" fill-opacity="1" /><polyline clip-path="url(#clip410)" style="stroke:#000000; stroke-linecap:round; stroke-linejoin:round; stroke-width:4; stroke-opacity:1; fill:none" points="214.34,1173.47 214.34,47.2441 "/>
<polyline clip-path="url(#clip410)" style="stroke:#000000; stroke-linecap:round; stroke-linejoin:round; stroke-width:4; stroke-opacity:1; fill:none" points="214.34,1141.6 233.238,1141.6 "/>
<polyline clip-path="url(#clip410)" style="stroke:#000000; stroke-linecap:round; stroke-linejoin:round; stroke-width:4; stroke-opacity:1; fill:none" points="214.34,873.295 233.238,873.295 "/>
<polyline clip-path="url(#clip410)" style="stroke:#000000; stroke-linecap:round; stroke-linejoin:round; stroke-width:4; stroke-opacity:1; fill:none" points="214.34,604.992 233.238,604.992 "/>
<polyline clip-path="url(#clip410)" style="stroke:#000000; stroke-linecap:round; stroke-linejoin:round; stroke-width:4; stroke-opacity:1; fill:none" points="214.34,336.689 233.238,336.689 "/>
<polyline clip-path="url(#clip410)" style="stroke:#000000; stroke-linecap:round; stroke-linejoin:round; stroke-width:4; stroke-opacity:1; fill:none" points="214.34,68.3863 233.238,68.3863 "/>
<path clip-path="url(#clip410)" d="M125.485 1127.4 Q121.873 1127.4 120.045 1130.96 Q118.239 1134.5 118.239 1141.63 Q118.239 1148.74 120.045 1152.3 Q121.873 1155.85 125.485 1155.85 Q129.119 1155.85 130.924 1152.3 Q132.753 1148.74 132.753 1141.63 Q132.753 1134.5 130.924 1130.96 Q129.119 1127.4 125.485 1127.4 M125.485 1123.69 Q131.295 1123.69 134.35 1128.3 Q137.429 1132.88 137.429 1141.63 Q137.429 1150.36 134.35 1154.97 Q131.295 1159.55 125.485 1159.55 Q119.674 1159.55 116.596 1154.97 Q113.54 1150.36 113.54 1141.63 Q113.54 1132.88 116.596 1128.3 Q119.674 1123.69 125.485 1123.69 Z" fill="#000000" fill-rule="nonzero" fill-opacity="1" /><path clip-path="url(#clip410)" d="M145.646 1153 L150.531 1153 L150.531 1158.88 L145.646 1158.88 L145.646 1153 Z" fill="#000000" fill-rule="nonzero" fill-opacity="1" /><path clip-path="url(#clip410)" d="M170.716 1127.4 Q167.105 1127.4 165.276 1130.96 Q163.47 1134.5 163.47 1141.63 Q163.47 1148.74 165.276 1152.3 Q167.105 1155.85 170.716 1155.85 Q174.35 1155.85 176.156 1152.3 Q177.984 1148.74 177.984 1141.63 Q177.984 1134.5 176.156 1130.96 Q174.35 1127.4 170.716 1127.4 M170.716 1123.69 Q176.526 1123.69 179.581 1128.3 Q182.66 1132.88 182.66 1141.63 Q182.66 1150.36 179.581 1154.97 Q176.526 1159.55 170.716 1159.55 Q164.906 1159.55 161.827 1154.97 Q158.771 1150.36 158.771 1141.63 Q158.771 1132.88 161.827 1128.3 Q164.906 1123.69 170.716 1123.69 Z" fill="#000000" fill-rule="nonzero" fill-opacity="1" /><path clip-path="url(#clip410)" d="M126.48 859.093 Q122.869 859.093 121.04 862.658 Q119.235 866.2 119.235 873.329 Q119.235 880.436 121.04 884.001 Q122.869 887.542 126.48 887.542 Q130.114 887.542 131.92 884.001 Q133.748 880.436 133.748 873.329 Q133.748 866.2 131.92 862.658 Q130.114 859.093 126.48 859.093 M126.48 855.39 Q132.29 855.39 135.346 859.996 Q138.424 864.579 138.424 873.329 Q138.424 882.056 135.346 886.663 Q132.29 891.246 126.48 891.246 Q120.67 891.246 117.591 886.663 Q114.536 882.056 114.536 873.329 Q114.536 864.579 117.591 859.996 Q120.67 855.39 126.48 855.39 Z" fill="#000000" fill-rule="nonzero" fill-opacity="1" /><path clip-path="url(#clip410)" d="M146.642 884.695 L151.526 884.695 L151.526 890.575 L146.642 890.575 L146.642 884.695 Z" fill="#000000" fill-rule="nonzero" fill-opacity="1" /><path clip-path="url(#clip410)" d="M161.757 856.015 L180.114 856.015 L180.114 859.95 L166.04 859.95 L166.04 868.422 Q167.058 868.075 168.077 867.913 Q169.095 867.728 170.114 867.728 Q175.901 867.728 179.281 870.899 Q182.66 874.07 182.66 879.487 Q182.66 885.065 179.188 888.167 Q175.716 891.246 169.396 891.246 Q167.22 891.246 164.952 890.876 Q162.707 890.505 160.299 889.764 L160.299 885.065 Q162.382 886.2 164.605 886.755 Q166.827 887.311 169.304 887.311 Q173.308 887.311 175.646 885.204 Q177.984 883.098 177.984 879.487 Q177.984 875.876 175.646 873.769 Q173.308 871.663 169.304 871.663 Q167.429 871.663 165.554 872.079 Q163.702 872.496 161.757 873.376 L161.757 856.015 Z" fill="#000000" fill-rule="nonzero" fill-opacity="1" /><path clip-path="url(#clip410)" d="M116.295 618.337 L123.934 618.337 L123.934 591.971 L115.623 593.638 L115.623 589.379 L123.887 587.712 L128.563 587.712 L128.563 618.337 L136.202 618.337 L136.202 622.272 L116.295 622.272 L116.295 618.337 Z" fill="#000000" fill-rule="nonzero" fill-opacity="1" /><path clip-path="url(#clip410)" d="M145.646 616.392 L150.531 616.392 L150.531 622.272 L145.646 622.272 L145.646 616.392 Z" fill="#000000" fill-rule="nonzero" fill-opacity="1" /><path clip-path="url(#clip410)" d="M170.716 590.791 Q167.105 590.791 165.276 594.355 Q163.47 597.897 163.47 605.027 Q163.47 612.133 165.276 615.698 Q167.105 619.239 170.716 619.239 Q174.35 619.239 176.156 615.698 Q177.984 612.133 177.984 605.027 Q177.984 597.897 176.156 594.355 Q174.35 590.791 170.716 590.791 M170.716 587.087 Q176.526 587.087 179.581 591.693 Q182.66 596.277 182.66 605.027 Q182.66 613.753 179.581 618.36 Q176.526 622.943 170.716 622.943 Q164.906 622.943 161.827 618.36 Q158.771 613.753 158.771 605.027 Q158.771 596.277 161.827 591.693 Q164.906 587.087 170.716 587.087 Z" fill="#000000" fill-rule="nonzero" fill-opacity="1" /><path clip-path="url(#clip410)" d="M117.29 350.034 L124.929 350.034 L124.929 323.668 L116.619 325.335 L116.619 321.076 L124.883 319.409 L129.559 319.409 L129.559 350.034 L137.197 350.034 L137.197 353.969 L117.29 353.969 L117.29 350.034 Z" fill="#000000" fill-rule="nonzero" fill-opacity="1" /><path clip-path="url(#clip410)" d="M146.642 348.089 L151.526 348.089 L151.526 353.969 L146.642 353.969 L146.642 348.089 Z" fill="#000000" fill-rule="nonzero" fill-opacity="1" /><path clip-path="url(#clip410)" d="M161.757 319.409 L180.114 319.409 L180.114 323.344 L166.04 323.344 L166.04 331.816 Q167.058 331.469 168.077 331.307 Q169.095 331.122 170.114 331.122 Q175.901 331.122 179.281 334.293 Q182.66 337.465 182.66 342.881 Q182.66 348.46 179.188 351.562 Q175.716 354.64 169.396 354.64 Q167.22 354.64 164.952 354.27 Q162.707 353.9 160.299 353.159 L160.299 348.46 Q162.382 349.594 164.605 350.15 Q166.827 350.705 169.304 350.705 Q173.308 350.705 175.646 348.599 Q177.984 346.492 177.984 342.881 Q177.984 339.27 175.646 337.164 Q173.308 335.057 169.304 335.057 Q167.429 335.057 165.554 335.474 Q163.702 335.89 161.757 336.77 L161.757 319.409 Z" fill="#000000" fill-rule="nonzero" fill-opacity="1" /><path clip-path="url(#clip410)" d="M119.512 81.7312 L135.832 81.7312 L135.832 85.6663 L113.887 85.6663 L113.887 81.7312 Q116.549 78.9765 121.133 74.3469 Q125.739 69.6942 126.92 68.3516 Q129.165 65.8285 130.045 64.0924 Q130.947 62.3331 130.947 60.6433 Q130.947 57.8887 129.003 56.1526 Q127.082 54.4165 123.98 54.4165 Q121.781 54.4165 119.327 55.1804 Q116.897 55.9443 114.119 57.4952 L114.119 52.773 Q116.943 51.6387 119.397 51.06 Q121.85 50.4813 123.887 50.4813 Q129.258 50.4813 132.452 53.1665 Q135.647 55.8517 135.647 60.3424 Q135.647 62.472 134.836 64.3933 Q134.049 66.2914 131.943 68.884 Q131.364 69.5553 128.262 72.7729 Q125.16 75.9673 119.512 81.7312 Z" fill="#000000" fill-rule="nonzero" fill-opacity="1" /><path clip-path="url(#clip410)" d="M145.646 79.7867 L150.531 79.7867 L150.531 85.6663 L145.646 85.6663 L145.646 79.7867 Z" fill="#000000" fill-rule="nonzero" fill-opacity="1" /><path clip-path="url(#clip410)" d="M170.716 54.185 Q167.105 54.185 165.276 57.7498 Q163.47 61.2915 163.47 68.421 Q163.47 75.5275 165.276 79.0923 Q167.105 82.6339 170.716 82.6339 Q174.35 82.6339 176.156 79.0923 Q177.984 75.5275 177.984 68.421 Q177.984 61.2915 176.156 57.7498 Q174.35 54.185 170.716 54.185 M170.716 50.4813 Q176.526 50.4813 179.581 55.0878 Q182.66 59.6711 182.66 68.421 Q182.66 77.1479 179.581 81.7543 Q176.526 86.3376 170.716 86.3376 Q164.906 86.3376 161.827 81.7543 Q158.771 77.1479 158.771 68.421 Q158.771 59.6711 161.827 55.0878 Q164.906 50.4813 170.716 50.4813 Z" fill="#000000" fill-rule="nonzero" fill-opacity="1" /><path clip-path="url(#clip410)" d="M20.0842 738.085 L20.0842 729.428 L59.838 708.357 L20.0842 708.357 L20.0842 702.119 L67.6042 702.119 L67.6042 710.776 L27.8503 731.847 L67.6042 731.847 L67.6042 738.085 L20.0842 738.085 Z" fill="#000000" fill-rule="nonzero" fill-opacity="1" /><path clip-path="url(#clip410)" d="M53.5359 690.183 L31.9562 690.183 L31.9562 684.327 L53.3131 684.327 Q58.3739 684.327 60.9202 682.354 Q63.4346 680.38 63.4346 676.433 Q63.4346 671.691 60.4109 668.954 Q57.3872 666.185 52.1673 666.185 L31.9562 666.185 L31.9562 660.328 L67.6042 660.328 L67.6042 666.185 L62.1296 666.185 Q65.3762 668.317 66.9676 671.15 Q68.5272 673.951 68.5272 677.675 Q68.5272 683.818 64.7078 687.001 Q60.8883 690.183 53.5359 690.183 M31.0968 675.447 L31.0968 675.447 Z" fill="#000000" fill-rule="nonzero" fill-opacity="1" /><path clip-path="url(#clip410)" d="M38.7993 620.511 Q34.8526 618.315 32.9747 615.259 Q31.0968 612.203 31.0968 608.066 Q31.0968 602.496 35.0117 599.472 Q38.8948 596.448 46.0881 596.448 L67.6042 596.448 L67.6042 602.337 L46.279 602.337 Q41.1546 602.337 38.672 604.151 Q36.1894 605.965 36.1894 609.689 Q36.1894 614.241 39.2131 616.882 Q42.2368 619.524 47.4567 619.524 L67.6042 619.524 L67.6042 625.412 L46.279 625.412 Q41.1228 625.412 38.672 627.227 Q36.1894 629.041 36.1894 632.828 Q36.1894 637.316 39.2449 639.958 Q42.2686 642.6 47.4567 642.6 L67.6042 642.6 L67.6042 648.488 L31.9562 648.488 L31.9562 642.6 L37.4944 642.6 Q34.216 640.595 32.6564 637.794 Q31.0968 634.993 31.0968 631.141 Q31.0968 627.258 33.0702 624.553 Q35.0436 621.816 38.7993 620.511 Z" fill="#000000" fill-rule="nonzero" fill-opacity="1" /><path clip-path="url(#clip410)" d="M49.812 559.177 Q43.3508 559.177 39.6905 561.851 Q35.9984 564.493 35.9984 569.139 Q35.9984 573.786 39.6905 576.46 Q43.3508 579.102 49.812 579.102 Q56.2732 579.102 59.9653 576.46 Q63.6256 573.786 63.6256 569.139 Q63.6256 564.493 59.9653 561.851 Q56.2732 559.177 49.812 559.177 M37.3671 579.102 Q34.1842 577.256 32.6564 574.455 Q31.0968 571.622 31.0968 567.707 Q31.0968 561.214 36.2531 557.172 Q41.4093 553.098 49.812 553.098 Q58.2147 553.098 63.371 557.172 Q68.5272 561.214 68.5272 567.707 Q68.5272 571.622 66.9994 574.455 Q65.4398 577.256 62.257 579.102 L67.6042 579.102 L67.6042 584.99 L18.079 584.99 L18.079 579.102 L37.3671 579.102 Z" fill="#000000" fill-rule="nonzero" fill-opacity="1" /><path clip-path="url(#clip410)" d="M48.3161 512.898 L51.1806 512.898 L51.1806 539.825 Q57.2281 539.443 60.4109 536.197 Q63.5619 532.919 63.5619 527.094 Q63.5619 523.72 62.7344 520.569 Q61.9069 517.386 60.2518 514.267 L65.7899 514.267 Q67.1267 517.418 67.827 520.728 Q68.5272 524.038 68.5272 527.444 Q68.5272 535.974 63.5619 540.971 Q58.5967 545.936 50.1303 545.936 Q41.3774 545.936 36.2531 541.226 Q31.0968 536.483 31.0968 528.463 Q31.0968 521.269 35.7438 517.1 Q40.3589 512.898 48.3161 512.898 M46.5973 518.755 Q41.7912 518.819 38.9266 521.46 Q36.0621 524.07 36.0621 528.399 Q36.0621 533.301 38.8312 536.261 Q41.6002 539.189 46.6292 539.634 L46.5973 518.755 Z" fill="#000000" fill-rule="nonzero" fill-opacity="1" /><path clip-path="url(#clip410)" d="M37.4307 482.63 Q36.8578 483.616 36.6032 484.794 Q36.3167 485.94 36.3167 487.34 Q36.3167 492.305 39.5632 494.979 Q42.7779 497.621 48.8253 497.621 L67.6042 497.621 L67.6042 503.509 L31.9562 503.509 L31.9562 497.621 L37.4944 497.621 Q34.2479 495.775 32.6883 492.815 Q31.0968 489.855 31.0968 485.621 Q31.0968 485.017 31.1923 484.285 Q31.256 483.553 31.4151 482.661 L37.4307 482.63 Z" fill="#000000" fill-rule="nonzero" fill-opacity="1" /><polyline clip-path="url(#clip412)" style="stroke:#009af9; stroke-linecap:round; stroke-linejoin:round; stroke-width:6; stroke-opacity:1; fill:none" points="214.34,79.1184 217.424,79.6497 220.508,80.1937 223.592,80.7507 226.676,81.321 229.76,81.9049 232.844,82.5028 235.928,83.1149 239.012,83.7415 242.096,84.383 245.18,85.0396 248.264,85.7118 251.348,86.3998 254.432,87.104 257.517,87.8248 260.601,88.5624 263.685,89.3172 266.769,90.0897 269.853,90.8801 272.937,91.6889 276.021,92.5165 279.105,93.3631 282.189,94.2293 285.273,95.1154 288.357,96.0218 291.441,96.9489 294.525,97.8972 297.609,98.867 300.693,99.8589 303.777,100.873 306.861,101.91 309.945,102.971 313.029,104.055 316.113,105.163 319.197,106.296 322.281,107.454 325.365,108.638 328.449,109.848 331.533,111.084 334.617,112.347 337.701,113.638 340.785,114.957 343.869,116.304 346.953,117.68 350.037,119.086 353.121,120.521 356.205,121.987 359.289,123.484 362.373,125.012 365.457,126.573 368.541,128.165 371.625,129.791 374.71,131.45 377.794,133.143 380.878,134.871 383.962,136.633 387.046,138.431 390.13,140.265 393.214,142.135 396.298,144.042 399.382,145.987 402.466,147.97 405.55,149.99 408.634,152.05 411.718,154.149 414.802,156.288 417.886,158.467 420.97,160.686 424.054,162.947 427.138,165.249 430.222,167.593 433.306,169.979 436.39,172.408 439.474,174.88 442.558,177.396 445.642,179.955 448.726,182.558 451.81,185.205 454.894,187.898 457.978,190.635 461.062,193.417 464.146,196.245 467.23,199.118 470.314,202.037 473.398,205.002 476.482,208.013 479.566,211.071 482.65,214.174 485.734,217.325 488.818,220.521 491.903,223.765 494.987,227.054 498.071,230.39 501.155,233.773 504.239,237.201 507.323,240.676 510.407,244.197 513.491,247.764 516.575,251.376 519.659,255.033 522.743,258.735 525.827,262.482 528.911,266.274 531.995,270.109 535.079,273.987 538.163,277.909 541.247,281.873 544.331,285.879 547.415,289.926 550.499,294.014 553.583,298.142 556.667,302.31 559.751,306.516 562.835,310.761 565.919,315.042 569.003,319.36 572.087,323.713 575.171,328.1 578.255,332.522 581.339,336.976 584.423,341.462 587.507,345.978 590.591,350.524 593.675,355.099 596.759,359.701 599.843,364.329 602.927,368.983 606.011,373.661 609.096,378.361 612.18,383.083 615.264,387.825 618.348,392.587 621.432,397.366 624.516,402.162 627.6,406.972 630.684,411.797 633.768,416.634 636.852,421.483 639.936,426.341 643.02,431.207 646.104,436.081 649.188,440.96 652.272,445.843 655.356,449.715 658.44,452.147 661.524,454.549 664.608,456.921 667.692,459.264 670.776,461.577 673.86,463.862 676.944,466.118 680.028,468.346 683.112,470.546 686.196,472.718 689.28,474.863 692.364,476.981 695.448,479.072 698.532,481.136 701.616,483.175 704.7,485.188 707.784,487.175 710.868,489.137 713.952,491.074 717.036,492.986 720.12,494.874 723.204,496.738 726.289,498.578 729.373,500.394 732.457,502.187 735.541,503.957 738.625,505.705 741.709,507.43 744.793,509.132 747.877,510.813 750.961,512.472 754.045,514.11 757.129,515.726 760.213,517.322 763.297,518.897 766.381,520.452 769.465,521.986 772.549,523.5 775.633,524.995 778.717,526.471 781.801,527.927 784.885,529.364 787.969,530.783 791.053,532.183 794.137,533.564 797.221,534.928 800.305,536.274 803.389,537.603 806.473,538.914 809.557,540.208 812.641,541.484 815.725,542.745 818.809,543.988 821.893,545.216 824.977,546.427 828.061,547.623 831.145,548.802 834.229,549.967 837.313,551.116 840.397,552.25 843.482,553.369 846.566,554.473 849.65,555.563 852.734,556.638 855.818,557.699 858.902,558.747 861.986,559.78 865.07,560.8 868.154,561.806 871.238,562.8 874.322,563.78 877.406,564.747 880.49,565.701 883.574,566.643 886.658,567.572 889.742,568.489 892.826,569.394 895.91,570.287 898.994,571.169 902.078,572.038 905.162,572.896 908.246,573.743 911.33,574.579 914.414,575.403 917.498,576.217 920.582,577.019 923.666,577.812 926.75,578.593 929.834,579.365 932.918,580.126 936.002,580.877 939.086,581.618 942.17,582.349 945.254,583.071 948.338,583.783 951.422,584.486 954.506,585.179 957.59,585.863 960.675,586.538 963.759,587.204 966.843,587.862 969.927,588.51 973.011,589.15 976.095,589.782 979.179,590.405 982.263,591.02 985.347,591.626 988.431,592.225 991.515,592.816 994.599,593.399 997.683,593.974 1000.77,594.541 1003.85,595.101 1006.93,595.654 1010.02,596.199 1013.1,596.737 1016.19,597.268 1019.27,597.792 1022.36,598.309 1025.44,598.819 1028.52,599.322 1031.61,599.818 1034.69,600.308 1037.78,600.792 1040.86,601.269 1043.94,601.74 1047.03,602.204 1050.11,602.662 1053.2,603.115 1056.28,603.561 1059.36,604.001 1062.45,604.436 1065.53,604.864 1068.62,605.287 1071.7,605.705 1074.78,606.116 1077.87,606.523 1080.95,606.924 1084.04,607.319 1087.12,607.71 1090.2,608.095 1093.29,608.475 1096.37,608.85 1099.46,609.22 1102.54,609.585 1105.62,609.946 1108.71,610.301 1111.79,610.652 1114.88,610.998 1117.96,611.34 1121.04,611.677 1124.13,612.009 1127.21,612.338 1130.3,612.661 1133.38,612.981 1136.46,613.296 1139.55,613.607 1142.63,613.914 1145.72,614.217 1148.8,614.516 1151.88,614.811 1154.97,615.102 1158.05,615.389 1161.14,615.672 1164.22,615.952 1167.3,616.227 1170.39,616.5 1173.47,616.768 1176.56,617.033 1179.64,617.295 1182.72,617.553 1185.81,617.807 1188.89,618.058 1191.98,618.306 1195.06,618.551 1198.14,618.792 1201.23,619.03 1204.31,619.265 1207.4,619.497 1210.48,619.726 1213.56,619.952 1216.65,620.174 1219.73,620.394 1222.82,620.611 1225.9,620.825 1228.98,621.036 1232.07,621.245 1235.15,621.45 1238.24,621.653 1241.32,621.853 1244.4,622.051 1247.49,622.246 1250.57,622.438 1253.66,622.628 1256.74,622.815 1259.83,623 1262.91,623.182 1265.99,623.362 1269.08,623.54 1272.16,623.788 1275.25,624.135 1278.33,624.482 1281.41,624.828 1284.5,625.174 1287.58,625.519 1290.67,625.864 1293.75,626.208 1296.83,626.551 1299.92,626.894 1303,627.236 1306.09,627.578 1309.17,627.919 1312.25,628.26 1315.34,628.6 1318.42,628.939 1321.51,629.278 1324.59,629.616 1327.67,629.954 1330.76,630.291 1333.84,630.627 1336.93,630.963 1340.01,631.298 1343.09,631.632 1346.18,631.966 1349.26,632.299 1352.35,632.632 1355.43,632.964 1358.51,633.295 1361.6,633.626 1364.68,633.956 1367.77,634.285 1370.85,634.614 1373.93,634.942 1377.02,635.269 1380.1,635.596 1383.19,635.922 1386.27,636.248 1389.35,636.572 1392.44,636.896 1395.52,637.22 1398.61,637.542 1401.69,637.864 1404.77,638.185 1407.86,638.506 1410.94,638.826 1414.03,639.145 1417.11,639.463 1420.19,639.781 1423.28,640.098 1426.36,640.415 1429.45,640.73 1432.53,641.045 1435.61,641.359 1438.7,641.673 1441.78,641.985 1444.87,642.297 1447.95,642.608 1451.03,642.919 1454.12,643.229 1457.2,643.538 1460.29,643.846 1463.37,644.154 1466.45,644.46 1469.54,644.766 1472.62,645.072 1475.71,645.376 1478.79,645.68 1481.87,645.983 1484.96,646.285 1488.04,646.587 1491.13,646.888 1494.21,647.188 1497.3,647.487 1500.38,647.785 1503.46,648.083 1506.55,648.38 1509.63,648.676 1512.72,648.971 1515.8,649.266 1518.88,649.56 1521.97,649.853 1525.05,650.145 1528.14,650.436 1531.22,650.727 1534.3,651.017 1537.39,651.306 1540.47,651.594 1543.56,651.882 1546.64,652.169 1549.72,652.455 1552.81,652.74 1555.89,653.024 1558.98,653.307 1562.06,653.59 1565.14,653.872 1568.23,654.153 1571.31,654.434 1574.4,654.713 1577.48,654.992 1580.56,655.27 1583.65,655.547 1586.73,655.823 1589.82,656.099 1592.9,656.373 1595.98,656.647 1599.07,656.92 1602.15,657.193 1605.24,657.464 1608.32,657.735 1611.4,658.005 1614.49,658.274 1617.57,658.542 1620.66,658.809 1623.74,659.076 1626.82,659.341 1629.91,659.606 1632.99,659.87 1636.08,660.134 1639.16,660.396 1642.24,660.658 1645.33,660.919 1648.41,661.179 1651.5,661.438 1654.58,661.696 1657.66,661.954 1660.75,662.211 1663.83,662.467 1666.92,662.722 1670,662.976 1673.08,663.23 1676.17,663.482 1679.25,663.734 1682.34,663.985 1685.42,664.235 1688.5,664.485 1691.59,664.733 1694.67,664.981 1697.76,665.228 1700.84,665.474 1703.92,665.72 1707.01,665.964 1710.09,666.208 1713.18,666.451 1716.26,666.693 1719.34,666.934 1722.43,667.174 1725.51,667.414 1728.6,667.653 1731.68,667.891 1734.77,668.128 1737.85,668.364 1740.93,668.6 1744.02,668.834 1747.1,669.068 1750.19,669.301 1753.27,669.534 1756.35,669.765 1759.44,669.996 1762.52,670.226 1765.61,670.455 1768.69,670.683 1771.77,670.91 1774.86,671.137 1777.94,671.363 1781.03,671.588 1784.11,671.812 1787.19,672.035 1790.28,672.258 1793.36,672.48 1796.45,672.701 1799.53,672.921 1802.61,673.14 1805.7,673.359 1808.78,673.577 1811.87,673.794 1814.95,674.01 1818.03,674.225 1821.12,674.44 1824.2,674.654 1827.29,674.867 1830.37,675.079 1833.45,675.291 1836.54,675.502 1839.62,675.711 1842.71,675.921 1845.79,676.129 1848.87,676.337 1851.96,676.543 1855.04,676.749 1858.13,676.955 1861.21,677.159 1864.29,677.363 1867.38,677.566 1870.46,677.768 1873.55,677.969 1876.63,678.17 1879.71,678.37 1882.8,678.569 1885.88,678.767 1888.97,678.964 1892.05,679.161 1895.13,679.357 1898.22,679.552 1901.3,679.747 1904.39,679.941 1907.47,680.134 1910.55,680.326 1913.64,680.517 1916.72,680.708 1919.81,680.898 1922.89,681.087 1925.97,681.276 1929.06,681.463 1932.14,681.65 1935.23,681.837 1938.31,682.022 1941.39,682.207 1944.48,682.391 1947.56,682.574 1950.65,682.757 1953.73,682.939 1956.81,683.12 1959.9,683.3 1962.98,683.48 1966.07,683.659 1969.15,683.837 1972.24,684.014 1975.32,684.191 1978.4,684.367 1981.49,684.542 1984.57,684.717 1987.66,684.891 1990.74,685.064 1993.82,685.236 1996.91,685.408 1999.99,685.579 2003.08,685.749 2006.16,685.919 2009.24,686.088 2012.33,686.256 2015.41,686.424 2018.5,686.591 2021.58,686.757 2024.66,686.922 2027.75,687.087 2030.83,687.251 2033.92,687.414 2037,687.577 2040.08,687.739 2043.17,687.901 2046.25,688.061 2049.34,688.221 2052.42,688.381 2055.5,688.539 2058.59,688.697 2061.67,688.854 2064.76,689.011 2067.84,689.167 2070.92,689.322 2074.01,689.477 2077.09,689.631 2080.18,689.784 2083.26,689.937 2086.34,690.089 2089.43,690.24 2092.51,690.391 2095.6,690.541 2098.68,690.69 2101.76,690.839 2104.85,690.987 2107.93,691.135 2111.02,691.282 2114.1,691.428 2117.18,691.573 2120.27,691.718 2123.35,691.863 2126.44,692.006 2129.52,692.149 2132.6,692.292 2135.69,692.434 2138.77,692.575 2141.86,692.715 2144.94,692.855 2148.02,692.995 2151.11,693.133 2154.19,693.271 2157.28,693.409 2160.36,693.546 2163.44,693.682 2166.53,693.818 2169.61,693.953 2172.7,694.087 2175.78,694.221 2178.86,694.354 2181.95,694.487 2185.03,694.619 2188.12,694.751 2191.2,694.882 2194.29,695.012 2197.37,695.142 2200.45,695.271 2203.54,695.399 2206.62,695.527 2209.71,695.655 2212.79,695.782 2215.87,695.908 2218.96,696.034 2222.04,696.159 2225.13,696.283 2228.21,696.407 2231.29,696.531 2234.38,696.654 2237.46,696.776 2240.55,696.898 2243.63,697.019 2246.71,697.14 2249.8,697.26 2252.88,697.38 2255.97,697.499 2259.05,697.617 2262.13,697.735 2265.22,697.852 2268.3,697.969 2271.39,698.086 2274.47,698.201 2277.55,698.317 2280.64,698.431 2283.72,698.546 2286.81,698.659 2289.89,698.773 2292.97,698.885 2296.06,698.997 2299.14,699.109 2302.23,699.22 2305.31,699.33 2308.39,699.441 2311.48,699.55 2314.56,699.659 2317.65,699.768 2320.73,699.876 2323.81,699.983 2326.9,700.09 2329.98,700.197 2333.07,700.303 2336.15,700.408 2339.23,700.513 2342.32,700.618 2345.4,700.722 2348.49,700.825 2351.57,700.928 2354.65,701.031 2357.74,701.133 2360.82,701.235 2363.91,701.336 2366.99,701.437 2370.07,701.537 2373.16,701.637 2376.24,701.736 2379.33,701.835 2382.41,701.933 2385.49,702.031 2388.58,702.128 2391.66,702.225 2394.75,702.321 2397.83,702.418 2400.91,702.513 2404,702.608 2407.08,702.703 2410.17,702.797 2413.25,702.891 2416.33,702.984 2419.42,703.077 2422.5,703.169 2425.59,703.261 2428.67,703.353 2431.76,703.444 2434.84,703.535 2437.92,703.625 2441.01,703.715 2444.09,703.804 2447.18,703.893 2450.26,703.981 2453.34,704.069 2456.43,704.157 2459.51,704.244 2462.6,704.331 2465.68,704.417 2468.76,704.503 2471.85,704.589 2474.93,704.674 2478.02,704.759 2481.1,704.843 2484.18,704.927 2487.27,705.011 2490.35,705.094 2493.44,705.176 2496.52,705.259 2499.6,705.341 2502.69,705.422 2505.77,705.503 2508.86,705.584 2511.94,705.664 2515.02,705.744 2518.11,705.824 2521.19,705.903 2524.28,705.982 2527.36,706.06 2530.44,706.138 2533.53,706.216 2536.61,706.293 2539.7,706.37 2542.78,706.446 2545.86,706.522 2548.95,706.598 2552.03,706.673 2555.12,706.748 2558.2,706.823 2561.28,706.897 2564.37,706.971 2567.45,707.045 2570.54,707.118 2573.62,707.191 2576.7,707.263 2579.79,707.335 2582.87,707.407 2585.96,707.478 2589.04,707.549 2592.12,707.62 2595.21,707.69 2598.29,707.76 2601.38,707.83 2604.46,707.899 2607.54,707.968 2610.63,708.037 2613.71,708.105 2616.8,708.173 2619.88,708.24 2622.96,708.308 2626.05,708.375 2629.13,708.441 2632.22,708.507 2635.3,708.573 2638.38,708.639 2641.47,708.704 2644.55,708.769 2647.64,708.834 2650.72,708.898 2653.8,708.962 2656.89,709.026 2659.97,709.089 2663.06,709.152 2666.14,709.215 2669.23,709.277 2672.31,709.339 2675.39,709.401 2678.48,709.463 2681.56,709.524 2684.65,709.585 2687.73,709.645 2690.81,709.705 2693.9,709.765 2696.98,709.825 2700.07,709.884 2703.15,709.943 2706.23,710.002 2709.32,710.061 2712.4,710.119 2715.49,710.177 2718.57,710.234 2721.65,710.292 2724.74,710.349 2727.82,710.405 2730.91,710.462 2733.99,710.518 2737.07,710.574 2740.16,710.629 2743.24,710.685 2746.33,710.74 2749.41,710.794 2752.49,710.849 2755.58,710.903 2758.66,710.957 2761.75,711.011 2764.83,711.064 2767.91,711.117 2771,711.17 2774.08,711.222 2777.17,711.275 2780.25,711.327 2783.33,711.378 2786.42,711.43 2789.5,711.481 2792.59,711.532 2795.67,711.583 2798.75,711.633 2801.84,711.684 2804.92,711.734 2808.01,711.783 2811.09,711.833 2814.17,711.882 2817.26,711.931 2820.34,711.98 2823.43,712.028 2826.51,712.076 2829.59,712.124 2832.68,712.172 2835.76,712.219 2838.85,712.267 2841.93,712.314 2845.01,712.36 2848.1,712.407 2851.18,712.453 2854.27,712.499 2857.35,712.545 2860.43,712.59 2863.52,712.636 2866.6,712.681 2869.69,712.726 2872.77,712.77 2875.85,712.815 2878.94,712.859 2882.02,712.903 2885.11,712.947 2888.19,712.99 2891.27,713.033 2894.36,713.076 2897.44,713.119 2900.53,713.162 2903.61,713.204 2906.7,713.247 2909.78,713.288 2912.86,713.33 2915.95,713.372 2919.03,713.413 2922.12,713.454 2925.2,713.495 2928.28,713.536 2931.37,713.576 2934.45,713.616 2937.54,713.657 2940.62,713.696 2943.7,713.736 2946.79,713.775 2949.87,713.815 2952.96,713.854 2956.04,713.893 2959.12,713.931 2962.21,713.97 2965.29,714.008 2968.38,714.046 2971.46,714.084 2974.54,714.121 2977.63,714.159 2980.71,714.196 2983.8,714.233 2986.88,714.27 2989.96,714.307 2993.05,714.343 2996.13,714.38 2999.22,714.416 3002.3,714.452 3005.38,714.487 3008.47,714.523 3011.55,714.558 3014.64,714.593 3017.72,714.629 3020.8,714.663 3023.89,714.698 3026.97,714.732 3030.06,714.767 3033.14,714.801 3036.22,714.835 3039.31,714.869 3042.39,714.902 3045.48,714.936 3048.56,714.969 3051.64,715.002 3054.73,715.035 3057.81,715.067 3060.9,715.1 3063.98,715.132 3067.06,715.165 3070.15,715.197 3073.23,715.228 3076.32,715.26 3079.4,715.292 3082.48,715.323 3085.57,715.354 3088.65,715.385 3091.74,715.416 3094.82,715.447 3097.9,715.478 3100.99,715.508 3104.07,715.538 3107.16,715.568 3110.24,715.598 3113.32,715.628 3116.41,715.658 3119.49,715.687 3122.58,715.716 3125.66,715.746 3128.74,715.775 3131.83,715.803 3134.91,715.832 3138,715.861 3141.08,715.889 3144.17,715.917 3147.25,715.945 3150.33,715.973 3153.42,716.001 3156.5,716.029 3159.59,716.056 3162.67,716.084 3165.75,716.111 3168.84,716.138 3171.92,716.165 3175.01,716.192 3178.09,716.219 3181.17,716.245 3184.26,716.272 3187.34,716.298 3190.43,716.324 3193.51,716.35 3196.59,716.376 3199.68,716.401 3202.76,716.427 3205.85,716.452 3208.93,716.478 3212.01,716.503 3215.1,716.528 3218.18,716.553 3221.27,716.578 3224.35,716.602 3227.43,716.627 3230.52,716.651 3233.6,716.675 3236.69,716.7 3239.77,716.724 3242.85,716.747 3245.94,716.771 3249.02,716.795 3252.11,716.818 3255.19,716.842 3258.27,716.865 3261.36,716.888 3264.44,716.911 3267.53,716.934 3270.61,716.957 3273.69,716.979 3276.78,717.002 3279.86,717.024 3282.95,717.047 3286.03,717.069 3289.11,717.091 3292.2,717.113 3295.28,717.135 3298.37,717.156 "/>
<polyline clip-path="url(#clip412)" style="stroke:#e26f46; stroke-linecap:round; stroke-linejoin:round; stroke-width:6; stroke-opacity:1; fill:none" points="214.34,79.1206 217.424,79.6519 220.508,80.1958 223.592,80.7529 226.676,81.3232 229.76,81.9071 232.844,82.505 235.928,83.1171 239.012,83.7437 242.096,84.3852 245.18,85.0419 248.264,85.714 251.348,86.4021 254.432,87.1063 257.517,87.827 260.601,88.5646 263.685,89.3195 266.769,90.092 269.853,90.8824 272.937,91.6912 276.021,92.5188 279.105,93.3654 282.189,94.2316 285.273,95.1177 288.357,96.0241 291.441,96.9512 294.525,97.8995 297.609,98.8693 300.693,99.8612 303.777,100.875 306.861,101.913 309.945,102.973 313.029,104.057 316.113,105.165 319.197,106.298 322.281,107.457 325.365,108.64 328.449,109.85 331.533,111.086 334.617,112.35 337.701,113.64 340.785,114.959 343.869,116.306 346.953,117.683 350.037,119.088 353.121,120.524 356.205,121.99 359.289,123.487 362.373,125.015 365.457,126.575 368.541,128.168 371.625,129.794 374.71,131.453 377.794,133.146 380.878,134.873 383.962,136.636 387.046,138.434 390.13,140.268 393.214,142.138 396.298,144.045 399.382,145.99 402.466,147.972 405.55,149.993 408.634,152.053 411.718,154.152 414.802,156.291 417.886,158.47 420.97,160.689 424.054,162.95 427.138,165.252 430.222,167.596 433.306,169.982 436.39,172.411 439.474,174.883 442.558,177.399 445.642,179.958 448.726,182.561 451.81,185.208 454.894,187.901 457.978,190.638 461.062,193.42 464.146,196.248 467.23,199.121 470.314,202.04 473.398,205.005 476.482,208.017 479.566,211.074 482.65,214.178 485.734,217.328 488.818,220.525 491.903,223.768 494.987,227.058 498.071,230.394 501.155,233.777 504.239,237.205 507.323,240.68 510.407,244.201 513.491,247.768 516.575,251.38 519.659,255.037 522.743,258.74 525.827,262.487 528.911,266.278 531.995,270.113 535.079,273.992 538.163,277.914 541.247,281.878 544.331,285.884 547.415,289.931 550.499,294.02 553.583,298.148 556.667,302.316 559.751,306.522 562.835,310.767 565.919,315.048 569.003,319.366 572.087,323.719 575.171,328.107 578.255,332.529 581.339,336.983 584.423,341.47 587.507,345.986 590.591,350.533 593.675,355.108 596.759,359.711 599.843,364.34 602.927,368.994 606.011,373.672 609.096,378.373 612.18,383.096 615.264,387.84 618.348,392.602 621.432,397.383 624.516,402.18 627.6,406.993 630.684,411.821 633.768,416.662 636.852,421.515 639.936,426.38 643.02,431.257 646.104,436.148 649.188,441.066 652.272,590.377 655.356,795.567 658.44,796.811 661.524,798.027 664.608,799.222 667.692,800.399 670.776,801.56 673.86,802.705 676.944,803.836 680.028,804.952 683.112,806.053 686.196,807.141 689.28,808.214 692.364,809.274 695.448,810.32 698.532,811.354 701.616,812.374 704.7,813.38 707.784,814.375 710.868,815.356 713.952,816.325 717.036,817.281 720.12,818.226 723.204,819.158 726.289,820.078 729.373,820.987 732.457,821.883 735.541,822.769 738.625,823.643 741.709,824.505 744.793,825.357 747.877,826.197 750.961,827.027 754.045,827.846 757.129,828.654 760.213,829.452 763.297,830.24 766.381,831.017 769.465,831.785 772.549,832.542 775.633,833.289 778.717,834.027 781.801,834.755 784.885,835.474 787.969,836.183 791.053,836.883 794.137,837.574 797.221,838.256 800.305,838.929 803.389,839.594 806.473,840.249 809.557,840.896 812.641,841.535 815.725,842.165 818.809,842.787 821.893,843.4 824.977,844.006 828.061,844.604 831.145,845.194 834.229,845.776 837.313,846.351 840.397,846.917 843.482,847.477 846.566,848.029 849.65,848.574 852.734,849.112 855.818,849.642 858.902,850.166 861.986,850.683 865.07,851.193 868.154,851.696 871.238,852.193 874.322,852.683 877.406,853.166 880.49,853.643 883.574,854.114 886.658,854.579 889.742,855.037 892.826,855.49 895.91,855.936 898.994,856.377 902.078,856.812 905.162,857.241 908.246,857.664 911.33,858.082 914.414,858.494 917.498,858.901 920.582,859.302 923.666,859.698 926.75,860.089 929.834,860.475 932.918,860.855 936.002,861.231 939.086,861.601 942.17,861.967 945.254,862.328 948.338,862.684 951.422,863.035 954.506,863.382 957.59,863.724 960.675,864.061 963.759,864.394 966.843,864.723 969.927,865.047 973.011,865.367 976.095,865.682 979.179,865.994 982.263,866.301 985.347,866.605 988.431,866.904 991.515,867.199 994.599,867.491 997.683,867.778 1000.77,868.062 1003.85,868.342 1006.93,868.618 1010.02,868.89 1013.1,869.159 1016.19,869.425 1019.27,869.686 1022.36,869.945 1025.44,870.2 1028.52,870.451 1031.61,870.699 1034.69,870.944 1037.78,871.186 1040.86,871.424 1043.94,871.66 1047.03,871.892 1050.11,872.121 1053.2,872.347 1056.28,872.57 1059.36,872.79 1062.45,873.007 1065.53,873.221 1068.62,873.432 1071.7,873.641 1074.78,873.847 1077.87,874.05 1080.95,874.25 1084.04,874.448 1087.12,874.643 1090.2,874.835 1093.29,875.025 1096.37,875.212 1099.46,875.397 1102.54,875.579 1105.62,875.759 1108.71,875.937 1111.79,876.112 1114.88,876.285 1117.96,876.455 1121.04,876.624 1124.13,876.79 1127.21,876.953 1130.3,877.115 1133.38,877.274 1136.46,877.432 1139.55,877.587 1142.63,877.74 1145.72,877.891 1148.8,878.04 1151.88,878.187 1154.97,878.332 1158.05,878.475 1161.14,878.616 1164.22,878.756 1167.3,878.893 1170.39,879.028 1173.47,879.162 1176.56,879.294 1179.64,879.424 1182.72,879.552 1185.81,879.679 1188.89,879.803 1191.98,879.926 1195.06,880.048 1198.14,880.167 1201.23,880.285 1204.31,880.402 1207.4,880.516 1210.48,880.629 1213.56,880.741 1216.65,880.85 1219.73,880.958 1222.82,881.065 1225.9,881.169 1228.98,881.272 1232.07,881.374 1235.15,881.473 1238.24,881.571 1241.32,881.667 1244.4,881.76 1247.49,881.852 1250.57,881.941 1253.66,882.027 1256.74,882.11 1259.83,882.188 1262.91,882.261 1265.99,882.325 1269.08,774.582 1272.16,623.907 1275.25,624.239 1278.33,624.573 1281.41,624.909 1284.5,625.247 1287.58,625.586 1290.67,625.925 1293.75,626.264 1296.83,626.603 1299.92,626.942 1303,627.282 1306.09,627.62 1309.17,627.959 1312.25,628.297 1315.34,628.635 1318.42,628.973 1321.51,629.31 1324.59,629.647 1327.67,629.983 1330.76,630.319 1333.84,630.654 1336.93,630.988 1340.01,631.322 1343.09,631.656 1346.18,631.989 1349.26,632.321 1352.35,632.653 1355.43,632.984 1358.51,633.315 1361.6,633.645 1364.68,633.974 1367.77,634.303 1370.85,634.631 1373.93,634.959 1377.02,635.286 1380.1,635.612 1383.19,635.938 1386.27,636.262 1389.35,636.587 1392.44,636.91 1395.52,637.233 1398.61,637.556 1401.69,637.877 1404.77,638.198 1407.86,638.518 1410.94,638.838 1414.03,639.157 1417.11,639.475 1420.19,639.792 1423.28,640.109 1426.36,640.425 1429.45,640.741 1432.53,641.055 1435.61,641.369 1438.7,641.682 1441.78,641.995 1444.87,642.307 1447.95,642.618 1451.03,642.928 1454.12,643.238 1457.2,643.547 1460.29,643.855 1463.37,644.162 1466.45,644.469 1469.54,644.775 1472.62,645.08 1475.71,645.384 1478.79,645.688 1481.87,645.991 1484.96,646.293 1488.04,646.594 1491.13,646.895 1494.21,647.195 1497.3,647.494 1500.38,647.792 1503.46,648.09 1506.55,648.387 1509.63,648.683 1512.72,648.978 1515.8,649.272 1518.88,649.566 1521.97,649.859 1525.05,650.151 1528.14,650.442 1531.22,650.733 1534.3,651.023 1537.39,651.312 1540.47,651.6 1543.56,651.887 1546.64,652.174 1549.72,652.46 1552.81,652.745 1555.89,653.029 1558.98,653.313 1562.06,653.595 1565.14,653.877 1568.23,654.158 1571.31,654.439 1574.4,654.718 1577.48,654.997 1580.56,655.275 1583.65,655.552 1586.73,655.828 1589.82,656.103 1592.9,656.378 1595.98,656.652 1599.07,656.925 1602.15,657.197 1605.24,657.468 1608.32,657.739 1611.4,658.009 1614.49,658.278 1617.57,658.546 1620.66,658.813 1623.74,659.08 1626.82,659.345 1629.91,659.61 1632.99,659.874 1636.08,660.138 1639.16,660.4 1642.24,660.662 1645.33,660.923 1648.41,661.183 1651.5,661.442 1654.58,661.7 1657.66,661.958 1660.75,662.214 1663.83,662.47 1666.92,662.725 1670,662.98 1673.08,663.233 1676.17,663.486 1679.25,663.738 1682.34,663.989 1685.42,664.239 1688.5,664.488 1691.59,664.737 1694.67,664.984 1697.76,665.231 1700.84,665.477 1703.92,665.723 1707.01,665.967 1710.09,666.211 1713.18,666.454 1716.26,666.696 1719.34,666.937 1722.43,667.177 1725.51,667.417 1728.6,667.656 1731.68,667.893 1734.77,668.131 1737.85,668.367 1740.93,668.602 1744.02,668.837 1747.1,669.071 1750.19,669.304 1753.27,669.536 1756.35,669.768 1759.44,669.998 1762.52,670.228 1765.61,670.457 1768.69,670.685 1771.77,670.913 1774.86,671.139 1777.94,671.365 1781.03,671.59 1784.11,671.814 1787.19,672.038 1790.28,672.26 1793.36,672.482 1796.45,672.703 1799.53,672.923 1802.61,673.143 1805.7,673.361 1808.78,673.579 1811.87,673.796 1814.95,674.012 1818.03,674.228 1821.12,674.442 1824.2,674.656 1827.29,674.869 1830.37,675.082 1833.45,675.293 1836.54,675.504 1839.62,675.714 1842.71,675.923 1845.79,676.131 1848.87,676.339 1851.96,676.545 1855.04,676.751 1858.13,676.957 1861.21,677.161 1864.29,677.365 1867.38,677.568 1870.46,677.77 1873.55,677.971 1876.63,678.172 1879.71,678.372 1882.8,678.571 1885.88,678.769 1888.97,678.966 1892.05,679.163 1895.13,679.359 1898.22,679.554 1901.3,679.749 1904.39,679.943 1907.47,680.136 1910.55,680.328 1913.64,680.519 1916.72,680.71 1919.81,680.9 1922.89,681.089 1925.97,681.278 1929.06,681.465 1932.14,681.652 1935.23,681.838 1938.31,682.024 1941.39,682.209 1944.48,682.393 1947.56,682.576 1950.65,682.759 1953.73,682.94 1956.81,683.121 1959.9,683.302 1962.98,683.481 1966.07,683.66 1969.15,683.838 1972.24,684.016 1975.32,684.193 1978.4,684.369 1981.49,684.544 1984.57,684.719 1987.66,684.892 1990.74,685.066 1993.82,685.238 1996.91,685.41 1999.99,685.581 2003.08,685.751 2006.16,685.921 2009.24,686.09 2012.33,686.258 2015.41,686.425 2018.5,686.592 2021.58,686.758 2024.66,686.924 2027.75,687.089 2030.83,687.253 2033.92,687.416 2037,687.579 2040.08,687.741 2043.17,687.902 2046.25,688.063 2049.34,688.223 2052.42,688.382 2055.5,688.541 2058.59,688.699 2061.67,688.856 2064.76,689.013 2067.84,689.169 2070.92,689.324 2074.01,689.478 2077.09,689.632 2080.18,689.786 2083.26,689.938 2086.34,690.09 2089.43,690.242 2092.51,690.392 2095.6,690.542 2098.68,690.692 2101.76,690.841 2104.85,690.989 2107.93,691.136 2111.02,691.283 2114.1,691.429 2117.18,691.575 2120.27,691.72 2123.35,691.864 2126.44,692.008 2129.52,692.151 2132.6,692.293 2135.69,692.435 2138.77,692.576 2141.86,692.717 2144.94,692.857 2148.02,692.996 2151.11,693.135 2154.19,693.273 2157.28,693.41 2160.36,693.547 2163.44,693.683 2166.53,693.819 2169.61,693.954 2172.7,694.089 2175.78,694.222 2178.86,694.356 2181.95,694.488 2185.03,694.62 2188.12,694.752 2191.2,694.883 2194.29,695.013 2197.37,695.143 2200.45,695.272 2203.54,695.401 2206.62,695.529 2209.71,695.656 2212.79,695.783 2215.87,695.909 2218.96,696.035 2222.04,696.16 2225.13,696.285 2228.21,696.409 2231.29,696.532 2234.38,696.655 2237.46,696.777 2240.55,696.899 2243.63,697.02 2246.71,697.141 2249.8,697.261 2252.88,697.381 2255.97,697.5 2259.05,697.618 2262.13,697.736 2265.22,697.854 2268.3,697.971 2271.39,698.087 2274.47,698.203 2277.55,698.318 2280.64,698.433 2283.72,698.547 2286.81,698.661 2289.89,698.774 2292.97,698.886 2296.06,698.998 2299.14,699.11 2302.23,699.221 2305.31,699.332 2308.39,699.442 2311.48,699.551 2314.56,699.66 2317.65,699.769 2320.73,699.877 2323.81,699.984 2326.9,700.091 2329.98,700.198 2333.07,700.304 2336.15,700.409 2339.23,700.514 2342.32,700.619 2345.4,700.723 2348.49,700.827 2351.57,700.93 2354.65,701.032 2357.74,701.134 2360.82,701.236 2363.91,701.337 2366.99,701.438 2370.07,701.538 2373.16,701.638 2376.24,701.737 2379.33,701.836 2382.41,701.934 2385.49,702.032 2388.58,702.129 2391.66,702.226 2394.75,702.323 2397.83,702.419 2400.91,702.514 2404,702.609 2407.08,702.704 2410.17,702.798 2413.25,702.892 2416.33,702.985 2419.42,703.078 2422.5,703.17 2425.59,703.262 2428.67,703.354 2431.76,703.445 2434.84,703.536 2437.92,703.626 2441.01,703.716 2444.09,703.805 2447.18,703.894 2450.26,703.982 2453.34,704.07 2456.43,704.158 2459.51,704.245 2462.6,704.332 2465.68,704.418 2468.76,704.504 2471.85,704.59 2474.93,704.675 2478.02,704.76 2481.1,704.844 2484.18,704.928 2487.27,705.012 2490.35,705.095 2493.44,705.177 2496.52,705.26 2499.6,705.342 2502.69,705.423 2505.77,705.504 2508.86,705.585 2511.94,705.665 2515.02,705.745 2518.11,705.825 2521.19,705.904 2524.28,705.983 2527.36,706.061 2530.44,706.139 2533.53,706.217 2536.61,706.294 2539.7,706.371 2542.78,706.447 2545.86,706.523 2548.95,706.599 2552.03,706.674 2555.12,706.749 2558.2,706.824 2561.28,706.898 2564.37,706.972 2567.45,707.046 2570.54,707.119 2573.62,707.192 2576.7,707.264 2579.79,707.336 2582.87,707.408 2585.96,707.479 2589.04,707.55 2592.12,707.621 2595.21,707.691 2598.29,707.761 2601.38,707.831 2604.46,707.9 2607.54,707.969 2610.63,708.038 2613.71,708.106 2616.8,708.174 2619.88,708.241 2622.96,708.309 2626.05,708.376 2629.13,708.442 2632.22,708.508 2635.3,708.574 2638.38,708.64 2641.47,708.705 2644.55,708.77 2647.64,708.835 2650.72,708.899 2653.8,708.963 2656.89,709.027 2659.97,709.09 2663.06,709.153 2666.14,709.216 2669.23,709.278 2672.31,709.34 2675.39,709.402 2678.48,709.464 2681.56,709.525 2684.65,709.586 2687.73,709.646 2690.81,709.706 2693.9,709.766 2696.98,709.826 2700.07,709.885 2703.15,709.944 2706.23,710.003 2709.32,710.062 2712.4,710.12 2715.49,710.178 2718.57,710.235 2721.65,710.292 2724.74,710.349 2727.82,710.406 2730.91,710.463 2733.99,710.519 2737.07,710.575 2740.16,710.63 2743.24,710.685 2746.33,710.74 2749.41,710.795 2752.49,710.85 2755.58,710.904 2758.66,710.958 2761.75,711.011 2764.83,711.065 2767.91,711.118 2771,711.171 2774.08,711.223 2777.17,711.276 2780.25,711.328 2783.33,711.379 2786.42,711.431 2789.5,711.482 2792.59,711.533 2795.67,711.584 2798.75,711.634 2801.84,711.684 2804.92,711.734 2808.01,711.784 2811.09,711.834 2814.17,711.883 2817.26,711.932 2820.34,711.98 2823.43,712.029 2826.51,712.077 2829.59,712.125 2832.68,712.173 2835.76,712.22 2838.85,712.267 2841.93,712.314 2845.01,712.361 2848.1,712.408 2851.18,712.454 2854.27,712.5 2857.35,712.546 2860.43,712.591 2863.52,712.637 2866.6,712.682 2869.69,712.727 2872.77,712.771 2875.85,712.816 2878.94,712.86 2882.02,712.904 2885.11,712.947 2888.19,712.991 2891.27,713.034 2894.36,713.077 2897.44,713.12 2900.53,713.163 2903.61,713.205 2906.7,713.247 2909.78,713.289 2912.86,713.331 2915.95,713.373 2919.03,713.414 2922.12,713.455 2925.2,713.496 2928.28,713.537 2931.37,713.577 2934.45,713.617 2937.54,713.657 2940.62,713.697 2943.7,713.737 2946.79,713.776 2949.87,713.816 2952.96,713.855 2956.04,713.893 2959.12,713.932 2962.21,713.971 2965.29,714.009 2968.38,714.047 2971.46,714.085 2974.54,714.122 2977.63,714.16 2980.71,714.197 2983.8,714.234 2986.88,714.271 2989.96,714.308 2993.05,714.344 2996.13,714.38 2999.22,714.417 3002.3,714.452 3005.38,714.488 3008.47,714.524 3011.55,714.559 3014.64,714.594 3017.72,714.629 3020.8,714.664 3023.89,714.699 3026.97,714.733 3030.06,714.768 3033.14,714.802 3036.22,714.836 3039.31,714.869 3042.39,714.903 3045.48,714.936 3048.56,714.97 3051.64,715.003 3054.73,715.036 3057.81,715.068 3060.9,715.101 3063.98,715.133 3067.06,715.165 3070.15,715.197 3073.23,715.229 3076.32,715.261 3079.4,715.293 3082.48,715.324 3085.57,715.355 3088.65,715.386 3091.74,715.417 3094.82,715.448 3097.9,715.478 3100.99,715.509 3104.07,715.539 3107.16,715.569 3110.24,715.599 3113.32,715.629 3116.41,715.658 3119.49,715.688 3122.58,715.717 3125.66,715.746 3128.74,715.775 3131.83,715.804 3134.91,715.833 3138,715.862 3141.08,715.89 3144.17,715.918 3147.25,715.946 3150.33,715.974 3153.42,716.002 3156.5,716.03 3159.59,716.057 3162.67,716.085 3165.75,716.112 3168.84,716.139 3171.92,716.166 3175.01,716.193 3178.09,716.219 3181.17,716.246 3184.26,716.272 3187.34,716.299 3190.43,716.325 3193.51,716.351 3196.59,716.377 3199.68,716.402 3202.76,716.428 3205.85,716.453 3208.93,716.479 3212.01,716.504 3215.1,716.529 3218.18,716.554 3221.27,716.578 3224.35,716.603 3227.43,716.628 3230.52,716.652 3233.6,716.676 3236.69,716.7 3239.77,716.724 3242.85,716.748 3245.94,716.772 3249.02,716.796 3252.11,716.819 3255.19,716.843 3258.27,716.866 3261.36,716.889 3264.44,716.912 3267.53,716.935 3270.61,716.958 3273.69,716.98 3276.78,717.003 3279.86,717.025 3282.95,717.048 3286.03,717.07 3289.11,717.092 3292.2,717.114 3295.28,717.136 3298.37,717.157 "/>
<polyline clip-path="url(#clip412)" style="stroke:#3da44d; stroke-linecap:round; stroke-linejoin:round; stroke-width:6; stroke-opacity:1; fill:none" points="214.34,1141.6 217.424,1141.6 220.508,1141.6 223.592,1141.6 226.676,1141.6 229.76,1141.6 232.844,1141.6 235.928,1141.6 239.012,1141.6 242.096,1141.6 245.18,1141.6 248.264,1141.6 251.348,1141.6 254.432,1141.6 257.517,1141.6 260.601,1141.6 263.685,1141.6 266.769,1141.6 269.853,1141.6 272.937,1141.6 276.021,1141.6 279.105,1141.6 282.189,1141.6 285.273,1141.6 288.357,1141.6 291.441,1141.6 294.525,1141.6 297.609,1141.6 300.693,1141.6 303.777,1141.6 306.861,1141.6 309.945,1141.6 313.029,1141.6 316.113,1141.6 319.197,1141.6 322.281,1141.6 325.365,1141.6 328.449,1141.6 331.533,1141.6 334.617,1141.6 337.701,1141.6 340.785,1141.6 343.869,1141.6 346.953,1141.6 350.037,1141.6 353.121,1141.6 356.205,1141.6 359.289,1141.6 362.373,1141.6 365.457,1141.6 368.541,1141.6 371.625,1141.6 374.71,1141.6 377.794,1141.6 380.878,1141.6 383.962,1141.6 387.046,1141.6 390.13,1141.6 393.214,1141.6 396.298,1141.6 399.382,1141.6 402.466,1141.6 405.55,1141.6 408.634,1141.6 411.718,1141.6 414.802,1141.6 417.886,1141.6 420.97,1141.6 424.054,1141.6 427.138,1141.6 430.222,1141.6 433.306,1141.6 436.39,1141.6 439.474,1141.6 442.558,1141.6 445.642,1141.6 448.726,1141.6 451.81,1141.6 454.894,1141.6 457.978,1141.6 461.062,1141.6 464.146,1141.6 467.23,1141.6 470.314,1141.6 473.398,1141.6 476.482,1141.6 479.566,1141.6 482.65,1141.6 485.734,1141.6 488.818,1141.6 491.903,1141.6 494.987,1141.6 498.071,1141.6 501.155,1141.6 504.239,1141.6 507.323,1141.6 510.407,1141.6 513.491,1141.59 516.575,1141.59 519.659,1141.59 522.743,1141.59 525.827,1141.59 528.911,1141.59 531.995,1141.59 535.079,1141.59 538.163,1141.59 541.247,1141.59 544.331,1141.59 547.415,1141.59 550.499,1141.59 553.583,1141.59 556.667,1141.59 559.751,1141.59 562.835,1141.59 565.919,1141.59 569.003,1141.59 572.087,1141.59 575.171,1141.59 578.255,1141.59 581.339,1141.59 584.423,1141.59 587.507,1141.59 590.591,1141.59 593.675,1141.59 596.759,1141.59 599.843,1141.59 602.927,1141.59 606.011,1141.59 609.096,1141.59 612.18,1141.59 615.264,1141.59 618.348,1141.59 621.432,1141.59 624.516,1141.58 627.6,1141.58 630.684,1141.58 633.768,1141.58 636.852,1141.57 639.936,1141.57 643.02,1141.56 646.104,1141.55 649.188,1141.52 652.272,1030.12 655.356,873.364 658.44,873.342 661.524,873.331 664.608,873.324 667.692,873.32 670.776,873.316 673.86,873.314 676.944,873.312 680.028,873.311 683.112,873.309 686.196,873.308 689.28,873.307 692.364,873.307 695.448,873.306 698.532,873.305 701.616,873.305 704.7,873.305 707.784,873.304 710.868,873.304 713.952,873.303 717.036,873.303 720.12,873.303 723.204,873.303 726.289,873.302 729.373,873.302 732.457,873.302 735.541,873.302 738.625,873.302 741.709,873.302 744.793,873.302 747.877,873.301 750.961,873.301 754.045,873.301 757.129,873.301 760.213,873.301 763.297,873.301 766.381,873.301 769.465,873.301 772.549,873.301 775.633,873.301 778.717,873.301 781.801,873.301 784.885,873.3 787.969,873.3 791.053,873.3 794.137,873.3 797.221,873.3 800.305,873.3 803.389,873.3 806.473,873.3 809.557,873.3 812.641,873.3 815.725,873.3 818.809,873.3 821.893,873.3 824.977,873.3 828.061,873.3 831.145,873.3 834.229,873.3 837.313,873.3 840.397,873.3 843.482,873.3 846.566,873.3 849.65,873.3 852.734,873.3 855.818,873.3 858.902,873.3 861.986,873.3 865.07,873.3 868.154,873.3 871.238,873.3 874.322,873.3 877.406,873.3 880.49,873.3 883.574,873.3 886.658,873.3 889.742,873.3 892.826,873.3 895.91,873.3 898.994,873.3 902.078,873.3 905.162,873.3 908.246,873.3 911.33,873.3 914.414,873.301 917.498,873.301 920.582,873.301 923.666,873.301 926.75,873.301 929.834,873.301 932.918,873.301 936.002,873.301 939.086,873.301 942.17,873.301 945.254,873.301 948.338,873.301 951.422,873.301 954.506,873.301 957.59,873.301 960.675,873.301 963.759,873.301 966.843,873.301 969.927,873.301 973.011,873.301 976.095,873.302 979.179,873.302 982.263,873.302 985.347,873.302 988.431,873.302 991.515,873.302 994.599,873.302 997.683,873.302 1000.77,873.302 1003.85,873.302 1006.93,873.302 1010.02,873.302 1013.1,873.302 1016.19,873.303 1019.27,873.303 1022.36,873.303 1025.44,873.303 1028.52,873.303 1031.61,873.303 1034.69,873.303 1037.78,873.303 1040.86,873.303 1043.94,873.304 1047.03,873.304 1050.11,873.304 1053.2,873.304 1056.28,873.304 1059.36,873.304 1062.45,873.304 1065.53,873.304 1068.62,873.305 1071.7,873.305 1074.78,873.305 1077.87,873.305 1080.95,873.305 1084.04,873.306 1087.12,873.306 1090.2,873.306 1093.29,873.306 1096.37,873.306 1099.46,873.307 1102.54,873.307 1105.62,873.307 1108.71,873.307 1111.79,873.308 1114.88,873.308 1117.96,873.308 1121.04,873.308 1124.13,873.309 1127.21,873.309 1130.3,873.309 1133.38,873.31 1136.46,873.31 1139.55,873.31 1142.63,873.311 1145.72,873.311 1148.8,873.312 1151.88,873.312 1154.97,873.312 1158.05,873.313 1161.14,873.313 1164.22,873.314 1167.3,873.315 1170.39,873.315 1173.47,873.316 1176.56,873.317 1179.64,873.317 1182.72,873.318 1185.81,873.319 1188.89,873.32 1191.98,873.321 1195.06,873.322 1198.14,873.323 1201.23,873.324 1204.31,873.325 1207.4,873.327 1210.48,873.328 1213.56,873.33 1216.65,873.331 1219.73,873.333 1222.82,873.335 1225.9,873.338 1228.98,873.341 1232.07,873.344 1235.15,873.347 1238.24,873.351 1241.32,873.355 1244.4,873.361 1247.49,873.367 1250.57,873.374 1253.66,873.383 1256.74,873.395 1259.83,873.409 1262.91,873.428 1265.99,873.455 1269.08,985.148 1272.16,1141.47 1275.25,1141.49 1278.33,1141.5 1281.41,1141.51 1284.5,1141.52 1287.58,1141.53 1290.67,1141.53 1293.75,1141.54 1296.83,1141.54 1299.92,1141.55 1303,1141.55 1306.09,1141.55 1309.17,1141.56 1312.25,1141.56 1315.34,1141.56 1318.42,1141.56 1321.51,1141.56 1324.59,1141.57 1327.67,1141.57 1330.76,1141.57 1333.84,1141.57 1336.93,1141.57 1340.01,1141.57 1343.09,1141.57 1346.18,1141.57 1349.26,1141.57 1352.35,1141.58 1355.43,1141.58 1358.51,1141.58 1361.6,1141.58 1364.68,1141.58 1367.77,1141.58 1370.85,1141.58 1373.93,1141.58 1377.02,1141.58 1380.1,1141.58 1383.19,1141.58 1386.27,1141.58 1389.35,1141.58 1392.44,1141.58 1395.52,1141.58 1398.61,1141.58 1401.69,1141.58 1404.77,1141.58 1407.86,1141.58 1410.94,1141.58 1414.03,1141.58 1417.11,1141.59 1420.19,1141.59 1423.28,1141.59 1426.36,1141.59 1429.45,1141.59 1432.53,1141.59 1435.61,1141.59 1438.7,1141.59 1441.78,1141.59 1444.87,1141.59 1447.95,1141.59 1451.03,1141.59 1454.12,1141.59 1457.2,1141.59 1460.29,1141.59 1463.37,1141.59 1466.45,1141.59 1469.54,1141.59 1472.62,1141.59 1475.71,1141.59 1478.79,1141.59 1481.87,1141.59 1484.96,1141.59 1488.04,1141.59 1491.13,1141.59 1494.21,1141.59 1497.3,1141.59 1500.38,1141.59 1503.46,1141.59 1506.55,1141.59 1509.63,1141.59 1512.72,1141.59 1515.8,1141.59 1518.88,1141.59 1521.97,1141.59 1525.05,1141.59 1528.14,1141.59 1531.22,1141.59 1534.3,1141.59 1537.39,1141.59 1540.47,1141.59 1543.56,1141.59 1546.64,1141.59 1549.72,1141.59 1552.81,1141.59 1555.89,1141.59 1558.98,1141.59 1562.06,1141.59 1565.14,1141.59 1568.23,1141.59 1571.31,1141.59 1574.4,1141.59 1577.48,1141.59 1580.56,1141.59 1583.65,1141.59 1586.73,1141.59 1589.82,1141.59 1592.9,1141.59 1595.98,1141.59 1599.07,1141.59 1602.15,1141.59 1605.24,1141.59 1608.32,1141.59 1611.4,1141.59 1614.49,1141.59 1617.57,1141.59 1620.66,1141.59 1623.74,1141.59 1626.82,1141.59 1629.91,1141.59 1632.99,1141.59 1636.08,1141.59 1639.16,1141.59 1642.24,1141.59 1645.33,1141.59 1648.41,1141.59 1651.5,1141.59 1654.58,1141.59 1657.66,1141.59 1660.75,1141.59 1663.83,1141.59 1666.92,1141.59 1670,1141.59 1673.08,1141.59 1676.17,1141.59 1679.25,1141.59 1682.34,1141.59 1685.42,1141.59 1688.5,1141.59 1691.59,1141.59 1694.67,1141.59 1697.76,1141.59 1700.84,1141.59 1703.92,1141.59 1707.01,1141.59 1710.09,1141.59 1713.18,1141.59 1716.26,1141.59 1719.34,1141.59 1722.43,1141.59 1725.51,1141.59 1728.6,1141.59 1731.68,1141.59 1734.77,1141.59 1737.85,1141.59 1740.93,1141.59 1744.02,1141.59 1747.1,1141.59 1750.19,1141.59 1753.27,1141.59 1756.35,1141.59 1759.44,1141.59 1762.52,1141.59 1765.61,1141.59 1768.69,1141.59 1771.77,1141.59 1774.86,1141.59 1777.94,1141.59 1781.03,1141.59 1784.11,1141.59 1787.19,1141.59 1790.28,1141.59 1793.36,1141.59 1796.45,1141.59 1799.53,1141.59 1802.61,1141.59 1805.7,1141.59 1808.78,1141.59 1811.87,1141.59 1814.95,1141.59 1818.03,1141.59 1821.12,1141.59 1824.2,1141.59 1827.29,1141.59 1830.37,1141.59 1833.45,1141.59 1836.54,1141.59 1839.62,1141.59 1842.71,1141.59 1845.79,1141.59 1848.87,1141.59 1851.96,1141.59 1855.04,1141.59 1858.13,1141.59 1861.21,1141.59 1864.29,1141.59 1867.38,1141.59 1870.46,1141.59 1873.55,1141.59 1876.63,1141.6 1879.71,1141.6 1882.8,1141.6 1885.88,1141.6 1888.97,1141.6 1892.05,1141.6 1895.13,1141.6 1898.22,1141.6 1901.3,1141.6 1904.39,1141.6 1907.47,1141.6 1910.55,1141.6 1913.64,1141.6 1916.72,1141.6 1919.81,1141.6 1922.89,1141.6 1925.97,1141.6 1929.06,1141.6 1932.14,1141.6 1935.23,1141.6 1938.31,1141.6 1941.39,1141.6 1944.48,1141.6 1947.56,1141.6 1950.65,1141.6 1953.73,1141.6 1956.81,1141.6 1959.9,1141.6 1962.98,1141.6 1966.07,1141.6 1969.15,1141.6 1972.24,1141.6 1975.32,1141.6 1978.4,1141.6 1981.49,1141.6 1984.57,1141.6 1987.66,1141.6 1990.74,1141.6 1993.82,1141.6 1996.91,1141.6 1999.99,1141.6 2003.08,1141.6 2006.16,1141.6 2009.24,1141.6 2012.33,1141.6 2015.41,1141.6 2018.5,1141.6 2021.58,1141.6 2024.66,1141.6 2027.75,1141.6 2030.83,1141.6 2033.92,1141.6 2037,1141.6 2040.08,1141.6 2043.17,1141.6 2046.25,1141.6 2049.34,1141.6 2052.42,1141.6 2055.5,1141.6 2058.59,1141.6 2061.67,1141.6 2064.76,1141.6 2067.84,1141.6 2070.92,1141.6 2074.01,1141.6 2077.09,1141.6 2080.18,1141.6 2083.26,1141.6 2086.34,1141.6 2089.43,1141.6 2092.51,1141.6 2095.6,1141.6 2098.68,1141.6 2101.76,1141.6 2104.85,1141.6 2107.93,1141.6 2111.02,1141.6 2114.1,1141.6 2117.18,1141.6 2120.27,1141.6 2123.35,1141.6 2126.44,1141.6 2129.52,1141.6 2132.6,1141.6 2135.69,1141.6 2138.77,1141.6 2141.86,1141.6 2144.94,1141.6 2148.02,1141.6 2151.11,1141.6 2154.19,1141.6 2157.28,1141.6 2160.36,1141.6 2163.44,1141.6 2166.53,1141.6 2169.61,1141.6 2172.7,1141.6 2175.78,1141.6 2178.86,1141.6 2181.95,1141.6 2185.03,1141.6 2188.12,1141.6 2191.2,1141.6 2194.29,1141.6 2197.37,1141.6 2200.45,1141.6 2203.54,1141.6 2206.62,1141.6 2209.71,1141.6 2212.79,1141.6 2215.87,1141.6 2218.96,1141.6 2222.04,1141.6 2225.13,1141.6 2228.21,1141.6 2231.29,1141.6 2234.38,1141.6 2237.46,1141.6 2240.55,1141.6 2243.63,1141.6 2246.71,1141.6 2249.8,1141.6 2252.88,1141.6 2255.97,1141.6 2259.05,1141.6 2262.13,1141.6 2265.22,1141.6 2268.3,1141.6 2271.39,1141.6 2274.47,1141.6 2277.55,1141.6 2280.64,1141.6 2283.72,1141.6 2286.81,1141.6 2289.89,1141.6 2292.97,1141.6 2296.06,1141.6 2299.14,1141.6 2302.23,1141.6 2305.31,1141.6 2308.39,1141.6 2311.48,1141.6 2314.56,1141.6 2317.65,1141.6 2320.73,1141.6 2323.81,1141.6 2326.9,1141.6 2329.98,1141.6 2333.07,1141.6 2336.15,1141.6 2339.23,1141.6 2342.32,1141.6 2345.4,1141.6 2348.49,1141.6 2351.57,1141.6 2354.65,1141.6 2357.74,1141.6 2360.82,1141.6 2363.91,1141.6 2366.99,1141.6 2370.07,1141.6 2373.16,1141.6 2376.24,1141.6 2379.33,1141.6 2382.41,1141.6 2385.49,1141.6 2388.58,1141.6 2391.66,1141.6 2394.75,1141.6 2397.83,1141.6 2400.91,1141.6 2404,1141.6 2407.08,1141.6 2410.17,1141.6 2413.25,1141.6 2416.33,1141.6 2419.42,1141.6 2422.5,1141.6 2425.59,1141.6 2428.67,1141.6 2431.76,1141.6 2434.84,1141.6 2437.92,1141.6 2441.01,1141.6 2444.09,1141.6 2447.18,1141.6 2450.26,1141.6 2453.34,1141.6 2456.43,1141.6 2459.51,1141.6 2462.6,1141.6 2465.68,1141.6 2468.76,1141.6 2471.85,1141.6 2474.93,1141.6 2478.02,1141.6 2481.1,1141.6 2484.18,1141.6 2487.27,1141.6 2490.35,1141.6 2493.44,1141.6 2496.52,1141.6 2499.6,1141.6 2502.69,1141.6 2505.77,1141.6 2508.86,1141.6 2511.94,1141.6 2515.02,1141.6 2518.11,1141.6 2521.19,1141.6 2524.28,1141.6 2527.36,1141.6 2530.44,1141.6 2533.53,1141.6 2536.61,1141.6 2539.7,1141.6 2542.78,1141.6 2545.86,1141.6 2548.95,1141.6 2552.03,1141.6 2555.12,1141.6 2558.2,1141.6 2561.28,1141.6 2564.37,1141.6 2567.45,1141.6 2570.54,1141.6 2573.62,1141.6 2576.7,1141.6 2579.79,1141.6 2582.87,1141.6 2585.96,1141.6 2589.04,1141.6 2592.12,1141.6 2595.21,1141.6 2598.29,1141.6 2601.38,1141.6 2604.46,1141.6 2607.54,1141.6 2610.63,1141.6 2613.71,1141.6 2616.8,1141.6 2619.88,1141.6 2622.96,1141.6 2626.05,1141.6 2629.13,1141.6 2632.22,1141.6 2635.3,1141.6 2638.38,1141.6 2641.47,1141.6 2644.55,1141.6 2647.64,1141.6 2650.72,1141.6 2653.8,1141.6 2656.89,1141.6 2659.97,1141.6 2663.06,1141.6 2666.14,1141.6 2669.23,1141.6 2672.31,1141.6 2675.39,1141.6 2678.48,1141.6 2681.56,1141.6 2684.65,1141.6 2687.73,1141.6 2690.81,1141.6 2693.9,1141.6 2696.98,1141.6 2700.07,1141.6 2703.15,1141.6 2706.23,1141.6 2709.32,1141.6 2712.4,1141.6 2715.49,1141.6 2718.57,1141.6 2721.65,1141.6 2724.74,1141.6 2727.82,1141.6 2730.91,1141.6 2733.99,1141.6 2737.07,1141.6 2740.16,1141.6 2743.24,1141.6 2746.33,1141.6 2749.41,1141.6 2752.49,1141.6 2755.58,1141.6 2758.66,1141.6 2761.75,1141.6 2764.83,1141.6 2767.91,1141.6 2771,1141.6 2774.08,1141.6 2777.17,1141.6 2780.25,1141.6 2783.33,1141.6 2786.42,1141.6 2789.5,1141.6 2792.59,1141.6 2795.67,1141.6 2798.75,1141.6 2801.84,1141.6 2804.92,1141.6 2808.01,1141.6 2811.09,1141.6 2814.17,1141.6 2817.26,1141.6 2820.34,1141.6 2823.43,1141.6 2826.51,1141.6 2829.59,1141.6 2832.68,1141.6 2835.76,1141.6 2838.85,1141.6 2841.93,1141.6 2845.01,1141.6 2848.1,1141.6 2851.18,1141.6 2854.27,1141.6 2857.35,1141.6 2860.43,1141.6 2863.52,1141.6 2866.6,1141.6 2869.69,1141.6 2872.77,1141.6 2875.85,1141.6 2878.94,1141.6 2882.02,1141.6 2885.11,1141.6 2888.19,1141.6 2891.27,1141.6 2894.36,1141.6 2897.44,1141.6 2900.53,1141.6 2903.61,1141.6 2906.7,1141.6 2909.78,1141.6 2912.86,1141.6 2915.95,1141.6 2919.03,1141.6 2922.12,1141.6 2925.2,1141.6 2928.28,1141.6 2931.37,1141.6 2934.45,1141.6 2937.54,1141.6 2940.62,1141.6 2943.7,1141.6 2946.79,1141.6 2949.87,1141.6 2952.96,1141.6 2956.04,1141.6 2959.12,1141.6 2962.21,1141.6 2965.29,1141.6 2968.38,1141.6 2971.46,1141.6 2974.54,1141.6 2977.63,1141.6 2980.71,1141.6 2983.8,1141.6 2986.88,1141.6 2989.96,1141.6 2993.05,1141.6 2996.13,1141.6 2999.22,1141.6 3002.3,1141.6 3005.38,1141.6 3008.47,1141.6 3011.55,1141.6 3014.64,1141.6 3017.72,1141.6 3020.8,1141.6 3023.89,1141.6 3026.97,1141.6 3030.06,1141.6 3033.14,1141.6 3036.22,1141.6 3039.31,1141.6 3042.39,1141.6 3045.48,1141.6 3048.56,1141.6 3051.64,1141.6 3054.73,1141.6 3057.81,1141.6 3060.9,1141.6 3063.98,1141.6 3067.06,1141.6 3070.15,1141.6 3073.23,1141.6 3076.32,1141.6 3079.4,1141.6 3082.48,1141.6 3085.57,1141.6 3088.65,1141.6 3091.74,1141.6 3094.82,1141.6 3097.9,1141.6 3100.99,1141.6 3104.07,1141.6 3107.16,1141.6 3110.24,1141.6 3113.32,1141.6 3116.41,1141.6 3119.49,1141.6 3122.58,1141.6 3125.66,1141.6 3128.74,1141.6 3131.83,1141.6 3134.91,1141.6 3138,1141.6 3141.08,1141.6 3144.17,1141.6 3147.25,1141.6 3150.33,1141.6 3153.42,1141.6 3156.5,1141.6 3159.59,1141.6 3162.67,1141.6 3165.75,1141.6 3168.84,1141.6 3171.92,1141.6 3175.01,1141.6 3178.09,1141.6 3181.17,1141.6 3184.26,1141.6 3187.34,1141.6 3190.43,1141.6 3193.51,1141.6 3196.59,1141.6 3199.68,1141.6 3202.76,1141.6 3205.85,1141.6 3208.93,1141.6 3212.01,1141.6 3215.1,1141.6 3218.18,1141.6 3221.27,1141.6 3224.35,1141.6 3227.43,1141.6 3230.52,1141.6 3233.6,1141.6 3236.69,1141.6 3239.77,1141.6 3242.85,1141.6 3245.94,1141.6 3249.02,1141.6 3252.11,1141.6 3255.19,1141.6 3258.27,1141.6 3261.36,1141.6 3264.44,1141.6 3267.53,1141.6 3270.61,1141.6 3273.69,1141.6 3276.78,1141.6 3279.86,1141.6 3282.95,1141.6 3286.03,1141.6 3289.11,1141.6 3292.2,1141.6 3295.28,1141.6 3298.37,1141.6 "/>
<polyline clip-path="url(#clip412)" style="stroke:#808080; stroke-linecap:round; stroke-linejoin:round; stroke-width:6; stroke-opacity:0.5; fill:none" stroke-dasharray="24, 15" points="1066.46,2299.7 1066.46,-1078.98 "/>
<polyline clip-path="url(#clip412)" style="stroke:#808080; stroke-linecap:round; stroke-linejoin:round; stroke-width:6; stroke-opacity:0.5; fill:none" stroke-dasharray="24, 15" points="-1636.08,604.992 3915.17,604.992 "/>
<path clip-path="url(#clip410)" d="M1530.84 292.145 L2003.08 292.145 L2003.08 84.785 L1530.84 84.785  Z" fill="#ffffff" fill-rule="evenodd" fill-opacity="1"/>
<polyline clip-path="url(#clip410)" style="stroke:#000000; stroke-linecap:round; stroke-linejoin:round; stroke-width:4; stroke-opacity:1; fill:none" points="1530.84,292.145 2003.08,292.145 2003.08,84.785 1530.84,84.785 1530.84,292.145 "/>
<polyline clip-path="url(#clip410)" style="stroke:#009af9; stroke-linecap:round; stroke-linejoin:round; stroke-width:6; stroke-opacity:1; fill:none" points="1551.4,136.625 1674.76,136.625 "/>
<path clip-path="url(#clip410)" d="M1711.71 137.701 Q1713.21 138.211 1714.62 139.877 Q1716.06 141.544 1717.49 144.461 L1722.24 153.905 L1717.22 153.905 L1712.79 145.039 Q1711.08 141.567 1709.46 140.433 Q1707.86 139.299 1705.09 139.299 L1699.99 139.299 L1699.99 153.905 L1695.32 153.905 L1695.32 119.345 L1705.87 119.345 Q1711.8 119.345 1714.72 121.822 Q1717.63 124.299 1717.63 129.299 Q1717.63 132.563 1716.1 134.715 Q1714.6 136.868 1711.71 137.701 M1699.99 123.188 L1699.99 135.456 L1705.87 135.456 Q1709.25 135.456 1710.97 133.905 Q1712.7 132.331 1712.7 129.299 Q1712.7 126.266 1710.97 124.738 Q1709.25 123.188 1705.87 123.188 L1699.99 123.188 Z" fill="#000000" fill-rule="nonzero" fill-opacity="1" /><path clip-path="url(#clip410)" d="M1729.07 135.271 L1729.07 139.391 L1734.6 139.391 L1734.6 141.243 L1729.07 141.243 L1729.07 149.113 Q1729.07 150.896 1729.62 151.405 Q1730.18 151.914 1731.85 151.914 L1734.6 151.914 L1734.6 153.905 L1731.85 153.905 Q1728.74 153.905 1727.56 152.863 Q1726.38 151.845 1726.38 149.113 L1726.38 141.243 L1724.41 141.243 L1724.41 139.391 L1726.38 139.391 L1726.38 135.271 L1729.07 135.271 Z" fill="#000000" fill-rule="nonzero" fill-opacity="1" /><polyline clip-path="url(#clip410)" style="stroke:#e26f46; stroke-linecap:round; stroke-linejoin:round; stroke-width:6; stroke-opacity:1; fill:none" points="1551.4,188.465 1674.76,188.465 "/>
<path clip-path="url(#clip410)" d="M1711.71 189.541 Q1713.21 190.051 1714.62 191.717 Q1716.06 193.384 1717.49 196.301 L1722.24 205.745 L1717.22 205.745 L1712.79 196.879 Q1711.08 193.407 1709.46 192.273 Q1707.86 191.139 1705.09 191.139 L1699.99 191.139 L1699.99 205.745 L1695.32 205.745 L1695.32 171.185 L1705.87 171.185 Q1711.8 171.185 1714.72 173.662 Q1717.63 176.139 1717.63 181.139 Q1717.63 184.403 1716.1 186.555 Q1714.6 188.708 1711.71 189.541 M1699.99 175.028 L1699.99 187.296 L1705.87 187.296 Q1709.25 187.296 1710.97 185.745 Q1712.7 184.171 1712.7 181.139 Q1712.7 178.106 1710.97 176.578 Q1709.25 175.028 1705.87 175.028 L1699.99 175.028 Z" fill="#000000" fill-rule="nonzero" fill-opacity="1" /><path clip-path="url(#clip410)" d="M1729.07 187.111 L1729.07 191.231 L1734.6 191.231 L1734.6 193.083 L1729.07 193.083 L1729.07 200.953 Q1729.07 202.736 1729.62 203.245 Q1730.18 203.754 1731.85 203.754 L1734.6 203.754 L1734.6 205.745 L1731.85 205.745 Q1728.74 205.745 1727.56 204.703 Q1726.38 203.685 1726.38 200.953 L1726.38 193.083 L1724.41 193.083 L1724.41 191.231 L1726.38 191.231 L1726.38 187.111 L1729.07 187.111 Z" fill="#000000" fill-rule="nonzero" fill-opacity="1" /><path clip-path="url(#clip410)" d="M1767.17 182.805 Q1763.74 182.805 1761.75 185.49 Q1759.76 188.152 1759.76 192.805 Q1759.76 197.458 1761.73 200.143 Q1763.72 202.805 1767.17 202.805 Q1770.57 202.805 1772.56 200.12 Q1774.55 197.435 1774.55 192.805 Q1774.55 188.199 1772.56 185.514 Q1770.57 182.805 1767.17 182.805 M1767.17 179.194 Q1772.72 179.194 1775.9 182.805 Q1779.07 186.416 1779.07 192.805 Q1779.07 199.171 1775.9 202.805 Q1772.72 206.416 1767.17 206.416 Q1761.59 206.416 1758.42 202.805 Q1755.27 199.171 1755.27 192.805 Q1755.27 186.416 1758.42 182.805 Q1761.59 179.194 1767.17 179.194 Z" fill="#000000" fill-rule="nonzero" fill-opacity="1" /><path clip-path="url(#clip410)" d="M1790.25 201.856 L1790.25 215.606 L1785.97 215.606 L1785.97 179.819 L1790.25 179.819 L1790.25 183.754 Q1791.59 181.44 1793.63 180.328 Q1795.69 179.194 1798.53 179.194 Q1803.26 179.194 1806.2 182.944 Q1809.16 186.694 1809.16 192.805 Q1809.16 198.916 1806.2 202.666 Q1803.26 206.416 1798.53 206.416 Q1795.69 206.416 1793.63 205.305 Q1791.59 204.171 1790.25 201.856 M1804.74 192.805 Q1804.74 188.106 1802.79 185.444 Q1800.87 182.759 1797.49 182.759 Q1794.11 182.759 1792.17 185.444 Q1790.25 188.106 1790.25 192.805 Q1790.25 197.504 1792.17 200.189 Q1794.11 202.851 1797.49 202.851 Q1800.87 202.851 1802.79 200.189 Q1804.74 197.504 1804.74 192.805 Z" fill="#000000" fill-rule="nonzero" fill-opacity="1" /><path clip-path="url(#clip410)" d="M1820.43 172.458 L1820.43 179.819 L1829.21 179.819 L1829.21 183.129 L1820.43 183.129 L1820.43 197.203 Q1820.43 200.375 1821.29 201.277 Q1822.17 202.18 1824.83 202.18 L1829.21 202.18 L1829.21 205.745 L1824.83 205.745 Q1819.9 205.745 1818.03 203.916 Q1816.15 202.064 1816.15 197.203 L1816.15 183.129 L1813.03 183.129 L1813.03 179.819 L1816.15 179.819 L1816.15 172.458 L1820.43 172.458 Z" fill="#000000" fill-rule="nonzero" fill-opacity="1" /><path clip-path="url(#clip410)" d="M1834.81 179.819 L1839.07 179.819 L1839.07 205.745 L1834.81 205.745 L1834.81 179.819 M1834.81 169.727 L1839.07 169.727 L1839.07 175.12 L1834.81 175.12 L1834.81 169.727 Z" fill="#000000" fill-rule="nonzero" fill-opacity="1" /><path clip-path="url(#clip410)" d="M1868.16 184.796 Q1869.76 181.926 1871.98 180.56 Q1874.21 179.194 1877.21 179.194 Q1881.27 179.194 1883.46 182.041 Q1885.66 184.865 1885.66 190.097 L1885.66 205.745 L1881.38 205.745 L1881.38 190.236 Q1881.38 186.509 1880.06 184.703 Q1878.74 182.898 1876.03 182.898 Q1872.72 182.898 1870.8 185.097 Q1868.88 187.296 1868.88 191.092 L1868.88 205.745 L1864.6 205.745 L1864.6 190.236 Q1864.6 186.486 1863.28 184.703 Q1861.96 182.898 1859.21 182.898 Q1855.94 182.898 1854.02 185.12 Q1852.1 187.319 1852.1 191.092 L1852.1 205.745 L1847.82 205.745 L1847.82 179.819 L1852.1 179.819 L1852.1 183.847 Q1853.56 181.463 1855.59 180.328 Q1857.63 179.194 1860.43 179.194 Q1863.26 179.194 1865.22 180.629 Q1867.21 182.065 1868.16 184.796 Z" fill="#000000" fill-rule="nonzero" fill-opacity="1" /><path clip-path="url(#clip410)" d="M1894.16 179.819 L1898.42 179.819 L1898.42 205.745 L1894.16 205.745 L1894.16 179.819 M1894.16 169.727 L1898.42 169.727 L1898.42 175.12 L1894.16 175.12 L1894.16 169.727 Z" fill="#000000" fill-rule="nonzero" fill-opacity="1" /><path clip-path="url(#clip410)" d="M1923.86 180.583 L1923.86 184.611 Q1922.05 183.685 1920.11 183.222 Q1918.16 182.759 1916.08 182.759 Q1912.91 182.759 1911.31 183.731 Q1909.74 184.703 1909.74 186.648 Q1909.74 188.129 1910.87 188.986 Q1912.01 189.819 1915.43 190.583 L1916.89 190.907 Q1921.43 191.879 1923.33 193.662 Q1925.25 195.421 1925.25 198.592 Q1925.25 202.203 1922.38 204.31 Q1919.53 206.416 1914.53 206.416 Q1912.45 206.416 1910.18 206 Q1907.93 205.606 1905.43 204.796 L1905.43 200.398 Q1907.79 201.625 1910.09 202.25 Q1912.38 202.851 1914.62 202.851 Q1917.63 202.851 1919.25 201.833 Q1920.87 200.791 1920.87 198.916 Q1920.87 197.18 1919.69 196.254 Q1918.53 195.328 1914.58 194.472 L1913.09 194.125 Q1909.14 193.291 1907.38 191.578 Q1905.62 189.842 1905.62 186.833 Q1905.62 183.176 1908.21 181.185 Q1910.8 179.194 1915.57 179.194 Q1917.93 179.194 1920.02 179.541 Q1922.1 179.889 1923.86 180.583 Z" fill="#000000" fill-rule="nonzero" fill-opacity="1" /><path clip-path="url(#clip410)" d="M1954.21 191.717 L1954.21 193.801 L1934.62 193.801 Q1934.9 198.199 1937.26 200.514 Q1939.65 202.805 1943.88 202.805 Q1946.33 202.805 1948.63 202.203 Q1950.94 201.601 1953.21 200.398 L1953.21 204.426 Q1950.92 205.398 1948.51 205.907 Q1946.1 206.416 1943.63 206.416 Q1937.42 206.416 1933.79 202.805 Q1930.18 199.194 1930.18 193.037 Q1930.18 186.671 1933.6 182.944 Q1937.05 179.194 1942.89 179.194 Q1948.12 179.194 1951.15 182.574 Q1954.21 185.93 1954.21 191.717 M1949.95 190.467 Q1949.9 186.972 1947.98 184.889 Q1946.08 182.805 1942.93 182.805 Q1939.37 182.805 1937.21 184.819 Q1935.08 186.833 1934.76 190.49 L1949.95 190.467 Z" fill="#000000" fill-rule="nonzero" fill-opacity="1" /><path clip-path="url(#clip410)" d="M1978.26 183.754 L1978.26 169.727 L1982.52 169.727 L1982.52 205.745 L1978.26 205.745 L1978.26 201.856 Q1976.91 204.171 1974.85 205.305 Q1972.82 206.416 1969.95 206.416 Q1965.25 206.416 1962.28 202.666 Q1959.34 198.916 1959.34 192.805 Q1959.34 186.694 1962.28 182.944 Q1965.25 179.194 1969.95 179.194 Q1972.82 179.194 1974.85 180.328 Q1976.91 181.44 1978.26 183.754 M1963.74 192.805 Q1963.74 197.504 1965.66 200.189 Q1967.61 202.851 1970.99 202.851 Q1974.37 202.851 1976.31 200.189 Q1978.26 197.504 1978.26 192.805 Q1978.26 188.106 1976.31 185.444 Q1974.37 182.759 1970.99 182.759 Q1967.61 182.759 1965.66 185.444 Q1963.74 188.106 1963.74 192.805 Z" fill="#000000" fill-rule="nonzero" fill-opacity="1" /><polyline clip-path="url(#clip410)" style="stroke:#3da44d; stroke-linecap:round; stroke-linejoin:round; stroke-width:6; stroke-opacity:1; fill:none" points="1551.4,240.305 1674.76,240.305 "/>
<path clip-path="url(#clip410)" d="M1711.34 226.196 Q1706.24 226.196 1703.23 229.993 Q1700.25 233.789 1700.25 240.34 Q1700.25 246.867 1703.23 250.664 Q1706.24 254.46 1711.34 254.46 Q1716.43 254.46 1719.39 250.664 Q1722.38 246.867 1722.38 240.34 Q1722.38 233.789 1719.39 229.993 Q1716.43 226.196 1711.34 226.196 M1711.34 222.4 Q1718.6 222.4 1722.96 227.284 Q1727.31 232.145 1727.31 240.34 Q1727.31 248.511 1722.96 253.395 Q1718.6 258.256 1711.34 258.256 Q1704.04 258.256 1699.67 253.395 Q1695.32 248.534 1695.32 240.34 Q1695.32 232.145 1699.67 227.284 Q1704.04 222.4 1711.34 222.4 Z" fill="#000000" fill-rule="nonzero" fill-opacity="1" /><path clip-path="url(#clip410)" d="M1738.56 253.696 L1738.56 267.446 L1734.28 267.446 L1734.28 231.659 L1738.56 231.659 L1738.56 235.594 Q1739.9 233.28 1741.94 232.168 Q1744 231.034 1746.85 231.034 Q1751.57 231.034 1754.51 234.784 Q1757.47 238.534 1757.47 244.645 Q1757.47 250.756 1754.51 254.506 Q1751.57 258.256 1746.85 258.256 Q1744 258.256 1741.94 257.145 Q1739.9 256.011 1738.56 253.696 M1753.05 244.645 Q1753.05 239.946 1751.1 237.284 Q1749.18 234.599 1745.8 234.599 Q1742.42 234.599 1740.48 237.284 Q1738.56 239.946 1738.56 244.645 Q1738.56 249.344 1740.48 252.029 Q1742.42 254.691 1745.8 254.691 Q1749.18 254.691 1751.1 252.029 Q1753.05 249.344 1753.05 244.645 Z" fill="#000000" fill-rule="nonzero" fill-opacity="1" /><path clip-path="url(#clip410)" d="M1768.74 224.298 L1768.74 231.659 L1777.52 231.659 L1777.52 234.969 L1768.74 234.969 L1768.74 249.043 Q1768.74 252.215 1769.6 253.117 Q1770.48 254.02 1773.14 254.02 L1777.52 254.02 L1777.52 257.585 L1773.14 257.585 Q1768.21 257.585 1766.34 255.756 Q1764.46 253.904 1764.46 249.043 L1764.46 234.969 L1761.34 234.969 L1761.34 231.659 L1764.46 231.659 L1764.46 224.298 L1768.74 224.298 Z" fill="#000000" fill-rule="nonzero" fill-opacity="1" /><path clip-path="url(#clip410)" d="M1783.12 231.659 L1787.38 231.659 L1787.38 257.585 L1783.12 257.585 L1783.12 231.659 M1783.12 221.567 L1787.38 221.567 L1787.38 226.96 L1783.12 226.96 L1783.12 221.567 Z" fill="#000000" fill-rule="nonzero" fill-opacity="1" /><path clip-path="url(#clip410)" d="M1816.47 236.636 Q1818.07 233.766 1820.29 232.4 Q1822.52 231.034 1825.53 231.034 Q1829.58 231.034 1831.78 233.881 Q1833.97 236.705 1833.97 241.937 L1833.97 257.585 L1829.69 257.585 L1829.69 242.076 Q1829.69 238.349 1828.37 236.543 Q1827.05 234.738 1824.34 234.738 Q1821.03 234.738 1819.11 236.937 Q1817.19 239.136 1817.19 242.932 L1817.19 257.585 L1812.91 257.585 L1812.91 242.076 Q1812.91 238.326 1811.59 236.543 Q1810.27 234.738 1807.52 234.738 Q1804.25 234.738 1802.33 236.96 Q1800.41 239.159 1800.41 242.932 L1800.41 257.585 L1796.13 257.585 L1796.13 231.659 L1800.41 231.659 L1800.41 235.687 Q1801.87 233.303 1803.91 232.168 Q1805.94 231.034 1808.74 231.034 Q1811.57 231.034 1813.53 232.469 Q1815.53 233.905 1816.47 236.636 Z" fill="#000000" fill-rule="nonzero" fill-opacity="1" /><path clip-path="url(#clip410)" d="M1842.47 231.659 L1846.73 231.659 L1846.73 257.585 L1842.47 257.585 L1842.47 231.659 M1842.47 221.567 L1846.73 221.567 L1846.73 226.96 L1842.47 226.96 L1842.47 221.567 Z" fill="#000000" fill-rule="nonzero" fill-opacity="1" /><path clip-path="url(#clip410)" d="M1853.79 231.659 L1874.02 231.659 L1874.02 235.548 L1858 254.182 L1874.02 254.182 L1874.02 257.585 L1853.21 257.585 L1853.21 253.696 L1869.23 235.062 L1853.79 235.062 L1853.79 231.659 Z" fill="#000000" fill-rule="nonzero" fill-opacity="1" /><path clip-path="url(#clip410)" d="M1902.7 243.557 L1902.7 245.641 L1883.12 245.641 Q1883.4 250.039 1885.76 252.354 Q1888.14 254.645 1892.38 254.645 Q1894.83 254.645 1897.12 254.043 Q1899.44 253.441 1901.71 252.238 L1901.71 256.266 Q1899.41 257.238 1897.01 257.747 Q1894.6 258.256 1892.12 258.256 Q1885.92 258.256 1882.28 254.645 Q1878.67 251.034 1878.67 244.877 Q1878.67 238.511 1882.1 234.784 Q1885.55 231.034 1891.38 231.034 Q1896.61 231.034 1899.65 234.414 Q1902.7 237.77 1902.7 243.557 M1898.44 242.307 Q1898.4 238.812 1896.47 236.729 Q1894.58 234.645 1891.43 234.645 Q1887.86 234.645 1885.71 236.659 Q1883.58 238.673 1883.26 242.33 L1898.44 242.307 Z" fill="#000000" fill-rule="nonzero" fill-opacity="1" /><path clip-path="url(#clip410)" d="M1926.75 235.594 L1926.75 221.567 L1931.01 221.567 L1931.01 257.585 L1926.75 257.585 L1926.75 253.696 Q1925.41 256.011 1923.35 257.145 Q1921.31 258.256 1918.44 258.256 Q1913.74 258.256 1910.78 254.506 Q1907.84 250.756 1907.84 244.645 Q1907.84 238.534 1910.78 234.784 Q1913.74 231.034 1918.44 231.034 Q1921.31 231.034 1923.35 232.168 Q1925.41 233.28 1926.75 235.594 M1912.24 244.645 Q1912.24 249.344 1914.16 252.029 Q1916.1 254.691 1919.48 254.691 Q1922.86 254.691 1924.81 252.029 Q1926.75 249.344 1926.75 244.645 Q1926.75 239.946 1924.81 237.284 Q1922.86 234.599 1919.48 234.599 Q1916.1 234.599 1914.16 237.284 Q1912.24 239.946 1912.24 244.645 Z" fill="#000000" fill-rule="nonzero" fill-opacity="1" /><path clip-path="url(#clip410)" d="M1958.21 231.659 L1958.21 248.442 Q1958.21 251.566 1959.37 253.048 Q1960.64 254.645 1963.12 254.645 Q1966.59 254.645 1969.02 249.83 Q1970.39 247.099 1970.73 242.77 Q1970.92 240.409 1970.22 237.446 Q1969.58 234.692 1967.12 231.659 L1971.43 231.659 L1971.43 231.659 Q1973.05 233.743 1974.09 236.59 Q1975.06 239.252 1975.06 242.817 Q1975.06 248.673 1972.1 253.002 Q1968.49 258.279 1962.61 258.256 Q1958.46 258.256 1956.13 255.479 Q1953.86 252.747 1953.86 248.187 L1953.83 231.659 L1958.21 231.659 Z" fill="#000000" fill-rule="nonzero" fill-opacity="1" /></svg>
