<?xml version="1.0" encoding="utf-8"?>
<svg xmlns="http://www.w3.org/2000/svg" xmlns:xlink="http://www.w3.org/1999/xlink" width="528" height="336" viewBox="0 0 2112 1344">
<defs>
  <clipPath id="clip420">
    <rect x="0" y="0" width="2112" height="1344"/>
  </clipPath>
</defs>
<path clip-path="url(#clip420)" d="M0 1344 L2112 1344 L2112 2.13163e-14 L0 2.13163e-14  Z" fill="#ffffff" fill-rule="evenodd" fill-opacity="1"/>
<defs>
  <clipPath id="clip421">
    <rect x="422" y="0" width="1479" height="1344"/>
  </clipPath>
</defs>
<path clip-path="url(#clip420)" d="M214.826 1173.47 L2064.76 1173.47 L2064.76 47.2441 L214.826 47.2441  Z" fill="#ffffff" fill-rule="evenodd" fill-opacity="1"/>
<defs>
  <clipPath id="clip422">
    <rect x="214" y="47" width="1851" height="1127"/>
  </clipPath>
</defs>
<polyline clip-path="url(#clip422)" style="stroke:#000000; stroke-linecap:round; stroke-linejoin:round; stroke-width:2; stroke-opacity:0.1; fill:none" points="214.826,1173.47 214.826,47.2441 "/>
<polyline clip-path="url(#clip422)" style="stroke:#000000; stroke-linecap:round; stroke-linejoin:round; stroke-width:2; stroke-opacity:0.1; fill:none" points="677.309,1173.47 677.309,47.2441 "/>
<polyline clip-path="url(#clip422)" style="stroke:#000000; stroke-linecap:round; stroke-linejoin:round; stroke-width:2; stroke-opacity:0.1; fill:none" points="1139.79,1173.47 1139.79,47.2441 "/>
<polyline clip-path="url(#clip422)" style="stroke:#000000; stroke-linecap:round; stroke-linejoin:round; stroke-width:2; stroke-opacity:0.1; fill:none" points="1602.27,1173.47 1602.27,47.2441 "/>
<polyline clip-path="url(#clip422)" style="stroke:#000000; stroke-linecap:round; stroke-linejoin:round; stroke-width:2; stroke-opacity:0.1; fill:none" points="2064.76,1173.47 2064.76,47.2441 "/>
<polyline clip-path="url(#clip422)" style="stroke:#000000; stroke-linecap:round; stroke-linejoin:round; stroke-width:2; stroke-opacity:0.1; fill:none" points="214.826,1173.47 2064.76,1173.47 "/>
<polyline clip-path="url(#clip422)" style="stroke:#000000; stroke-linecap:round; stroke-linejoin:round; stroke-width:2; stroke-opacity:0.1; fill:none" points="214.826,948.225 2064.76,948.225 "/>
<polyline clip-path="url(#clip422)" style="stroke:#000000; stroke-linecap:round; stroke-linejoin:round; stroke-width:2; stroke-opacity:0.1; fill:none" points="214.826,722.98 2064.76,722.98 "/>
<polyline clip-path="url(#clip422)" style="stroke:#000000; stroke-linecap:round; stroke-linejoin:round; stroke-width:2; stroke-opacity:0.1; fill:none" points="214.826,497.735 2064.76,497.735 "/>
<polyline clip-path="url(#clip422)" style="stroke:#000000; stroke-linecap:round; stroke-linejoin:round; stroke-width:2; stroke-opacity:0.1; fill:none" points="214.826,272.489 2064.76,272.489 "/>
<polyline clip-path="url(#clip422)" style="stroke:#000000; stroke-linecap:round; stroke-linejoin:round; stroke-width:2; stroke-opacity:0.1; fill:none" points="214.826,47.2441 2064.76,47.2441 "/>
<polyline clip-path="url(#clip420)" style="stroke:#000000; stroke-linecap:round; stroke-linejoin:round; stroke-width:4; stroke-opacity:1; fill:none" points="214.826,1173.47 2064.76,1173.47 "/>
<polyline clip-path="url(#clip420)" style="stroke:#000000; stroke-linecap:round; stroke-linejoin:round; stroke-width:4; stroke-opacity:1; fill:none" points="214.826,1173.47 214.826,1154.57 "/>
<polyline clip-path="url(#clip420)" style="stroke:#000000; stroke-linecap:round; stroke-linejoin:round; stroke-width:4; stroke-opacity:1; fill:none" points="677.309,1173.47 677.309,1154.57 "/>
<polyline clip-path="url(#clip420)" style="stroke:#000000; stroke-linecap:round; stroke-linejoin:round; stroke-width:4; stroke-opacity:1; fill:none" points="1139.79,1173.47 1139.79,1154.57 "/>
<polyline clip-path="url(#clip420)" style="stroke:#000000; stroke-linecap:round; stroke-linejoin:round; stroke-width:4; stroke-opacity:1; fill:none" points="1602.27,1173.47 1602.27,1154.57 "/>
<polyline clip-path="url(#clip420)" style="stroke:#000000; stroke-linecap:round; stroke-linejoin:round; stroke-width:4; stroke-opacity:1; fill:none" points="2064.76,1173.47 2064.76,1154.57 "/>
<path clip-path="url(#clip420)" d="M214.826 1202.09 Q211.215 1202.09 209.386 1205.65 Q207.581 1209.19 207.581 1216.32 Q207.581 1223.43 209.386 1226.99 Q211.215 1230.53 214.826 1230.53 Q218.461 1230.53 220.266 1226.99 Q222.095 1223.43 222.095 1216.32 Q222.095 1209.19 220.266 1205.65 Q218.461 1202.09 214.826 1202.09 M214.826 1198.38 Q220.636 1198.38 223.692 1202.99 Q226.771 1207.57 226.771 1216.32 Q226.771 1225.05 223.692 1229.65 Q220.636 1234.24 214.826 1234.24 Q209.016 1234.24 205.937 1229.65 Q202.882 1225.05 202.882 1216.32 Q202.882 1207.57 205.937 1202.99 Q209.016 1198.38 214.826 1198.38 Z" fill="#000000" fill-rule="nonzero" fill-opacity="1" /><path clip-path="url(#clip420)" d="M651.996 1229.63 L659.635 1229.63 L659.635 1203.27 L651.325 1204.93 L651.325 1200.67 L659.589 1199.01 L664.265 1199.01 L664.265 1229.63 L671.904 1229.63 L671.904 1233.57 L651.996 1233.57 L651.996 1229.63 Z" fill="#000000" fill-rule="nonzero" fill-opacity="1" /><path clip-path="url(#clip420)" d="M691.348 1202.09 Q687.737 1202.09 685.908 1205.65 Q684.103 1209.19 684.103 1216.32 Q684.103 1223.43 685.908 1226.99 Q687.737 1230.53 691.348 1230.53 Q694.982 1230.53 696.788 1226.99 Q698.616 1223.43 698.616 1216.32 Q698.616 1209.19 696.788 1205.65 Q694.982 1202.09 691.348 1202.09 M691.348 1198.38 Q697.158 1198.38 700.214 1202.99 Q703.292 1207.57 703.292 1216.32 Q703.292 1225.05 700.214 1229.65 Q697.158 1234.24 691.348 1234.24 Q685.538 1234.24 682.459 1229.65 Q679.404 1225.05 679.404 1216.32 Q679.404 1207.57 682.459 1202.99 Q685.538 1198.38 691.348 1198.38 Z" fill="#000000" fill-rule="nonzero" fill-opacity="1" /><path clip-path="url(#clip420)" d="M1118.56 1229.63 L1134.88 1229.63 L1134.88 1233.57 L1112.94 1233.57 L1112.94 1229.63 Q1115.6 1226.88 1120.18 1222.25 Q1124.79 1217.59 1125.97 1216.25 Q1128.22 1213.73 1129.1 1211.99 Q1130 1210.23 1130 1208.54 Q1130 1205.79 1128.06 1204.05 Q1126.13 1202.32 1123.03 1202.32 Q1120.83 1202.32 1118.38 1203.08 Q1115.95 1203.84 1113.17 1205.4 L1113.17 1200.67 Q1115.99 1199.54 1118.45 1198.96 Q1120.9 1198.38 1122.94 1198.38 Q1128.31 1198.38 1131.5 1201.07 Q1134.7 1203.75 1134.7 1208.24 Q1134.7 1210.37 1133.89 1212.29 Q1133.1 1214.19 1130.99 1216.78 Q1130.42 1217.46 1127.31 1220.67 Q1124.21 1223.87 1118.56 1229.63 Z" fill="#000000" fill-rule="nonzero" fill-opacity="1" /><path clip-path="url(#clip420)" d="M1154.7 1202.09 Q1151.09 1202.09 1149.26 1205.65 Q1147.45 1209.19 1147.45 1216.32 Q1147.45 1223.43 1149.26 1226.99 Q1151.09 1230.53 1154.7 1230.53 Q1158.33 1230.53 1160.14 1226.99 Q1161.97 1223.43 1161.97 1216.32 Q1161.97 1209.19 1160.14 1205.65 Q1158.33 1202.09 1154.7 1202.09 M1154.7 1198.38 Q1160.51 1198.38 1163.56 1202.99 Q1166.64 1207.57 1166.64 1216.32 Q1166.64 1225.05 1163.56 1229.65 Q1160.51 1234.24 1154.7 1234.24 Q1148.89 1234.24 1145.81 1229.65 Q1142.75 1225.05 1142.75 1216.32 Q1142.75 1207.57 1145.81 1202.99 Q1148.89 1198.38 1154.7 1198.38 Z" fill="#000000" fill-rule="nonzero" fill-opacity="1" /><path clip-path="url(#clip420)" d="M1591.12 1214.93 Q1594.47 1215.65 1596.35 1217.92 Q1598.25 1220.19 1598.25 1223.52 Q1598.25 1228.64 1594.73 1231.44 Q1591.21 1234.24 1584.73 1234.24 Q1582.55 1234.24 1580.24 1233.8 Q1577.94 1233.38 1575.49 1232.53 L1575.49 1228.01 Q1577.44 1229.15 1579.75 1229.72 Q1582.07 1230.3 1584.59 1230.3 Q1588.99 1230.3 1591.28 1228.57 Q1593.59 1226.83 1593.59 1223.52 Q1593.59 1220.46 1591.44 1218.75 Q1589.31 1217.02 1585.49 1217.02 L1581.46 1217.02 L1581.46 1213.17 L1585.68 1213.17 Q1589.13 1213.17 1590.95 1211.81 Q1592.78 1210.42 1592.78 1207.83 Q1592.78 1205.16 1590.88 1203.75 Q1589.01 1202.32 1585.49 1202.32 Q1583.57 1202.32 1581.37 1202.73 Q1579.17 1203.15 1576.53 1204.03 L1576.53 1199.86 Q1579.19 1199.12 1581.51 1198.75 Q1583.85 1198.38 1585.91 1198.38 Q1591.23 1198.38 1594.33 1200.81 Q1597.44 1203.22 1597.44 1207.34 Q1597.44 1210.21 1595.79 1212.2 Q1594.15 1214.17 1591.12 1214.93 Z" fill="#000000" fill-rule="nonzero" fill-opacity="1" /><path clip-path="url(#clip420)" d="M1617.11 1202.09 Q1613.5 1202.09 1611.67 1205.65 Q1609.87 1209.19 1609.87 1216.32 Q1609.87 1223.43 1611.67 1226.99 Q1613.5 1230.53 1617.11 1230.53 Q1620.75 1230.53 1622.55 1226.99 Q1624.38 1223.43 1624.38 1216.32 Q1624.38 1209.19 1622.55 1205.65 Q1620.75 1202.09 1617.11 1202.09 M1617.11 1198.38 Q1622.92 1198.38 1625.98 1202.99 Q1629.06 1207.57 1629.06 1216.32 Q1629.06 1225.05 1625.98 1229.65 Q1622.92 1234.24 1617.11 1234.24 Q1611.3 1234.24 1608.22 1229.65 Q1605.17 1225.05 1605.17 1216.32 Q1605.17 1207.57 1608.22 1202.99 Q1611.3 1198.38 1617.11 1198.38 Z" fill="#000000" fill-rule="nonzero" fill-opacity="1" /><path clip-path="url(#clip420)" d="M2052.93 1203.08 L2041.12 1221.53 L2052.93 1221.53 L2052.93 1203.08 M2051.7 1199.01 L2057.58 1199.01 L2057.58 1221.53 L2062.51 1221.53 L2062.51 1225.42 L2057.58 1225.42 L2057.58 1233.57 L2052.93 1233.57 L2052.93 1225.42 L2037.33 1225.42 L2037.33 1220.9 L2051.7 1199.01 Z" fill="#000000" fill-rule="nonzero" fill-opacity="1" /><path clip-path="url(#clip420)" d="M2080.24 1202.09 Q2076.63 1202.09 2074.8 1205.65 Q2073 1209.19 2073 1216.32 Q2073 1223.43 2074.8 1226.99 Q2076.63 1230.53 2080.24 1230.53 Q2083.88 1230.53 2085.68 1226.99 Q2087.51 1223.43 2087.51 1216.32 Q2087.51 1209.19 2085.68 1205.65 Q2083.88 1202.09 2080.24 1202.09 M2080.24 1198.38 Q2086.05 1198.38 2089.11 1202.99 Q2092.19 1207.57 2092.19 1216.32 Q2092.19 1225.05 2089.11 1229.65 Q2086.05 1234.24 2080.24 1234.24 Q2074.43 1234.24 2071.35 1229.65 Q2068.3 1225.05 2068.3 1216.32 Q2068.3 1207.57 2071.35 1202.99 Q2074.43 1198.38 2080.24 1198.38 Z" fill="#000000" fill-rule="nonzero" fill-opacity="1" /><path clip-path="url(#clip420)" d="M812.196 1266.49 L852.395 1266.49 L852.395 1271.91 L835.526 1271.91 L835.526 1314.01 L829.065 1314.01 L829.065 1271.91 L812.196 1271.91 L812.196 1266.49 Z" fill="#000000" fill-rule="nonzero" fill-opacity="1" /><path clip-path="url(#clip420)" d="M856.342 1278.37 L862.199 1278.37 L862.199 1314.01 L856.342 1314.01 L856.342 1278.37 M856.342 1264.49 L862.199 1264.49 L862.199 1271.91 L856.342 1271.91 L856.342 1264.49 Z" fill="#000000" fill-rule="nonzero" fill-opacity="1" /><path clip-path="url(#clip420)" d="M902.207 1285.21 Q904.403 1281.26 907.459 1279.39 Q910.514 1277.51 914.652 1277.51 Q920.222 1277.51 923.246 1281.42 Q926.269 1285.31 926.269 1292.5 L926.269 1314.01 L920.381 1314.01 L920.381 1292.69 Q920.381 1287.57 918.567 1285.08 Q916.753 1282.6 913.029 1282.6 Q908.477 1282.6 905.835 1285.62 Q903.194 1288.65 903.194 1293.87 L903.194 1314.01 L897.305 1314.01 L897.305 1292.69 Q897.305 1287.53 895.491 1285.08 Q893.677 1282.6 889.889 1282.6 Q885.402 1282.6 882.76 1285.66 Q880.118 1288.68 880.118 1293.87 L880.118 1314.01 L874.23 1314.01 L874.23 1278.37 L880.118 1278.37 L880.118 1283.9 Q882.123 1280.63 884.924 1279.07 Q887.725 1277.51 891.576 1277.51 Q895.459 1277.51 898.165 1279.48 Q900.902 1281.45 902.207 1285.21 Z" fill="#000000" fill-rule="nonzero" fill-opacity="1" /><path clip-path="url(#clip420)" d="M968.442 1294.73 L968.442 1297.59 L941.515 1297.59 Q941.897 1303.64 945.144 1306.82 Q948.422 1309.97 954.247 1309.97 Q957.62 1309.97 960.772 1309.14 Q963.954 1308.32 967.074 1306.66 L967.074 1312.2 Q963.923 1313.54 960.612 1314.24 Q957.302 1314.94 953.897 1314.94 Q945.366 1314.94 940.369 1309.97 Q935.404 1305.01 935.404 1296.54 Q935.404 1287.79 940.115 1282.66 Q944.857 1277.51 952.878 1277.51 Q960.071 1277.51 964.241 1282.15 Q968.442 1286.77 968.442 1294.73 M962.586 1293.01 Q962.522 1288.2 959.88 1285.34 Q957.27 1282.47 952.942 1282.47 Q948.04 1282.47 945.08 1285.24 Q942.152 1288.01 941.706 1293.04 L962.586 1293.01 Z" fill="#000000" fill-rule="nonzero" fill-opacity="1" /><path clip-path="url(#clip420)" d="M1012.59 1282.47 Q1007.88 1282.47 1005.14 1286.16 Q1002.4 1289.83 1002.4 1296.22 Q1002.4 1302.62 1005.11 1306.31 Q1007.85 1309.97 1012.59 1309.97 Q1017.27 1309.97 1020 1306.28 Q1022.74 1302.59 1022.74 1296.22 Q1022.74 1289.89 1020 1286.2 Q1017.27 1282.47 1012.59 1282.47 M1012.59 1277.51 Q1020.23 1277.51 1024.59 1282.47 Q1028.95 1287.44 1028.95 1296.22 Q1028.95 1304.98 1024.59 1309.97 Q1020.23 1314.94 1012.59 1314.94 Q1004.92 1314.94 1000.56 1309.97 Q996.228 1304.98 996.228 1296.22 Q996.228 1287.44 1000.56 1282.47 Q1004.92 1277.51 1012.59 1277.51 Z" fill="#000000" fill-rule="nonzero" fill-opacity="1" /><path clip-path="url(#clip420)" d="M1056.7 1264.49 L1056.7 1269.36 L1051.1 1269.36 Q1047.95 1269.36 1046.71 1270.63 Q1045.5 1271.91 1045.5 1275.22 L1045.5 1278.37 L1055.14 1278.37 L1055.14 1282.92 L1045.5 1282.92 L1045.5 1314.01 L1039.61 1314.01 L1039.61 1282.92 L1034.01 1282.92 L1034.01 1278.37 L1039.61 1278.37 L1039.61 1275.88 Q1039.61 1269.93 1042.38 1267.23 Q1045.15 1264.49 1051.16 1264.49 L1056.7 1264.49 Z" fill="#000000" fill-rule="nonzero" fill-opacity="1" /><path clip-path="url(#clip420)" d="M1082.32 1278.37 L1088.18 1278.37 L1088.18 1314.01 L1082.32 1314.01 L1082.32 1278.37 M1082.32 1264.49 L1088.18 1264.49 L1088.18 1271.91 L1082.32 1271.91 L1082.32 1264.49 Z" fill="#000000" fill-rule="nonzero" fill-opacity="1" /><path clip-path="url(#clip420)" d="M1130.07 1292.5 L1130.07 1314.01 L1124.21 1314.01 L1124.21 1292.69 Q1124.21 1287.63 1122.24 1285.11 Q1120.26 1282.6 1116.32 1282.6 Q1111.58 1282.6 1108.84 1285.62 Q1106.1 1288.65 1106.1 1293.87 L1106.1 1314.01 L1100.21 1314.01 L1100.21 1278.37 L1106.1 1278.37 L1106.1 1283.9 Q1108.2 1280.69 1111.03 1279.1 Q1113.9 1277.51 1117.62 1277.51 Q1123.77 1277.51 1126.92 1281.33 Q1130.07 1285.11 1130.07 1292.5 Z" fill="#000000" fill-rule="nonzero" fill-opacity="1" /><path clip-path="url(#clip420)" d="M1147.54 1268.25 L1147.54 1278.37 L1159.6 1278.37 L1159.6 1282.92 L1147.54 1282.92 L1147.54 1302.27 Q1147.54 1306.63 1148.72 1307.87 Q1149.93 1309.11 1153.59 1309.11 L1159.6 1309.11 L1159.6 1314.01 L1153.59 1314.01 Q1146.81 1314.01 1144.23 1311.5 Q1141.65 1308.95 1141.65 1302.27 L1141.65 1282.92 L1137.36 1282.92 L1137.36 1278.37 L1141.65 1278.37 L1141.65 1268.25 L1147.54 1268.25 Z" fill="#000000" fill-rule="nonzero" fill-opacity="1" /><path clip-path="url(#clip420)" d="M1197.8 1294.73 L1197.8 1297.59 L1170.87 1297.59 Q1171.25 1303.64 1174.5 1306.82 Q1177.78 1309.97 1183.6 1309.97 Q1186.98 1309.97 1190.13 1309.14 Q1193.31 1308.32 1196.43 1306.66 L1196.43 1312.2 Q1193.28 1313.54 1189.97 1314.24 Q1186.66 1314.94 1183.25 1314.94 Q1174.72 1314.94 1169.73 1309.97 Q1164.76 1305.01 1164.76 1296.54 Q1164.76 1287.79 1169.47 1282.66 Q1174.21 1277.51 1182.23 1277.51 Q1189.43 1277.51 1193.6 1282.15 Q1197.8 1286.77 1197.8 1294.73 M1191.94 1293.01 Q1191.88 1288.2 1189.24 1285.34 Q1186.63 1282.47 1182.3 1282.47 Q1177.4 1282.47 1174.44 1285.24 Q1171.51 1288.01 1171.06 1293.04 L1191.94 1293.01 Z" fill="#000000" fill-rule="nonzero" fill-opacity="1" /><path clip-path="url(#clip420)" d="M1228.07 1283.84 Q1227.08 1283.27 1225.9 1283.01 Q1224.76 1282.73 1223.36 1282.73 Q1218.39 1282.73 1215.72 1285.97 Q1213.08 1289.19 1213.08 1295.24 L1213.08 1314.01 L1207.19 1314.01 L1207.19 1278.37 L1213.08 1278.37 L1213.08 1283.9 Q1214.92 1280.66 1217.88 1279.1 Q1220.84 1277.51 1225.08 1277.51 Q1225.68 1277.51 1226.41 1277.6 Q1227.14 1277.67 1228.04 1277.83 L1228.07 1283.84 Z" fill="#000000" fill-rule="nonzero" fill-opacity="1" /><path clip-path="url(#clip420)" d="M1230.01 1278.37 L1236.22 1278.37 L1247.36 1308.29 L1258.5 1278.37 L1264.7 1278.37 L1251.33 1314.01 L1243.38 1314.01 L1230.01 1278.37 Z" fill="#000000" fill-rule="nonzero" fill-opacity="1" /><path clip-path="url(#clip420)" d="M1303.28 1294.73 L1303.28 1297.59 L1276.35 1297.59 Q1276.73 1303.64 1279.98 1306.82 Q1283.26 1309.97 1289.08 1309.97 Q1292.46 1309.97 1295.61 1309.14 Q1298.79 1308.32 1301.91 1306.66 L1301.91 1312.2 Q1298.76 1313.54 1295.45 1314.24 Q1292.14 1314.94 1288.73 1314.94 Q1280.2 1314.94 1275.21 1309.97 Q1270.24 1305.01 1270.24 1296.54 Q1270.24 1287.79 1274.95 1282.66 Q1279.69 1277.51 1287.71 1277.51 Q1294.91 1277.51 1299.08 1282.15 Q1303.28 1286.77 1303.28 1294.73 M1297.42 1293.01 Q1297.36 1288.2 1294.72 1285.34 Q1292.11 1282.47 1287.78 1282.47 Q1282.88 1282.47 1279.92 1285.24 Q1276.99 1288.01 1276.54 1293.04 L1297.42 1293.01 Z" fill="#000000" fill-rule="nonzero" fill-opacity="1" /><path clip-path="url(#clip420)" d="M1342.52 1292.5 L1342.52 1314.01 L1336.67 1314.01 L1336.67 1292.69 Q1336.67 1287.63 1334.69 1285.11 Q1332.72 1282.6 1328.77 1282.6 Q1324.03 1282.6 1321.29 1285.62 Q1318.56 1288.65 1318.56 1293.87 L1318.56 1314.01 L1312.67 1314.01 L1312.67 1278.37 L1318.56 1278.37 L1318.56 1283.9 Q1320.66 1280.69 1323.49 1279.1 Q1326.35 1277.51 1330.08 1277.51 Q1336.22 1277.51 1339.37 1281.33 Q1342.52 1285.11 1342.52 1292.5 Z" fill="#000000" fill-rule="nonzero" fill-opacity="1" /><path clip-path="url(#clip420)" d="M1360 1268.25 L1360 1278.37 L1372.06 1278.37 L1372.06 1282.92 L1360 1282.92 L1360 1302.27 Q1360 1306.63 1361.17 1307.87 Q1362.38 1309.11 1366.04 1309.11 L1372.06 1309.11 L1372.06 1314.01 L1366.04 1314.01 Q1359.26 1314.01 1356.69 1311.5 Q1354.11 1308.95 1354.11 1302.27 L1354.11 1282.92 L1349.81 1282.92 L1349.81 1278.37 L1354.11 1278.37 L1354.11 1268.25 L1360 1268.25 Z" fill="#000000" fill-rule="nonzero" fill-opacity="1" /><path clip-path="url(#clip420)" d="M1379.76 1278.37 L1385.62 1278.37 L1385.62 1314.01 L1379.76 1314.01 L1379.76 1278.37 M1379.76 1264.49 L1385.62 1264.49 L1385.62 1271.91 L1379.76 1271.91 L1379.76 1264.49 Z" fill="#000000" fill-rule="nonzero" fill-opacity="1" /><path clip-path="url(#clip420)" d="M1411.69 1282.47 Q1406.98 1282.47 1404.24 1286.16 Q1401.5 1289.83 1401.5 1296.22 Q1401.5 1302.62 1404.21 1306.31 Q1406.94 1309.97 1411.69 1309.97 Q1416.37 1309.97 1419.1 1306.28 Q1421.84 1302.59 1421.84 1296.22 Q1421.84 1289.89 1419.1 1286.2 Q1416.37 1282.47 1411.69 1282.47 M1411.69 1277.51 Q1419.33 1277.51 1423.69 1282.47 Q1428.05 1287.44 1428.05 1296.22 Q1428.05 1304.98 1423.69 1309.97 Q1419.33 1314.94 1411.69 1314.94 Q1404.02 1314.94 1399.66 1309.97 Q1395.33 1304.98 1395.33 1296.22 Q1395.33 1287.44 1399.66 1282.47 Q1404.02 1277.51 1411.69 1277.51 Z" fill="#000000" fill-rule="nonzero" fill-opacity="1" /><path clip-path="url(#clip420)" d="M1467.39 1292.5 L1467.39 1314.01 L1461.53 1314.01 L1461.53 1292.69 Q1461.53 1287.63 1459.56 1285.11 Q1457.58 1282.6 1453.64 1282.6 Q1448.89 1282.6 1446.16 1285.62 Q1443.42 1288.65 1443.42 1293.87 L1443.42 1314.01 L1437.53 1314.01 L1437.53 1278.37 L1443.42 1278.37 L1443.42 1283.9 Q1445.52 1280.69 1448.35 1279.1 Q1451.22 1277.51 1454.94 1277.51 Q1461.08 1277.51 1464.24 1281.33 Q1467.39 1285.11 1467.39 1292.5 Z" fill="#000000" fill-rule="nonzero" fill-opacity="1" /><polyline clip-path="url(#clip420)" style="stroke:#000000; stroke-linecap:round; stroke-linejoin:round; stroke-width:4; stroke-opacity:1; fill:none" points="214.826,1173.47 214.826,47.2441 "/>
<polyline clip-path="url(#clip420)" style="stroke:#000000; stroke-linecap:round; stroke-linejoin:round; stroke-width:4; stroke-opacity:1; fill:none" points="214.826,1173.47 233.724,1173.47 "/>
<polyline clip-path="url(#clip420)" style="stroke:#000000; stroke-linecap:round; stroke-linejoin:round; stroke-width:4; stroke-opacity:1; fill:none" points="214.826,948.225 233.724,948.225 "/>
<polyline clip-path="url(#clip420)" style="stroke:#000000; stroke-linecap:round; stroke-linejoin:round; stroke-width:4; stroke-opacity:1; fill:none" points="214.826,722.98 233.724,722.98 "/>
<polyline clip-path="url(#clip420)" style="stroke:#000000; stroke-linecap:round; stroke-linejoin:round; stroke-width:4; stroke-opacity:1; fill:none" points="214.826,497.735 233.724,497.735 "/>
<polyline clip-path="url(#clip420)" style="stroke:#000000; stroke-linecap:round; stroke-linejoin:round; stroke-width:4; stroke-opacity:1; fill:none" points="214.826,272.489 233.724,272.489 "/>
<polyline clip-path="url(#clip420)" style="stroke:#000000; stroke-linecap:round; stroke-linejoin:round; stroke-width:4; stroke-opacity:1; fill:none" points="214.826,47.2441 233.724,47.2441 "/>
<path clip-path="url(#clip420)" d="M125.971 1159.27 Q122.36 1159.27 120.531 1162.83 Q118.725 1166.38 118.725 1173.51 Q118.725 1180.61 120.531 1184.18 Q122.36 1187.72 125.971 1187.72 Q129.605 1187.72 131.41 1184.18 Q133.239 1180.61 133.239 1173.51 Q133.239 1166.38 131.41 1162.83 Q129.605 1159.27 125.971 1159.27 M125.971 1155.57 Q131.781 1155.57 134.836 1160.17 Q137.915 1164.76 137.915 1173.51 Q137.915 1182.23 134.836 1186.84 Q131.781 1191.42 125.971 1191.42 Q120.16 1191.42 117.082 1186.84 Q114.026 1182.23 114.026 1173.51 Q114.026 1164.76 117.082 1160.17 Q120.16 1155.57 125.971 1155.57 Z" fill="#000000" fill-rule="nonzero" fill-opacity="1" /><path clip-path="url(#clip420)" d="M146.133 1184.87 L151.017 1184.87 L151.017 1190.75 L146.133 1190.75 L146.133 1184.87 Z" fill="#000000" fill-rule="nonzero" fill-opacity="1" /><path clip-path="url(#clip420)" d="M171.202 1159.27 Q167.591 1159.27 165.762 1162.83 Q163.957 1166.38 163.957 1173.51 Q163.957 1180.61 165.762 1184.18 Q167.591 1187.72 171.202 1187.72 Q174.836 1187.72 176.642 1184.18 Q178.47 1180.61 178.47 1173.51 Q178.47 1166.38 176.642 1162.83 Q174.836 1159.27 171.202 1159.27 M171.202 1155.57 Q177.012 1155.57 180.068 1160.17 Q183.146 1164.76 183.146 1173.51 Q183.146 1182.23 180.068 1186.84 Q177.012 1191.42 171.202 1191.42 Q165.392 1191.42 162.313 1186.84 Q159.258 1182.23 159.258 1173.51 Q159.258 1164.76 162.313 1160.17 Q165.392 1155.57 171.202 1155.57 Z" fill="#000000" fill-rule="nonzero" fill-opacity="1" /><path clip-path="url(#clip420)" d="M127.568 934.024 Q123.957 934.024 122.128 937.589 Q120.323 941.131 120.323 948.26 Q120.323 955.367 122.128 958.931 Q123.957 962.473 127.568 962.473 Q131.202 962.473 133.008 958.931 Q134.836 955.367 134.836 948.26 Q134.836 941.131 133.008 937.589 Q131.202 934.024 127.568 934.024 M127.568 930.32 Q133.378 930.32 136.434 934.927 Q139.512 939.51 139.512 948.26 Q139.512 956.987 136.434 961.593 Q133.378 966.177 127.568 966.177 Q121.758 966.177 118.679 961.593 Q115.623 956.987 115.623 948.26 Q115.623 939.51 118.679 934.927 Q121.758 930.32 127.568 930.32 Z" fill="#000000" fill-rule="nonzero" fill-opacity="1" /><path clip-path="url(#clip420)" d="M147.73 959.626 L152.614 959.626 L152.614 965.505 L147.73 965.505 L147.73 959.626 Z" fill="#000000" fill-rule="nonzero" fill-opacity="1" /><path clip-path="url(#clip420)" d="M166.827 961.57 L183.146 961.57 L183.146 965.505 L161.202 965.505 L161.202 961.57 Q163.864 958.816 168.447 954.186 Q173.054 949.533 174.234 948.191 Q176.48 945.668 177.359 943.931 Q178.262 942.172 178.262 940.482 Q178.262 937.728 176.318 935.992 Q174.396 934.256 171.294 934.256 Q169.095 934.256 166.642 935.019 Q164.211 935.783 161.433 937.334 L161.433 932.612 Q164.257 931.478 166.711 930.899 Q169.165 930.32 171.202 930.32 Q176.572 930.32 179.767 933.006 Q182.961 935.691 182.961 940.181 Q182.961 942.311 182.151 944.232 Q181.364 946.131 179.257 948.723 Q178.679 949.394 175.577 952.612 Q172.475 955.806 166.827 961.57 Z" fill="#000000" fill-rule="nonzero" fill-opacity="1" /><path clip-path="url(#clip420)" d="M125.485 708.779 Q121.873 708.779 120.045 712.344 Q118.239 715.885 118.239 723.015 Q118.239 730.121 120.045 733.686 Q121.873 737.228 125.485 737.228 Q129.119 737.228 130.924 733.686 Q132.753 730.121 132.753 723.015 Q132.753 715.885 130.924 712.344 Q129.119 708.779 125.485 708.779 M125.485 705.075 Q131.295 705.075 134.35 709.682 Q137.429 714.265 137.429 723.015 Q137.429 731.742 134.35 736.348 Q131.295 740.931 125.485 740.931 Q119.674 740.931 116.596 736.348 Q113.54 731.742 113.54 723.015 Q113.54 714.265 116.596 709.682 Q119.674 705.075 125.485 705.075 Z" fill="#000000" fill-rule="nonzero" fill-opacity="1" /><path clip-path="url(#clip420)" d="M145.646 734.38 L150.531 734.38 L150.531 740.26 L145.646 740.26 L145.646 734.38 Z" fill="#000000" fill-rule="nonzero" fill-opacity="1" /><path clip-path="url(#clip420)" d="M173.563 709.774 L161.757 728.223 L173.563 728.223 L173.563 709.774 M172.336 705.7 L178.216 705.7 L178.216 728.223 L183.146 728.223 L183.146 732.112 L178.216 732.112 L178.216 740.26 L173.563 740.26 L173.563 732.112 L157.961 732.112 L157.961 727.598 L172.336 705.7 Z" fill="#000000" fill-rule="nonzero" fill-opacity="1" /><path clip-path="url(#clip420)" d="M125.809 483.533 Q122.198 483.533 120.369 487.098 Q118.563 490.64 118.563 497.769 Q118.563 504.876 120.369 508.441 Q122.198 511.982 125.809 511.982 Q129.443 511.982 131.248 508.441 Q133.077 504.876 133.077 497.769 Q133.077 490.64 131.248 487.098 Q129.443 483.533 125.809 483.533 M125.809 479.83 Q131.619 479.83 134.674 484.436 Q137.753 489.02 137.753 497.769 Q137.753 506.496 134.674 511.103 Q131.619 515.686 125.809 515.686 Q119.998 515.686 116.92 511.103 Q113.864 506.496 113.864 497.769 Q113.864 489.02 116.92 484.436 Q119.998 479.83 125.809 479.83 Z" fill="#000000" fill-rule="nonzero" fill-opacity="1" /><path clip-path="url(#clip420)" d="M145.971 509.135 L150.855 509.135 L150.855 515.015 L145.971 515.015 L145.971 509.135 Z" fill="#000000" fill-rule="nonzero" fill-opacity="1" /><path clip-path="url(#clip420)" d="M171.619 495.871 Q168.47 495.871 166.619 498.024 Q164.79 500.177 164.79 503.927 Q164.79 507.654 166.619 509.83 Q168.47 511.982 171.619 511.982 Q174.767 511.982 176.595 509.83 Q178.447 507.654 178.447 503.927 Q178.447 500.177 176.595 498.024 Q174.767 495.871 171.619 495.871 M180.901 481.219 L180.901 485.478 Q179.142 484.645 177.336 484.205 Q175.554 483.765 173.794 483.765 Q169.165 483.765 166.711 486.89 Q164.281 490.015 163.933 496.334 Q165.299 494.32 167.359 493.256 Q169.419 492.168 171.896 492.168 Q177.105 492.168 180.114 495.339 Q183.146 498.487 183.146 503.927 Q183.146 509.251 179.998 512.468 Q176.85 515.686 171.619 515.686 Q165.623 515.686 162.452 511.103 Q159.281 506.496 159.281 497.769 Q159.281 489.575 163.17 484.714 Q167.058 479.83 173.609 479.83 Q175.369 479.83 177.151 480.177 Q178.956 480.524 180.901 481.219 Z" fill="#000000" fill-rule="nonzero" fill-opacity="1" /><path clip-path="url(#clip420)" d="M126.063 258.288 Q122.452 258.288 120.623 261.853 Q118.818 265.395 118.818 272.524 Q118.818 279.631 120.623 283.195 Q122.452 286.737 126.063 286.737 Q129.697 286.737 131.503 283.195 Q133.332 279.631 133.332 272.524 Q133.332 265.395 131.503 261.853 Q129.697 258.288 126.063 258.288 M126.063 254.584 Q131.873 254.584 134.929 259.191 Q138.008 263.774 138.008 272.524 Q138.008 281.251 134.929 285.857 Q131.873 290.441 126.063 290.441 Q120.253 290.441 117.174 285.857 Q114.119 281.251 114.119 272.524 Q114.119 263.774 117.174 259.191 Q120.253 254.584 126.063 254.584 Z" fill="#000000" fill-rule="nonzero" fill-opacity="1" /><path clip-path="url(#clip420)" d="M146.225 283.89 L151.109 283.89 L151.109 289.769 L146.225 289.769 L146.225 283.89 Z" fill="#000000" fill-rule="nonzero" fill-opacity="1" /><path clip-path="url(#clip420)" d="M171.294 273.357 Q167.961 273.357 166.04 275.14 Q164.142 276.922 164.142 280.047 Q164.142 283.172 166.04 284.955 Q167.961 286.737 171.294 286.737 Q174.628 286.737 176.549 284.955 Q178.47 283.149 178.47 280.047 Q178.47 276.922 176.549 275.14 Q174.651 273.357 171.294 273.357 M166.619 271.367 Q163.609 270.626 161.92 268.566 Q160.253 266.506 160.253 263.543 Q160.253 259.399 163.193 256.992 Q166.156 254.584 171.294 254.584 Q176.456 254.584 179.396 256.992 Q182.336 259.399 182.336 263.543 Q182.336 266.506 180.646 268.566 Q178.98 270.626 175.994 271.367 Q179.373 272.154 181.248 274.445 Q183.146 276.737 183.146 280.047 Q183.146 285.07 180.068 287.756 Q177.012 290.441 171.294 290.441 Q165.577 290.441 162.498 287.756 Q159.443 285.07 159.443 280.047 Q159.443 276.737 161.341 274.445 Q163.239 272.154 166.619 271.367 M164.906 263.983 Q164.906 266.668 166.572 268.172 Q168.262 269.677 171.294 269.677 Q174.304 269.677 175.994 268.172 Q177.706 266.668 177.706 263.983 Q177.706 261.297 175.994 259.793 Q174.304 258.288 171.294 258.288 Q168.262 258.288 166.572 259.793 Q164.906 261.297 164.906 263.983 Z" fill="#000000" fill-rule="nonzero" fill-opacity="1" /><path clip-path="url(#clip420)" d="M116.781 60.5889 L124.42 60.5889 L124.42 34.2233 L116.11 35.89 L116.11 31.6308 L124.373 29.9641 L129.049 29.9641 L129.049 60.5889 L136.688 60.5889 L136.688 64.5241 L116.781 64.5241 L116.781 60.5889 Z" fill="#000000" fill-rule="nonzero" fill-opacity="1" /><path clip-path="url(#clip420)" d="M146.133 58.6445 L151.017 58.6445 L151.017 64.5241 L146.133 64.5241 L146.133 58.6445 Z" fill="#000000" fill-rule="nonzero" fill-opacity="1" /><path clip-path="url(#clip420)" d="M171.202 33.0428 Q167.591 33.0428 165.762 36.6076 Q163.957 40.1492 163.957 47.2788 Q163.957 54.3853 165.762 57.9501 Q167.591 61.4917 171.202 61.4917 Q174.836 61.4917 176.642 57.9501 Q178.47 54.3853 178.47 47.2788 Q178.47 40.1492 176.642 36.6076 Q174.836 33.0428 171.202 33.0428 M171.202 29.3391 Q177.012 29.3391 180.068 33.9456 Q183.146 38.5289 183.146 47.2788 Q183.146 56.0056 180.068 60.6121 Q177.012 65.1954 171.202 65.1954 Q165.392 65.1954 162.313 60.6121 Q159.258 56.0056 159.258 47.2788 Q159.258 38.5289 162.313 33.9456 Q165.392 29.3391 171.202 29.3391 Z" fill="#000000" fill-rule="nonzero" fill-opacity="1" /><path clip-path="url(#clip420)" d="M23.7444 920.908 L30.5239 920.908 Q27.5002 924.155 26.0043 927.847 Q24.5083 931.507 24.5083 935.645 Q24.5083 943.793 29.5054 948.122 Q34.4707 952.45 43.8919 952.45 Q53.2813 952.45 58.2784 948.122 Q63.2436 943.793 63.2436 935.645 Q63.2436 931.507 61.7477 927.847 Q60.2518 924.155 57.2281 920.908 L63.9439 920.908 Q66.2355 924.282 67.3814 928.07 Q68.5272 931.826 68.5272 936.027 Q68.5272 946.817 61.9387 953.023 Q55.3183 959.23 43.8919 959.23 Q32.4336 959.23 25.8451 953.023 Q19.2248 946.817 19.2248 936.027 Q19.2248 931.762 20.3706 928.006 Q21.4846 924.219 23.7444 920.908 Z" fill="#000000" fill-rule="nonzero" fill-opacity="1" /><path clip-path="url(#clip420)" d="M53.5359 911.837 L31.9562 911.837 L31.9562 905.981 L53.3131 905.981 Q58.3739 905.981 60.9202 904.007 Q63.4346 902.034 63.4346 898.087 Q63.4346 893.345 60.4109 890.608 Q57.3872 887.839 52.1673 887.839 L31.9562 887.839 L31.9562 881.982 L67.6042 881.982 L67.6042 887.839 L62.1296 887.839 Q65.3762 889.971 66.9676 892.804 Q68.5272 895.605 68.5272 899.329 Q68.5272 905.472 64.7078 908.654 Q60.8883 911.837 53.5359 911.837 M31.0968 897.101 L31.0968 897.101 Z" fill="#000000" fill-rule="nonzero" fill-opacity="1" /><path clip-path="url(#clip420)" d="M38.7993 842.165 Q34.8526 839.968 32.9747 836.913 Q31.0968 833.857 31.0968 829.72 Q31.0968 824.15 35.0117 821.126 Q38.8948 818.102 46.0881 818.102 L67.6042 818.102 L67.6042 823.991 L46.279 823.991 Q41.1546 823.991 38.672 825.805 Q36.1894 827.619 36.1894 831.343 Q36.1894 835.894 39.2131 838.536 Q42.2368 841.178 47.4567 841.178 L67.6042 841.178 L67.6042 847.066 L46.279 847.066 Q41.1228 847.066 38.672 848.88 Q36.1894 850.695 36.1894 854.482 Q36.1894 858.97 39.2449 861.612 Q42.2686 864.254 47.4567 864.254 L67.6042 864.254 L67.6042 870.142 L31.9562 870.142 L31.9562 864.254 L37.4944 864.254 Q34.216 862.248 32.6564 859.448 Q31.0968 856.647 31.0968 852.795 Q31.0968 848.912 33.0702 846.207 Q35.0436 843.47 38.7993 842.165 Z" fill="#000000" fill-rule="nonzero" fill-opacity="1" /><path clip-path="url(#clip420)" d="M53.5359 807.026 L31.9562 807.026 L31.9562 801.169 L53.3131 801.169 Q58.3739 801.169 60.9202 799.196 Q63.4346 797.223 63.4346 793.276 Q63.4346 788.534 60.4109 785.796 Q57.3872 783.027 52.1673 783.027 L31.9562 783.027 L31.9562 777.171 L67.6042 777.171 L67.6042 783.027 L62.1296 783.027 Q65.3762 785.16 66.9676 787.992 Q68.5272 790.793 68.5272 794.517 Q68.5272 800.66 64.7078 803.843 Q60.8883 807.026 53.5359 807.026 M31.0968 792.289 L31.0968 792.289 Z" fill="#000000" fill-rule="nonzero" fill-opacity="1" /><path clip-path="url(#clip420)" d="M18.079 765.108 L18.079 759.251 L67.6042 759.251 L67.6042 765.108 L18.079 765.108 Z" fill="#000000" fill-rule="nonzero" fill-opacity="1" /><path clip-path="url(#clip420)" d="M49.6847 730.797 Q49.6847 737.894 51.3079 740.632 Q52.9312 743.369 56.8461 743.369 Q59.9653 743.369 61.8114 741.332 Q63.6256 739.263 63.6256 735.73 Q63.6256 730.86 60.1881 727.932 Q56.7188 724.972 50.9897 724.972 L49.6847 724.972 L49.6847 730.797 M47.2657 719.116 L67.6042 719.116 L67.6042 724.972 L62.1933 724.972 Q65.4398 726.977 66.9994 729.969 Q68.5272 732.961 68.5272 737.29 Q68.5272 742.764 65.4716 746.011 Q62.3843 749.225 57.2281 749.225 Q51.2125 749.225 48.1569 745.215 Q45.1014 741.173 45.1014 733.184 L45.1014 724.972 L44.5285 724.972 Q40.4862 724.972 38.2901 727.646 Q36.0621 730.287 36.0621 735.093 Q36.0621 738.149 36.7941 741.045 Q37.5262 743.942 38.9903 746.615 L33.5795 746.615 Q32.3381 743.401 31.7334 740.377 Q31.0968 737.353 31.0968 734.489 Q31.0968 726.754 35.1072 722.935 Q39.1176 719.116 47.2657 719.116 Z" fill="#000000" fill-rule="nonzero" fill-opacity="1" /><path clip-path="url(#clip420)" d="M21.8347 701.26 L31.9562 701.26 L31.9562 689.197 L36.5077 689.197 L36.5077 701.26 L55.8594 701.26 Q60.2199 701.26 61.4613 700.082 Q62.7026 698.873 62.7026 695.212 L62.7026 689.197 L67.6042 689.197 L67.6042 695.212 Q67.6042 701.992 65.0897 704.57 Q62.5434 707.148 55.8594 707.148 L36.5077 707.148 L36.5077 711.445 L31.9562 711.445 L31.9562 707.148 L21.8347 707.148 L21.8347 701.26 Z" fill="#000000" fill-rule="nonzero" fill-opacity="1" /><path clip-path="url(#clip420)" d="M31.9562 681.494 L31.9562 675.638 L67.6042 675.638 L67.6042 681.494 L31.9562 681.494 M18.079 681.494 L18.079 675.638 L25.495 675.638 L25.495 681.494 L18.079 681.494 Z" fill="#000000" fill-rule="nonzero" fill-opacity="1" /><path clip-path="url(#clip420)" d="M31.9562 667.585 L31.9562 661.379 L61.875 650.239 L31.9562 639.099 L31.9562 632.892 L67.6042 646.26 L67.6042 654.217 L31.9562 667.585 Z" fill="#000000" fill-rule="nonzero" fill-opacity="1" /><path clip-path="url(#clip420)" d="M48.3161 594.316 L51.1806 594.316 L51.1806 621.243 Q57.2281 620.861 60.4109 617.614 Q63.5619 614.336 63.5619 608.511 Q63.5619 605.138 62.7344 601.987 Q61.9069 598.804 60.2518 595.684 L65.7899 595.684 Q67.1267 598.835 67.827 602.146 Q68.5272 605.456 68.5272 608.861 Q68.5272 617.392 63.5619 622.389 Q58.5967 627.354 50.1303 627.354 Q41.3774 627.354 36.2531 622.643 Q31.0968 617.901 31.0968 609.88 Q31.0968 602.687 35.7438 598.517 Q40.3589 594.316 48.3161 594.316 M46.5973 600.172 Q41.7912 600.236 38.9266 602.878 Q36.0621 605.488 36.0621 609.816 Q36.0621 614.718 38.8312 617.678 Q41.6002 620.606 46.6292 621.052 L46.5973 600.172 Z" fill="#000000" fill-rule="nonzero" fill-opacity="1" /><path clip-path="url(#clip420)" d="M31.9562 563.983 L31.9562 558.127 L67.6042 558.127 L67.6042 563.983 L31.9562 563.983 M18.079 563.983 L18.079 558.127 L25.495 558.127 L25.495 563.983 L18.079 563.983 Z" fill="#000000" fill-rule="nonzero" fill-opacity="1" /><path clip-path="url(#clip420)" d="M46.0881 516.24 L67.6042 516.24 L67.6042 522.097 L46.279 522.097 Q41.2183 522.097 38.7038 524.07 Q36.1894 526.044 36.1894 529.99 Q36.1894 534.733 39.2131 537.47 Q42.2368 540.207 47.4567 540.207 L67.6042 540.207 L67.6042 546.096 L31.9562 546.096 L31.9562 540.207 L37.4944 540.207 Q34.2797 538.107 32.6883 535.274 Q31.0968 532.409 31.0968 528.685 Q31.0968 522.543 34.9163 519.391 Q38.7038 516.24 46.0881 516.24 Z" fill="#000000" fill-rule="nonzero" fill-opacity="1" /><path clip-path="url(#clip420)" d="M33.3248 478.906 L38.7993 478.906 Q37.4307 481.388 36.7623 483.903 Q36.0621 486.385 36.0621 488.932 Q36.0621 494.629 39.6905 497.78 Q43.2872 500.931 49.812 500.931 Q56.3369 500.931 59.9653 497.78 Q63.5619 494.629 63.5619 488.932 Q63.5619 486.385 62.8935 483.903 Q62.1933 481.388 60.8247 478.906 L66.2355 478.906 Q67.3814 481.356 67.9543 483.998 Q68.5272 486.608 68.5272 489.568 Q68.5272 497.621 63.4664 502.363 Q58.4057 507.106 49.812 507.106 Q41.091 507.106 36.0939 502.331 Q31.0968 497.525 31.0968 489.186 Q31.0968 486.481 31.6697 483.903 Q32.2108 481.325 33.3248 478.906 Z" fill="#000000" fill-rule="nonzero" fill-opacity="1" /><path clip-path="url(#clip420)" d="M31.9562 468.72 L31.9562 462.864 L67.6042 462.864 L67.6042 468.72 L31.9562 468.72 M18.079 468.72 L18.079 462.864 L25.495 462.864 L25.495 468.72 L18.079 468.72 Z" fill="#000000" fill-rule="nonzero" fill-opacity="1" /><path clip-path="url(#clip420)" d="M37.3671 427.152 L18.079 427.152 L18.079 421.296 L67.6042 421.296 L67.6042 427.152 L62.257 427.152 Q65.4398 428.998 66.9994 431.831 Q68.5272 434.632 68.5272 438.579 Q68.5272 445.04 63.371 449.114 Q58.2147 453.156 49.812 453.156 Q41.4093 453.156 36.2531 449.114 Q31.0968 445.04 31.0968 438.579 Q31.0968 434.632 32.6564 431.831 Q34.1842 428.998 37.3671 427.152 M49.812 447.109 Q56.2732 447.109 59.9653 444.467 Q63.6256 441.794 63.6256 437.147 Q63.6256 432.5 59.9653 429.826 Q56.2732 427.152 49.812 427.152 Q43.3508 427.152 39.6905 429.826 Q35.9984 432.5 35.9984 437.147 Q35.9984 441.794 39.6905 444.467 Q43.3508 447.109 49.812 447.109 Z" fill="#000000" fill-rule="nonzero" fill-opacity="1" /><path clip-path="url(#clip420)" d="M48.3161 378.741 L51.1806 378.741 L51.1806 405.668 Q57.2281 405.286 60.4109 402.04 Q63.5619 398.761 63.5619 392.937 Q63.5619 389.563 62.7344 386.412 Q61.9069 383.229 60.2518 380.11 L65.7899 380.11 Q67.1267 383.261 67.827 386.571 Q68.5272 389.881 68.5272 393.287 Q68.5272 401.817 63.5619 406.814 Q58.5967 411.779 50.1303 411.779 Q41.3774 411.779 36.2531 407.069 Q31.0968 402.326 31.0968 394.305 Q31.0968 387.112 35.7438 382.943 Q40.3589 378.741 48.3161 378.741 M46.5973 384.598 Q41.7912 384.661 38.9266 387.303 Q36.0621 389.913 36.0621 394.242 Q36.0621 399.143 38.8312 402.103 Q41.6002 405.032 46.6292 405.477 L46.5973 384.598 Z" fill="#000000" fill-rule="nonzero" fill-opacity="1" /><path clip-path="url(#clip420)" d="M46.0881 339.497 L67.6042 339.497 L67.6042 345.353 L46.279 345.353 Q41.2183 345.353 38.7038 347.326 Q36.1894 349.3 36.1894 353.247 Q36.1894 357.989 39.2131 360.726 Q42.2368 363.463 47.4567 363.463 L67.6042 363.463 L67.6042 369.352 L31.9562 369.352 L31.9562 363.463 L37.4944 363.463 Q34.2797 361.363 32.6883 358.53 Q31.0968 355.666 31.0968 351.942 Q31.0968 345.799 34.9163 342.648 Q38.7038 339.497 46.0881 339.497 Z" fill="#000000" fill-rule="nonzero" fill-opacity="1" /><path clip-path="url(#clip420)" d="M33.3248 302.162 L38.7993 302.162 Q37.4307 304.644 36.7623 307.159 Q36.0621 309.641 36.0621 312.188 Q36.0621 317.885 39.6905 321.036 Q43.2872 324.187 49.812 324.187 Q56.3369 324.187 59.9653 321.036 Q63.5619 317.885 63.5619 312.188 Q63.5619 309.641 62.8935 307.159 Q62.1933 304.644 60.8247 302.162 L66.2355 302.162 Q67.3814 304.613 67.9543 307.254 Q68.5272 309.864 68.5272 312.824 Q68.5272 320.877 63.4664 325.619 Q58.4057 330.362 49.812 330.362 Q41.091 330.362 36.0939 325.588 Q31.0968 320.781 31.0968 312.442 Q31.0968 309.737 31.6697 307.159 Q32.2108 304.581 33.3248 302.162 Z" fill="#000000" fill-rule="nonzero" fill-opacity="1" /><path clip-path="url(#clip420)" d="M48.3161 261.485 L51.1806 261.485 L51.1806 288.412 Q57.2281 288.03 60.4109 284.783 Q63.5619 281.505 63.5619 275.68 Q63.5619 272.307 62.7344 269.156 Q61.9069 265.973 60.2518 262.853 L65.7899 262.853 Q67.1267 266.005 67.827 269.315 Q68.5272 272.625 68.5272 276.031 Q68.5272 284.561 63.5619 289.558 Q58.5967 294.523 50.1303 294.523 Q41.3774 294.523 36.2531 289.812 Q31.0968 285.07 31.0968 277.049 Q31.0968 269.856 35.7438 265.686 Q40.3589 261.485 48.3161 261.485 M46.5973 267.341 Q41.7912 267.405 38.9266 270.047 Q36.0621 272.657 36.0621 276.985 Q36.0621 281.887 38.8312 284.847 Q41.6002 287.775 46.6292 288.221 L46.5973 267.341 Z" fill="#000000" fill-rule="nonzero" fill-opacity="1" /><polyline clip-path="url(#clip422)" style="stroke:#009af9; stroke-linecap:round; stroke-linejoin:round; stroke-width:6; stroke-opacity:1; fill:none" points="214.826,301.916 219.451,302.542 224.076,302.71 228.701,303.278 233.326,303.827 237.95,304.372 242.575,304.704 247.2,305.331 251.825,305.923 256.45,306.51 261.075,307.101 265.699,307.697 270.324,308.299 274.949,308.908 279.574,309.531 284.199,309.981 288.823,310.701 293.448,311.391 298.073,312.084 302.698,312.785 307.323,313.497 311.948,314.221 316.572,314.958 321.197,315.715 325.822,316.47 330.447,317.246 335.072,318.04 339.697,318.851 344.321,319.603 348.946,320.458 353.571,321.326 358.196,322.233 362.821,323.121 367.445,324.028 372.07,324.954 376.695,325.899 381.32,326.862 385.945,327.847 390.57,328.854 395.194,329.88 399.819,330.922 404.444,331.984 409.069,333.065 413.694,334.178 418.319,335.377 422.943,336.507 427.568,337.585 432.193,338.756 436.818,339.952 441.443,341.17 446.067,342.411 450.692,343.675 455.317,344.96 459.942,346.267 464.567,347.594 469.192,348.945 473.816,350.319 478.441,351.716 483.066,353.135 487.691,354.577 492.316,356.042 496.941,357.529 501.565,359.039 506.19,360.572 510.815,362.133 515.44,363.718 520.065,365.324 524.689,366.951 529.314,368.601 533.939,370.262 538.564,371.951 543.189,373.664 547.814,375.399 552.438,377.156 557.063,378.935 561.688,380.737 566.313,382.557 570.938,384.402 575.563,386.273 580.187,388.162 584.812,390.071 589.437,392.001 594.062,393.951 598.687,395.921 603.311,397.909 607.936,399.919 612.561,401.94 617.186,403.983 621.811,406.043 626.436,408.123 631.06,410.217 635.685,412.327 640.31,414.451 644.935,416.589 649.56,418.74 654.185,420.907 658.809,423.082 663.434,425.278 668.059,427.463 672.684,429.658 677.309,431.863 681.933,434.075 686.558,436.29 691.183,438.509 695.808,440.729 700.433,442.949 705.058,445.167 709.682,447.378 714.307,449.59 718.932,451.787 723.557,453.973 728.182,456.147 732.807,458.306 737.431,460.446 742.056,462.567 746.681,464.664 751.306,466.735 755.931,468.776 760.556,470.784 765.18,472.757 769.805,474.687 774.43,476.583 779.055,478.422 783.68,480.214 788.304,481.953 792.929,483.634 797.554,485.253 802.179,486.805 806.804,488.291 811.429,489.701 816.053,491.035 820.678,492.287 825.303,493.456 829.928,494.538 834.553,495.53 839.178,496.428 843.802,497.231 848.427,497.936 853.052,498.542 857.677,499.047 862.302,499.45 866.926,499.75 871.551,499.947 876.176,500.041 880.801,500.033 885.426,499.923 890.051,499.713 894.675,499.404 899.3,498.998 903.925,498.497 908.55,497.904 913.175,497.221 917.8,496.453 922.424,495.598 927.049,494.664 931.674,493.653 936.299,492.568 940.924,491.414 945.548,490.191 950.173,488.908 954.798,487.565 959.423,486.166 964.048,484.715 968.673,483.216 973.297,481.671 977.922,480.084 982.547,478.458 987.172,476.797 991.797,475.103 996.422,473.379 1001.05,471.629 1005.67,469.854 1010.3,468.057 1014.92,466.242 1019.55,464.41 1024.17,462.563 1028.8,460.703 1033.42,458.833 1038.04,456.955 1042.67,455.07 1047.29,453.179 1051.92,451.286 1056.54,449.39 1061.17,447.494 1065.79,445.599 1070.42,443.706 1075.04,441.816 1079.67,439.931 1084.29,438.051 1088.92,436.178 1093.54,434.313 1098.17,432.455 1102.79,430.607 1107.42,428.769 1112.04,426.941 1116.67,425.124 1121.29,423.319 1125.92,421.518 1130.54,419.738 1135.17,417.97 1139.79,416.217 1144.42,414.477 1149.04,412.752 1153.67,411.042 1158.29,409.347 1162.92,407.667 1167.54,406.003 1172.16,404.355 1176.79,402.722 1181.41,401.106 1186.04,399.506 1190.66,397.922 1195.29,396.355 1199.91,394.805 1204.54,393.271 1209.16,391.754 1213.79,390.253 1218.41,388.77 1223.04,387.303 1227.66,385.853 1232.29,384.42 1236.91,383.004 1241.54,381.605 1246.16,380.222 1250.79,378.856 1255.41,377.506 1260.04,376.174 1264.66,374.857 1269.29,373.557 1273.91,372.273 1278.54,371.006 1283.16,369.754 1287.79,368.519 1292.41,367.299 1297.04,366.096 1301.66,364.908 1306.28,363.735 1310.91,362.578 1315.53,361.436 1320.16,360.31 1324.78,359.199 1329.41,358.102 1334.03,357.021 1338.66,355.954 1343.28,354.889 1347.91,353.849 1352.53,352.824 1357.16,351.813 1361.78,350.816 1366.41,349.832 1371.03,348.862 1375.66,347.906 1380.28,346.963 1384.91,346.033 1389.53,345.116 1394.16,344.211 1398.78,343.32 1403.41,342.441 1408.03,341.574 1412.66,340.72 1417.28,339.878 1421.91,339.048 1426.53,338.229 1431.16,337.422 1435.78,336.627 1440.4,335.843 1445.03,335.07 1449.65,334.309 1454.28,333.558 1458.9,332.818 1463.53,332.089 1468.15,331.37 1472.78,330.662 1477.4,329.964 1482.03,329.276 1486.65,328.598 1491.28,327.93 1495.9,327.271 1500.53,326.622 1505.15,325.982 1509.78,325.352 1514.4,324.731 1519.03,324.119 1523.65,323.516 1528.28,322.921 1532.9,322.336 1537.53,321.758 1542.15,321.19 1546.78,320.629 1551.4,320.077 1556.03,319.532 1560.65,318.996 1565.27,318.467 1569.9,317.94 1574.52,317.428 1579.15,316.923 1583.77,316.425 1588.4,315.935 1593.02,315.453 1597.65,314.977 1602.27,314.509 1606.9,314.047 1611.52,313.592 1616.15,313.144 1620.77,312.703 1625.4,312.268 1630.02,311.84 1634.65,311.418 1639.27,311.002 1643.9,310.592 1648.52,310.189 1653.15,309.791 1657.77,309.4 1662.4,309.014 1667.02,308.634 1671.65,308.259 1676.27,307.891 1680.9,307.527 1685.52,307.169 1690.15,306.817 1694.77,306.469 1699.39,306.127 1704.02,305.79 1708.64,305.458 1713.27,305.13 1717.89,304.808 1722.52,304.49 1727.14,304.178 1731.77,303.87 1736.39,303.566 1741.02,303.267 1745.64,302.972 1750.27,302.682 1754.89,302.396 1759.52,302.115 1764.14,301.837 1768.77,301.564 1773.39,301.295 1778.02,301.027 1782.64,300.765 1787.27,300.508 1791.89,300.255 1796.52,300.005 1801.14,299.759 1805.77,299.517 1810.39,299.275 1815.02,299.04 1819.64,298.809 1824.27,298.58 1828.89,298.356 1833.51,298.134 1838.14,297.916 1842.76,297.701 1847.39,297.489 1852.01,297.281 1856.64,297.075 1861.26,296.873 1865.89,296.674 1870.51,296.478 1875.14,296.284 1879.76,296.094 1884.39,295.906 1889.01,295.721 1893.64,295.539 1898.26,295.36 1902.89,295.183 1907.51,295.009 1912.14,294.837 1916.76,294.669 1921.39,294.502 1926.01,294.338 1930.64,294.177 1935.26,294.018 1939.89,293.861 1944.51,293.707 1949.14,293.555 1953.76,293.405 1958.38,293.258 1963.01,293.112 1967.63,292.969 1972.26,292.828 1976.88,292.689 1981.51,292.553 1986.13,292.418 1990.76,292.285 1995.38,292.154 2000.01,292.026 2004.63,291.899 2009.26,291.774 2013.88,291.651 2018.51,291.53 2023.13,291.41 2027.76,291.293 2032.38,291.177 2037.01,291.063 2041.63,290.951 2046.26,290.84 2050.88,290.731 2055.51,290.624 2060.13,290.518 2064.76,290.414 2069.38,290.312 2074.01,290.211 2078.63,290.112 2083.26,290.014 2087.88,289.918 2092.5,289.823 2097.13,289.73 2101.75,289.638 2106.38,289.547 2111,289.457 2115.63,289.369 2120.25,289.281 2124.88,289.196 2129.5,289.111 2134.13,289.028 2138.75,288.946 2143.38,288.865 2148,288.785 2152.63,288.707 2157.25,288.63 2161.88,288.554 2166.5,288.479 2171.13,288.405 2175.75,288.332 2180.38,288.26 2185,288.19 2189.63,288.12 2194.25,288.052 2198.88,287.984 2203.5,287.918 2208.13,287.852 2212.75,287.788 2217.38,287.724 2222,287.662 2226.62,287.6 2231.25,287.539 2235.87,287.48 2240.5,287.421 2245.12,287.363 2249.75,287.305 2254.37,287.249 2259,287.194 2263.62,287.139 2268.25,287.085 2272.87,287.032 2277.5,286.98 2282.12,286.928 2286.75,286.878 2291.37,286.828 2296,286.779 2300.62,286.73 2305.25,286.682 2309.87,286.635 2314.5,286.589 2319.12,286.543 2323.75,286.499 2328.37,286.454 2333,286.411 2337.62,286.368 2342.25,286.326 2346.87,286.284 2351.49,286.243 2356.12,286.202 2360.74,286.162 2365.37,286.123 2369.99,286.084 2374.62,286.046 2379.24,286.009 2383.87,285.972 2388.49,285.935 2393.12,285.9 2397.74,285.864 2402.37,285.829 2406.99,285.795 2411.62,285.761 2416.24,285.728 2420.87,285.695 2425.49,285.663 2430.12,285.631 2434.74,285.6 2439.37,285.569 2443.99,285.538 2448.62,285.508 2453.24,285.479 2457.87,285.45 2462.49,285.421 2467.12,285.393 2471.74,285.365 2476.37,285.338 2480.99,285.311 2485.61,285.284 2490.24,285.258 2494.86,285.232 2499.49,285.207 2504.11,285.182 2508.74,285.157 2513.36,285.133 2517.99,285.109 2522.61,285.085 2527.24,285.062 2531.86,285.039 2536.49,285.017 2541.11,284.995 2545.74,284.973 2550.36,284.951 2554.99,284.93 2559.61,284.909 2564.24,284.889 2568.86,284.868 2573.49,284.848 2578.11,284.829 2582.74,284.809 2587.36,284.79 2591.99,284.771 2596.61,284.753 2601.24,284.735 2605.86,284.717 2610.49,284.699 2615.11,284.682 2619.73,284.665 2624.36,284.648 2628.98,284.631 2633.61,284.615 2638.23,284.598 2642.86,284.582 2647.48,284.567 2652.11,284.551 2656.73,284.536 2661.36,284.521 2665.98,284.506 2670.61,284.492 2675.23,284.477 2679.86,284.463 2684.48,284.449 2689.11,284.435 2693.73,284.422 2698.36,284.409 2702.98,284.395 2707.61,284.383 2712.23,284.37 2716.86,284.357 2721.48,284.345 2726.11,284.333 2730.73,284.321 2735.36,284.309 2739.98,284.297 2744.61,284.286 2749.23,284.275 2753.85,284.263 2758.48,284.252 2763.1,284.242 2767.73,284.231 2772.35,284.221 2776.98,284.21 2781.6,284.2 2786.23,284.19 2790.85,284.18 2795.48,284.17 2800.1,284.161 2804.73,284.151 2809.35,284.142 2813.98,284.133 2818.6,284.124 2823.23,284.115 2827.85,284.106 2832.48,284.098 2837.1,284.089 2841.73,284.081 2846.35,284.073 2850.98,284.065 2855.6,284.057 2860.23,284.049 2864.85,284.041 2869.48,284.033 2874.1,284.026 2878.72,284.018 2883.35,284.011 2887.97,284.004 2892.6,283.997 2897.22,283.99 2901.85,283.983 2906.47,283.976 2911.1,283.97 2915.72,283.963 2920.35,283.956 2924.97,283.95 2929.6,283.944 2934.22,283.938 2938.85,283.932 2943.47,283.925 2948.1,283.92 2952.72,283.914 2957.35,283.908 2961.97,283.902 2966.6,283.897 2971.22,283.891 2975.85,283.886 2980.47,283.881 2985.1,283.875 2989.72,283.87 2994.35,283.865 2998.97,283.86 3003.6,283.855 3008.22,283.85 3012.84,283.845 3017.47,283.841 3022.09,283.836 3026.72,283.831 3031.34,283.827 3035.97,283.822 3040.59,283.818 3045.22,283.814 3049.84,283.809 3054.47,283.805 3059.09,283.801 3063.72,283.797 3068.34,283.793 3072.97,283.789 3077.59,283.785 3082.22,283.781 3086.84,283.778 3091.47,283.774 3096.09,283.77 3100.72,283.767 3105.34,283.763 3109.97,283.76 3114.59,283.756 3119.22,283.753 3123.84,283.749 3128.47,283.746 3133.09,283.743 3137.72,283.74 3142.34,283.736 3146.96,283.733 3151.59,283.73 3156.21,283.727 3160.84,283.724 3165.46,283.721 3170.09,283.719 3174.71,283.716 3179.34,283.713 3183.96,283.71 3188.59,283.707 3193.21,283.705 3197.84,283.702 3202.46,283.7 3207.09,283.697 3211.71,283.695 3216.34,283.692 3220.96,283.69 3225.59,283.687 3230.21,283.685 3234.84,283.682 3239.46,283.68 3244.09,283.678 3248.71,283.676 3253.34,283.673 3257.96,283.671 3262.59,283.669 3267.21,283.667 3271.83,283.665 3276.46,283.663 3281.08,283.661 3285.71,283.659 3290.33,283.657 3294.96,283.655 3299.58,283.653 3304.21,283.651 3308.83,283.649 3313.46,283.648 3318.08,283.646 3322.71,283.644 3327.33,283.642 3331.96,283.641 3336.58,283.639 3341.21,283.637 3345.83,283.636 3350.46,283.634 3355.08,283.633 3359.71,283.631 3364.33,283.629 3368.96,283.628 3373.58,283.626 3378.21,283.625 3382.83,283.624 3387.46,283.622 3392.08,283.621 3396.71,283.619 3401.33,283.618 3405.95,283.617 3410.58,283.615 3415.2,283.614 3419.83,283.613 3424.45,283.611 3429.08,283.61 3433.7,283.609 3438.33,283.608 3442.95,283.607 3447.58,283.606 3452.2,283.604 3456.83,283.603 3461.45,283.602 3466.08,283.601 3470.7,283.6 3475.33,283.599 3479.95,283.598 3484.58,283.597 3489.2,283.596 3493.83,283.595 3498.45,283.594 3503.08,283.593 3507.7,283.592 3512.33,283.591 3516.95,283.59 3521.58,283.589 3526.2,283.588 3530.83,283.587 3535.45,283.586 3540.07,283.585 3544.7,283.585 3549.32,283.584 3553.95,283.583 3558.57,283.582 3563.2,283.581 3567.82,283.58 3572.45,283.58 3577.07,283.579 3581.7,283.578 3586.32,283.577 3590.95,283.577 3595.57,283.576 3600.2,283.575 3604.82,283.575 3609.45,283.574 3614.07,283.573 3618.7,283.572 3623.32,283.572 3627.95,283.571 3632.57,283.571 3637.2,283.57 3641.82,283.569 3646.45,283.569 3651.07,283.568 3655.7,283.567 3660.32,283.567 3664.95,283.566 3669.57,283.566 3674.19,283.565 3678.82,283.565 3683.44,283.564 3688.07,283.564 3692.69,283.563 3697.32,283.562 3701.94,283.562 3706.57,283.561 3711.19,283.561 3715.82,283.56 3720.44,283.56 3725.07,283.56 3729.69,283.559 3734.32,283.559 3738.94,283.558 3743.57,283.558 3748.19,283.557 3752.82,283.557 3757.44,283.556 3762.07,283.556 3766.69,283.556 3771.32,283.555 3775.94,283.555 3780.57,283.554 3785.19,283.554 3789.82,283.554 3794.44,283.553 3799.06,283.553 3803.69,283.552 3808.31,283.552 3812.94,283.552 3817.56,283.551 3822.19,283.551 3826.81,283.551 3831.44,283.55 3836.06,283.55 3840.69,283.55 3845.31,283.549 3849.94,283.549 3854.56,283.549 3859.19,283.548 3863.81,283.548 3868.44,283.548 3873.06,283.548 3877.69,283.547 3882.31,283.547 3886.94,283.547 3891.56,283.546 3896.19,283.546 3900.81,283.546 3905.44,283.546 3910.06,283.545 3914.69,283.545 3919.31,283.545 3923.94,283.545 3928.56,283.544 3933.18,283.544 3937.81,283.544 3942.43,283.544 3947.06,283.543 3951.68,283.543 3956.31,283.543 3960.93,283.543 3965.56,283.542 3970.18,283.542 3974.81,283.542 3979.43,283.542 3984.06,283.542 3988.68,283.541 3993.31,283.541 3997.93,283.541 4002.56,283.541 4007.18,283.541 4011.81,283.54 4016.43,283.54 4021.06,283.54 4025.68,283.54 4030.31,283.54 4034.93,283.54 4039.56,283.539 4044.18,283.539 4048.81,283.539 4053.43,283.539 4058.06,283.539 4062.68,283.539 4067.3,283.538 4071.93,283.538 4076.55,283.538 4081.18,283.538 4085.8,283.538 4090.43,283.538 4095.05,283.538 4099.68,283.537 4104.3,283.537 4108.93,283.537 4113.55,283.537 4118.18,283.537 4122.8,283.537 4127.43,283.537 4132.05,283.536 4136.68,283.536 4141.3,283.536 4145.93,283.536 4150.55,283.536 4155.18,283.536 4159.8,283.536 4164.43,283.536 4169.05,283.536 4173.68,283.535 4178.3,283.535 4182.93,283.535 4187.55,283.535 4192.17,283.535 4196.8,283.535 4201.42,283.535 4206.05,283.535 4210.67,283.535 4215.3,283.535 4219.92,283.534 4224.55,283.534 4229.17,283.534 4233.8,283.534 4238.42,283.534 4243.05,283.534 4247.67,283.534 4252.3,283.534 4256.92,283.534 4261.55,283.534 4266.17,283.534 4270.8,283.533 4275.42,283.533 4280.05,283.533 4284.67,283.533 4289.3,283.533 4293.92,283.533 4298.55,283.533 4303.17,283.533 4307.8,283.533 4312.42,283.533 4317.05,283.533 4321.67,283.533 4326.29,283.533 4330.92,283.532 4335.54,283.532 4340.17,283.532 4344.79,283.532 4349.42,283.532 4354.04,283.532 4358.67,283.532 4363.29,283.532 4367.92,283.532 4372.54,283.532 4377.17,283.532 4381.79,283.532 4386.42,283.532 4391.04,283.532 4395.67,283.532 4400.29,283.532 4404.92,283.532 4409.54,283.531 4414.17,283.531 4418.79,283.531 4423.42,283.531 4428.04,283.531 4432.67,283.531 4437.29,283.531 4441.92,283.531 4446.54,283.531 4451.17,283.531 4455.79,283.531 4460.41,283.531 4465.04,283.531 4469.66,283.531 4474.29,283.531 4478.91,283.531 4483.54,283.531 4488.16,283.531 4492.79,283.531 4497.41,283.531 4502.04,283.531 4506.66,283.531 4511.29,283.531 4515.91,283.53 4520.54,283.53 4525.16,283.53 4529.79,283.53 4534.41,283.53 4539.04,283.53 4543.66,283.53 4548.29,283.53 4552.91,283.53 4557.54,283.53 4562.16,283.53 4566.79,283.53 4571.41,283.53 4576.04,283.53 4580.66,283.53 4585.29,283.53 4589.91,283.53 4594.53,283.53 4599.16,283.53 4603.78,283.53 4608.41,283.53 4613.03,283.53 4617.66,283.53 4622.28,283.53 4626.91,283.53 4631.53,283.53 4636.16,283.53 4640.78,283.53 4645.41,283.53 4650.03,283.53 4654.66,283.53 4659.28,283.53 4663.91,283.53 4668.53,283.53 4673.16,283.53 4677.78,283.53 4682.41,283.529 4687.03,283.529 4691.66,283.529 4696.28,283.529 4700.91,283.529 4705.53,283.529 4710.16,283.529 4714.78,283.529 4719.4,283.529 4724.03,283.529 4728.65,283.529 4733.28,283.529 4737.9,283.529 4742.53,283.529 4747.15,283.529 4751.78,283.529 4756.4,283.529 4761.03,283.529 4765.65,283.529 4770.28,283.529 4774.9,283.529 4779.53,283.529 4784.15,283.529 4788.78,283.529 4793.4,283.529 4798.03,283.529 4802.65,283.529 4807.28,283.529 4811.9,283.529 4816.53,283.529 4821.15,283.529 4825.78,283.529 4830.4,283.529 4835.03,283.529 4839.65,283.529 "/>
<polyline clip-path="url(#clip422)" style="stroke:#e26f46; stroke-linecap:round; stroke-linejoin:round; stroke-width:6; stroke-opacity:1; fill:none" points="876.176,2299.7 876.176,-1078.98 "/>
</svg>
