<?xml version="1.0" encoding="utf-8"?>
<svg xmlns="http://www.w3.org/2000/svg" xmlns:xlink="http://www.w3.org/1999/xlink" width="672" height="480" viewBox="0 0 2688 1920">
<defs>
  <clipPath id="clip220">
    <rect x="0" y="0" width="2688" height="1920"/>
  </clipPath>
</defs>
<path clip-path="url(#clip220)" d="M0 1920 L2688 1920 L2688 -4.26326e-14 L0 -4.26326e-14  Z" fill="#ffffff" fill-rule="evenodd" fill-opacity="1"/>
<defs>
  <clipPath id="clip221">
    <rect x="537" y="0" width="1883" height="1883"/>
  </clipPath>
</defs>
<path clip-path="url(#clip220)" d="M225.654 1734.12 L2640.76 1734.12 L2640.76 47.2441 L225.654 47.2441  Z" fill="#ffffff" fill-rule="evenodd" fill-opacity="1"/>
<defs>
  <clipPath id="clip222">
    <rect x="225" y="47" width="2416" height="1688"/>
  </clipPath>
</defs>
<polyline clip-path="url(#clip222)" style="stroke:#000000; stroke-linecap:round; stroke-linejoin:round; stroke-width:2; stroke-opacity:0.1; fill:none" points="225.654,1734.12 225.654,47.2441 "/>
<polyline clip-path="url(#clip222)" style="stroke:#000000; stroke-linecap:round; stroke-linejoin:round; stroke-width:2; stroke-opacity:0.1; fill:none" points="628.171,1734.12 628.171,47.2441 "/>
<polyline clip-path="url(#clip222)" style="stroke:#000000; stroke-linecap:round; stroke-linejoin:round; stroke-width:2; stroke-opacity:0.1; fill:none" points="1030.69,1734.12 1030.69,47.2441 "/>
<polyline clip-path="url(#clip222)" style="stroke:#000000; stroke-linecap:round; stroke-linejoin:round; stroke-width:2; stroke-opacity:0.1; fill:none" points="1433.21,1734.12 1433.21,47.2441 "/>
<polyline clip-path="url(#clip222)" style="stroke:#000000; stroke-linecap:round; stroke-linejoin:round; stroke-width:2; stroke-opacity:0.1; fill:none" points="1835.72,1734.12 1835.72,47.2441 "/>
<polyline clip-path="url(#clip222)" style="stroke:#000000; stroke-linecap:round; stroke-linejoin:round; stroke-width:2; stroke-opacity:0.1; fill:none" points="2238.24,1734.12 2238.24,47.2441 "/>
<polyline clip-path="url(#clip222)" style="stroke:#000000; stroke-linecap:round; stroke-linejoin:round; stroke-width:2; stroke-opacity:0.1; fill:none" points="2640.76,1734.12 2640.76,47.2441 "/>
<polyline clip-path="url(#clip222)" style="stroke:#000000; stroke-linecap:round; stroke-linejoin:round; stroke-width:2; stroke-opacity:0.1; fill:none" points="225.654,1686.38 2640.76,1686.38 "/>
<polyline clip-path="url(#clip222)" style="stroke:#000000; stroke-linecap:round; stroke-linejoin:round; stroke-width:2; stroke-opacity:0.1; fill:none" points="225.654,1284.51 2640.76,1284.51 "/>
<polyline clip-path="url(#clip222)" style="stroke:#000000; stroke-linecap:round; stroke-linejoin:round; stroke-width:2; stroke-opacity:0.1; fill:none" points="225.654,882.643 2640.76,882.643 "/>
<polyline clip-path="url(#clip222)" style="stroke:#000000; stroke-linecap:round; stroke-linejoin:round; stroke-width:2; stroke-opacity:0.1; fill:none" points="225.654,480.777 2640.76,480.777 "/>
<polyline clip-path="url(#clip222)" style="stroke:#000000; stroke-linecap:round; stroke-linejoin:round; stroke-width:2; stroke-opacity:0.1; fill:none" points="225.654,78.9111 2640.76,78.9111 "/>
<polyline clip-path="url(#clip220)" style="stroke:#000000; stroke-linecap:round; stroke-linejoin:round; stroke-width:4; stroke-opacity:1; fill:none" points="225.654,1734.12 2640.76,1734.12 "/>
<polyline clip-path="url(#clip220)" style="stroke:#000000; stroke-linecap:round; stroke-linejoin:round; stroke-width:4; stroke-opacity:1; fill:none" points="225.654,1734.12 225.654,1715.22 "/>
<polyline clip-path="url(#clip220)" style="stroke:#000000; stroke-linecap:round; stroke-linejoin:round; stroke-width:4; stroke-opacity:1; fill:none" points="628.171,1734.12 628.171,1715.22 "/>
<polyline clip-path="url(#clip220)" style="stroke:#000000; stroke-linecap:round; stroke-linejoin:round; stroke-width:4; stroke-opacity:1; fill:none" points="1030.69,1734.12 1030.69,1715.22 "/>
<polyline clip-path="url(#clip220)" style="stroke:#000000; stroke-linecap:round; stroke-linejoin:round; stroke-width:4; stroke-opacity:1; fill:none" points="1433.21,1734.12 1433.21,1715.22 "/>
<polyline clip-path="url(#clip220)" style="stroke:#000000; stroke-linecap:round; stroke-linejoin:round; stroke-width:4; stroke-opacity:1; fill:none" points="1835.72,1734.12 1835.72,1715.22 "/>
<polyline clip-path="url(#clip220)" style="stroke:#000000; stroke-linecap:round; stroke-linejoin:round; stroke-width:4; stroke-opacity:1; fill:none" points="2238.24,1734.12 2238.24,1715.22 "/>
<polyline clip-path="url(#clip220)" style="stroke:#000000; stroke-linecap:round; stroke-linejoin:round; stroke-width:4; stroke-opacity:1; fill:none" points="2640.76,1734.12 2640.76,1715.22 "/>
<path clip-path="url(#clip220)" d="M225.654 1767.34 Q222.043 1767.34 220.215 1770.9 Q218.409 1774.45 218.409 1781.58 Q218.409 1788.68 220.215 1792.25 Q222.043 1795.79 225.654 1795.79 Q229.289 1795.79 231.094 1792.25 Q232.923 1788.68 232.923 1781.58 Q232.923 1774.45 231.094 1770.9 Q229.289 1767.34 225.654 1767.34 M225.654 1763.64 Q231.465 1763.64 234.52 1768.24 Q237.599 1772.83 237.599 1781.58 Q237.599 1790.3 234.52 1794.91 Q231.465 1799.49 225.654 1799.49 Q219.844 1799.49 216.766 1794.91 Q213.71 1790.3 213.71 1781.58 Q213.71 1772.83 216.766 1768.24 Q219.844 1763.64 225.654 1763.64 Z" fill="#000000" fill-rule="nonzero" fill-opacity="1" /><path clip-path="url(#clip220)" d="M602.859 1794.89 L610.498 1794.89 L610.498 1768.52 L602.188 1770.19 L602.188 1765.93 L610.452 1764.26 L615.127 1764.26 L615.127 1794.89 L622.766 1794.89 L622.766 1798.82 L602.859 1798.82 L602.859 1794.89 Z" fill="#000000" fill-rule="nonzero" fill-opacity="1" /><path clip-path="url(#clip220)" d="M642.211 1767.34 Q638.6 1767.34 636.771 1770.9 Q634.965 1774.45 634.965 1781.58 Q634.965 1788.68 636.771 1792.25 Q638.6 1795.79 642.211 1795.79 Q645.845 1795.79 647.65 1792.25 Q649.479 1788.68 649.479 1781.58 Q649.479 1774.45 647.65 1770.9 Q645.845 1767.34 642.211 1767.34 M642.211 1763.64 Q648.021 1763.64 651.076 1768.24 Q654.155 1772.83 654.155 1781.58 Q654.155 1790.3 651.076 1794.91 Q648.021 1799.49 642.211 1799.49 Q636.4 1799.49 633.322 1794.91 Q630.266 1790.3 630.266 1781.58 Q630.266 1772.83 633.322 1768.24 Q636.4 1763.64 642.211 1763.64 Z" fill="#000000" fill-rule="nonzero" fill-opacity="1" /><path clip-path="url(#clip220)" d="M1009.46 1794.89 L1025.78 1794.89 L1025.78 1798.82 L1003.84 1798.82 L1003.84 1794.89 Q1006.5 1792.13 1011.08 1787.5 Q1015.69 1782.85 1016.87 1781.51 Q1019.11 1778.98 1019.99 1777.25 Q1020.9 1775.49 1020.9 1773.8 Q1020.9 1771.04 1018.95 1769.31 Q1017.03 1767.57 1013.93 1767.57 Q1011.73 1767.57 1009.28 1768.34 Q1006.85 1769.1 1004.07 1770.65 L1004.07 1765.93 Q1006.89 1764.79 1009.35 1764.21 Q1011.8 1763.64 1013.84 1763.64 Q1019.21 1763.64 1022.4 1766.32 Q1025.6 1769.01 1025.6 1773.5 Q1025.6 1775.63 1024.79 1777.55 Q1024 1779.45 1021.89 1782.04 Q1021.31 1782.71 1018.21 1785.93 Q1015.11 1789.12 1009.46 1794.89 Z" fill="#000000" fill-rule="nonzero" fill-opacity="1" /><path clip-path="url(#clip220)" d="M1045.6 1767.34 Q1041.98 1767.34 1040.16 1770.9 Q1038.35 1774.45 1038.35 1781.58 Q1038.35 1788.68 1040.16 1792.25 Q1041.98 1795.79 1045.6 1795.79 Q1049.23 1795.79 1051.04 1792.25 Q1052.86 1788.68 1052.86 1781.58 Q1052.86 1774.45 1051.04 1770.9 Q1049.23 1767.34 1045.6 1767.34 M1045.6 1763.64 Q1051.41 1763.64 1054.46 1768.24 Q1057.54 1772.83 1057.54 1781.58 Q1057.54 1790.3 1054.46 1794.91 Q1051.41 1799.49 1045.6 1799.49 Q1039.79 1799.49 1036.71 1794.91 Q1033.65 1790.3 1033.65 1781.58 Q1033.65 1772.83 1036.71 1768.24 Q1039.79 1763.64 1045.6 1763.64 Z" fill="#000000" fill-rule="nonzero" fill-opacity="1" /><path clip-path="url(#clip220)" d="M1422.05 1780.19 Q1425.4 1780.9 1427.28 1783.17 Q1429.18 1785.44 1429.18 1788.77 Q1429.18 1793.89 1425.66 1796.69 Q1422.14 1799.49 1415.66 1799.49 Q1413.48 1799.49 1411.17 1799.05 Q1408.88 1798.64 1406.42 1797.78 L1406.42 1793.27 Q1408.37 1794.4 1410.68 1794.98 Q1413 1795.56 1415.52 1795.56 Q1419.92 1795.56 1422.21 1793.82 Q1424.52 1792.08 1424.52 1788.77 Q1424.52 1785.72 1422.37 1784.01 Q1420.24 1782.27 1416.42 1782.27 L1412.4 1782.27 L1412.4 1778.43 L1416.61 1778.43 Q1420.06 1778.43 1421.89 1777.06 Q1423.71 1775.67 1423.71 1773.08 Q1423.71 1770.42 1421.82 1769.01 Q1419.94 1767.57 1416.42 1767.57 Q1414.5 1767.57 1412.3 1767.99 Q1410.1 1768.4 1407.46 1769.28 L1407.46 1765.12 Q1410.13 1764.38 1412.44 1764.01 Q1414.78 1763.64 1416.84 1763.64 Q1422.16 1763.64 1425.27 1766.07 Q1428.37 1768.47 1428.37 1772.59 Q1428.37 1775.46 1426.72 1777.46 Q1425.08 1779.42 1422.05 1780.19 Z" fill="#000000" fill-rule="nonzero" fill-opacity="1" /><path clip-path="url(#clip220)" d="M1448.04 1767.34 Q1444.43 1767.34 1442.6 1770.9 Q1440.8 1774.45 1440.8 1781.58 Q1440.8 1788.68 1442.6 1792.25 Q1444.43 1795.79 1448.04 1795.79 Q1451.68 1795.79 1453.48 1792.25 Q1455.31 1788.68 1455.31 1781.58 Q1455.31 1774.45 1453.48 1770.9 Q1451.68 1767.34 1448.04 1767.34 M1448.04 1763.64 Q1453.85 1763.64 1456.91 1768.24 Q1459.99 1772.83 1459.99 1781.58 Q1459.99 1790.3 1456.91 1794.91 Q1453.85 1799.49 1448.04 1799.49 Q1442.23 1799.49 1439.15 1794.91 Q1436.1 1790.3 1436.1 1781.58 Q1436.1 1772.83 1439.15 1768.24 Q1442.23 1763.64 1448.04 1763.64 Z" fill="#000000" fill-rule="nonzero" fill-opacity="1" /><path clip-path="url(#clip220)" d="M1823.89 1768.34 L1812.09 1786.78 L1823.89 1786.78 L1823.89 1768.34 M1822.67 1764.26 L1828.55 1764.26 L1828.55 1786.78 L1833.48 1786.78 L1833.48 1790.67 L1828.55 1790.67 L1828.55 1798.82 L1823.89 1798.82 L1823.89 1790.67 L1808.29 1790.67 L1808.29 1786.16 L1822.67 1764.26 Z" fill="#000000" fill-rule="nonzero" fill-opacity="1" /><path clip-path="url(#clip220)" d="M1851.21 1767.34 Q1847.6 1767.34 1845.77 1770.9 Q1843.96 1774.45 1843.96 1781.58 Q1843.96 1788.68 1845.77 1792.25 Q1847.6 1795.79 1851.21 1795.79 Q1854.84 1795.79 1856.65 1792.25 Q1858.48 1788.68 1858.48 1781.58 Q1858.48 1774.45 1856.65 1770.9 Q1854.84 1767.34 1851.21 1767.34 M1851.21 1763.64 Q1857.02 1763.64 1860.07 1768.24 Q1863.15 1772.83 1863.15 1781.58 Q1863.15 1790.3 1860.07 1794.91 Q1857.02 1799.49 1851.21 1799.49 Q1845.4 1799.49 1842.32 1794.91 Q1839.26 1790.3 1839.26 1781.58 Q1839.26 1772.83 1842.32 1768.24 Q1845.4 1763.64 1851.21 1763.64 Z" fill="#000000" fill-rule="nonzero" fill-opacity="1" /><path clip-path="url(#clip220)" d="M2212.94 1764.26 L2231.29 1764.26 L2231.29 1768.2 L2217.22 1768.2 L2217.22 1776.67 Q2218.24 1776.32 2219.26 1776.16 Q2220.28 1775.97 2221.29 1775.97 Q2227.08 1775.97 2230.46 1779.15 Q2233.84 1782.32 2233.84 1787.73 Q2233.84 1793.31 2230.37 1796.41 Q2226.9 1799.49 2220.58 1799.49 Q2218.4 1799.49 2216.13 1799.12 Q2213.89 1798.75 2211.48 1798.01 L2211.48 1793.31 Q2213.56 1794.45 2215.79 1795 Q2218.01 1795.56 2220.48 1795.56 Q2224.49 1795.56 2226.83 1793.45 Q2229.16 1791.34 2229.16 1787.73 Q2229.16 1784.12 2226.83 1782.02 Q2224.49 1779.91 2220.48 1779.91 Q2218.61 1779.91 2216.73 1780.33 Q2214.88 1780.74 2212.94 1781.62 L2212.94 1764.26 Z" fill="#000000" fill-rule="nonzero" fill-opacity="1" /><path clip-path="url(#clip220)" d="M2253.05 1767.34 Q2249.44 1767.34 2247.61 1770.9 Q2245.81 1774.45 2245.81 1781.58 Q2245.81 1788.68 2247.61 1792.25 Q2249.44 1795.79 2253.05 1795.79 Q2256.69 1795.79 2258.49 1792.25 Q2260.32 1788.68 2260.32 1781.58 Q2260.32 1774.45 2258.49 1770.9 Q2256.69 1767.34 2253.05 1767.34 M2253.05 1763.64 Q2258.86 1763.64 2261.92 1768.24 Q2265 1772.83 2265 1781.58 Q2265 1790.3 2261.92 1794.91 Q2258.86 1799.49 2253.05 1799.49 Q2247.24 1799.49 2244.16 1794.91 Q2241.11 1790.3 2241.11 1781.58 Q2241.11 1772.83 2244.16 1768.24 Q2247.24 1763.64 2253.05 1763.64 Z" fill="#000000" fill-rule="nonzero" fill-opacity="1" /><path clip-path="url(#clip220)" d="M2626.16 1779.68 Q2623.01 1779.68 2621.16 1781.83 Q2619.33 1783.98 2619.33 1787.73 Q2619.33 1791.46 2621.16 1793.64 Q2623.01 1795.79 2626.16 1795.79 Q2629.31 1795.79 2631.14 1793.64 Q2632.99 1791.46 2632.99 1787.73 Q2632.99 1783.98 2631.14 1781.83 Q2629.31 1779.68 2626.16 1779.68 M2635.44 1765.02 L2635.44 1769.28 Q2633.68 1768.45 2631.88 1768.01 Q2630.1 1767.57 2628.34 1767.57 Q2623.71 1767.57 2621.25 1770.7 Q2618.82 1773.82 2618.48 1780.14 Q2619.84 1778.13 2621.9 1777.06 Q2623.96 1775.97 2626.44 1775.97 Q2631.65 1775.97 2634.66 1779.15 Q2637.69 1782.29 2637.69 1787.73 Q2637.69 1793.06 2634.54 1796.27 Q2631.39 1799.49 2626.16 1799.49 Q2620.17 1799.49 2616.99 1794.91 Q2613.82 1790.3 2613.82 1781.58 Q2613.82 1773.38 2617.71 1768.52 Q2621.6 1763.64 2628.15 1763.64 Q2629.91 1763.64 2631.69 1763.98 Q2633.5 1764.33 2635.44 1765.02 Z" fill="#000000" fill-rule="nonzero" fill-opacity="1" /><path clip-path="url(#clip220)" d="M2655.74 1767.34 Q2652.13 1767.34 2650.3 1770.9 Q2648.5 1774.45 2648.5 1781.58 Q2648.5 1788.68 2650.3 1792.25 Q2652.13 1795.79 2655.74 1795.79 Q2659.38 1795.79 2661.18 1792.25 Q2663.01 1788.68 2663.01 1781.58 Q2663.01 1774.45 2661.18 1770.9 Q2659.38 1767.34 2655.74 1767.34 M2655.74 1763.64 Q2661.55 1763.64 2664.61 1768.24 Q2667.69 1772.83 2667.69 1781.58 Q2667.69 1790.3 2664.61 1794.91 Q2661.55 1799.49 2655.74 1799.49 Q2649.93 1799.49 2646.86 1794.91 Q2643.8 1790.3 2643.8 1781.58 Q2643.8 1772.83 2646.86 1768.24 Q2649.93 1763.64 2655.74 1763.64 Z" fill="#000000" fill-rule="nonzero" fill-opacity="1" /><path clip-path="url(#clip220)" d="M1355.08 1835.78 L1395.28 1835.78 L1395.28 1841.19 L1378.41 1841.19 L1378.41 1883.3 L1371.95 1883.3 L1371.95 1841.19 L1355.08 1841.19 L1355.08 1835.78 Z" fill="#000000" fill-rule="nonzero" fill-opacity="1" /><path clip-path="url(#clip220)" d="M1399.23 1847.65 L1405.08 1847.65 L1405.08 1883.3 L1399.23 1883.3 L1399.23 1847.65 M1399.23 1833.78 L1405.08 1833.78 L1405.08 1841.19 L1399.23 1841.19 L1399.23 1833.78 Z" fill="#000000" fill-rule="nonzero" fill-opacity="1" /><path clip-path="url(#clip220)" d="M1445.09 1854.5 Q1447.29 1850.55 1450.34 1848.67 Q1453.4 1846.79 1457.54 1846.79 Q1463.11 1846.79 1466.13 1850.71 Q1469.16 1854.59 1469.16 1861.78 L1469.16 1883.3 L1463.27 1883.3 L1463.27 1861.98 Q1463.27 1856.85 1461.45 1854.37 Q1459.64 1851.89 1455.91 1851.89 Q1451.36 1851.89 1448.72 1854.91 Q1446.08 1857.93 1446.08 1863.15 L1446.08 1883.3 L1440.19 1883.3 L1440.19 1861.98 Q1440.19 1856.82 1438.38 1854.37 Q1436.56 1851.89 1432.78 1851.89 Q1428.29 1851.89 1425.65 1854.94 Q1423 1857.97 1423 1863.15 L1423 1883.3 L1417.12 1883.3 L1417.12 1847.65 L1423 1847.65 L1423 1853.19 Q1425.01 1849.91 1427.81 1848.35 Q1430.61 1846.79 1434.46 1846.79 Q1438.35 1846.79 1441.05 1848.77 Q1443.79 1850.74 1445.09 1854.5 Z" fill="#000000" fill-rule="nonzero" fill-opacity="1" /><path clip-path="url(#clip220)" d="M1511.33 1864.01 L1511.33 1866.88 L1484.4 1866.88 Q1484.78 1872.92 1488.03 1876.11 Q1491.31 1879.26 1497.13 1879.26 Q1500.51 1879.26 1503.66 1878.43 Q1506.84 1877.6 1509.96 1875.95 L1509.96 1881.49 Q1506.81 1882.82 1503.5 1883.52 Q1500.19 1884.22 1496.78 1884.22 Q1488.25 1884.22 1483.26 1879.26 Q1478.29 1874.29 1478.29 1865.83 Q1478.29 1857.07 1483 1851.95 Q1487.74 1846.79 1495.76 1846.79 Q1502.96 1846.79 1507.13 1851.44 Q1511.33 1856.06 1511.33 1864.01 M1505.47 1862.29 Q1505.41 1857.49 1502.77 1854.62 Q1500.16 1851.76 1495.83 1851.76 Q1490.93 1851.76 1487.97 1854.53 Q1485.04 1857.3 1484.59 1862.33 L1505.47 1862.29 Z" fill="#000000" fill-rule="nonzero" fill-opacity="1" /><polyline clip-path="url(#clip220)" style="stroke:#000000; stroke-linecap:round; stroke-linejoin:round; stroke-width:4; stroke-opacity:1; fill:none" points="225.654,1734.12 225.654,47.2441 "/>
<polyline clip-path="url(#clip220)" style="stroke:#000000; stroke-linecap:round; stroke-linejoin:round; stroke-width:4; stroke-opacity:1; fill:none" points="225.654,1686.38 244.552,1686.38 "/>
<polyline clip-path="url(#clip220)" style="stroke:#000000; stroke-linecap:round; stroke-linejoin:round; stroke-width:4; stroke-opacity:1; fill:none" points="225.654,1284.51 244.552,1284.51 "/>
<polyline clip-path="url(#clip220)" style="stroke:#000000; stroke-linecap:round; stroke-linejoin:round; stroke-width:4; stroke-opacity:1; fill:none" points="225.654,882.643 244.552,882.643 "/>
<polyline clip-path="url(#clip220)" style="stroke:#000000; stroke-linecap:round; stroke-linejoin:round; stroke-width:4; stroke-opacity:1; fill:none" points="225.654,480.777 244.552,480.777 "/>
<polyline clip-path="url(#clip220)" style="stroke:#000000; stroke-linecap:round; stroke-linejoin:round; stroke-width:4; stroke-opacity:1; fill:none" points="225.654,78.9111 244.552,78.9111 "/>
<path clip-path="url(#clip220)" d="M128.159 1672.17 Q124.548 1672.17 122.719 1675.74 Q120.913 1679.28 120.913 1686.41 Q120.913 1693.52 122.719 1697.08 Q124.548 1700.62 128.159 1700.62 Q131.793 1700.62 133.599 1697.08 Q135.427 1693.52 135.427 1686.41 Q135.427 1679.28 133.599 1675.74 Q131.793 1672.17 128.159 1672.17 M128.159 1668.47 Q133.969 1668.47 137.025 1673.08 Q140.103 1677.66 140.103 1686.41 Q140.103 1695.14 137.025 1699.74 Q133.969 1704.33 128.159 1704.33 Q122.349 1704.33 119.27 1699.74 Q116.214 1695.14 116.214 1686.41 Q116.214 1677.66 119.27 1673.08 Q122.349 1668.47 128.159 1668.47 Z" fill="#000000" fill-rule="nonzero" fill-opacity="1" /><path clip-path="url(#clip220)" d="M148.321 1697.78 L153.205 1697.78 L153.205 1703.66 L148.321 1703.66 L148.321 1697.78 Z" fill="#000000" fill-rule="nonzero" fill-opacity="1" /><path clip-path="url(#clip220)" d="M173.39 1672.17 Q169.779 1672.17 167.95 1675.74 Q166.145 1679.28 166.145 1686.41 Q166.145 1693.52 167.95 1697.08 Q169.779 1700.62 173.39 1700.62 Q177.024 1700.62 178.83 1697.08 Q180.659 1693.52 180.659 1686.41 Q180.659 1679.28 178.83 1675.74 Q177.024 1672.17 173.39 1672.17 M173.39 1668.47 Q179.2 1668.47 182.256 1673.08 Q185.334 1677.66 185.334 1686.41 Q185.334 1695.14 182.256 1699.74 Q179.2 1704.33 173.39 1704.33 Q167.58 1704.33 164.501 1699.74 Q161.446 1695.14 161.446 1686.41 Q161.446 1677.66 164.501 1673.08 Q167.58 1668.47 173.39 1668.47 Z" fill="#000000" fill-rule="nonzero" fill-opacity="1" /><path clip-path="url(#clip220)" d="M129.154 1270.31 Q125.543 1270.31 123.714 1273.87 Q121.909 1277.41 121.909 1284.54 Q121.909 1291.65 123.714 1295.22 Q125.543 1298.76 129.154 1298.76 Q132.788 1298.76 134.594 1295.22 Q136.423 1291.65 136.423 1284.54 Q136.423 1277.41 134.594 1273.87 Q132.788 1270.31 129.154 1270.31 M129.154 1266.6 Q134.964 1266.6 138.02 1271.21 Q141.099 1275.79 141.099 1284.54 Q141.099 1293.27 138.02 1297.88 Q134.964 1302.46 129.154 1302.46 Q123.344 1302.46 120.265 1297.88 Q117.21 1293.27 117.21 1284.54 Q117.21 1275.79 120.265 1271.21 Q123.344 1266.6 129.154 1266.6 Z" fill="#000000" fill-rule="nonzero" fill-opacity="1" /><path clip-path="url(#clip220)" d="M149.316 1295.91 L154.2 1295.91 L154.2 1301.79 L149.316 1301.79 L149.316 1295.91 Z" fill="#000000" fill-rule="nonzero" fill-opacity="1" /><path clip-path="url(#clip220)" d="M164.432 1267.23 L182.788 1267.23 L182.788 1271.16 L168.714 1271.16 L168.714 1279.64 Q169.733 1279.29 170.751 1279.13 Q171.77 1278.94 172.788 1278.94 Q178.575 1278.94 181.955 1282.11 Q185.334 1285.28 185.334 1290.7 Q185.334 1296.28 181.862 1299.38 Q178.39 1302.46 172.071 1302.46 Q169.895 1302.46 167.626 1302.09 Q165.381 1301.72 162.973 1300.98 L162.973 1296.28 Q165.057 1297.41 167.279 1297.97 Q169.501 1298.53 171.978 1298.53 Q175.983 1298.53 178.321 1296.42 Q180.659 1294.31 180.659 1290.7 Q180.659 1287.09 178.321 1284.98 Q175.983 1282.88 171.978 1282.88 Q170.103 1282.88 168.228 1283.29 Q166.376 1283.71 164.432 1284.59 L164.432 1267.23 Z" fill="#000000" fill-rule="nonzero" fill-opacity="1" /><path clip-path="url(#clip220)" d="M118.969 895.988 L126.608 895.988 L126.608 869.622 L118.298 871.289 L118.298 867.03 L126.562 865.363 L131.238 865.363 L131.238 895.988 L138.876 895.988 L138.876 899.923 L118.969 899.923 L118.969 895.988 Z" fill="#000000" fill-rule="nonzero" fill-opacity="1" /><path clip-path="url(#clip220)" d="M148.321 894.044 L153.205 894.044 L153.205 899.923 L148.321 899.923 L148.321 894.044 Z" fill="#000000" fill-rule="nonzero" fill-opacity="1" /><path clip-path="url(#clip220)" d="M173.39 868.442 Q169.779 868.442 167.95 872.007 Q166.145 875.548 166.145 882.678 Q166.145 889.784 167.95 893.349 Q169.779 896.891 173.39 896.891 Q177.024 896.891 178.83 893.349 Q180.659 889.784 180.659 882.678 Q180.659 875.548 178.83 872.007 Q177.024 868.442 173.39 868.442 M173.39 864.738 Q179.2 864.738 182.256 869.345 Q185.334 873.928 185.334 882.678 Q185.334 891.405 182.256 896.011 Q179.2 900.595 173.39 900.595 Q167.58 900.595 164.501 896.011 Q161.446 891.405 161.446 882.678 Q161.446 873.928 164.501 869.345 Q167.58 864.738 173.39 864.738 Z" fill="#000000" fill-rule="nonzero" fill-opacity="1" /><path clip-path="url(#clip220)" d="M119.964 494.122 L127.603 494.122 L127.603 467.756 L119.293 469.423 L119.293 465.164 L127.557 463.497 L132.233 463.497 L132.233 494.122 L139.872 494.122 L139.872 498.057 L119.964 498.057 L119.964 494.122 Z" fill="#000000" fill-rule="nonzero" fill-opacity="1" /><path clip-path="url(#clip220)" d="M149.316 492.178 L154.2 492.178 L154.2 498.057 L149.316 498.057 L149.316 492.178 Z" fill="#000000" fill-rule="nonzero" fill-opacity="1" /><path clip-path="url(#clip220)" d="M164.432 463.497 L182.788 463.497 L182.788 467.432 L168.714 467.432 L168.714 475.905 Q169.733 475.557 170.751 475.395 Q171.77 475.21 172.788 475.21 Q178.575 475.21 181.955 478.381 Q185.334 481.553 185.334 486.969 Q185.334 492.548 181.862 495.65 Q178.39 498.728 172.071 498.728 Q169.895 498.728 167.626 498.358 Q165.381 497.988 162.973 497.247 L162.973 492.548 Q165.057 493.682 167.279 494.238 Q169.501 494.793 171.978 494.793 Q175.983 494.793 178.321 492.687 Q180.659 490.58 180.659 486.969 Q180.659 483.358 178.321 481.252 Q175.983 479.145 171.978 479.145 Q170.103 479.145 168.228 479.562 Q166.376 479.979 164.432 480.858 L164.432 463.497 Z" fill="#000000" fill-rule="nonzero" fill-opacity="1" /><path clip-path="url(#clip220)" d="M122.187 92.256 L138.506 92.256 L138.506 96.1911 L116.562 96.1911 L116.562 92.256 Q119.224 89.5014 123.807 84.8718 Q128.413 80.219 129.594 78.8764 Q131.839 76.3533 132.719 74.6172 Q133.622 72.8579 133.622 71.1681 Q133.622 68.4135 131.677 66.6774 Q129.756 64.9413 126.654 64.9413 Q124.455 64.9413 122.001 65.7052 Q119.571 66.4691 116.793 68.02 L116.793 63.2978 Q119.617 62.1635 122.071 61.5848 Q124.525 61.0061 126.562 61.0061 Q131.932 61.0061 135.126 63.6913 Q138.321 66.3765 138.321 70.8672 Q138.321 72.9968 137.511 74.9181 Q136.724 76.8162 134.617 79.4088 Q134.038 80.0801 130.937 83.2977 Q127.835 86.4921 122.187 92.256 Z" fill="#000000" fill-rule="nonzero" fill-opacity="1" /><path clip-path="url(#clip220)" d="M148.321 90.3115 L153.205 90.3115 L153.205 96.1911 L148.321 96.1911 L148.321 90.3115 Z" fill="#000000" fill-rule="nonzero" fill-opacity="1" /><path clip-path="url(#clip220)" d="M173.39 64.7098 Q169.779 64.7098 167.95 68.2746 Q166.145 71.8163 166.145 78.9459 Q166.145 86.0523 167.95 89.6171 Q169.779 93.1587 173.39 93.1587 Q177.024 93.1587 178.83 89.6171 Q180.659 86.0523 180.659 78.9459 Q180.659 71.8163 178.83 68.2746 Q177.024 64.7098 173.39 64.7098 M173.39 61.0061 Q179.2 61.0061 182.256 65.6126 Q185.334 70.1959 185.334 78.9459 Q185.334 87.6727 182.256 92.2791 Q179.2 96.8624 173.39 96.8624 Q167.58 96.8624 164.501 92.2791 Q161.446 87.6727 161.446 78.9459 Q161.446 70.1959 164.501 65.6126 Q167.58 61.0061 173.39 61.0061 Z" fill="#000000" fill-rule="nonzero" fill-opacity="1" /><path clip-path="url(#clip220)" d="M14.1184 1018.41 L14.1184 1009.75 L53.8723 988.681 L14.1184 988.681 L14.1184 982.442 L61.6384 982.442 L61.6384 991.1 L21.8846 1012.17 L61.6384 1012.17 L61.6384 1018.41 L14.1184 1018.41 Z" fill="#000000" fill-rule="nonzero" fill-opacity="1" /><path clip-path="url(#clip220)" d="M47.5702 970.507 L25.9905 970.507 L25.9905 964.65 L47.3474 964.65 Q52.4082 964.65 54.9545 962.677 Q57.4689 960.703 57.4689 956.757 Q57.4689 952.014 54.4452 949.277 Q51.4215 946.508 46.2016 946.508 L25.9905 946.508 L25.9905 940.651 L61.6384 940.651 L61.6384 946.508 L56.1639 946.508 Q59.4104 948.64 61.0019 951.473 Q62.5615 954.274 62.5615 957.998 Q62.5615 964.141 58.742 967.324 Q54.9226 970.507 47.5702 970.507 M25.1311 955.77 L25.1311 955.77 Z" fill="#000000" fill-rule="nonzero" fill-opacity="1" /><path clip-path="url(#clip220)" d="M32.8336 900.834 Q28.8869 898.638 27.009 895.582 Q25.1311 892.527 25.1311 888.389 Q25.1311 882.819 29.046 879.795 Q32.9291 876.771 40.1224 876.771 L61.6384 876.771 L61.6384 882.66 L40.3133 882.66 Q35.1889 882.66 32.7063 884.474 Q30.2237 886.288 30.2237 890.012 Q30.2237 894.564 33.2474 897.205 Q36.2711 899.847 41.491 899.847 L61.6384 899.847 L61.6384 905.735 L40.3133 905.735 Q35.1571 905.735 32.7063 907.55 Q30.2237 909.364 30.2237 913.151 Q30.2237 917.639 33.2792 920.281 Q36.3029 922.923 41.491 922.923 L61.6384 922.923 L61.6384 928.811 L25.9905 928.811 L25.9905 922.923 L31.5287 922.923 Q28.2503 920.918 26.6907 918.117 Q25.1311 915.316 25.1311 911.465 Q25.1311 907.581 27.1045 904.876 Q29.0779 902.139 32.8336 900.834 Z" fill="#000000" fill-rule="nonzero" fill-opacity="1" /><path clip-path="url(#clip220)" d="M43.8463 839.5 Q37.3851 839.5 33.7248 842.174 Q30.0327 844.816 30.0327 849.463 Q30.0327 854.11 33.7248 856.783 Q37.3851 859.425 43.8463 859.425 Q50.3075 859.425 53.9996 856.783 Q57.6599 854.11 57.6599 849.463 Q57.6599 844.816 53.9996 842.174 Q50.3075 839.5 43.8463 839.5 M31.4013 859.425 Q28.2185 857.579 26.6907 854.778 Q25.1311 851.945 25.1311 848.03 Q25.1311 841.537 30.2873 837.495 Q35.4436 833.421 43.8463 833.421 Q52.249 833.421 57.4052 837.495 Q62.5615 841.537 62.5615 848.03 Q62.5615 851.945 61.0337 854.778 Q59.4741 857.579 56.2912 859.425 L61.6384 859.425 L61.6384 865.313 L12.1132 865.313 L12.1132 859.425 L31.4013 859.425 Z" fill="#000000" fill-rule="nonzero" fill-opacity="1" /><path clip-path="url(#clip220)" d="M42.3504 793.222 L45.2149 793.222 L45.2149 820.149 Q51.2623 819.767 54.4452 816.52 Q57.5962 813.242 57.5962 807.417 Q57.5962 804.043 56.7687 800.892 Q55.9411 797.709 54.2861 794.59 L59.8242 794.59 Q61.161 797.741 61.8612 801.051 Q62.5615 804.362 62.5615 807.767 Q62.5615 816.297 57.5962 821.294 Q52.631 826.26 44.1646 826.26 Q35.4117 826.26 30.2873 821.549 Q25.1311 816.807 25.1311 808.786 Q25.1311 801.592 29.7781 797.423 Q34.3932 793.222 42.3504 793.222 M40.6316 799.078 Q35.8255 799.142 32.9609 801.783 Q30.0964 804.393 30.0964 808.722 Q30.0964 813.624 32.8654 816.584 Q35.6345 819.512 40.6634 819.958 L40.6316 799.078 Z" fill="#000000" fill-rule="nonzero" fill-opacity="1" /><path clip-path="url(#clip220)" d="M31.465 762.953 Q30.8921 763.939 30.6375 765.117 Q30.351 766.263 30.351 767.663 Q30.351 772.629 33.5975 775.302 Q36.8122 777.944 42.8596 777.944 L61.6384 777.944 L61.6384 783.832 L25.9905 783.832 L25.9905 777.944 L31.5287 777.944 Q28.2821 776.098 26.7225 773.138 Q25.1311 770.178 25.1311 765.945 Q25.1311 765.34 25.2266 764.608 Q25.2903 763.876 25.4494 762.984 L31.465 762.953 Z" fill="#000000" fill-rule="nonzero" fill-opacity="1" /><polyline clip-path="url(#clip222)" style="stroke:#009af9; stroke-linecap:round; stroke-linejoin:round; stroke-width:4; stroke-opacity:1; fill:none" points="225.654,94.9858 229.68,95.7815 233.705,96.5963 237.73,97.4306 241.755,98.2848 245.78,99.1594 249.805,100.055 253.831,100.972 257.856,101.91 261.881,102.871 265.906,103.855 269.931,104.861 273.956,105.892 277.982,106.947 282.007,108.026 286.032,109.131 290.057,110.262 294.082,111.419 298.107,112.603 302.133,113.814 306.158,115.054 310.183,116.322 314.208,117.619 318.233,118.946 322.259,120.304 326.284,121.693 330.309,123.113 334.334,124.565 338.359,126.051 342.384,127.57 346.41,129.124 350.435,130.712 354.46,132.336 358.485,133.996 362.51,135.693 366.535,137.428 370.561,139.201 374.586,141.013 378.611,142.864 382.636,144.756 386.661,146.69 390.686,148.665 394.712,150.683 398.737,152.744 402.762,154.849 406.787,156.999 410.812,159.195 414.837,161.437 418.863,163.726 422.888,166.063 426.913,168.449 430.938,170.884 434.963,173.369 438.988,175.905 443.014,178.492 447.039,181.132 451.064,183.825 455.089,186.572 459.114,189.373 463.139,192.23 467.165,195.143 471.19,198.112 475.215,201.139 479.24,204.224 483.265,207.368 487.29,210.572 491.316,213.835 495.341,217.16 499.366,220.546 503.391,223.994 507.416,227.505 511.441,231.079 515.467,234.717 519.492,238.42 523.517,242.187 527.542,246.02 531.567,249.919 535.592,253.885 539.618,257.917 543.643,262.017 547.668,266.184 551.693,270.419 555.718,274.723 559.743,279.095 563.769,283.537 567.794,288.047 571.819,292.626 575.844,297.275 579.869,301.994 583.894,306.782 587.92,311.64 591.945,316.567 595.97,321.564 599.995,326.63 604.02,331.766 608.046,336.97 612.071,342.244 616.096,347.586 620.121,352.996 624.146,358.474 628.171,364.02 632.197,369.632 636.222,375.311 640.247,381.055 644.272,386.865 648.297,392.738 652.322,398.676 656.348,404.676 660.373,410.738 664.398,416.862 668.423,423.045 672.448,428.907 676.473,432.926 680.499,436.945 684.524,440.963 688.549,444.982 692.574,449.001 696.599,453.019 700.624,457.038 704.65,461.057 708.675,465.075 712.7,469.094 716.725,473.113 720.75,477.131 724.775,481.15 728.801,485.169 732.826,489.187 736.851,493.206 740.876,497.224 744.901,501.243 748.926,505.262 752.952,509.28 756.977,513.299 761.002,517.318 765.027,521.336 769.052,525.355 773.077,529.374 777.103,533.392 781.128,537.411 785.153,541.43 789.178,545.448 793.203,549.467 797.228,553.486 801.254,557.504 805.279,561.523 809.304,565.542 813.329,569.56 817.354,573.579 821.379,577.598 825.405,581.616 829.43,585.635 833.455,589.654 837.48,593.672 841.505,597.691 845.53,601.71 849.556,605.728 853.581,609.747 857.606,613.766 861.631,617.784 865.656,621.803 869.681,625.822 873.707,629.84 877.732,633.859 881.757,637.878 885.782,641.896 889.807,645.915 893.833,649.934 897.858,653.952 901.883,657.971 905.908,661.99 909.933,666.008 913.958,670.027 917.984,674.046 922.009,678.064 926.034,682.083 930.059,686.102 934.084,690.12 938.109,694.139 942.135,698.157 946.16,702.176 950.185,706.195 954.21,710.213 958.235,714.232 962.26,718.251 966.286,722.269 970.311,726.288 974.336,730.307 978.361,734.325 982.386,738.344 986.411,742.363 990.437,746.381 994.462,750.4 998.487,754.419 1002.51,758.437 1006.54,762.456 1010.56,766.475 1014.59,770.493 1018.61,774.512 1022.64,778.531 1026.66,782.549 1030.69,786.568 1034.71,790.587 1038.74,794.605 1042.76,798.624 1046.79,802.643 1050.81,806.661 1054.84,810.68 1058.86,814.699 1062.89,818.717 1066.91,822.736 1070.94,826.755 1074.97,830.773 1078.99,834.792 1083.02,838.811 1087.04,842.829 1091.07,846.848 1095.09,850.866 1099.12,854.885 1103.14,858.904 1107.17,862.922 1111.19,866.941 1115.22,870.96 1119.24,874.978 1123.27,878.98 1127.29,883.015 1131.32,887.032 1135.34,891.029 1139.37,895.005 1143.39,898.96 1147.42,902.894 1151.44,906.807 1155.47,910.697 1159.49,914.565 1163.52,918.41 1167.54,922.233 1171.57,926.032 1175.59,929.807 1179.62,933.559 1183.64,937.287 1187.67,940.99 1191.7,944.669 1195.72,948.323 1199.75,951.952 1203.77,955.556 1207.8,959.134 1211.82,962.687 1215.85,966.214 1219.87,969.715 1223.9,973.19 1227.92,976.638 1231.95,980.061 1235.97,983.457 1240,986.826 1244.02,990.169 1248.05,993.485 1252.07,996.774 1256.1,1000.04 1260.12,1003.27 1264.15,1006.48 1268.17,1009.66 1272.2,1012.82 1276.22,1015.94 1280.25,1019.04 1284.27,1022.11 1288.3,1025.16 1292.32,1028.18 1296.35,1031.17 1300.37,1034.13 1304.4,1037.07 1308.42,1039.98 1312.45,1042.87 1316.48,1045.72 1320.5,1048.55 1324.53,1051.35 1328.55,1054.13 1332.58,1056.88 1336.6,1059.6 1340.63,1062.3 1344.65,1064.97 1348.68,1067.61 1352.7,1070.23 1356.73,1072.82 1360.75,1075.39 1364.78,1077.93 1368.8,1080.44 1372.83,1082.93 1376.85,1085.39 1380.88,1087.83 1384.9,1090.24 1388.93,1092.63 1392.95,1094.99 1396.98,1097.33 1401,1099.64 1405.03,1101.93 1409.05,1104.2 1413.08,1106.44 1417.1,1108.65 1421.13,1110.84 1425.15,1113.01 1429.18,1115.16 1433.21,1117.28 1437.23,1119.38 1441.26,1121.45 1445.28,1123.51 1449.31,1125.54 1453.33,1127.54 1457.36,1129.53 1461.38,1131.49 1465.41,1133.43 1469.43,1135.35 1473.46,1137.25 1477.48,1139.13 1481.51,1140.98 1485.53,1142.82 1489.56,1144.63 1493.58,1146.42 1497.61,1148.2 1501.63,1149.95 1505.66,1151.68 1509.68,1153.39 1513.71,1155.08 1517.73,1156.76 1521.76,1158.41 1525.78,1160.04 1529.81,1161.66 1533.83,1163.25 1537.86,1164.83 1541.88,1166.39 1545.91,1167.93 1549.94,1169.45 1553.96,1170.96 1557.99,1172.44 1562.01,1173.91 1566.04,1175.37 1570.06,1176.8 1574.09,1178.22 1578.11,1179.62 1582.14,1181 1586.16,1182.37 1590.19,1183.72 1594.21,1185.06 1598.24,1186.37 1602.26,1187.68 1606.29,1188.96 1610.31,1190.24 1614.34,1191.49 1618.36,1192.73 1622.39,1193.96 1626.41,1195.17 1630.44,1196.37 1634.46,1197.55 1638.49,1198.72 1642.51,1199.87 1646.54,1201.01 1650.56,1202.14 1654.59,1203.25 1658.61,1204.35 1662.64,1205.43 1666.66,1206.5 1670.69,1207.56 1674.72,1208.61 1678.74,1209.64 1682.77,1210.66 1686.79,1211.67 1690.82,1212.66 1694.84,1213.65 1698.87,1214.62 1702.89,1215.58 1706.92,1216.52 1710.94,1217.46 1714.97,1218.38 1718.99,1219.3 1723.02,1220.2 1727.04,1221.09 1731.07,1221.97 1735.09,1222.83 1739.12,1223.69 1743.14,1224.54 1747.17,1225.37 1751.19,1226.2 1755.22,1227.01 1759.24,1227.82 1763.27,1228.62 1767.29,1229.4 1771.32,1230.18 1775.34,1230.94 1779.37,1231.7 1783.39,1232.45 1787.42,1233.18 1791.45,1233.91 1795.47,1234.63 1799.5,1235.34 1803.52,1236.04 1807.55,1236.73 1811.57,1237.42 1815.6,1238.09 1819.62,1238.76 1823.65,1239.42 1827.67,1240.07 1831.7,1240.71 1835.72,1241.35 1839.75,1241.97 1843.77,1242.59 1847.8,1243.2 1851.82,1243.8 1855.85,1244.4 1859.87,1244.99 1863.9,1245.57 1867.92,1246.14 1871.95,1246.71 1875.97,1247.27 1880,1247.82 1884.02,1248.36 1888.05,1248.9 1892.07,1249.43 1896.1,1249.96 1900.12,1250.47 1904.15,1250.99 1908.18,1251.49 1912.2,1251.99 1916.23,1252.48 1920.25,1252.97 1924.28,1253.45 1928.3,1253.92 1932.33,1254.39 1936.35,1254.85 1940.38,1255.31 1944.4,1255.76 1948.43,1256.2 1952.45,1256.64 1956.48,1257.08 1960.5,1257.5 1964.53,1257.93 1968.55,1258.34 1972.58,1258.76 1976.6,1259.16 1980.63,1259.56 1984.65,1259.96 1988.68,1260.35 1992.7,1260.74 1996.73,1261.12 2000.75,1261.5 2004.78,1261.87 2008.8,1262.24 2012.83,1262.6 2016.85,1262.96 2020.88,1263.31 2024.91,1263.66 2028.93,1264.01 2032.96,1264.35 2036.98,1264.68 2041.01,1265.02 2045.03,1265.34 2049.06,1265.67 2053.08,1265.99 2057.11,1266.3 2061.13,1266.61 2065.16,1266.92 2069.18,1267.22 2073.21,1267.52 2077.23,1267.82 2081.26,1268.11 2085.28,1268.4 2089.31,1268.69 2093.33,1268.97 2097.36,1269.24 2101.38,1269.52 2105.41,1269.79 2109.43,1270.06 2113.46,1270.32 2117.48,1270.58 2121.51,1270.84 2125.53,1271.09 2129.56,1271.34 2133.58,1271.59 2137.61,1271.83 2141.63,1272.08 2145.66,1272.31 2149.69,1272.55 2153.71,1272.78 2157.74,1273.01 2161.76,1273.24 2165.79,1273.46 2169.81,1273.68 2173.84,1273.9 2177.86,1274.11 2181.89,1274.33 2185.91,1274.54 2189.94,1274.74 2193.96,1274.95 2197.99,1275.15 2202.01,1275.35 2206.04,1275.55 2210.06,1275.74 2214.09,1275.93 2218.11,1276.12 2222.14,1276.31 2226.16,1276.49 2230.19,1276.67 2234.21,1276.85 2238.24,1277.03 2242.26,1277.21 2246.29,1277.38 2250.31,1277.55 2254.34,1277.72 2258.36,1277.89 2262.39,1278.05 2266.42,1278.21 2270.44,1278.37 2274.47,1278.53 2278.49,1278.69 2282.52,1278.84 2286.54,1279 2290.57,1279.15 2294.59,1279.29 2298.62,1279.44 2302.64,1279.59 2306.67,1279.73 2310.69,1279.87 2314.72,1280.01 2318.74,1280.15 2322.77,1280.28 2326.79,1280.42 2330.82,1280.55 2334.84,1280.68 2338.87,1280.81 2342.89,1280.94 2346.92,1281.06 2350.94,1281.19 2354.97,1281.31 2358.99,1281.43 2363.02,1281.55 2367.04,1281.67 2371.07,1281.78 2375.09,1281.9 2379.12,1282.01 2383.15,1282.12 2387.17,1282.24 2391.2,1282.34 2395.22,1282.45 2399.25,1282.56 2403.27,1282.66 2407.3,1282.77 2411.32,1282.87 2415.35,1282.97 2419.37,1283.07 2423.4,1283.17 2427.42,1283.27 2431.45,1283.36 2435.47,1283.46 2439.5,1283.55 2443.52,1283.65 2447.55,1283.74 2451.57,1283.83 2455.6,1283.92 2459.62,1284 2463.65,1284.09 2467.67,1284.18 2471.7,1284.26 2475.72,1284.35 2479.75,1284.43 2483.77,1284.51 2487.8,1284.59 2491.82,1284.67 2495.85,1284.75 2499.87,1284.82 2503.9,1284.9 2507.93,1284.98 2511.95,1285.05 2515.98,1285.12 2520,1285.2 2524.03,1285.27 2528.05,1285.34 2532.08,1285.41 2536.1,1285.48 2540.13,1285.55 2544.15,1285.61 2548.18,1285.68 2552.2,1285.75 2556.23,1285.81 2560.25,1285.87 2564.28,1285.94 2568.3,1286 2572.33,1286.06 2576.35,1286.12 2580.38,1286.18 2584.4,1286.24 2588.43,1286.3 2592.45,1286.36 2596.48,1286.41 2600.5,1286.47 2604.53,1286.53 2608.55,1286.58 2612.58,1286.64 2616.6,1286.69 2620.63,1286.74 2624.66,1286.79 2628.68,1286.85 2632.71,1286.9 2636.73,1286.95 2640.76,1287 2644.78,1287.04 2648.81,1287.09 2652.83,1287.14 2656.86,1287.19 2660.88,1287.23 2664.91,1287.28 2668.93,1287.32 2672.96,1287.37 2676.98,1287.41 2681.01,1287.46 2685.03,1287.5 2689.06,1287.54 2693.08,1287.58 2697.11,1287.63 2701.13,1287.67 2705.16,1287.71 2709.18,1287.75 2713.21,1287.79 2717.23,1287.83 2721.26,1287.86 2725.28,1287.9 2729.31,1287.94 2733.33,1287.98 2737.36,1288.01 2741.39,1288.05 2745.41,1288.08 2749.44,1288.12 2753.46,1288.15 2757.49,1288.19 2761.51,1288.22 2765.54,1288.25 2769.56,1288.29 2773.59,1288.32 2777.61,1288.35 2781.64,1288.38 2785.66,1288.41 2789.69,1288.45 2793.71,1288.48 2797.74,1288.51 2801.76,1288.54 2805.79,1288.56 2809.81,1288.59 2813.84,1288.62 2817.86,1288.65 2821.89,1288.68 2825.91,1288.71 2829.94,1288.73 2833.96,1288.76 2837.99,1288.79 2842.01,1288.81 2846.04,1288.84 2850.06,1288.86 2854.09,1288.89 2858.12,1288.91 2862.14,1288.94 2866.17,1288.96 2870.19,1288.99 2874.22,1289.01 2878.24,1289.03 2882.27,1289.06 2886.29,1289.08 2890.32,1289.1 2894.34,1289.12 2898.37,1289.15 2902.39,1289.17 2906.42,1289.19 2910.44,1289.21 2914.47,1289.23 2918.49,1289.25 2922.52,1289.27 2926.54,1289.29 2930.57,1289.31 2934.59,1289.33 2938.62,1289.35 2942.64,1289.37 2946.67,1289.39 2950.69,1289.41 2954.72,1289.42 2958.74,1289.44 2962.77,1289.46 2966.79,1289.48 2970.82,1289.49 2974.84,1289.51 2978.87,1289.53 2982.9,1289.55 2986.92,1289.56 2990.95,1289.58 2994.97,1289.59 2999,1289.61 3003.02,1289.63 3007.05,1289.64 3011.07,1289.66 3015.1,1289.67 3019.12,1289.69 3023.15,1289.7 3027.17,1289.72 3031.2,1289.73 3035.22,1289.74 3039.25,1289.76 3043.27,1289.77 3047.3,1289.79 3051.32,1289.8 3055.35,1289.81 3059.37,1289.83 3063.4,1289.84 3067.42,1289.85 3071.45,1289.86 3075.47,1289.88 3079.5,1289.89 3083.52,1289.9 3087.55,1289.91 3091.57,1289.92 3095.6,1289.94 3099.63,1289.95 3103.65,1289.96 3107.68,1289.97 3111.7,1289.98 3115.73,1289.99 3119.75,1290 3123.78,1290.01 3127.8,1290.02 3131.83,1290.03 3135.85,1290.04 3139.88,1290.05 3143.9,1290.06 3147.93,1290.07 3151.95,1290.08 3155.98,1290.09 3160,1290.1 3164.03,1290.11 3168.05,1290.12 3172.08,1290.13 3176.1,1290.14 3180.13,1290.15 3184.15,1290.16 3188.18,1290.17 3192.2,1290.18 3196.23,1290.18 3200.25,1290.19 3204.28,1290.2 3208.3,1290.21 3212.33,1290.22 3216.36,1290.22 3220.38,1290.23 3224.41,1290.24 3228.43,1290.25 3232.46,1290.26 3236.48,1290.26 3240.51,1290.27 3244.53,1290.28 3248.56,1290.29 3252.58,1290.29 3256.61,1290.3 3260.63,1290.31 3264.66,1290.31 3268.68,1290.32 3272.71,1290.33 3276.73,1290.33 3280.76,1290.34 3284.78,1290.35 3288.81,1290.35 3292.83,1290.36 3296.86,1290.36 3300.88,1290.37 3304.91,1290.38 3308.93,1290.38 3312.96,1290.39 3316.98,1290.39 3321.01,1290.4 3325.03,1290.41 3329.06,1290.41 3333.08,1290.42 3337.11,1290.42 3341.14,1290.43 3345.16,1290.43 3349.19,1290.44 3353.21,1290.44 3357.24,1290.45 3361.26,1290.45 3365.29,1290.46 3369.31,1290.46 3373.34,1290.47 3377.36,1290.47 3381.39,1290.48 3385.41,1290.48 3389.44,1290.49 3393.46,1290.49 3397.49,1290.5 3401.51,1290.5 3405.54,1290.5 3409.56,1290.51 3413.59,1290.51 3417.61,1290.52 3421.64,1290.52 3425.66,1290.53 3429.69,1290.53 3433.71,1290.53 3437.74,1290.54 3441.76,1290.54 3445.79,1290.55 3449.81,1290.55 3453.84,1290.55 3457.87,1290.56 3461.89,1290.56 3465.92,1290.56 3469.94,1290.57 3473.97,1290.57 3477.99,1290.57 3482.02,1290.58 3486.04,1290.58 3490.07,1290.58 3494.09,1290.59 3498.12,1290.59 3502.14,1290.59 3506.17,1290.6 3510.19,1290.6 3514.22,1290.6 3518.24,1290.61 3522.27,1290.61 3526.29,1290.61 3530.32,1290.62 3534.34,1290.62 3538.37,1290.62 3542.39,1290.62 3546.42,1290.63 3550.44,1290.63 3554.47,1290.63 3558.49,1290.63 3562.52,1290.64 3566.54,1290.64 3570.57,1290.64 3574.6,1290.65 3578.62,1290.65 3582.65,1290.65 3586.67,1290.65 3590.7,1290.66 3594.72,1290.66 3598.75,1290.66 3602.77,1290.66 3606.8,1290.66 3610.82,1290.67 3614.85,1290.67 3618.87,1290.67 3622.9,1290.67 3626.92,1290.68 3630.95,1290.68 3634.97,1290.68 3639,1290.68 3643.02,1290.68 3647.05,1290.69 3651.07,1290.69 3655.1,1290.69 3659.12,1290.69 3663.15,1290.69 3667.17,1290.7 3671.2,1290.7 3675.22,1290.7 3679.25,1290.7 3683.27,1290.7 3687.3,1290.71 3691.33,1290.71 3695.35,1290.71 3699.38,1290.71 3703.4,1290.71 3707.43,1290.71 3711.45,1290.72 3715.48,1290.72 3719.5,1290.72 3723.53,1290.72 3727.55,1290.72 3731.58,1290.72 3735.6,1290.72 3739.63,1290.73 3743.65,1290.73 3747.68,1290.73 3751.7,1290.73 3755.73,1290.73 3759.75,1290.73 3763.78,1290.74 3767.8,1290.74 3771.83,1290.74 3775.85,1290.74 3779.88,1290.74 3783.9,1290.74 3787.93,1290.74 3791.95,1290.74 3795.98,1290.75 3800,1290.75 3804.03,1290.75 3808.05,1290.75 3812.08,1290.75 3816.11,1290.75 3820.13,1290.75 3824.16,1290.75 3828.18,1290.76 3832.21,1290.76 3836.23,1290.76 3840.26,1290.76 3844.28,1290.76 3848.31,1290.76 3852.33,1290.76 3856.36,1290.76 3860.38,1290.76 3864.41,1290.76 3868.43,1290.77 3872.46,1290.77 3876.48,1290.77 3880.51,1290.77 3884.53,1290.77 3888.56,1290.77 3892.58,1290.77 3896.61,1290.77 3900.63,1290.77 3904.66,1290.77 3908.68,1290.78 3912.71,1290.78 3916.73,1290.78 3920.76,1290.78 3924.78,1290.78 3928.81,1290.78 3932.84,1290.78 3936.86,1290.78 3940.89,1290.78 3944.91,1290.78 3948.94,1290.78 3952.96,1290.78 3956.99,1290.78 3961.01,1290.79 3965.04,1290.79 3969.06,1290.79 3973.09,1290.79 3977.11,1290.79 3981.14,1290.79 3985.16,1290.79 3989.19,1290.79 3993.21,1290.79 3997.24,1290.79 4001.26,1290.79 4005.29,1290.79 4009.31,1290.79 4013.34,1290.79 4017.36,1290.8 4021.39,1290.8 4025.41,1290.8 4029.44,1290.8 4033.46,1290.8 4037.49,1290.8 4041.51,1290.8 4045.54,1290.8 4049.57,1290.8 4053.59,1290.8 4057.62,1290.8 4061.64,1290.8 4065.67,1290.8 4069.69,1290.8 4073.72,1290.8 4077.74,1290.8 4081.77,1290.8 4085.79,1290.8 4089.82,1290.81 4093.84,1290.81 4097.87,1290.81 4101.89,1290.81 4105.92,1290.81 4109.94,1290.81 4113.97,1290.81 4117.99,1290.81 4122.02,1290.81 4126.04,1290.81 4130.07,1290.81 4134.09,1290.81 4138.12,1290.81 4142.14,1290.81 4146.17,1290.81 4150.19,1290.81 4154.22,1290.81 4158.24,1290.81 4162.27,1290.81 4166.29,1290.81 4170.32,1290.81 4174.35,1290.81 4178.37,1290.81 4182.4,1290.82 4186.42,1290.82 4190.45,1290.82 4194.47,1290.82 4198.5,1290.82 4202.52,1290.82 4206.55,1290.82 4210.57,1290.82 4214.6,1290.82 4218.62,1290.82 4222.65,1290.82 4226.67,1290.82 4230.7,1290.82 4234.72,1290.82 4238.75,1290.82 4242.77,1290.82 4246.8,1290.82 4250.82,1290.82 "/>
<polyline clip-path="url(#clip222)" style="stroke:#e26f46; stroke-linecap:round; stroke-linejoin:round; stroke-width:4; stroke-opacity:1; fill:none" points="225.654,94.9858 229.68,95.7815 233.705,96.5963 237.73,97.4306 241.755,98.2848 245.78,99.1595 249.805,100.055 253.831,100.972 257.856,101.91 261.881,102.871 265.906,103.855 269.931,104.861 273.956,105.892 277.982,106.947 282.007,108.026 286.032,109.131 290.057,110.262 294.082,111.419 298.107,112.603 302.133,113.814 306.158,115.054 310.183,116.322 314.208,117.619 318.233,118.946 322.259,120.304 326.284,121.693 330.309,123.113 334.334,124.566 338.359,126.051 342.384,127.57 346.41,129.124 350.435,130.712 354.46,132.336 358.485,133.996 362.51,135.693 366.535,137.428 370.561,139.201 374.586,141.013 378.611,142.864 382.636,144.756 386.661,146.69 390.686,148.665 394.712,150.683 398.737,152.744 402.762,154.849 406.787,157 410.812,159.195 414.837,161.437 418.863,163.727 422.888,166.064 426.913,168.449 430.938,170.884 434.963,173.369 438.988,175.905 443.014,178.493 447.039,181.132 451.064,183.825 455.089,186.572 459.114,189.373 463.139,192.23 467.165,195.143 471.19,198.112 475.215,201.139 479.24,204.224 483.265,207.368 487.29,210.572 491.316,213.835 495.341,217.16 499.366,220.546 503.391,223.994 507.416,227.505 511.441,231.079 515.467,234.717 519.492,238.42 523.517,242.187 527.542,246.02 531.567,249.919 535.592,253.885 539.618,257.917 543.643,262.017 547.668,266.184 551.693,270.42 555.718,274.723 559.743,279.096 563.769,283.537 567.794,288.047 571.819,292.627 575.844,297.275 579.869,301.994 583.894,306.782 587.92,311.64 591.945,316.567 595.97,321.564 599.995,326.63 604.02,331.766 608.046,336.971 612.071,342.244 616.096,347.586 620.121,352.996 624.146,358.474 628.171,364.02 632.197,369.632 636.222,375.311 640.247,381.055 644.272,386.865 648.297,392.739 652.322,398.676 656.348,404.677 660.373,410.739 664.398,416.864 668.423,499.958 672.448,882.644 676.473,882.643 680.499,882.643 684.524,882.643 688.549,882.643 692.574,882.643 696.599,882.643 700.624,882.643 704.65,882.643 708.675,882.643 712.7,882.643 716.725,882.643 720.75,882.643 724.775,882.643 728.801,882.643 732.826,882.643 736.851,882.643 740.876,882.643 744.901,882.643 748.926,882.643 752.952,882.643 756.977,882.643 761.002,882.643 765.027,882.643 769.052,882.643 773.077,882.643 777.103,882.643 781.128,882.643 785.153,882.643 789.178,882.643 793.203,882.643 797.228,882.643 801.254,882.643 805.279,882.643 809.304,882.643 813.329,882.643 817.354,882.643 821.379,882.643 825.405,882.643 829.43,882.643 833.455,882.643 837.48,882.643 841.505,882.643 845.53,882.643 849.556,882.643 853.581,882.643 857.606,882.643 861.631,882.643 865.656,882.643 869.681,882.643 873.707,882.643 877.732,882.643 881.757,882.643 885.782,882.643 889.807,882.643 893.833,882.643 897.858,882.643 901.883,882.643 905.908,882.643 909.933,882.643 913.958,882.643 917.984,882.643 922.009,882.643 926.034,882.643 930.059,882.643 934.084,882.643 938.109,882.643 942.135,882.643 946.16,882.643 950.185,882.643 954.21,882.643 958.235,882.643 962.26,882.643 966.286,882.643 970.311,882.643 974.336,882.643 978.361,882.643 982.386,882.643 986.411,882.643 990.437,882.643 994.462,882.643 998.487,882.643 1002.51,882.643 1006.54,882.643 1010.56,882.643 1014.59,882.643 1018.61,882.643 1022.64,882.643 1026.66,882.644 1030.69,882.644 1034.71,882.644 1038.74,882.644 1042.76,882.644 1046.79,882.644 1050.81,882.644 1054.84,882.644 1058.86,882.644 1062.89,882.644 1066.91,882.644 1070.94,882.644 1074.97,882.644 1078.99,882.645 1083.02,882.645 1087.04,882.645 1091.07,882.646 1095.09,882.647 1099.12,882.648 1103.14,882.651 1107.17,882.655 1111.19,882.666 1115.22,882.654 1119.24,886.093 1123.27,879.108 1127.29,883.015 1131.32,887.032 1135.34,891.029 1139.37,895.005 1143.39,898.96 1147.42,902.894 1151.44,906.807 1155.47,910.697 1159.49,914.565 1163.52,918.41 1167.54,922.233 1171.57,926.032 1175.59,929.807 1179.62,933.559 1183.64,937.287 1187.67,940.99 1191.7,944.669 1195.72,948.323 1199.75,951.952 1203.77,955.556 1207.8,959.134 1211.82,962.687 1215.85,966.214 1219.87,969.715 1223.9,973.19 1227.92,976.639 1231.95,980.061 1235.97,983.457 1240,986.826 1244.02,990.169 1248.05,993.485 1252.07,996.774 1256.1,1000.04 1260.12,1003.27 1264.15,1006.48 1268.17,1009.66 1272.2,1012.82 1276.22,1015.94 1280.25,1019.04 1284.27,1022.11 1288.3,1025.16 1292.32,1028.18 1296.35,1031.17 1300.37,1034.13 1304.4,1037.07 1308.42,1039.98 1312.45,1042.87 1316.48,1045.72 1320.5,1048.55 1324.53,1051.35 1328.55,1054.13 1332.58,1056.88 1336.6,1059.6 1340.63,1062.3 1344.65,1064.97 1348.68,1067.61 1352.7,1070.23 1356.73,1072.82 1360.75,1075.39 1364.78,1077.93 1368.8,1080.44 1372.83,1082.93 1376.85,1085.39 1380.88,1087.83 1384.9,1090.24 1388.93,1092.63 1392.95,1094.99 1396.98,1097.33 1401,1099.64 1405.03,1101.93 1409.05,1104.2 1413.08,1106.44 1417.1,1108.65 1421.13,1110.84 1425.15,1113.01 1429.18,1115.16 1433.21,1117.28 1437.23,1119.38 1441.26,1121.45 1445.28,1123.51 1449.31,1125.54 1453.33,1127.54 1457.36,1129.53 1461.38,1131.49 1465.41,1133.43 1469.43,1135.35 1473.46,1137.25 1477.48,1139.13 1481.51,1140.98 1485.53,1142.82 1489.56,1144.63 1493.58,1146.42 1497.61,1148.2 1501.63,1149.95 1505.66,1151.68 1509.68,1153.39 1513.71,1155.08 1517.73,1156.76 1521.76,1158.41 1525.78,1160.04 1529.81,1161.66 1533.83,1163.25 1537.86,1164.83 1541.88,1166.39 1545.91,1167.93 1549.94,1169.45 1553.96,1170.96 1557.99,1172.44 1562.01,1173.91 1566.04,1175.37 1570.06,1176.8 1574.09,1178.22 1578.11,1179.62 1582.14,1181 1586.16,1182.37 1590.19,1183.72 1594.21,1185.06 1598.24,1186.37 1602.26,1187.68 1606.29,1188.96 1610.31,1190.24 1614.34,1191.49 1618.36,1192.73 1622.39,1193.96 1626.41,1195.17 1630.44,1196.37 1634.46,1197.55 1638.49,1198.72 1642.51,1199.87 1646.54,1201.01 1650.56,1202.14 1654.59,1203.25 1658.61,1204.35 1662.64,1205.43 1666.66,1206.5 1670.69,1207.56 1674.72,1208.61 1678.74,1209.64 1682.77,1210.66 1686.79,1211.67 1690.82,1212.66 1694.84,1213.65 1698.87,1214.62 1702.89,1215.58 1706.92,1216.52 1710.94,1217.46 1714.97,1218.38 1718.99,1219.3 1723.02,1220.2 1727.04,1221.09 1731.07,1221.97 1735.09,1222.83 1739.12,1223.69 1743.14,1224.54 1747.17,1225.37 1751.19,1226.2 1755.22,1227.01 1759.24,1227.82 1763.27,1228.62 1767.29,1229.4 1771.32,1230.18 1775.34,1230.94 1779.37,1231.7 1783.39,1232.45 1787.42,1233.18 1791.45,1233.91 1795.47,1234.63 1799.5,1235.34 1803.52,1236.04 1807.55,1236.73 1811.57,1237.42 1815.6,1238.09 1819.62,1238.76 1823.65,1239.42 1827.67,1240.07 1831.7,1240.71 1835.72,1241.35 1839.75,1241.97 1843.77,1242.59 1847.8,1243.2 1851.82,1243.8 1855.85,1244.4 1859.87,1244.99 1863.9,1245.57 1867.92,1246.14 1871.95,1246.71 1875.97,1247.27 1880,1247.82 1884.02,1248.36 1888.05,1248.9 1892.07,1249.43 1896.1,1249.96 1900.12,1250.47 1904.15,1250.99 1908.18,1251.49 1912.2,1251.99 1916.23,1252.48 1920.25,1252.97 1924.28,1253.45 1928.3,1253.92 1932.33,1254.39 1936.35,1254.85 1940.38,1255.31 1944.4,1255.76 1948.43,1256.2 1952.45,1256.64 1956.48,1257.08 1960.5,1257.5 1964.53,1257.93 1968.55,1258.34 1972.58,1258.76 1976.6,1259.16 1980.63,1259.56 1984.65,1259.96 1988.68,1260.35 1992.7,1260.74 1996.73,1261.12 2000.75,1261.5 2004.78,1261.87 2008.8,1262.24 2012.83,1262.6 2016.85,1262.96 2020.88,1263.31 2024.91,1263.66 2028.93,1264.01 2032.96,1264.35 2036.98,1264.68 2041.01,1265.02 2045.03,1265.34 2049.06,1265.67 2053.08,1265.99 2057.11,1266.3 2061.13,1266.61 2065.16,1266.92 2069.18,1267.22 2073.21,1267.52 2077.23,1267.82 2081.26,1268.11 2085.28,1268.4 2089.31,1268.69 2093.33,1268.97 2097.36,1269.24 2101.38,1269.52 2105.41,1269.79 2109.43,1270.06 2113.46,1270.32 2117.48,1270.58 2121.51,1270.84 2125.53,1271.09 2129.56,1271.34 2133.58,1271.59 2137.61,1271.83 2141.63,1272.08 2145.66,1272.31 2149.69,1272.55 2153.71,1272.78 2157.74,1273.01 2161.76,1273.24 2165.79,1273.46 2169.81,1273.68 2173.84,1273.9 2177.86,1274.11 2181.89,1274.33 2185.91,1274.54 2189.94,1274.74 2193.96,1274.95 2197.99,1275.15 2202.01,1275.35 2206.04,1275.55 2210.06,1275.74 2214.09,1275.93 2218.11,1276.12 2222.14,1276.31 2226.16,1276.49 2230.19,1276.67 2234.21,1276.85 2238.24,1277.03 2242.26,1277.21 2246.29,1277.38 2250.31,1277.55 2254.34,1277.72 2258.36,1277.89 2262.39,1278.05 2266.42,1278.21 2270.44,1278.37 2274.47,1278.53 2278.49,1278.69 2282.52,1278.84 2286.54,1279 2290.57,1279.15 2294.59,1279.29 2298.62,1279.44 2302.64,1279.59 2306.67,1279.73 2310.69,1279.87 2314.72,1280.01 2318.74,1280.15 2322.77,1280.28 2326.79,1280.42 2330.82,1280.55 2334.84,1280.68 2338.87,1280.81 2342.89,1280.94 2346.92,1281.06 2350.94,1281.19 2354.97,1281.31 2358.99,1281.43 2363.02,1281.55 2367.04,1281.67 2371.07,1281.78 2375.09,1281.9 2379.12,1282.01 2383.15,1282.12 2387.17,1282.24 2391.2,1282.34 2395.22,1282.45 2399.25,1282.56 2403.27,1282.66 2407.3,1282.77 2411.32,1282.87 2415.35,1282.97 2419.37,1283.07 2423.4,1283.17 2427.42,1283.27 2431.45,1283.36 2435.47,1283.46 2439.5,1283.55 2443.52,1283.65 2447.55,1283.74 2451.57,1283.83 2455.6,1283.92 2459.62,1284 2463.65,1284.09 2467.67,1284.18 2471.7,1284.26 2475.72,1284.35 2479.75,1284.43 2483.77,1284.51 2487.8,1284.59 2491.82,1284.67 2495.85,1284.75 2499.87,1284.82 2503.9,1284.9 2507.93,1284.98 2511.95,1285.05 2515.98,1285.12 2520,1285.2 2524.03,1285.27 2528.05,1285.34 2532.08,1285.41 2536.1,1285.48 2540.13,1285.55 2544.15,1285.61 2548.18,1285.68 2552.2,1285.75 2556.23,1285.81 2560.25,1285.87 2564.28,1285.94 2568.3,1286 2572.33,1286.06 2576.35,1286.12 2580.38,1286.18 2584.4,1286.24 2588.43,1286.3 2592.45,1286.36 2596.48,1286.41 2600.5,1286.47 2604.53,1286.53 2608.55,1286.58 2612.58,1286.64 2616.6,1286.69 2620.63,1286.74 2624.66,1286.79 2628.68,1286.85 2632.71,1286.9 2636.73,1286.95 2640.76,1287 2644.78,1287.04 2648.81,1287.09 2652.83,1287.14 2656.86,1287.19 2660.88,1287.23 2664.91,1287.28 2668.93,1287.32 2672.96,1287.37 2676.98,1287.41 2681.01,1287.46 2685.03,1287.5 2689.06,1287.54 2693.08,1287.58 2697.11,1287.63 2701.13,1287.67 2705.16,1287.71 2709.18,1287.75 2713.21,1287.79 2717.23,1287.83 2721.26,1287.86 2725.28,1287.9 2729.31,1287.94 2733.33,1287.98 2737.36,1288.01 2741.39,1288.05 2745.41,1288.08 2749.44,1288.12 2753.46,1288.15 2757.49,1288.19 2761.51,1288.22 2765.54,1288.25 2769.56,1288.29 2773.59,1288.32 2777.61,1288.35 2781.64,1288.38 2785.66,1288.41 2789.69,1288.45 2793.71,1288.48 2797.74,1288.51 2801.76,1288.54 2805.79,1288.56 2809.81,1288.59 2813.84,1288.62 2817.86,1288.65 2821.89,1288.68 2825.91,1288.71 2829.94,1288.73 2833.96,1288.76 2837.99,1288.79 2842.01,1288.81 2846.04,1288.84 2850.06,1288.86 2854.09,1288.89 2858.12,1288.91 2862.14,1288.94 2866.17,1288.96 2870.19,1288.99 2874.22,1289.01 2878.24,1289.03 2882.27,1289.06 2886.29,1289.08 2890.32,1289.1 2894.34,1289.12 2898.37,1289.15 2902.39,1289.17 2906.42,1289.19 2910.44,1289.21 2914.47,1289.23 2918.49,1289.25 2922.52,1289.27 2926.54,1289.29 2930.57,1289.31 2934.59,1289.33 2938.62,1289.35 2942.64,1289.37 2946.67,1289.39 2950.69,1289.41 2954.72,1289.42 2958.74,1289.44 2962.77,1289.46 2966.79,1289.48 2970.82,1289.49 2974.84,1289.51 2978.87,1289.53 2982.9,1289.55 2986.92,1289.56 2990.95,1289.58 2994.97,1289.59 2999,1289.61 3003.02,1289.63 3007.05,1289.64 3011.07,1289.66 3015.1,1289.67 3019.12,1289.69 3023.15,1289.7 3027.17,1289.72 3031.2,1289.73 3035.22,1289.74 3039.25,1289.76 3043.27,1289.77 3047.3,1289.79 3051.32,1289.8 3055.35,1289.81 3059.37,1289.83 3063.4,1289.84 3067.42,1289.85 3071.45,1289.86 3075.47,1289.88 3079.5,1289.89 3083.52,1289.9 3087.55,1289.91 3091.57,1289.92 3095.6,1289.94 3099.63,1289.95 3103.65,1289.96 3107.68,1289.97 3111.7,1289.98 3115.73,1289.99 3119.75,1290 3123.78,1290.01 3127.8,1290.02 3131.83,1290.03 3135.85,1290.04 3139.88,1290.05 3143.9,1290.06 3147.93,1290.07 3151.95,1290.08 3155.98,1290.09 3160,1290.1 3164.03,1290.11 3168.05,1290.12 3172.08,1290.13 3176.1,1290.14 3180.13,1290.15 3184.15,1290.16 3188.18,1290.17 3192.2,1290.18 3196.23,1290.18 3200.25,1290.19 3204.28,1290.2 3208.3,1290.21 3212.33,1290.22 3216.36,1290.22 3220.38,1290.23 3224.41,1290.24 3228.43,1290.25 3232.46,1290.26 3236.48,1290.26 3240.51,1290.27 3244.53,1290.28 3248.56,1290.29 3252.58,1290.29 3256.61,1290.3 3260.63,1290.31 3264.66,1290.31 3268.68,1290.32 3272.71,1290.33 3276.73,1290.33 3280.76,1290.34 3284.78,1290.35 3288.81,1290.35 3292.83,1290.36 3296.86,1290.36 3300.88,1290.37 3304.91,1290.38 3308.93,1290.38 3312.96,1290.39 3316.98,1290.39 3321.01,1290.4 3325.03,1290.41 3329.06,1290.41 3333.08,1290.42 3337.11,1290.42 3341.14,1290.43 3345.16,1290.43 3349.19,1290.44 3353.21,1290.44 3357.24,1290.45 3361.26,1290.45 3365.29,1290.46 3369.31,1290.46 3373.34,1290.47 3377.36,1290.47 3381.39,1290.48 3385.41,1290.48 3389.44,1290.49 3393.46,1290.49 3397.49,1290.5 3401.51,1290.5 3405.54,1290.5 3409.56,1290.51 3413.59,1290.51 3417.61,1290.52 3421.64,1290.52 3425.66,1290.53 3429.69,1290.53 3433.71,1290.53 3437.74,1290.54 3441.76,1290.54 3445.79,1290.55 3449.81,1290.55 3453.84,1290.55 3457.87,1290.56 3461.89,1290.56 3465.92,1290.56 3469.94,1290.57 3473.97,1290.57 3477.99,1290.57 3482.02,1290.58 3486.04,1290.58 3490.07,1290.58 3494.09,1290.59 3498.12,1290.59 3502.14,1290.59 3506.17,1290.6 3510.19,1290.6 3514.22,1290.6 3518.24,1290.61 3522.27,1290.61 3526.29,1290.61 3530.32,1290.62 3534.34,1290.62 3538.37,1290.62 3542.39,1290.62 3546.42,1290.63 3550.44,1290.63 3554.47,1290.63 3558.49,1290.63 3562.52,1290.64 3566.54,1290.64 3570.57,1290.64 3574.6,1290.65 3578.62,1290.65 3582.65,1290.65 3586.67,1290.65 3590.7,1290.66 3594.72,1290.66 3598.75,1290.66 3602.77,1290.66 3606.8,1290.66 3610.82,1290.67 3614.85,1290.67 3618.87,1290.67 3622.9,1290.67 3626.92,1290.68 3630.95,1290.68 3634.97,1290.68 3639,1290.68 3643.02,1290.68 3647.05,1290.69 3651.07,1290.69 3655.1,1290.69 3659.12,1290.69 3663.15,1290.69 3667.17,1290.7 3671.2,1290.7 3675.22,1290.7 3679.25,1290.7 3683.27,1290.7 3687.3,1290.71 3691.33,1290.71 3695.35,1290.71 3699.38,1290.71 3703.4,1290.71 3707.43,1290.71 3711.45,1290.72 3715.48,1290.72 3719.5,1290.72 3723.53,1290.72 3727.55,1290.72 3731.58,1290.72 3735.6,1290.72 3739.63,1290.73 3743.65,1290.73 3747.68,1290.73 3751.7,1290.73 3755.73,1290.73 3759.75,1290.73 3763.78,1290.74 3767.8,1290.74 3771.83,1290.74 3775.85,1290.74 3779.88,1290.74 3783.9,1290.74 3787.93,1290.74 3791.95,1290.74 3795.98,1290.75 3800,1290.75 3804.03,1290.75 3808.05,1290.75 3812.08,1290.75 3816.11,1290.75 3820.13,1290.75 3824.16,1290.75 3828.18,1290.76 3832.21,1290.76 3836.23,1290.76 3840.26,1290.76 3844.28,1290.76 3848.31,1290.76 3852.33,1290.76 3856.36,1290.76 3860.38,1290.76 3864.41,1290.76 3868.43,1290.77 3872.46,1290.77 3876.48,1290.77 3880.51,1290.77 3884.53,1290.77 3888.56,1290.77 3892.58,1290.77 3896.61,1290.77 3900.63,1290.77 3904.66,1290.77 3908.68,1290.78 3912.71,1290.78 3916.73,1290.78 3920.76,1290.78 3924.78,1290.78 3928.81,1290.78 3932.84,1290.78 3936.86,1290.78 3940.89,1290.78 3944.91,1290.78 3948.94,1290.78 3952.96,1290.78 3956.99,1290.78 3961.01,1290.79 3965.04,1290.79 3969.06,1290.79 3973.09,1290.79 3977.11,1290.79 3981.14,1290.79 3985.16,1290.79 3989.19,1290.79 3993.21,1290.79 3997.24,1290.79 4001.26,1290.79 4005.29,1290.79 4009.31,1290.79 4013.34,1290.79 4017.36,1290.8 4021.39,1290.8 4025.41,1290.8 4029.44,1290.8 4033.46,1290.8 4037.49,1290.8 4041.51,1290.8 4045.54,1290.8 4049.57,1290.8 4053.59,1290.8 4057.62,1290.8 4061.64,1290.8 4065.67,1290.8 4069.69,1290.8 4073.72,1290.8 4077.74,1290.8 4081.77,1290.8 4085.79,1290.8 4089.82,1290.81 4093.84,1290.81 4097.87,1290.81 4101.89,1290.81 4105.92,1290.81 4109.94,1290.81 4113.97,1290.81 4117.99,1290.81 4122.02,1290.81 4126.04,1290.81 4130.07,1290.81 4134.09,1290.81 4138.12,1290.81 4142.14,1290.81 4146.17,1290.81 4150.19,1290.81 4154.22,1290.81 4158.24,1290.81 4162.27,1290.81 4166.29,1290.81 4170.32,1290.81 4174.35,1290.81 4178.37,1290.81 4182.4,1290.82 4186.42,1290.82 4190.45,1290.82 4194.47,1290.82 4198.5,1290.82 4202.52,1290.82 4206.55,1290.82 4210.57,1290.82 4214.6,1290.82 4218.62,1290.82 4222.65,1290.82 4226.67,1290.82 4230.7,1290.82 4234.72,1290.82 4238.75,1290.82 4242.77,1290.82 4246.8,1290.82 4250.82,1290.82 "/>
<polyline clip-path="url(#clip222)" style="stroke:#3da44d; stroke-linecap:round; stroke-linejoin:round; stroke-width:4; stroke-opacity:1; fill:none" points="225.654,1686.38 229.68,1686.38 233.705,1686.38 237.73,1686.38 241.755,1686.38 245.78,1686.38 249.805,1686.38 253.831,1686.38 257.856,1686.38 261.881,1686.38 265.906,1686.38 269.931,1686.38 273.956,1686.38 277.982,1686.38 282.007,1686.38 286.032,1686.38 290.057,1686.38 294.082,1686.38 298.107,1686.38 302.133,1686.38 306.158,1686.38 310.183,1686.38 314.208,1686.38 318.233,1686.38 322.259,1686.38 326.284,1686.38 330.309,1686.38 334.334,1686.38 338.359,1686.38 342.384,1686.38 346.41,1686.38 350.435,1686.38 354.46,1686.38 358.485,1686.38 362.51,1686.38 366.535,1686.38 370.561,1686.38 374.586,1686.38 378.611,1686.38 382.636,1686.38 386.661,1686.38 390.686,1686.38 394.712,1686.38 398.737,1686.38 402.762,1686.38 406.787,1686.38 410.812,1686.38 414.837,1686.38 418.863,1686.38 422.888,1686.38 426.913,1686.38 430.938,1686.38 434.963,1686.38 438.988,1686.38 443.014,1686.38 447.039,1686.38 451.064,1686.38 455.089,1686.38 459.114,1686.38 463.139,1686.38 467.165,1686.38 471.19,1686.38 475.215,1686.38 479.24,1686.38 483.265,1686.38 487.29,1686.38 491.316,1686.38 495.341,1686.38 499.366,1686.38 503.391,1686.38 507.416,1686.38 511.441,1686.38 515.467,1686.38 519.492,1686.38 523.517,1686.38 527.542,1686.38 531.567,1686.38 535.592,1686.38 539.618,1686.38 543.643,1686.38 547.668,1686.38 551.693,1686.38 555.718,1686.38 559.743,1686.38 563.769,1686.38 567.794,1686.38 571.819,1686.38 575.844,1686.38 579.869,1686.38 583.894,1686.38 587.92,1686.38 591.945,1686.38 595.97,1686.38 599.995,1686.38 604.02,1686.38 608.046,1686.38 612.071,1686.38 616.096,1686.38 620.121,1686.38 624.146,1686.38 628.171,1686.38 632.197,1686.38 636.222,1686.38 640.247,1686.38 644.272,1686.38 648.297,1686.38 652.322,1686.37 656.348,1686.37 660.373,1686.37 664.398,1686.37 668.423,1637.44 672.448,1396.36 676.473,1398.01 680.499,1399.67 684.524,1401.34 688.549,1403.01 692.574,1404.7 696.599,1406.41 700.624,1408.12 704.65,1409.84 708.675,1411.58 712.7,1413.32 716.725,1415.08 720.75,1416.85 724.775,1418.63 728.801,1420.42 732.826,1422.23 736.851,1424.05 740.876,1425.88 744.901,1427.72 748.926,1429.57 752.952,1431.44 756.977,1433.32 761.002,1435.21 765.027,1437.12 769.052,1439.04 773.077,1440.97 777.103,1442.92 781.128,1444.88 785.153,1446.85 789.178,1448.84 793.203,1450.84 797.228,1452.85 801.254,1454.88 805.279,1456.93 809.304,1458.99 813.329,1461.06 817.354,1463.15 821.379,1465.25 825.405,1467.37 829.43,1469.51 833.455,1471.66 837.48,1473.82 841.505,1476.01 845.53,1478.2 849.556,1480.42 853.581,1482.65 857.606,1484.9 861.631,1487.16 865.656,1489.45 869.681,1491.75 873.707,1494.06 877.732,1496.4 881.757,1498.75 885.782,1501.12 889.807,1503.51 893.833,1505.92 897.858,1508.34 901.883,1510.79 905.908,1513.25 909.933,1515.73 913.958,1518.24 917.984,1520.76 922.009,1523.3 926.034,1525.87 930.059,1528.45 934.084,1531.06 938.109,1533.68 942.135,1536.33 946.16,1539 950.185,1541.69 954.21,1544.4 958.235,1547.14 962.26,1549.9 966.286,1552.68 970.311,1555.48 974.336,1558.31 978.361,1561.16 982.386,1564.04 986.411,1566.94 990.437,1569.87 994.462,1572.82 998.487,1575.79 1002.51,1578.79 1006.54,1581.82 1010.56,1584.88 1014.59,1587.96 1018.61,1591.07 1022.64,1594.2 1026.66,1597.37 1030.69,1600.56 1034.71,1603.78 1038.74,1607.03 1042.76,1610.31 1046.79,1613.62 1050.81,1616.96 1054.84,1620.33 1058.86,1623.73 1062.89,1627.16 1066.91,1630.62 1070.94,1634.12 1074.97,1637.65 1078.99,1641.21 1083.02,1644.81 1087.04,1648.44 1091.07,1652.1 1095.09,1655.8 1099.12,1659.54 1103.14,1663.31 1107.17,1667.12 1111.19,1670.95 1115.22,1674.85 1119.24,1675.37 1123.27,1686.25 1127.29,1686.38 1131.32,1686.38 1135.34,1686.38 1139.37,1686.38 1143.39,1686.38 1147.42,1686.38 1151.44,1686.38 1155.47,1686.38 1159.49,1686.38 1163.52,1686.38 1167.54,1686.38 1171.57,1686.38 1175.59,1686.38 1179.62,1686.38 1183.64,1686.38 1187.67,1686.38 1191.7,1686.38 1195.72,1686.38 1199.75,1686.38 1203.77,1686.38 1207.8,1686.38 1211.82,1686.38 1215.85,1686.38 1219.87,1686.38 1223.9,1686.38 1227.92,1686.38 1231.95,1686.38 1235.97,1686.38 1240,1686.38 1244.02,1686.38 1248.05,1686.38 1252.07,1686.38 1256.1,1686.38 1260.12,1686.38 1264.15,1686.38 1268.17,1686.38 1272.2,1686.38 1276.22,1686.38 1280.25,1686.38 1284.27,1686.38 1288.3,1686.38 1292.32,1686.38 1296.35,1686.38 1300.37,1686.38 1304.4,1686.38 1308.42,1686.38 1312.45,1686.38 1316.48,1686.38 1320.5,1686.38 1324.53,1686.38 1328.55,1686.38 1332.58,1686.38 1336.6,1686.38 1340.63,1686.38 1344.65,1686.38 1348.68,1686.38 1352.7,1686.38 1356.73,1686.38 1360.75,1686.38 1364.78,1686.38 1368.8,1686.38 1372.83,1686.38 1376.85,1686.38 1380.88,1686.38 1384.9,1686.38 1388.93,1686.38 1392.95,1686.38 1396.98,1686.38 1401,1686.38 1405.03,1686.38 1409.05,1686.38 1413.08,1686.38 1417.1,1686.38 1421.13,1686.38 1425.15,1686.38 1429.18,1686.38 1433.21,1686.38 1437.23,1686.38 1441.26,1686.38 1445.28,1686.38 1449.31,1686.38 1453.33,1686.38 1457.36,1686.38 1461.38,1686.38 1465.41,1686.38 1469.43,1686.38 1473.46,1686.38 1477.48,1686.38 1481.51,1686.38 1485.53,1686.38 1489.56,1686.38 1493.58,1686.38 1497.61,1686.38 1501.63,1686.38 1505.66,1686.38 1509.68,1686.38 1513.71,1686.38 1517.73,1686.38 1521.76,1686.38 1525.78,1686.38 1529.81,1686.38 1533.83,1686.38 1537.86,1686.38 1541.88,1686.38 1545.91,1686.38 1549.94,1686.38 1553.96,1686.38 1557.99,1686.38 1562.01,1686.38 1566.04,1686.38 1570.06,1686.38 1574.09,1686.38 1578.11,1686.38 1582.14,1686.38 1586.16,1686.38 1590.19,1686.38 1594.21,1686.38 1598.24,1686.38 1602.26,1686.38 1606.29,1686.38 1610.31,1686.38 1614.34,1686.38 1618.36,1686.38 1622.39,1686.38 1626.41,1686.38 1630.44,1686.38 1634.46,1686.38 1638.49,1686.38 1642.51,1686.38 1646.54,1686.38 1650.56,1686.38 1654.59,1686.38 1658.61,1686.38 1662.64,1686.38 1666.66,1686.38 1670.69,1686.38 1674.72,1686.38 1678.74,1686.38 1682.77,1686.38 1686.79,1686.38 1690.82,1686.38 1694.84,1686.38 1698.87,1686.38 1702.89,1686.38 1706.92,1686.38 1710.94,1686.38 1714.97,1686.38 1718.99,1686.38 1723.02,1686.38 1727.04,1686.38 1731.07,1686.38 1735.09,1686.38 1739.12,1686.38 1743.14,1686.38 1747.17,1686.38 1751.19,1686.38 1755.22,1686.38 1759.24,1686.38 1763.27,1686.38 1767.29,1686.38 1771.32,1686.38 1775.34,1686.38 1779.37,1686.38 1783.39,1686.38 1787.42,1686.38 1791.45,1686.38 1795.47,1686.38 1799.5,1686.38 1803.52,1686.38 1807.55,1686.38 1811.57,1686.38 1815.6,1686.38 1819.62,1686.38 1823.65,1686.38 1827.67,1686.38 1831.7,1686.38 1835.72,1686.38 1839.75,1686.38 1843.77,1686.38 1847.8,1686.38 1851.82,1686.38 1855.85,1686.38 1859.87,1686.38 1863.9,1686.38 1867.92,1686.38 1871.95,1686.38 1875.97,1686.38 1880,1686.38 1884.02,1686.38 1888.05,1686.38 1892.07,1686.38 1896.1,1686.38 1900.12,1686.38 1904.15,1686.38 1908.18,1686.38 1912.2,1686.38 1916.23,1686.38 1920.25,1686.38 1924.28,1686.38 1928.3,1686.38 1932.33,1686.38 1936.35,1686.38 1940.38,1686.38 1944.4,1686.38 1948.43,1686.38 1952.45,1686.38 1956.48,1686.38 1960.5,1686.38 1964.53,1686.38 1968.55,1686.38 1972.58,1686.38 1976.6,1686.38 1980.63,1686.38 1984.65,1686.38 1988.68,1686.38 1992.7,1686.38 1996.73,1686.38 2000.75,1686.38 2004.78,1686.38 2008.8,1686.38 2012.83,1686.38 2016.85,1686.38 2020.88,1686.38 2024.91,1686.38 2028.93,1686.38 2032.96,1686.38 2036.98,1686.38 2041.01,1686.38 2045.03,1686.38 2049.06,1686.38 2053.08,1686.38 2057.11,1686.38 2061.13,1686.38 2065.16,1686.38 2069.18,1686.38 2073.21,1686.38 2077.23,1686.38 2081.26,1686.38 2085.28,1686.38 2089.31,1686.38 2093.33,1686.38 2097.36,1686.38 2101.38,1686.38 2105.41,1686.38 2109.43,1686.38 2113.46,1686.38 2117.48,1686.38 2121.51,1686.38 2125.53,1686.38 2129.56,1686.38 2133.58,1686.38 2137.61,1686.38 2141.63,1686.38 2145.66,1686.38 2149.69,1686.38 2153.71,1686.38 2157.74,1686.38 2161.76,1686.38 2165.79,1686.38 2169.81,1686.38 2173.84,1686.38 2177.86,1686.38 2181.89,1686.38 2185.91,1686.38 2189.94,1686.38 2193.96,1686.38 2197.99,1686.38 2202.01,1686.38 2206.04,1686.38 2210.06,1686.38 2214.09,1686.38 2218.11,1686.38 2222.14,1686.38 2226.16,1686.38 2230.19,1686.38 2234.21,1686.38 2238.24,1686.38 2242.26,1686.38 2246.29,1686.38 2250.31,1686.38 2254.34,1686.38 2258.36,1686.38 2262.39,1686.38 2266.42,1686.38 2270.44,1686.38 2274.47,1686.38 2278.49,1686.38 2282.52,1686.38 2286.54,1686.38 2290.57,1686.38 2294.59,1686.38 2298.62,1686.38 2302.64,1686.38 2306.67,1686.38 2310.69,1686.38 2314.72,1686.38 2318.74,1686.38 2322.77,1686.38 2326.79,1686.38 2330.82,1686.38 2334.84,1686.38 2338.87,1686.38 2342.89,1686.38 2346.92,1686.38 2350.94,1686.38 2354.97,1686.38 2358.99,1686.38 2363.02,1686.38 2367.04,1686.38 2371.07,1686.38 2375.09,1686.38 2379.12,1686.38 2383.15,1686.38 2387.17,1686.38 2391.2,1686.38 2395.22,1686.38 2399.25,1686.38 2403.27,1686.38 2407.3,1686.38 2411.32,1686.38 2415.35,1686.38 2419.37,1686.38 2423.4,1686.38 2427.42,1686.38 2431.45,1686.38 2435.47,1686.38 2439.5,1686.38 2443.52,1686.38 2447.55,1686.38 2451.57,1686.38 2455.6,1686.38 2459.62,1686.38 2463.65,1686.38 2467.67,1686.38 2471.7,1686.38 2475.72,1686.38 2479.75,1686.38 2483.77,1686.38 2487.8,1686.38 2491.82,1686.38 2495.85,1686.38 2499.87,1686.38 2503.9,1686.38 2507.93,1686.38 2511.95,1686.38 2515.98,1686.38 2520,1686.38 2524.03,1686.38 2528.05,1686.38 2532.08,1686.38 2536.1,1686.38 2540.13,1686.38 2544.15,1686.38 2548.18,1686.38 2552.2,1686.38 2556.23,1686.38 2560.25,1686.38 2564.28,1686.38 2568.3,1686.38 2572.33,1686.38 2576.35,1686.38 2580.38,1686.38 2584.4,1686.38 2588.43,1686.38 2592.45,1686.38 2596.48,1686.38 2600.5,1686.38 2604.53,1686.38 2608.55,1686.38 2612.58,1686.38 2616.6,1686.38 2620.63,1686.38 2624.66,1686.38 2628.68,1686.38 2632.71,1686.38 2636.73,1686.38 2640.76,1686.38 2644.78,1686.38 2648.81,1686.38 2652.83,1686.38 2656.86,1686.38 2660.88,1686.38 2664.91,1686.38 2668.93,1686.38 2672.96,1686.38 2676.98,1686.38 2681.01,1686.38 2685.03,1686.38 2689.06,1686.38 2693.08,1686.38 2697.11,1686.38 2701.13,1686.38 2705.16,1686.38 2709.18,1686.38 2713.21,1686.38 2717.23,1686.38 2721.26,1686.38 2725.28,1686.38 2729.31,1686.38 2733.33,1686.38 2737.36,1686.38 2741.39,1686.38 2745.41,1686.38 2749.44,1686.38 2753.46,1686.38 2757.49,1686.38 2761.51,1686.38 2765.54,1686.38 2769.56,1686.38 2773.59,1686.38 2777.61,1686.38 2781.64,1686.38 2785.66,1686.38 2789.69,1686.38 2793.71,1686.38 2797.74,1686.38 2801.76,1686.38 2805.79,1686.38 2809.81,1686.38 2813.84,1686.38 2817.86,1686.38 2821.89,1686.38 2825.91,1686.38 2829.94,1686.38 2833.96,1686.38 2837.99,1686.38 2842.01,1686.38 2846.04,1686.38 2850.06,1686.38 2854.09,1686.38 2858.12,1686.38 2862.14,1686.38 2866.17,1686.38 2870.19,1686.38 2874.22,1686.38 2878.24,1686.38 2882.27,1686.38 2886.29,1686.38 2890.32,1686.38 2894.34,1686.38 2898.37,1686.38 2902.39,1686.38 2906.42,1686.38 2910.44,1686.38 2914.47,1686.38 2918.49,1686.38 2922.52,1686.38 2926.54,1686.38 2930.57,1686.38 2934.59,1686.38 2938.62,1686.38 2942.64,1686.38 2946.67,1686.38 2950.69,1686.38 2954.72,1686.38 2958.74,1686.38 2962.77,1686.38 2966.79,1686.38 2970.82,1686.38 2974.84,1686.38 2978.87,1686.38 2982.9,1686.38 2986.92,1686.38 2990.95,1686.38 2994.97,1686.38 2999,1686.38 3003.02,1686.38 3007.05,1686.38 3011.07,1686.38 3015.1,1686.38 3019.12,1686.38 3023.15,1686.38 3027.17,1686.38 3031.2,1686.38 3035.22,1686.38 3039.25,1686.38 3043.27,1686.38 3047.3,1686.38 3051.32,1686.38 3055.35,1686.38 3059.37,1686.38 3063.4,1686.38 3067.42,1686.38 3071.45,1686.38 3075.47,1686.38 3079.5,1686.38 3083.52,1686.38 3087.55,1686.38 3091.57,1686.38 3095.6,1686.38 3099.63,1686.38 3103.65,1686.38 3107.68,1686.38 3111.7,1686.38 3115.73,1686.38 3119.75,1686.38 3123.78,1686.38 3127.8,1686.38 3131.83,1686.38 3135.85,1686.38 3139.88,1686.38 3143.9,1686.38 3147.93,1686.38 3151.95,1686.38 3155.98,1686.38 3160,1686.38 3164.03,1686.38 3168.05,1686.38 3172.08,1686.38 3176.1,1686.38 3180.13,1686.38 3184.15,1686.38 3188.18,1686.38 3192.2,1686.38 3196.23,1686.38 3200.25,1686.38 3204.28,1686.38 3208.3,1686.38 3212.33,1686.38 3216.36,1686.38 3220.38,1686.38 3224.41,1686.38 3228.43,1686.38 3232.46,1686.38 3236.48,1686.38 3240.51,1686.38 3244.53,1686.38 3248.56,1686.38 3252.58,1686.38 3256.61,1686.38 3260.63,1686.38 3264.66,1686.38 3268.68,1686.38 3272.71,1686.38 3276.73,1686.38 3280.76,1686.38 3284.78,1686.38 3288.81,1686.38 3292.83,1686.38 3296.86,1686.38 3300.88,1686.38 3304.91,1686.38 3308.93,1686.38 3312.96,1686.38 3316.98,1686.38 3321.01,1686.38 3325.03,1686.38 3329.06,1686.38 3333.08,1686.38 3337.11,1686.38 3341.14,1686.38 3345.16,1686.38 3349.19,1686.38 3353.21,1686.38 3357.24,1686.38 3361.26,1686.38 3365.29,1686.38 3369.31,1686.38 3373.34,1686.38 3377.36,1686.38 3381.39,1686.38 3385.41,1686.38 3389.44,1686.38 3393.46,1686.38 3397.49,1686.38 3401.51,1686.38 3405.54,1686.38 3409.56,1686.38 3413.59,1686.38 3417.61,1686.38 3421.64,1686.38 3425.66,1686.38 3429.69,1686.38 3433.71,1686.38 3437.74,1686.38 3441.76,1686.38 3445.79,1686.38 3449.81,1686.38 3453.84,1686.38 3457.87,1686.38 3461.89,1686.38 3465.92,1686.38 3469.94,1686.38 3473.97,1686.38 3477.99,1686.38 3482.02,1686.38 3486.04,1686.38 3490.07,1686.38 3494.09,1686.38 3498.12,1686.38 3502.14,1686.38 3506.17,1686.38 3510.19,1686.38 3514.22,1686.38 3518.24,1686.38 3522.27,1686.38 3526.29,1686.38 3530.32,1686.38 3534.34,1686.38 3538.37,1686.38 3542.39,1686.38 3546.42,1686.38 3550.44,1686.38 3554.47,1686.38 3558.49,1686.38 3562.52,1686.38 3566.54,1686.38 3570.57,1686.38 3574.6,1686.38 3578.62,1686.38 3582.65,1686.38 3586.67,1686.38 3590.7,1686.38 3594.72,1686.38 3598.75,1686.38 3602.77,1686.38 3606.8,1686.38 3610.82,1686.38 3614.85,1686.38 3618.87,1686.38 3622.9,1686.38 3626.92,1686.38 3630.95,1686.38 3634.97,1686.38 3639,1686.38 3643.02,1686.38 3647.05,1686.38 3651.07,1686.38 3655.1,1686.38 3659.12,1686.38 3663.15,1686.38 3667.17,1686.38 3671.2,1686.38 3675.22,1686.38 3679.25,1686.38 3683.27,1686.38 3687.3,1686.38 3691.33,1686.38 3695.35,1686.38 3699.38,1686.38 3703.4,1686.38 3707.43,1686.38 3711.45,1686.38 3715.48,1686.38 3719.5,1686.38 3723.53,1686.38 3727.55,1686.38 3731.58,1686.38 3735.6,1686.38 3739.63,1686.38 3743.65,1686.38 3747.68,1686.38 3751.7,1686.38 3755.73,1686.38 3759.75,1686.38 3763.78,1686.38 3767.8,1686.38 3771.83,1686.38 3775.85,1686.38 3779.88,1686.38 3783.9,1686.38 3787.93,1686.38 3791.95,1686.38 3795.98,1686.38 3800,1686.38 3804.03,1686.38 3808.05,1686.38 3812.08,1686.38 3816.11,1686.38 3820.13,1686.38 3824.16,1686.38 3828.18,1686.38 3832.21,1686.38 3836.23,1686.38 3840.26,1686.38 3844.28,1686.38 3848.31,1686.38 3852.33,1686.38 3856.36,1686.38 3860.38,1686.38 3864.41,1686.38 3868.43,1686.38 3872.46,1686.38 3876.48,1686.38 3880.51,1686.38 3884.53,1686.38 3888.56,1686.38 3892.58,1686.38 3896.61,1686.38 3900.63,1686.38 3904.66,1686.38 3908.68,1686.38 3912.71,1686.38 3916.73,1686.38 3920.76,1686.38 3924.78,1686.38 3928.81,1686.38 3932.84,1686.38 3936.86,1686.38 3940.89,1686.38 3944.91,1686.38 3948.94,1686.38 3952.96,1686.38 3956.99,1686.38 3961.01,1686.38 3965.04,1686.38 3969.06,1686.38 3973.09,1686.38 3977.11,1686.38 3981.14,1686.38 3985.16,1686.38 3989.19,1686.38 3993.21,1686.38 3997.24,1686.38 4001.26,1686.38 4005.29,1686.38 4009.31,1686.38 4013.34,1686.38 4017.36,1686.38 4021.39,1686.38 4025.41,1686.38 4029.44,1686.38 4033.46,1686.38 4037.49,1686.38 4041.51,1686.38 4045.54,1686.38 4049.57,1686.38 4053.59,1686.38 4057.62,1686.38 4061.64,1686.38 4065.67,1686.38 4069.69,1686.38 4073.72,1686.38 4077.74,1686.38 4081.77,1686.38 4085.79,1686.38 4089.82,1686.38 4093.84,1686.38 4097.87,1686.38 4101.89,1686.38 4105.92,1686.38 4109.94,1686.38 4113.97,1686.38 4117.99,1686.38 4122.02,1686.38 4126.04,1686.38 4130.07,1686.38 4134.09,1686.38 4138.12,1686.38 4142.14,1686.38 4146.17,1686.38 4150.19,1686.38 4154.22,1686.38 4158.24,1686.38 4162.27,1686.38 4166.29,1686.38 4170.32,1686.38 4174.35,1686.38 4178.37,1686.38 4182.4,1686.38 4186.42,1686.38 4190.45,1686.38 4194.47,1686.38 4198.5,1686.38 4202.52,1686.38 4206.55,1686.38 4210.57,1686.38 4214.6,1686.38 4218.62,1686.38 4222.65,1686.38 4226.67,1686.38 4230.7,1686.38 4234.72,1686.38 4238.75,1686.38 4242.77,1686.38 4246.8,1686.38 4250.82,1686.38 "/>
<polyline clip-path="url(#clip222)" style="stroke:#808080; stroke-linecap:round; stroke-linejoin:round; stroke-width:4; stroke-opacity:0.5; fill:none" points="1126.92,3420.99 1126.92,-1639.63 "/>
<polyline clip-path="url(#clip222)" style="stroke:#808080; stroke-linecap:round; stroke-linejoin:round; stroke-width:4; stroke-opacity:0.5; fill:none" points="-2189.45,882.643 5055.86,882.643 "/>
<path clip-path="url(#clip220)" d="M2031.54 310.833 L2560.25 310.833 L2560.25 103.473 L2031.54 103.473  Z" fill="#ffffff" fill-rule="evenodd" fill-opacity="1"/>
<polyline clip-path="url(#clip220)" style="stroke:#000000; stroke-linecap:round; stroke-linejoin:round; stroke-width:4; stroke-opacity:1; fill:none" points="2031.54,310.833 2560.25,310.833 2560.25,103.473 2031.54,103.473 2031.54,310.833 "/>
<polyline clip-path="url(#clip220)" style="stroke:#009af9; stroke-linecap:round; stroke-linejoin:round; stroke-width:4; stroke-opacity:1; fill:none" points="2058.38,155.313 2219.39,155.313 "/>
<path clip-path="url(#clip220)" d="M2262.61 156.39 Q2264.11 156.899 2265.53 158.565 Q2266.96 160.232 2268.4 163.149 L2273.14 172.593 L2268.12 172.593 L2263.7 163.727 Q2261.98 160.255 2260.36 159.121 Q2258.77 157.987 2255.99 157.987 L2250.9 157.987 L2250.9 172.593 L2246.22 172.593 L2246.22 138.033 L2256.78 138.033 Q2262.7 138.033 2265.62 140.51 Q2268.54 142.987 2268.54 147.987 Q2268.54 151.251 2267.01 153.403 Q2265.5 155.556 2262.61 156.39 M2250.9 141.876 L2250.9 154.144 L2256.78 154.144 Q2260.16 154.144 2261.87 152.593 Q2263.6 151.019 2263.6 147.987 Q2263.6 144.954 2261.87 143.427 Q2260.16 141.876 2256.78 141.876 L2250.9 141.876 Z" fill="#000000" fill-rule="nonzero" fill-opacity="1" /><path clip-path="url(#clip220)" d="M2279.97 153.959 L2279.97 158.079 L2285.5 158.079 L2285.5 159.931 L2279.97 159.931 L2279.97 167.802 Q2279.97 169.584 2280.53 170.093 Q2281.08 170.602 2282.75 170.602 L2285.5 170.602 L2285.5 172.593 L2282.75 172.593 Q2279.65 172.593 2278.47 171.552 Q2277.29 170.533 2277.29 167.802 L2277.29 159.931 L2275.32 159.931 L2275.32 158.079 L2277.29 158.079 L2277.29 153.959 L2279.97 153.959 Z" fill="#000000" fill-rule="nonzero" fill-opacity="1" /><polyline clip-path="url(#clip220)" style="stroke:#e26f46; stroke-linecap:round; stroke-linejoin:round; stroke-width:4; stroke-opacity:1; fill:none" points="2058.38,207.153 2219.39,207.153 "/>
<path clip-path="url(#clip220)" d="M2262.61 208.23 Q2264.11 208.739 2265.53 210.405 Q2266.96 212.072 2268.4 214.989 L2273.14 224.433 L2268.12 224.433 L2263.7 215.567 Q2261.98 212.095 2260.36 210.961 Q2258.77 209.827 2255.99 209.827 L2250.9 209.827 L2250.9 224.433 L2246.22 224.433 L2246.22 189.873 L2256.78 189.873 Q2262.7 189.873 2265.62 192.35 Q2268.54 194.827 2268.54 199.827 Q2268.54 203.091 2267.01 205.243 Q2265.5 207.396 2262.61 208.23 M2250.9 193.716 L2250.9 205.984 L2256.78 205.984 Q2260.16 205.984 2261.87 204.433 Q2263.6 202.859 2263.6 199.827 Q2263.6 196.794 2261.87 195.267 Q2260.16 193.716 2256.78 193.716 L2250.9 193.716 Z" fill="#000000" fill-rule="nonzero" fill-opacity="1" /><path clip-path="url(#clip220)" d="M2279.97 205.799 L2279.97 209.919 L2285.5 209.919 L2285.5 211.771 L2279.97 211.771 L2279.97 219.642 Q2279.97 221.424 2280.53 221.933 Q2281.08 222.442 2282.75 222.442 L2285.5 222.442 L2285.5 224.433 L2282.75 224.433 Q2279.65 224.433 2278.47 223.392 Q2277.29 222.373 2277.29 219.642 L2277.29 211.771 L2275.32 211.771 L2275.32 209.919 L2277.29 209.919 L2277.29 205.799 L2279.97 205.799 Z" fill="#000000" fill-rule="nonzero" fill-opacity="1" /><path clip-path="url(#clip220)" d="M2318.07 201.493 Q2314.65 201.493 2312.66 204.179 Q2310.66 206.841 2310.66 211.493 Q2310.66 216.146 2312.63 218.831 Q2314.62 221.493 2318.07 221.493 Q2321.47 221.493 2323.47 218.808 Q2325.46 216.123 2325.46 211.493 Q2325.46 206.887 2323.47 204.202 Q2321.47 201.493 2318.07 201.493 M2318.07 197.882 Q2323.63 197.882 2326.8 201.493 Q2329.97 205.105 2329.97 211.493 Q2329.97 217.859 2326.8 221.493 Q2323.63 225.104 2318.07 225.104 Q2312.49 225.104 2309.32 221.493 Q2306.17 217.859 2306.17 211.493 Q2306.17 205.105 2309.32 201.493 Q2312.49 197.882 2318.07 197.882 Z" fill="#000000" fill-rule="nonzero" fill-opacity="1" /><path clip-path="url(#clip220)" d="M2341.15 220.544 L2341.15 234.294 L2336.87 234.294 L2336.87 198.507 L2341.15 198.507 L2341.15 202.443 Q2342.49 200.128 2344.53 199.017 Q2346.59 197.882 2349.44 197.882 Q2354.16 197.882 2357.1 201.632 Q2360.06 205.382 2360.06 211.493 Q2360.06 217.605 2357.1 221.355 Q2354.16 225.104 2349.44 225.104 Q2346.59 225.104 2344.53 223.993 Q2342.49 222.859 2341.15 220.544 M2355.64 211.493 Q2355.64 206.794 2353.7 204.132 Q2351.78 201.447 2348.4 201.447 Q2345.02 201.447 2343.07 204.132 Q2341.15 206.794 2341.15 211.493 Q2341.15 216.192 2343.07 218.878 Q2345.02 221.54 2348.4 221.54 Q2351.78 221.54 2353.7 218.878 Q2355.64 216.192 2355.64 211.493 Z" fill="#000000" fill-rule="nonzero" fill-opacity="1" /><path clip-path="url(#clip220)" d="M2371.34 191.146 L2371.34 198.507 L2380.11 198.507 L2380.11 201.818 L2371.34 201.818 L2371.34 215.892 Q2371.34 219.063 2372.19 219.966 Q2373.07 220.868 2375.73 220.868 L2380.11 220.868 L2380.11 224.433 L2375.73 224.433 Q2370.8 224.433 2368.93 222.604 Q2367.05 220.753 2367.05 215.892 L2367.05 201.818 L2363.93 201.818 L2363.93 198.507 L2367.05 198.507 L2367.05 191.146 L2371.34 191.146 Z" fill="#000000" fill-rule="nonzero" fill-opacity="1" /><path clip-path="url(#clip220)" d="M2385.71 198.507 L2389.97 198.507 L2389.97 224.433 L2385.71 224.433 L2385.71 198.507 M2385.71 188.415 L2389.97 188.415 L2389.97 193.808 L2385.71 193.808 L2385.71 188.415 Z" fill="#000000" fill-rule="nonzero" fill-opacity="1" /><path clip-path="url(#clip220)" d="M2419.07 203.484 Q2420.66 200.614 2422.89 199.248 Q2425.11 197.882 2428.12 197.882 Q2432.17 197.882 2434.37 200.73 Q2436.57 203.554 2436.57 208.785 L2436.57 224.433 L2432.28 224.433 L2432.28 208.924 Q2432.28 205.197 2430.96 203.392 Q2429.65 201.586 2426.94 201.586 Q2423.63 201.586 2421.71 203.785 Q2419.78 205.984 2419.78 209.78 L2419.78 224.433 L2415.5 224.433 L2415.5 208.924 Q2415.5 205.174 2414.18 203.392 Q2412.86 201.586 2410.11 201.586 Q2406.84 201.586 2404.92 203.808 Q2403 206.007 2403 209.78 L2403 224.433 L2398.72 224.433 L2398.72 198.507 L2403 198.507 L2403 202.535 Q2404.46 200.151 2406.5 199.017 Q2408.53 197.882 2411.34 197.882 Q2414.16 197.882 2416.13 199.318 Q2418.12 200.753 2419.07 203.484 Z" fill="#000000" fill-rule="nonzero" fill-opacity="1" /><path clip-path="url(#clip220)" d="M2445.06 198.507 L2449.32 198.507 L2449.32 224.433 L2445.06 224.433 L2445.06 198.507 M2445.06 188.415 L2449.32 188.415 L2449.32 193.808 L2445.06 193.808 L2445.06 188.415 Z" fill="#000000" fill-rule="nonzero" fill-opacity="1" /><path clip-path="url(#clip220)" d="M2474.76 199.271 L2474.76 203.299 Q2472.96 202.373 2471.01 201.91 Q2469.07 201.447 2466.98 201.447 Q2463.81 201.447 2462.21 202.419 Q2460.64 203.392 2460.64 205.336 Q2460.64 206.818 2461.77 207.674 Q2462.91 208.507 2466.34 209.271 L2467.79 209.595 Q2472.33 210.568 2474.23 212.35 Q2476.15 214.109 2476.15 217.28 Q2476.15 220.892 2473.28 222.998 Q2470.43 225.104 2465.43 225.104 Q2463.35 225.104 2461.08 224.688 Q2458.84 224.294 2456.34 223.484 L2456.34 219.086 Q2458.7 220.313 2460.99 220.938 Q2463.28 221.54 2465.52 221.54 Q2468.53 221.54 2470.15 220.521 Q2471.77 219.48 2471.77 217.605 Q2471.77 215.868 2470.59 214.943 Q2469.44 214.017 2465.48 213.16 L2464 212.813 Q2460.04 211.98 2458.28 210.267 Q2456.52 208.53 2456.52 205.521 Q2456.52 201.864 2459.11 199.873 Q2461.71 197.882 2466.47 197.882 Q2468.84 197.882 2470.92 198.23 Q2473 198.577 2474.76 199.271 Z" fill="#000000" fill-rule="nonzero" fill-opacity="1" /><path clip-path="url(#clip220)" d="M2505.11 210.405 L2505.11 212.489 L2485.52 212.489 Q2485.8 216.887 2488.16 219.202 Q2490.55 221.493 2494.78 221.493 Q2497.24 221.493 2499.53 220.892 Q2501.84 220.29 2504.11 219.086 L2504.11 223.114 Q2501.82 224.086 2499.41 224.595 Q2497.01 225.104 2494.53 225.104 Q2488.33 225.104 2484.69 221.493 Q2481.08 217.882 2481.08 211.725 Q2481.08 205.359 2484.51 201.632 Q2487.96 197.882 2493.79 197.882 Q2499.02 197.882 2502.05 201.262 Q2505.11 204.618 2505.11 210.405 M2500.85 209.155 Q2500.8 205.66 2498.88 203.577 Q2496.98 201.493 2493.83 201.493 Q2490.27 201.493 2488.12 203.507 Q2485.99 205.521 2485.66 209.179 L2500.85 209.155 Z" fill="#000000" fill-rule="nonzero" fill-opacity="1" /><path clip-path="url(#clip220)" d="M2529.16 202.443 L2529.16 188.415 L2533.42 188.415 L2533.42 224.433 L2529.16 224.433 L2529.16 220.544 Q2527.82 222.859 2525.76 223.993 Q2523.72 225.104 2520.85 225.104 Q2516.15 225.104 2513.19 221.355 Q2510.25 217.605 2510.25 211.493 Q2510.25 205.382 2513.19 201.632 Q2516.15 197.882 2520.85 197.882 Q2523.72 197.882 2525.76 199.017 Q2527.82 200.128 2529.16 202.443 M2514.65 211.493 Q2514.65 216.192 2516.57 218.878 Q2518.51 221.54 2521.89 221.54 Q2525.27 221.54 2527.21 218.878 Q2529.16 216.192 2529.16 211.493 Q2529.16 206.794 2527.21 204.132 Q2525.27 201.447 2521.89 201.447 Q2518.51 201.447 2516.57 204.132 Q2514.65 206.794 2514.65 211.493 Z" fill="#000000" fill-rule="nonzero" fill-opacity="1" /><polyline clip-path="url(#clip220)" style="stroke:#3da44d; stroke-linecap:round; stroke-linejoin:round; stroke-width:4; stroke-opacity:1; fill:none" points="2058.38,258.993 2219.39,258.993 "/>
<path clip-path="url(#clip220)" d="M2262.24 244.884 Q2257.15 244.884 2254.14 248.681 Q2251.15 252.477 2251.15 259.028 Q2251.15 265.556 2254.14 269.352 Q2257.15 273.148 2262.24 273.148 Q2267.33 273.148 2270.29 269.352 Q2273.28 265.556 2273.28 259.028 Q2273.28 252.477 2270.29 248.681 Q2267.33 244.884 2262.24 244.884 M2262.24 241.088 Q2269.51 241.088 2273.86 245.972 Q2278.21 250.834 2278.21 259.028 Q2278.21 267.199 2273.86 272.083 Q2269.51 276.944 2262.24 276.944 Q2254.95 276.944 2250.57 272.083 Q2246.22 267.222 2246.22 259.028 Q2246.22 250.834 2250.57 245.972 Q2254.95 241.088 2262.24 241.088 Z" fill="#000000" fill-rule="nonzero" fill-opacity="1" /><path clip-path="url(#clip220)" d="M2289.46 272.384 L2289.46 286.134 L2285.18 286.134 L2285.18 250.347 L2289.46 250.347 L2289.46 254.283 Q2290.8 251.968 2292.84 250.857 Q2294.9 249.722 2297.75 249.722 Q2302.47 249.722 2305.41 253.472 Q2308.37 257.222 2308.37 263.333 Q2308.37 269.445 2305.41 273.195 Q2302.47 276.944 2297.75 276.944 Q2294.9 276.944 2292.84 275.833 Q2290.8 274.699 2289.46 272.384 M2303.95 263.333 Q2303.95 258.634 2302.01 255.972 Q2300.09 253.287 2296.71 253.287 Q2293.33 253.287 2291.38 255.972 Q2289.46 258.634 2289.46 263.333 Q2289.46 268.032 2291.38 270.718 Q2293.33 273.38 2296.71 273.38 Q2300.09 273.38 2302.01 270.718 Q2303.95 268.032 2303.95 263.333 Z" fill="#000000" fill-rule="nonzero" fill-opacity="1" /><path clip-path="url(#clip220)" d="M2319.65 242.986 L2319.65 250.347 L2328.42 250.347 L2328.42 253.658 L2319.65 253.658 L2319.65 267.732 Q2319.65 270.903 2320.5 271.806 Q2321.38 272.708 2324.04 272.708 L2328.42 272.708 L2328.42 276.273 L2324.04 276.273 Q2319.11 276.273 2317.24 274.444 Q2315.36 272.593 2315.36 267.732 L2315.36 253.658 L2312.24 253.658 L2312.24 250.347 L2315.36 250.347 L2315.36 242.986 L2319.65 242.986 Z" fill="#000000" fill-rule="nonzero" fill-opacity="1" /><path clip-path="url(#clip220)" d="M2334.02 250.347 L2338.28 250.347 L2338.28 276.273 L2334.02 276.273 L2334.02 250.347 M2334.02 240.255 L2338.28 240.255 L2338.28 245.648 L2334.02 245.648 L2334.02 240.255 Z" fill="#000000" fill-rule="nonzero" fill-opacity="1" /><path clip-path="url(#clip220)" d="M2367.38 255.324 Q2368.97 252.454 2371.2 251.088 Q2373.42 249.722 2376.43 249.722 Q2380.48 249.722 2382.68 252.57 Q2384.88 255.394 2384.88 260.625 L2384.88 276.273 L2380.59 276.273 L2380.59 260.764 Q2380.59 257.037 2379.28 255.232 Q2377.96 253.426 2375.25 253.426 Q2371.94 253.426 2370.02 255.625 Q2368.09 257.824 2368.09 261.62 L2368.09 276.273 L2363.81 276.273 L2363.81 260.764 Q2363.81 257.014 2362.49 255.232 Q2361.17 253.426 2358.42 253.426 Q2355.16 253.426 2353.23 255.648 Q2351.31 257.847 2351.31 261.62 L2351.31 276.273 L2347.03 276.273 L2347.03 250.347 L2351.31 250.347 L2351.31 254.375 Q2352.77 251.991 2354.81 250.857 Q2356.84 249.722 2359.65 249.722 Q2362.47 249.722 2364.44 251.158 Q2366.43 252.593 2367.38 255.324 Z" fill="#000000" fill-rule="nonzero" fill-opacity="1" /><path clip-path="url(#clip220)" d="M2393.37 250.347 L2397.63 250.347 L2397.63 276.273 L2393.37 276.273 L2393.37 250.347 M2393.37 240.255 L2397.63 240.255 L2397.63 245.648 L2393.37 245.648 L2393.37 240.255 Z" fill="#000000" fill-rule="nonzero" fill-opacity="1" /><path clip-path="url(#clip220)" d="M2404.69 250.347 L2424.92 250.347 L2424.92 254.236 L2408.9 272.87 L2424.92 272.87 L2424.92 276.273 L2404.11 276.273 L2404.11 272.384 L2420.13 253.75 L2404.69 253.75 L2404.69 250.347 Z" fill="#000000" fill-rule="nonzero" fill-opacity="1" /><path clip-path="url(#clip220)" d="M2453.6 262.245 L2453.6 264.329 L2434.02 264.329 Q2434.3 268.727 2436.66 271.042 Q2439.04 273.333 2443.28 273.333 Q2445.73 273.333 2448.03 272.732 Q2450.34 272.13 2452.61 270.926 L2452.61 274.954 Q2450.32 275.926 2447.91 276.435 Q2445.5 276.944 2443.03 276.944 Q2436.82 276.944 2433.19 273.333 Q2429.58 269.722 2429.58 263.565 Q2429.58 257.199 2433 253.472 Q2436.45 249.722 2442.28 249.722 Q2447.52 249.722 2450.55 253.102 Q2453.6 256.458 2453.6 262.245 M2449.34 260.995 Q2449.3 257.5 2447.38 255.417 Q2445.48 253.333 2442.33 253.333 Q2438.77 253.333 2436.61 255.347 Q2434.48 257.361 2434.16 261.019 L2449.34 260.995 Z" fill="#000000" fill-rule="nonzero" fill-opacity="1" /><path clip-path="url(#clip220)" d="M2477.65 254.283 L2477.65 240.255 L2481.91 240.255 L2481.91 276.273 L2477.65 276.273 L2477.65 272.384 Q2476.31 274.699 2474.25 275.833 Q2472.21 276.944 2469.34 276.944 Q2464.65 276.944 2461.68 273.195 Q2458.74 269.445 2458.74 263.333 Q2458.74 257.222 2461.68 253.472 Q2464.65 249.722 2469.34 249.722 Q2472.21 249.722 2474.25 250.857 Q2476.31 251.968 2477.65 254.283 M2463.14 263.333 Q2463.14 268.032 2465.06 270.718 Q2467.01 273.38 2470.39 273.38 Q2473.77 273.38 2475.71 270.718 Q2477.65 268.032 2477.65 263.333 Q2477.65 258.634 2475.71 255.972 Q2473.77 253.287 2470.39 253.287 Q2467.01 253.287 2465.06 255.972 Q2463.14 258.634 2463.14 263.333 Z" fill="#000000" fill-rule="nonzero" fill-opacity="1" /><path clip-path="url(#clip220)" d="M2509.11 250.347 L2509.11 267.13 Q2509.11 270.255 2510.27 271.736 Q2511.54 273.333 2514.02 273.333 Q2517.49 273.333 2519.92 268.519 Q2521.29 265.787 2521.64 261.458 Q2521.82 259.097 2521.13 256.134 Q2520.48 253.38 2518.02 250.347 L2522.33 250.347 L2522.33 250.347 Q2523.95 252.431 2524.99 255.278 Q2525.96 257.94 2525.96 261.505 Q2525.96 267.361 2523 271.69 Q2519.39 276.968 2513.51 276.944 Q2509.37 276.944 2507.03 274.167 Q2504.76 271.435 2504.76 266.875 L2504.74 250.347 L2509.11 250.347 Z" fill="#000000" fill-rule="nonzero" fill-opacity="1" /></svg>
