<?xml version="1.0" encoding="utf-8"?>
<svg xmlns="http://www.w3.org/2000/svg" xmlns:xlink="http://www.w3.org/1999/xlink" width="528" height="336" viewBox="0 0 2112 1344">
<defs>
  <clipPath id="clip920">
    <rect x="0" y="0" width="2112" height="1344"/>
  </clipPath>
</defs>
<path clip-path="url(#clip920)" d="M0 1344 L2112 1344 L2112 2.13163e-14 L0 2.13163e-14  Z" fill="#ffffff" fill-rule="evenodd" fill-opacity="1"/>
<defs>
  <clipPath id="clip921">
    <rect x="422" y="0" width="1479" height="1344"/>
  </clipPath>
</defs>
<path clip-path="url(#clip920)" d="M244.502 1173.47 L2064.76 1173.47 L2064.76 47.2441 L244.502 47.2441  Z" fill="#ffffff" fill-rule="evenodd" fill-opacity="1"/>
<defs>
  <clipPath id="clip922">
    <rect x="244" y="47" width="1821" height="1127"/>
  </clipPath>
</defs>
<polyline clip-path="url(#clip922)" style="stroke:#000000; stroke-linecap:round; stroke-linejoin:round; stroke-width:2; stroke-opacity:0.1; fill:none" points="244.502,1173.47 244.502,47.2441 "/>
<polyline clip-path="url(#clip922)" style="stroke:#000000; stroke-linecap:round; stroke-linejoin:round; stroke-width:2; stroke-opacity:0.1; fill:none" points="608.553,1173.47 608.553,47.2441 "/>
<polyline clip-path="url(#clip922)" style="stroke:#000000; stroke-linecap:round; stroke-linejoin:round; stroke-width:2; stroke-opacity:0.1; fill:none" points="972.604,1173.47 972.604,47.2441 "/>
<polyline clip-path="url(#clip922)" style="stroke:#000000; stroke-linecap:round; stroke-linejoin:round; stroke-width:2; stroke-opacity:0.1; fill:none" points="1336.65,1173.47 1336.65,47.2441 "/>
<polyline clip-path="url(#clip922)" style="stroke:#000000; stroke-linecap:round; stroke-linejoin:round; stroke-width:2; stroke-opacity:0.1; fill:none" points="1700.71,1173.47 1700.71,47.2441 "/>
<polyline clip-path="url(#clip922)" style="stroke:#000000; stroke-linecap:round; stroke-linejoin:round; stroke-width:2; stroke-opacity:0.1; fill:none" points="2064.76,1173.47 2064.76,47.2441 "/>
<polyline clip-path="url(#clip922)" style="stroke:#000000; stroke-linecap:round; stroke-linejoin:round; stroke-width:2; stroke-opacity:0.1; fill:none" points="244.502,1141.6 2064.76,1141.6 "/>
<polyline clip-path="url(#clip922)" style="stroke:#000000; stroke-linecap:round; stroke-linejoin:round; stroke-width:2; stroke-opacity:0.1; fill:none" points="244.502,873.294 2064.76,873.294 "/>
<polyline clip-path="url(#clip922)" style="stroke:#000000; stroke-linecap:round; stroke-linejoin:round; stroke-width:2; stroke-opacity:0.1; fill:none" points="244.502,604.991 2064.76,604.991 "/>
<polyline clip-path="url(#clip922)" style="stroke:#000000; stroke-linecap:round; stroke-linejoin:round; stroke-width:2; stroke-opacity:0.1; fill:none" points="244.502,336.689 2064.76,336.689 "/>
<polyline clip-path="url(#clip922)" style="stroke:#000000; stroke-linecap:round; stroke-linejoin:round; stroke-width:2; stroke-opacity:0.1; fill:none" points="244.502,68.3863 2064.76,68.3863 "/>
<polyline clip-path="url(#clip920)" style="stroke:#000000; stroke-linecap:round; stroke-linejoin:round; stroke-width:4; stroke-opacity:1; fill:none" points="244.502,1173.47 2064.76,1173.47 "/>
<polyline clip-path="url(#clip920)" style="stroke:#000000; stroke-linecap:round; stroke-linejoin:round; stroke-width:4; stroke-opacity:1; fill:none" points="244.502,1173.47 244.502,1154.57 "/>
<polyline clip-path="url(#clip920)" style="stroke:#000000; stroke-linecap:round; stroke-linejoin:round; stroke-width:4; stroke-opacity:1; fill:none" points="608.553,1173.47 608.553,1154.57 "/>
<polyline clip-path="url(#clip920)" style="stroke:#000000; stroke-linecap:round; stroke-linejoin:round; stroke-width:4; stroke-opacity:1; fill:none" points="972.604,1173.47 972.604,1154.57 "/>
<polyline clip-path="url(#clip920)" style="stroke:#000000; stroke-linecap:round; stroke-linejoin:round; stroke-width:4; stroke-opacity:1; fill:none" points="1336.65,1173.47 1336.65,1154.57 "/>
<polyline clip-path="url(#clip920)" style="stroke:#000000; stroke-linecap:round; stroke-linejoin:round; stroke-width:4; stroke-opacity:1; fill:none" points="1700.71,1173.47 1700.71,1154.57 "/>
<polyline clip-path="url(#clip920)" style="stroke:#000000; stroke-linecap:round; stroke-linejoin:round; stroke-width:4; stroke-opacity:1; fill:none" points="2064.76,1173.47 2064.76,1154.57 "/>
<path clip-path="url(#clip920)" d="M244.502 1202.09 Q240.891 1202.09 239.062 1205.65 Q237.257 1209.19 237.257 1216.32 Q237.257 1223.43 239.062 1226.99 Q240.891 1230.53 244.502 1230.53 Q248.136 1230.53 249.942 1226.99 Q251.771 1223.43 251.771 1216.32 Q251.771 1209.19 249.942 1205.65 Q248.136 1202.09 244.502 1202.09 M244.502 1198.38 Q250.312 1198.38 253.368 1202.99 Q256.446 1207.57 256.446 1216.32 Q256.446 1225.05 253.368 1229.65 Q250.312 1234.24 244.502 1234.24 Q238.692 1234.24 235.613 1229.65 Q232.558 1225.05 232.558 1216.32 Q232.558 1207.57 235.613 1202.99 Q238.692 1198.38 244.502 1198.38 Z" fill="#000000" fill-rule="nonzero" fill-opacity="1" /><path clip-path="url(#clip920)" d="M587.326 1229.63 L603.645 1229.63 L603.645 1233.57 L581.701 1233.57 L581.701 1229.63 Q584.363 1226.88 588.946 1222.25 Q593.553 1217.59 594.733 1216.25 Q596.979 1213.73 597.858 1211.99 Q598.761 1210.23 598.761 1208.54 Q598.761 1205.79 596.817 1204.05 Q594.895 1202.32 591.794 1202.32 Q589.595 1202.32 587.141 1203.08 Q584.71 1203.84 581.933 1205.4 L581.933 1200.67 Q584.757 1199.54 587.21 1198.96 Q589.664 1198.38 591.701 1198.38 Q597.071 1198.38 600.266 1201.07 Q603.46 1203.75 603.46 1208.24 Q603.46 1210.37 602.65 1212.29 Q601.863 1214.19 599.757 1216.78 Q599.178 1217.46 596.076 1220.67 Q592.974 1223.87 587.326 1229.63 Z" fill="#000000" fill-rule="nonzero" fill-opacity="1" /><path clip-path="url(#clip920)" d="M623.46 1202.09 Q619.849 1202.09 618.02 1205.65 Q616.215 1209.19 616.215 1216.32 Q616.215 1223.43 618.02 1226.99 Q619.849 1230.53 623.46 1230.53 Q627.094 1230.53 628.9 1226.99 Q630.729 1223.43 630.729 1216.32 Q630.729 1209.19 628.9 1205.65 Q627.094 1202.09 623.46 1202.09 M623.46 1198.38 Q629.27 1198.38 632.326 1202.99 Q635.405 1207.57 635.405 1216.32 Q635.405 1225.05 632.326 1229.65 Q629.27 1234.24 623.46 1234.24 Q617.65 1234.24 614.571 1229.65 Q611.516 1225.05 611.516 1216.32 Q611.516 1207.57 614.571 1202.99 Q617.65 1198.38 623.46 1198.38 Z" fill="#000000" fill-rule="nonzero" fill-opacity="1" /><path clip-path="url(#clip920)" d="M960.775 1203.08 L948.969 1221.53 L960.775 1221.53 L960.775 1203.08 M959.548 1199.01 L965.428 1199.01 L965.428 1221.53 L970.358 1221.53 L970.358 1225.42 L965.428 1225.42 L965.428 1233.57 L960.775 1233.57 L960.775 1225.42 L945.173 1225.42 L945.173 1220.9 L959.548 1199.01 Z" fill="#000000" fill-rule="nonzero" fill-opacity="1" /><path clip-path="url(#clip920)" d="M988.09 1202.09 Q984.479 1202.09 982.65 1205.65 Q980.844 1209.19 980.844 1216.32 Q980.844 1223.43 982.65 1226.99 Q984.479 1230.53 988.09 1230.53 Q991.724 1230.53 993.529 1226.99 Q995.358 1223.43 995.358 1216.32 Q995.358 1209.19 993.529 1205.65 Q991.724 1202.09 988.09 1202.09 M988.09 1198.38 Q993.9 1198.38 996.955 1202.99 Q1000.03 1207.57 1000.03 1216.32 Q1000.03 1225.05 996.955 1229.65 Q993.9 1234.24 988.09 1234.24 Q982.279 1234.24 979.201 1229.65 Q976.145 1225.05 976.145 1216.32 Q976.145 1207.57 979.201 1202.99 Q982.279 1198.38 988.09 1198.38 Z" fill="#000000" fill-rule="nonzero" fill-opacity="1" /><path clip-path="url(#clip920)" d="M1322.06 1214.42 Q1318.91 1214.42 1317.06 1216.58 Q1315.23 1218.73 1315.23 1222.48 Q1315.23 1226.21 1317.06 1228.38 Q1318.91 1230.53 1322.06 1230.53 Q1325.21 1230.53 1327.04 1228.38 Q1328.89 1226.21 1328.89 1222.48 Q1328.89 1218.73 1327.04 1216.58 Q1325.21 1214.42 1322.06 1214.42 M1331.34 1199.77 L1331.34 1204.03 Q1329.58 1203.2 1327.78 1202.76 Q1325.99 1202.32 1324.24 1202.32 Q1319.61 1202.32 1317.15 1205.44 Q1314.72 1208.57 1314.37 1214.89 Q1315.74 1212.87 1317.8 1211.81 Q1319.86 1210.72 1322.34 1210.72 Q1327.55 1210.72 1330.55 1213.89 Q1333.59 1217.04 1333.59 1222.48 Q1333.59 1227.8 1330.44 1231.02 Q1327.29 1234.24 1322.06 1234.24 Q1316.06 1234.24 1312.89 1229.65 Q1309.72 1225.05 1309.72 1216.32 Q1309.72 1208.13 1313.61 1203.27 Q1317.5 1198.38 1324.05 1198.38 Q1325.81 1198.38 1327.59 1198.73 Q1329.4 1199.08 1331.34 1199.77 Z" fill="#000000" fill-rule="nonzero" fill-opacity="1" /><path clip-path="url(#clip920)" d="M1351.64 1202.09 Q1348.03 1202.09 1346.2 1205.65 Q1344.4 1209.19 1344.4 1216.32 Q1344.4 1223.43 1346.2 1226.99 Q1348.03 1230.53 1351.64 1230.53 Q1355.28 1230.53 1357.08 1226.99 Q1358.91 1223.43 1358.91 1216.32 Q1358.91 1209.19 1357.08 1205.65 Q1355.28 1202.09 1351.64 1202.09 M1351.64 1198.38 Q1357.45 1198.38 1360.51 1202.99 Q1363.59 1207.57 1363.59 1216.32 Q1363.59 1225.05 1360.51 1229.65 Q1357.45 1234.24 1351.64 1234.24 Q1345.83 1234.24 1342.75 1229.65 Q1339.7 1225.05 1339.7 1216.32 Q1339.7 1207.57 1342.75 1202.99 Q1345.83 1198.38 1351.64 1198.38 Z" fill="#000000" fill-rule="nonzero" fill-opacity="1" /><path clip-path="url(#clip920)" d="M1685.58 1217.15 Q1682.24 1217.15 1680.32 1218.94 Q1678.43 1220.72 1678.43 1223.84 Q1678.43 1226.97 1680.32 1228.75 Q1682.24 1230.53 1685.58 1230.53 Q1688.91 1230.53 1690.83 1228.75 Q1692.75 1226.95 1692.75 1223.84 Q1692.75 1220.72 1690.83 1218.94 Q1688.93 1217.15 1685.58 1217.15 M1680.9 1215.16 Q1677.89 1214.42 1676.2 1212.36 Q1674.54 1210.3 1674.54 1207.34 Q1674.54 1203.2 1677.48 1200.79 Q1680.44 1198.38 1685.58 1198.38 Q1690.74 1198.38 1693.68 1200.79 Q1696.62 1203.2 1696.62 1207.34 Q1696.62 1210.3 1694.93 1212.36 Q1693.26 1214.42 1690.28 1215.16 Q1693.66 1215.95 1695.53 1218.24 Q1697.43 1220.53 1697.43 1223.84 Q1697.43 1228.87 1694.35 1231.55 Q1691.3 1234.24 1685.58 1234.24 Q1679.86 1234.24 1676.78 1231.55 Q1673.73 1228.87 1673.73 1223.84 Q1673.73 1220.53 1675.62 1218.24 Q1677.52 1215.95 1680.9 1215.16 M1679.19 1207.78 Q1679.19 1210.47 1680.86 1211.97 Q1682.55 1213.47 1685.58 1213.47 Q1688.59 1213.47 1690.28 1211.97 Q1691.99 1210.47 1691.99 1207.78 Q1691.99 1205.09 1690.28 1203.59 Q1688.59 1202.09 1685.58 1202.09 Q1682.55 1202.09 1680.86 1203.59 Q1679.19 1205.09 1679.19 1207.78 Z" fill="#000000" fill-rule="nonzero" fill-opacity="1" /><path clip-path="url(#clip920)" d="M1715.74 1202.09 Q1712.13 1202.09 1710.3 1205.65 Q1708.49 1209.19 1708.49 1216.32 Q1708.49 1223.43 1710.3 1226.99 Q1712.13 1230.53 1715.74 1230.53 Q1719.37 1230.53 1721.18 1226.99 Q1723.01 1223.43 1723.01 1216.32 Q1723.01 1209.19 1721.18 1205.65 Q1719.37 1202.09 1715.74 1202.09 M1715.74 1198.38 Q1721.55 1198.38 1724.61 1202.99 Q1727.68 1207.57 1727.68 1216.32 Q1727.68 1225.05 1724.61 1229.65 Q1721.55 1234.24 1715.74 1234.24 Q1709.93 1234.24 1706.85 1229.65 Q1703.8 1225.05 1703.8 1216.32 Q1703.8 1207.57 1706.85 1202.99 Q1709.93 1198.38 1715.74 1198.38 Z" fill="#000000" fill-rule="nonzero" fill-opacity="1" /><path clip-path="url(#clip920)" d="M2024.36 1229.63 L2032 1229.63 L2032 1203.27 L2023.69 1204.93 L2023.69 1200.67 L2031.96 1199.01 L2036.63 1199.01 L2036.63 1229.63 L2044.27 1229.63 L2044.27 1233.57 L2024.36 1233.57 L2024.36 1229.63 Z" fill="#000000" fill-rule="nonzero" fill-opacity="1" /><path clip-path="url(#clip920)" d="M2063.71 1202.09 Q2060.1 1202.09 2058.27 1205.65 Q2056.47 1209.19 2056.47 1216.32 Q2056.47 1223.43 2058.27 1226.99 Q2060.1 1230.53 2063.71 1230.53 Q2067.35 1230.53 2069.15 1226.99 Q2070.98 1223.43 2070.98 1216.32 Q2070.98 1209.19 2069.15 1205.65 Q2067.35 1202.09 2063.71 1202.09 M2063.71 1198.38 Q2069.52 1198.38 2072.58 1202.99 Q2075.66 1207.57 2075.66 1216.32 Q2075.66 1225.05 2072.58 1229.65 Q2069.52 1234.24 2063.71 1234.24 Q2057.9 1234.24 2054.83 1229.65 Q2051.77 1225.05 2051.77 1216.32 Q2051.77 1207.57 2054.83 1202.99 Q2057.9 1198.38 2063.71 1198.38 Z" fill="#000000" fill-rule="nonzero" fill-opacity="1" /><path clip-path="url(#clip920)" d="M2093.88 1202.09 Q2090.27 1202.09 2088.44 1205.65 Q2086.63 1209.19 2086.63 1216.32 Q2086.63 1223.43 2088.44 1226.99 Q2090.27 1230.53 2093.88 1230.53 Q2097.51 1230.53 2099.32 1226.99 Q2101.14 1223.43 2101.14 1216.32 Q2101.14 1209.19 2099.32 1205.65 Q2097.51 1202.09 2093.88 1202.09 M2093.88 1198.38 Q2099.69 1198.38 2102.74 1202.99 Q2105.82 1207.57 2105.82 1216.32 Q2105.82 1225.05 2102.74 1229.65 Q2099.69 1234.24 2093.88 1234.24 Q2088.07 1234.24 2084.99 1229.65 Q2081.93 1225.05 2081.93 1216.32 Q2081.93 1207.57 2084.99 1202.99 Q2088.07 1198.38 2093.88 1198.38 Z" fill="#000000" fill-rule="nonzero" fill-opacity="1" /><path clip-path="url(#clip920)" d="M964.851 1266.49 L1005.05 1266.49 L1005.05 1271.91 L988.182 1271.91 L988.182 1314.01 L981.72 1314.01 L981.72 1271.91 L964.851 1271.91 L964.851 1266.49 Z" fill="#000000" fill-rule="nonzero" fill-opacity="1" /><path clip-path="url(#clip920)" d="M1009 1278.37 L1014.85 1278.37 L1014.85 1314.01 L1009 1314.01 L1009 1278.37 M1009 1264.49 L1014.85 1264.49 L1014.85 1271.91 L1009 1271.91 L1009 1264.49 Z" fill="#000000" fill-rule="nonzero" fill-opacity="1" /><path clip-path="url(#clip920)" d="M1054.86 1285.21 Q1057.06 1281.26 1060.11 1279.39 Q1063.17 1277.51 1067.31 1277.51 Q1072.88 1277.51 1075.9 1281.42 Q1078.92 1285.31 1078.92 1292.5 L1078.92 1314.01 L1073.04 1314.01 L1073.04 1292.69 Q1073.04 1287.57 1071.22 1285.08 Q1069.41 1282.6 1065.68 1282.6 Q1061.13 1282.6 1058.49 1285.62 Q1055.85 1288.65 1055.85 1293.87 L1055.85 1314.01 L1049.96 1314.01 L1049.96 1292.69 Q1049.96 1287.53 1048.15 1285.08 Q1046.33 1282.6 1042.54 1282.6 Q1038.06 1282.6 1035.42 1285.66 Q1032.77 1288.68 1032.77 1293.87 L1032.77 1314.01 L1026.89 1314.01 L1026.89 1278.37 L1032.77 1278.37 L1032.77 1283.9 Q1034.78 1280.63 1037.58 1279.07 Q1040.38 1277.51 1044.23 1277.51 Q1048.11 1277.51 1050.82 1279.48 Q1053.56 1281.45 1054.86 1285.21 Z" fill="#000000" fill-rule="nonzero" fill-opacity="1" /><path clip-path="url(#clip920)" d="M1121.1 1294.73 L1121.1 1297.59 L1094.17 1297.59 Q1094.55 1303.64 1097.8 1306.82 Q1101.08 1309.97 1106.9 1309.97 Q1110.28 1309.97 1113.43 1309.14 Q1116.61 1308.32 1119.73 1306.66 L1119.73 1312.2 Q1116.58 1313.54 1113.27 1314.24 Q1109.96 1314.94 1106.55 1314.94 Q1098.02 1314.94 1093.02 1309.97 Q1088.06 1305.01 1088.06 1296.54 Q1088.06 1287.79 1092.77 1282.66 Q1097.51 1277.51 1105.53 1277.51 Q1112.73 1277.51 1116.9 1282.15 Q1121.1 1286.77 1121.1 1294.73 M1115.24 1293.01 Q1115.18 1288.2 1112.54 1285.34 Q1109.93 1282.47 1105.6 1282.47 Q1100.7 1282.47 1097.74 1285.24 Q1094.81 1288.01 1094.36 1293.04 L1115.24 1293.01 Z" fill="#000000" fill-rule="nonzero" fill-opacity="1" /><path clip-path="url(#clip920)" d="M1165.5 1264.55 Q1161.23 1271.87 1159.16 1279.04 Q1157.1 1286.2 1157.1 1293.55 Q1157.1 1300.9 1159.16 1308.13 Q1161.27 1315.32 1165.5 1322.61 L1160.41 1322.61 Q1155.63 1315.13 1153.24 1307.9 Q1150.89 1300.68 1150.89 1293.55 Q1150.89 1286.45 1153.24 1279.26 Q1155.6 1272.06 1160.41 1264.55 L1165.5 1264.55 Z" fill="#000000" fill-rule="nonzero" fill-opacity="1" /><path clip-path="url(#clip920)" d="M1200.32 1283.78 L1200.32 1264.49 L1206.18 1264.49 L1206.18 1314.01 L1200.32 1314.01 L1200.32 1308.67 Q1198.47 1311.85 1195.64 1313.41 Q1192.84 1314.94 1188.89 1314.94 Q1182.43 1314.94 1178.36 1309.78 Q1174.31 1304.63 1174.31 1296.22 Q1174.31 1287.82 1178.36 1282.66 Q1182.43 1277.51 1188.89 1277.51 Q1192.84 1277.51 1195.64 1279.07 Q1198.47 1280.59 1200.32 1283.78 M1180.36 1296.22 Q1180.36 1302.68 1183 1306.38 Q1185.68 1310.04 1190.32 1310.04 Q1194.97 1310.04 1197.65 1306.38 Q1200.32 1302.68 1200.32 1296.22 Q1200.32 1289.76 1197.65 1286.1 Q1194.97 1282.41 1190.32 1282.41 Q1185.68 1282.41 1183 1286.1 Q1180.36 1289.76 1180.36 1296.22 Z" fill="#000000" fill-rule="nonzero" fill-opacity="1" /><path clip-path="url(#clip920)" d="M1234.44 1296.1 Q1227.34 1296.1 1224.6 1297.72 Q1221.87 1299.34 1221.87 1303.26 Q1221.87 1306.38 1223.9 1308.22 Q1225.97 1310.04 1229.51 1310.04 Q1234.38 1310.04 1237.3 1306.6 Q1240.26 1303.13 1240.26 1297.4 L1240.26 1296.1 L1234.44 1296.1 M1246.12 1293.68 L1246.12 1314.01 L1240.26 1314.01 L1240.26 1308.6 Q1238.26 1311.85 1235.27 1313.41 Q1232.27 1314.94 1227.95 1314.94 Q1222.47 1314.94 1219.22 1311.88 Q1216.01 1308.79 1216.01 1303.64 Q1216.01 1297.62 1220.02 1294.57 Q1224.06 1291.51 1232.05 1291.51 L1240.26 1291.51 L1240.26 1290.94 Q1240.26 1286.9 1237.59 1284.7 Q1234.95 1282.47 1230.14 1282.47 Q1227.09 1282.47 1224.19 1283.2 Q1221.29 1283.94 1218.62 1285.4 L1218.62 1279.99 Q1221.83 1278.75 1224.86 1278.14 Q1227.88 1277.51 1230.75 1277.51 Q1238.48 1277.51 1242.3 1281.52 Q1246.12 1285.53 1246.12 1293.68 Z" fill="#000000" fill-rule="nonzero" fill-opacity="1" /><path clip-path="url(#clip920)" d="M1273.02 1317.32 Q1270.53 1323.69 1268.18 1325.63 Q1265.82 1327.57 1261.88 1327.57 L1257.2 1327.57 L1257.2 1322.67 L1260.63 1322.67 Q1263.05 1322.67 1264.39 1321.53 Q1265.73 1320.38 1267.35 1316.12 L1268.4 1313.44 L1253.98 1278.37 L1260.19 1278.37 L1271.33 1306.25 L1282.47 1278.37 L1288.67 1278.37 L1273.02 1317.32 Z" fill="#000000" fill-rule="nonzero" fill-opacity="1" /><path clip-path="url(#clip920)" d="M1319.48 1279.42 L1319.48 1284.96 Q1317 1283.68 1314.33 1283.05 Q1311.66 1282.41 1308.79 1282.41 Q1304.43 1282.41 1302.23 1283.75 Q1300.07 1285.08 1300.07 1287.76 Q1300.07 1289.79 1301.63 1290.97 Q1303.19 1292.12 1307.9 1293.17 L1309.9 1293.61 Q1316.14 1294.95 1318.75 1297.4 Q1321.39 1299.82 1321.39 1304.18 Q1321.39 1309.14 1317.45 1312.04 Q1313.53 1314.94 1306.66 1314.94 Q1303.79 1314.94 1300.67 1314.36 Q1297.59 1313.82 1294.15 1312.71 L1294.15 1306.66 Q1297.4 1308.35 1300.55 1309.21 Q1303.7 1310.04 1306.79 1310.04 Q1310.92 1310.04 1313.15 1308.64 Q1315.38 1307.2 1315.38 1304.63 Q1315.38 1302.24 1313.76 1300.97 Q1312.16 1299.69 1306.72 1298.51 L1304.68 1298.04 Q1299.24 1296.89 1296.82 1294.54 Q1294.4 1292.15 1294.4 1288.01 Q1294.4 1282.98 1297.97 1280.24 Q1301.53 1277.51 1308.09 1277.51 Q1311.34 1277.51 1314.2 1277.98 Q1317.07 1278.46 1319.48 1279.42 Z" fill="#000000" fill-rule="nonzero" fill-opacity="1" /><path clip-path="url(#clip920)" d="M1329.8 1264.55 L1334.89 1264.55 Q1339.66 1272.06 1342.02 1279.26 Q1344.41 1286.45 1344.41 1293.55 Q1344.41 1300.68 1342.02 1307.9 Q1339.66 1315.13 1334.89 1322.61 L1329.8 1322.61 Q1334.03 1315.32 1336.1 1308.13 Q1338.2 1300.9 1338.2 1293.55 Q1338.2 1286.2 1336.1 1279.04 Q1334.03 1271.87 1329.8 1264.55 Z" fill="#000000" fill-rule="nonzero" fill-opacity="1" /><polyline clip-path="url(#clip920)" style="stroke:#000000; stroke-linecap:round; stroke-linejoin:round; stroke-width:4; stroke-opacity:1; fill:none" points="244.502,1173.47 244.502,47.2441 "/>
<polyline clip-path="url(#clip920)" style="stroke:#000000; stroke-linecap:round; stroke-linejoin:round; stroke-width:4; stroke-opacity:1; fill:none" points="244.502,1141.6 263.4,1141.6 "/>
<polyline clip-path="url(#clip920)" style="stroke:#000000; stroke-linecap:round; stroke-linejoin:round; stroke-width:4; stroke-opacity:1; fill:none" points="244.502,873.294 263.4,873.294 "/>
<polyline clip-path="url(#clip920)" style="stroke:#000000; stroke-linecap:round; stroke-linejoin:round; stroke-width:4; stroke-opacity:1; fill:none" points="244.502,604.991 263.4,604.991 "/>
<polyline clip-path="url(#clip920)" style="stroke:#000000; stroke-linecap:round; stroke-linejoin:round; stroke-width:4; stroke-opacity:1; fill:none" points="244.502,336.689 263.4,336.689 "/>
<polyline clip-path="url(#clip920)" style="stroke:#000000; stroke-linecap:round; stroke-linejoin:round; stroke-width:4; stroke-opacity:1; fill:none" points="244.502,68.3863 263.4,68.3863 "/>
<path clip-path="url(#clip920)" d="M125.485 1127.4 Q121.873 1127.4 120.045 1130.96 Q118.239 1134.5 118.239 1141.63 Q118.239 1148.74 120.045 1152.3 Q121.873 1155.84 125.485 1155.84 Q129.119 1155.84 130.924 1152.3 Q132.753 1148.74 132.753 1141.63 Q132.753 1134.5 130.924 1130.96 Q129.119 1127.4 125.485 1127.4 M125.485 1123.69 Q131.295 1123.69 134.35 1128.3 Q137.429 1132.88 137.429 1141.63 Q137.429 1150.36 134.35 1154.96 Q131.295 1159.55 125.485 1159.55 Q119.674 1159.55 116.596 1154.96 Q113.54 1150.36 113.54 1141.63 Q113.54 1132.88 116.596 1128.3 Q119.674 1123.69 125.485 1123.69 Z" fill="#000000" fill-rule="nonzero" fill-opacity="1" /><path clip-path="url(#clip920)" d="M145.646 1153 L150.531 1153 L150.531 1158.88 L145.646 1158.88 L145.646 1153 Z" fill="#000000" fill-rule="nonzero" fill-opacity="1" /><path clip-path="url(#clip920)" d="M170.716 1127.4 Q167.105 1127.4 165.276 1130.96 Q163.47 1134.5 163.47 1141.63 Q163.47 1148.74 165.276 1152.3 Q167.105 1155.84 170.716 1155.84 Q174.35 1155.84 176.156 1152.3 Q177.984 1148.74 177.984 1141.63 Q177.984 1134.5 176.156 1130.96 Q174.35 1127.4 170.716 1127.4 M170.716 1123.69 Q176.526 1123.69 179.581 1128.3 Q182.66 1132.88 182.66 1141.63 Q182.66 1150.36 179.581 1154.96 Q176.526 1159.55 170.716 1159.55 Q164.906 1159.55 161.827 1154.96 Q158.771 1150.36 158.771 1141.63 Q158.771 1132.88 161.827 1128.3 Q164.906 1123.69 170.716 1123.69 Z" fill="#000000" fill-rule="nonzero" fill-opacity="1" /><path clip-path="url(#clip920)" d="M200.878 1127.4 Q197.267 1127.4 195.438 1130.96 Q193.632 1134.5 193.632 1141.63 Q193.632 1148.74 195.438 1152.3 Q197.267 1155.84 200.878 1155.84 Q204.512 1155.84 206.317 1152.3 Q208.146 1148.74 208.146 1141.63 Q208.146 1134.5 206.317 1130.96 Q204.512 1127.4 200.878 1127.4 M200.878 1123.69 Q206.688 1123.69 209.743 1128.3 Q212.822 1132.88 212.822 1141.63 Q212.822 1150.36 209.743 1154.96 Q206.688 1159.55 200.878 1159.55 Q195.067 1159.55 191.989 1154.96 Q188.933 1150.36 188.933 1141.63 Q188.933 1132.88 191.989 1128.3 Q195.067 1123.69 200.878 1123.69 Z" fill="#000000" fill-rule="nonzero" fill-opacity="1" /><path clip-path="url(#clip920)" d="M126.48 859.093 Q122.869 859.093 121.04 862.657 Q119.235 866.199 119.235 873.329 Q119.235 880.435 121.04 884 Q122.869 887.542 126.48 887.542 Q130.114 887.542 131.92 884 Q133.748 880.435 133.748 873.329 Q133.748 866.199 131.92 862.657 Q130.114 859.093 126.48 859.093 M126.48 855.389 Q132.29 855.389 135.346 859.995 Q138.424 864.579 138.424 873.329 Q138.424 882.055 135.346 886.662 Q132.29 891.245 126.48 891.245 Q120.67 891.245 117.591 886.662 Q114.536 882.055 114.536 873.329 Q114.536 864.579 117.591 859.995 Q120.67 855.389 126.48 855.389 Z" fill="#000000" fill-rule="nonzero" fill-opacity="1" /><path clip-path="url(#clip920)" d="M146.642 884.694 L151.526 884.694 L151.526 890.574 L146.642 890.574 L146.642 884.694 Z" fill="#000000" fill-rule="nonzero" fill-opacity="1" /><path clip-path="url(#clip920)" d="M165.739 886.639 L182.058 886.639 L182.058 890.574 L160.114 890.574 L160.114 886.639 Q162.776 883.884 167.359 879.255 Q171.966 874.602 173.146 873.259 Q175.392 870.736 176.271 869 Q177.174 867.241 177.174 865.551 Q177.174 862.796 175.23 861.06 Q173.308 859.324 170.207 859.324 Q168.007 859.324 165.554 860.088 Q163.123 860.852 160.345 862.403 L160.345 857.681 Q163.17 856.546 165.623 855.968 Q168.077 855.389 170.114 855.389 Q175.484 855.389 178.679 858.074 Q181.873 860.759 181.873 865.25 Q181.873 867.38 181.063 869.301 Q180.276 871.199 178.169 873.792 Q177.591 874.463 174.489 877.68 Q171.387 880.875 165.739 886.639 Z" fill="#000000" fill-rule="nonzero" fill-opacity="1" /><path clip-path="url(#clip920)" d="M191.919 856.014 L210.276 856.014 L210.276 859.949 L196.202 859.949 L196.202 868.421 Q197.22 868.074 198.239 867.912 Q199.257 867.727 200.276 867.727 Q206.063 867.727 209.442 870.898 Q212.822 874.069 212.822 879.486 Q212.822 885.065 209.35 888.166 Q205.878 891.245 199.558 891.245 Q197.382 891.245 195.114 890.875 Q192.868 890.504 190.461 889.764 L190.461 885.065 Q192.544 886.199 194.767 886.754 Q196.989 887.31 199.466 887.31 Q203.47 887.31 205.808 885.204 Q208.146 883.097 208.146 879.486 Q208.146 875.875 205.808 873.768 Q203.47 871.662 199.466 871.662 Q197.591 871.662 195.716 872.079 Q193.864 872.495 191.919 873.375 L191.919 856.014 Z" fill="#000000" fill-rule="nonzero" fill-opacity="1" /><path clip-path="url(#clip920)" d="M125.485 590.79 Q121.873 590.79 120.045 594.355 Q118.239 597.897 118.239 605.026 Q118.239 612.133 120.045 615.697 Q121.873 619.239 125.485 619.239 Q129.119 619.239 130.924 615.697 Q132.753 612.133 132.753 605.026 Q132.753 597.897 130.924 594.355 Q129.119 590.79 125.485 590.79 M125.485 587.086 Q131.295 587.086 134.35 591.693 Q137.429 596.276 137.429 605.026 Q137.429 613.753 134.35 618.359 Q131.295 622.943 125.485 622.943 Q119.674 622.943 116.596 618.359 Q113.54 613.753 113.54 605.026 Q113.54 596.276 116.596 591.693 Q119.674 587.086 125.485 587.086 Z" fill="#000000" fill-rule="nonzero" fill-opacity="1" /><path clip-path="url(#clip920)" d="M145.646 616.392 L150.531 616.392 L150.531 622.271 L145.646 622.271 L145.646 616.392 Z" fill="#000000" fill-rule="nonzero" fill-opacity="1" /><path clip-path="url(#clip920)" d="M160.762 587.711 L179.119 587.711 L179.119 591.647 L165.045 591.647 L165.045 600.119 Q166.063 599.771 167.082 599.609 Q168.1 599.424 169.119 599.424 Q174.906 599.424 178.285 602.596 Q181.665 605.767 181.665 611.183 Q181.665 616.762 178.193 619.864 Q174.72 622.943 168.401 622.943 Q166.225 622.943 163.957 622.572 Q161.711 622.202 159.304 621.461 L159.304 616.762 Q161.387 617.896 163.609 618.452 Q165.832 619.008 168.308 619.008 Q172.313 619.008 174.651 616.901 Q176.989 614.795 176.989 611.183 Q176.989 607.572 174.651 605.466 Q172.313 603.359 168.308 603.359 Q166.433 603.359 164.558 603.776 Q162.707 604.193 160.762 605.072 L160.762 587.711 Z" fill="#000000" fill-rule="nonzero" fill-opacity="1" /><path clip-path="url(#clip920)" d="M200.878 590.79 Q197.267 590.79 195.438 594.355 Q193.632 597.897 193.632 605.026 Q193.632 612.133 195.438 615.697 Q197.267 619.239 200.878 619.239 Q204.512 619.239 206.317 615.697 Q208.146 612.133 208.146 605.026 Q208.146 597.897 206.317 594.355 Q204.512 590.79 200.878 590.79 M200.878 587.086 Q206.688 587.086 209.743 591.693 Q212.822 596.276 212.822 605.026 Q212.822 613.753 209.743 618.359 Q206.688 622.943 200.878 622.943 Q195.067 622.943 191.989 618.359 Q188.933 613.753 188.933 605.026 Q188.933 596.276 191.989 591.693 Q195.067 587.086 200.878 587.086 Z" fill="#000000" fill-rule="nonzero" fill-opacity="1" /><path clip-path="url(#clip920)" d="M126.48 322.488 Q122.869 322.488 121.04 326.052 Q119.235 329.594 119.235 336.724 Q119.235 343.83 121.04 347.395 Q122.869 350.936 126.48 350.936 Q130.114 350.936 131.92 347.395 Q133.748 343.83 133.748 336.724 Q133.748 329.594 131.92 326.052 Q130.114 322.488 126.48 322.488 M126.48 318.784 Q132.29 318.784 135.346 323.39 Q138.424 327.974 138.424 336.724 Q138.424 345.45 135.346 350.057 Q132.29 354.64 126.48 354.64 Q120.67 354.64 117.591 350.057 Q114.536 345.45 114.536 336.724 Q114.536 327.974 117.591 323.39 Q120.67 318.784 126.48 318.784 Z" fill="#000000" fill-rule="nonzero" fill-opacity="1" /><path clip-path="url(#clip920)" d="M146.642 348.089 L151.526 348.089 L151.526 353.969 L146.642 353.969 L146.642 348.089 Z" fill="#000000" fill-rule="nonzero" fill-opacity="1" /><path clip-path="url(#clip920)" d="M160.531 319.409 L182.753 319.409 L182.753 321.4 L170.207 353.969 L165.322 353.969 L177.128 323.344 L160.531 323.344 L160.531 319.409 Z" fill="#000000" fill-rule="nonzero" fill-opacity="1" /><path clip-path="url(#clip920)" d="M191.919 319.409 L210.276 319.409 L210.276 323.344 L196.202 323.344 L196.202 331.816 Q197.22 331.469 198.239 331.307 Q199.257 331.122 200.276 331.122 Q206.063 331.122 209.442 334.293 Q212.822 337.464 212.822 342.881 Q212.822 348.46 209.35 351.561 Q205.878 354.64 199.558 354.64 Q197.382 354.64 195.114 354.27 Q192.868 353.899 190.461 353.159 L190.461 348.46 Q192.544 349.594 194.767 350.149 Q196.989 350.705 199.466 350.705 Q203.47 350.705 205.808 348.599 Q208.146 346.492 208.146 342.881 Q208.146 339.27 205.808 337.163 Q203.47 335.057 199.466 335.057 Q197.591 335.057 195.716 335.474 Q193.864 335.89 191.919 336.77 L191.919 319.409 Z" fill="#000000" fill-rule="nonzero" fill-opacity="1" /><path clip-path="url(#clip920)" d="M116.295 81.7312 L123.934 81.7312 L123.934 55.3656 L115.623 57.0322 L115.623 52.773 L123.887 51.1063 L128.563 51.1063 L128.563 81.7312 L136.202 81.7312 L136.202 85.6663 L116.295 85.6663 L116.295 81.7312 Z" fill="#000000" fill-rule="nonzero" fill-opacity="1" /><path clip-path="url(#clip920)" d="M145.646 79.7867 L150.531 79.7867 L150.531 85.6663 L145.646 85.6663 L145.646 79.7867 Z" fill="#000000" fill-rule="nonzero" fill-opacity="1" /><path clip-path="url(#clip920)" d="M170.716 54.185 Q167.105 54.185 165.276 57.7498 Q163.47 61.2915 163.47 68.4211 Q163.47 75.5275 165.276 79.0923 Q167.105 82.6339 170.716 82.6339 Q174.35 82.6339 176.156 79.0923 Q177.984 75.5275 177.984 68.4211 Q177.984 61.2915 176.156 57.7498 Q174.35 54.185 170.716 54.185 M170.716 50.4813 Q176.526 50.4813 179.581 55.0878 Q182.66 59.6711 182.66 68.4211 Q182.66 77.1479 179.581 81.7543 Q176.526 86.3376 170.716 86.3376 Q164.906 86.3376 161.827 81.7543 Q158.771 77.1479 158.771 68.4211 Q158.771 59.6711 161.827 55.0878 Q164.906 50.4813 170.716 50.4813 Z" fill="#000000" fill-rule="nonzero" fill-opacity="1" /><path clip-path="url(#clip920)" d="M200.878 54.185 Q197.267 54.185 195.438 57.7498 Q193.632 61.2915 193.632 68.4211 Q193.632 75.5275 195.438 79.0923 Q197.267 82.6339 200.878 82.6339 Q204.512 82.6339 206.317 79.0923 Q208.146 75.5275 208.146 68.4211 Q208.146 61.2915 206.317 57.7498 Q204.512 54.185 200.878 54.185 M200.878 50.4813 Q206.688 50.4813 209.743 55.0878 Q212.822 59.6711 212.822 68.4211 Q212.822 77.1479 209.743 81.7543 Q206.688 86.3376 200.878 86.3376 Q195.067 86.3376 191.989 81.7543 Q188.933 77.1479 188.933 68.4211 Q188.933 59.6711 191.989 55.0878 Q195.067 50.4813 200.878 50.4813 Z" fill="#000000" fill-rule="nonzero" fill-opacity="1" /><path clip-path="url(#clip920)" d="M20.0842 960.058 L20.0842 932.749 L25.495 932.749 L25.495 953.628 L39.4996 953.628 L39.4996 934.786 L44.9104 934.786 L44.9104 953.628 L67.6042 953.628 L67.6042 960.058 L20.0842 960.058 Z" fill="#000000" fill-rule="nonzero" fill-opacity="1" /><path clip-path="url(#clip920)" d="M37.4307 906.904 Q36.8578 907.891 36.6032 909.068 Q36.3167 910.214 36.3167 911.614 Q36.3167 916.58 39.5632 919.253 Q42.7779 921.895 48.8253 921.895 L67.6042 921.895 L67.6042 927.783 L31.9562 927.783 L31.9562 921.895 L37.4944 921.895 Q34.2479 920.049 32.6883 917.089 Q31.0968 914.129 31.0968 909.896 Q31.0968 909.291 31.1923 908.559 Q31.256 907.827 31.4151 906.936 L37.4307 906.904 Z" fill="#000000" fill-rule="nonzero" fill-opacity="1" /><path clip-path="url(#clip920)" d="M49.6847 884.56 Q49.6847 891.658 51.3079 894.395 Q52.9312 897.133 56.8461 897.133 Q59.9653 897.133 61.8114 895.095 Q63.6256 893.027 63.6256 889.494 Q63.6256 884.624 60.1881 881.696 Q56.7188 878.736 50.9897 878.736 L49.6847 878.736 L49.6847 884.56 M47.2657 872.879 L67.6042 872.879 L67.6042 878.736 L62.1933 878.736 Q65.4398 880.741 66.9994 883.733 Q68.5272 886.725 68.5272 891.053 Q68.5272 896.528 65.4716 899.774 Q62.3843 902.989 57.2281 902.989 Q51.2125 902.989 48.1569 898.979 Q45.1014 894.936 45.1014 886.947 L45.1014 878.736 L44.5285 878.736 Q40.4862 878.736 38.2901 881.409 Q36.0621 884.051 36.0621 888.857 Q36.0621 891.913 36.7941 894.809 Q37.5262 897.705 38.9903 900.379 L33.5795 900.379 Q32.3381 897.164 31.7334 894.141 Q31.0968 891.117 31.0968 888.252 Q31.0968 880.518 35.1072 876.699 Q39.1176 872.879 47.2657 872.879 Z" fill="#000000" fill-rule="nonzero" fill-opacity="1" /><path clip-path="url(#clip920)" d="M33.3248 835.162 L38.7993 835.162 Q37.4307 837.645 36.7623 840.159 Q36.0621 842.642 36.0621 845.188 Q36.0621 850.886 39.6905 854.037 Q43.2872 857.188 49.812 857.188 Q56.3369 857.188 59.9653 854.037 Q63.5619 850.886 63.5619 845.188 Q63.5619 842.642 62.8935 840.159 Q62.1933 837.645 60.8247 835.162 L66.2355 835.162 Q67.3814 837.613 67.9543 840.255 Q68.5272 842.865 68.5272 845.825 Q68.5272 853.878 63.4664 858.62 Q58.4057 863.362 49.812 863.362 Q41.091 863.362 36.0939 858.588 Q31.0968 853.782 31.0968 845.443 Q31.0968 842.738 31.6697 840.159 Q32.2108 837.581 33.3248 835.162 Z" fill="#000000" fill-rule="nonzero" fill-opacity="1" /><path clip-path="url(#clip920)" d="M21.8347 819.184 L31.9562 819.184 L31.9562 807.121 L36.5077 807.121 L36.5077 819.184 L55.8594 819.184 Q60.2199 819.184 61.4613 818.007 Q62.7026 816.797 62.7026 813.137 L62.7026 807.121 L67.6042 807.121 L67.6042 813.137 Q67.6042 819.916 65.0897 822.495 Q62.5434 825.073 55.8594 825.073 L36.5077 825.073 L36.5077 829.37 L31.9562 829.37 L31.9562 825.073 L21.8347 825.073 L21.8347 819.184 Z" fill="#000000" fill-rule="nonzero" fill-opacity="1" /><path clip-path="url(#clip920)" d="M31.9562 799.419 L31.9562 793.562 L67.6042 793.562 L67.6042 799.419 L31.9562 799.419 M18.079 799.419 L18.079 793.562 L25.495 793.562 L25.495 799.419 L18.079 799.419 Z" fill="#000000" fill-rule="nonzero" fill-opacity="1" /><path clip-path="url(#clip920)" d="M36.0621 767.495 Q36.0621 772.206 39.7542 774.943 Q43.4145 777.68 49.812 777.68 Q56.2095 777.68 59.9017 774.975 Q63.5619 772.237 63.5619 767.495 Q63.5619 762.816 59.8698 760.079 Q56.1777 757.342 49.812 757.342 Q43.4781 757.342 39.786 760.079 Q36.0621 762.816 36.0621 767.495 M31.0968 767.495 Q31.0968 759.856 36.0621 755.496 Q41.0273 751.135 49.812 751.135 Q58.5649 751.135 63.5619 755.496 Q68.5272 759.856 68.5272 767.495 Q68.5272 775.166 63.5619 779.526 Q58.5649 783.855 49.812 783.855 Q41.0273 783.855 36.0621 779.526 Q31.0968 775.166 31.0968 767.495 Z" fill="#000000" fill-rule="nonzero" fill-opacity="1" /><path clip-path="url(#clip920)" d="M46.0881 711.795 L67.6042 711.795 L67.6042 717.651 L46.279 717.651 Q41.2183 717.651 38.7038 719.625 Q36.1894 721.598 36.1894 725.545 Q36.1894 730.287 39.2131 733.025 Q42.2368 735.762 47.4567 735.762 L67.6042 735.762 L67.6042 741.65 L31.9562 741.65 L31.9562 735.762 L37.4944 735.762 Q34.2797 733.661 32.6883 730.828 Q31.0968 727.964 31.0968 724.24 Q31.0968 718.097 34.9163 714.946 Q38.7038 711.795 46.0881 711.795 Z" fill="#000000" fill-rule="nonzero" fill-opacity="1" /><path clip-path="url(#clip920)" d="M36.0621 665.58 Q36.0621 670.291 39.7542 673.028 Q43.4145 675.765 49.812 675.765 Q56.2095 675.765 59.9017 673.06 Q63.5619 670.322 63.5619 665.58 Q63.5619 660.901 59.8698 658.164 Q56.1777 655.427 49.812 655.427 Q43.4781 655.427 39.786 658.164 Q36.0621 660.901 36.0621 665.58 M31.0968 665.58 Q31.0968 657.941 36.0621 653.581 Q41.0273 649.22 49.812 649.22 Q58.5649 649.22 63.5619 653.581 Q68.5272 657.941 68.5272 665.58 Q68.5272 673.251 63.5619 677.611 Q58.5649 681.94 49.812 681.94 Q41.0273 681.94 36.0621 677.611 Q31.0968 673.251 31.0968 665.58 Z" fill="#000000" fill-rule="nonzero" fill-opacity="1" /><path clip-path="url(#clip920)" d="M18.079 621.466 L22.9487 621.466 L22.9487 627.067 Q22.9487 630.218 24.2219 631.46 Q25.495 632.669 28.8052 632.669 L31.9562 632.669 L31.9562 623.025 L36.5077 623.025 L36.5077 632.669 L67.6042 632.669 L67.6042 638.558 L36.5077 638.558 L36.5077 644.159 L31.9562 644.159 L31.9562 638.558 L29.4736 638.558 Q23.5216 638.558 20.8162 635.788 Q18.079 633.019 18.079 627.004 L18.079 621.466 Z" fill="#000000" fill-rule="nonzero" fill-opacity="1" /><path clip-path="url(#clip920)" d="M62.257 590.178 L81.1631 590.178 L81.1631 596.066 L31.9562 596.066 L31.9562 590.178 L37.3671 590.178 Q34.1842 588.332 32.6564 585.531 Q31.0968 582.698 31.0968 578.784 Q31.0968 572.29 36.2531 568.248 Q41.4093 564.174 49.812 564.174 Q58.2147 564.174 63.371 568.248 Q68.5272 572.29 68.5272 578.784 Q68.5272 582.698 66.9994 585.531 Q65.4398 588.332 62.257 590.178 M49.812 570.253 Q43.3508 570.253 39.6905 572.927 Q35.9984 575.569 35.9984 580.216 Q35.9984 584.863 39.6905 587.536 Q43.3508 590.178 49.812 590.178 Q56.2732 590.178 59.9653 587.536 Q63.6256 584.863 63.6256 580.216 Q63.6256 575.569 59.9653 572.927 Q56.2732 570.253 49.812 570.253 Z" fill="#000000" fill-rule="nonzero" fill-opacity="1" /><path clip-path="url(#clip920)" d="M36.0621 540.653 Q36.0621 545.364 39.7542 548.101 Q43.4145 550.838 49.812 550.838 Q56.2095 550.838 59.9017 548.133 Q63.5619 545.395 63.5619 540.653 Q63.5619 535.974 59.8698 533.237 Q56.1777 530.5 49.812 530.5 Q43.4781 530.5 39.786 533.237 Q36.0621 535.974 36.0621 540.653 M31.0968 540.653 Q31.0968 533.014 36.0621 528.654 Q41.0273 524.293 49.812 524.293 Q58.5649 524.293 63.5619 528.654 Q68.5272 533.014 68.5272 540.653 Q68.5272 548.324 63.5619 552.684 Q58.5649 557.013 49.812 557.013 Q41.0273 557.013 36.0621 552.684 Q31.0968 548.324 31.0968 540.653 Z" fill="#000000" fill-rule="nonzero" fill-opacity="1" /><path clip-path="url(#clip920)" d="M62.257 508.92 L81.1631 508.92 L81.1631 514.808 L31.9562 514.808 L31.9562 508.92 L37.3671 508.92 Q34.1842 507.074 32.6564 504.273 Q31.0968 501.44 31.0968 497.525 Q31.0968 491.032 36.2531 486.99 Q41.4093 482.916 49.812 482.916 Q58.2147 482.916 63.371 486.99 Q68.5272 491.032 68.5272 497.525 Q68.5272 501.44 66.9994 504.273 Q65.4398 507.074 62.257 508.92 M49.812 488.995 Q43.3508 488.995 39.6905 491.669 Q35.9984 494.311 35.9984 498.958 Q35.9984 503.605 39.6905 506.278 Q43.3508 508.92 49.812 508.92 Q56.2732 508.92 59.9653 506.278 Q63.6256 503.605 63.6256 498.958 Q63.6256 494.311 59.9653 491.669 Q56.2732 488.995 49.812 488.995 Z" fill="#000000" fill-rule="nonzero" fill-opacity="1" /><path clip-path="url(#clip920)" d="M53.5359 473.813 L31.9562 473.813 L31.9562 467.957 L53.3131 467.957 Q58.3739 467.957 60.9202 465.983 Q63.4346 464.01 63.4346 460.063 Q63.4346 455.321 60.4109 452.583 Q57.3872 449.814 52.1673 449.814 L31.9562 449.814 L31.9562 443.958 L67.6042 443.958 L67.6042 449.814 L62.1296 449.814 Q65.3762 451.947 66.9676 454.78 Q68.5272 457.58 68.5272 461.304 Q68.5272 467.447 64.7078 470.63 Q60.8883 473.813 53.5359 473.813 M31.0968 459.076 L31.0968 459.076 Z" fill="#000000" fill-rule="nonzero" fill-opacity="1" /><path clip-path="url(#clip920)" d="M18.079 431.895 L18.079 426.038 L67.6042 426.038 L67.6042 431.895 L18.079 431.895 Z" fill="#000000" fill-rule="nonzero" fill-opacity="1" /><path clip-path="url(#clip920)" d="M49.6847 397.584 Q49.6847 404.681 51.3079 407.419 Q52.9312 410.156 56.8461 410.156 Q59.9653 410.156 61.8114 408.119 Q63.6256 406.05 63.6256 402.517 Q63.6256 397.647 60.1881 394.719 Q56.7188 391.759 50.9897 391.759 L49.6847 391.759 L49.6847 397.584 M47.2657 385.903 L67.6042 385.903 L67.6042 391.759 L62.1933 391.759 Q65.4398 393.764 66.9994 396.756 Q68.5272 399.748 68.5272 404.077 Q68.5272 409.551 65.4716 412.798 Q62.3843 416.012 57.2281 416.012 Q51.2125 416.012 48.1569 412.002 Q45.1014 407.96 45.1014 399.971 L45.1014 391.759 L44.5285 391.759 Q40.4862 391.759 38.2901 394.433 Q36.0621 397.074 36.0621 401.881 Q36.0621 404.936 36.7941 407.832 Q37.5262 410.729 38.9903 413.402 L33.5795 413.402 Q32.3381 410.188 31.7334 407.164 Q31.0968 404.14 31.0968 401.276 Q31.0968 393.541 35.1072 389.722 Q39.1176 385.903 47.2657 385.903 Z" fill="#000000" fill-rule="nonzero" fill-opacity="1" /><path clip-path="url(#clip920)" d="M21.8347 368.047 L31.9562 368.047 L31.9562 355.984 L36.5077 355.984 L36.5077 368.047 L55.8594 368.047 Q60.2199 368.047 61.4613 366.869 Q62.7026 365.66 62.7026 361.999 L62.7026 355.984 L67.6042 355.984 L67.6042 361.999 Q67.6042 368.779 65.0897 371.357 Q62.5434 373.935 55.8594 373.935 L36.5077 373.935 L36.5077 378.232 L31.9562 378.232 L31.9562 373.935 L21.8347 373.935 L21.8347 368.047 Z" fill="#000000" fill-rule="nonzero" fill-opacity="1" /><path clip-path="url(#clip920)" d="M31.9562 348.281 L31.9562 342.425 L67.6042 342.425 L67.6042 348.281 L31.9562 348.281 M18.079 348.281 L18.079 342.425 L25.495 342.425 L25.495 348.281 L18.079 348.281 Z" fill="#000000" fill-rule="nonzero" fill-opacity="1" /><path clip-path="url(#clip920)" d="M36.0621 316.357 Q36.0621 321.068 39.7542 323.805 Q43.4145 326.542 49.812 326.542 Q56.2095 326.542 59.9017 323.837 Q63.5619 321.1 63.5619 316.357 Q63.5619 311.678 59.8698 308.941 Q56.1777 306.204 49.812 306.204 Q43.4781 306.204 39.786 308.941 Q36.0621 311.678 36.0621 316.357 M31.0968 316.357 Q31.0968 308.718 36.0621 304.358 Q41.0273 299.997 49.812 299.997 Q58.5649 299.997 63.5619 304.358 Q68.5272 308.718 68.5272 316.357 Q68.5272 324.028 63.5619 328.388 Q58.5649 332.717 49.812 332.717 Q41.0273 332.717 36.0621 328.388 Q31.0968 324.028 31.0968 316.357 Z" fill="#000000" fill-rule="nonzero" fill-opacity="1" /><path clip-path="url(#clip920)" d="M46.0881 260.657 L67.6042 260.657 L67.6042 266.514 L46.279 266.514 Q41.2183 266.514 38.7038 268.487 Q36.1894 270.461 36.1894 274.407 Q36.1894 279.15 39.2131 281.887 Q42.2368 284.624 47.4567 284.624 L67.6042 284.624 L67.6042 290.512 L31.9562 290.512 L31.9562 284.624 L37.4944 284.624 Q34.2797 282.524 32.6883 279.691 Q31.0968 276.826 31.0968 273.102 Q31.0968 266.959 34.9163 263.808 Q38.7038 260.657 46.0881 260.657 Z" fill="#000000" fill-rule="nonzero" fill-opacity="1" /><polyline clip-path="url(#clip922)" style="stroke:#009af9; stroke-linecap:round; stroke-linejoin:round; stroke-width:6; stroke-opacity:1; fill:none" points="244.502,79.1184 246.322,79.6561 248.143,80.2068 249.963,80.7708 251.783,81.3485 253.603,81.9401 255.424,82.546 257.244,83.1664 259.064,83.8017 260.884,84.4523 262.705,85.1184 264.525,85.8003 266.345,86.4986 268.165,87.2134 269.986,87.9452 271.806,88.6943 273.626,89.461 275.446,90.2459 277.267,91.0491 279.087,91.8712 280.907,92.7126 282.727,93.5735 284.548,94.4545 286.368,95.3559 288.188,96.2782 290.008,97.2217 291.829,98.187 293.649,99.1744 295.469,100.184 297.289,101.217 299.11,102.274 300.93,103.354 302.75,104.459 304.57,105.589 306.391,106.743 308.211,107.924 310.031,109.131 311.851,110.365 313.672,111.626 315.492,112.915 317.312,114.231 319.132,115.577 320.953,116.952 322.773,118.356 324.593,119.791 326.413,121.257 328.234,122.753 330.054,124.282 331.874,125.842 333.694,127.436 335.515,129.062 337.335,130.723 339.155,132.418 340.975,134.147 342.796,135.912 344.616,137.713 346.436,139.55 348.257,141.424 350.077,143.335 351.897,145.283 353.717,147.271 355.538,149.296 357.358,151.361 359.178,153.466 360.998,155.611 362.819,157.796 364.639,160.022 366.459,162.29 368.279,164.599 370.1,166.951 371.92,169.346 373.74,171.783 375.56,174.265 377.381,176.789 379.201,179.358 381.021,181.972 382.841,184.63 384.662,187.333 386.482,190.081 388.302,192.875 390.122,195.715 391.943,198.6 393.763,201.531 395.583,204.509 397.403,207.533 399.224,210.603 401.044,213.72 402.864,216.884 404.684,220.094 406.505,223.351 408.325,226.655 410.145,230.005 411.965,233.401 413.786,236.844 415.606,240.334 417.426,243.869 419.246,247.45 421.067,251.076 422.887,254.748 424.707,258.464 426.527,262.226 428.348,266.031 430.168,269.88 431.988,273.772 433.808,277.706 435.629,281.683 437.449,285.702 439.269,289.761 441.089,293.861 442.91,298.001 444.73,302.179 446.55,306.396 448.37,310.65 450.191,314.941 452.011,319.267 453.831,323.629 455.651,328.024 457.472,332.453 459.292,336.913 461.112,341.405 462.932,345.927 464.753,350.478 466.573,355.058 468.393,359.665 470.214,364.297 472.034,368.954 473.854,373.634 475.674,378.335 477.495,383.057 479.315,387.798 481.135,392.557 482.955,397.333 484.776,402.123 486.596,406.928 488.416,411.745 490.236,416.573 492.057,421.411 493.877,426.258 495.697,431.112 497.517,435.972 499.338,440.837 501.158,445.705 502.978,450.576 504.798,455.447 506.619,460.318 508.439,465.187 510.259,470.052 512.079,474.914 513.9,479.77 515.72,484.618 517.54,489.459 519.36,494.29 521.181,499.11 523.001,503.918 524.821,508.712 526.641,513.492 528.462,518.256 530.282,523.003 532.102,527.73 533.922,532.439 535.743,537.127 537.563,541.794 539.383,546.438 541.203,551.059 543.024,555.655 544.844,560.227 546.664,564.772 548.484,569.29 550.305,573.78 552.125,578.241 553.945,582.672 555.765,587.074 557.586,591.444 559.406,595.783 561.226,600.089 563.046,604.363 564.867,608.603 566.687,612.808 568.507,616.979 570.327,621.115 572.148,625.215 573.968,629.279 575.788,633.306 577.608,637.296 579.429,641.249 581.249,645.164 583.069,649.042 584.89,652.881 586.71,656.682 588.53,660.444 590.35,664.167 592.171,667.851 593.991,671.496 595.811,675.102 597.631,678.669 599.452,682.196 601.272,685.684 603.092,689.133 604.912,692.542 606.733,695.911 608.553,699.24 610.373,702.53 612.193,705.781 614.014,708.992 615.834,712.164 617.654,715.298 619.474,718.392 621.295,721.449 623.115,724.467 624.935,727.447 626.755,730.389 628.576,733.293 630.396,736.16 632.216,738.99 634.036,741.783 635.857,744.539 637.677,747.258 639.497,749.941 641.317,752.589 643.138,755.2 644.958,757.776 646.778,760.317 648.598,762.823 650.419,765.295 652.239,767.732 654.059,770.135 655.879,772.504 657.7,774.84 659.52,777.143 661.34,779.413 663.16,781.65 664.981,783.856 666.801,786.03 668.621,788.172 670.441,790.283 672.262,792.363 674.082,794.414 675.902,796.434 677.722,798.424 679.543,800.385 681.363,802.318 683.183,804.222 685.003,806.098 686.824,807.946 688.644,809.767 690.464,811.561 692.284,813.328 694.105,815.068 695.925,816.783 697.745,818.471 699.566,820.135 701.386,821.773 703.206,823.387 705.026,824.976 706.847,826.541 708.667,828.083 710.487,829.601 712.307,831.097 714.128,832.569 715.948,834.019 717.768,835.447 719.588,836.854 721.409,838.239 723.229,839.603 725.049,840.946 726.869,842.268 728.69,843.571 730.51,844.853 732.33,846.116 734.15,847.359 735.971,848.583 737.791,849.789 739.611,850.976 741.431,852.145 743.252,853.295 745.072,854.428 746.892,855.544 748.712,856.642 750.533,857.724 752.353,858.789 754.173,859.837 755.993,860.869 757.814,861.885 759.634,862.886 761.454,863.871 763.274,864.841 765.095,865.796 766.915,866.736 768.735,867.661 770.555,868.572 772.376,869.469 774.196,870.352 776.016,871.221 777.836,872.077 779.657,872.92 781.477,873.749 783.297,874.566 785.117,875.37 786.938,876.162 788.758,876.942 790.578,877.709 792.398,878.465 794.219,879.209 796.039,879.941 797.859,880.662 799.679,881.372 801.5,882.071 803.32,882.759 805.14,883.437 806.96,884.104 808.781,884.76 810.601,885.407 812.421,886.043 814.241,886.67 816.062,887.286 817.882,887.894 819.702,888.492 821.523,889.08 823.343,889.66 825.163,890.231 826.983,890.792 828.804,891.345 830.624,891.89 832.444,892.426 834.264,892.954 836.085,893.474 837.905,893.986 839.725,894.49 841.545,894.986 843.366,895.474 845.186,895.955 847.006,896.429 848.826,896.895 850.647,897.354 852.467,897.806 854.287,898.252 856.107,898.69 857.928,899.122 859.748,899.547 861.568,899.965 863.388,900.377 865.209,900.783 867.029,901.183 868.849,901.576 870.669,901.964 872.49,902.345 874.31,902.721 876.13,903.091 877.95,903.456 879.771,903.815 881.591,904.168 883.411,904.516 885.231,904.859 887.052,905.197 888.872,905.53 890.692,905.857 892.512,906.179 894.333,906.497 896.153,906.81 897.973,907.117 899.793,907.421 901.614,907.719 903.434,908.013 905.254,908.302 907.074,908.587 908.895,908.868 910.715,909.144 912.535,909.416 914.355,909.684 916.176,909.948 917.996,910.207 919.816,910.463 921.636,910.715 923.457,910.963 925.277,911.207 927.097,911.447 928.917,911.684 930.738,911.916 932.558,912.146 934.378,912.372 936.199,912.594 938.019,912.813 939.839,913.029 941.659,913.241 943.48,913.45 945.3,913.656 947.12,913.859 948.94,914.059 950.761,914.255 952.581,914.449 954.401,914.64 956.221,914.827 958.042,915.012 959.862,915.195 961.682,915.374 963.502,915.551 965.323,915.725 967.143,915.896 968.963,916.065 970.783,916.231 972.604,916.395 974.424,916.557 976.244,916.716 978.064,916.872 979.885,917.026 981.705,917.178 983.525,917.328 985.345,917.476 987.166,917.621 988.986,917.764 990.806,917.905 992.626,918.044 994.447,918.181 996.267,918.316 998.087,918.449 999.907,918.58 1001.73,918.708 1003.55,918.835 1005.37,918.96 1007.19,919.083 1009.01,919.205 1010.83,919.324 1012.65,919.442 1014.47,919.557 1016.29,919.671 1018.11,919.784 1019.93,919.894 1021.75,920.003 1023.57,920.111 1025.39,920.216 1027.21,920.321 1029.03,920.423 1030.85,920.524 1032.67,920.623 1034.49,920.721 1036.31,920.818 1038.13,920.913 1039.95,921.006 1041.77,921.099 1043.59,921.189 1045.41,921.279 1047.23,921.367 1049.05,921.454 1050.87,921.539 1052.69,921.623 1054.52,921.706 1056.34,921.788 1058.16,921.868 1059.98,921.947 1061.8,922.025 1063.62,922.102 1065.44,922.178 1067.26,922.252 1069.08,922.326 1070.9,922.398 1072.72,922.469 1074.54,922.539 1076.36,922.609 1078.18,922.677 1080,922.744 1081.82,922.81 1083.64,922.875 1085.46,922.939 1087.28,923.003 1089.1,923.065 1090.92,923.126 1092.74,923.187 1094.56,923.246 1096.38,923.305 1098.2,923.363 1100.02,923.419 1101.84,923.476 1103.66,923.531 1105.48,923.585 1107.3,923.639 1109.12,923.692 1110.94,923.744 1112.76,923.795 1114.58,923.845 1116.4,923.895 1118.22,923.944 1120.04,923.992 1121.86,924.039 1123.68,924.086 1125.5,924.132 1127.33,924.178 1129.15,924.222 1130.97,924.266 1132.79,924.31 1134.61,924.352 1136.43,924.394 1138.25,924.436 1140.07,924.476 1141.89,924.517 1143.71,924.556 1145.53,924.595 1147.35,924.633 1149.17,924.671 1150.99,924.708 1152.81,924.745 1154.63,924.781 1156.45,924.817 1158.27,924.852 1160.09,924.886 1161.91,924.92 1163.73,924.954 1165.55,924.987 1167.37,925.019 1169.19,925.051 1171.01,925.083 1172.83,925.114 1174.65,925.144 1176.47,925.174 1178.29,925.204 1180.11,925.233 1181.93,925.262 1183.75,925.291 1185.57,925.319 1187.39,925.346 1189.21,925.373 1191.03,925.4 1192.85,925.426 1194.67,925.452 1196.49,925.478 1198.32,925.503 1200.14,925.528 1201.96,925.553 1203.78,925.577 1205.6,925.6 1207.42,925.624 1209.24,925.647 1211.06,925.67 1212.88,925.692 1214.7,925.714 1216.52,925.736 1218.34,925.757 1220.16,925.778 1221.98,925.799 1223.8,925.819 1225.62,925.839 1227.44,925.859 1229.26,925.879 1231.08,925.898 1232.9,925.917 1234.72,925.936 1236.54,925.954 1238.36,925.972 1240.18,925.99 1242,926.007 1243.82,926.025 1245.64,926.042 1247.46,926.058 1249.28,926.075 1251.1,926.091 1252.92,926.107 1254.74,926.123 1256.56,926.139 1258.38,926.154 1260.2,926.169 1262.02,926.184 1263.84,926.199 1265.66,926.213 1267.48,926.227 1269.3,926.241 1271.13,926.255 1272.95,926.269 1274.77,926.282 1276.59,926.295 1278.41,926.308 1280.23,926.321 1282.05,926.334 1283.87,926.346 1285.69,926.358 1287.51,926.37 1289.33,926.382 1291.15,926.394 1292.97,926.405 1294.79,926.417 1296.61,926.428 1298.43,926.439 1300.25,926.45 1302.07,926.461 1303.89,926.471 1305.71,926.481 1307.53,926.492 1309.35,926.502 1311.17,926.512 1312.99,926.522 1314.81,926.531 1316.63,926.541 1318.45,926.55 1320.27,926.559 1322.09,926.568 1323.91,926.577 1325.73,926.586 1327.55,926.595 1329.37,926.603 1331.19,926.612 1333.01,926.62 1334.83,926.628 1336.65,926.636 1338.47,926.644 1340.29,926.652 1342.12,926.66 1343.94,926.667 1345.76,926.675 1347.58,926.682 1349.4,926.689 1351.22,926.696 1353.04,926.703 1354.86,926.71 1356.68,926.717 1358.5,926.724 1360.32,926.73 1362.14,926.737 1363.96,926.743 1365.78,926.75 1367.6,926.756 1369.42,926.762 1371.24,926.768 1373.06,926.774 1374.88,926.78 1376.7,926.786 1378.52,926.791 1380.34,926.797 1382.16,926.802 1383.98,926.808 1385.8,926.813 1387.62,926.818 1389.44,926.824 1391.26,926.829 1393.08,926.834 1394.9,926.839 1396.72,926.844 1398.54,926.848 1400.36,926.853 1402.18,926.858 1404,926.862 1405.82,926.867 1407.64,926.871 1409.46,926.876 1411.28,926.88 1413.11,926.885 1414.93,926.889 1416.75,926.893 1418.57,926.897 1420.39,926.901 1422.21,926.905 1424.03,926.909 1425.85,926.913 1427.67,926.917 1429.49,926.92 1431.31,926.924 1433.13,926.928 1434.95,926.931 1436.77,926.935 1438.59,926.938 1440.41,926.942 1442.23,926.945 1444.05,926.948 1445.87,926.952 1447.69,926.955 1449.51,926.958 1451.33,926.961 1453.15,926.964 1454.97,926.967 1456.79,926.97 1458.61,926.973 1460.43,926.976 1462.25,926.979 1464.07,926.982 1465.89,926.984 1467.71,926.987 1469.53,926.99 1471.35,926.993 1473.17,926.995 1474.99,926.998 1476.81,927 1478.63,927.003 1480.45,927.005 1482.27,927.008 1484.09,927.01 1485.92,927.012 1487.74,927.015 1489.56,927.017 1491.38,927.019 1493.2,927.021 1495.02,927.023 1496.84,927.026 1498.66,927.028 1500.48,927.03 1502.3,927.032 1504.12,927.034 1505.94,927.036 1507.76,927.038 1509.58,927.04 1511.4,927.042 1513.22,927.044 1515.04,927.045 1516.86,927.047 1518.68,927.049 1520.5,927.051 1522.32,927.052 1524.14,927.054 1525.96,927.056 1527.78,927.058 1529.6,927.059 1531.42,927.061 1533.24,927.062 1535.06,927.064 1536.88,927.066 1538.7,927.067 1540.52,927.069 1542.34,927.07 1544.16,927.071 1545.98,927.073 1547.8,927.074 1549.62,927.076 1551.44,927.077 1553.26,927.078 1555.08,927.08 1556.91,927.081 1558.73,927.082 1560.55,927.084 1562.37,927.085 1564.19,927.086 1566.01,927.087 1567.83,927.089 1569.65,927.09 1571.47,927.091 1573.29,927.092 1575.11,927.093 1576.93,927.094 1578.75,927.095 1580.57,927.096 1582.39,927.097 1584.21,927.099 1586.03,927.1 1587.85,927.101 1589.67,927.102 1591.49,927.103 1593.31,927.103 1595.13,927.104 1596.95,927.105 1598.77,927.106 1600.59,927.107 1602.41,927.108 1604.23,927.109 1606.05,927.11 1607.87,927.111 1609.69,927.112 1611.51,927.112 1613.33,927.113 1615.15,927.114 1616.97,927.115 1618.79,927.116 1620.61,927.116 1622.43,927.117 1624.25,927.118 1626.07,927.119 1627.89,927.119 1629.72,927.12 1631.54,927.121 1633.36,927.121 1635.18,927.122 1637,927.123 1638.82,927.123 1640.64,927.124 1642.46,927.125 1644.28,927.125 1646.1,927.126 1647.92,927.127 1649.74,927.127 1651.56,927.128 1653.38,927.128 1655.2,927.129 1657.02,927.13 1658.84,927.13 1660.66,927.131 1662.48,927.131 1664.3,927.132 1666.12,927.132 1667.94,927.133 1669.76,927.133 1671.58,927.134 1673.4,927.134 1675.22,927.135 1677.04,927.135 1678.86,927.136 1680.68,927.136 1682.5,927.137 1684.32,927.137 1686.14,927.138 1687.96,927.138 1689.78,927.139 1691.6,927.139 1693.42,927.139 1695.24,927.14 1697.06,927.14 1698.88,927.141 1700.71,927.141 1702.53,927.141 1704.35,927.142 1706.17,927.142 1707.99,927.143 1709.81,927.143 1711.63,927.143 1713.45,927.144 1715.27,927.144 1717.09,927.144 1718.91,927.145 1720.73,927.145 1722.55,927.145 1724.37,927.146 1726.19,927.146 1728.01,927.146 1729.83,927.147 1731.65,927.147 1733.47,927.147 1735.29,927.148 1737.11,927.148 1738.93,927.148 1740.75,927.149 1742.57,927.149 1744.39,927.149 1746.21,927.149 1748.03,927.15 1749.85,927.15 1751.67,927.15 1753.49,927.15 1755.31,927.151 1757.13,927.151 1758.95,927.151 1760.77,927.151 1762.59,927.152 1764.41,927.152 1766.23,927.152 1768.05,927.152 1769.87,927.153 1771.7,927.153 1773.52,927.153 1775.34,927.153 1777.16,927.153 1778.98,927.154 1780.8,927.154 1782.62,927.154 1784.44,927.154 1786.26,927.154 1788.08,927.155 1789.9,927.155 1791.72,927.155 1793.54,927.155 1795.36,927.155 1797.18,927.156 1799,927.156 1800.82,927.156 1802.64,927.156 1804.46,927.156 1806.28,927.156 1808.1,927.157 1809.92,927.157 1811.74,927.157 1813.56,927.157 1815.38,927.157 1817.2,927.157 1819.02,927.158 1820.84,927.158 1822.66,927.158 1824.48,927.158 1826.3,927.158 1828.12,927.158 1829.94,927.158 1831.76,927.159 1833.58,927.159 1835.4,927.159 1837.22,927.159 1839.04,927.159 1840.86,927.159 1842.68,927.159 1844.51,927.159 1846.33,927.16 1848.15,927.16 1849.97,927.16 1851.79,927.16 1853.61,927.16 1855.43,927.16 1857.25,927.16 1859.07,927.16 1860.89,927.16 1862.71,927.161 1864.53,927.161 1866.35,927.161 1868.17,927.161 1869.99,927.161 1871.81,927.161 1873.63,927.161 1875.45,927.161 1877.27,927.161 1879.09,927.161 1880.91,927.162 1882.73,927.162 1884.55,927.162 1886.37,927.162 1888.19,927.162 1890.01,927.162 1891.83,927.162 1893.65,927.162 1895.47,927.162 1897.29,927.162 1899.11,927.162 1900.93,927.162 1902.75,927.162 1904.57,927.163 1906.39,927.163 1908.21,927.163 1910.03,927.163 1911.85,927.163 1913.67,927.163 1915.5,927.163 1917.32,927.163 1919.14,927.163 1920.96,927.163 1922.78,927.163 1924.6,927.163 1926.42,927.163 1928.24,927.163 1930.06,927.163 1931.88,927.164 1933.7,927.164 1935.52,927.164 1937.34,927.164 1939.16,927.164 1940.98,927.164 1942.8,927.164 1944.62,927.164 1946.44,927.164 1948.26,927.164 1950.08,927.164 1951.9,927.164 1953.72,927.164 1955.54,927.164 1957.36,927.164 1959.18,927.164 1961,927.164 1962.82,927.164 1964.64,927.164 1966.46,927.165 1968.28,927.165 1970.1,927.165 1971.92,927.165 1973.74,927.165 1975.56,927.165 1977.38,927.165 1979.2,927.165 1981.02,927.165 1982.84,927.165 1984.66,927.165 1986.48,927.165 1988.31,927.165 1990.13,927.165 1991.95,927.165 1993.77,927.165 1995.59,927.165 1997.41,927.165 1999.23,927.165 2001.05,927.165 2002.87,927.165 2004.69,927.165 2006.51,927.165 2008.33,927.165 2010.15,927.165 2011.97,927.165 2013.79,927.165 2015.61,927.166 2017.43,927.166 2019.25,927.166 2021.07,927.166 2022.89,927.166 2024.71,927.166 2026.53,927.166 2028.35,927.166 2030.17,927.166 2031.99,927.166 2033.81,927.166 2035.63,927.166 2037.45,927.166 2039.27,927.166 2041.09,927.166 2042.91,927.166 2044.73,927.166 2046.55,927.166 2048.37,927.166 2050.19,927.166 2052.01,927.166 2053.83,927.166 2055.65,927.166 2057.47,927.166 2059.3,927.166 2061.12,927.166 2062.94,927.166 2064.76,927.166 "/>
<polyline clip-path="url(#clip922)" style="stroke:#e26f46; stroke-linecap:round; stroke-linejoin:round; stroke-width:6; stroke-opacity:1; fill:none" points="244.502,1130.86 246.322,1130.6 248.143,1130.33 249.963,1130.05 251.783,1129.76 253.603,1129.47 255.424,1129.17 257.244,1128.86 259.064,1128.55 260.884,1128.23 262.705,1127.9 264.525,1127.57 266.345,1127.22 268.165,1126.87 269.986,1126.51 271.806,1126.15 273.626,1125.77 275.446,1125.39 277.267,1124.99 279.087,1124.59 280.907,1124.18 282.727,1123.76 284.548,1123.33 286.368,1122.89 288.188,1122.44 290.008,1121.98 291.829,1121.51 293.649,1121.03 295.469,1120.54 297.289,1120.04 299.11,1119.53 300.93,1119.01 302.75,1118.48 304.57,1117.93 306.391,1117.38 308.211,1116.81 310.031,1116.23 311.851,1115.64 313.672,1115.03 315.492,1114.41 317.312,1113.78 319.132,1113.14 320.953,1112.49 322.773,1111.82 324.593,1111.14 326.413,1110.44 328.234,1109.73 330.054,1109.01 331.874,1108.27 333.694,1107.52 335.515,1106.76 337.335,1105.98 339.155,1105.18 340.975,1104.37 342.796,1103.55 344.616,1102.71 346.436,1101.86 348.257,1100.99 350.077,1100.1 351.897,1099.2 353.717,1098.29 355.538,1097.35 357.358,1096.41 359.178,1095.44 360.998,1094.47 362.819,1093.47 364.639,1092.46 366.459,1091.43 368.279,1090.39 370.1,1089.33 371.92,1088.26 373.74,1087.17 375.56,1086.06 377.381,1084.94 379.201,1083.8 381.021,1082.65 382.841,1081.48 384.662,1080.29 386.482,1079.09 388.302,1077.87 390.122,1076.64 391.943,1075.4 393.763,1074.14 395.583,1072.86 397.403,1071.57 399.224,1070.27 401.044,1068.95 402.864,1067.62 404.684,1066.28 406.505,1064.92 408.325,1063.55 410.145,1062.17 411.965,1060.77 413.786,1059.37 415.606,1057.95 417.426,1056.53 419.246,1055.09 421.067,1053.64 422.887,1052.19 424.707,1050.73 426.527,1049.26 428.348,1047.78 430.168,1046.29 431.988,1044.8 433.808,1043.31 435.629,1041.81 437.449,1040.3 439.269,1038.79 441.089,1037.28 442.91,1035.77 444.73,1034.26 446.55,1032.74 448.37,1031.23 450.191,1029.71 452.011,1028.2 453.831,1026.7 455.651,1025.19 457.472,1023.69 459.292,1022.2 461.112,1020.71 462.932,1019.23 464.753,1017.76 466.573,1016.29 468.393,1014.84 470.214,1013.39 472.034,1011.96 473.854,1010.54 475.674,1009.13 477.495,1007.74 479.315,1006.36 481.135,1005 482.955,1003.66 484.776,1002.33 486.596,1001.03 488.416,999.739 490.236,998.472 492.057,997.228 493.877,996.005 495.697,994.805 497.517,993.629 499.338,992.477 501.158,991.351 502.978,990.249 504.798,989.175 506.619,988.127 508.439,987.107 510.259,986.116 512.079,985.153 513.9,984.22 515.72,983.317 517.54,982.444 519.36,981.602 521.181,980.792 523.001,980.014 524.821,979.269 526.641,978.556 528.462,977.877 530.282,977.232 532.102,976.621 533.922,976.044 535.743,975.502 537.563,974.995 539.383,974.522 541.203,974.084 543.024,973.681 544.844,973.313 546.664,972.98 548.484,972.682 550.305,972.418 552.125,972.189 553.945,971.995 555.765,971.836 557.586,971.711 559.406,971.62 561.226,971.563 563.046,971.541 564.867,971.552 566.687,971.596 568.507,971.673 570.327,971.784 572.148,971.927 573.968,972.102 575.788,972.309 577.608,972.548 579.429,972.817 581.249,973.118 583.069,973.448 584.89,973.808 586.71,974.197 588.53,974.615 590.35,975.061 592.171,975.535 593.991,976.036 595.811,976.563 597.631,977.115 599.452,977.693 601.272,978.295 603.092,978.921 604.912,979.571 606.733,980.244 608.553,980.939 610.373,981.656 612.193,982.394 614.014,983.152 615.834,983.931 617.654,984.728 619.474,985.544 621.295,986.378 623.115,987.229 624.935,988.097 626.755,988.981 628.576,989.88 630.396,990.794 632.216,991.723 634.036,992.665 635.857,993.62 637.677,994.588 639.497,995.568 641.317,996.559 643.138,997.561 644.958,998.574 646.778,999.596 648.598,1000.63 650.419,1001.67 652.239,1002.72 654.059,1003.77 655.879,1004.84 657.7,1005.91 659.52,1006.98 661.34,1008.07 663.16,1009.15 664.981,1010.25 666.801,1011.34 668.621,1012.44 670.441,1013.55 672.262,1014.66 674.082,1015.77 675.902,1016.88 677.722,1017.99 679.543,1019.11 681.363,1020.22 683.183,1021.34 685.003,1022.46 686.824,1023.57 688.644,1024.69 690.464,1025.8 692.284,1026.92 694.105,1028.03 695.925,1029.14 697.745,1030.25 699.566,1031.35 701.386,1032.45 703.206,1033.55 705.026,1034.65 706.847,1035.75 708.667,1036.84 710.487,1037.92 712.307,1039 714.128,1040.08 715.948,1041.16 717.768,1042.23 719.588,1043.29 721.409,1044.35 723.229,1045.4 725.049,1046.45 726.869,1047.5 728.69,1048.53 730.51,1049.56 732.33,1050.59 734.15,1051.61 735.971,1052.62 737.791,1053.63 739.611,1054.63 741.431,1055.62 743.252,1056.61 745.072,1057.59 746.892,1058.56 748.712,1059.53 750.533,1060.49 752.353,1061.44 754.173,1062.38 755.993,1063.32 757.814,1064.25 759.634,1065.17 761.454,1066.09 763.274,1066.99 765.095,1067.89 766.915,1068.79 768.735,1069.67 770.555,1070.55 772.376,1071.41 774.196,1072.27 776.016,1073.13 777.836,1073.97 779.657,1074.81 781.477,1075.64 783.297,1076.46 785.117,1077.28 786.938,1078.08 788.758,1078.88 790.578,1079.67 792.398,1080.45 794.219,1081.23 796.039,1082 797.859,1082.76 799.679,1083.51 801.5,1084.25 803.32,1084.99 805.14,1085.72 806.96,1086.44 808.781,1087.15 810.601,1087.86 812.421,1088.56 814.241,1089.25 816.062,1089.93 817.882,1090.61 819.702,1091.28 821.523,1091.94 823.343,1092.59 825.163,1093.24 826.983,1093.88 828.804,1094.51 830.624,1095.13 832.444,1095.75 834.264,1096.36 836.085,1096.96 837.905,1097.56 839.725,1098.15 841.545,1098.73 843.366,1099.31 845.186,1099.88 847.006,1100.44 848.826,1101 850.647,1101.54 852.467,1102.09 854.287,1102.62 856.107,1103.15 857.928,1103.67 859.748,1104.19 861.568,1104.7 863.388,1105.2 865.209,1105.7 867.029,1106.19 868.849,1106.68 870.669,1107.16 872.49,1107.63 874.31,1108.1 876.13,1108.56 877.95,1109.02 879.771,1109.47 881.591,1109.91 883.411,1110.35 885.231,1110.79 887.052,1111.21 888.872,1111.64 890.692,1112.05 892.512,1112.47 894.333,1112.87 896.153,1113.27 897.973,1113.67 899.793,1114.06 901.614,1114.45 903.434,1114.83 905.254,1115.2 907.074,1115.57 908.895,1115.94 910.715,1116.3 912.535,1116.66 914.355,1117.01 916.176,1117.36 917.996,1117.7 919.816,1118.04 921.636,1118.37 923.457,1118.7 925.277,1119.03 927.097,1119.35 928.917,1119.66 930.738,1119.97 932.558,1120.28 934.378,1120.58 936.199,1120.88 938.019,1121.18 939.839,1121.47 941.659,1121.75 943.48,1122.04 945.3,1122.32 947.12,1122.59 948.94,1122.86 950.761,1123.13 952.581,1123.39 954.401,1123.65 956.221,1123.91 958.042,1124.16 959.862,1124.41 961.682,1124.66 963.502,1124.9 965.323,1125.14 967.143,1125.38 968.963,1125.61 970.783,1125.84 972.604,1126.07 974.424,1126.29 976.244,1126.51 978.064,1126.73 979.885,1126.94 981.705,1127.15 983.525,1127.36 985.345,1127.57 987.166,1127.77 988.986,1127.97 990.806,1128.17 992.626,1128.36 994.447,1128.55 996.267,1128.74 998.087,1128.93 999.907,1129.11 1001.73,1129.29 1003.55,1129.47 1005.37,1129.65 1007.19,1129.82 1009.01,1129.99 1010.83,1130.16 1012.65,1130.33 1014.47,1130.49 1016.29,1130.65 1018.11,1130.81 1019.93,1130.97 1021.75,1131.12 1023.57,1131.28 1025.39,1131.43 1027.21,1131.58 1029.03,1131.72 1030.85,1131.87 1032.67,1132.01 1034.49,1132.15 1036.31,1132.29 1038.13,1132.42 1039.95,1132.56 1041.77,1132.69 1043.59,1132.82 1045.41,1132.95 1047.23,1133.07 1049.05,1133.2 1050.87,1133.32 1052.69,1133.44 1054.52,1133.56 1056.34,1133.68 1058.16,1133.79 1059.98,1133.91 1061.8,1134.02 1063.62,1134.13 1065.44,1134.24 1067.26,1134.35 1069.08,1134.46 1070.9,1134.56 1072.72,1134.66 1074.54,1134.77 1076.36,1134.87 1078.18,1134.96 1080,1135.06 1081.82,1135.16 1083.64,1135.25 1085.46,1135.35 1087.28,1135.44 1089.1,1135.53 1090.92,1135.62 1092.74,1135.71 1094.56,1135.79 1096.38,1135.88 1098.2,1135.96 1100.02,1136.05 1101.84,1136.13 1103.66,1136.21 1105.48,1136.29 1107.3,1136.37 1109.12,1136.44 1110.94,1136.52 1112.76,1136.59 1114.58,1136.67 1116.4,1136.74 1118.22,1136.81 1120.04,1136.88 1121.86,1136.95 1123.68,1137.02 1125.5,1137.09 1127.33,1137.16 1129.15,1137.22 1130.97,1137.29 1132.79,1137.35 1134.61,1137.41 1136.43,1137.47 1138.25,1137.53 1140.07,1137.59 1141.89,1137.65 1143.71,1137.71 1145.53,1137.77 1147.35,1137.83 1149.17,1137.88 1150.99,1137.94 1152.81,1137.99 1154.63,1138.04 1156.45,1138.1 1158.27,1138.15 1160.09,1138.2 1161.91,1138.25 1163.73,1138.3 1165.55,1138.35 1167.37,1138.4 1169.19,1138.44 1171.01,1138.49 1172.83,1138.53 1174.65,1138.58 1176.47,1138.62 1178.29,1138.67 1180.11,1138.71 1181.93,1138.75 1183.75,1138.8 1185.57,1138.84 1187.39,1138.88 1189.21,1138.92 1191.03,1138.96 1192.85,1139 1194.67,1139.04 1196.49,1139.07 1198.32,1139.11 1200.14,1139.15 1201.96,1139.19 1203.78,1139.22 1205.6,1139.26 1207.42,1139.29 1209.24,1139.32 1211.06,1139.36 1212.88,1139.39 1214.7,1139.42 1216.52,1139.46 1218.34,1139.49 1220.16,1139.52 1221.98,1139.55 1223.8,1139.58 1225.62,1139.61 1227.44,1139.64 1229.26,1139.67 1231.08,1139.7 1232.9,1139.73 1234.72,1139.75 1236.54,1139.78 1238.36,1139.81 1240.18,1139.83 1242,1139.86 1243.82,1139.89 1245.64,1139.91 1247.46,1139.94 1249.28,1139.96 1251.1,1139.99 1252.92,1140.01 1254.74,1140.03 1256.56,1140.06 1258.38,1140.08 1260.2,1140.1 1262.02,1140.12 1263.84,1140.15 1265.66,1140.17 1267.48,1140.19 1269.3,1140.21 1271.13,1140.23 1272.95,1140.25 1274.77,1140.27 1276.59,1140.29 1278.41,1140.31 1280.23,1140.33 1282.05,1140.35 1283.87,1140.37 1285.69,1140.38 1287.51,1140.4 1289.33,1140.42 1291.15,1140.44 1292.97,1140.45 1294.79,1140.47 1296.61,1140.49 1298.43,1140.5 1300.25,1140.52 1302.07,1140.54 1303.89,1140.55 1305.71,1140.57 1307.53,1140.58 1309.35,1140.6 1311.17,1140.61 1312.99,1140.63 1314.81,1140.64 1316.63,1140.66 1318.45,1140.67 1320.27,1140.68 1322.09,1140.7 1323.91,1140.71 1325.73,1140.72 1327.55,1140.74 1329.37,1140.75 1331.19,1140.76 1333.01,1140.78 1334.83,1140.79 1336.65,1140.8 1338.47,1140.81 1340.29,1140.82 1342.12,1140.83 1343.94,1140.85 1345.76,1140.86 1347.58,1140.87 1349.4,1140.88 1351.22,1140.89 1353.04,1140.9 1354.86,1140.91 1356.68,1140.92 1358.5,1140.93 1360.32,1140.94 1362.14,1140.95 1363.96,1140.96 1365.78,1140.97 1367.6,1140.98 1369.42,1140.99 1371.24,1141 1373.06,1141.01 1374.88,1141.01 1376.7,1141.02 1378.52,1141.03 1380.34,1141.04 1382.16,1141.05 1383.98,1141.06 1385.8,1141.06 1387.62,1141.07 1389.44,1141.08 1391.26,1141.09 1393.08,1141.1 1394.9,1141.1 1396.72,1141.11 1398.54,1141.12 1400.36,1141.12 1402.18,1141.13 1404,1141.14 1405.82,1141.15 1407.64,1141.15 1409.46,1141.16 1411.28,1141.17 1413.11,1141.17 1414.93,1141.18 1416.75,1141.18 1418.57,1141.19 1420.39,1141.2 1422.21,1141.2 1424.03,1141.21 1425.85,1141.21 1427.67,1141.22 1429.49,1141.23 1431.31,1141.23 1433.13,1141.24 1434.95,1141.24 1436.77,1141.25 1438.59,1141.25 1440.41,1141.26 1442.23,1141.26 1444.05,1141.27 1445.87,1141.27 1447.69,1141.28 1449.51,1141.28 1451.33,1141.29 1453.15,1141.29 1454.97,1141.3 1456.79,1141.3 1458.61,1141.3 1460.43,1141.31 1462.25,1141.31 1464.07,1141.32 1465.89,1141.32 1467.71,1141.33 1469.53,1141.33 1471.35,1141.33 1473.17,1141.34 1474.99,1141.34 1476.81,1141.35 1478.63,1141.35 1480.45,1141.35 1482.27,1141.36 1484.09,1141.36 1485.92,1141.36 1487.74,1141.37 1489.56,1141.37 1491.38,1141.37 1493.2,1141.38 1495.02,1141.38 1496.84,1141.38 1498.66,1141.39 1500.48,1141.39 1502.3,1141.39 1504.12,1141.4 1505.94,1141.4 1507.76,1141.4 1509.58,1141.4 1511.4,1141.41 1513.22,1141.41 1515.04,1141.41 1516.86,1141.42 1518.68,1141.42 1520.5,1141.42 1522.32,1141.42 1524.14,1141.43 1525.96,1141.43 1527.78,1141.43 1529.6,1141.43 1531.42,1141.44 1533.24,1141.44 1535.06,1141.44 1536.88,1141.44 1538.7,1141.45 1540.52,1141.45 1542.34,1141.45 1544.16,1141.45 1545.98,1141.45 1547.8,1141.46 1549.62,1141.46 1551.44,1141.46 1553.26,1141.46 1555.08,1141.46 1556.91,1141.47 1558.73,1141.47 1560.55,1141.47 1562.37,1141.47 1564.19,1141.47 1566.01,1141.48 1567.83,1141.48 1569.65,1141.48 1571.47,1141.48 1573.29,1141.48 1575.11,1141.48 1576.93,1141.49 1578.75,1141.49 1580.57,1141.49 1582.39,1141.49 1584.21,1141.49 1586.03,1141.49 1587.85,1141.5 1589.67,1141.5 1591.49,1141.5 1593.31,1141.5 1595.13,1141.5 1596.95,1141.5 1598.77,1141.5 1600.59,1141.51 1602.41,1141.51 1604.23,1141.51 1606.05,1141.51 1607.87,1141.51 1609.69,1141.51 1611.51,1141.51 1613.33,1141.51 1615.15,1141.52 1616.97,1141.52 1618.79,1141.52 1620.61,1141.52 1622.43,1141.52 1624.25,1141.52 1626.07,1141.52 1627.89,1141.52 1629.72,1141.53 1631.54,1141.53 1633.36,1141.53 1635.18,1141.53 1637,1141.53 1638.82,1141.53 1640.64,1141.53 1642.46,1141.53 1644.28,1141.53 1646.1,1141.53 1647.92,1141.54 1649.74,1141.54 1651.56,1141.54 1653.38,1141.54 1655.2,1141.54 1657.02,1141.54 1658.84,1141.54 1660.66,1141.54 1662.48,1141.54 1664.3,1141.54 1666.12,1141.54 1667.94,1141.54 1669.76,1141.55 1671.58,1141.55 1673.4,1141.55 1675.22,1141.55 1677.04,1141.55 1678.86,1141.55 1680.68,1141.55 1682.5,1141.55 1684.32,1141.55 1686.14,1141.55 1687.96,1141.55 1689.78,1141.55 1691.6,1141.55 1693.42,1141.55 1695.24,1141.55 1697.06,1141.56 1698.88,1141.56 1700.71,1141.56 1702.53,1141.56 1704.35,1141.56 1706.17,1141.56 1707.99,1141.56 1709.81,1141.56 1711.63,1141.56 1713.45,1141.56 1715.27,1141.56 1717.09,1141.56 1718.91,1141.56 1720.73,1141.56 1722.55,1141.56 1724.37,1141.56 1726.19,1141.56 1728.01,1141.56 1729.83,1141.57 1731.65,1141.57 1733.47,1141.57 1735.29,1141.57 1737.11,1141.57 1738.93,1141.57 1740.75,1141.57 1742.57,1141.57 1744.39,1141.57 1746.21,1141.57 1748.03,1141.57 1749.85,1141.57 1751.67,1141.57 1753.49,1141.57 1755.31,1141.57 1757.13,1141.57 1758.95,1141.57 1760.77,1141.57 1762.59,1141.57 1764.41,1141.57 1766.23,1141.57 1768.05,1141.57 1769.87,1141.57 1771.7,1141.57 1773.52,1141.57 1775.34,1141.57 1777.16,1141.58 1778.98,1141.58 1780.8,1141.58 1782.62,1141.58 1784.44,1141.58 1786.26,1141.58 1788.08,1141.58 1789.9,1141.58 1791.72,1141.58 1793.54,1141.58 1795.36,1141.58 1797.18,1141.58 1799,1141.58 1800.82,1141.58 1802.64,1141.58 1804.46,1141.58 1806.28,1141.58 1808.1,1141.58 1809.92,1141.58 1811.74,1141.58 1813.56,1141.58 1815.38,1141.58 1817.2,1141.58 1819.02,1141.58 1820.84,1141.58 1822.66,1141.58 1824.48,1141.58 1826.3,1141.58 1828.12,1141.58 1829.94,1141.58 1831.76,1141.58 1833.58,1141.58 1835.4,1141.58 1837.22,1141.58 1839.04,1141.58 1840.86,1141.58 1842.68,1141.58 1844.51,1141.58 1846.33,1141.58 1848.15,1141.58 1849.97,1141.58 1851.79,1141.59 1853.61,1141.59 1855.43,1141.59 1857.25,1141.59 1859.07,1141.59 1860.89,1141.59 1862.71,1141.59 1864.53,1141.59 1866.35,1141.59 1868.17,1141.59 1869.99,1141.59 1871.81,1141.59 1873.63,1141.59 1875.45,1141.59 1877.27,1141.59 1879.09,1141.59 1880.91,1141.59 1882.73,1141.59 1884.55,1141.59 1886.37,1141.59 1888.19,1141.59 1890.01,1141.59 1891.83,1141.59 1893.65,1141.59 1895.47,1141.59 1897.29,1141.59 1899.11,1141.59 1900.93,1141.59 1902.75,1141.59 1904.57,1141.59 1906.39,1141.59 1908.21,1141.59 1910.03,1141.59 1911.85,1141.59 1913.67,1141.59 1915.5,1141.59 1917.32,1141.59 1919.14,1141.59 1920.96,1141.59 1922.78,1141.59 1924.6,1141.59 1926.42,1141.59 1928.24,1141.59 1930.06,1141.59 1931.88,1141.59 1933.7,1141.59 1935.52,1141.59 1937.34,1141.59 1939.16,1141.59 1940.98,1141.59 1942.8,1141.59 1944.62,1141.59 1946.44,1141.59 1948.26,1141.59 1950.08,1141.59 1951.9,1141.59 1953.72,1141.59 1955.54,1141.59 1957.36,1141.59 1959.18,1141.59 1961,1141.59 1962.82,1141.59 1964.64,1141.59 1966.46,1141.59 1968.28,1141.59 1970.1,1141.59 1971.92,1141.59 1973.74,1141.59 1975.56,1141.59 1977.38,1141.59 1979.2,1141.59 1981.02,1141.59 1982.84,1141.59 1984.66,1141.59 1986.48,1141.59 1988.31,1141.59 1990.13,1141.59 1991.95,1141.59 1993.77,1141.59 1995.59,1141.59 1997.41,1141.59 1999.23,1141.59 2001.05,1141.59 2002.87,1141.59 2004.69,1141.59 2006.51,1141.59 2008.33,1141.59 2010.15,1141.59 2011.97,1141.59 2013.79,1141.59 2015.61,1141.59 2017.43,1141.59 2019.25,1141.59 2021.07,1141.59 2022.89,1141.59 2024.71,1141.59 2026.53,1141.59 2028.35,1141.59 2030.17,1141.59 2031.99,1141.59 2033.81,1141.59 2035.63,1141.59 2037.45,1141.59 2039.27,1141.59 2041.09,1141.59 2042.91,1141.59 2044.73,1141.59 2046.55,1141.59 2048.37,1141.59 2050.19,1141.59 2052.01,1141.59 2053.83,1141.59 2055.65,1141.59 2057.47,1141.59 2059.3,1141.59 2061.12,1141.59 2062.94,1141.59 2064.76,1141.59 "/>
<polyline clip-path="url(#clip922)" style="stroke:#3da44d; stroke-linecap:round; stroke-linejoin:round; stroke-width:6; stroke-opacity:1; fill:none" points="244.502,1141.6 246.322,1141.06 248.143,1140.51 249.963,1139.94 251.783,1139.37 253.603,1138.77 255.424,1138.17 257.244,1137.55 259.064,1136.91 260.884,1136.26 262.705,1135.6 264.525,1134.91 266.345,1134.22 268.165,1133.5 269.986,1132.77 271.806,1132.02 273.626,1131.25 275.446,1130.47 277.267,1129.67 279.087,1128.84 280.907,1128 282.727,1127.14 284.548,1126.26 286.368,1125.36 288.188,1124.44 290.008,1123.49 291.829,1122.53 293.649,1121.54 295.469,1120.53 297.289,1119.5 299.11,1118.44 300.93,1117.36 302.75,1116.26 304.57,1115.13 306.391,1113.97 308.211,1112.79 310.031,1111.58 311.851,1110.35 313.672,1109.09 315.492,1107.8 317.312,1106.48 319.132,1105.14 320.953,1103.76 322.773,1102.36 324.593,1100.92 326.413,1099.46 328.234,1097.96 330.054,1096.43 331.874,1094.87 333.694,1093.28 335.515,1091.65 337.335,1089.99 339.155,1088.3 340.975,1086.57 342.796,1084.8 344.616,1083 346.436,1081.16 348.257,1079.29 350.077,1077.38 351.897,1075.43 353.717,1073.44 355.538,1071.42 357.358,1069.35 359.178,1067.25 360.998,1065.1 362.819,1062.92 364.639,1060.69 366.459,1058.42 368.279,1056.12 370.1,1053.76 371.92,1051.37 373.74,1048.93 375.56,1046.45 377.381,1043.93 379.201,1041.36 381.021,1038.74 382.841,1036.08 384.662,1033.38 386.482,1030.63 388.302,1027.84 390.122,1025 391.943,1022.11 393.763,1019.18 395.583,1016.21 397.403,1013.18 399.224,1010.11 401.044,1006.99 402.864,1003.83 404.684,1000.62 406.505,997.364 408.325,994.06 410.145,990.71 411.965,987.313 413.786,983.87 415.606,980.381 417.426,976.846 419.246,973.265 421.067,969.639 422.887,965.967 424.707,962.25 426.527,958.489 428.348,954.684 430.168,950.835 431.988,946.943 433.808,943.008 435.629,939.032 437.449,935.013 439.269,930.954 441.089,926.854 442.91,922.714 444.73,918.536 446.55,914.319 448.37,910.065 450.191,905.774 452.011,901.447 453.831,897.086 455.651,892.691 457.472,888.262 459.292,883.802 461.112,879.31 462.932,874.788 464.753,870.237 466.573,865.657 468.393,861.05 470.214,856.418 472.034,851.761 473.854,847.081 475.674,842.38 477.495,837.658 479.315,832.916 481.135,828.157 482.955,823.382 484.776,818.591 486.596,813.787 488.416,808.97 490.236,804.142 492.057,799.304 493.877,794.457 495.697,789.603 497.517,784.743 499.338,779.878 501.158,775.009 502.978,770.139 504.798,765.268 506.619,760.397 508.439,755.528 510.259,750.662 512.079,745.801 513.9,740.945 515.72,736.096 517.54,731.256 519.36,726.425 521.181,721.605 523.001,716.797 524.821,712.002 526.641,707.223 528.462,702.459 530.282,697.712 532.102,692.984 533.922,688.276 535.743,683.588 537.563,678.921 539.383,674.277 541.203,669.656 543.024,665.059 544.844,660.488 546.664,655.943 548.484,651.425 550.305,646.935 552.125,642.474 553.945,638.042 555.765,633.641 557.586,629.27 559.406,624.932 561.226,620.625 563.046,616.352 564.867,612.112 566.687,607.907 568.507,603.736 570.327,599.6 572.148,595.5 573.968,591.436 575.788,587.409 577.608,583.419 579.429,579.466 581.249,575.55 583.069,571.673 584.89,567.834 586.71,564.033 588.53,560.271 590.35,556.548 592.171,552.864 593.991,549.219 595.811,545.613 597.631,542.046 599.452,538.519 601.272,535.03 603.092,531.582 604.912,528.173 606.733,524.804 608.553,521.474 610.373,518.185 612.193,514.934 614.014,511.723 615.834,508.551 617.654,505.417 619.474,502.322 621.295,499.266 623.115,496.248 624.935,493.268 626.755,490.326 628.576,487.422 630.396,484.555 632.216,481.725 634.036,478.932 635.857,476.176 637.677,473.457 639.497,470.773 641.317,468.126 643.138,465.515 644.958,462.938 646.778,460.398 648.598,457.892 650.419,455.42 652.239,452.983 654.059,450.58 655.879,448.211 657.7,445.875 659.52,443.572 661.34,441.302 663.16,439.064 664.981,436.859 666.801,434.685 668.621,432.543 670.441,430.432 672.262,428.351 674.082,426.301 675.902,424.281 677.722,422.291 679.543,420.329 681.363,418.397 683.183,416.493 685.003,414.617 686.824,412.769 688.644,410.948 690.464,409.154 692.284,407.387 694.105,405.647 695.925,403.932 697.745,402.243 699.566,400.58 701.386,398.942 703.206,397.328 705.026,395.739 706.847,394.173 708.667,392.632 710.487,391.114 712.307,389.618 714.128,388.146 715.948,386.696 717.768,385.267 719.588,383.861 721.409,382.476 723.229,381.112 725.049,379.769 726.869,378.447 728.69,377.144 730.51,375.862 732.33,374.599 734.15,373.356 735.971,372.132 737.791,370.926 739.611,369.739 741.431,368.57 743.252,367.42 745.072,366.287 746.892,365.171 748.712,364.073 750.533,362.991 752.353,361.926 754.173,360.878 755.993,359.846 757.814,358.829 759.634,357.829 761.454,356.844 763.274,355.874 765.095,354.919 766.915,353.979 768.735,353.054 770.555,352.143 772.376,351.246 774.196,350.363 776.016,349.494 777.836,348.638 779.657,347.795 781.477,346.966 783.297,346.149 785.117,345.345 786.938,344.553 788.758,343.773 790.578,343.006 792.398,342.25 794.219,341.506 796.039,340.774 797.859,340.053 799.679,339.343 801.5,338.644 803.32,337.956 805.14,337.278 806.96,336.611 808.781,335.955 810.601,335.308 812.421,334.672 814.241,334.045 816.062,333.428 817.882,332.821 819.702,332.223 821.523,331.635 823.343,331.055 825.163,330.484 826.983,329.923 828.804,329.369 830.624,328.825 832.444,328.289 834.264,327.761 836.085,327.241 837.905,326.729 839.725,326.225 841.545,325.729 843.366,325.241 845.186,324.76 847.006,324.286 848.826,323.82 850.647,323.361 852.467,322.908 854.287,322.463 856.107,322.025 857.928,321.593 859.748,321.168 861.568,320.75 863.388,320.337 865.209,319.932 867.029,319.532 868.849,319.139 870.669,318.751 872.49,318.37 874.31,317.994 876.13,317.624 877.95,317.259 879.771,316.9 881.591,316.547 883.411,316.198 885.231,315.855 887.052,315.518 888.872,315.185 890.692,314.858 892.512,314.535 894.333,314.218 896.153,313.905 897.973,313.597 899.793,313.294 901.614,312.996 903.434,312.702 905.254,312.413 907.074,312.128 908.895,311.847 910.715,311.571 912.535,311.299 914.355,311.031 916.176,310.767 917.996,310.508 919.816,310.252 921.636,310 923.457,309.752 925.277,309.508 927.097,309.268 928.917,309.031 930.738,308.798 932.558,308.569 934.378,308.343 936.199,308.121 938.019,307.902 939.839,307.686 941.659,307.474 943.48,307.265 945.3,307.059 947.12,306.856 948.94,306.656 950.761,306.46 952.581,306.266 954.401,306.075 956.221,305.887 958.042,305.702 959.862,305.52 961.682,305.341 963.502,305.164 965.323,304.99 967.143,304.819 968.963,304.65 970.783,304.484 972.604,304.32 974.424,304.158 976.244,303.999 978.064,303.843 979.885,303.688 981.705,303.536 983.525,303.387 985.345,303.239 987.166,303.094 988.986,302.951 990.806,302.809 992.626,302.671 994.447,302.534 996.267,302.399 998.087,302.266 999.907,302.135 1001.73,302.006 1003.55,301.88 1005.37,301.755 1007.19,301.632 1009.01,301.51 1010.83,301.391 1012.65,301.273 1014.47,301.157 1016.29,301.043 1018.11,300.931 1019.93,300.82 1021.75,300.711 1023.57,300.604 1025.39,300.498 1027.21,300.394 1029.03,300.292 1030.85,300.191 1032.67,300.091 1034.49,299.993 1036.31,299.897 1038.13,299.802 1039.95,299.708 1041.77,299.616 1043.59,299.525 1045.41,299.436 1047.23,299.348 1049.05,299.261 1050.87,299.176 1052.69,299.092 1054.52,299.009 1056.34,298.927 1058.16,298.847 1059.98,298.768 1061.8,298.69 1063.62,298.613 1065.44,298.537 1067.26,298.463 1069.08,298.389 1070.9,298.317 1072.72,298.246 1074.54,298.175 1076.36,298.106 1078.18,298.038 1080,297.971 1081.82,297.905 1083.64,297.84 1085.46,297.776 1087.28,297.712 1089.1,297.65 1090.92,297.589 1092.74,297.528 1094.56,297.469 1096.38,297.41 1098.2,297.352 1100.02,297.295 1101.84,297.239 1103.66,297.184 1105.48,297.13 1107.3,297.076 1109.12,297.023 1110.94,296.971 1112.76,296.92 1114.58,296.87 1116.4,296.82 1118.22,296.771 1120.04,296.723 1121.86,296.675 1123.68,296.629 1125.5,296.583 1127.33,296.537 1129.15,296.493 1130.97,296.449 1132.79,296.405 1134.61,296.363 1136.43,296.321 1138.25,296.279 1140.07,296.238 1141.89,296.198 1143.71,296.159 1145.53,296.12 1147.35,296.082 1149.17,296.044 1150.99,296.007 1152.81,295.97 1154.63,295.934 1156.45,295.898 1158.27,295.863 1160.09,295.829 1161.91,295.795 1163.73,295.761 1165.55,295.728 1167.37,295.696 1169.19,295.664 1171.01,295.632 1172.83,295.601 1174.65,295.571 1176.47,295.54 1178.29,295.511 1180.11,295.482 1181.93,295.453 1183.75,295.424 1185.57,295.396 1187.39,295.369 1189.21,295.342 1191.03,295.315 1192.85,295.288 1194.67,295.262 1196.49,295.237 1198.32,295.212 1200.14,295.187 1201.96,295.162 1203.78,295.138 1205.6,295.114 1207.42,295.091 1209.24,295.068 1211.06,295.045 1212.88,295.023 1214.7,295.001 1216.52,294.979 1218.34,294.958 1220.16,294.937 1221.98,294.916 1223.8,294.896 1225.62,294.875 1227.44,294.856 1229.26,294.836 1231.08,294.817 1232.9,294.798 1234.72,294.779 1236.54,294.761 1238.36,294.743 1240.18,294.725 1242,294.707 1243.82,294.69 1245.64,294.673 1247.46,294.656 1249.28,294.64 1251.1,294.624 1252.92,294.608 1254.74,294.592 1256.56,294.576 1258.38,294.561 1260.2,294.546 1262.02,294.531 1263.84,294.516 1265.66,294.502 1267.48,294.488 1269.3,294.474 1271.13,294.46 1272.95,294.446 1274.77,294.433 1276.59,294.42 1278.41,294.407 1280.23,294.394 1282.05,294.381 1283.87,294.369 1285.69,294.357 1287.51,294.345 1289.33,294.333 1291.15,294.321 1292.97,294.31 1294.79,294.298 1296.61,294.287 1298.43,294.276 1300.25,294.265 1302.07,294.254 1303.89,294.244 1305.71,294.233 1307.53,294.223 1309.35,294.213 1311.17,294.203 1312.99,294.193 1314.81,294.184 1316.63,294.174 1318.45,294.165 1320.27,294.156 1322.09,294.147 1323.91,294.138 1325.73,294.129 1327.55,294.12 1329.37,294.112 1331.19,294.103 1333.01,294.095 1334.83,294.087 1336.65,294.079 1338.47,294.071 1340.29,294.063 1342.12,294.055 1343.94,294.048 1345.76,294.04 1347.58,294.033 1349.4,294.026 1351.22,294.019 1353.04,294.011 1354.86,294.005 1356.68,293.998 1358.5,293.991 1360.32,293.984 1362.14,293.978 1363.96,293.972 1365.78,293.965 1367.6,293.959 1369.42,293.953 1371.24,293.947 1373.06,293.941 1374.88,293.935 1376.7,293.929 1378.52,293.924 1380.34,293.918 1382.16,293.913 1383.98,293.907 1385.8,293.902 1387.62,293.896 1389.44,293.891 1391.26,293.886 1393.08,293.881 1394.9,293.876 1396.72,293.871 1398.54,293.866 1400.36,293.862 1402.18,293.857 1404,293.852 1405.82,293.848 1407.64,293.843 1409.46,293.839 1411.28,293.835 1413.11,293.83 1414.93,293.826 1416.75,293.822 1418.57,293.818 1420.39,293.814 1422.21,293.81 1424.03,293.806 1425.85,293.802 1427.67,293.798 1429.49,293.794 1431.31,293.791 1433.13,293.787 1434.95,293.784 1436.77,293.78 1438.59,293.777 1440.41,293.773 1442.23,293.77 1444.05,293.766 1445.87,293.763 1447.69,293.76 1449.51,293.757 1451.33,293.754 1453.15,293.751 1454.97,293.748 1456.79,293.745 1458.61,293.742 1460.43,293.739 1462.25,293.736 1464.07,293.733 1465.89,293.73 1467.71,293.728 1469.53,293.725 1471.35,293.722 1473.17,293.72 1474.99,293.717 1476.81,293.715 1478.63,293.712 1480.45,293.71 1482.27,293.707 1484.09,293.705 1485.92,293.703 1487.74,293.7 1489.56,293.698 1491.38,293.696 1493.2,293.694 1495.02,293.691 1496.84,293.689 1498.66,293.687 1500.48,293.685 1502.3,293.683 1504.12,293.681 1505.94,293.679 1507.76,293.677 1509.58,293.675 1511.4,293.673 1513.22,293.671 1515.04,293.669 1516.86,293.668 1518.68,293.666 1520.5,293.664 1522.32,293.662 1524.14,293.661 1525.96,293.659 1527.78,293.657 1529.6,293.656 1531.42,293.654 1533.24,293.652 1535.06,293.651 1536.88,293.649 1538.7,293.648 1540.52,293.646 1542.34,293.645 1544.16,293.643 1545.98,293.642 1547.8,293.641 1549.62,293.639 1551.44,293.638 1553.26,293.636 1555.08,293.635 1556.91,293.634 1558.73,293.632 1560.55,293.631 1562.37,293.63 1564.19,293.629 1566.01,293.627 1567.83,293.626 1569.65,293.625 1571.47,293.624 1573.29,293.623 1575.11,293.622 1576.93,293.621 1578.75,293.62 1580.57,293.618 1582.39,293.617 1584.21,293.616 1586.03,293.615 1587.85,293.614 1589.67,293.613 1591.49,293.612 1593.31,293.611 1595.13,293.61 1596.95,293.609 1598.77,293.609 1600.59,293.608 1602.41,293.607 1604.23,293.606 1606.05,293.605 1607.87,293.604 1609.69,293.603 1611.51,293.602 1613.33,293.602 1615.15,293.601 1616.97,293.6 1618.79,293.599 1620.61,293.598 1622.43,293.598 1624.25,293.597 1626.07,293.596 1627.89,293.596 1629.72,293.595 1631.54,293.594 1633.36,293.593 1635.18,293.593 1637,293.592 1638.82,293.591 1640.64,293.591 1642.46,293.59 1644.28,293.589 1646.1,293.589 1647.92,293.588 1649.74,293.588 1651.56,293.587 1653.38,293.586 1655.2,293.586 1657.02,293.585 1658.84,293.585 1660.66,293.584 1662.48,293.584 1664.3,293.583 1666.12,293.582 1667.94,293.582 1669.76,293.581 1671.58,293.581 1673.4,293.58 1675.22,293.58 1677.04,293.579 1678.86,293.579 1680.68,293.578 1682.5,293.578 1684.32,293.578 1686.14,293.577 1687.96,293.577 1689.78,293.576 1691.6,293.576 1693.42,293.575 1695.24,293.575 1697.06,293.575 1698.88,293.574 1700.71,293.574 1702.53,293.573 1704.35,293.573 1706.17,293.573 1707.99,293.572 1709.81,293.572 1711.63,293.571 1713.45,293.571 1715.27,293.571 1717.09,293.57 1718.91,293.57 1720.73,293.57 1722.55,293.569 1724.37,293.569 1726.19,293.569 1728.01,293.568 1729.83,293.568 1731.65,293.568 1733.47,293.568 1735.29,293.567 1737.11,293.567 1738.93,293.567 1740.75,293.566 1742.57,293.566 1744.39,293.566 1746.21,293.566 1748.03,293.565 1749.85,293.565 1751.67,293.565 1753.49,293.564 1755.31,293.564 1757.13,293.564 1758.95,293.564 1760.77,293.563 1762.59,293.563 1764.41,293.563 1766.23,293.563 1768.05,293.563 1769.87,293.562 1771.7,293.562 1773.52,293.562 1775.34,293.562 1777.16,293.561 1778.98,293.561 1780.8,293.561 1782.62,293.561 1784.44,293.561 1786.26,293.56 1788.08,293.56 1789.9,293.56 1791.72,293.56 1793.54,293.56 1795.36,293.559 1797.18,293.559 1799,293.559 1800.82,293.559 1802.64,293.559 1804.46,293.559 1806.28,293.558 1808.1,293.558 1809.92,293.558 1811.74,293.558 1813.56,293.558 1815.38,293.558 1817.2,293.557 1819.02,293.557 1820.84,293.557 1822.66,293.557 1824.48,293.557 1826.3,293.557 1828.12,293.557 1829.94,293.556 1831.76,293.556 1833.58,293.556 1835.4,293.556 1837.22,293.556 1839.04,293.556 1840.86,293.556 1842.68,293.556 1844.51,293.555 1846.33,293.555 1848.15,293.555 1849.97,293.555 1851.79,293.555 1853.61,293.555 1855.43,293.555 1857.25,293.555 1859.07,293.554 1860.89,293.554 1862.71,293.554 1864.53,293.554 1866.35,293.554 1868.17,293.554 1869.99,293.554 1871.81,293.554 1873.63,293.554 1875.45,293.554 1877.27,293.554 1879.09,293.553 1880.91,293.553 1882.73,293.553 1884.55,293.553 1886.37,293.553 1888.19,293.553 1890.01,293.553 1891.83,293.553 1893.65,293.553 1895.47,293.553 1897.29,293.553 1899.11,293.553 1900.93,293.552 1902.75,293.552 1904.57,293.552 1906.39,293.552 1908.21,293.552 1910.03,293.552 1911.85,293.552 1913.67,293.552 1915.5,293.552 1917.32,293.552 1919.14,293.552 1920.96,293.552 1922.78,293.552 1924.6,293.552 1926.42,293.551 1928.24,293.551 1930.06,293.551 1931.88,293.551 1933.7,293.551 1935.52,293.551 1937.34,293.551 1939.16,293.551 1940.98,293.551 1942.8,293.551 1944.62,293.551 1946.44,293.551 1948.26,293.551 1950.08,293.551 1951.9,293.551 1953.72,293.551 1955.54,293.551 1957.36,293.551 1959.18,293.55 1961,293.55 1962.82,293.55 1964.64,293.55 1966.46,293.55 1968.28,293.55 1970.1,293.55 1971.92,293.55 1973.74,293.55 1975.56,293.55 1977.38,293.55 1979.2,293.55 1981.02,293.55 1982.84,293.55 1984.66,293.55 1986.48,293.55 1988.31,293.55 1990.13,293.55 1991.95,293.55 1993.77,293.55 1995.59,293.55 1997.41,293.55 1999.23,293.55 2001.05,293.55 2002.87,293.55 2004.69,293.55 2006.51,293.549 2008.33,293.549 2010.15,293.549 2011.97,293.549 2013.79,293.549 2015.61,293.549 2017.43,293.549 2019.25,293.549 2021.07,293.549 2022.89,293.549 2024.71,293.549 2026.53,293.549 2028.35,293.549 2030.17,293.549 2031.99,293.549 2033.81,293.549 2035.63,293.549 2037.45,293.549 2039.27,293.549 2041.09,293.549 2042.91,293.549 2044.73,293.549 2046.55,293.549 2048.37,293.549 2050.19,293.549 2052.01,293.549 2053.83,293.549 2055.65,293.549 2057.47,293.549 2059.3,293.549 2061.12,293.549 2062.94,293.549 2064.76,293.549 "/>
<path clip-path="url(#clip920)" d="M1794.19 292.145 L2004.08 292.145 L2004.08 84.785 L1794.19 84.785  Z" fill="#ffffff" fill-rule="evenodd" fill-opacity="1"/>
<polyline clip-path="url(#clip920)" style="stroke:#000000; stroke-linecap:round; stroke-linejoin:round; stroke-width:4; stroke-opacity:1; fill:none" points="1794.19,292.145 2004.08,292.145 2004.08,84.785 1794.19,84.785 1794.19,292.145 "/>
<polyline clip-path="url(#clip920)" style="stroke:#009af9; stroke-linecap:round; stroke-linejoin:round; stroke-width:6; stroke-opacity:1; fill:none" points="1814.41,136.625 1935.76,136.625 "/>
<path clip-path="url(#clip920)" d="M1978.23 120.479 L1978.23 125.039 Q1975.57 123.766 1973.21 123.141 Q1970.85 122.516 1968.65 122.516 Q1964.83 122.516 1962.74 123.998 Q1960.68 125.479 1960.68 128.211 Q1960.68 130.502 1962.05 131.683 Q1963.44 132.84 1967.28 133.558 L1970.11 134.137 Q1975.34 135.132 1977.81 137.655 Q1980.31 140.155 1980.31 144.368 Q1980.31 149.391 1976.93 151.984 Q1973.58 154.576 1967.07 154.576 Q1964.62 154.576 1961.84 154.021 Q1959.09 153.465 1956.12 152.377 L1956.12 147.562 Q1958.97 149.16 1961.7 149.97 Q1964.43 150.78 1967.07 150.78 Q1971.08 150.78 1973.25 149.206 Q1975.43 147.632 1975.43 144.715 Q1975.43 142.169 1973.86 140.734 Q1972.3 139.299 1968.74 138.581 L1965.89 138.025 Q1960.66 136.984 1958.32 134.762 Q1955.99 132.539 1955.99 128.581 Q1955.99 123.998 1959.2 121.359 Q1962.44 118.72 1968.12 118.72 Q1970.55 118.72 1973.07 119.16 Q1975.59 119.6 1978.23 120.479 Z" fill="#000000" fill-rule="nonzero" fill-opacity="1" /><polyline clip-path="url(#clip920)" style="stroke:#e26f46; stroke-linecap:round; stroke-linejoin:round; stroke-width:6; stroke-opacity:1; fill:none" points="1814.41,188.465 1935.76,188.465 "/>
<path clip-path="url(#clip920)" d="M1955.99 171.185 L1960.66 171.185 L1960.66 205.745 L1955.99 205.745 L1955.99 171.185 Z" fill="#000000" fill-rule="nonzero" fill-opacity="1" /><polyline clip-path="url(#clip920)" style="stroke:#3da44d; stroke-linecap:round; stroke-linejoin:round; stroke-width:6; stroke-opacity:1; fill:none" points="1814.41,240.305 1935.76,240.305 "/>
<path clip-path="url(#clip920)" d="M1983.86 225.687 L1983.86 230.618 Q1981.49 228.418 1978.81 227.331 Q1976.15 226.243 1973.14 226.243 Q1967.21 226.243 1964.06 229.877 Q1960.92 233.488 1960.92 240.34 Q1960.92 247.168 1964.06 250.803 Q1967.21 254.414 1973.14 254.414 Q1976.15 254.414 1978.81 253.326 Q1981.49 252.238 1983.86 250.039 L1983.86 254.923 Q1981.4 256.59 1978.65 257.423 Q1975.92 258.256 1972.86 258.256 Q1965.01 258.256 1960.5 253.465 Q1955.99 248.65 1955.99 240.34 Q1955.99 232.006 1960.5 227.215 Q1965.01 222.4 1972.86 222.4 Q1975.96 222.4 1978.69 223.233 Q1981.45 224.043 1983.86 225.687 Z" fill="#000000" fill-rule="nonzero" fill-opacity="1" /></svg>
