<?xml version="1.0" encoding="utf-8"?>
<svg xmlns="http://www.w3.org/2000/svg" xmlns:xlink="http://www.w3.org/1999/xlink" width="672" height="480" viewBox="0 0 2688 1920">
<defs>
  <clipPath id="clip600">
    <rect x="0" y="0" width="2688" height="1920"/>
  </clipPath>
</defs>
<path clip-path="url(#clip600)" d="M0 1920 L2688 1920 L2688 -4.26326e-14 L0 -4.26326e-14  Z" fill="#ffffff" fill-rule="evenodd" fill-opacity="1"/>
<defs>
  <clipPath id="clip601">
    <rect x="537" y="0" width="1883" height="1883"/>
  </clipPath>
</defs>
<path clip-path="url(#clip600)" d="M226.141 1734.12 L2640.76 1734.12 L2640.76 47.2441 L226.141 47.2441  Z" fill="#ffffff" fill-rule="evenodd" fill-opacity="1"/>
<defs>
  <clipPath id="clip602">
    <rect x="226" y="47" width="2416" height="1688"/>
  </clipPath>
</defs>
<polyline clip-path="url(#clip602)" style="stroke:#000000; stroke-linecap:round; stroke-linejoin:round; stroke-width:2; stroke-opacity:0.1; fill:none" points="226.141,1734.12 226.141,47.2441 "/>
<polyline clip-path="url(#clip602)" style="stroke:#000000; stroke-linecap:round; stroke-linejoin:round; stroke-width:2; stroke-opacity:0.1; fill:none" points="829.794,1734.12 829.794,47.2441 "/>
<polyline clip-path="url(#clip602)" style="stroke:#000000; stroke-linecap:round; stroke-linejoin:round; stroke-width:2; stroke-opacity:0.1; fill:none" points="1433.45,1734.12 1433.45,47.2441 "/>
<polyline clip-path="url(#clip602)" style="stroke:#000000; stroke-linecap:round; stroke-linejoin:round; stroke-width:2; stroke-opacity:0.1; fill:none" points="2037.1,1734.12 2037.1,47.2441 "/>
<polyline clip-path="url(#clip602)" style="stroke:#000000; stroke-linecap:round; stroke-linejoin:round; stroke-width:2; stroke-opacity:0.1; fill:none" points="2640.76,1734.12 2640.76,47.2441 "/>
<polyline clip-path="url(#clip602)" style="stroke:#000000; stroke-linecap:round; stroke-linejoin:round; stroke-width:2; stroke-opacity:0.1; fill:none" points="226.141,1734.12 2640.76,1734.12 "/>
<polyline clip-path="url(#clip602)" style="stroke:#000000; stroke-linecap:round; stroke-linejoin:round; stroke-width:2; stroke-opacity:0.1; fill:none" points="226.141,1396.74 2640.76,1396.74 "/>
<polyline clip-path="url(#clip602)" style="stroke:#000000; stroke-linecap:round; stroke-linejoin:round; stroke-width:2; stroke-opacity:0.1; fill:none" points="226.141,1059.37 2640.76,1059.37 "/>
<polyline clip-path="url(#clip602)" style="stroke:#000000; stroke-linecap:round; stroke-linejoin:round; stroke-width:2; stroke-opacity:0.1; fill:none" points="226.141,721.993 2640.76,721.993 "/>
<polyline clip-path="url(#clip602)" style="stroke:#000000; stroke-linecap:round; stroke-linejoin:round; stroke-width:2; stroke-opacity:0.1; fill:none" points="226.141,384.619 2640.76,384.619 "/>
<polyline clip-path="url(#clip602)" style="stroke:#000000; stroke-linecap:round; stroke-linejoin:round; stroke-width:2; stroke-opacity:0.1; fill:none" points="226.141,47.2441 2640.76,47.2441 "/>
<polyline clip-path="url(#clip600)" style="stroke:#000000; stroke-linecap:round; stroke-linejoin:round; stroke-width:4; stroke-opacity:1; fill:none" points="226.141,1734.12 2640.76,1734.12 "/>
<polyline clip-path="url(#clip600)" style="stroke:#000000; stroke-linecap:round; stroke-linejoin:round; stroke-width:4; stroke-opacity:1; fill:none" points="226.141,1734.12 226.141,1715.22 "/>
<polyline clip-path="url(#clip600)" style="stroke:#000000; stroke-linecap:round; stroke-linejoin:round; stroke-width:4; stroke-opacity:1; fill:none" points="829.794,1734.12 829.794,1715.22 "/>
<polyline clip-path="url(#clip600)" style="stroke:#000000; stroke-linecap:round; stroke-linejoin:round; stroke-width:4; stroke-opacity:1; fill:none" points="1433.45,1734.12 1433.45,1715.22 "/>
<polyline clip-path="url(#clip600)" style="stroke:#000000; stroke-linecap:round; stroke-linejoin:round; stroke-width:4; stroke-opacity:1; fill:none" points="2037.1,1734.12 2037.1,1715.22 "/>
<polyline clip-path="url(#clip600)" style="stroke:#000000; stroke-linecap:round; stroke-linejoin:round; stroke-width:4; stroke-opacity:1; fill:none" points="2640.76,1734.12 2640.76,1715.22 "/>
<path clip-path="url(#clip600)" d="M226.141 1767.34 Q222.529 1767.34 220.701 1770.9 Q218.895 1774.45 218.895 1781.58 Q218.895 1788.68 220.701 1792.25 Q222.529 1795.79 226.141 1795.79 Q229.775 1795.79 231.58 1792.25 Q233.409 1788.68 233.409 1781.58 Q233.409 1774.45 231.58 1770.9 Q229.775 1767.34 226.141 1767.34 M226.141 1763.64 Q231.951 1763.64 235.006 1768.24 Q238.085 1772.83 238.085 1781.58 Q238.085 1790.3 235.006 1794.91 Q231.951 1799.49 226.141 1799.49 Q220.33 1799.49 217.252 1794.91 Q214.196 1790.3 214.196 1781.58 Q214.196 1772.83 217.252 1768.24 Q220.33 1763.64 226.141 1763.64 Z" fill="#000000" fill-rule="nonzero" fill-opacity="1" /><path clip-path="url(#clip600)" d="M804.482 1794.89 L812.121 1794.89 L812.121 1768.52 L803.811 1770.19 L803.811 1765.93 L812.075 1764.26 L816.75 1764.26 L816.75 1794.89 L824.389 1794.89 L824.389 1798.82 L804.482 1798.82 L804.482 1794.89 Z" fill="#000000" fill-rule="nonzero" fill-opacity="1" /><path clip-path="url(#clip600)" d="M843.834 1767.34 Q840.223 1767.34 838.394 1770.9 Q836.588 1774.45 836.588 1781.58 Q836.588 1788.68 838.394 1792.25 Q840.223 1795.79 843.834 1795.79 Q847.468 1795.79 849.273 1792.25 Q851.102 1788.68 851.102 1781.58 Q851.102 1774.45 849.273 1770.9 Q847.468 1767.34 843.834 1767.34 M843.834 1763.64 Q849.644 1763.64 852.699 1768.24 Q855.778 1772.83 855.778 1781.58 Q855.778 1790.3 852.699 1794.91 Q849.644 1799.49 843.834 1799.49 Q838.024 1799.49 834.945 1794.91 Q831.889 1790.3 831.889 1781.58 Q831.889 1772.83 834.945 1768.24 Q838.024 1763.64 843.834 1763.64 Z" fill="#000000" fill-rule="nonzero" fill-opacity="1" /><path clip-path="url(#clip600)" d="M1412.22 1794.89 L1428.54 1794.89 L1428.54 1798.82 L1406.6 1798.82 L1406.6 1794.89 Q1409.26 1792.13 1413.84 1787.5 Q1418.45 1782.85 1419.63 1781.51 Q1421.87 1778.98 1422.75 1777.25 Q1423.66 1775.49 1423.66 1773.8 Q1423.66 1771.04 1421.71 1769.31 Q1419.79 1767.57 1416.69 1767.57 Q1414.49 1767.57 1412.04 1768.34 Q1409.61 1769.1 1406.83 1770.65 L1406.83 1765.93 Q1409.65 1764.79 1412.11 1764.21 Q1414.56 1763.64 1416.6 1763.64 Q1421.97 1763.64 1425.16 1766.32 Q1428.36 1769.01 1428.36 1773.5 Q1428.36 1775.63 1427.55 1777.55 Q1426.76 1779.45 1424.65 1782.04 Q1424.07 1782.71 1420.97 1785.93 Q1417.87 1789.12 1412.22 1794.89 Z" fill="#000000" fill-rule="nonzero" fill-opacity="1" /><path clip-path="url(#clip600)" d="M1448.36 1767.34 Q1444.74 1767.34 1442.92 1770.9 Q1441.11 1774.45 1441.11 1781.58 Q1441.11 1788.68 1442.92 1792.25 Q1444.74 1795.79 1448.36 1795.79 Q1451.99 1795.79 1453.8 1792.25 Q1455.62 1788.68 1455.62 1781.58 Q1455.62 1774.45 1453.8 1770.9 Q1451.99 1767.34 1448.36 1767.34 M1448.36 1763.64 Q1454.17 1763.64 1457.22 1768.24 Q1460.3 1772.83 1460.3 1781.58 Q1460.3 1790.3 1457.22 1794.91 Q1454.17 1799.49 1448.36 1799.49 Q1442.55 1799.49 1439.47 1794.91 Q1436.41 1790.3 1436.41 1781.58 Q1436.41 1772.83 1439.47 1768.24 Q1442.55 1763.64 1448.36 1763.64 Z" fill="#000000" fill-rule="nonzero" fill-opacity="1" /><path clip-path="url(#clip600)" d="M2025.94 1780.19 Q2029.3 1780.9 2031.18 1783.17 Q2033.07 1785.44 2033.07 1788.77 Q2033.07 1793.89 2029.56 1796.69 Q2026.04 1799.49 2019.56 1799.49 Q2017.38 1799.49 2015.07 1799.05 Q2012.77 1798.64 2010.32 1797.78 L2010.32 1793.27 Q2012.26 1794.4 2014.58 1794.98 Q2016.89 1795.56 2019.42 1795.56 Q2023.82 1795.56 2026.11 1793.82 Q2028.42 1792.08 2028.42 1788.77 Q2028.42 1785.72 2026.27 1784.01 Q2024.14 1782.27 2020.32 1782.27 L2016.29 1782.27 L2016.29 1778.43 L2020.5 1778.43 Q2023.95 1778.43 2025.78 1777.06 Q2027.61 1775.67 2027.61 1773.08 Q2027.61 1770.42 2025.71 1769.01 Q2023.84 1767.57 2020.32 1767.57 Q2018.4 1767.57 2016.2 1767.99 Q2014 1768.4 2011.36 1769.28 L2011.36 1765.12 Q2014.02 1764.38 2016.34 1764.01 Q2018.68 1763.64 2020.74 1763.64 Q2026.06 1763.64 2029.16 1766.07 Q2032.26 1768.47 2032.26 1772.59 Q2032.26 1775.46 2030.62 1777.46 Q2028.98 1779.42 2025.94 1780.19 Z" fill="#000000" fill-rule="nonzero" fill-opacity="1" /><path clip-path="url(#clip600)" d="M2051.94 1767.34 Q2048.33 1767.34 2046.5 1770.9 Q2044.69 1774.45 2044.69 1781.58 Q2044.69 1788.68 2046.5 1792.25 Q2048.33 1795.79 2051.94 1795.79 Q2055.57 1795.79 2057.38 1792.25 Q2059.21 1788.68 2059.21 1781.58 Q2059.21 1774.45 2057.38 1770.9 Q2055.57 1767.34 2051.94 1767.34 M2051.94 1763.64 Q2057.75 1763.64 2060.81 1768.24 Q2063.88 1772.83 2063.88 1781.58 Q2063.88 1790.3 2060.81 1794.91 Q2057.75 1799.49 2051.94 1799.49 Q2046.13 1799.49 2043.05 1794.91 Q2040 1790.3 2040 1781.58 Q2040 1772.83 2043.05 1768.24 Q2046.13 1763.64 2051.94 1763.64 Z" fill="#000000" fill-rule="nonzero" fill-opacity="1" /><path clip-path="url(#clip600)" d="M2628.93 1768.34 L2617.12 1786.78 L2628.93 1786.78 L2628.93 1768.34 M2627.7 1764.26 L2633.58 1764.26 L2633.58 1786.78 L2638.51 1786.78 L2638.51 1790.67 L2633.58 1790.67 L2633.58 1798.82 L2628.93 1798.82 L2628.93 1790.67 L2613.33 1790.67 L2613.33 1786.16 L2627.7 1764.26 Z" fill="#000000" fill-rule="nonzero" fill-opacity="1" /><path clip-path="url(#clip600)" d="M2656.24 1767.34 Q2652.63 1767.34 2650.8 1770.9 Q2649 1774.45 2649 1781.58 Q2649 1788.68 2650.8 1792.25 Q2652.63 1795.79 2656.24 1795.79 Q2659.88 1795.79 2661.68 1792.25 Q2663.51 1788.68 2663.51 1781.58 Q2663.51 1774.45 2661.68 1770.9 Q2659.88 1767.34 2656.24 1767.34 M2656.24 1763.64 Q2662.05 1763.64 2665.11 1768.24 Q2668.19 1772.83 2668.19 1781.58 Q2668.19 1790.3 2665.11 1794.91 Q2662.05 1799.49 2656.24 1799.49 Q2650.43 1799.49 2647.35 1794.91 Q2644.3 1790.3 2644.3 1781.58 Q2644.3 1772.83 2647.35 1768.24 Q2650.43 1763.64 2656.24 1763.64 Z" fill="#000000" fill-rule="nonzero" fill-opacity="1" /><path clip-path="url(#clip600)" d="M1105.85 1835.78 L1146.05 1835.78 L1146.05 1841.19 L1129.18 1841.19 L1129.18 1883.3 L1122.72 1883.3 L1122.72 1841.19 L1105.85 1841.19 L1105.85 1835.78 Z" fill="#000000" fill-rule="nonzero" fill-opacity="1" /><path clip-path="url(#clip600)" d="M1150 1847.65 L1155.86 1847.65 L1155.86 1883.3 L1150 1883.3 L1150 1847.65 M1150 1833.78 L1155.86 1833.78 L1155.86 1841.19 L1150 1841.19 L1150 1833.78 Z" fill="#000000" fill-rule="nonzero" fill-opacity="1" /><path clip-path="url(#clip600)" d="M1195.86 1854.5 Q1198.06 1850.55 1201.12 1848.67 Q1204.17 1846.79 1208.31 1846.79 Q1213.88 1846.79 1216.9 1850.71 Q1219.93 1854.59 1219.93 1861.78 L1219.93 1883.3 L1214.04 1883.3 L1214.04 1861.98 Q1214.04 1856.85 1212.22 1854.37 Q1210.41 1851.89 1206.69 1851.89 Q1202.13 1851.89 1199.49 1854.91 Q1196.85 1857.93 1196.85 1863.15 L1196.85 1883.3 L1190.96 1883.3 L1190.96 1861.98 Q1190.96 1856.82 1189.15 1854.37 Q1187.33 1851.89 1183.55 1851.89 Q1179.06 1851.89 1176.42 1854.94 Q1173.78 1857.97 1173.78 1863.15 L1173.78 1883.3 L1167.89 1883.3 L1167.89 1847.65 L1173.78 1847.65 L1173.78 1853.19 Q1175.78 1849.91 1178.58 1848.35 Q1181.38 1846.79 1185.23 1846.79 Q1189.12 1846.79 1191.82 1848.77 Q1194.56 1850.74 1195.86 1854.5 Z" fill="#000000" fill-rule="nonzero" fill-opacity="1" /><path clip-path="url(#clip600)" d="M1262.1 1864.01 L1262.1 1866.88 L1235.17 1866.88 Q1235.55 1872.92 1238.8 1876.11 Q1242.08 1879.26 1247.9 1879.26 Q1251.28 1879.26 1254.43 1878.43 Q1257.61 1877.6 1260.73 1875.95 L1260.73 1881.49 Q1257.58 1882.82 1254.27 1883.52 Q1250.96 1884.22 1247.55 1884.22 Q1239.02 1884.22 1234.03 1879.26 Q1229.06 1874.29 1229.06 1865.83 Q1229.06 1857.07 1233.77 1851.95 Q1238.51 1846.79 1246.54 1846.79 Q1253.73 1846.79 1257.9 1851.44 Q1262.1 1856.06 1262.1 1864.01 M1256.24 1862.29 Q1256.18 1857.49 1253.54 1854.62 Q1250.93 1851.76 1246.6 1851.76 Q1241.7 1851.76 1238.74 1854.53 Q1235.81 1857.3 1235.36 1862.33 L1256.24 1862.29 Z" fill="#000000" fill-rule="nonzero" fill-opacity="1" /><path clip-path="url(#clip600)" d="M1306.25 1851.76 Q1301.53 1851.76 1298.8 1855.45 Q1296.06 1859.11 1296.06 1865.51 Q1296.06 1871.91 1298.77 1875.6 Q1301.5 1879.26 1306.25 1879.26 Q1310.92 1879.26 1313.66 1875.57 Q1316.4 1871.87 1316.4 1865.51 Q1316.4 1859.17 1313.66 1855.48 Q1310.92 1851.76 1306.25 1851.76 M1306.25 1846.79 Q1313.88 1846.79 1318.24 1851.76 Q1322.61 1856.72 1322.61 1865.51 Q1322.61 1874.26 1318.24 1879.26 Q1313.88 1884.22 1306.25 1884.22 Q1298.57 1884.22 1294.21 1879.26 Q1289.89 1874.26 1289.89 1865.51 Q1289.89 1856.72 1294.21 1851.76 Q1298.57 1846.79 1306.25 1846.79 Z" fill="#000000" fill-rule="nonzero" fill-opacity="1" /><path clip-path="url(#clip600)" d="M1350.36 1833.78 L1350.36 1838.65 L1344.76 1838.65 Q1341.61 1838.65 1340.37 1839.92 Q1339.16 1841.19 1339.16 1844.5 L1339.16 1847.65 L1348.8 1847.65 L1348.8 1852.2 L1339.16 1852.2 L1339.16 1883.3 L1333.27 1883.3 L1333.27 1852.2 L1327.67 1852.2 L1327.67 1847.65 L1333.27 1847.65 L1333.27 1845.17 Q1333.27 1839.22 1336.04 1836.51 Q1338.81 1833.78 1344.82 1833.78 L1350.36 1833.78 Z" fill="#000000" fill-rule="nonzero" fill-opacity="1" /><path clip-path="url(#clip600)" d="M1375.98 1847.65 L1381.84 1847.65 L1381.84 1883.3 L1375.98 1883.3 L1375.98 1847.65 M1375.98 1833.78 L1381.84 1833.78 L1381.84 1841.19 L1375.98 1841.19 L1375.98 1833.78 Z" fill="#000000" fill-rule="nonzero" fill-opacity="1" /><path clip-path="url(#clip600)" d="M1423.72 1861.78 L1423.72 1883.3 L1417.87 1883.3 L1417.87 1861.98 Q1417.87 1856.92 1415.89 1854.4 Q1413.92 1851.89 1409.97 1851.89 Q1405.23 1851.89 1402.49 1854.91 Q1399.76 1857.93 1399.76 1863.15 L1399.76 1883.3 L1393.87 1883.3 L1393.87 1847.65 L1399.76 1847.65 L1399.76 1853.19 Q1401.86 1849.98 1404.69 1848.39 Q1407.56 1846.79 1411.28 1846.79 Q1417.42 1846.79 1420.57 1850.61 Q1423.72 1854.4 1423.72 1861.78 Z" fill="#000000" fill-rule="nonzero" fill-opacity="1" /><path clip-path="url(#clip600)" d="M1441.2 1837.53 L1441.2 1847.65 L1453.26 1847.65 L1453.26 1852.2 L1441.2 1852.2 L1441.2 1871.56 Q1441.2 1875.92 1442.38 1877.16 Q1443.59 1878.4 1447.25 1878.4 L1453.26 1878.4 L1453.26 1883.3 L1447.25 1883.3 Q1440.47 1883.3 1437.89 1880.79 Q1435.31 1878.24 1435.31 1871.56 L1435.31 1852.2 L1431.01 1852.2 L1431.01 1847.65 L1435.31 1847.65 L1435.31 1837.53 L1441.2 1837.53 Z" fill="#000000" fill-rule="nonzero" fill-opacity="1" /><path clip-path="url(#clip600)" d="M1491.46 1864.01 L1491.46 1866.88 L1464.53 1866.88 Q1464.91 1872.92 1468.16 1876.11 Q1471.44 1879.26 1477.26 1879.26 Q1480.63 1879.26 1483.79 1878.43 Q1486.97 1877.6 1490.09 1875.95 L1490.09 1881.49 Q1486.94 1882.82 1483.63 1883.52 Q1480.32 1884.22 1476.91 1884.22 Q1468.38 1884.22 1463.38 1879.26 Q1458.42 1874.29 1458.42 1865.83 Q1458.42 1857.07 1463.13 1851.95 Q1467.87 1846.79 1475.89 1846.79 Q1483.08 1846.79 1487.25 1851.44 Q1491.46 1856.06 1491.46 1864.01 M1485.6 1862.29 Q1485.54 1857.49 1482.89 1854.62 Q1480.28 1851.76 1475.96 1851.76 Q1471.05 1851.76 1468.09 1854.53 Q1465.17 1857.3 1464.72 1862.33 L1485.6 1862.29 Z" fill="#000000" fill-rule="nonzero" fill-opacity="1" /><path clip-path="url(#clip600)" d="M1521.72 1853.13 Q1520.74 1852.55 1519.56 1852.3 Q1518.41 1852.01 1517.01 1852.01 Q1512.05 1852.01 1509.38 1855.26 Q1506.73 1858.47 1506.73 1864.52 L1506.73 1883.3 L1500.85 1883.3 L1500.85 1847.65 L1506.73 1847.65 L1506.73 1853.19 Q1508.58 1849.94 1511.54 1848.39 Q1514.5 1846.79 1518.73 1846.79 Q1519.34 1846.79 1520.07 1846.89 Q1520.8 1846.95 1521.69 1847.11 L1521.72 1853.13 Z" fill="#000000" fill-rule="nonzero" fill-opacity="1" /><path clip-path="url(#clip600)" d="M1523.67 1847.65 L1529.87 1847.65 L1541.01 1877.57 L1552.15 1847.65 L1558.36 1847.65 L1544.99 1883.3 L1537.03 1883.3 L1523.67 1847.65 Z" fill="#000000" fill-rule="nonzero" fill-opacity="1" /><path clip-path="url(#clip600)" d="M1596.94 1864.01 L1596.94 1866.88 L1570.01 1866.88 Q1570.39 1872.92 1573.64 1876.11 Q1576.92 1879.26 1582.74 1879.26 Q1586.11 1879.26 1589.26 1878.43 Q1592.45 1877.6 1595.57 1875.95 L1595.57 1881.49 Q1592.42 1882.82 1589.11 1883.52 Q1585.8 1884.22 1582.39 1884.22 Q1573.86 1884.22 1568.86 1879.26 Q1563.9 1874.29 1563.9 1865.83 Q1563.9 1857.07 1568.61 1851.95 Q1573.35 1846.79 1581.37 1846.79 Q1588.56 1846.79 1592.73 1851.44 Q1596.94 1856.06 1596.94 1864.01 M1591.08 1862.29 Q1591.02 1857.49 1588.37 1854.62 Q1585.76 1851.76 1581.43 1851.76 Q1576.53 1851.76 1573.57 1854.53 Q1570.65 1857.3 1570.2 1862.33 L1591.08 1862.29 Z" fill="#000000" fill-rule="nonzero" fill-opacity="1" /><path clip-path="url(#clip600)" d="M1636.18 1861.78 L1636.18 1883.3 L1630.32 1883.3 L1630.32 1861.98 Q1630.32 1856.92 1628.35 1854.4 Q1626.38 1851.89 1622.43 1851.89 Q1617.69 1851.89 1614.95 1854.91 Q1612.21 1857.93 1612.21 1863.15 L1612.21 1883.3 L1606.32 1883.3 L1606.32 1847.65 L1612.21 1847.65 L1612.21 1853.19 Q1614.31 1849.98 1617.15 1848.39 Q1620.01 1846.79 1623.74 1846.79 Q1629.88 1846.79 1633.03 1850.61 Q1636.18 1854.4 1636.18 1861.78 Z" fill="#000000" fill-rule="nonzero" fill-opacity="1" /><path clip-path="url(#clip600)" d="M1653.65 1837.53 L1653.65 1847.65 L1665.72 1847.65 L1665.72 1852.2 L1653.65 1852.2 L1653.65 1871.56 Q1653.65 1875.92 1654.83 1877.16 Q1656.04 1878.4 1659.7 1878.4 L1665.72 1878.4 L1665.72 1883.3 L1659.7 1883.3 Q1652.92 1883.3 1650.34 1880.79 Q1647.77 1878.24 1647.77 1871.56 L1647.77 1852.2 L1643.47 1852.2 L1643.47 1847.65 L1647.77 1847.65 L1647.77 1837.53 L1653.65 1837.53 Z" fill="#000000" fill-rule="nonzero" fill-opacity="1" /><path clip-path="url(#clip600)" d="M1673.42 1847.65 L1679.28 1847.65 L1679.28 1883.3 L1673.42 1883.3 L1673.42 1847.65 M1673.42 1833.78 L1679.28 1833.78 L1679.28 1841.19 L1673.42 1841.19 L1673.42 1833.78 Z" fill="#000000" fill-rule="nonzero" fill-opacity="1" /><path clip-path="url(#clip600)" d="M1705.34 1851.76 Q1700.63 1851.76 1697.9 1855.45 Q1695.16 1859.11 1695.16 1865.51 Q1695.16 1871.91 1697.86 1875.6 Q1700.6 1879.26 1705.34 1879.26 Q1710.02 1879.26 1712.76 1875.57 Q1715.5 1871.87 1715.5 1865.51 Q1715.5 1859.17 1712.76 1855.48 Q1710.02 1851.76 1705.34 1851.76 M1705.34 1846.79 Q1712.98 1846.79 1717.34 1851.76 Q1721.7 1856.72 1721.7 1865.51 Q1721.7 1874.26 1717.34 1879.26 Q1712.98 1884.22 1705.34 1884.22 Q1697.67 1884.22 1693.31 1879.26 Q1688.98 1874.26 1688.98 1865.51 Q1688.98 1856.72 1693.31 1851.76 Q1697.67 1846.79 1705.34 1846.79 Z" fill="#000000" fill-rule="nonzero" fill-opacity="1" /><path clip-path="url(#clip600)" d="M1761.04 1861.78 L1761.04 1883.3 L1755.19 1883.3 L1755.19 1861.98 Q1755.19 1856.92 1753.21 1854.4 Q1751.24 1851.89 1747.29 1851.89 Q1742.55 1851.89 1739.81 1854.91 Q1737.08 1857.93 1737.08 1863.15 L1737.08 1883.3 L1731.19 1883.3 L1731.19 1847.65 L1737.08 1847.65 L1737.08 1853.19 Q1739.18 1849.98 1742.01 1848.39 Q1744.87 1846.79 1748.6 1846.79 Q1754.74 1846.79 1757.89 1850.61 Q1761.04 1854.4 1761.04 1861.78 Z" fill="#000000" fill-rule="nonzero" fill-opacity="1" /><polyline clip-path="url(#clip600)" style="stroke:#000000; stroke-linecap:round; stroke-linejoin:round; stroke-width:4; stroke-opacity:1; fill:none" points="226.141,1734.12 226.141,47.2441 "/>
<polyline clip-path="url(#clip600)" style="stroke:#000000; stroke-linecap:round; stroke-linejoin:round; stroke-width:4; stroke-opacity:1; fill:none" points="226.141,1734.12 245.038,1734.12 "/>
<polyline clip-path="url(#clip600)" style="stroke:#000000; stroke-linecap:round; stroke-linejoin:round; stroke-width:4; stroke-opacity:1; fill:none" points="226.141,1396.74 245.038,1396.74 "/>
<polyline clip-path="url(#clip600)" style="stroke:#000000; stroke-linecap:round; stroke-linejoin:round; stroke-width:4; stroke-opacity:1; fill:none" points="226.141,1059.37 245.038,1059.37 "/>
<polyline clip-path="url(#clip600)" style="stroke:#000000; stroke-linecap:round; stroke-linejoin:round; stroke-width:4; stroke-opacity:1; fill:none" points="226.141,721.993 245.038,721.993 "/>
<polyline clip-path="url(#clip600)" style="stroke:#000000; stroke-linecap:round; stroke-linejoin:round; stroke-width:4; stroke-opacity:1; fill:none" points="226.141,384.619 245.038,384.619 "/>
<polyline clip-path="url(#clip600)" style="stroke:#000000; stroke-linecap:round; stroke-linejoin:round; stroke-width:4; stroke-opacity:1; fill:none" points="226.141,47.2441 245.038,47.2441 "/>
<path clip-path="url(#clip600)" d="M128.645 1719.92 Q125.034 1719.92 123.205 1723.48 Q121.4 1727.02 121.4 1734.15 Q121.4 1741.26 123.205 1744.82 Q125.034 1748.36 128.645 1748.36 Q132.279 1748.36 134.085 1744.82 Q135.913 1741.26 135.913 1734.15 Q135.913 1727.02 134.085 1723.48 Q132.279 1719.92 128.645 1719.92 M128.645 1716.21 Q134.455 1716.21 137.511 1720.82 Q140.589 1725.4 140.589 1734.15 Q140.589 1742.88 137.511 1747.48 Q134.455 1752.07 128.645 1752.07 Q122.835 1752.07 119.756 1747.48 Q116.701 1742.88 116.701 1734.15 Q116.701 1725.4 119.756 1720.82 Q122.835 1716.21 128.645 1716.21 Z" fill="#000000" fill-rule="nonzero" fill-opacity="1" /><path clip-path="url(#clip600)" d="M148.807 1745.52 L153.691 1745.52 L153.691 1751.4 L148.807 1751.4 L148.807 1745.52 Z" fill="#000000" fill-rule="nonzero" fill-opacity="1" /><path clip-path="url(#clip600)" d="M173.876 1719.92 Q170.265 1719.92 168.436 1723.48 Q166.631 1727.02 166.631 1734.15 Q166.631 1741.26 168.436 1744.82 Q170.265 1748.36 173.876 1748.36 Q177.51 1748.36 179.316 1744.82 Q181.145 1741.26 181.145 1734.15 Q181.145 1727.02 179.316 1723.48 Q177.51 1719.92 173.876 1719.92 M173.876 1716.21 Q179.686 1716.21 182.742 1720.82 Q185.821 1725.4 185.821 1734.15 Q185.821 1742.88 182.742 1747.48 Q179.686 1752.07 173.876 1752.07 Q168.066 1752.07 164.987 1747.48 Q161.932 1742.88 161.932 1734.15 Q161.932 1725.4 164.987 1720.82 Q168.066 1716.21 173.876 1716.21 Z" fill="#000000" fill-rule="nonzero" fill-opacity="1" /><path clip-path="url(#clip600)" d="M130.242 1382.54 Q126.631 1382.54 124.802 1386.11 Q122.997 1389.65 122.997 1396.78 Q122.997 1403.88 124.802 1407.45 Q126.631 1410.99 130.242 1410.99 Q133.876 1410.99 135.682 1407.45 Q137.511 1403.88 137.511 1396.78 Q137.511 1389.65 135.682 1386.11 Q133.876 1382.54 130.242 1382.54 M130.242 1378.84 Q136.052 1378.84 139.108 1383.44 Q142.187 1388.03 142.187 1396.78 Q142.187 1405.5 139.108 1410.11 Q136.052 1414.69 130.242 1414.69 Q124.432 1414.69 121.353 1410.11 Q118.298 1405.5 118.298 1396.78 Q118.298 1388.03 121.353 1383.44 Q124.432 1378.84 130.242 1378.84 Z" fill="#000000" fill-rule="nonzero" fill-opacity="1" /><path clip-path="url(#clip600)" d="M150.404 1408.14 L155.288 1408.14 L155.288 1414.02 L150.404 1414.02 L150.404 1408.14 Z" fill="#000000" fill-rule="nonzero" fill-opacity="1" /><path clip-path="url(#clip600)" d="M169.501 1410.09 L185.821 1410.09 L185.821 1414.02 L163.876 1414.02 L163.876 1410.09 Q166.538 1407.33 171.122 1402.7 Q175.728 1398.05 176.909 1396.71 Q179.154 1394.18 180.034 1392.45 Q180.936 1390.69 180.936 1389 Q180.936 1386.24 178.992 1384.51 Q177.071 1382.77 173.969 1382.77 Q171.77 1382.77 169.316 1383.54 Q166.885 1384.3 164.108 1385.85 L164.108 1381.13 Q166.932 1379.99 169.385 1379.42 Q171.839 1378.84 173.876 1378.84 Q179.247 1378.84 182.441 1381.52 Q185.635 1384.21 185.635 1388.7 Q185.635 1390.83 184.825 1392.75 Q184.038 1394.65 181.932 1397.24 Q181.353 1397.91 178.251 1401.13 Q175.149 1404.32 169.501 1410.09 Z" fill="#000000" fill-rule="nonzero" fill-opacity="1" /><path clip-path="url(#clip600)" d="M128.159 1045.17 Q124.548 1045.17 122.719 1048.73 Q120.913 1052.27 120.913 1059.4 Q120.913 1066.51 122.719 1070.07 Q124.548 1073.62 128.159 1073.62 Q131.793 1073.62 133.599 1070.07 Q135.427 1066.51 135.427 1059.4 Q135.427 1052.27 133.599 1048.73 Q131.793 1045.17 128.159 1045.17 M128.159 1041.46 Q133.969 1041.46 137.025 1046.07 Q140.103 1050.65 140.103 1059.4 Q140.103 1068.13 137.025 1072.74 Q133.969 1077.32 128.159 1077.32 Q122.349 1077.32 119.27 1072.74 Q116.214 1068.13 116.214 1059.4 Q116.214 1050.65 119.27 1046.07 Q122.349 1041.46 128.159 1041.46 Z" fill="#000000" fill-rule="nonzero" fill-opacity="1" /><path clip-path="url(#clip600)" d="M148.321 1070.77 L153.205 1070.77 L153.205 1076.65 L148.321 1076.65 L148.321 1070.77 Z" fill="#000000" fill-rule="nonzero" fill-opacity="1" /><path clip-path="url(#clip600)" d="M176.237 1046.16 L164.432 1064.61 L176.237 1064.61 L176.237 1046.16 M175.01 1042.09 L180.89 1042.09 L180.89 1064.61 L185.821 1064.61 L185.821 1068.5 L180.89 1068.5 L180.89 1076.65 L176.237 1076.65 L176.237 1068.5 L160.636 1068.5 L160.636 1063.99 L175.01 1042.09 Z" fill="#000000" fill-rule="nonzero" fill-opacity="1" /><path clip-path="url(#clip600)" d="M128.483 707.792 Q124.872 707.792 123.043 711.357 Q121.238 714.898 121.238 722.028 Q121.238 729.134 123.043 732.699 Q124.872 736.241 128.483 736.241 Q132.117 736.241 133.923 732.699 Q135.751 729.134 135.751 722.028 Q135.751 714.898 133.923 711.357 Q132.117 707.792 128.483 707.792 M128.483 704.088 Q134.293 704.088 137.349 708.695 Q140.427 713.278 140.427 722.028 Q140.427 730.755 137.349 735.361 Q134.293 739.945 128.483 739.945 Q122.673 739.945 119.594 735.361 Q116.539 730.755 116.539 722.028 Q116.539 713.278 119.594 708.695 Q122.673 704.088 128.483 704.088 Z" fill="#000000" fill-rule="nonzero" fill-opacity="1" /><path clip-path="url(#clip600)" d="M148.645 733.394 L153.529 733.394 L153.529 739.273 L148.645 739.273 L148.645 733.394 Z" fill="#000000" fill-rule="nonzero" fill-opacity="1" /><path clip-path="url(#clip600)" d="M174.293 720.13 Q171.145 720.13 169.293 722.283 Q167.464 724.435 167.464 728.185 Q167.464 731.912 169.293 734.088 Q171.145 736.241 174.293 736.241 Q177.441 736.241 179.27 734.088 Q181.122 731.912 181.122 728.185 Q181.122 724.435 179.27 722.283 Q177.441 720.13 174.293 720.13 M183.575 705.477 L183.575 709.736 Q181.816 708.903 180.01 708.463 Q178.228 708.023 176.469 708.023 Q171.839 708.023 169.385 711.148 Q166.955 714.273 166.608 720.593 Q167.973 718.579 170.034 717.514 Q172.094 716.426 174.571 716.426 Q179.779 716.426 182.788 719.597 Q185.821 722.746 185.821 728.185 Q185.821 733.509 182.672 736.727 Q179.524 739.945 174.293 739.945 Q168.297 739.945 165.126 735.361 Q161.955 730.755 161.955 722.028 Q161.955 713.834 165.844 708.972 Q169.733 704.088 176.284 704.088 Q178.043 704.088 179.825 704.435 Q181.631 704.783 183.575 705.477 Z" fill="#000000" fill-rule="nonzero" fill-opacity="1" /><path clip-path="url(#clip600)" d="M128.738 370.417 Q125.126 370.417 123.298 373.982 Q121.492 377.524 121.492 384.653 Q121.492 391.76 123.298 395.325 Q125.126 398.866 128.738 398.866 Q132.372 398.866 134.177 395.325 Q136.006 391.76 136.006 384.653 Q136.006 377.524 134.177 373.982 Q132.372 370.417 128.738 370.417 M128.738 366.714 Q134.548 366.714 137.603 371.32 Q140.682 375.903 140.682 384.653 Q140.682 393.38 137.603 397.987 Q134.548 402.57 128.738 402.57 Q122.927 402.57 119.849 397.987 Q116.793 393.38 116.793 384.653 Q116.793 375.903 119.849 371.32 Q122.927 366.714 128.738 366.714 Z" fill="#000000" fill-rule="nonzero" fill-opacity="1" /><path clip-path="url(#clip600)" d="M148.899 396.019 L153.784 396.019 L153.784 401.899 L148.899 401.899 L148.899 396.019 Z" fill="#000000" fill-rule="nonzero" fill-opacity="1" /><path clip-path="url(#clip600)" d="M173.969 385.487 Q170.635 385.487 168.714 387.269 Q166.816 389.052 166.816 392.177 Q166.816 395.301 168.714 397.084 Q170.635 398.866 173.969 398.866 Q177.302 398.866 179.223 397.084 Q181.145 395.278 181.145 392.177 Q181.145 389.052 179.223 387.269 Q177.325 385.487 173.969 385.487 M169.293 383.496 Q166.284 382.755 164.594 380.695 Q162.927 378.635 162.927 375.672 Q162.927 371.528 165.867 369.121 Q168.83 366.714 173.969 366.714 Q179.131 366.714 182.071 369.121 Q185.01 371.528 185.01 375.672 Q185.01 378.635 183.321 380.695 Q181.654 382.755 178.668 383.496 Q182.047 384.283 183.922 386.575 Q185.821 388.866 185.821 392.177 Q185.821 397.2 182.742 399.885 Q179.686 402.57 173.969 402.57 Q168.251 402.57 165.173 399.885 Q162.117 397.2 162.117 392.177 Q162.117 388.866 164.015 386.575 Q165.913 384.283 169.293 383.496 M167.58 376.112 Q167.58 378.797 169.247 380.302 Q170.936 381.806 173.969 381.806 Q176.978 381.806 178.668 380.302 Q180.381 378.797 180.381 376.112 Q180.381 373.427 178.668 371.922 Q176.978 370.417 173.969 370.417 Q170.936 370.417 169.247 371.922 Q167.58 373.427 167.58 376.112 Z" fill="#000000" fill-rule="nonzero" fill-opacity="1" /><path clip-path="url(#clip600)" d="M119.455 60.5889 L127.094 60.5889 L127.094 34.2233 L118.784 35.89 L118.784 31.6308 L127.048 29.9641 L131.724 29.9641 L131.724 60.5889 L139.362 60.5889 L139.362 64.5241 L119.455 64.5241 L119.455 60.5889 Z" fill="#000000" fill-rule="nonzero" fill-opacity="1" /><path clip-path="url(#clip600)" d="M148.807 58.6445 L153.691 58.6445 L153.691 64.5241 L148.807 64.5241 L148.807 58.6445 Z" fill="#000000" fill-rule="nonzero" fill-opacity="1" /><path clip-path="url(#clip600)" d="M173.876 33.0428 Q170.265 33.0428 168.436 36.6076 Q166.631 40.1492 166.631 47.2788 Q166.631 54.3853 168.436 57.9501 Q170.265 61.4917 173.876 61.4917 Q177.51 61.4917 179.316 57.9501 Q181.145 54.3853 181.145 47.2788 Q181.145 40.1492 179.316 36.6076 Q177.51 33.0428 173.876 33.0428 M173.876 29.3391 Q179.686 29.3391 182.742 33.9456 Q185.821 38.5289 185.821 47.2788 Q185.821 56.0056 182.742 60.6121 Q179.686 65.1954 173.876 65.1954 Q168.066 65.1954 164.987 60.6121 Q161.932 56.0056 161.932 47.2788 Q161.932 38.5289 164.987 33.9456 Q168.066 29.3391 173.876 29.3391 Z" fill="#000000" fill-rule="nonzero" fill-opacity="1" /><path clip-path="url(#clip600)" d="M17.7787 1201.23 L24.5582 1201.23 Q21.5345 1204.48 20.0386 1208.17 Q18.5426 1211.83 18.5426 1215.97 Q18.5426 1224.12 23.5397 1228.44 Q28.5049 1232.77 37.9262 1232.77 Q47.3156 1232.77 52.3127 1228.44 Q57.2779 1224.12 57.2779 1215.97 Q57.2779 1211.83 55.782 1208.17 Q54.2861 1204.48 51.2623 1201.23 L57.9782 1201.23 Q60.2698 1204.61 61.4156 1208.39 Q62.5615 1212.15 62.5615 1216.35 Q62.5615 1227.14 55.973 1233.35 Q49.3526 1239.55 37.9262 1239.55 Q26.4679 1239.55 19.8794 1233.35 Q13.2591 1227.14 13.2591 1216.35 Q13.2591 1212.09 14.4049 1208.33 Q15.5189 1204.54 17.7787 1201.23 Z" fill="#000000" fill-rule="nonzero" fill-opacity="1" /><path clip-path="url(#clip600)" d="M47.5702 1192.16 L25.9905 1192.16 L25.9905 1186.3 L47.3474 1186.3 Q52.4082 1186.3 54.9545 1184.33 Q57.4689 1182.36 57.4689 1178.41 Q57.4689 1173.67 54.4452 1170.93 Q51.4215 1168.16 46.2016 1168.16 L25.9905 1168.16 L25.9905 1162.31 L61.6384 1162.31 L61.6384 1168.16 L56.1639 1168.16 Q59.4104 1170.29 61.0019 1173.13 Q62.5615 1175.93 62.5615 1179.65 Q62.5615 1185.79 58.742 1188.98 Q54.9226 1192.16 47.5702 1192.16 M25.1311 1177.42 L25.1311 1177.42 Z" fill="#000000" fill-rule="nonzero" fill-opacity="1" /><path clip-path="url(#clip600)" d="M32.8336 1122.49 Q28.8869 1120.29 27.009 1117.24 Q25.1311 1114.18 25.1311 1110.04 Q25.1311 1104.47 29.046 1101.45 Q32.9291 1098.43 40.1224 1098.43 L61.6384 1098.43 L61.6384 1104.31 L40.3133 1104.31 Q35.1889 1104.31 32.7063 1106.13 Q30.2237 1107.94 30.2237 1111.67 Q30.2237 1116.22 33.2474 1118.86 Q36.2711 1121.5 41.491 1121.5 L61.6384 1121.5 L61.6384 1127.39 L40.3133 1127.39 Q35.1571 1127.39 32.7063 1129.2 Q30.2237 1131.02 30.2237 1134.81 Q30.2237 1139.29 33.2792 1141.93 Q36.3029 1144.58 41.491 1144.58 L61.6384 1144.58 L61.6384 1150.47 L25.9905 1150.47 L25.9905 1144.58 L31.5287 1144.58 Q28.2503 1142.57 26.6907 1139.77 Q25.1311 1136.97 25.1311 1133.12 Q25.1311 1129.24 27.1045 1126.53 Q29.0779 1123.79 32.8336 1122.49 Z" fill="#000000" fill-rule="nonzero" fill-opacity="1" /><path clip-path="url(#clip600)" d="M47.5702 1087.35 L25.9905 1087.35 L25.9905 1081.49 L47.3474 1081.49 Q52.4082 1081.49 54.9545 1079.52 Q57.4689 1077.55 57.4689 1073.6 Q57.4689 1068.86 54.4452 1066.12 Q51.4215 1063.35 46.2016 1063.35 L25.9905 1063.35 L25.9905 1057.49 L61.6384 1057.49 L61.6384 1063.35 L56.1639 1063.35 Q59.4104 1065.48 61.0019 1068.32 Q62.5615 1071.12 62.5615 1074.84 Q62.5615 1080.98 58.742 1084.17 Q54.9226 1087.35 47.5702 1087.35 M25.1311 1072.61 L25.1311 1072.61 Z" fill="#000000" fill-rule="nonzero" fill-opacity="1" /><path clip-path="url(#clip600)" d="M12.1132 1045.43 L12.1132 1039.57 L61.6384 1039.57 L61.6384 1045.43 L12.1132 1045.43 Z" fill="#000000" fill-rule="nonzero" fill-opacity="1" /><path clip-path="url(#clip600)" d="M43.719 1011.12 Q43.719 1018.22 45.3422 1020.95 Q46.9655 1023.69 50.8804 1023.69 Q53.9996 1023.69 55.8457 1021.65 Q57.6599 1019.59 57.6599 1016.05 Q57.6599 1011.18 54.2224 1008.26 Q50.7531 1005.3 45.0239 1005.3 L43.719 1005.3 L43.719 1011.12 M41.3 999.439 L61.6384 999.439 L61.6384 1005.3 L56.2276 1005.3 Q59.4741 1007.3 61.0337 1010.29 Q62.5615 1013.28 62.5615 1017.61 Q62.5615 1023.09 59.5059 1026.33 Q56.4186 1029.55 51.2623 1029.55 Q45.2467 1029.55 42.1912 1025.54 Q39.1357 1021.5 39.1357 1013.51 L39.1357 1005.3 L38.5628 1005.3 Q34.5205 1005.3 32.3244 1007.97 Q30.0964 1010.61 30.0964 1015.42 Q30.0964 1018.47 30.8284 1021.37 Q31.5605 1024.26 33.0246 1026.94 L27.6137 1026.94 Q26.3724 1023.72 25.7677 1020.7 Q25.1311 1017.68 25.1311 1014.81 Q25.1311 1007.08 29.1415 1003.26 Q33.1519 999.439 41.3 999.439 Z" fill="#000000" fill-rule="nonzero" fill-opacity="1" /><path clip-path="url(#clip600)" d="M15.869 981.583 L25.9905 981.583 L25.9905 969.52 L30.542 969.52 L30.542 981.583 L49.8937 981.583 Q54.2542 981.583 55.4955 980.405 Q56.7368 979.196 56.7368 975.535 L56.7368 969.52 L61.6384 969.52 L61.6384 975.535 Q61.6384 982.315 59.124 984.893 Q56.5777 987.471 49.8937 987.471 L30.542 987.471 L30.542 991.768 L25.9905 991.768 L25.9905 987.471 L15.869 987.471 L15.869 981.583 Z" fill="#000000" fill-rule="nonzero" fill-opacity="1" /><path clip-path="url(#clip600)" d="M25.9905 961.817 L25.9905 955.961 L61.6384 955.961 L61.6384 961.817 L25.9905 961.817 M12.1132 961.817 L12.1132 955.961 L19.5293 955.961 L19.5293 961.817 L12.1132 961.817 Z" fill="#000000" fill-rule="nonzero" fill-opacity="1" /><path clip-path="url(#clip600)" d="M25.9905 947.908 L25.9905 941.702 L55.9093 930.562 L25.9905 919.422 L25.9905 913.215 L61.6384 926.583 L61.6384 934.54 L25.9905 947.908 Z" fill="#000000" fill-rule="nonzero" fill-opacity="1" /><path clip-path="url(#clip600)" d="M42.3504 874.639 L45.2149 874.639 L45.2149 901.566 Q51.2623 901.184 54.4452 897.937 Q57.5962 894.659 57.5962 888.834 Q57.5962 885.461 56.7687 882.31 Q55.9411 879.127 54.2861 876.008 L59.8242 876.008 Q61.161 879.159 61.8612 882.469 Q62.5615 885.779 62.5615 889.185 Q62.5615 897.715 57.5962 902.712 Q52.631 907.677 44.1646 907.677 Q35.4117 907.677 30.2873 902.966 Q25.1311 898.224 25.1311 890.203 Q25.1311 883.01 29.7781 878.84 Q34.3932 874.639 42.3504 874.639 M40.6316 880.495 Q35.8255 880.559 32.9609 883.201 Q30.0964 885.811 30.0964 890.139 Q30.0964 895.041 32.8654 898.001 Q35.6345 900.929 40.6634 901.375 L40.6316 880.495 Z" fill="#000000" fill-rule="nonzero" fill-opacity="1" /><path clip-path="url(#clip600)" d="M25.9905 844.306 L25.9905 838.45 L61.6384 838.45 L61.6384 844.306 L25.9905 844.306 M12.1132 844.306 L12.1132 838.45 L19.5293 838.45 L19.5293 844.306 L12.1132 844.306 Z" fill="#000000" fill-rule="nonzero" fill-opacity="1" /><path clip-path="url(#clip600)" d="M40.1224 796.564 L61.6384 796.564 L61.6384 802.42 L40.3133 802.42 Q35.2526 802.42 32.7381 804.393 Q30.2237 806.367 30.2237 810.313 Q30.2237 815.056 33.2474 817.793 Q36.2711 820.53 41.491 820.53 L61.6384 820.53 L61.6384 826.419 L25.9905 826.419 L25.9905 820.53 L31.5287 820.53 Q28.314 818.43 26.7225 815.597 Q25.1311 812.732 25.1311 809.009 Q25.1311 802.866 28.9505 799.715 Q32.7381 796.564 40.1224 796.564 Z" fill="#000000" fill-rule="nonzero" fill-opacity="1" /><path clip-path="url(#clip600)" d="M27.3591 759.229 L32.8336 759.229 Q31.465 761.711 30.7966 764.226 Q30.0964 766.708 30.0964 769.255 Q30.0964 774.952 33.7248 778.103 Q37.3214 781.254 43.8463 781.254 Q50.3711 781.254 53.9996 778.103 Q57.5962 774.952 57.5962 769.255 Q57.5962 766.708 56.9278 764.226 Q56.2276 761.711 54.859 759.229 L60.2698 759.229 Q61.4156 761.679 61.9886 764.321 Q62.5615 766.931 62.5615 769.891 Q62.5615 777.944 57.5007 782.686 Q52.44 787.429 43.8463 787.429 Q35.1253 787.429 30.1282 782.654 Q25.1311 777.848 25.1311 769.509 Q25.1311 766.804 25.704 764.226 Q26.2451 761.648 27.3591 759.229 Z" fill="#000000" fill-rule="nonzero" fill-opacity="1" /><path clip-path="url(#clip600)" d="M25.9905 749.044 L25.9905 743.187 L61.6384 743.187 L61.6384 749.044 L25.9905 749.044 M12.1132 749.044 L12.1132 743.187 L19.5293 743.187 L19.5293 749.044 L12.1132 749.044 Z" fill="#000000" fill-rule="nonzero" fill-opacity="1" /><path clip-path="url(#clip600)" d="M31.4013 707.476 L12.1132 707.476 L12.1132 701.619 L61.6384 701.619 L61.6384 707.476 L56.2912 707.476 Q59.4741 709.322 61.0337 712.154 Q62.5615 714.955 62.5615 718.902 Q62.5615 725.363 57.4052 729.437 Q52.249 733.479 43.8463 733.479 Q35.4436 733.479 30.2873 729.437 Q25.1311 725.363 25.1311 718.902 Q25.1311 714.955 26.6907 712.154 Q28.2185 709.322 31.4013 707.476 M43.8463 727.432 Q50.3075 727.432 53.9996 724.79 Q57.6599 722.117 57.6599 717.47 Q57.6599 712.823 53.9996 710.149 Q50.3075 707.476 43.8463 707.476 Q37.3851 707.476 33.7248 710.149 Q30.0327 712.823 30.0327 717.47 Q30.0327 722.117 33.7248 724.79 Q37.3851 727.432 43.8463 727.432 Z" fill="#000000" fill-rule="nonzero" fill-opacity="1" /><path clip-path="url(#clip600)" d="M42.3504 659.064 L45.2149 659.064 L45.2149 685.991 Q51.2623 685.609 54.4452 682.363 Q57.5962 679.084 57.5962 673.26 Q57.5962 669.886 56.7687 666.735 Q55.9411 663.552 54.2861 660.433 L59.8242 660.433 Q61.161 663.584 61.8612 666.894 Q62.5615 670.204 62.5615 673.61 Q62.5615 682.14 57.5962 687.137 Q52.631 692.102 44.1646 692.102 Q35.4117 692.102 30.2873 687.392 Q25.1311 682.649 25.1311 674.628 Q25.1311 667.435 29.7781 663.266 Q34.3932 659.064 42.3504 659.064 M40.6316 664.921 Q35.8255 664.984 32.9609 667.626 Q30.0964 670.236 30.0964 674.565 Q30.0964 679.466 32.8654 682.426 Q35.6345 685.355 40.6634 685.8 L40.6316 664.921 Z" fill="#000000" fill-rule="nonzero" fill-opacity="1" /><path clip-path="url(#clip600)" d="M40.1224 619.82 L61.6384 619.82 L61.6384 625.676 L40.3133 625.676 Q35.2526 625.676 32.7381 627.65 Q30.2237 629.623 30.2237 633.57 Q30.2237 638.312 33.2474 641.049 Q36.2711 643.787 41.491 643.787 L61.6384 643.787 L61.6384 649.675 L25.9905 649.675 L25.9905 643.787 L31.5287 643.787 Q28.314 641.686 26.7225 638.853 Q25.1311 635.989 25.1311 632.265 Q25.1311 626.122 28.9505 622.971 Q32.7381 619.82 40.1224 619.82 Z" fill="#000000" fill-rule="nonzero" fill-opacity="1" /><path clip-path="url(#clip600)" d="M27.3591 582.485 L32.8336 582.485 Q31.465 584.967 30.7966 587.482 Q30.0964 589.965 30.0964 592.511 Q30.0964 598.208 33.7248 601.359 Q37.3214 604.51 43.8463 604.51 Q50.3711 604.51 53.9996 601.359 Q57.5962 598.208 57.5962 592.511 Q57.5962 589.965 56.9278 587.482 Q56.2276 584.967 54.859 582.485 L60.2698 582.485 Q61.4156 584.936 61.9886 587.577 Q62.5615 590.187 62.5615 593.147 Q62.5615 601.2 57.5007 605.942 Q52.44 610.685 43.8463 610.685 Q35.1253 610.685 30.1282 605.911 Q25.1311 601.105 25.1311 592.765 Q25.1311 590.06 25.704 587.482 Q26.2451 584.904 27.3591 582.485 Z" fill="#000000" fill-rule="nonzero" fill-opacity="1" /><path clip-path="url(#clip600)" d="M42.3504 541.808 L45.2149 541.808 L45.2149 568.735 Q51.2623 568.353 54.4452 565.106 Q57.5962 561.828 57.5962 556.004 Q57.5962 552.63 56.7687 549.479 Q55.9411 546.296 54.2861 543.177 L59.8242 543.177 Q61.161 546.328 61.8612 549.638 Q62.5615 552.948 62.5615 556.354 Q62.5615 564.884 57.5962 569.881 Q52.631 574.846 44.1646 574.846 Q35.4117 574.846 30.2873 570.135 Q25.1311 565.393 25.1311 557.372 Q25.1311 550.179 29.7781 546.009 Q34.3932 541.808 42.3504 541.808 M40.6316 547.664 Q35.8255 547.728 32.9609 550.37 Q30.0964 552.98 30.0964 557.308 Q30.0964 562.21 32.8654 565.17 Q35.6345 568.098 40.6634 568.544 L40.6316 547.664 Z" fill="#000000" fill-rule="nonzero" fill-opacity="1" /><polyline clip-path="url(#clip602)" style="stroke:#009af9; stroke-linecap:round; stroke-linejoin:round; stroke-width:6; stroke-opacity:1; fill:none" points="226.141,428.694 232.177,429.632 238.214,429.884 244.25,430.735 250.287,431.557 256.323,432.373 262.36,432.87 268.396,433.81 274.433,434.696 280.469,435.576 286.506,436.46 292.542,437.354 298.579,438.255 304.616,439.167 310.652,440.1 316.689,440.774 322.725,441.853 328.762,442.885 334.798,443.923 340.835,444.974 346.871,446.04 352.908,447.124 358.944,448.228 364.981,449.362 371.017,450.493 377.054,451.656 383.091,452.845 389.127,454.06 395.164,455.185 401.2,456.467 407.237,457.767 413.273,459.126 419.31,460.455 425.346,461.814 431.383,463.201 437.419,464.616 443.456,466.059 449.492,467.534 455.529,469.041 461.566,470.579 467.602,472.14 473.639,473.73 479.675,475.35 485.712,477.017 491.748,478.812 497.785,480.505 503.821,482.119 509.858,483.873 515.894,485.664 521.931,487.489 527.967,489.348 534.004,491.24 540.041,493.166 546.077,495.123 552.114,497.111 558.15,499.135 564.187,501.193 570.223,503.285 576.26,505.411 582.296,507.571 588.333,509.764 594.369,511.992 600.406,514.254 606.442,516.549 612.479,518.888 618.516,521.261 624.552,523.668 630.589,526.104 636.625,528.575 642.662,531.063 648.698,533.594 654.735,536.159 660.771,538.758 666.808,541.39 672.844,544.055 678.881,546.752 684.917,549.479 690.954,552.242 696.991,555.045 703.027,557.874 709.064,560.734 715.1,563.625 721.137,566.545 727.173,569.495 733.21,572.474 739.246,575.484 745.283,578.511 751.319,581.57 757.356,584.657 763.392,587.772 769.429,590.908 775.466,594.069 781.502,597.25 787.539,600.452 793.575,603.674 799.612,606.919 805.648,610.178 811.685,613.467 817.721,616.74 823.758,620.028 829.794,623.33 835.831,626.643 841.867,629.961 847.904,633.285 853.941,636.61 859.977,639.934 866.014,643.256 872.05,646.568 878.087,649.882 884.123,653.172 890.16,656.446 896.196,659.703 902.233,662.936 908.269,666.143 914.306,669.318 920.342,672.459 926.379,675.561 932.416,678.618 938.452,681.627 944.489,684.582 950.525,687.472 956.562,690.312 962.598,693.067 968.635,695.751 974.671,698.356 980.708,700.873 986.744,703.297 992.781,705.623 998.817,707.848 1004.85,709.961 1010.89,711.958 1016.93,713.834 1022.96,715.585 1029,717.205 1035.04,718.69 1041.07,720.036 1047.11,721.239 1053.15,722.295 1059.18,723.202 1065.22,723.958 1071.26,724.562 1077.29,725.011 1083.33,725.307 1089.37,725.448 1095.4,725.436 1101.44,725.272 1107.48,724.957 1113.51,724.494 1119.55,723.885 1125.58,723.135 1131.62,722.247 1137.66,721.224 1143.69,720.073 1149.73,718.793 1155.77,717.394 1161.8,715.88 1167.84,714.255 1173.88,712.526 1179.91,710.694 1185.95,708.772 1191.99,706.76 1198.02,704.665 1204.06,702.492 1210.1,700.246 1216.13,697.933 1222.17,695.556 1228.21,693.121 1234.24,690.632 1240.28,688.095 1246.32,685.513 1252.35,682.891 1258.39,680.233 1264.43,677.542 1270.46,674.823 1276.5,672.079 1282.53,669.313 1288.57,666.527 1294.61,663.726 1300.64,660.913 1306.68,658.089 1312.72,655.258 1318.75,652.421 1324.79,649.582 1330.83,646.742 1336.86,643.903 1342.9,641.068 1348.94,638.238 1354.97,635.414 1361.01,632.599 1367.05,629.793 1373.08,626.999 1379.12,624.217 1385.16,621.449 1391.19,618.695 1397.23,615.957 1403.27,613.236 1409.3,610.533 1415.34,607.835 1421.38,605.168 1427.41,602.521 1433.45,599.895 1439.48,597.29 1445.52,594.706 1451.56,592.145 1457.59,589.606 1463.63,587.09 1469.67,584.597 1475.7,582.128 1481.74,579.683 1487.78,577.262 1493.81,574.865 1499.85,572.493 1505.89,570.146 1511.92,567.824 1517.96,565.526 1524,563.254 1530.03,561.007 1536.07,558.785 1542.11,556.588 1548.14,554.416 1554.18,552.27 1560.22,550.149 1566.25,548.052 1572.29,545.982 1578.33,543.935 1584.36,541.914 1590.4,539.918 1596.43,537.946 1602.47,535.999 1608.51,534.076 1614.54,532.177 1620.58,530.303 1626.62,528.452 1632.65,526.626 1638.69,524.823 1644.73,523.043 1650.76,521.287 1656.8,519.554 1662.84,517.844 1668.87,516.157 1674.91,514.492 1680.95,512.85 1686.98,511.23 1693.02,509.632 1699.06,508.037 1705.09,506.48 1711.13,504.945 1717.17,503.43 1723.2,501.937 1729.24,500.464 1735.28,499.011 1741.31,497.578 1747.35,496.165 1753.38,494.772 1759.42,493.399 1765.46,492.045 1771.49,490.709 1777.53,489.393 1783.57,488.095 1789.6,486.815 1795.64,485.554 1801.68,484.31 1807.71,483.084 1813.75,481.876 1819.79,480.685 1825.82,479.511 1831.86,478.353 1837.9,477.212 1843.93,476.088 1849.97,474.98 1856.01,473.887 1862.04,472.811 1868.08,471.75 1874.12,470.704 1880.15,469.674 1886.19,468.658 1892.23,467.657 1898.26,466.671 1904.3,465.699 1910.33,464.741 1916.37,463.797 1922.41,462.867 1928.44,461.95 1934.48,461.046 1940.52,460.156 1946.55,459.279 1952.59,458.414 1958.63,457.562 1964.66,456.723 1970.7,455.895 1976.74,455.08 1982.77,454.276 1988.81,453.484 1994.85,452.695 2000.88,451.928 2006.92,451.171 2012.96,450.426 2018.99,449.692 2025.03,448.969 2031.07,448.257 2037.1,447.555 2043.14,446.864 2049.18,446.183 2055.21,445.512 2061.25,444.851 2067.28,444.199 2073.32,443.558 2079.36,442.926 2085.39,442.303 2091.43,441.689 2097.47,441.085 2103.5,440.49 2109.54,439.903 2115.58,439.325 2121.61,438.756 2127.65,438.195 2133.69,437.643 2139.72,437.099 2145.76,436.562 2151.8,436.034 2157.83,435.514 2163.87,435.001 2169.91,434.496 2175.94,433.999 2181.98,433.509 2188.02,433.026 2194.05,432.55 2200.09,432.082 2206.13,431.62 2212.16,431.165 2218.2,430.717 2224.23,430.276 2230.27,429.841 2236.31,429.413 2242.34,428.991 2248.38,428.576 2254.42,428.167 2260.45,427.763 2266.49,427.362 2272.53,426.971 2278.56,426.585 2284.6,426.205 2290.64,425.832 2296.67,425.463 2302.71,425.1 2308.75,424.739 2314.78,424.387 2320.82,424.04 2326.86,423.698 2332.89,423.361 2338.93,423.029 2344.97,422.703 2351,422.381 2357.04,422.064 2363.08,421.752 2369.11,421.444 2375.15,421.141 2381.18,420.842 2387.22,420.548 2393.26,420.259 2399.29,419.973 2405.33,419.692 2411.37,419.415 2417.4,419.143 2423.44,418.874 2429.48,418.609 2435.51,418.349 2441.55,418.092 2447.59,417.839 2453.62,417.59 2459.66,417.344 2465.7,417.102 2471.73,416.864 2477.77,416.629 2483.81,416.398 2489.84,416.171 2495.88,415.946 2501.92,415.726 2507.95,415.508 2513.99,415.294 2520.03,415.082 2526.06,414.874 2532.1,414.67 2538.13,414.468 2544.17,414.269 2550.21,414.073 2556.24,413.88 2562.28,413.69 2568.32,413.503 2574.35,413.319 2580.39,413.137 2586.43,412.959 2592.46,412.783 2598.5,412.609 2604.54,412.438 2610.57,412.27 2616.61,412.104 2622.65,411.941 2628.68,411.781 2634.72,411.622 2640.76,411.467 2646.79,411.313 2652.83,411.162 2658.87,411.013 2664.9,410.867 2670.94,410.723 2676.98,410.581 2683.01,410.441 2689.05,410.304 2695.08,410.167 2701.12,410.033 2707.16,409.9 2713.19,409.77 2719.23,409.641 2725.27,409.515 2731.3,409.39 2737.34,409.267 2743.38,409.146 2749.41,409.027 2755.45,408.909 2761.49,408.794 2767.52,408.68 2773.56,408.567 2779.6,408.457 2785.63,408.348 2791.67,408.241 2797.71,408.135 2803.74,408.031 2809.78,407.928 2815.82,407.827 2821.85,407.727 2827.89,407.629 2833.93,407.533 2839.96,407.438 2846,407.344 2852.03,407.252 2858.07,407.161 2864.11,407.071 2870.14,406.983 2876.18,406.896 2882.22,406.81 2888.25,406.726 2894.29,406.643 2900.33,406.561 2906.36,406.48 2912.4,406.401 2918.44,406.323 2924.47,406.245 2930.51,406.17 2936.55,406.095 2942.58,406.021 2948.62,405.948 2954.66,405.877 2960.69,405.807 2966.73,405.737 2972.77,405.669 2978.8,405.602 2984.84,405.535 2990.88,405.47 2996.91,405.406 3002.95,405.342 3008.98,405.28 3015.02,405.219 3021.06,405.158 3027.09,405.098 3033.13,405.039 3039.17,404.981 3045.2,404.924 3051.24,404.868 3057.28,404.813 3063.31,404.758 3069.35,404.704 3075.39,404.651 3081.42,404.599 3087.46,404.548 3093.5,404.497 3099.53,404.447 3105.57,404.398 3111.61,404.35 3117.64,404.302 3123.68,404.255 3129.72,404.209 3135.75,404.163 3141.79,404.119 3147.83,404.074 3153.86,404.031 3159.9,403.988 3165.93,403.946 3171.97,403.904 3178.01,403.863 3184.04,403.823 3190.08,403.783 3196.12,403.744 3202.15,403.705 3208.19,403.667 3214.23,403.629 3220.26,403.593 3226.3,403.556 3232.34,403.52 3238.37,403.485 3244.41,403.45 3250.45,403.416 3256.48,403.382 3262.52,403.349 3268.56,403.316 3274.59,403.284 3280.63,403.252 3286.67,403.221 3292.7,403.19 3298.74,403.16 3304.78,403.13 3310.81,403.101 3316.85,403.072 3322.88,403.043 3328.92,403.015 3334.96,402.987 3340.99,402.96 3347.03,402.933 3353.07,402.906 3359.1,402.88 3365.14,402.855 3371.18,402.829 3377.21,402.804 3383.25,402.78 3389.29,402.756 3395.32,402.732 3401.36,402.708 3407.4,402.685 3413.43,402.662 3419.47,402.64 3425.51,402.617 3431.54,402.596 3437.58,402.574 3443.62,402.553 3449.65,402.532 3455.69,402.511 3461.73,402.491 3467.76,402.471 3473.8,402.452 3479.83,402.432 3485.87,402.413 3491.91,402.394 3497.94,402.376 3503.98,402.358 3510.02,402.34 3516.05,402.322 3522.09,402.305 3528.13,402.287 3534.16,402.27 3540.2,402.254 3546.24,402.237 3552.27,402.221 3558.31,402.205 3564.35,402.19 3570.38,402.174 3576.42,402.159 3582.46,402.144 3588.49,402.129 3594.53,402.115 3600.57,402.1 3606.6,402.086 3612.64,402.072 3618.68,402.059 3624.71,402.045 3630.75,402.032 3636.78,402.019 3642.82,402.006 3648.86,401.993 3654.89,401.981 3660.93,401.968 3666.97,401.956 3673,401.944 3679.04,401.932 3685.08,401.921 3691.11,401.909 3697.15,401.898 3703.19,401.887 3709.22,401.876 3715.26,401.865 3721.3,401.855 3727.33,401.844 3733.37,401.834 3739.41,401.824 3745.44,401.814 3751.48,401.804 3757.52,401.794 3763.55,401.785 3769.59,401.775 3775.63,401.766 3781.66,401.757 3787.7,401.748 3793.73,401.739 3799.77,401.73 3805.81,401.722 3811.84,401.713 3817.88,401.705 3823.92,401.696 3829.95,401.688 3835.99,401.68 3842.03,401.672 3848.06,401.665 3854.1,401.657 3860.14,401.65 3866.17,401.642 3872.21,401.635 3878.25,401.628 3884.28,401.621 3890.32,401.614 3896.36,401.607 3902.39,401.6 3908.43,401.593 3914.47,401.587 3920.5,401.58 3926.54,401.574 3932.58,401.568 3938.61,401.561 3944.65,401.555 3950.68,401.549 3956.72,401.543 3962.76,401.538 3968.79,401.532 3974.83,401.526 3980.87,401.521 3986.9,401.515 3992.94,401.51 3998.98,401.504 4005.01,401.499 4011.05,401.494 4017.09,401.489 4023.12,401.484 4029.16,401.479 4035.2,401.474 4041.23,401.469 4047.27,401.465 4053.31,401.46 4059.34,401.455 4065.38,401.451 4071.42,401.447 4077.45,401.442 4083.49,401.438 4089.53,401.434 4095.56,401.429 4101.6,401.425 4107.63,401.421 4113.67,401.417 4119.71,401.413 4125.74,401.409 4131.78,401.406 4137.82,401.402 4143.85,401.398 4149.89,401.394 4155.93,401.391 4161.96,401.387 4168,401.384 4174.04,401.38 4180.07,401.377 4186.11,401.374 4192.15,401.37 4198.18,401.367 4204.22,401.364 4210.26,401.361 4216.29,401.358 4222.33,401.354 4228.37,401.351 4234.4,401.349 4240.44,401.346 4246.48,401.343 4252.51,401.34 4258.55,401.337 4264.58,401.334 4270.62,401.332 4276.66,401.329 4282.69,401.326 4288.73,401.324 4294.77,401.321 4300.8,401.319 4306.84,401.316 4312.88,401.314 4318.91,401.311 4324.95,401.309 4330.99,401.307 4337.02,401.304 4343.06,401.302 4349.1,401.3 4355.13,401.298 4361.17,401.295 4367.21,401.293 4373.24,401.291 4379.28,401.289 4385.32,401.287 4391.35,401.285 4397.39,401.283 4403.43,401.281 4409.46,401.279 4415.5,401.277 4421.53,401.276 4427.57,401.274 4433.61,401.272 4439.64,401.27 4445.68,401.268 4451.72,401.267 4457.75,401.265 4463.79,401.263 4469.83,401.262 4475.86,401.26 4481.9,401.258 4487.94,401.257 4493.97,401.255 4500.01,401.254 4506.05,401.252 4512.08,401.251 4518.12,401.249 4524.16,401.248 4530.19,401.246 4536.23,401.245 4542.27,401.244 4548.3,401.242 4554.34,401.241 4560.38,401.24 4566.41,401.238 4572.45,401.237 4578.48,401.236 4584.52,401.235 4590.56,401.233 4596.59,401.232 4602.63,401.231 4608.67,401.23 4614.7,401.229 4620.74,401.227 4626.78,401.226 4632.81,401.225 4638.85,401.224 4644.89,401.223 4650.92,401.222 4656.96,401.221 4663,401.22 4669.03,401.219 4675.07,401.218 4681.11,401.217 4687.14,401.216 4693.18,401.215 4699.22,401.214 4705.25,401.213 4711.29,401.212 4717.33,401.211 4723.36,401.211 4729.4,401.21 4735.43,401.209 4741.47,401.208 4747.51,401.207 4753.54,401.206 4759.58,401.206 4765.62,401.205 4771.65,401.204 4777.69,401.203 4783.73,401.202 4789.76,401.202 4795.8,401.201 4801.84,401.2 4807.87,401.2 4813.91,401.199 4819.95,401.198 4825.98,401.198 4832.02,401.197 4838.06,401.196 4844.09,401.196 4850.13,401.195 4856.17,401.194 4862.2,401.194 4868.24,401.193 4874.28,401.192 4880.31,401.192 4886.35,401.191 4892.38,401.191 4898.42,401.19 4904.46,401.19 4910.49,401.189 4916.53,401.188 4922.57,401.188 4928.6,401.187 4934.64,401.187 4940.68,401.186 4946.71,401.186 4952.75,401.185 4958.79,401.185 4964.82,401.184 4970.86,401.184 4976.9,401.183 4982.93,401.183 4988.97,401.183 4995.01,401.182 5001.04,401.182 5007.08,401.181 5013.12,401.181 5019.15,401.18 5025.19,401.18 5031.23,401.18 5037.26,401.179 5043.3,401.179 5049.33,401.178 5055.37,401.178 5061.41,401.178 5067.44,401.177 5073.48,401.177 5079.52,401.176 5085.55,401.176 5091.59,401.176 5097.63,401.175 5103.66,401.175 5109.7,401.175 5115.74,401.174 5121.77,401.174 5127.81,401.174 5133.85,401.173 5139.88,401.173 5145.92,401.173 5151.96,401.172 5157.99,401.172 5164.03,401.172 5170.07,401.172 5176.1,401.171 5182.14,401.171 5188.18,401.171 5194.21,401.17 5200.25,401.17 5206.28,401.17 5212.32,401.17 5218.36,401.169 5224.39,401.169 5230.43,401.169 5236.47,401.169 5242.5,401.168 5248.54,401.168 5254.58,401.168 5260.61,401.168 5266.65,401.168 5272.69,401.167 5278.72,401.167 5284.76,401.167 5290.8,401.167 5296.83,401.166 5302.87,401.166 5308.91,401.166 5314.94,401.166 5320.98,401.166 5327.02,401.165 5333.05,401.165 5339.09,401.165 5345.13,401.165 5351.16,401.165 5357.2,401.164 5363.23,401.164 5369.27,401.164 5375.31,401.164 5381.34,401.164 5387.38,401.164 5393.42,401.163 5399.45,401.163 5405.49,401.163 5411.53,401.163 5417.56,401.163 5423.6,401.163 5429.64,401.163 5435.67,401.162 5441.71,401.162 5447.75,401.162 5453.78,401.162 5459.82,401.162 5465.86,401.162 5471.89,401.162 5477.93,401.161 5483.97,401.161 5490,401.161 5496.04,401.161 5502.08,401.161 5508.11,401.161 5514.15,401.161 5520.18,401.161 5526.22,401.16 5532.26,401.16 5538.29,401.16 5544.33,401.16 5550.37,401.16 5556.4,401.16 5562.44,401.16 5568.48,401.16 5574.51,401.159 5580.55,401.159 5586.59,401.159 5592.62,401.159 5598.66,401.159 5604.7,401.159 5610.73,401.159 5616.77,401.159 5622.81,401.159 5628.84,401.159 5634.88,401.158 5640.92,401.158 5646.95,401.158 5652.99,401.158 5659.03,401.158 5665.06,401.158 5671.1,401.158 5677.13,401.158 5683.17,401.158 5689.21,401.158 5695.24,401.158 5701.28,401.158 5707.32,401.158 5713.35,401.157 5719.39,401.157 5725.43,401.157 5731.46,401.157 5737.5,401.157 5743.54,401.157 5749.57,401.157 5755.61,401.157 5761.65,401.157 5767.68,401.157 5773.72,401.157 5779.76,401.157 5785.79,401.157 5791.83,401.157 5797.87,401.156 5803.9,401.156 5809.94,401.156 5815.98,401.156 5822.01,401.156 5828.05,401.156 5834.08,401.156 5840.12,401.156 5846.16,401.156 5852.19,401.156 5858.23,401.156 5864.27,401.156 5870.3,401.156 5876.34,401.156 5882.38,401.156 5888.41,401.156 5894.45,401.156 5900.49,401.156 5906.52,401.156 5912.56,401.156 5918.6,401.155 5924.63,401.155 5930.67,401.155 5936.71,401.155 5942.74,401.155 5948.78,401.155 5954.82,401.155 5960.85,401.155 5966.89,401.155 5972.93,401.155 5978.96,401.155 5985,401.155 5991.03,401.155 5997.07,401.155 6003.11,401.155 6009.14,401.155 6015.18,401.155 6021.22,401.155 6027.25,401.155 6033.29,401.155 6039.33,401.155 6045.36,401.155 6051.4,401.155 6057.44,401.155 6063.47,401.155 6069.51,401.155 6075.55,401.154 6081.58,401.154 6087.62,401.154 6093.66,401.154 6099.69,401.154 6105.73,401.154 6111.77,401.154 6117.8,401.154 6123.84,401.154 6129.88,401.154 6135.91,401.154 6141.95,401.154 6147.98,401.154 6154.02,401.154 6160.06,401.154 6166.09,401.154 6172.13,401.154 6178.17,401.154 6184.2,401.154 6190.24,401.154 6196.28,401.154 6202.31,401.154 6208.35,401.154 6214.39,401.154 6220.42,401.154 6226.46,401.154 6232.5,401.154 6238.53,401.154 6244.57,401.154 6250.61,401.154 6256.64,401.154 6262.68,401.154 "/>
<polyline clip-path="url(#clip602)" style="stroke:#e26f46; stroke-linecap:round; stroke-linejoin:round; stroke-width:6; stroke-opacity:1; fill:none" points="1089.37,3420.99 1089.37,-1639.63 "/>
</svg>
