<?xml version="1.0" encoding="utf-8"?>
<svg xmlns="http://www.w3.org/2000/svg" xmlns:xlink="http://www.w3.org/1999/xlink" width="672" height="480" viewBox="0 0 2688 1920">
<defs>
  <clipPath id="clip260">
    <rect x="0" y="0" width="2688" height="1920"/>
  </clipPath>
</defs>
<path clip-path="url(#clip260)" d="M0 1920 L2688 1920 L2688 -4.26326e-14 L0 -4.26326e-14  Z" fill="#ffffff" fill-rule="evenodd" fill-opacity="1"/>
<defs>
  <clipPath id="clip261">
    <rect x="537" y="0" width="1883" height="1883"/>
  </clipPath>
</defs>
<path clip-path="url(#clip260)" d="M225.654 1734.12 L2640.76 1734.12 L2640.76 47.2441 L225.654 47.2441  Z" fill="#ffffff" fill-rule="evenodd" fill-opacity="1"/>
<defs>
  <clipPath id="clip262">
    <rect x="225" y="47" width="2416" height="1688"/>
  </clipPath>
</defs>
<polyline clip-path="url(#clip262)" style="stroke:#000000; stroke-linecap:round; stroke-linejoin:round; stroke-width:2; stroke-opacity:0.1; fill:none" points="225.654,1734.12 225.654,47.2441 "/>
<polyline clip-path="url(#clip262)" style="stroke:#000000; stroke-linecap:round; stroke-linejoin:round; stroke-width:2; stroke-opacity:0.1; fill:none" points="628.171,1734.12 628.171,47.2441 "/>
<polyline clip-path="url(#clip262)" style="stroke:#000000; stroke-linecap:round; stroke-linejoin:round; stroke-width:2; stroke-opacity:0.1; fill:none" points="1030.69,1734.12 1030.69,47.2441 "/>
<polyline clip-path="url(#clip262)" style="stroke:#000000; stroke-linecap:round; stroke-linejoin:round; stroke-width:2; stroke-opacity:0.1; fill:none" points="1433.21,1734.12 1433.21,47.2441 "/>
<polyline clip-path="url(#clip262)" style="stroke:#000000; stroke-linecap:round; stroke-linejoin:round; stroke-width:2; stroke-opacity:0.1; fill:none" points="1835.72,1734.12 1835.72,47.2441 "/>
<polyline clip-path="url(#clip262)" style="stroke:#000000; stroke-linecap:round; stroke-linejoin:round; stroke-width:2; stroke-opacity:0.1; fill:none" points="2238.24,1734.12 2238.24,47.2441 "/>
<polyline clip-path="url(#clip262)" style="stroke:#000000; stroke-linecap:round; stroke-linejoin:round; stroke-width:2; stroke-opacity:0.1; fill:none" points="2640.76,1734.12 2640.76,47.2441 "/>
<polyline clip-path="url(#clip262)" style="stroke:#000000; stroke-linecap:round; stroke-linejoin:round; stroke-width:2; stroke-opacity:0.1; fill:none" points="225.654,1686.38 2640.76,1686.38 "/>
<polyline clip-path="url(#clip262)" style="stroke:#000000; stroke-linecap:round; stroke-linejoin:round; stroke-width:2; stroke-opacity:0.1; fill:none" points="225.654,1284.51 2640.76,1284.51 "/>
<polyline clip-path="url(#clip262)" style="stroke:#000000; stroke-linecap:round; stroke-linejoin:round; stroke-width:2; stroke-opacity:0.1; fill:none" points="225.654,882.644 2640.76,882.644 "/>
<polyline clip-path="url(#clip262)" style="stroke:#000000; stroke-linecap:round; stroke-linejoin:round; stroke-width:2; stroke-opacity:0.1; fill:none" points="225.654,480.778 2640.76,480.778 "/>
<polyline clip-path="url(#clip262)" style="stroke:#000000; stroke-linecap:round; stroke-linejoin:round; stroke-width:2; stroke-opacity:0.1; fill:none" points="225.654,78.9111 2640.76,78.9111 "/>
<polyline clip-path="url(#clip260)" style="stroke:#000000; stroke-linecap:round; stroke-linejoin:round; stroke-width:4; stroke-opacity:1; fill:none" points="225.654,1734.12 2640.76,1734.12 "/>
<polyline clip-path="url(#clip260)" style="stroke:#000000; stroke-linecap:round; stroke-linejoin:round; stroke-width:4; stroke-opacity:1; fill:none" points="225.654,1734.12 225.654,1715.22 "/>
<polyline clip-path="url(#clip260)" style="stroke:#000000; stroke-linecap:round; stroke-linejoin:round; stroke-width:4; stroke-opacity:1; fill:none" points="628.171,1734.12 628.171,1715.22 "/>
<polyline clip-path="url(#clip260)" style="stroke:#000000; stroke-linecap:round; stroke-linejoin:round; stroke-width:4; stroke-opacity:1; fill:none" points="1030.69,1734.12 1030.69,1715.22 "/>
<polyline clip-path="url(#clip260)" style="stroke:#000000; stroke-linecap:round; stroke-linejoin:round; stroke-width:4; stroke-opacity:1; fill:none" points="1433.21,1734.12 1433.21,1715.22 "/>
<polyline clip-path="url(#clip260)" style="stroke:#000000; stroke-linecap:round; stroke-linejoin:round; stroke-width:4; stroke-opacity:1; fill:none" points="1835.72,1734.12 1835.72,1715.22 "/>
<polyline clip-path="url(#clip260)" style="stroke:#000000; stroke-linecap:round; stroke-linejoin:round; stroke-width:4; stroke-opacity:1; fill:none" points="2238.24,1734.12 2238.24,1715.22 "/>
<polyline clip-path="url(#clip260)" style="stroke:#000000; stroke-linecap:round; stroke-linejoin:round; stroke-width:4; stroke-opacity:1; fill:none" points="2640.76,1734.12 2640.76,1715.22 "/>
<path clip-path="url(#clip260)" d="M225.654 1767.34 Q222.043 1767.34 220.215 1770.9 Q218.409 1774.45 218.409 1781.58 Q218.409 1788.68 220.215 1792.25 Q222.043 1795.79 225.654 1795.79 Q229.289 1795.79 231.094 1792.25 Q232.923 1788.68 232.923 1781.58 Q232.923 1774.45 231.094 1770.9 Q229.289 1767.34 225.654 1767.34 M225.654 1763.64 Q231.465 1763.64 234.52 1768.24 Q237.599 1772.83 237.599 1781.58 Q237.599 1790.3 234.52 1794.91 Q231.465 1799.49 225.654 1799.49 Q219.844 1799.49 216.766 1794.91 Q213.71 1790.3 213.71 1781.58 Q213.71 1772.83 216.766 1768.24 Q219.844 1763.64 225.654 1763.64 Z" fill="#000000" fill-rule="nonzero" fill-opacity="1" /><path clip-path="url(#clip260)" d="M602.859 1794.89 L610.498 1794.89 L610.498 1768.52 L602.188 1770.19 L602.188 1765.93 L610.452 1764.26 L615.127 1764.26 L615.127 1794.89 L622.766 1794.89 L622.766 1798.82 L602.859 1798.82 L602.859 1794.89 Z" fill="#000000" fill-rule="nonzero" fill-opacity="1" /><path clip-path="url(#clip260)" d="M642.211 1767.34 Q638.6 1767.34 636.771 1770.9 Q634.965 1774.45 634.965 1781.58 Q634.965 1788.68 636.771 1792.25 Q638.6 1795.79 642.211 1795.79 Q645.845 1795.79 647.65 1792.25 Q649.479 1788.68 649.479 1781.58 Q649.479 1774.45 647.65 1770.9 Q645.845 1767.34 642.211 1767.34 M642.211 1763.64 Q648.021 1763.64 651.076 1768.24 Q654.155 1772.83 654.155 1781.58 Q654.155 1790.3 651.076 1794.91 Q648.021 1799.49 642.211 1799.49 Q636.4 1799.49 633.322 1794.91 Q630.266 1790.3 630.266 1781.58 Q630.266 1772.83 633.322 1768.24 Q636.4 1763.64 642.211 1763.64 Z" fill="#000000" fill-rule="nonzero" fill-opacity="1" /><path clip-path="url(#clip260)" d="M1009.46 1794.89 L1025.78 1794.89 L1025.78 1798.82 L1003.84 1798.82 L1003.84 1794.89 Q1006.5 1792.13 1011.08 1787.5 Q1015.69 1782.85 1016.87 1781.51 Q1019.11 1778.98 1019.99 1777.25 Q1020.9 1775.49 1020.9 1773.8 Q1020.9 1771.04 1018.95 1769.31 Q1017.03 1767.57 1013.93 1767.57 Q1011.73 1767.57 1009.28 1768.34 Q1006.85 1769.1 1004.07 1770.65 L1004.07 1765.93 Q1006.89 1764.79 1009.35 1764.21 Q1011.8 1763.64 1013.84 1763.64 Q1019.21 1763.64 1022.4 1766.32 Q1025.6 1769.01 1025.6 1773.5 Q1025.6 1775.63 1024.79 1777.55 Q1024 1779.45 1021.89 1782.04 Q1021.31 1782.71 1018.21 1785.93 Q1015.11 1789.12 1009.46 1794.89 Z" fill="#000000" fill-rule="nonzero" fill-opacity="1" /><path clip-path="url(#clip260)" d="M1045.6 1767.34 Q1041.98 1767.34 1040.16 1770.9 Q1038.35 1774.45 1038.35 1781.58 Q1038.35 1788.68 1040.16 1792.25 Q1041.98 1795.79 1045.6 1795.79 Q1049.23 1795.79 1051.04 1792.25 Q1052.86 1788.68 1052.86 1781.58 Q1052.86 1774.45 1051.04 1770.9 Q1049.23 1767.34 1045.6 1767.34 M1045.6 1763.64 Q1051.41 1763.64 1054.46 1768.24 Q1057.54 1772.83 1057.54 1781.58 Q1057.54 1790.3 1054.46 1794.91 Q1051.41 1799.49 1045.6 1799.49 Q1039.79 1799.49 1036.71 1794.91 Q1033.65 1790.3 1033.65 1781.58 Q1033.65 1772.83 1036.71 1768.24 Q1039.79 1763.64 1045.6 1763.64 Z" fill="#000000" fill-rule="nonzero" fill-opacity="1" /><path clip-path="url(#clip260)" d="M1422.05 1780.19 Q1425.4 1780.9 1427.28 1783.17 Q1429.18 1785.44 1429.18 1788.77 Q1429.18 1793.89 1425.66 1796.69 Q1422.14 1799.49 1415.66 1799.49 Q1413.48 1799.49 1411.17 1799.05 Q1408.88 1798.64 1406.42 1797.78 L1406.42 1793.27 Q1408.37 1794.4 1410.68 1794.98 Q1413 1795.56 1415.52 1795.56 Q1419.92 1795.56 1422.21 1793.82 Q1424.52 1792.08 1424.52 1788.77 Q1424.52 1785.72 1422.37 1784.01 Q1420.24 1782.27 1416.42 1782.27 L1412.4 1782.27 L1412.4 1778.43 L1416.61 1778.43 Q1420.06 1778.43 1421.89 1777.06 Q1423.71 1775.67 1423.71 1773.08 Q1423.71 1770.42 1421.82 1769.01 Q1419.94 1767.57 1416.42 1767.57 Q1414.5 1767.57 1412.3 1767.99 Q1410.1 1768.4 1407.46 1769.28 L1407.46 1765.12 Q1410.13 1764.38 1412.44 1764.01 Q1414.78 1763.64 1416.84 1763.64 Q1422.16 1763.64 1425.27 1766.07 Q1428.37 1768.47 1428.37 1772.59 Q1428.37 1775.46 1426.72 1777.46 Q1425.08 1779.42 1422.05 1780.19 Z" fill="#000000" fill-rule="nonzero" fill-opacity="1" /><path clip-path="url(#clip260)" d="M1448.04 1767.34 Q1444.43 1767.34 1442.6 1770.9 Q1440.8 1774.45 1440.8 1781.58 Q1440.8 1788.68 1442.6 1792.25 Q1444.43 1795.79 1448.04 1795.79 Q1451.68 1795.79 1453.48 1792.25 Q1455.31 1788.68 1455.31 1781.58 Q1455.31 1774.45 1453.48 1770.9 Q1451.68 1767.34 1448.04 1767.34 M1448.04 1763.64 Q1453.85 1763.64 1456.91 1768.24 Q1459.99 1772.83 1459.99 1781.58 Q1459.99 1790.3 1456.91 1794.91 Q1453.85 1799.49 1448.04 1799.49 Q1442.23 1799.49 1439.15 1794.91 Q1436.1 1790.3 1436.1 1781.58 Q1436.1 1772.83 1439.15 1768.24 Q1442.23 1763.64 1448.04 1763.64 Z" fill="#000000" fill-rule="nonzero" fill-opacity="1" /><path clip-path="url(#clip260)" d="M1823.89 1768.34 L1812.09 1786.78 L1823.89 1786.78 L1823.89 1768.34 M1822.67 1764.26 L1828.55 1764.26 L1828.55 1786.78 L1833.48 1786.78 L1833.48 1790.67 L1828.55 1790.67 L1828.55 1798.82 L1823.89 1798.82 L1823.89 1790.67 L1808.29 1790.67 L1808.29 1786.16 L1822.67 1764.26 Z" fill="#000000" fill-rule="nonzero" fill-opacity="1" /><path clip-path="url(#clip260)" d="M1851.21 1767.34 Q1847.6 1767.34 1845.77 1770.9 Q1843.96 1774.45 1843.96 1781.58 Q1843.96 1788.68 1845.77 1792.25 Q1847.6 1795.79 1851.21 1795.79 Q1854.84 1795.79 1856.65 1792.25 Q1858.48 1788.68 1858.48 1781.58 Q1858.48 1774.45 1856.65 1770.9 Q1854.84 1767.34 1851.21 1767.34 M1851.21 1763.64 Q1857.02 1763.64 1860.07 1768.24 Q1863.15 1772.83 1863.15 1781.58 Q1863.15 1790.3 1860.07 1794.91 Q1857.02 1799.49 1851.21 1799.49 Q1845.4 1799.49 1842.32 1794.91 Q1839.26 1790.3 1839.26 1781.58 Q1839.26 1772.83 1842.32 1768.24 Q1845.4 1763.64 1851.21 1763.64 Z" fill="#000000" fill-rule="nonzero" fill-opacity="1" /><path clip-path="url(#clip260)" d="M2212.94 1764.26 L2231.29 1764.26 L2231.29 1768.2 L2217.22 1768.2 L2217.22 1776.67 Q2218.24 1776.32 2219.26 1776.16 Q2220.28 1775.97 2221.29 1775.97 Q2227.08 1775.97 2230.46 1779.15 Q2233.84 1782.32 2233.84 1787.73 Q2233.84 1793.31 2230.37 1796.41 Q2226.9 1799.49 2220.58 1799.49 Q2218.4 1799.49 2216.13 1799.12 Q2213.89 1798.75 2211.48 1798.01 L2211.48 1793.31 Q2213.56 1794.45 2215.79 1795 Q2218.01 1795.56 2220.48 1795.56 Q2224.49 1795.56 2226.83 1793.45 Q2229.16 1791.34 2229.16 1787.73 Q2229.16 1784.12 2226.83 1782.02 Q2224.49 1779.91 2220.48 1779.91 Q2218.61 1779.91 2216.73 1780.33 Q2214.88 1780.74 2212.94 1781.62 L2212.94 1764.26 Z" fill="#000000" fill-rule="nonzero" fill-opacity="1" /><path clip-path="url(#clip260)" d="M2253.05 1767.34 Q2249.44 1767.34 2247.61 1770.9 Q2245.81 1774.45 2245.81 1781.58 Q2245.81 1788.68 2247.61 1792.25 Q2249.44 1795.79 2253.05 1795.79 Q2256.69 1795.79 2258.49 1792.25 Q2260.32 1788.68 2260.32 1781.58 Q2260.32 1774.45 2258.49 1770.9 Q2256.69 1767.34 2253.05 1767.34 M2253.05 1763.64 Q2258.86 1763.64 2261.92 1768.24 Q2265 1772.83 2265 1781.58 Q2265 1790.3 2261.92 1794.91 Q2258.86 1799.49 2253.05 1799.49 Q2247.24 1799.49 2244.16 1794.91 Q2241.11 1790.3 2241.11 1781.58 Q2241.11 1772.83 2244.16 1768.24 Q2247.24 1763.64 2253.05 1763.64 Z" fill="#000000" fill-rule="nonzero" fill-opacity="1" /><path clip-path="url(#clip260)" d="M2626.16 1779.68 Q2623.01 1779.68 2621.16 1781.83 Q2619.33 1783.98 2619.33 1787.73 Q2619.33 1791.46 2621.16 1793.64 Q2623.01 1795.79 2626.16 1795.79 Q2629.31 1795.79 2631.14 1793.64 Q2632.99 1791.46 2632.99 1787.73 Q2632.99 1783.98 2631.14 1781.83 Q2629.31 1779.68 2626.16 1779.68 M2635.44 1765.02 L2635.44 1769.28 Q2633.68 1768.45 2631.88 1768.01 Q2630.1 1767.57 2628.34 1767.57 Q2623.71 1767.57 2621.25 1770.7 Q2618.82 1773.82 2618.48 1780.14 Q2619.84 1778.13 2621.9 1777.06 Q2623.96 1775.97 2626.44 1775.97 Q2631.65 1775.97 2634.66 1779.15 Q2637.69 1782.29 2637.69 1787.73 Q2637.69 1793.06 2634.54 1796.27 Q2631.39 1799.49 2626.16 1799.49 Q2620.17 1799.49 2616.99 1794.91 Q2613.82 1790.3 2613.82 1781.58 Q2613.82 1773.38 2617.71 1768.52 Q2621.6 1763.64 2628.15 1763.64 Q2629.91 1763.64 2631.69 1763.98 Q2633.5 1764.33 2635.44 1765.02 Z" fill="#000000" fill-rule="nonzero" fill-opacity="1" /><path clip-path="url(#clip260)" d="M2655.74 1767.34 Q2652.13 1767.34 2650.3 1770.9 Q2648.5 1774.45 2648.5 1781.58 Q2648.5 1788.68 2650.3 1792.25 Q2652.13 1795.79 2655.74 1795.79 Q2659.38 1795.79 2661.18 1792.25 Q2663.01 1788.68 2663.01 1781.58 Q2663.01 1774.45 2661.18 1770.9 Q2659.38 1767.34 2655.74 1767.34 M2655.74 1763.64 Q2661.55 1763.64 2664.61 1768.24 Q2667.69 1772.83 2667.69 1781.58 Q2667.69 1790.3 2664.61 1794.91 Q2661.55 1799.49 2655.74 1799.49 Q2649.93 1799.49 2646.86 1794.91 Q2643.8 1790.3 2643.8 1781.58 Q2643.8 1772.83 2646.86 1768.24 Q2649.93 1763.64 2655.74 1763.64 Z" fill="#000000" fill-rule="nonzero" fill-opacity="1" /><path clip-path="url(#clip260)" d="M1355.08 1835.78 L1395.28 1835.78 L1395.28 1841.19 L1378.41 1841.19 L1378.41 1883.3 L1371.95 1883.3 L1371.95 1841.19 L1355.08 1841.19 L1355.08 1835.78 Z" fill="#000000" fill-rule="nonzero" fill-opacity="1" /><path clip-path="url(#clip260)" d="M1399.23 1847.65 L1405.08 1847.65 L1405.08 1883.3 L1399.23 1883.3 L1399.23 1847.65 M1399.23 1833.78 L1405.08 1833.78 L1405.08 1841.19 L1399.23 1841.19 L1399.23 1833.78 Z" fill="#000000" fill-rule="nonzero" fill-opacity="1" /><path clip-path="url(#clip260)" d="M1445.09 1854.5 Q1447.29 1850.55 1450.34 1848.67 Q1453.4 1846.79 1457.54 1846.79 Q1463.11 1846.79 1466.13 1850.71 Q1469.16 1854.59 1469.16 1861.78 L1469.16 1883.3 L1463.27 1883.3 L1463.27 1861.98 Q1463.27 1856.85 1461.45 1854.37 Q1459.64 1851.89 1455.91 1851.89 Q1451.36 1851.89 1448.72 1854.91 Q1446.08 1857.93 1446.08 1863.15 L1446.08 1883.3 L1440.19 1883.3 L1440.19 1861.98 Q1440.19 1856.82 1438.38 1854.37 Q1436.56 1851.89 1432.78 1851.89 Q1428.29 1851.89 1425.65 1854.94 Q1423 1857.97 1423 1863.15 L1423 1883.3 L1417.12 1883.3 L1417.12 1847.65 L1423 1847.65 L1423 1853.19 Q1425.01 1849.91 1427.81 1848.35 Q1430.61 1846.79 1434.46 1846.79 Q1438.35 1846.79 1441.05 1848.77 Q1443.79 1850.74 1445.09 1854.5 Z" fill="#000000" fill-rule="nonzero" fill-opacity="1" /><path clip-path="url(#clip260)" d="M1511.33 1864.01 L1511.33 1866.88 L1484.4 1866.88 Q1484.78 1872.92 1488.03 1876.11 Q1491.31 1879.26 1497.13 1879.26 Q1500.51 1879.26 1503.66 1878.43 Q1506.84 1877.6 1509.96 1875.95 L1509.96 1881.49 Q1506.81 1882.82 1503.5 1883.52 Q1500.19 1884.22 1496.78 1884.22 Q1488.25 1884.22 1483.26 1879.26 Q1478.29 1874.29 1478.29 1865.83 Q1478.29 1857.07 1483 1851.95 Q1487.74 1846.79 1495.76 1846.79 Q1502.96 1846.79 1507.13 1851.44 Q1511.33 1856.06 1511.33 1864.01 M1505.47 1862.29 Q1505.41 1857.49 1502.77 1854.62 Q1500.16 1851.76 1495.83 1851.76 Q1490.93 1851.76 1487.97 1854.53 Q1485.04 1857.3 1484.59 1862.33 L1505.47 1862.29 Z" fill="#000000" fill-rule="nonzero" fill-opacity="1" /><polyline clip-path="url(#clip260)" style="stroke:#000000; stroke-linecap:round; stroke-linejoin:round; stroke-width:4; stroke-opacity:1; fill:none" points="225.654,1734.12 225.654,47.2441 "/>
<polyline clip-path="url(#clip260)" style="stroke:#000000; stroke-linecap:round; stroke-linejoin:round; stroke-width:4; stroke-opacity:1; fill:none" points="225.654,1686.38 244.552,1686.38 "/>
<polyline clip-path="url(#clip260)" style="stroke:#000000; stroke-linecap:round; stroke-linejoin:round; stroke-width:4; stroke-opacity:1; fill:none" points="225.654,1284.51 244.552,1284.51 "/>
<polyline clip-path="url(#clip260)" style="stroke:#000000; stroke-linecap:round; stroke-linejoin:round; stroke-width:4; stroke-opacity:1; fill:none" points="225.654,882.644 244.552,882.644 "/>
<polyline clip-path="url(#clip260)" style="stroke:#000000; stroke-linecap:round; stroke-linejoin:round; stroke-width:4; stroke-opacity:1; fill:none" points="225.654,480.778 244.552,480.778 "/>
<polyline clip-path="url(#clip260)" style="stroke:#000000; stroke-linecap:round; stroke-linejoin:round; stroke-width:4; stroke-opacity:1; fill:none" points="225.654,78.9111 244.552,78.9111 "/>
<path clip-path="url(#clip260)" d="M128.159 1672.18 Q124.548 1672.18 122.719 1675.74 Q120.913 1679.28 120.913 1686.41 Q120.913 1693.52 122.719 1697.08 Q124.548 1700.62 128.159 1700.62 Q131.793 1700.62 133.599 1697.08 Q135.427 1693.52 135.427 1686.41 Q135.427 1679.28 133.599 1675.74 Q131.793 1672.18 128.159 1672.18 M128.159 1668.47 Q133.969 1668.47 137.025 1673.08 Q140.103 1677.66 140.103 1686.41 Q140.103 1695.14 137.025 1699.74 Q133.969 1704.33 128.159 1704.33 Q122.349 1704.33 119.27 1699.74 Q116.214 1695.14 116.214 1686.41 Q116.214 1677.66 119.27 1673.08 Q122.349 1668.47 128.159 1668.47 Z" fill="#000000" fill-rule="nonzero" fill-opacity="1" /><path clip-path="url(#clip260)" d="M148.321 1697.78 L153.205 1697.78 L153.205 1703.66 L148.321 1703.66 L148.321 1697.78 Z" fill="#000000" fill-rule="nonzero" fill-opacity="1" /><path clip-path="url(#clip260)" d="M173.39 1672.18 Q169.779 1672.18 167.95 1675.74 Q166.145 1679.28 166.145 1686.41 Q166.145 1693.52 167.95 1697.08 Q169.779 1700.62 173.39 1700.62 Q177.024 1700.62 178.83 1697.08 Q180.659 1693.52 180.659 1686.41 Q180.659 1679.28 178.83 1675.74 Q177.024 1672.18 173.39 1672.18 M173.39 1668.47 Q179.2 1668.47 182.256 1673.08 Q185.334 1677.66 185.334 1686.41 Q185.334 1695.14 182.256 1699.74 Q179.2 1704.33 173.39 1704.33 Q167.58 1704.33 164.501 1699.74 Q161.446 1695.14 161.446 1686.41 Q161.446 1677.66 164.501 1673.08 Q167.58 1668.47 173.39 1668.47 Z" fill="#000000" fill-rule="nonzero" fill-opacity="1" /><path clip-path="url(#clip260)" d="M129.154 1270.31 Q125.543 1270.31 123.714 1273.87 Q121.909 1277.42 121.909 1284.55 Q121.909 1291.65 123.714 1295.22 Q125.543 1298.76 129.154 1298.76 Q132.788 1298.76 134.594 1295.22 Q136.423 1291.65 136.423 1284.55 Q136.423 1277.42 134.594 1273.87 Q132.788 1270.31 129.154 1270.31 M129.154 1266.61 Q134.964 1266.61 138.02 1271.21 Q141.099 1275.8 141.099 1284.55 Q141.099 1293.27 138.02 1297.88 Q134.964 1302.46 129.154 1302.46 Q123.344 1302.46 120.265 1297.88 Q117.21 1293.27 117.21 1284.55 Q117.21 1275.8 120.265 1271.21 Q123.344 1266.61 129.154 1266.61 Z" fill="#000000" fill-rule="nonzero" fill-opacity="1" /><path clip-path="url(#clip260)" d="M149.316 1295.91 L154.2 1295.91 L154.2 1301.79 L149.316 1301.79 L149.316 1295.91 Z" fill="#000000" fill-rule="nonzero" fill-opacity="1" /><path clip-path="url(#clip260)" d="M164.432 1267.23 L182.788 1267.23 L182.788 1271.17 L168.714 1271.17 L168.714 1279.64 Q169.733 1279.29 170.751 1279.13 Q171.77 1278.94 172.788 1278.94 Q178.575 1278.94 181.955 1282.11 Q185.334 1285.29 185.334 1290.7 Q185.334 1296.28 181.862 1299.38 Q178.39 1302.46 172.071 1302.46 Q169.895 1302.46 167.626 1302.09 Q165.381 1301.72 162.973 1300.98 L162.973 1296.28 Q165.057 1297.42 167.279 1297.97 Q169.501 1298.53 171.978 1298.53 Q175.983 1298.53 178.321 1296.42 Q180.659 1294.31 180.659 1290.7 Q180.659 1287.09 178.321 1284.98 Q175.983 1282.88 171.978 1282.88 Q170.103 1282.88 168.228 1283.3 Q166.376 1283.71 164.432 1284.59 L164.432 1267.23 Z" fill="#000000" fill-rule="nonzero" fill-opacity="1" /><path clip-path="url(#clip260)" d="M118.969 895.989 L126.608 895.989 L126.608 869.623 L118.298 871.29 L118.298 867.031 L126.562 865.364 L131.238 865.364 L131.238 895.989 L138.876 895.989 L138.876 899.924 L118.969 899.924 L118.969 895.989 Z" fill="#000000" fill-rule="nonzero" fill-opacity="1" /><path clip-path="url(#clip260)" d="M148.321 894.044 L153.205 894.044 L153.205 899.924 L148.321 899.924 L148.321 894.044 Z" fill="#000000" fill-rule="nonzero" fill-opacity="1" /><path clip-path="url(#clip260)" d="M173.39 868.443 Q169.779 868.443 167.95 872.007 Q166.145 875.549 166.145 882.679 Q166.145 889.785 167.95 893.35 Q169.779 896.892 173.39 896.892 Q177.024 896.892 178.83 893.35 Q180.659 889.785 180.659 882.679 Q180.659 875.549 178.83 872.007 Q177.024 868.443 173.39 868.443 M173.39 864.739 Q179.2 864.739 182.256 869.345 Q185.334 873.929 185.334 882.679 Q185.334 891.405 182.256 896.012 Q179.2 900.595 173.39 900.595 Q167.58 900.595 164.501 896.012 Q161.446 891.405 161.446 882.679 Q161.446 873.929 164.501 869.345 Q167.58 864.739 173.39 864.739 Z" fill="#000000" fill-rule="nonzero" fill-opacity="1" /><path clip-path="url(#clip260)" d="M119.964 494.122 L127.603 494.122 L127.603 467.757 L119.293 469.423 L119.293 465.164 L127.557 463.498 L132.233 463.498 L132.233 494.122 L139.872 494.122 L139.872 498.058 L119.964 498.058 L119.964 494.122 Z" fill="#000000" fill-rule="nonzero" fill-opacity="1" /><path clip-path="url(#clip260)" d="M149.316 492.178 L154.2 492.178 L154.2 498.058 L149.316 498.058 L149.316 492.178 Z" fill="#000000" fill-rule="nonzero" fill-opacity="1" /><path clip-path="url(#clip260)" d="M164.432 463.498 L182.788 463.498 L182.788 467.433 L168.714 467.433 L168.714 475.905 Q169.733 475.558 170.751 475.396 Q171.77 475.21 172.788 475.21 Q178.575 475.21 181.955 478.382 Q185.334 481.553 185.334 486.97 Q185.334 492.548 181.862 495.65 Q178.39 498.729 172.071 498.729 Q169.895 498.729 167.626 498.358 Q165.381 497.988 162.973 497.247 L162.973 492.548 Q165.057 493.683 167.279 494.238 Q169.501 494.794 171.978 494.794 Q175.983 494.794 178.321 492.687 Q180.659 490.581 180.659 486.97 Q180.659 483.359 178.321 481.252 Q175.983 479.146 171.978 479.146 Q170.103 479.146 168.228 479.562 Q166.376 479.979 164.432 480.859 L164.432 463.498 Z" fill="#000000" fill-rule="nonzero" fill-opacity="1" /><path clip-path="url(#clip260)" d="M122.187 92.256 L138.506 92.256 L138.506 96.1911 L116.562 96.1911 L116.562 92.256 Q119.224 89.5013 123.807 84.8717 Q128.413 80.219 129.594 78.8764 Q131.839 76.3533 132.719 74.6172 Q133.622 72.8579 133.622 71.1681 Q133.622 68.4135 131.677 66.6774 Q129.756 64.9413 126.654 64.9413 Q124.455 64.9413 122.001 65.7052 Q119.571 66.4691 116.793 68.02 L116.793 63.2978 Q119.617 62.1635 122.071 61.5848 Q124.525 61.0061 126.562 61.0061 Q131.932 61.0061 135.126 63.6913 Q138.321 66.3765 138.321 70.8672 Q138.321 72.9968 137.511 74.9181 Q136.724 76.8162 134.617 79.4088 Q134.038 80.0801 130.937 83.2977 Q127.835 86.4921 122.187 92.256 Z" fill="#000000" fill-rule="nonzero" fill-opacity="1" /><path clip-path="url(#clip260)" d="M148.321 90.3115 L153.205 90.3115 L153.205 96.1911 L148.321 96.1911 L148.321 90.3115 Z" fill="#000000" fill-rule="nonzero" fill-opacity="1" /><path clip-path="url(#clip260)" d="M173.39 64.7098 Q169.779 64.7098 167.95 68.2746 Q166.145 71.8163 166.145 78.9458 Q166.145 86.0523 167.95 89.6171 Q169.779 93.1587 173.39 93.1587 Q177.024 93.1587 178.83 89.6171 Q180.659 86.0523 180.659 78.9458 Q180.659 71.8163 178.83 68.2746 Q177.024 64.7098 173.39 64.7098 M173.39 61.0061 Q179.2 61.0061 182.256 65.6126 Q185.334 70.1959 185.334 78.9458 Q185.334 87.6727 182.256 92.2791 Q179.2 96.8624 173.39 96.8624 Q167.58 96.8624 164.501 92.2791 Q161.446 87.6727 161.446 78.9458 Q161.446 70.1959 164.501 65.6126 Q167.58 61.0061 173.39 61.0061 Z" fill="#000000" fill-rule="nonzero" fill-opacity="1" /><path clip-path="url(#clip260)" d="M14.1184 1018.41 L14.1184 1009.75 L53.8723 988.681 L14.1184 988.681 L14.1184 982.442 L61.6384 982.442 L61.6384 991.1 L21.8846 1012.17 L61.6384 1012.17 L61.6384 1018.41 L14.1184 1018.41 Z" fill="#000000" fill-rule="nonzero" fill-opacity="1" /><path clip-path="url(#clip260)" d="M47.5702 970.507 L25.9905 970.507 L25.9905 964.65 L47.3474 964.65 Q52.4082 964.65 54.9545 962.677 Q57.4689 960.703 57.4689 956.757 Q57.4689 952.014 54.4452 949.277 Q51.4215 946.508 46.2016 946.508 L25.9905 946.508 L25.9905 940.651 L61.6384 940.651 L61.6384 946.508 L56.1639 946.508 Q59.4104 948.64 61.0019 951.473 Q62.5615 954.274 62.5615 957.998 Q62.5615 964.141 58.742 967.324 Q54.9226 970.507 47.5702 970.507 M25.1311 955.77 L25.1311 955.77 Z" fill="#000000" fill-rule="nonzero" fill-opacity="1" /><path clip-path="url(#clip260)" d="M32.8336 900.834 Q28.8869 898.638 27.009 895.582 Q25.1311 892.527 25.1311 888.389 Q25.1311 882.819 29.046 879.795 Q32.9291 876.771 40.1224 876.771 L61.6384 876.771 L61.6384 882.66 L40.3133 882.66 Q35.1889 882.66 32.7063 884.474 Q30.2237 886.288 30.2237 890.012 Q30.2237 894.564 33.2474 897.205 Q36.2711 899.847 41.491 899.847 L61.6384 899.847 L61.6384 905.735 L40.3133 905.735 Q35.1571 905.735 32.7063 907.55 Q30.2237 909.364 30.2237 913.151 Q30.2237 917.639 33.2792 920.281 Q36.3029 922.923 41.491 922.923 L61.6384 922.923 L61.6384 928.811 L25.9905 928.811 L25.9905 922.923 L31.5287 922.923 Q28.2503 920.918 26.6907 918.117 Q25.1311 915.316 25.1311 911.465 Q25.1311 907.581 27.1045 904.876 Q29.0779 902.139 32.8336 900.834 Z" fill="#000000" fill-rule="nonzero" fill-opacity="1" /><path clip-path="url(#clip260)" d="M43.8463 839.5 Q37.3851 839.5 33.7248 842.174 Q30.0327 844.816 30.0327 849.463 Q30.0327 854.11 33.7248 856.783 Q37.3851 859.425 43.8463 859.425 Q50.3075 859.425 53.9996 856.783 Q57.6599 854.11 57.6599 849.463 Q57.6599 844.816 53.9996 842.174 Q50.3075 839.5 43.8463 839.5 M31.4013 859.425 Q28.2185 857.579 26.6907 854.778 Q25.1311 851.945 25.1311 848.03 Q25.1311 841.537 30.2873 837.495 Q35.4436 833.421 43.8463 833.421 Q52.249 833.421 57.4052 837.495 Q62.5615 841.537 62.5615 848.03 Q62.5615 851.945 61.0337 854.778 Q59.4741 857.579 56.2912 859.425 L61.6384 859.425 L61.6384 865.313 L12.1132 865.313 L12.1132 859.425 L31.4013 859.425 Z" fill="#000000" fill-rule="nonzero" fill-opacity="1" /><path clip-path="url(#clip260)" d="M42.3504 793.222 L45.2149 793.222 L45.2149 820.149 Q51.2623 819.767 54.4452 816.52 Q57.5962 813.242 57.5962 807.417 Q57.5962 804.043 56.7687 800.892 Q55.9411 797.709 54.2861 794.59 L59.8242 794.59 Q61.161 797.741 61.8612 801.051 Q62.5615 804.362 62.5615 807.767 Q62.5615 816.297 57.5962 821.294 Q52.631 826.26 44.1646 826.26 Q35.4117 826.26 30.2873 821.549 Q25.1311 816.807 25.1311 808.786 Q25.1311 801.592 29.7781 797.423 Q34.3932 793.222 42.3504 793.222 M40.6316 799.078 Q35.8255 799.142 32.9609 801.783 Q30.0964 804.393 30.0964 808.722 Q30.0964 813.624 32.8654 816.584 Q35.6345 819.512 40.6634 819.958 L40.6316 799.078 Z" fill="#000000" fill-rule="nonzero" fill-opacity="1" /><path clip-path="url(#clip260)" d="M31.465 762.953 Q30.8921 763.939 30.6375 765.117 Q30.351 766.263 30.351 767.663 Q30.351 772.629 33.5975 775.302 Q36.8122 777.944 42.8596 777.944 L61.6384 777.944 L61.6384 783.832 L25.9905 783.832 L25.9905 777.944 L31.5287 777.944 Q28.2821 776.098 26.7225 773.138 Q25.1311 770.178 25.1311 765.945 Q25.1311 765.34 25.2266 764.608 Q25.2903 763.876 25.4494 762.984 L31.465 762.953 Z" fill="#000000" fill-rule="nonzero" fill-opacity="1" /><polyline clip-path="url(#clip262)" style="stroke:#009af9; stroke-linecap:round; stroke-linejoin:round; stroke-width:4; stroke-opacity:1; fill:none" points="225.654,94.9858 229.68,95.7815 233.705,96.5963 237.73,97.4305 241.755,98.2848 245.78,99.1594 249.805,100.055 253.831,100.972 257.856,101.91 261.881,102.871 265.906,103.855 269.931,104.861 273.956,105.892 277.982,106.947 282.007,108.026 286.032,109.131 290.057,110.262 294.082,111.419 298.107,112.603 302.133,113.814 306.158,115.054 310.183,116.322 314.208,117.619 318.233,118.946 322.259,120.304 326.284,121.692 330.309,123.113 334.334,124.565 338.359,126.051 342.384,127.57 346.41,129.124 350.435,130.712 354.46,132.336 358.485,133.996 362.51,135.693 366.535,137.427 370.561,139.2 374.586,141.012 378.611,142.864 382.636,144.756 386.661,146.69 390.686,148.665 394.712,150.683 398.737,152.744 402.762,154.849 406.787,156.999 410.812,159.195 414.837,161.437 418.863,163.726 422.888,166.063 426.913,168.449 430.938,170.884 434.963,173.369 438.988,175.905 443.014,178.492 447.039,181.132 451.064,183.825 455.089,186.572 459.114,189.373 463.139,192.23 467.165,195.142 471.19,198.112 475.215,201.139 479.24,204.224 483.265,207.368 487.29,210.571 491.316,213.835 495.341,217.159 499.366,220.545 503.391,223.993 507.416,227.504 511.441,231.078 515.467,234.716 519.492,238.419 523.517,242.186 527.542,246.019 531.567,249.918 535.592,253.884 539.618,257.916 543.643,262.016 547.668,266.183 551.693,270.418 555.718,274.722 559.743,279.094 563.769,283.535 567.794,288.046 571.819,292.625 575.844,297.274 579.869,301.992 583.894,306.78 587.92,311.638 591.945,316.565 595.97,321.562 599.995,326.628 604.02,331.764 608.046,336.969 612.071,342.242 616.096,347.584 620.121,352.994 624.146,358.472 628.171,364.018 632.197,369.63 636.222,375.308 640.247,381.053 644.272,386.862 648.297,392.736 652.322,398.673 656.348,404.673 660.373,410.736 664.398,416.859 668.423,423.042 672.448,429.284 676.473,435.585 680.499,441.942 684.524,448.354 688.549,454.821 692.574,461.341 696.599,467.913 700.624,474.536 704.65,481.207 708.675,487.926 712.7,494.691 716.725,501.5 720.75,508.352 724.775,515.245 728.801,522.178 732.826,529.148 736.851,536.154 740.876,543.194 744.901,550.267 748.926,557.37 752.952,564.502 756.977,571.66 761.002,578.843 765.027,586.049 769.052,593.275 773.077,600.52 777.103,607.782 781.128,615.059 785.153,622.348 789.178,629.648 793.203,636.956 797.228,644.27 801.254,650.069 805.279,653.712 809.304,657.31 813.329,660.863 817.354,664.371 821.379,667.837 825.405,671.258 829.43,674.637 833.455,677.974 837.48,681.269 841.505,684.523 845.53,687.735 849.556,690.907 853.581,694.039 857.606,697.132 861.631,700.185 865.656,703.2 869.681,706.177 873.707,709.115 877.732,712.016 881.757,714.881 885.782,717.708 889.807,720.5 893.833,723.256 897.858,725.977 901.883,728.662 905.908,731.314 909.933,733.931 913.958,736.514 917.984,739.065 922.009,741.582 926.034,744.067 930.059,746.52 934.084,748.941 938.109,751.331 942.135,753.69 946.16,756.019 950.185,758.317 954.21,760.585 958.235,762.824 962.26,765.034 966.286,767.215 970.311,769.368 974.336,771.493 978.361,773.59 982.386,775.659 986.411,777.702 990.437,779.718 994.462,781.708 998.487,783.671 1002.51,785.609 1006.54,787.522 1010.56,789.41 1014.59,791.272 1018.61,793.111 1022.64,794.925 1026.66,796.716 1030.69,798.483 1034.71,800.227 1038.74,801.948 1042.76,803.646 1046.79,805.322 1050.81,806.976 1054.84,808.608 1058.86,810.219 1062.89,811.809 1066.91,813.377 1070.94,814.925 1074.97,816.453 1078.99,817.96 1083.02,819.448 1087.04,820.916 1091.07,822.365 1095.09,823.794 1099.12,825.205 1103.14,826.597 1107.17,827.97 1111.19,829.326 1115.22,830.663 1119.24,831.983 1123.27,833.286 1127.29,834.571 1131.32,835.839 1135.34,837.091 1139.37,838.326 1143.39,839.544 1147.42,840.747 1151.44,841.933 1155.47,843.104 1159.49,844.259 1163.52,845.399 1167.54,846.524 1171.57,847.634 1175.59,848.73 1179.62,849.811 1183.64,850.877 1187.67,851.93 1191.7,852.968 1195.72,853.993 1199.75,855.004 1203.77,856.002 1207.8,856.986 1211.82,857.958 1215.85,858.916 1219.87,859.862 1223.9,860.795 1227.92,861.716 1231.95,862.625 1235.97,863.522 1240,864.406 1244.02,865.279 1248.05,866.141 1252.07,866.991 1256.1,867.83 1260.12,868.657 1264.15,869.474 1268.17,870.28 1272.2,871.075 1276.22,871.86 1280.25,872.634 1284.27,873.398 1288.3,874.151 1292.32,874.895 1296.35,875.629 1300.37,876.353 1304.4,877.068 1308.42,877.773 1312.45,878.468 1316.48,879.155 1320.5,879.832 1324.53,880.5 1328.55,881.16 1332.58,881.811 1336.6,882.453 1340.63,883.086 1344.65,883.711 1348.68,884.328 1352.7,884.937 1356.73,885.538 1360.75,886.13 1364.78,886.715 1368.8,887.292 1372.83,887.861 1376.85,888.423 1380.88,888.977 1384.9,889.524 1388.93,890.064 1392.95,890.597 1396.98,891.122 1401,891.64 1405.03,892.152 1409.05,892.657 1413.08,893.155 1417.1,893.646 1421.13,894.131 1425.15,894.61 1429.18,895.082 1433.21,895.548 1437.23,896.008 1441.26,896.461 1445.28,896.909 1449.31,897.351 1453.33,897.787 1457.36,898.217 1461.38,898.641 1465.41,899.06 1469.43,899.473 1473.46,899.88 1477.48,900.283 1481.51,900.679 1485.53,901.071 1489.56,901.458 1493.58,901.839 1497.61,902.215 1501.63,902.586 1505.66,902.953 1509.68,903.314 1513.71,903.671 1517.73,904.023 1521.76,904.37 1525.78,904.713 1529.81,905.051 1533.83,905.385 1537.86,905.714 1541.88,906.039 1545.91,906.359 1549.94,906.675 1553.96,906.988 1557.99,907.296 1562.01,907.599 1566.04,907.899 1570.06,908.195 1574.09,908.487 1578.11,908.775 1582.14,909.059 1586.16,909.34 1590.19,909.617 1594.21,909.89 1598.24,910.16 1602.26,910.426 1606.29,910.797 1610.31,911.317 1614.34,911.837 1618.36,912.355 1622.39,912.873 1626.41,913.39 1630.44,913.906 1634.46,914.421 1638.49,914.936 1642.51,915.449 1646.54,915.962 1650.56,916.474 1654.59,916.985 1658.61,917.495 1662.64,918.004 1666.66,918.512 1670.69,919.02 1674.72,919.526 1678.74,920.032 1682.77,920.537 1686.79,921.04 1690.82,921.543 1694.84,922.045 1698.87,922.546 1702.89,923.046 1706.92,923.545 1710.94,924.044 1714.97,924.541 1718.99,925.037 1723.02,925.532 1727.04,926.027 1731.07,926.52 1735.09,927.012 1739.12,927.504 1743.14,927.994 1747.17,928.483 1751.19,928.972 1755.22,929.459 1759.24,929.945 1763.27,930.431 1767.29,930.915 1771.32,931.398 1775.34,931.88 1779.37,932.362 1783.39,932.842 1787.42,933.321 1791.45,933.799 1795.47,934.276 1799.5,934.752 1803.52,935.227 1807.55,935.7 1811.57,936.173 1815.6,936.645 1819.62,937.115 1823.65,937.585 1827.67,938.053 1831.7,938.52 1835.72,938.986 1839.75,939.452 1843.77,939.916 1847.8,940.378 1851.82,940.84 1855.85,941.301 1859.87,941.76 1863.9,942.219 1867.92,942.676 1871.95,943.132 1875.97,943.587 1880,944.041 1884.02,944.494 1888.05,944.945 1892.07,945.396 1896.1,945.845 1900.12,946.293 1904.15,946.74 1908.18,947.186 1912.2,947.631 1916.23,948.075 1920.25,948.517 1924.28,948.958 1928.3,949.398 1932.33,949.837 1936.35,950.275 1940.38,950.711 1944.4,951.147 1948.43,951.581 1952.45,952.014 1956.48,952.446 1960.5,952.876 1964.53,953.306 1968.55,953.734 1972.58,954.161 1976.6,954.587 1980.63,955.012 1984.65,955.435 1988.68,955.857 1992.7,956.278 1996.73,956.698 2000.75,957.117 2004.78,957.534 2008.8,957.951 2012.83,958.366 2016.85,958.78 2020.88,959.192 2024.91,959.604 2028.93,960.014 2032.96,960.423 2036.98,960.831 2041.01,961.237 2045.03,961.643 2049.06,962.047 2053.08,962.45 2057.11,962.851 2061.13,963.252 2065.16,963.651 2069.18,964.049 2073.21,964.446 2077.23,964.842 2081.26,965.236 2085.28,965.629 2089.31,966.021 2093.33,966.412 2097.36,966.801 2101.38,967.19 2105.41,967.577 2109.43,967.962 2113.46,968.347 2117.48,968.73 2121.51,969.113 2125.53,969.493 2129.56,969.873 2133.58,970.252 2137.61,970.629 2141.63,971.005 2145.66,971.38 2149.69,971.753 2153.71,972.125 2157.74,972.497 2161.76,972.866 2165.79,973.235 2169.81,973.602 2173.84,973.969 2177.86,974.334 2181.89,974.697 2185.91,975.06 2189.94,975.421 2193.96,975.781 2197.99,976.14 2202.01,976.498 2206.04,976.854 2210.06,977.209 2214.09,977.563 2218.11,977.916 2222.14,978.268 2226.16,978.618 2230.19,978.967 2234.21,979.315 2238.24,979.662 2242.26,980.007 2246.29,980.352 2250.31,980.695 2254.34,981.036 2258.36,981.377 2262.39,981.717 2266.42,982.055 2270.44,982.392 2274.47,982.728 2278.49,983.062 2282.52,983.396 2286.54,983.728 2290.57,984.059 2294.59,984.389 2298.62,984.717 2302.64,985.045 2306.67,985.371 2310.69,985.696 2314.72,986.02 2318.74,986.343 2322.77,986.664 2326.79,986.985 2330.82,987.304 2334.84,987.622 2338.87,987.938 2342.89,988.254 2346.92,988.568 2350.94,988.882 2354.97,989.194 2358.99,989.505 2363.02,989.814 2367.04,990.123 2371.07,990.43 2375.09,990.737 2379.12,991.042 2383.15,991.346 2387.17,991.648 2391.2,991.95 2395.22,992.25 2399.25,992.55 2403.27,992.848 2407.3,993.145 2411.32,993.441 2415.35,993.735 2419.37,994.029 2423.4,994.321 2427.42,994.613 2431.45,994.903 2435.47,995.192 2439.5,995.48 2443.52,995.767 2447.55,996.052 2451.57,996.337 2455.6,996.62 2459.62,996.903 2463.65,997.184 2467.67,997.464 2471.7,997.743 2475.72,998.021 2479.75,998.297 2483.77,998.573 2487.8,998.847 2491.82,999.121 2495.85,999.393 2499.87,999.664 2503.9,999.935 2507.93,1000.2 2511.95,1000.47 2515.98,1000.74 2520,1001 2524.03,1001.27 2528.05,1001.53 2532.08,1001.8 2536.1,1002.06 2540.13,1002.32 2544.15,1002.58 2548.18,1002.83 2552.2,1003.09 2556.23,1003.35 2560.25,1003.6 2564.28,1003.86 2568.3,1004.11 2572.33,1004.36 2576.35,1004.61 2580.38,1004.86 2584.4,1005.11 2588.43,1005.36 2592.45,1005.61 2596.48,1005.85 2600.5,1006.1 2604.53,1006.34 2608.55,1006.58 2612.58,1006.83 2616.6,1007.07 2620.63,1007.31 2624.66,1007.54 2628.68,1007.78 2632.71,1008.02 2636.73,1008.25 2640.76,1008.49 2644.78,1008.72 2648.81,1008.95 2652.83,1009.19 2656.86,1009.42 2660.88,1009.65 2664.91,1009.88 2668.93,1010.1 2672.96,1010.33 2676.98,1010.56 2681.01,1010.78 2685.03,1011 2689.06,1011.23 2693.08,1011.45 2697.11,1011.67 2701.13,1011.89 2705.16,1012.11 2709.18,1012.33 2713.21,1012.54 2717.23,1012.76 2721.26,1012.97 2725.28,1013.19 2729.31,1013.4 2733.33,1013.61 2737.36,1013.83 2741.39,1014.04 2745.41,1014.25 2749.44,1014.46 2753.46,1014.66 2757.49,1014.87 2761.51,1015.08 2765.54,1015.28 2769.56,1015.48 2773.59,1015.69 2777.61,1015.89 2781.64,1016.09 2785.66,1016.29 2789.69,1016.49 2793.71,1016.69 2797.74,1016.89 2801.76,1017.09 2805.79,1017.28 2809.81,1017.48 2813.84,1017.67 2817.86,1017.86 2821.89,1018.06 2825.91,1018.25 2829.94,1018.44 2833.96,1018.63 2837.99,1018.82 2842.01,1019.01 2846.04,1019.19 2850.06,1019.38 2854.09,1019.57 2858.12,1019.75 2862.14,1019.94 2866.17,1020.12 2870.19,1020.3 2874.22,1020.48 2878.24,1020.66 2882.27,1020.84 2886.29,1021.02 2890.32,1021.2 2894.34,1021.38 2898.37,1021.56 2902.39,1021.73 2906.42,1021.91 2910.44,1022.08 2914.47,1022.25 2918.49,1022.43 2922.52,1022.6 2926.54,1022.77 2930.57,1022.94 2934.59,1023.11 2938.62,1023.28 2942.64,1023.45 2946.67,1023.61 2950.69,1023.78 2954.72,1023.95 2958.74,1024.11 2962.77,1024.27 2966.79,1024.44 2970.82,1024.6 2974.84,1024.76 2978.87,1024.92 2982.9,1025.08 2986.92,1025.24 2990.95,1025.4 2994.97,1025.56 2999,1025.72 3003.02,1025.87 3007.05,1026.03 3011.07,1026.18 3015.1,1026.34 3019.12,1026.49 3023.15,1026.65 3027.17,1026.8 3031.2,1026.95 3035.22,1027.1 3039.25,1027.25 3043.27,1027.4 3047.3,1027.55 3051.32,1027.7 3055.35,1027.84 3059.37,1027.99 3063.4,1028.14 3067.42,1028.28 3071.45,1028.43 3075.47,1028.57 3079.5,1028.71 3083.52,1028.85 3087.55,1029 3091.57,1029.14 3095.6,1029.28 3099.63,1029.42 3103.65,1029.56 3107.68,1029.7 3111.7,1029.83 3115.73,1029.97 3119.75,1030.11 3123.78,1030.24 3127.8,1030.38 3131.83,1030.51 3135.85,1030.65 3139.88,1030.78 3143.9,1030.91 3147.93,1031.04 3151.95,1031.17 3155.98,1031.31 3160,1031.44 3164.03,1031.56 3168.05,1031.69 3172.08,1031.82 3176.1,1031.95 3180.13,1032.08 3184.15,1032.2 3188.18,1032.33 3192.2,1032.45 3196.23,1032.58 3200.25,1032.7 3204.28,1032.82 3208.3,1032.95 3212.33,1033.07 3216.36,1033.19 3220.38,1033.31 3224.41,1033.43 3228.43,1033.55 3232.46,1033.67 3236.48,1033.79 3240.51,1033.91 3244.53,1034.02 3248.56,1034.14 3252.58,1034.26 3256.61,1034.37 3260.63,1034.49 3264.66,1034.6 3268.68,1034.72 3272.71,1034.83 3276.73,1034.94 3280.76,1035.06 3284.78,1035.17 3288.81,1035.28 3292.83,1035.39 3296.86,1035.5 3300.88,1035.61 3304.91,1035.72 3308.93,1035.83 3312.96,1035.93 3316.98,1036.04 3321.01,1036.15 3325.03,1036.26 3329.06,1036.36 3333.08,1036.47 3337.11,1036.57 3341.14,1036.68 3345.16,1036.78 3349.19,1036.88 3353.21,1036.99 3357.24,1037.09 3361.26,1037.19 3365.29,1037.29 3369.31,1037.39 3373.34,1037.49 3377.36,1037.59 3381.39,1037.69 3385.41,1037.79 3389.44,1037.89 3393.46,1037.99 3397.49,1038.08 3401.51,1038.18 3405.54,1038.28 3409.56,1038.37 3413.59,1038.47 3417.61,1038.56 3421.64,1038.66 3425.66,1038.75 3429.69,1038.84 3433.71,1038.94 3437.74,1039.03 3441.76,1039.12 3445.79,1039.21 3449.81,1039.3 3453.84,1039.39 3457.87,1039.48 3461.89,1039.57 3465.92,1039.66 3469.94,1039.75 3473.97,1039.84 3477.99,1039.93 3482.02,1040.02 3486.04,1040.1 3490.07,1040.19 3494.09,1040.28 3498.12,1040.36 3502.14,1040.45 3506.17,1040.53 3510.19,1040.62 3514.22,1040.7 3518.24,1040.79 3522.27,1040.87 3526.29,1040.95 3530.32,1041.03 3534.34,1041.12 3538.37,1041.2 3542.39,1041.28 3546.42,1041.36 3550.44,1041.44 3554.47,1041.52 3558.49,1041.6 3562.52,1041.68 3566.54,1041.76 3570.57,1041.84 3574.6,1041.91 3578.62,1041.99 3582.65,1042.07 3586.67,1042.14 3590.7,1042.22 3594.72,1042.3 3598.75,1042.37 3602.77,1042.45 3606.8,1042.52 3610.82,1042.6 3614.85,1042.67 3618.87,1042.74 3622.9,1042.82 3626.92,1042.89 3630.95,1042.96 3634.97,1043.04 3639,1043.11 3643.02,1043.18 3647.05,1043.25 3651.07,1043.32 3655.1,1043.39 3659.12,1043.46 3663.15,1043.53 3667.17,1043.6 3671.2,1043.67 3675.22,1043.74 3679.25,1043.81 3683.27,1043.87 3687.3,1043.94 3691.33,1044.01 3695.35,1044.08 3699.38,1044.14 3703.4,1044.21 3707.43,1044.27 3711.45,1044.34 3715.48,1044.4 3719.5,1044.47 3723.53,1044.53 3727.55,1044.6 3731.58,1044.66 3735.6,1044.73 3739.63,1044.79 3743.65,1044.85 3747.68,1044.91 3751.7,1044.98 3755.73,1045.04 3759.75,1045.1 3763.78,1045.16 3767.8,1045.22 3771.83,1045.28 3775.85,1045.34 3779.88,1045.4 3783.9,1045.46 3787.93,1045.52 3791.95,1045.58 3795.98,1045.64 3800,1045.7 3804.03,1045.76 3808.05,1045.81 3812.08,1045.87 3816.11,1045.93 3820.13,1045.99 3824.16,1046.04 3828.18,1046.1 3832.21,1046.16 3836.23,1046.21 3840.26,1046.27 3844.28,1046.32 3848.31,1046.38 3852.33,1046.43 3856.36,1046.49 3860.38,1046.54 3864.41,1046.59 3868.43,1046.65 3872.46,1046.7 3876.48,1046.75 3880.51,1046.81 3884.53,1046.86 3888.56,1046.91 3892.58,1046.96 3896.61,1047.01 3900.63,1047.07 3904.66,1047.12 3908.68,1047.17 3912.71,1047.22 3916.73,1047.27 3920.76,1047.32 3924.78,1047.37 3928.81,1047.42 3932.84,1047.47 3936.86,1047.52 3940.89,1047.56 3944.91,1047.61 3948.94,1047.66 3952.96,1047.71 3956.99,1047.76 3961.01,1047.8 3965.04,1047.85 3969.06,1047.9 3973.09,1047.95 3977.11,1047.99 3981.14,1048.04 3985.16,1048.08 3989.19,1048.13 3993.21,1048.18 3997.24,1048.22 4001.26,1048.27 4005.29,1048.31 4009.31,1048.36 4013.34,1048.4 4017.36,1048.44 4021.39,1048.49 4025.41,1048.53 4029.44,1048.58 4033.46,1048.62 4037.49,1048.66 4041.51,1048.7 4045.54,1048.75 4049.57,1048.79 4053.59,1048.83 4057.62,1048.87 4061.64,1048.91 4065.67,1048.96 4069.69,1049 4073.72,1049.04 4077.74,1049.08 4081.77,1049.12 4085.79,1049.16 4089.82,1049.2 4093.84,1049.24 4097.87,1049.28 4101.89,1049.32 4105.92,1049.36 4109.94,1049.4 4113.97,1049.44 4117.99,1049.48 4122.02,1049.51 4126.04,1049.55 4130.07,1049.59 4134.09,1049.63 4138.12,1049.67 4142.14,1049.7 4146.17,1049.74 4150.19,1049.78 4154.22,1049.82 4158.24,1049.85 4162.27,1049.89 4166.29,1049.92 4170.32,1049.96 4174.35,1050 4178.37,1050.03 4182.4,1050.07 4186.42,1050.1 4190.45,1050.14 4194.47,1050.17 4198.5,1050.21 4202.52,1050.24 4206.55,1050.28 4210.57,1050.31 4214.6,1050.35 4218.62,1050.38 4222.65,1050.41 4226.67,1050.45 4230.7,1050.48 4234.72,1050.51 4238.75,1050.55 4242.77,1050.58 4246.8,1050.61 4250.82,1050.65 "/>
<polyline clip-path="url(#clip262)" style="stroke:#e26f46; stroke-linecap:round; stroke-linejoin:round; stroke-width:4; stroke-opacity:1; fill:none" points="225.654,94.9891 229.68,95.7848 233.705,96.5995 237.73,97.4338 241.755,98.2881 245.78,99.1627 249.805,100.058 253.831,100.975 257.856,101.914 261.881,102.874 265.906,103.858 269.931,104.865 273.956,105.895 277.982,106.95 282.007,108.03 286.032,109.134 290.057,110.265 294.082,111.422 298.107,112.606 302.133,113.817 306.158,115.057 310.183,116.325 314.208,117.622 318.233,118.95 322.259,120.307 326.284,121.696 330.309,123.116 334.334,124.569 338.359,126.054 342.384,127.574 346.41,129.127 350.435,130.715 354.46,132.339 358.485,133.999 362.51,135.696 366.535,137.431 370.561,139.204 374.586,141.016 378.611,142.868 382.636,144.76 386.661,146.693 390.686,148.668 394.712,150.686 398.737,152.747 402.762,154.853 406.787,157.003 410.812,159.199 414.837,161.441 418.863,163.73 422.888,166.067 426.913,168.453 430.938,170.888 434.963,173.373 438.988,175.908 443.014,178.496 447.039,181.136 451.064,183.829 455.089,186.576 459.114,189.377 463.139,192.234 467.165,195.146 471.19,198.116 475.215,201.143 479.24,204.228 483.265,207.372 487.29,210.575 491.316,213.839 495.341,217.163 499.366,220.549 503.391,223.998 507.416,227.508 511.441,231.083 515.467,234.721 519.492,238.423 523.517,242.191 527.542,246.024 531.567,249.923 535.592,253.888 539.618,257.921 543.643,262.02 547.668,266.188 551.693,270.423 555.718,274.727 559.743,279.099 563.769,283.54 567.794,288.051 571.819,292.63 575.844,297.279 579.869,301.998 583.894,306.786 587.92,311.644 591.945,316.571 595.97,321.568 599.995,326.634 604.02,331.77 608.046,336.974 612.071,342.248 616.096,347.59 620.121,353 624.146,358.479 628.171,364.024 632.197,369.636 636.222,375.315 640.247,381.06 644.272,386.869 648.297,392.743 652.322,398.681 656.348,404.681 660.373,410.743 664.398,416.867 668.423,423.05 672.448,429.293 676.473,435.593 680.499,441.951 684.524,448.364 688.549,454.831 692.574,461.351 696.599,467.924 700.624,474.547 704.65,481.218 708.675,487.938 712.7,494.703 716.725,501.513 720.75,508.365 724.775,515.259 728.801,522.193 732.826,529.164 736.851,536.171 740.876,543.213 744.901,550.287 748.926,557.391 752.952,564.525 756.977,571.685 761.002,578.871 765.027,586.08 769.052,593.31 773.077,600.561 777.103,607.83 781.128,615.117 785.153,622.422 789.178,629.749 793.203,637.115 797.228,860.754 801.254,1168.09 805.279,1169.95 809.304,1171.77 813.329,1173.56 817.354,1175.33 821.379,1177.07 825.405,1178.78 829.43,1180.47 833.455,1182.15 837.48,1183.8 841.505,1185.42 845.53,1187.03 849.556,1188.62 853.581,1190.19 857.606,1191.73 861.631,1193.26 865.656,1194.77 869.681,1196.26 873.707,1197.73 877.732,1199.18 881.757,1200.61 885.782,1202.03 889.807,1203.42 893.833,1204.8 897.858,1206.16 901.883,1207.51 905.908,1208.83 909.933,1210.14 913.958,1211.43 917.984,1212.71 922.009,1213.97 926.034,1215.21 930.059,1216.44 934.084,1217.65 938.109,1218.84 942.135,1220.02 946.16,1221.19 950.185,1222.34 954.21,1223.47 958.235,1224.59 962.26,1225.7 966.286,1226.79 970.311,1227.86 974.336,1228.92 978.361,1229.97 982.386,1231.01 986.411,1232.03 990.437,1233.04 994.462,1234.03 998.487,1235.01 1002.51,1235.98 1006.54,1236.94 1010.56,1237.88 1014.59,1238.82 1018.61,1239.73 1022.64,1240.64 1026.66,1241.54 1030.69,1242.42 1034.71,1243.29 1038.74,1244.15 1042.76,1245 1046.79,1245.84 1050.81,1246.67 1054.84,1247.48 1058.86,1248.29 1062.89,1249.08 1066.91,1249.87 1070.94,1250.64 1074.97,1251.41 1078.99,1252.16 1083.02,1252.9 1087.04,1253.64 1091.07,1254.36 1095.09,1255.08 1099.12,1255.78 1103.14,1256.48 1107.17,1257.16 1111.19,1257.84 1115.22,1258.51 1119.24,1259.17 1123.27,1259.82 1127.29,1260.46 1131.32,1261.1 1135.34,1261.72 1139.37,1262.34 1143.39,1262.95 1147.42,1263.55 1151.44,1264.15 1155.47,1264.73 1159.49,1265.31 1163.52,1265.88 1167.54,1266.44 1171.57,1267 1175.59,1267.54 1179.62,1268.08 1183.64,1268.62 1187.67,1269.14 1191.7,1269.66 1195.72,1270.17 1199.75,1270.68 1203.77,1271.18 1207.8,1271.67 1211.82,1272.16 1215.85,1272.64 1219.87,1273.11 1223.9,1273.58 1227.92,1274.04 1231.95,1274.49 1235.97,1274.94 1240,1275.38 1244.02,1275.82 1248.05,1276.25 1252.07,1276.67 1256.1,1277.09 1260.12,1277.51 1264.15,1277.91 1268.17,1278.32 1272.2,1278.71 1276.22,1279.11 1280.25,1279.49 1284.27,1279.87 1288.3,1280.25 1292.32,1280.62 1296.35,1280.99 1300.37,1281.35 1304.4,1281.71 1308.42,1282.06 1312.45,1282.41 1316.48,1282.75 1320.5,1283.09 1324.53,1283.42 1328.55,1283.75 1332.58,1284.08 1336.6,1284.4 1340.63,1284.72 1344.65,1285.03 1348.68,1285.34 1352.7,1285.64 1356.73,1285.94 1360.75,1286.24 1364.78,1286.53 1368.8,1286.82 1372.83,1287.1 1376.85,1287.38 1380.88,1287.66 1384.9,1287.93 1388.93,1288.2 1392.95,1288.47 1396.98,1288.73 1401,1288.99 1405.03,1289.24 1409.05,1289.5 1413.08,1289.75 1417.1,1289.99 1421.13,1290.23 1425.15,1290.47 1429.18,1290.71 1433.21,1290.94 1437.23,1291.17 1441.26,1291.39 1445.28,1291.62 1449.31,1291.84 1453.33,1292.06 1457.36,1292.27 1461.38,1292.48 1465.41,1292.69 1469.43,1292.9 1473.46,1293.1 1477.48,1293.3 1481.51,1293.5 1485.53,1293.69 1489.56,1293.88 1493.58,1294.07 1497.61,1294.26 1501.63,1294.44 1505.66,1294.63 1509.68,1294.8 1513.71,1294.98 1517.73,1295.16 1521.76,1295.33 1525.78,1295.5 1529.81,1295.66 1533.83,1295.83 1537.86,1295.99 1541.88,1296.15 1545.91,1296.31 1549.94,1296.46 1553.96,1296.61 1557.99,1296.76 1562.01,1296.91 1566.04,1297.05 1570.06,1297.19 1574.09,1297.33 1578.11,1297.46 1582.14,1297.59 1586.16,1297.71 1590.19,1297.83 1594.21,1297.94 1598.24,1298.04 1602.26,1136.66 1606.29,910.975 1610.31,911.472 1614.34,911.973 1618.36,912.477 1622.39,912.982 1626.41,913.489 1630.44,913.997 1634.46,914.505 1638.49,915.014 1642.51,915.522 1646.54,916.03 1650.56,916.537 1654.59,917.045 1658.61,917.551 1662.64,918.057 1666.66,918.563 1670.69,919.068 1674.72,919.572 1678.74,920.076 1682.77,920.578 1686.79,921.08 1690.82,921.582 1694.84,922.082 1698.87,922.582 1702.89,923.08 1706.92,923.578 1710.94,924.075 1714.97,924.571 1718.99,925.067 1723.02,925.561 1727.04,926.054 1731.07,926.547 1735.09,927.038 1739.12,927.529 1743.14,928.018 1747.17,928.507 1751.19,928.995 1755.22,929.481 1759.24,929.967 1763.27,930.452 1767.29,930.936 1771.32,931.418 1775.34,931.9 1779.37,932.381 1783.39,932.86 1787.42,933.339 1791.45,933.817 1795.47,934.293 1799.5,934.769 1803.52,935.243 1807.55,935.716 1811.57,936.189 1815.6,936.66 1819.62,937.13 1823.65,937.599 1827.67,938.068 1831.7,938.535 1835.72,939 1839.75,939.465 1843.77,939.929 1847.8,940.392 1851.82,940.853 1855.85,941.313 1859.87,941.773 1863.9,942.231 1867.92,942.688 1871.95,943.144 1875.97,943.599 1880,944.052 1884.02,944.505 1888.05,944.956 1892.07,945.407 1896.1,945.856 1900.12,946.304 1904.15,946.751 1908.18,947.196 1912.2,947.641 1916.23,948.084 1920.25,948.527 1924.28,948.968 1928.3,949.408 1932.33,949.846 1936.35,950.284 1940.38,950.72 1944.4,951.155 1948.43,951.59 1952.45,952.022 1956.48,952.454 1960.5,952.885 1964.53,953.314 1968.55,953.742 1972.58,954.169 1976.6,954.595 1980.63,955.019 1984.65,955.443 1988.68,955.865 1992.7,956.286 1996.73,956.706 2000.75,957.124 2004.78,957.542 2008.8,957.958 2012.83,958.373 2016.85,958.787 2020.88,959.199 2024.91,959.61 2028.93,960.021 2032.96,960.43 2036.98,960.837 2041.01,961.244 2045.03,961.649 2049.06,962.053 2053.08,962.456 2057.11,962.858 2061.13,963.258 2065.16,963.657 2069.18,964.055 2073.21,964.452 2077.23,964.848 2081.26,965.242 2085.28,965.635 2089.31,966.027 2093.33,966.417 2097.36,966.807 2101.38,967.195 2105.41,967.582 2109.43,967.968 2113.46,968.352 2117.48,968.736 2121.51,969.118 2125.53,969.499 2129.56,969.878 2133.58,970.257 2137.61,970.634 2141.63,971.01 2145.66,971.385 2149.69,971.758 2153.71,972.13 2157.74,972.501 2161.76,972.871 2165.79,973.24 2169.81,973.607 2173.84,973.973 2177.86,974.338 2181.89,974.702 2185.91,975.064 2189.94,975.426 2193.96,975.786 2197.99,976.145 2202.01,976.502 2206.04,976.859 2210.06,977.214 2214.09,977.568 2218.11,977.92 2222.14,978.272 2226.16,978.622 2230.19,978.971 2234.21,979.319 2238.24,979.666 2242.26,980.011 2246.29,980.356 2250.31,980.699 2254.34,981.04 2258.36,981.381 2262.39,981.72 2266.42,982.059 2270.44,982.396 2274.47,982.731 2278.49,983.066 2282.52,983.399 2286.54,983.732 2290.57,984.063 2294.59,984.392 2298.62,984.721 2302.64,985.048 2306.67,985.375 2310.69,985.7 2314.72,986.024 2318.74,986.346 2322.77,986.668 2326.79,986.988 2330.82,987.307 2334.84,987.625 2338.87,987.942 2342.89,988.257 2346.92,988.572 2350.94,988.885 2354.97,989.197 2358.99,989.508 2363.02,989.818 2367.04,990.126 2371.07,990.434 2375.09,990.74 2379.12,991.045 2383.15,991.349 2387.17,991.651 2391.2,991.953 2395.22,992.253 2399.25,992.553 2403.27,992.851 2407.3,993.148 2411.32,993.444 2415.35,993.738 2419.37,994.032 2423.4,994.324 2427.42,994.616 2431.45,994.906 2435.47,995.195 2439.5,995.483 2443.52,995.77 2447.55,996.055 2451.57,996.34 2455.6,996.623 2459.62,996.905 2463.65,997.186 2467.67,997.467 2471.7,997.745 2475.72,998.023 2479.75,998.3 2483.77,998.576 2487.8,998.85 2491.82,999.124 2495.85,999.396 2499.87,999.667 2503.9,999.937 2507.93,1000.21 2511.95,1000.47 2515.98,1000.74 2520,1001.01 2524.03,1001.27 2528.05,1001.54 2532.08,1001.8 2536.1,1002.06 2540.13,1002.32 2544.15,1002.58 2548.18,1002.84 2552.2,1003.09 2556.23,1003.35 2560.25,1003.61 2564.28,1003.86 2568.3,1004.11 2572.33,1004.37 2576.35,1004.62 2580.38,1004.87 2584.4,1005.11 2588.43,1005.36 2592.45,1005.61 2596.48,1005.86 2600.5,1006.1 2604.53,1006.34 2608.55,1006.59 2612.58,1006.83 2616.6,1007.07 2620.63,1007.31 2624.66,1007.55 2628.68,1007.78 2632.71,1008.02 2636.73,1008.26 2640.76,1008.49 2644.78,1008.72 2648.81,1008.96 2652.83,1009.19 2656.86,1009.42 2660.88,1009.65 2664.91,1009.88 2668.93,1010.11 2672.96,1010.33 2676.98,1010.56 2681.01,1010.78 2685.03,1011.01 2689.06,1011.23 2693.08,1011.45 2697.11,1011.67 2701.13,1011.89 2705.16,1012.11 2709.18,1012.33 2713.21,1012.55 2717.23,1012.76 2721.26,1012.98 2725.28,1013.19 2729.31,1013.4 2733.33,1013.62 2737.36,1013.83 2741.39,1014.04 2745.41,1014.25 2749.44,1014.46 2753.46,1014.67 2757.49,1014.87 2761.51,1015.08 2765.54,1015.28 2769.56,1015.49 2773.59,1015.69 2777.61,1015.89 2781.64,1016.09 2785.66,1016.29 2789.69,1016.49 2793.71,1016.69 2797.74,1016.89 2801.76,1017.09 2805.79,1017.28 2809.81,1017.48 2813.84,1017.67 2817.86,1017.87 2821.89,1018.06 2825.91,1018.25 2829.94,1018.44 2833.96,1018.63 2837.99,1018.82 2842.01,1019.01 2846.04,1019.2 2850.06,1019.38 2854.09,1019.57 2858.12,1019.75 2862.14,1019.94 2866.17,1020.12 2870.19,1020.3 2874.22,1020.49 2878.24,1020.67 2882.27,1020.85 2886.29,1021.02 2890.32,1021.2 2894.34,1021.38 2898.37,1021.56 2902.39,1021.73 2906.42,1021.91 2910.44,1022.08 2914.47,1022.26 2918.49,1022.43 2922.52,1022.6 2926.54,1022.77 2930.57,1022.94 2934.59,1023.11 2938.62,1023.28 2942.64,1023.45 2946.67,1023.62 2950.69,1023.78 2954.72,1023.95 2958.74,1024.11 2962.77,1024.28 2966.79,1024.44 2970.82,1024.6 2974.84,1024.76 2978.87,1024.92 2982.9,1025.08 2986.92,1025.24 2990.95,1025.4 2994.97,1025.56 2999,1025.72 3003.02,1025.88 3007.05,1026.03 3011.07,1026.19 3015.1,1026.34 3019.12,1026.49 3023.15,1026.65 3027.17,1026.8 3031.2,1026.95 3035.22,1027.1 3039.25,1027.25 3043.27,1027.4 3047.3,1027.55 3051.32,1027.7 3055.35,1027.84 3059.37,1027.99 3063.4,1028.14 3067.42,1028.28 3071.45,1028.43 3075.47,1028.57 3079.5,1028.71 3083.52,1028.86 3087.55,1029 3091.57,1029.14 3095.6,1029.28 3099.63,1029.42 3103.65,1029.56 3107.68,1029.7 3111.7,1029.83 3115.73,1029.97 3119.75,1030.11 3123.78,1030.24 3127.8,1030.38 3131.83,1030.51 3135.85,1030.65 3139.88,1030.78 3143.9,1030.91 3147.93,1031.04 3151.95,1031.18 3155.98,1031.31 3160,1031.44 3164.03,1031.57 3168.05,1031.69 3172.08,1031.82 3176.1,1031.95 3180.13,1032.08 3184.15,1032.2 3188.18,1032.33 3192.2,1032.45 3196.23,1032.58 3200.25,1032.7 3204.28,1032.83 3208.3,1032.95 3212.33,1033.07 3216.36,1033.19 3220.38,1033.31 3224.41,1033.43 3228.43,1033.55 3232.46,1033.67 3236.48,1033.79 3240.51,1033.91 3244.53,1034.03 3248.56,1034.14 3252.58,1034.26 3256.61,1034.37 3260.63,1034.49 3264.66,1034.6 3268.68,1034.72 3272.71,1034.83 3276.73,1034.94 3280.76,1035.06 3284.78,1035.17 3288.81,1035.28 3292.83,1035.39 3296.86,1035.5 3300.88,1035.61 3304.91,1035.72 3308.93,1035.83 3312.96,1035.94 3316.98,1036.04 3321.01,1036.15 3325.03,1036.26 3329.06,1036.36 3333.08,1036.47 3337.11,1036.57 3341.14,1036.68 3345.16,1036.78 3349.19,1036.88 3353.21,1036.99 3357.24,1037.09 3361.26,1037.19 3365.29,1037.29 3369.31,1037.39 3373.34,1037.49 3377.36,1037.59 3381.39,1037.69 3385.41,1037.79 3389.44,1037.89 3393.46,1037.99 3397.49,1038.08 3401.51,1038.18 3405.54,1038.28 3409.56,1038.37 3413.59,1038.47 3417.61,1038.56 3421.64,1038.66 3425.66,1038.75 3429.69,1038.85 3433.71,1038.94 3437.74,1039.03 3441.76,1039.12 3445.79,1039.21 3449.81,1039.31 3453.84,1039.4 3457.87,1039.49 3461.89,1039.58 3465.92,1039.67 3469.94,1039.75 3473.97,1039.84 3477.99,1039.93 3482.02,1040.02 3486.04,1040.11 3490.07,1040.19 3494.09,1040.28 3498.12,1040.36 3502.14,1040.45 3506.17,1040.53 3510.19,1040.62 3514.22,1040.7 3518.24,1040.79 3522.27,1040.87 3526.29,1040.95 3530.32,1041.04 3534.34,1041.12 3538.37,1041.2 3542.39,1041.28 3546.42,1041.36 3550.44,1041.44 3554.47,1041.52 3558.49,1041.6 3562.52,1041.68 3566.54,1041.76 3570.57,1041.84 3574.6,1041.91 3578.62,1041.99 3582.65,1042.07 3586.67,1042.15 3590.7,1042.22 3594.72,1042.3 3598.75,1042.37 3602.77,1042.45 3606.8,1042.52 3610.82,1042.6 3614.85,1042.67 3618.87,1042.75 3622.9,1042.82 3626.92,1042.89 3630.95,1042.96 3634.97,1043.04 3639,1043.11 3643.02,1043.18 3647.05,1043.25 3651.07,1043.32 3655.1,1043.39 3659.12,1043.46 3663.15,1043.53 3667.17,1043.6 3671.2,1043.67 3675.22,1043.74 3679.25,1043.81 3683.27,1043.88 3687.3,1043.94 3691.33,1044.01 3695.35,1044.08 3699.38,1044.14 3703.4,1044.21 3707.43,1044.28 3711.45,1044.34 3715.48,1044.41 3719.5,1044.47 3723.53,1044.54 3727.55,1044.6 3731.58,1044.66 3735.6,1044.73 3739.63,1044.79 3743.65,1044.85 3747.68,1044.92 3751.7,1044.98 3755.73,1045.04 3759.75,1045.1 3763.78,1045.16 3767.8,1045.22 3771.83,1045.28 3775.85,1045.34 3779.88,1045.4 3783.9,1045.46 3787.93,1045.52 3791.95,1045.58 3795.98,1045.64 3800,1045.7 3804.03,1045.76 3808.05,1045.82 3812.08,1045.87 3816.11,1045.93 3820.13,1045.99 3824.16,1046.04 3828.18,1046.1 3832.21,1046.16 3836.23,1046.21 3840.26,1046.27 3844.28,1046.32 3848.31,1046.38 3852.33,1046.43 3856.36,1046.49 3860.38,1046.54 3864.41,1046.6 3868.43,1046.65 3872.46,1046.7 3876.48,1046.75 3880.51,1046.81 3884.53,1046.86 3888.56,1046.91 3892.58,1046.96 3896.61,1047.02 3900.63,1047.07 3904.66,1047.12 3908.68,1047.17 3912.71,1047.22 3916.73,1047.27 3920.76,1047.32 3924.78,1047.37 3928.81,1047.42 3932.84,1047.47 3936.86,1047.52 3940.89,1047.57 3944.91,1047.61 3948.94,1047.66 3952.96,1047.71 3956.99,1047.76 3961.01,1047.81 3965.04,1047.85 3969.06,1047.9 3973.09,1047.95 3977.11,1047.99 3981.14,1048.04 3985.16,1048.09 3989.19,1048.13 3993.21,1048.18 3997.24,1048.22 4001.26,1048.27 4005.29,1048.31 4009.31,1048.36 4013.34,1048.4 4017.36,1048.45 4021.39,1048.49 4025.41,1048.53 4029.44,1048.58 4033.46,1048.62 4037.49,1048.66 4041.51,1048.71 4045.54,1048.75 4049.57,1048.79 4053.59,1048.83 4057.62,1048.87 4061.64,1048.92 4065.67,1048.96 4069.69,1049 4073.72,1049.04 4077.74,1049.08 4081.77,1049.12 4085.79,1049.16 4089.82,1049.2 4093.84,1049.24 4097.87,1049.28 4101.89,1049.32 4105.92,1049.36 4109.94,1049.4 4113.97,1049.44 4117.99,1049.48 4122.02,1049.52 4126.04,1049.55 4130.07,1049.59 4134.09,1049.63 4138.12,1049.67 4142.14,1049.7 4146.17,1049.74 4150.19,1049.78 4154.22,1049.82 4158.24,1049.85 4162.27,1049.89 4166.29,1049.93 4170.32,1049.96 4174.35,1050 4178.37,1050.03 4182.4,1050.07 4186.42,1050.1 4190.45,1050.14 4194.47,1050.17 4198.5,1050.21 4202.52,1050.24 4206.55,1050.28 4210.57,1050.31 4214.6,1050.35 4218.62,1050.38 4222.65,1050.41 4226.67,1050.45 4230.7,1050.48 4234.72,1050.52 4238.75,1050.55 4242.77,1050.58 4246.8,1050.61 4250.82,1050.65 "/>
<polyline clip-path="url(#clip262)" style="stroke:#3da44d; stroke-linecap:round; stroke-linejoin:round; stroke-width:4; stroke-opacity:1; fill:none" points="225.654,1686.38 229.68,1686.38 233.705,1686.38 237.73,1686.38 241.755,1686.38 245.78,1686.38 249.805,1686.38 253.831,1686.38 257.856,1686.38 261.881,1686.38 265.906,1686.38 269.931,1686.38 273.956,1686.38 277.982,1686.38 282.007,1686.38 286.032,1686.38 290.057,1686.38 294.082,1686.38 298.107,1686.38 302.133,1686.38 306.158,1686.38 310.183,1686.38 314.208,1686.38 318.233,1686.38 322.259,1686.38 326.284,1686.38 330.309,1686.38 334.334,1686.38 338.359,1686.37 342.384,1686.37 346.41,1686.37 350.435,1686.37 354.46,1686.37 358.485,1686.37 362.51,1686.37 366.535,1686.37 370.561,1686.37 374.586,1686.37 378.611,1686.37 382.636,1686.37 386.661,1686.37 390.686,1686.37 394.712,1686.37 398.737,1686.37 402.762,1686.37 406.787,1686.37 410.812,1686.37 414.837,1686.37 418.863,1686.37 422.888,1686.37 426.913,1686.37 430.938,1686.37 434.963,1686.37 438.988,1686.37 443.014,1686.37 447.039,1686.37 451.064,1686.37 455.089,1686.37 459.114,1686.37 463.139,1686.37 467.165,1686.37 471.19,1686.37 475.215,1686.37 479.24,1686.37 483.265,1686.37 487.29,1686.37 491.316,1686.37 495.341,1686.37 499.366,1686.37 503.391,1686.37 507.416,1686.37 511.441,1686.37 515.467,1686.37 519.492,1686.37 523.517,1686.37 527.542,1686.37 531.567,1686.37 535.592,1686.37 539.618,1686.37 543.643,1686.37 547.668,1686.37 551.693,1686.37 555.718,1686.37 559.743,1686.37 563.769,1686.37 567.794,1686.37 571.819,1686.37 575.844,1686.37 579.869,1686.37 583.894,1686.37 587.92,1686.37 591.945,1686.37 595.97,1686.37 599.995,1686.37 604.02,1686.37 608.046,1686.37 612.071,1686.37 616.096,1686.37 620.121,1686.37 624.146,1686.37 628.171,1686.37 632.197,1686.37 636.222,1686.37 640.247,1686.37 644.272,1686.37 648.297,1686.37 652.322,1686.37 656.348,1686.37 660.373,1686.37 664.398,1686.37 668.423,1686.37 672.448,1686.37 676.473,1686.37 680.499,1686.37 684.524,1686.37 688.549,1686.37 692.574,1686.37 696.599,1686.37 700.624,1686.37 704.65,1686.37 708.675,1686.37 712.7,1686.37 716.725,1686.37 720.75,1686.37 724.775,1686.37 728.801,1686.37 732.826,1686.37 736.851,1686.36 740.876,1686.36 744.901,1686.36 748.926,1686.36 752.952,1686.36 756.977,1686.36 761.002,1686.36 765.027,1686.35 769.052,1686.35 773.077,1686.35 777.103,1686.34 781.128,1686.33 785.153,1686.32 789.178,1686.3 793.203,1686.26 797.228,1519.41 801.254,1284.61 805.279,1284.58 809.304,1284.56 813.329,1284.55 817.354,1284.55 821.379,1284.54 825.405,1284.54 829.43,1284.54 833.455,1284.53 837.48,1284.53 841.505,1284.53 845.53,1284.53 849.556,1284.53 853.581,1284.53 857.606,1284.53 861.631,1284.53 865.656,1284.53 869.681,1284.52 873.707,1284.52 877.732,1284.52 881.757,1284.52 885.782,1284.52 889.807,1284.52 893.833,1284.52 897.858,1284.52 901.883,1284.52 905.908,1284.52 909.933,1284.52 913.958,1284.52 917.984,1284.52 922.009,1284.52 926.034,1284.52 930.059,1284.52 934.084,1284.52 938.109,1284.52 942.135,1284.52 946.16,1284.52 950.185,1284.52 954.21,1284.52 958.235,1284.52 962.26,1284.52 966.286,1284.52 970.311,1284.52 974.336,1284.52 978.361,1284.52 982.386,1284.52 986.411,1284.52 990.437,1284.52 994.462,1284.52 998.487,1284.52 1002.51,1284.52 1006.54,1284.52 1010.56,1284.52 1014.59,1284.52 1018.61,1284.52 1022.64,1284.52 1026.66,1284.52 1030.69,1284.52 1034.71,1284.52 1038.74,1284.52 1042.76,1284.52 1046.79,1284.52 1050.81,1284.52 1054.84,1284.52 1058.86,1284.52 1062.89,1284.52 1066.91,1284.52 1070.94,1284.52 1074.97,1284.52 1078.99,1284.52 1083.02,1284.52 1087.04,1284.52 1091.07,1284.52 1095.09,1284.52 1099.12,1284.52 1103.14,1284.52 1107.17,1284.52 1111.19,1284.52 1115.22,1284.52 1119.24,1284.52 1123.27,1284.52 1127.29,1284.52 1131.32,1284.52 1135.34,1284.52 1139.37,1284.52 1143.39,1284.52 1147.42,1284.52 1151.44,1284.52 1155.47,1284.52 1159.49,1284.52 1163.52,1284.52 1167.54,1284.52 1171.57,1284.52 1175.59,1284.52 1179.62,1284.52 1183.64,1284.52 1187.67,1284.52 1191.7,1284.52 1195.72,1284.52 1199.75,1284.52 1203.77,1284.52 1207.8,1284.52 1211.82,1284.52 1215.85,1284.52 1219.87,1284.52 1223.9,1284.52 1227.92,1284.52 1231.95,1284.52 1235.97,1284.52 1240,1284.52 1244.02,1284.52 1248.05,1284.52 1252.07,1284.52 1256.1,1284.52 1260.12,1284.52 1264.15,1284.52 1268.17,1284.52 1272.2,1284.52 1276.22,1284.52 1280.25,1284.52 1284.27,1284.52 1288.3,1284.52 1292.32,1284.52 1296.35,1284.52 1300.37,1284.52 1304.4,1284.52 1308.42,1284.52 1312.45,1284.52 1316.48,1284.52 1320.5,1284.52 1324.53,1284.52 1328.55,1284.52 1332.58,1284.52 1336.6,1284.53 1340.63,1284.53 1344.65,1284.53 1348.68,1284.53 1352.7,1284.53 1356.73,1284.53 1360.75,1284.53 1364.78,1284.53 1368.8,1284.53 1372.83,1284.53 1376.85,1284.53 1380.88,1284.53 1384.9,1284.53 1388.93,1284.53 1392.95,1284.53 1396.98,1284.53 1401,1284.53 1405.03,1284.53 1409.05,1284.53 1413.08,1284.53 1417.1,1284.53 1421.13,1284.53 1425.15,1284.53 1429.18,1284.53 1433.21,1284.53 1437.23,1284.53 1441.26,1284.54 1445.28,1284.54 1449.31,1284.54 1453.33,1284.54 1457.36,1284.54 1461.38,1284.54 1465.41,1284.54 1469.43,1284.54 1473.46,1284.54 1477.48,1284.54 1481.51,1284.54 1485.53,1284.54 1489.56,1284.55 1493.58,1284.55 1497.61,1284.55 1501.63,1284.55 1505.66,1284.55 1509.68,1284.55 1513.71,1284.55 1517.73,1284.56 1521.76,1284.56 1525.78,1284.56 1529.81,1284.56 1533.83,1284.57 1537.86,1284.57 1541.88,1284.57 1545.91,1284.58 1549.94,1284.58 1553.96,1284.58 1557.99,1284.59 1562.01,1284.59 1566.04,1284.6 1570.06,1284.61 1574.09,1284.62 1578.11,1284.63 1582.14,1284.64 1586.16,1284.66 1590.19,1284.68 1594.21,1284.71 1598.24,1284.75 1602.26,1452.04 1606.29,1686.19 1610.31,1686.22 1614.34,1686.24 1618.36,1686.25 1622.39,1686.26 1626.41,1686.27 1630.44,1686.28 1634.46,1686.29 1638.49,1686.3 1642.51,1686.3 1646.54,1686.31 1650.56,1686.31 1654.59,1686.31 1658.61,1686.32 1662.64,1686.32 1666.66,1686.32 1670.69,1686.33 1674.72,1686.33 1678.74,1686.33 1682.77,1686.33 1686.79,1686.33 1690.82,1686.34 1694.84,1686.34 1698.87,1686.34 1702.89,1686.34 1706.92,1686.34 1710.94,1686.34 1714.97,1686.34 1718.99,1686.35 1723.02,1686.35 1727.04,1686.35 1731.07,1686.35 1735.09,1686.35 1739.12,1686.35 1743.14,1686.35 1747.17,1686.35 1751.19,1686.35 1755.22,1686.35 1759.24,1686.35 1763.27,1686.35 1767.29,1686.35 1771.32,1686.36 1775.34,1686.36 1779.37,1686.36 1783.39,1686.36 1787.42,1686.36 1791.45,1686.36 1795.47,1686.36 1799.5,1686.36 1803.52,1686.36 1807.55,1686.36 1811.57,1686.36 1815.6,1686.36 1819.62,1686.36 1823.65,1686.36 1827.67,1686.36 1831.7,1686.36 1835.72,1686.36 1839.75,1686.36 1843.77,1686.36 1847.8,1686.36 1851.82,1686.36 1855.85,1686.36 1859.87,1686.36 1863.9,1686.36 1867.92,1686.36 1871.95,1686.36 1875.97,1686.36 1880,1686.36 1884.02,1686.36 1888.05,1686.36 1892.07,1686.37 1896.1,1686.37 1900.12,1686.37 1904.15,1686.37 1908.18,1686.37 1912.2,1686.37 1916.23,1686.37 1920.25,1686.37 1924.28,1686.37 1928.3,1686.37 1932.33,1686.37 1936.35,1686.37 1940.38,1686.37 1944.4,1686.37 1948.43,1686.37 1952.45,1686.37 1956.48,1686.37 1960.5,1686.37 1964.53,1686.37 1968.55,1686.37 1972.58,1686.37 1976.6,1686.37 1980.63,1686.37 1984.65,1686.37 1988.68,1686.37 1992.7,1686.37 1996.73,1686.37 2000.75,1686.37 2004.78,1686.37 2008.8,1686.37 2012.83,1686.37 2016.85,1686.37 2020.88,1686.37 2024.91,1686.37 2028.93,1686.37 2032.96,1686.37 2036.98,1686.37 2041.01,1686.37 2045.03,1686.37 2049.06,1686.37 2053.08,1686.37 2057.11,1686.37 2061.13,1686.37 2065.16,1686.37 2069.18,1686.37 2073.21,1686.37 2077.23,1686.37 2081.26,1686.37 2085.28,1686.37 2089.31,1686.37 2093.33,1686.37 2097.36,1686.37 2101.38,1686.37 2105.41,1686.37 2109.43,1686.37 2113.46,1686.37 2117.48,1686.37 2121.51,1686.37 2125.53,1686.37 2129.56,1686.37 2133.58,1686.37 2137.61,1686.37 2141.63,1686.37 2145.66,1686.37 2149.69,1686.37 2153.71,1686.37 2157.74,1686.37 2161.76,1686.37 2165.79,1686.37 2169.81,1686.37 2173.84,1686.37 2177.86,1686.37 2181.89,1686.37 2185.91,1686.37 2189.94,1686.37 2193.96,1686.37 2197.99,1686.37 2202.01,1686.37 2206.04,1686.37 2210.06,1686.37 2214.09,1686.37 2218.11,1686.37 2222.14,1686.37 2226.16,1686.37 2230.19,1686.37 2234.21,1686.37 2238.24,1686.37 2242.26,1686.37 2246.29,1686.37 2250.31,1686.37 2254.34,1686.37 2258.36,1686.37 2262.39,1686.37 2266.42,1686.37 2270.44,1686.37 2274.47,1686.37 2278.49,1686.37 2282.52,1686.37 2286.54,1686.37 2290.57,1686.37 2294.59,1686.37 2298.62,1686.37 2302.64,1686.37 2306.67,1686.37 2310.69,1686.37 2314.72,1686.37 2318.74,1686.37 2322.77,1686.37 2326.79,1686.37 2330.82,1686.37 2334.84,1686.37 2338.87,1686.37 2342.89,1686.37 2346.92,1686.37 2350.94,1686.37 2354.97,1686.37 2358.99,1686.37 2363.02,1686.37 2367.04,1686.37 2371.07,1686.37 2375.09,1686.37 2379.12,1686.37 2383.15,1686.37 2387.17,1686.37 2391.2,1686.37 2395.22,1686.37 2399.25,1686.37 2403.27,1686.37 2407.3,1686.37 2411.32,1686.37 2415.35,1686.37 2419.37,1686.37 2423.4,1686.37 2427.42,1686.37 2431.45,1686.37 2435.47,1686.37 2439.5,1686.37 2443.52,1686.37 2447.55,1686.37 2451.57,1686.37 2455.6,1686.37 2459.62,1686.37 2463.65,1686.37 2467.67,1686.37 2471.7,1686.37 2475.72,1686.37 2479.75,1686.37 2483.77,1686.37 2487.8,1686.37 2491.82,1686.37 2495.85,1686.37 2499.87,1686.37 2503.9,1686.37 2507.93,1686.37 2511.95,1686.37 2515.98,1686.37 2520,1686.37 2524.03,1686.37 2528.05,1686.37 2532.08,1686.37 2536.1,1686.37 2540.13,1686.37 2544.15,1686.37 2548.18,1686.37 2552.2,1686.37 2556.23,1686.37 2560.25,1686.37 2564.28,1686.37 2568.3,1686.37 2572.33,1686.37 2576.35,1686.37 2580.38,1686.37 2584.4,1686.37 2588.43,1686.37 2592.45,1686.37 2596.48,1686.37 2600.5,1686.37 2604.53,1686.37 2608.55,1686.37 2612.58,1686.37 2616.6,1686.37 2620.63,1686.37 2624.66,1686.37 2628.68,1686.37 2632.71,1686.37 2636.73,1686.37 2640.76,1686.37 2644.78,1686.37 2648.81,1686.37 2652.83,1686.37 2656.86,1686.37 2660.88,1686.37 2664.91,1686.37 2668.93,1686.37 2672.96,1686.37 2676.98,1686.37 2681.01,1686.37 2685.03,1686.37 2689.06,1686.37 2693.08,1686.37 2697.11,1686.37 2701.13,1686.37 2705.16,1686.37 2709.18,1686.37 2713.21,1686.37 2717.23,1686.37 2721.26,1686.37 2725.28,1686.37 2729.31,1686.37 2733.33,1686.37 2737.36,1686.37 2741.39,1686.37 2745.41,1686.37 2749.44,1686.37 2753.46,1686.37 2757.49,1686.37 2761.51,1686.37 2765.54,1686.37 2769.56,1686.37 2773.59,1686.37 2777.61,1686.37 2781.64,1686.37 2785.66,1686.37 2789.69,1686.37 2793.71,1686.37 2797.74,1686.37 2801.76,1686.37 2805.79,1686.37 2809.81,1686.37 2813.84,1686.37 2817.86,1686.37 2821.89,1686.37 2825.91,1686.37 2829.94,1686.37 2833.96,1686.37 2837.99,1686.37 2842.01,1686.37 2846.04,1686.37 2850.06,1686.37 2854.09,1686.37 2858.12,1686.37 2862.14,1686.37 2866.17,1686.37 2870.19,1686.37 2874.22,1686.37 2878.24,1686.37 2882.27,1686.37 2886.29,1686.37 2890.32,1686.37 2894.34,1686.37 2898.37,1686.37 2902.39,1686.37 2906.42,1686.37 2910.44,1686.37 2914.47,1686.37 2918.49,1686.37 2922.52,1686.37 2926.54,1686.37 2930.57,1686.37 2934.59,1686.37 2938.62,1686.37 2942.64,1686.37 2946.67,1686.37 2950.69,1686.37 2954.72,1686.37 2958.74,1686.37 2962.77,1686.37 2966.79,1686.37 2970.82,1686.37 2974.84,1686.37 2978.87,1686.37 2982.9,1686.37 2986.92,1686.37 2990.95,1686.37 2994.97,1686.37 2999,1686.37 3003.02,1686.37 3007.05,1686.37 3011.07,1686.37 3015.1,1686.37 3019.12,1686.37 3023.15,1686.37 3027.17,1686.37 3031.2,1686.37 3035.22,1686.37 3039.25,1686.37 3043.27,1686.37 3047.3,1686.37 3051.32,1686.37 3055.35,1686.37 3059.37,1686.37 3063.4,1686.37 3067.42,1686.37 3071.45,1686.37 3075.47,1686.37 3079.5,1686.37 3083.52,1686.37 3087.55,1686.37 3091.57,1686.37 3095.6,1686.37 3099.63,1686.37 3103.65,1686.37 3107.68,1686.37 3111.7,1686.37 3115.73,1686.37 3119.75,1686.37 3123.78,1686.37 3127.8,1686.37 3131.83,1686.37 3135.85,1686.37 3139.88,1686.37 3143.9,1686.37 3147.93,1686.37 3151.95,1686.37 3155.98,1686.37 3160,1686.37 3164.03,1686.37 3168.05,1686.37 3172.08,1686.37 3176.1,1686.37 3180.13,1686.37 3184.15,1686.37 3188.18,1686.37 3192.2,1686.37 3196.23,1686.37 3200.25,1686.37 3204.28,1686.37 3208.3,1686.37 3212.33,1686.37 3216.36,1686.37 3220.38,1686.37 3224.41,1686.37 3228.43,1686.37 3232.46,1686.37 3236.48,1686.37 3240.51,1686.37 3244.53,1686.37 3248.56,1686.37 3252.58,1686.37 3256.61,1686.37 3260.63,1686.37 3264.66,1686.37 3268.68,1686.37 3272.71,1686.37 3276.73,1686.37 3280.76,1686.37 3284.78,1686.37 3288.81,1686.37 3292.83,1686.37 3296.86,1686.37 3300.88,1686.37 3304.91,1686.37 3308.93,1686.37 3312.96,1686.37 3316.98,1686.37 3321.01,1686.37 3325.03,1686.37 3329.06,1686.37 3333.08,1686.37 3337.11,1686.37 3341.14,1686.37 3345.16,1686.37 3349.19,1686.37 3353.21,1686.37 3357.24,1686.38 3361.26,1686.38 3365.29,1686.38 3369.31,1686.38 3373.34,1686.38 3377.36,1686.38 3381.39,1686.38 3385.41,1686.38 3389.44,1686.38 3393.46,1686.38 3397.49,1686.38 3401.51,1686.38 3405.54,1686.38 3409.56,1686.38 3413.59,1686.38 3417.61,1686.38 3421.64,1686.38 3425.66,1686.38 3429.69,1686.38 3433.71,1686.38 3437.74,1686.38 3441.76,1686.38 3445.79,1686.38 3449.81,1686.38 3453.84,1686.38 3457.87,1686.38 3461.89,1686.38 3465.92,1686.38 3469.94,1686.38 3473.97,1686.38 3477.99,1686.38 3482.02,1686.38 3486.04,1686.38 3490.07,1686.38 3494.09,1686.38 3498.12,1686.38 3502.14,1686.38 3506.17,1686.38 3510.19,1686.38 3514.22,1686.38 3518.24,1686.38 3522.27,1686.38 3526.29,1686.38 3530.32,1686.38 3534.34,1686.38 3538.37,1686.38 3542.39,1686.38 3546.42,1686.38 3550.44,1686.38 3554.47,1686.38 3558.49,1686.38 3562.52,1686.38 3566.54,1686.38 3570.57,1686.38 3574.6,1686.38 3578.62,1686.38 3582.65,1686.38 3586.67,1686.38 3590.7,1686.38 3594.72,1686.38 3598.75,1686.38 3602.77,1686.38 3606.8,1686.38 3610.82,1686.38 3614.85,1686.38 3618.87,1686.38 3622.9,1686.38 3626.92,1686.38 3630.95,1686.38 3634.97,1686.38 3639,1686.38 3643.02,1686.38 3647.05,1686.38 3651.07,1686.38 3655.1,1686.38 3659.12,1686.38 3663.15,1686.38 3667.17,1686.38 3671.2,1686.38 3675.22,1686.38 3679.25,1686.38 3683.27,1686.38 3687.3,1686.38 3691.33,1686.38 3695.35,1686.38 3699.38,1686.38 3703.4,1686.38 3707.43,1686.38 3711.45,1686.38 3715.48,1686.38 3719.5,1686.38 3723.53,1686.38 3727.55,1686.38 3731.58,1686.38 3735.6,1686.38 3739.63,1686.38 3743.65,1686.38 3747.68,1686.38 3751.7,1686.38 3755.73,1686.38 3759.75,1686.38 3763.78,1686.38 3767.8,1686.38 3771.83,1686.38 3775.85,1686.38 3779.88,1686.38 3783.9,1686.38 3787.93,1686.38 3791.95,1686.38 3795.98,1686.38 3800,1686.38 3804.03,1686.38 3808.05,1686.38 3812.08,1686.38 3816.11,1686.38 3820.13,1686.38 3824.16,1686.38 3828.18,1686.38 3832.21,1686.38 3836.23,1686.38 3840.26,1686.38 3844.28,1686.38 3848.31,1686.38 3852.33,1686.38 3856.36,1686.38 3860.38,1686.38 3864.41,1686.38 3868.43,1686.38 3872.46,1686.38 3876.48,1686.38 3880.51,1686.38 3884.53,1686.38 3888.56,1686.38 3892.58,1686.38 3896.61,1686.38 3900.63,1686.38 3904.66,1686.38 3908.68,1686.38 3912.71,1686.38 3916.73,1686.38 3920.76,1686.38 3924.78,1686.38 3928.81,1686.38 3932.84,1686.38 3936.86,1686.38 3940.89,1686.38 3944.91,1686.38 3948.94,1686.38 3952.96,1686.38 3956.99,1686.38 3961.01,1686.38 3965.04,1686.38 3969.06,1686.38 3973.09,1686.38 3977.11,1686.38 3981.14,1686.38 3985.16,1686.38 3989.19,1686.38 3993.21,1686.38 3997.24,1686.38 4001.26,1686.38 4005.29,1686.38 4009.31,1686.38 4013.34,1686.38 4017.36,1686.38 4021.39,1686.38 4025.41,1686.38 4029.44,1686.38 4033.46,1686.38 4037.49,1686.38 4041.51,1686.38 4045.54,1686.38 4049.57,1686.38 4053.59,1686.38 4057.62,1686.38 4061.64,1686.38 4065.67,1686.38 4069.69,1686.38 4073.72,1686.38 4077.74,1686.38 4081.77,1686.38 4085.79,1686.38 4089.82,1686.38 4093.84,1686.38 4097.87,1686.38 4101.89,1686.38 4105.92,1686.38 4109.94,1686.38 4113.97,1686.38 4117.99,1686.38 4122.02,1686.38 4126.04,1686.38 4130.07,1686.38 4134.09,1686.38 4138.12,1686.38 4142.14,1686.38 4146.17,1686.38 4150.19,1686.38 4154.22,1686.38 4158.24,1686.38 4162.27,1686.38 4166.29,1686.38 4170.32,1686.38 4174.35,1686.38 4178.37,1686.38 4182.4,1686.38 4186.42,1686.38 4190.45,1686.38 4194.47,1686.38 4198.5,1686.38 4202.52,1686.38 4206.55,1686.38 4210.57,1686.38 4214.6,1686.38 4218.62,1686.38 4222.65,1686.38 4226.67,1686.38 4230.7,1686.38 4234.72,1686.38 4238.75,1686.38 4242.77,1686.38 4246.8,1686.38 4250.82,1686.38 "/>
<polyline clip-path="url(#clip262)" style="stroke:#808080; stroke-linecap:round; stroke-linejoin:round; stroke-width:4; stroke-opacity:0.5; fill:none" points="1337.81,3420.99 1337.81,-1639.63 "/>
<polyline clip-path="url(#clip262)" style="stroke:#808080; stroke-linecap:round; stroke-linejoin:round; stroke-width:4; stroke-opacity:0.5; fill:none" points="-2189.45,882.644 5055.86,882.644 "/>
<path clip-path="url(#clip260)" d="M2031.54 310.833 L2560.25 310.833 L2560.25 103.473 L2031.54 103.473  Z" fill="#ffffff" fill-rule="evenodd" fill-opacity="1"/>
<polyline clip-path="url(#clip260)" style="stroke:#000000; stroke-linecap:round; stroke-linejoin:round; stroke-width:4; stroke-opacity:1; fill:none" points="2031.54,310.833 2560.25,310.833 2560.25,103.473 2031.54,103.473 2031.54,310.833 "/>
<polyline clip-path="url(#clip260)" style="stroke:#009af9; stroke-linecap:round; stroke-linejoin:round; stroke-width:4; stroke-opacity:1; fill:none" points="2058.38,155.313 2219.39,155.313 "/>
<path clip-path="url(#clip260)" d="M2262.61 156.39 Q2264.11 156.899 2265.53 158.565 Q2266.96 160.232 2268.4 163.149 L2273.14 172.593 L2268.12 172.593 L2263.7 163.727 Q2261.98 160.255 2260.36 159.121 Q2258.77 157.987 2255.99 157.987 L2250.9 157.987 L2250.9 172.593 L2246.22 172.593 L2246.22 138.033 L2256.78 138.033 Q2262.7 138.033 2265.62 140.51 Q2268.54 142.987 2268.54 147.987 Q2268.54 151.251 2267.01 153.403 Q2265.5 155.556 2262.61 156.39 M2250.9 141.876 L2250.9 154.144 L2256.78 154.144 Q2260.16 154.144 2261.87 152.593 Q2263.6 151.019 2263.6 147.987 Q2263.6 144.954 2261.87 143.427 Q2260.16 141.876 2256.78 141.876 L2250.9 141.876 Z" fill="#000000" fill-rule="nonzero" fill-opacity="1" /><path clip-path="url(#clip260)" d="M2279.97 153.959 L2279.97 158.079 L2285.5 158.079 L2285.5 159.931 L2279.97 159.931 L2279.97 167.802 Q2279.97 169.584 2280.53 170.093 Q2281.08 170.602 2282.75 170.602 L2285.5 170.602 L2285.5 172.593 L2282.75 172.593 Q2279.65 172.593 2278.47 171.552 Q2277.29 170.533 2277.29 167.802 L2277.29 159.931 L2275.32 159.931 L2275.32 158.079 L2277.29 158.079 L2277.29 153.959 L2279.97 153.959 Z" fill="#000000" fill-rule="nonzero" fill-opacity="1" /><polyline clip-path="url(#clip260)" style="stroke:#e26f46; stroke-linecap:round; stroke-linejoin:round; stroke-width:4; stroke-opacity:1; fill:none" points="2058.38,207.153 2219.39,207.153 "/>
<path clip-path="url(#clip260)" d="M2262.61 208.23 Q2264.11 208.739 2265.53 210.405 Q2266.96 212.072 2268.4 214.989 L2273.14 224.433 L2268.12 224.433 L2263.7 215.567 Q2261.98 212.095 2260.36 210.961 Q2258.77 209.827 2255.99 209.827 L2250.9 209.827 L2250.9 224.433 L2246.22 224.433 L2246.22 189.873 L2256.78 189.873 Q2262.7 189.873 2265.62 192.35 Q2268.54 194.827 2268.54 199.827 Q2268.54 203.091 2267.01 205.243 Q2265.5 207.396 2262.61 208.23 M2250.9 193.716 L2250.9 205.984 L2256.78 205.984 Q2260.16 205.984 2261.87 204.433 Q2263.6 202.859 2263.6 199.827 Q2263.6 196.794 2261.87 195.267 Q2260.16 193.716 2256.78 193.716 L2250.9 193.716 Z" fill="#000000" fill-rule="nonzero" fill-opacity="1" /><path clip-path="url(#clip260)" d="M2279.97 205.799 L2279.97 209.919 L2285.5 209.919 L2285.5 211.771 L2279.97 211.771 L2279.97 219.642 Q2279.97 221.424 2280.53 221.933 Q2281.08 222.442 2282.75 222.442 L2285.5 222.442 L2285.5 224.433 L2282.75 224.433 Q2279.65 224.433 2278.47 223.392 Q2277.29 222.373 2277.29 219.642 L2277.29 211.771 L2275.32 211.771 L2275.32 209.919 L2277.29 209.919 L2277.29 205.799 L2279.97 205.799 Z" fill="#000000" fill-rule="nonzero" fill-opacity="1" /><path clip-path="url(#clip260)" d="M2318.07 201.493 Q2314.65 201.493 2312.66 204.179 Q2310.66 206.841 2310.66 211.493 Q2310.66 216.146 2312.63 218.831 Q2314.62 221.493 2318.07 221.493 Q2321.47 221.493 2323.47 218.808 Q2325.46 216.123 2325.46 211.493 Q2325.46 206.887 2323.47 204.202 Q2321.47 201.493 2318.07 201.493 M2318.07 197.882 Q2323.63 197.882 2326.8 201.493 Q2329.97 205.105 2329.97 211.493 Q2329.97 217.859 2326.8 221.493 Q2323.63 225.104 2318.07 225.104 Q2312.49 225.104 2309.32 221.493 Q2306.17 217.859 2306.17 211.493 Q2306.17 205.105 2309.32 201.493 Q2312.49 197.882 2318.07 197.882 Z" fill="#000000" fill-rule="nonzero" fill-opacity="1" /><path clip-path="url(#clip260)" d="M2341.15 220.544 L2341.15 234.294 L2336.87 234.294 L2336.87 198.507 L2341.15 198.507 L2341.15 202.443 Q2342.49 200.128 2344.53 199.017 Q2346.59 197.882 2349.44 197.882 Q2354.16 197.882 2357.1 201.632 Q2360.06 205.382 2360.06 211.493 Q2360.06 217.605 2357.1 221.355 Q2354.16 225.104 2349.44 225.104 Q2346.59 225.104 2344.53 223.993 Q2342.49 222.859 2341.15 220.544 M2355.64 211.493 Q2355.64 206.794 2353.7 204.132 Q2351.78 201.447 2348.4 201.447 Q2345.02 201.447 2343.07 204.132 Q2341.15 206.794 2341.15 211.493 Q2341.15 216.192 2343.07 218.878 Q2345.02 221.54 2348.4 221.54 Q2351.78 221.54 2353.7 218.878 Q2355.64 216.192 2355.64 211.493 Z" fill="#000000" fill-rule="nonzero" fill-opacity="1" /><path clip-path="url(#clip260)" d="M2371.34 191.146 L2371.34 198.507 L2380.11 198.507 L2380.11 201.818 L2371.34 201.818 L2371.34 215.892 Q2371.34 219.063 2372.19 219.966 Q2373.07 220.868 2375.73 220.868 L2380.11 220.868 L2380.11 224.433 L2375.73 224.433 Q2370.8 224.433 2368.93 222.604 Q2367.05 220.753 2367.05 215.892 L2367.05 201.818 L2363.93 201.818 L2363.93 198.507 L2367.05 198.507 L2367.05 191.146 L2371.34 191.146 Z" fill="#000000" fill-rule="nonzero" fill-opacity="1" /><path clip-path="url(#clip260)" d="M2385.71 198.507 L2389.97 198.507 L2389.97 224.433 L2385.71 224.433 L2385.71 198.507 M2385.71 188.415 L2389.97 188.415 L2389.97 193.808 L2385.71 193.808 L2385.71 188.415 Z" fill="#000000" fill-rule="nonzero" fill-opacity="1" /><path clip-path="url(#clip260)" d="M2419.07 203.484 Q2420.66 200.614 2422.89 199.248 Q2425.11 197.882 2428.12 197.882 Q2432.17 197.882 2434.37 200.73 Q2436.57 203.554 2436.57 208.785 L2436.57 224.433 L2432.28 224.433 L2432.28 208.924 Q2432.28 205.197 2430.96 203.392 Q2429.65 201.586 2426.94 201.586 Q2423.63 201.586 2421.71 203.785 Q2419.78 205.984 2419.78 209.78 L2419.78 224.433 L2415.5 224.433 L2415.5 208.924 Q2415.5 205.174 2414.18 203.392 Q2412.86 201.586 2410.11 201.586 Q2406.84 201.586 2404.92 203.808 Q2403 206.007 2403 209.78 L2403 224.433 L2398.72 224.433 L2398.72 198.507 L2403 198.507 L2403 202.535 Q2404.46 200.151 2406.5 199.017 Q2408.53 197.882 2411.34 197.882 Q2414.16 197.882 2416.13 199.318 Q2418.12 200.753 2419.07 203.484 Z" fill="#000000" fill-rule="nonzero" fill-opacity="1" /><path clip-path="url(#clip260)" d="M2445.06 198.507 L2449.32 198.507 L2449.32 224.433 L2445.06 224.433 L2445.06 198.507 M2445.06 188.415 L2449.32 188.415 L2449.32 193.808 L2445.06 193.808 L2445.06 188.415 Z" fill="#000000" fill-rule="nonzero" fill-opacity="1" /><path clip-path="url(#clip260)" d="M2474.76 199.271 L2474.76 203.299 Q2472.96 202.373 2471.01 201.91 Q2469.07 201.447 2466.98 201.447 Q2463.81 201.447 2462.21 202.419 Q2460.64 203.392 2460.64 205.336 Q2460.64 206.818 2461.77 207.674 Q2462.91 208.507 2466.34 209.271 L2467.79 209.595 Q2472.33 210.568 2474.23 212.35 Q2476.15 214.109 2476.15 217.28 Q2476.15 220.892 2473.28 222.998 Q2470.43 225.104 2465.43 225.104 Q2463.35 225.104 2461.08 224.688 Q2458.84 224.294 2456.34 223.484 L2456.34 219.086 Q2458.7 220.313 2460.99 220.938 Q2463.28 221.54 2465.52 221.54 Q2468.53 221.54 2470.15 220.521 Q2471.77 219.48 2471.77 217.605 Q2471.77 215.868 2470.59 214.943 Q2469.44 214.017 2465.48 213.16 L2464 212.813 Q2460.04 211.98 2458.28 210.267 Q2456.52 208.53 2456.52 205.521 Q2456.52 201.864 2459.11 199.873 Q2461.71 197.882 2466.47 197.882 Q2468.84 197.882 2470.92 198.23 Q2473 198.577 2474.76 199.271 Z" fill="#000000" fill-rule="nonzero" fill-opacity="1" /><path clip-path="url(#clip260)" d="M2505.11 210.405 L2505.11 212.489 L2485.52 212.489 Q2485.8 216.887 2488.16 219.202 Q2490.55 221.493 2494.78 221.493 Q2497.24 221.493 2499.53 220.892 Q2501.84 220.29 2504.11 219.086 L2504.11 223.114 Q2501.82 224.086 2499.41 224.595 Q2497.01 225.104 2494.53 225.104 Q2488.33 225.104 2484.69 221.493 Q2481.08 217.882 2481.08 211.725 Q2481.08 205.359 2484.51 201.632 Q2487.96 197.882 2493.79 197.882 Q2499.02 197.882 2502.05 201.262 Q2505.11 204.618 2505.11 210.405 M2500.85 209.155 Q2500.8 205.66 2498.88 203.577 Q2496.98 201.493 2493.83 201.493 Q2490.27 201.493 2488.12 203.507 Q2485.99 205.521 2485.66 209.179 L2500.85 209.155 Z" fill="#000000" fill-rule="nonzero" fill-opacity="1" /><path clip-path="url(#clip260)" d="M2529.16 202.443 L2529.16 188.415 L2533.42 188.415 L2533.42 224.433 L2529.16 224.433 L2529.16 220.544 Q2527.82 222.859 2525.76 223.993 Q2523.72 225.104 2520.85 225.104 Q2516.15 225.104 2513.19 221.355 Q2510.25 217.605 2510.25 211.493 Q2510.25 205.382 2513.19 201.632 Q2516.15 197.882 2520.85 197.882 Q2523.72 197.882 2525.76 199.017 Q2527.82 200.128 2529.16 202.443 M2514.65 211.493 Q2514.65 216.192 2516.57 218.878 Q2518.51 221.54 2521.89 221.54 Q2525.27 221.54 2527.21 218.878 Q2529.16 216.192 2529.16 211.493 Q2529.16 206.794 2527.21 204.132 Q2525.27 201.447 2521.89 201.447 Q2518.51 201.447 2516.57 204.132 Q2514.65 206.794 2514.65 211.493 Z" fill="#000000" fill-rule="nonzero" fill-opacity="1" /><polyline clip-path="url(#clip260)" style="stroke:#3da44d; stroke-linecap:round; stroke-linejoin:round; stroke-width:4; stroke-opacity:1; fill:none" points="2058.38,258.993 2219.39,258.993 "/>
<path clip-path="url(#clip260)" d="M2262.24 244.884 Q2257.15 244.884 2254.14 248.681 Q2251.15 252.477 2251.15 259.028 Q2251.15 265.556 2254.14 269.352 Q2257.15 273.148 2262.24 273.148 Q2267.33 273.148 2270.29 269.352 Q2273.28 265.556 2273.28 259.028 Q2273.28 252.477 2270.29 248.681 Q2267.33 244.884 2262.24 244.884 M2262.24 241.088 Q2269.51 241.088 2273.86 245.972 Q2278.21 250.834 2278.21 259.028 Q2278.21 267.199 2273.86 272.083 Q2269.51 276.944 2262.24 276.944 Q2254.95 276.944 2250.57 272.083 Q2246.22 267.222 2246.22 259.028 Q2246.22 250.834 2250.57 245.972 Q2254.95 241.088 2262.24 241.088 Z" fill="#000000" fill-rule="nonzero" fill-opacity="1" /><path clip-path="url(#clip260)" d="M2289.46 272.384 L2289.46 286.134 L2285.18 286.134 L2285.18 250.347 L2289.46 250.347 L2289.46 254.283 Q2290.8 251.968 2292.84 250.857 Q2294.9 249.722 2297.75 249.722 Q2302.47 249.722 2305.41 253.472 Q2308.37 257.222 2308.37 263.333 Q2308.37 269.445 2305.41 273.195 Q2302.47 276.944 2297.75 276.944 Q2294.9 276.944 2292.84 275.833 Q2290.8 274.699 2289.46 272.384 M2303.95 263.333 Q2303.95 258.634 2302.01 255.972 Q2300.09 253.287 2296.71 253.287 Q2293.33 253.287 2291.38 255.972 Q2289.46 258.634 2289.46 263.333 Q2289.46 268.032 2291.38 270.718 Q2293.33 273.38 2296.71 273.38 Q2300.09 273.38 2302.01 270.718 Q2303.95 268.032 2303.95 263.333 Z" fill="#000000" fill-rule="nonzero" fill-opacity="1" /><path clip-path="url(#clip260)" d="M2319.65 242.986 L2319.65 250.347 L2328.42 250.347 L2328.42 253.658 L2319.65 253.658 L2319.65 267.732 Q2319.65 270.903 2320.5 271.806 Q2321.38 272.708 2324.04 272.708 L2328.42 272.708 L2328.42 276.273 L2324.04 276.273 Q2319.11 276.273 2317.24 274.444 Q2315.36 272.593 2315.36 267.732 L2315.36 253.658 L2312.24 253.658 L2312.24 250.347 L2315.36 250.347 L2315.36 242.986 L2319.65 242.986 Z" fill="#000000" fill-rule="nonzero" fill-opacity="1" /><path clip-path="url(#clip260)" d="M2334.02 250.347 L2338.28 250.347 L2338.28 276.273 L2334.02 276.273 L2334.02 250.347 M2334.02 240.255 L2338.28 240.255 L2338.28 245.648 L2334.02 245.648 L2334.02 240.255 Z" fill="#000000" fill-rule="nonzero" fill-opacity="1" /><path clip-path="url(#clip260)" d="M2367.38 255.324 Q2368.97 252.454 2371.2 251.088 Q2373.42 249.722 2376.43 249.722 Q2380.48 249.722 2382.68 252.57 Q2384.88 255.394 2384.88 260.625 L2384.88 276.273 L2380.59 276.273 L2380.59 260.764 Q2380.59 257.037 2379.28 255.232 Q2377.96 253.426 2375.25 253.426 Q2371.94 253.426 2370.02 255.625 Q2368.09 257.824 2368.09 261.62 L2368.09 276.273 L2363.81 276.273 L2363.81 260.764 Q2363.81 257.014 2362.49 255.232 Q2361.17 253.426 2358.42 253.426 Q2355.16 253.426 2353.23 255.648 Q2351.31 257.847 2351.31 261.62 L2351.31 276.273 L2347.03 276.273 L2347.03 250.347 L2351.31 250.347 L2351.31 254.375 Q2352.77 251.991 2354.81 250.857 Q2356.84 249.722 2359.65 249.722 Q2362.47 249.722 2364.44 251.158 Q2366.43 252.593 2367.38 255.324 Z" fill="#000000" fill-rule="nonzero" fill-opacity="1" /><path clip-path="url(#clip260)" d="M2393.37 250.347 L2397.63 250.347 L2397.63 276.273 L2393.37 276.273 L2393.37 250.347 M2393.37 240.255 L2397.63 240.255 L2397.63 245.648 L2393.37 245.648 L2393.37 240.255 Z" fill="#000000" fill-rule="nonzero" fill-opacity="1" /><path clip-path="url(#clip260)" d="M2404.69 250.347 L2424.92 250.347 L2424.92 254.236 L2408.9 272.87 L2424.92 272.87 L2424.92 276.273 L2404.11 276.273 L2404.11 272.384 L2420.13 253.75 L2404.69 253.75 L2404.69 250.347 Z" fill="#000000" fill-rule="nonzero" fill-opacity="1" /><path clip-path="url(#clip260)" d="M2453.6 262.245 L2453.6 264.329 L2434.02 264.329 Q2434.3 268.727 2436.66 271.042 Q2439.04 273.333 2443.28 273.333 Q2445.73 273.333 2448.03 272.732 Q2450.34 272.13 2452.61 270.926 L2452.61 274.954 Q2450.32 275.926 2447.91 276.435 Q2445.5 276.944 2443.03 276.944 Q2436.82 276.944 2433.19 273.333 Q2429.58 269.722 2429.58 263.565 Q2429.58 257.199 2433 253.472 Q2436.45 249.722 2442.28 249.722 Q2447.52 249.722 2450.55 253.102 Q2453.6 256.458 2453.6 262.245 M2449.34 260.995 Q2449.3 257.5 2447.38 255.417 Q2445.48 253.333 2442.33 253.333 Q2438.77 253.333 2436.61 255.347 Q2434.48 257.361 2434.16 261.019 L2449.34 260.995 Z" fill="#000000" fill-rule="nonzero" fill-opacity="1" /><path clip-path="url(#clip260)" d="M2477.65 254.283 L2477.65 240.255 L2481.91 240.255 L2481.91 276.273 L2477.65 276.273 L2477.65 272.384 Q2476.31 274.699 2474.25 275.833 Q2472.21 276.944 2469.34 276.944 Q2464.65 276.944 2461.68 273.195 Q2458.74 269.445 2458.74 263.333 Q2458.74 257.222 2461.68 253.472 Q2464.65 249.722 2469.34 249.722 Q2472.21 249.722 2474.25 250.857 Q2476.31 251.968 2477.65 254.283 M2463.14 263.333 Q2463.14 268.032 2465.06 270.718 Q2467.01 273.38 2470.39 273.38 Q2473.77 273.38 2475.71 270.718 Q2477.65 268.032 2477.65 263.333 Q2477.65 258.634 2475.71 255.972 Q2473.77 253.287 2470.39 253.287 Q2467.01 253.287 2465.06 255.972 Q2463.14 258.634 2463.14 263.333 Z" fill="#000000" fill-rule="nonzero" fill-opacity="1" /><path clip-path="url(#clip260)" d="M2509.11 250.347 L2509.11 267.13 Q2509.11 270.255 2510.27 271.736 Q2511.54 273.333 2514.02 273.333 Q2517.49 273.333 2519.92 268.519 Q2521.29 265.787 2521.64 261.458 Q2521.82 259.097 2521.13 256.134 Q2520.48 253.38 2518.02 250.347 L2522.33 250.347 L2522.33 250.347 Q2523.95 252.431 2524.99 255.278 Q2525.96 257.94 2525.96 261.505 Q2525.96 267.361 2523 271.69 Q2519.39 276.968 2513.51 276.944 Q2509.37 276.944 2507.03 274.167 Q2504.76 271.435 2504.76 266.875 L2504.74 250.347 L2509.11 250.347 Z" fill="#000000" fill-rule="nonzero" fill-opacity="1" /></svg>
