<?xml version="1.0" encoding="utf-8"?>
<svg xmlns="http://www.w3.org/2000/svg" xmlns:xlink="http://www.w3.org/1999/xlink" width="672" height="480" viewBox="0 0 2688 1920">
<defs>
  <clipPath id="clip390">
    <rect x="0" y="0" width="2688" height="1920"/>
  </clipPath>
</defs>
<path clip-path="url(#clip390)" d="M0 1920 L2688 1920 L2688 -4.26326e-14 L0 -4.26326e-14  Z" fill="#ffffff" fill-rule="evenodd" fill-opacity="1"/>
<defs>
  <clipPath id="clip391">
    <rect x="537" y="0" width="1883" height="1883"/>
  </clipPath>
</defs>
<path clip-path="url(#clip390)" d="M255.816 1734.12 L2640.76 1734.12 L2640.76 47.2441 L255.816 47.2441  Z" fill="#ffffff" fill-rule="evenodd" fill-opacity="1"/>
<defs>
  <clipPath id="clip392">
    <rect x="255" y="47" width="2386" height="1688"/>
  </clipPath>
</defs>
<polyline clip-path="url(#clip392)" style="stroke:#000000; stroke-linecap:round; stroke-linejoin:round; stroke-width:2; stroke-opacity:0.1; fill:none" points="255.816,1734.12 255.816,47.2441 "/>
<polyline clip-path="url(#clip392)" style="stroke:#000000; stroke-linecap:round; stroke-linejoin:round; stroke-width:2; stroke-opacity:0.1; fill:none" points="732.804,1734.12 732.804,47.2441 "/>
<polyline clip-path="url(#clip392)" style="stroke:#000000; stroke-linecap:round; stroke-linejoin:round; stroke-width:2; stroke-opacity:0.1; fill:none" points="1209.79,1734.12 1209.79,47.2441 "/>
<polyline clip-path="url(#clip392)" style="stroke:#000000; stroke-linecap:round; stroke-linejoin:round; stroke-width:2; stroke-opacity:0.1; fill:none" points="1686.78,1734.12 1686.78,47.2441 "/>
<polyline clip-path="url(#clip392)" style="stroke:#000000; stroke-linecap:round; stroke-linejoin:round; stroke-width:2; stroke-opacity:0.1; fill:none" points="2163.77,1734.12 2163.77,47.2441 "/>
<polyline clip-path="url(#clip392)" style="stroke:#000000; stroke-linecap:round; stroke-linejoin:round; stroke-width:2; stroke-opacity:0.1; fill:none" points="2640.76,1734.12 2640.76,47.2441 "/>
<polyline clip-path="url(#clip392)" style="stroke:#000000; stroke-linecap:round; stroke-linejoin:round; stroke-width:2; stroke-opacity:0.1; fill:none" points="255.816,1686.38 2640.76,1686.38 "/>
<polyline clip-path="url(#clip392)" style="stroke:#000000; stroke-linecap:round; stroke-linejoin:round; stroke-width:2; stroke-opacity:0.1; fill:none" points="255.816,1284.51 2640.76,1284.51 "/>
<polyline clip-path="url(#clip392)" style="stroke:#000000; stroke-linecap:round; stroke-linejoin:round; stroke-width:2; stroke-opacity:0.1; fill:none" points="255.816,882.643 2640.76,882.643 "/>
<polyline clip-path="url(#clip392)" style="stroke:#000000; stroke-linecap:round; stroke-linejoin:round; stroke-width:2; stroke-opacity:0.1; fill:none" points="255.816,480.777 2640.76,480.777 "/>
<polyline clip-path="url(#clip392)" style="stroke:#000000; stroke-linecap:round; stroke-linejoin:round; stroke-width:2; stroke-opacity:0.1; fill:none" points="255.816,78.9111 2640.76,78.9111 "/>
<polyline clip-path="url(#clip390)" style="stroke:#000000; stroke-linecap:round; stroke-linejoin:round; stroke-width:4; stroke-opacity:1; fill:none" points="255.816,1734.12 2640.76,1734.12 "/>
<polyline clip-path="url(#clip390)" style="stroke:#000000; stroke-linecap:round; stroke-linejoin:round; stroke-width:4; stroke-opacity:1; fill:none" points="255.816,1734.12 255.816,1715.22 "/>
<polyline clip-path="url(#clip390)" style="stroke:#000000; stroke-linecap:round; stroke-linejoin:round; stroke-width:4; stroke-opacity:1; fill:none" points="732.804,1734.12 732.804,1715.22 "/>
<polyline clip-path="url(#clip390)" style="stroke:#000000; stroke-linecap:round; stroke-linejoin:round; stroke-width:4; stroke-opacity:1; fill:none" points="1209.79,1734.12 1209.79,1715.22 "/>
<polyline clip-path="url(#clip390)" style="stroke:#000000; stroke-linecap:round; stroke-linejoin:round; stroke-width:4; stroke-opacity:1; fill:none" points="1686.78,1734.12 1686.78,1715.22 "/>
<polyline clip-path="url(#clip390)" style="stroke:#000000; stroke-linecap:round; stroke-linejoin:round; stroke-width:4; stroke-opacity:1; fill:none" points="2163.77,1734.12 2163.77,1715.22 "/>
<polyline clip-path="url(#clip390)" style="stroke:#000000; stroke-linecap:round; stroke-linejoin:round; stroke-width:4; stroke-opacity:1; fill:none" points="2640.76,1734.12 2640.76,1715.22 "/>
<path clip-path="url(#clip390)" d="M255.816 1767.34 Q252.205 1767.34 250.377 1770.9 Q248.571 1774.45 248.571 1781.58 Q248.571 1788.68 250.377 1792.25 Q252.205 1795.79 255.816 1795.79 Q259.451 1795.79 261.256 1792.25 Q263.085 1788.68 263.085 1781.58 Q263.085 1774.45 261.256 1770.9 Q259.451 1767.34 255.816 1767.34 M255.816 1763.64 Q261.626 1763.64 264.682 1768.24 Q267.761 1772.83 267.761 1781.58 Q267.761 1790.3 264.682 1794.91 Q261.626 1799.49 255.816 1799.49 Q250.006 1799.49 246.927 1794.91 Q243.872 1790.3 243.872 1781.58 Q243.872 1772.83 246.927 1768.24 Q250.006 1763.64 255.816 1763.64 Z" fill="#000000" fill-rule="nonzero" fill-opacity="1" /><path clip-path="url(#clip390)" d="M711.577 1794.89 L727.897 1794.89 L727.897 1798.82 L705.953 1798.82 L705.953 1794.89 Q708.615 1792.13 713.198 1787.5 Q717.804 1782.85 718.985 1781.51 Q721.23 1778.98 722.11 1777.25 Q723.013 1775.49 723.013 1773.8 Q723.013 1771.04 721.068 1769.31 Q719.147 1767.57 716.045 1767.57 Q713.846 1767.57 711.392 1768.34 Q708.962 1769.1 706.184 1770.65 L706.184 1765.93 Q709.008 1764.79 711.462 1764.21 Q713.915 1763.64 715.952 1763.64 Q721.323 1763.64 724.517 1766.32 Q727.712 1769.01 727.712 1773.5 Q727.712 1775.63 726.901 1777.55 Q726.114 1779.45 724.008 1782.04 Q723.429 1782.71 720.327 1785.93 Q717.226 1789.12 711.577 1794.89 Z" fill="#000000" fill-rule="nonzero" fill-opacity="1" /><path clip-path="url(#clip390)" d="M747.712 1767.34 Q744.1 1767.34 742.272 1770.9 Q740.466 1774.45 740.466 1781.58 Q740.466 1788.68 742.272 1792.25 Q744.1 1795.79 747.712 1795.79 Q751.346 1795.79 753.151 1792.25 Q754.98 1788.68 754.98 1781.58 Q754.98 1774.45 753.151 1770.9 Q751.346 1767.34 747.712 1767.34 M747.712 1763.64 Q753.522 1763.64 756.577 1768.24 Q759.656 1772.83 759.656 1781.58 Q759.656 1790.3 756.577 1794.91 Q753.522 1799.49 747.712 1799.49 Q741.901 1799.49 738.823 1794.91 Q735.767 1790.3 735.767 1781.58 Q735.767 1772.83 738.823 1768.24 Q741.901 1763.64 747.712 1763.64 Z" fill="#000000" fill-rule="nonzero" fill-opacity="1" /><path clip-path="url(#clip390)" d="M1197.96 1768.34 L1186.16 1786.78 L1197.96 1786.78 L1197.96 1768.34 M1196.74 1764.26 L1202.62 1764.26 L1202.62 1786.78 L1207.55 1786.78 L1207.55 1790.67 L1202.62 1790.67 L1202.62 1798.82 L1197.96 1798.82 L1197.96 1790.67 L1182.36 1790.67 L1182.36 1786.16 L1196.74 1764.26 Z" fill="#000000" fill-rule="nonzero" fill-opacity="1" /><path clip-path="url(#clip390)" d="M1225.28 1767.34 Q1221.67 1767.34 1219.84 1770.9 Q1218.03 1774.45 1218.03 1781.58 Q1218.03 1788.68 1219.84 1792.25 Q1221.67 1795.79 1225.28 1795.79 Q1228.91 1795.79 1230.72 1792.25 Q1232.55 1788.68 1232.55 1781.58 Q1232.55 1774.45 1230.72 1770.9 Q1228.91 1767.34 1225.28 1767.34 M1225.28 1763.64 Q1231.09 1763.64 1234.14 1768.24 Q1237.22 1772.83 1237.22 1781.58 Q1237.22 1790.3 1234.14 1794.91 Q1231.09 1799.49 1225.28 1799.49 Q1219.47 1799.49 1216.39 1794.91 Q1213.33 1790.3 1213.33 1781.58 Q1213.33 1772.83 1216.39 1768.24 Q1219.47 1763.64 1225.28 1763.64 Z" fill="#000000" fill-rule="nonzero" fill-opacity="1" /><path clip-path="url(#clip390)" d="M1672.19 1779.68 Q1669.04 1779.68 1667.19 1781.83 Q1665.36 1783.98 1665.36 1787.73 Q1665.36 1791.46 1667.19 1793.64 Q1669.04 1795.79 1672.19 1795.79 Q1675.33 1795.79 1677.16 1793.64 Q1679.01 1791.46 1679.01 1787.73 Q1679.01 1783.98 1677.16 1781.83 Q1675.33 1779.68 1672.19 1779.68 M1681.47 1765.02 L1681.47 1769.28 Q1679.71 1768.45 1677.9 1768.01 Q1676.12 1767.57 1674.36 1767.57 Q1669.73 1767.57 1667.28 1770.7 Q1664.85 1773.82 1664.5 1780.14 Q1665.87 1778.13 1667.93 1777.06 Q1669.99 1775.97 1672.46 1775.97 Q1677.67 1775.97 1680.68 1779.15 Q1683.71 1782.29 1683.71 1787.73 Q1683.71 1793.06 1680.56 1796.27 Q1677.42 1799.49 1672.19 1799.49 Q1666.19 1799.49 1663.02 1794.91 Q1659.85 1790.3 1659.85 1781.58 Q1659.85 1773.38 1663.74 1768.52 Q1667.63 1763.64 1674.18 1763.64 Q1675.94 1763.64 1677.72 1763.98 Q1679.52 1764.33 1681.47 1765.02 Z" fill="#000000" fill-rule="nonzero" fill-opacity="1" /><path clip-path="url(#clip390)" d="M1701.77 1767.34 Q1698.16 1767.34 1696.33 1770.9 Q1694.52 1774.45 1694.52 1781.58 Q1694.52 1788.68 1696.33 1792.25 Q1698.16 1795.79 1701.77 1795.79 Q1705.4 1795.79 1707.21 1792.25 Q1709.04 1788.68 1709.04 1781.58 Q1709.04 1774.45 1707.21 1770.9 Q1705.4 1767.34 1701.77 1767.34 M1701.77 1763.64 Q1707.58 1763.64 1710.63 1768.24 Q1713.71 1772.83 1713.71 1781.58 Q1713.71 1790.3 1710.63 1794.91 Q1707.58 1799.49 1701.77 1799.49 Q1695.96 1799.49 1692.88 1794.91 Q1689.82 1790.3 1689.82 1781.58 Q1689.82 1772.83 1692.88 1768.24 Q1695.96 1763.64 1701.77 1763.64 Z" fill="#000000" fill-rule="nonzero" fill-opacity="1" /><path clip-path="url(#clip390)" d="M2148.64 1782.41 Q2145.31 1782.41 2143.39 1784.19 Q2141.49 1785.97 2141.49 1789.1 Q2141.49 1792.22 2143.39 1794.01 Q2145.31 1795.79 2148.64 1795.79 Q2151.97 1795.79 2153.9 1794.01 Q2155.82 1792.2 2155.82 1789.1 Q2155.82 1785.97 2153.9 1784.19 Q2152 1782.41 2148.64 1782.41 M2143.96 1780.42 Q2140.96 1779.68 2139.27 1777.62 Q2137.6 1775.56 2137.6 1772.59 Q2137.6 1768.45 2140.54 1766.04 Q2143.5 1763.64 2148.64 1763.64 Q2153.8 1763.64 2156.74 1766.04 Q2159.68 1768.45 2159.68 1772.59 Q2159.68 1775.56 2157.99 1777.62 Q2156.33 1779.68 2153.34 1780.42 Q2156.72 1781.21 2158.59 1783.5 Q2160.49 1785.79 2160.49 1789.1 Q2160.49 1794.12 2157.41 1796.81 Q2154.36 1799.49 2148.64 1799.49 Q2142.92 1799.49 2139.84 1796.81 Q2136.79 1794.12 2136.79 1789.1 Q2136.79 1785.79 2138.69 1783.5 Q2140.59 1781.21 2143.96 1780.42 M2142.25 1773.03 Q2142.25 1775.72 2143.92 1777.22 Q2145.61 1778.73 2148.64 1778.73 Q2151.65 1778.73 2153.34 1777.22 Q2155.05 1775.72 2155.05 1773.03 Q2155.05 1770.35 2153.34 1768.84 Q2151.65 1767.34 2148.64 1767.34 Q2145.61 1767.34 2143.92 1768.84 Q2142.25 1770.35 2142.25 1773.03 Z" fill="#000000" fill-rule="nonzero" fill-opacity="1" /><path clip-path="url(#clip390)" d="M2178.8 1767.34 Q2175.19 1767.34 2173.36 1770.9 Q2171.56 1774.45 2171.56 1781.58 Q2171.56 1788.68 2173.36 1792.25 Q2175.19 1795.79 2178.8 1795.79 Q2182.44 1795.79 2184.24 1792.25 Q2186.07 1788.68 2186.07 1781.58 Q2186.07 1774.45 2184.24 1770.9 Q2182.44 1767.34 2178.8 1767.34 M2178.8 1763.64 Q2184.61 1763.64 2187.67 1768.24 Q2190.75 1772.83 2190.75 1781.58 Q2190.75 1790.3 2187.67 1794.91 Q2184.61 1799.49 2178.8 1799.49 Q2172.99 1799.49 2169.91 1794.91 Q2166.86 1790.3 2166.86 1781.58 Q2166.86 1772.83 2169.91 1768.24 Q2172.99 1763.64 2178.8 1763.64 Z" fill="#000000" fill-rule="nonzero" fill-opacity="1" /><path clip-path="url(#clip390)" d="M2600.36 1794.89 L2608 1794.89 L2608 1768.52 L2599.69 1770.19 L2599.69 1765.93 L2607.96 1764.26 L2612.63 1764.26 L2612.63 1794.89 L2620.27 1794.89 L2620.27 1798.82 L2600.36 1798.82 L2600.36 1794.89 Z" fill="#000000" fill-rule="nonzero" fill-opacity="1" /><path clip-path="url(#clip390)" d="M2639.71 1767.34 Q2636.1 1767.34 2634.27 1770.9 Q2632.47 1774.45 2632.47 1781.58 Q2632.47 1788.68 2634.27 1792.25 Q2636.1 1795.79 2639.71 1795.79 Q2643.35 1795.79 2645.15 1792.25 Q2646.98 1788.68 2646.98 1781.58 Q2646.98 1774.45 2645.15 1770.9 Q2643.35 1767.34 2639.71 1767.34 M2639.71 1763.64 Q2645.52 1763.64 2648.58 1768.24 Q2651.66 1772.83 2651.66 1781.58 Q2651.66 1790.3 2648.58 1794.91 Q2645.52 1799.49 2639.71 1799.49 Q2633.9 1799.49 2630.83 1794.91 Q2627.77 1790.3 2627.77 1781.58 Q2627.77 1772.83 2630.83 1768.24 Q2633.9 1763.64 2639.71 1763.64 Z" fill="#000000" fill-rule="nonzero" fill-opacity="1" /><path clip-path="url(#clip390)" d="M2669.88 1767.34 Q2666.27 1767.34 2664.44 1770.9 Q2662.63 1774.45 2662.63 1781.58 Q2662.63 1788.68 2664.44 1792.25 Q2666.27 1795.79 2669.88 1795.79 Q2673.51 1795.79 2675.32 1792.25 Q2677.14 1788.68 2677.14 1781.58 Q2677.14 1774.45 2675.32 1770.9 Q2673.51 1767.34 2669.88 1767.34 M2669.88 1763.64 Q2675.69 1763.64 2678.74 1768.24 Q2681.82 1772.83 2681.82 1781.58 Q2681.82 1790.3 2678.74 1794.91 Q2675.69 1799.49 2669.88 1799.49 Q2664.07 1799.49 2660.99 1794.91 Q2657.93 1790.3 2657.93 1781.58 Q2657.93 1772.83 2660.99 1768.24 Q2664.07 1763.64 2669.88 1763.64 Z" fill="#000000" fill-rule="nonzero" fill-opacity="1" /><path clip-path="url(#clip390)" d="M1258.51 1835.78 L1298.71 1835.78 L1298.71 1841.19 L1281.84 1841.19 L1281.84 1883.3 L1275.38 1883.3 L1275.38 1841.19 L1258.51 1841.19 L1258.51 1835.78 Z" fill="#000000" fill-rule="nonzero" fill-opacity="1" /><path clip-path="url(#clip390)" d="M1302.65 1847.65 L1308.51 1847.65 L1308.51 1883.3 L1302.65 1883.3 L1302.65 1847.65 M1302.65 1833.78 L1308.51 1833.78 L1308.51 1841.19 L1302.65 1841.19 L1302.65 1833.78 Z" fill="#000000" fill-rule="nonzero" fill-opacity="1" /><path clip-path="url(#clip390)" d="M1348.52 1854.5 Q1350.72 1850.55 1353.77 1848.67 Q1356.83 1846.79 1360.96 1846.79 Q1366.53 1846.79 1369.56 1850.71 Q1372.58 1854.59 1372.58 1861.78 L1372.58 1883.3 L1366.69 1883.3 L1366.69 1861.98 Q1366.69 1856.85 1364.88 1854.37 Q1363.07 1851.89 1359.34 1851.89 Q1354.79 1851.89 1352.15 1854.91 Q1349.51 1857.93 1349.51 1863.15 L1349.51 1883.3 L1343.62 1883.3 L1343.62 1861.98 Q1343.62 1856.82 1341.8 1854.37 Q1339.99 1851.89 1336.2 1851.89 Q1331.71 1851.89 1329.07 1854.94 Q1326.43 1857.97 1326.43 1863.15 L1326.43 1883.3 L1320.54 1883.3 L1320.54 1847.65 L1326.43 1847.65 L1326.43 1853.19 Q1328.44 1849.91 1331.24 1848.35 Q1334.04 1846.79 1337.89 1846.79 Q1341.77 1846.79 1344.48 1848.77 Q1347.21 1850.74 1348.52 1854.5 Z" fill="#000000" fill-rule="nonzero" fill-opacity="1" /><path clip-path="url(#clip390)" d="M1414.75 1864.01 L1414.75 1866.88 L1387.83 1866.88 Q1388.21 1872.92 1391.46 1876.11 Q1394.73 1879.26 1400.56 1879.26 Q1403.93 1879.26 1407.08 1878.43 Q1410.27 1877.6 1413.39 1875.95 L1413.39 1881.49 Q1410.24 1882.82 1406.92 1883.52 Q1403.61 1884.22 1400.21 1884.22 Q1391.68 1884.22 1386.68 1879.26 Q1381.72 1874.29 1381.72 1865.83 Q1381.72 1857.07 1386.43 1851.95 Q1391.17 1846.79 1399.19 1846.79 Q1406.38 1846.79 1410.55 1851.44 Q1414.75 1856.06 1414.75 1864.01 M1408.9 1862.29 Q1408.83 1857.49 1406.19 1854.62 Q1403.58 1851.76 1399.25 1851.76 Q1394.35 1851.76 1391.39 1854.53 Q1388.46 1857.3 1388.02 1862.33 L1408.9 1862.29 Z" fill="#000000" fill-rule="nonzero" fill-opacity="1" /><path clip-path="url(#clip390)" d="M1459.16 1833.84 Q1454.89 1841.16 1452.82 1848.32 Q1450.75 1855.48 1450.75 1862.84 Q1450.75 1870.19 1452.82 1877.41 Q1454.92 1884.61 1459.16 1891.89 L1454.06 1891.89 Q1449.29 1884.41 1446.9 1877.19 Q1444.55 1869.96 1444.55 1862.84 Q1444.55 1855.74 1446.9 1848.54 Q1449.26 1841.35 1454.06 1833.84 L1459.16 1833.84 Z" fill="#000000" fill-rule="nonzero" fill-opacity="1" /><path clip-path="url(#clip390)" d="M1493.98 1853.06 L1493.98 1833.78 L1499.83 1833.78 L1499.83 1883.3 L1493.98 1883.3 L1493.98 1877.95 Q1492.13 1881.14 1489.3 1882.7 Q1486.5 1884.22 1482.55 1884.22 Q1476.09 1884.22 1472.01 1879.07 Q1467.97 1873.91 1467.97 1865.51 Q1467.97 1857.11 1472.01 1851.95 Q1476.09 1846.79 1482.55 1846.79 Q1486.5 1846.79 1489.3 1848.35 Q1492.13 1849.88 1493.98 1853.06 M1474.02 1865.51 Q1474.02 1871.97 1476.66 1875.66 Q1479.33 1879.32 1483.98 1879.32 Q1488.63 1879.32 1491.3 1875.66 Q1493.98 1871.97 1493.98 1865.51 Q1493.98 1859.05 1491.3 1855.39 Q1488.63 1851.7 1483.98 1851.7 Q1479.33 1851.7 1476.66 1855.39 Q1474.02 1859.05 1474.02 1865.51 Z" fill="#000000" fill-rule="nonzero" fill-opacity="1" /><path clip-path="url(#clip390)" d="M1528.1 1865.38 Q1521 1865.38 1518.26 1867 Q1515.52 1868.63 1515.52 1872.54 Q1515.52 1875.66 1517.56 1877.51 Q1519.63 1879.32 1523.16 1879.32 Q1528.03 1879.32 1530.96 1875.88 Q1533.92 1872.42 1533.92 1866.69 L1533.92 1865.38 L1528.1 1865.38 M1539.78 1862.96 L1539.78 1883.3 L1533.92 1883.3 L1533.92 1877.89 Q1531.92 1881.14 1528.92 1882.7 Q1525.93 1884.22 1521.6 1884.22 Q1516.13 1884.22 1512.88 1881.17 Q1509.67 1878.08 1509.67 1872.92 Q1509.67 1866.91 1513.68 1863.85 Q1517.72 1860.8 1525.71 1860.8 L1533.92 1860.8 L1533.92 1860.23 Q1533.92 1856.18 1531.25 1853.99 Q1528.61 1851.76 1523.8 1851.76 Q1520.74 1851.76 1517.85 1852.49 Q1514.95 1853.22 1512.28 1854.69 L1512.28 1849.28 Q1515.49 1848.03 1518.52 1847.43 Q1521.54 1846.79 1524.4 1846.79 Q1532.14 1846.79 1535.96 1850.8 Q1539.78 1854.81 1539.78 1862.96 Z" fill="#000000" fill-rule="nonzero" fill-opacity="1" /><path clip-path="url(#clip390)" d="M1566.67 1886.61 Q1564.19 1892.98 1561.83 1894.92 Q1559.48 1896.86 1555.53 1896.86 L1550.85 1896.86 L1550.85 1891.96 L1554.29 1891.96 Q1556.71 1891.96 1558.05 1890.81 Q1559.38 1889.67 1561.01 1885.4 L1562.06 1882.73 L1547.64 1847.65 L1553.85 1847.65 L1564.99 1875.53 L1576.13 1847.65 L1582.33 1847.65 L1566.67 1886.61 Z" fill="#000000" fill-rule="nonzero" fill-opacity="1" /><path clip-path="url(#clip390)" d="M1613.14 1848.7 L1613.14 1854.24 Q1610.66 1852.97 1607.99 1852.33 Q1605.31 1851.7 1602.45 1851.7 Q1598.09 1851.7 1595.89 1853.03 Q1593.73 1854.37 1593.73 1857.04 Q1593.73 1859.08 1595.29 1860.26 Q1596.85 1861.4 1601.56 1862.45 L1603.56 1862.9 Q1609.8 1864.24 1612.41 1866.69 Q1615.05 1869.11 1615.05 1873.47 Q1615.05 1878.43 1611.1 1881.33 Q1607.19 1884.22 1600.32 1884.22 Q1597.45 1884.22 1594.33 1883.65 Q1591.24 1883.11 1587.81 1882 L1587.81 1875.95 Q1591.05 1877.64 1594.2 1878.49 Q1597.36 1879.32 1600.44 1879.32 Q1604.58 1879.32 1606.81 1877.92 Q1609.04 1876.49 1609.04 1873.91 Q1609.04 1871.52 1607.41 1870.25 Q1605.82 1868.98 1600.38 1867.8 L1598.34 1867.32 Q1592.9 1866.18 1590.48 1863.82 Q1588.06 1861.43 1588.06 1857.3 Q1588.06 1852.27 1591.63 1849.53 Q1595.19 1846.79 1601.75 1846.79 Q1604.99 1846.79 1607.86 1847.27 Q1610.72 1847.75 1613.14 1848.7 Z" fill="#000000" fill-rule="nonzero" fill-opacity="1" /><path clip-path="url(#clip390)" d="M1623.45 1833.84 L1628.55 1833.84 Q1633.32 1841.35 1635.68 1848.54 Q1638.06 1855.74 1638.06 1862.84 Q1638.06 1869.96 1635.68 1877.19 Q1633.32 1884.41 1628.55 1891.89 L1623.45 1891.89 Q1627.69 1884.61 1629.76 1877.41 Q1631.86 1870.19 1631.86 1862.84 Q1631.86 1855.48 1629.76 1848.32 Q1627.69 1841.16 1623.45 1833.84 Z" fill="#000000" fill-rule="nonzero" fill-opacity="1" /><polyline clip-path="url(#clip390)" style="stroke:#000000; stroke-linecap:round; stroke-linejoin:round; stroke-width:4; stroke-opacity:1; fill:none" points="255.816,1734.12 255.816,47.2441 "/>
<polyline clip-path="url(#clip390)" style="stroke:#000000; stroke-linecap:round; stroke-linejoin:round; stroke-width:4; stroke-opacity:1; fill:none" points="255.816,1686.38 274.714,1686.38 "/>
<polyline clip-path="url(#clip390)" style="stroke:#000000; stroke-linecap:round; stroke-linejoin:round; stroke-width:4; stroke-opacity:1; fill:none" points="255.816,1284.51 274.714,1284.51 "/>
<polyline clip-path="url(#clip390)" style="stroke:#000000; stroke-linecap:round; stroke-linejoin:round; stroke-width:4; stroke-opacity:1; fill:none" points="255.816,882.643 274.714,882.643 "/>
<polyline clip-path="url(#clip390)" style="stroke:#000000; stroke-linecap:round; stroke-linejoin:round; stroke-width:4; stroke-opacity:1; fill:none" points="255.816,480.777 274.714,480.777 "/>
<polyline clip-path="url(#clip390)" style="stroke:#000000; stroke-linecap:round; stroke-linejoin:round; stroke-width:4; stroke-opacity:1; fill:none" points="255.816,78.9111 274.714,78.9111 "/>
<path clip-path="url(#clip390)" d="M128.159 1672.17 Q124.548 1672.17 122.719 1675.74 Q120.913 1679.28 120.913 1686.41 Q120.913 1693.52 122.719 1697.08 Q124.548 1700.62 128.159 1700.62 Q131.793 1700.62 133.599 1697.08 Q135.427 1693.52 135.427 1686.41 Q135.427 1679.28 133.599 1675.74 Q131.793 1672.17 128.159 1672.17 M128.159 1668.47 Q133.969 1668.47 137.025 1673.08 Q140.103 1677.66 140.103 1686.41 Q140.103 1695.14 137.025 1699.74 Q133.969 1704.33 128.159 1704.33 Q122.349 1704.33 119.27 1699.74 Q116.214 1695.14 116.214 1686.41 Q116.214 1677.66 119.27 1673.08 Q122.349 1668.47 128.159 1668.47 Z" fill="#000000" fill-rule="nonzero" fill-opacity="1" /><path clip-path="url(#clip390)" d="M148.321 1697.78 L153.205 1697.78 L153.205 1703.66 L148.321 1703.66 L148.321 1697.78 Z" fill="#000000" fill-rule="nonzero" fill-opacity="1" /><path clip-path="url(#clip390)" d="M173.39 1672.17 Q169.779 1672.17 167.95 1675.74 Q166.145 1679.28 166.145 1686.41 Q166.145 1693.52 167.95 1697.08 Q169.779 1700.62 173.39 1700.62 Q177.024 1700.62 178.83 1697.08 Q180.659 1693.52 180.659 1686.41 Q180.659 1679.28 178.83 1675.74 Q177.024 1672.17 173.39 1672.17 M173.39 1668.47 Q179.2 1668.47 182.256 1673.08 Q185.334 1677.66 185.334 1686.41 Q185.334 1695.14 182.256 1699.74 Q179.2 1704.33 173.39 1704.33 Q167.58 1704.33 164.501 1699.74 Q161.446 1695.14 161.446 1686.41 Q161.446 1677.66 164.501 1673.08 Q167.58 1668.47 173.39 1668.47 Z" fill="#000000" fill-rule="nonzero" fill-opacity="1" /><path clip-path="url(#clip390)" d="M203.552 1672.17 Q199.941 1672.17 198.112 1675.74 Q196.307 1679.28 196.307 1686.41 Q196.307 1693.52 198.112 1697.08 Q199.941 1700.62 203.552 1700.62 Q207.186 1700.62 208.992 1697.08 Q210.82 1693.52 210.82 1686.41 Q210.82 1679.28 208.992 1675.74 Q207.186 1672.17 203.552 1672.17 M203.552 1668.47 Q209.362 1668.47 212.418 1673.08 Q215.496 1677.66 215.496 1686.41 Q215.496 1695.14 212.418 1699.74 Q209.362 1704.33 203.552 1704.33 Q197.742 1704.33 194.663 1699.74 Q191.608 1695.14 191.608 1686.41 Q191.608 1677.66 194.663 1673.08 Q197.742 1668.47 203.552 1668.47 Z" fill="#000000" fill-rule="nonzero" fill-opacity="1" /><path clip-path="url(#clip390)" d="M129.154 1270.31 Q125.543 1270.31 123.714 1273.87 Q121.909 1277.41 121.909 1284.54 Q121.909 1291.65 123.714 1295.22 Q125.543 1298.76 129.154 1298.76 Q132.788 1298.76 134.594 1295.22 Q136.423 1291.65 136.423 1284.54 Q136.423 1277.41 134.594 1273.87 Q132.788 1270.31 129.154 1270.31 M129.154 1266.6 Q134.964 1266.6 138.02 1271.21 Q141.099 1275.79 141.099 1284.54 Q141.099 1293.27 138.02 1297.88 Q134.964 1302.46 129.154 1302.46 Q123.344 1302.46 120.265 1297.88 Q117.21 1293.27 117.21 1284.54 Q117.21 1275.79 120.265 1271.21 Q123.344 1266.6 129.154 1266.6 Z" fill="#000000" fill-rule="nonzero" fill-opacity="1" /><path clip-path="url(#clip390)" d="M149.316 1295.91 L154.2 1295.91 L154.2 1301.79 L149.316 1301.79 L149.316 1295.91 Z" fill="#000000" fill-rule="nonzero" fill-opacity="1" /><path clip-path="url(#clip390)" d="M168.413 1297.85 L184.733 1297.85 L184.733 1301.79 L162.788 1301.79 L162.788 1297.85 Q165.45 1295.1 170.034 1290.47 Q174.64 1285.82 175.821 1284.47 Q178.066 1281.95 178.946 1280.22 Q179.848 1278.46 179.848 1276.77 Q179.848 1274.01 177.904 1272.28 Q175.983 1270.54 172.881 1270.54 Q170.682 1270.54 168.228 1271.3 Q165.798 1272.07 163.02 1273.62 L163.02 1268.9 Q165.844 1267.76 168.297 1267.18 Q170.751 1266.6 172.788 1266.6 Q178.159 1266.6 181.353 1269.29 Q184.547 1271.97 184.547 1276.47 Q184.547 1278.59 183.737 1280.52 Q182.95 1282.41 180.844 1285.01 Q180.265 1285.68 177.163 1288.9 Q174.061 1292.09 168.413 1297.85 Z" fill="#000000" fill-rule="nonzero" fill-opacity="1" /><path clip-path="url(#clip390)" d="M194.594 1267.23 L212.95 1267.23 L212.95 1271.16 L198.876 1271.16 L198.876 1279.64 Q199.895 1279.29 200.913 1279.13 Q201.932 1278.94 202.95 1278.94 Q208.737 1278.94 212.117 1282.11 Q215.496 1285.28 215.496 1290.7 Q215.496 1296.28 212.024 1299.38 Q208.552 1302.46 202.233 1302.46 Q200.057 1302.46 197.788 1302.09 Q195.543 1301.72 193.135 1300.98 L193.135 1296.28 Q195.219 1297.41 197.441 1297.97 Q199.663 1298.53 202.14 1298.53 Q206.145 1298.53 208.482 1296.42 Q210.82 1294.31 210.82 1290.7 Q210.82 1287.09 208.482 1284.98 Q206.145 1282.88 202.14 1282.88 Q200.265 1282.88 198.39 1283.29 Q196.538 1283.71 194.594 1284.59 L194.594 1267.23 Z" fill="#000000" fill-rule="nonzero" fill-opacity="1" /><path clip-path="url(#clip390)" d="M128.159 868.442 Q124.548 868.442 122.719 872.007 Q120.913 875.548 120.913 882.678 Q120.913 889.784 122.719 893.349 Q124.548 896.891 128.159 896.891 Q131.793 896.891 133.599 893.349 Q135.427 889.784 135.427 882.678 Q135.427 875.548 133.599 872.007 Q131.793 868.442 128.159 868.442 M128.159 864.738 Q133.969 864.738 137.025 869.345 Q140.103 873.928 140.103 882.678 Q140.103 891.405 137.025 896.011 Q133.969 900.595 128.159 900.595 Q122.349 900.595 119.27 896.011 Q116.214 891.405 116.214 882.678 Q116.214 873.928 119.27 869.345 Q122.349 864.738 128.159 864.738 Z" fill="#000000" fill-rule="nonzero" fill-opacity="1" /><path clip-path="url(#clip390)" d="M148.321 894.044 L153.205 894.044 L153.205 899.923 L148.321 899.923 L148.321 894.044 Z" fill="#000000" fill-rule="nonzero" fill-opacity="1" /><path clip-path="url(#clip390)" d="M163.436 865.363 L181.793 865.363 L181.793 869.298 L167.719 869.298 L167.719 877.771 Q168.737 877.423 169.756 877.261 Q170.774 877.076 171.793 877.076 Q177.58 877.076 180.959 880.247 Q184.339 883.419 184.339 888.835 Q184.339 894.414 180.867 897.516 Q177.395 900.595 171.075 900.595 Q168.899 900.595 166.631 900.224 Q164.385 899.854 161.978 899.113 L161.978 894.414 Q164.061 895.548 166.284 896.104 Q168.506 896.659 170.983 896.659 Q174.987 896.659 177.325 894.553 Q179.663 892.446 179.663 888.835 Q179.663 885.224 177.325 883.118 Q174.987 881.011 170.983 881.011 Q169.108 881.011 167.233 881.428 Q165.381 881.845 163.436 882.724 L163.436 865.363 Z" fill="#000000" fill-rule="nonzero" fill-opacity="1" /><path clip-path="url(#clip390)" d="M203.552 868.442 Q199.941 868.442 198.112 872.007 Q196.307 875.548 196.307 882.678 Q196.307 889.784 198.112 893.349 Q199.941 896.891 203.552 896.891 Q207.186 896.891 208.992 893.349 Q210.82 889.784 210.82 882.678 Q210.82 875.548 208.992 872.007 Q207.186 868.442 203.552 868.442 M203.552 864.738 Q209.362 864.738 212.418 869.345 Q215.496 873.928 215.496 882.678 Q215.496 891.405 212.418 896.011 Q209.362 900.595 203.552 900.595 Q197.742 900.595 194.663 896.011 Q191.608 891.405 191.608 882.678 Q191.608 873.928 194.663 869.345 Q197.742 864.738 203.552 864.738 Z" fill="#000000" fill-rule="nonzero" fill-opacity="1" /><path clip-path="url(#clip390)" d="M129.154 466.576 Q125.543 466.576 123.714 470.141 Q121.909 473.682 121.909 480.812 Q121.909 487.918 123.714 491.483 Q125.543 495.025 129.154 495.025 Q132.788 495.025 134.594 491.483 Q136.423 487.918 136.423 480.812 Q136.423 473.682 134.594 470.141 Q132.788 466.576 129.154 466.576 M129.154 462.872 Q134.964 462.872 138.02 467.479 Q141.099 472.062 141.099 480.812 Q141.099 489.539 138.02 494.145 Q134.964 498.728 129.154 498.728 Q123.344 498.728 120.265 494.145 Q117.21 489.539 117.21 480.812 Q117.21 472.062 120.265 467.479 Q123.344 462.872 129.154 462.872 Z" fill="#000000" fill-rule="nonzero" fill-opacity="1" /><path clip-path="url(#clip390)" d="M149.316 492.178 L154.2 492.178 L154.2 498.057 L149.316 498.057 L149.316 492.178 Z" fill="#000000" fill-rule="nonzero" fill-opacity="1" /><path clip-path="url(#clip390)" d="M163.205 463.497 L185.427 463.497 L185.427 465.488 L172.881 498.057 L167.997 498.057 L179.802 467.432 L163.205 467.432 L163.205 463.497 Z" fill="#000000" fill-rule="nonzero" fill-opacity="1" /><path clip-path="url(#clip390)" d="M194.594 463.497 L212.95 463.497 L212.95 467.432 L198.876 467.432 L198.876 475.905 Q199.895 475.557 200.913 475.395 Q201.932 475.21 202.95 475.21 Q208.737 475.21 212.117 478.381 Q215.496 481.553 215.496 486.969 Q215.496 492.548 212.024 495.65 Q208.552 498.728 202.233 498.728 Q200.057 498.728 197.788 498.358 Q195.543 497.988 193.135 497.247 L193.135 492.548 Q195.219 493.682 197.441 494.238 Q199.663 494.793 202.14 494.793 Q206.145 494.793 208.482 492.687 Q210.82 490.58 210.82 486.969 Q210.82 483.358 208.482 481.252 Q206.145 479.145 202.14 479.145 Q200.265 479.145 198.39 479.562 Q196.538 479.979 194.594 480.858 L194.594 463.497 Z" fill="#000000" fill-rule="nonzero" fill-opacity="1" /><path clip-path="url(#clip390)" d="M118.969 92.256 L126.608 92.256 L126.608 65.8904 L118.298 67.557 L118.298 63.2978 L126.562 61.6311 L131.238 61.6311 L131.238 92.256 L138.876 92.256 L138.876 96.1911 L118.969 96.1911 L118.969 92.256 Z" fill="#000000" fill-rule="nonzero" fill-opacity="1" /><path clip-path="url(#clip390)" d="M148.321 90.3115 L153.205 90.3115 L153.205 96.1911 L148.321 96.1911 L148.321 90.3115 Z" fill="#000000" fill-rule="nonzero" fill-opacity="1" /><path clip-path="url(#clip390)" d="M173.39 64.7098 Q169.779 64.7098 167.95 68.2746 Q166.145 71.8163 166.145 78.9459 Q166.145 86.0523 167.95 89.6171 Q169.779 93.1587 173.39 93.1587 Q177.024 93.1587 178.83 89.6171 Q180.659 86.0523 180.659 78.9459 Q180.659 71.8163 178.83 68.2746 Q177.024 64.7098 173.39 64.7098 M173.39 61.0061 Q179.2 61.0061 182.256 65.6126 Q185.334 70.1959 185.334 78.9459 Q185.334 87.6727 182.256 92.2791 Q179.2 96.8624 173.39 96.8624 Q167.58 96.8624 164.501 92.2791 Q161.446 87.6727 161.446 78.9459 Q161.446 70.1959 164.501 65.6126 Q167.58 61.0061 173.39 61.0061 Z" fill="#000000" fill-rule="nonzero" fill-opacity="1" /><path clip-path="url(#clip390)" d="M203.552 64.7098 Q199.941 64.7098 198.112 68.2746 Q196.307 71.8163 196.307 78.9459 Q196.307 86.0523 198.112 89.6171 Q199.941 93.1587 203.552 93.1587 Q207.186 93.1587 208.992 89.6171 Q210.82 86.0523 210.82 78.9459 Q210.82 71.8163 208.992 68.2746 Q207.186 64.7098 203.552 64.7098 M203.552 61.0061 Q209.362 61.0061 212.418 65.6126 Q215.496 70.1959 215.496 78.9459 Q215.496 87.6727 212.418 92.2791 Q209.362 96.8624 203.552 96.8624 Q197.742 96.8624 194.663 92.2791 Q191.608 87.6727 191.608 78.9459 Q191.608 70.1959 194.663 65.6126 Q197.742 61.0061 203.552 61.0061 Z" fill="#000000" fill-rule="nonzero" fill-opacity="1" /><path clip-path="url(#clip390)" d="M14.1184 1240.38 L14.1184 1213.07 L19.5293 1213.07 L19.5293 1233.95 L33.5338 1233.95 L33.5338 1215.11 L38.9447 1215.11 L38.9447 1233.95 L61.6384 1233.95 L61.6384 1240.38 L14.1184 1240.38 Z" fill="#000000" fill-rule="nonzero" fill-opacity="1" /><path clip-path="url(#clip390)" d="M31.465 1187.23 Q30.8921 1188.21 30.6375 1189.39 Q30.351 1190.54 30.351 1191.94 Q30.351 1196.9 33.5975 1199.58 Q36.8122 1202.22 42.8596 1202.22 L61.6384 1202.22 L61.6384 1208.11 L25.9905 1208.11 L25.9905 1202.22 L31.5287 1202.22 Q28.2821 1200.37 26.7225 1197.41 Q25.1311 1194.45 25.1311 1190.22 Q25.1311 1189.61 25.2266 1188.88 Q25.2903 1188.15 25.4494 1187.26 L31.465 1187.23 Z" fill="#000000" fill-rule="nonzero" fill-opacity="1" /><path clip-path="url(#clip390)" d="M43.719 1164.88 Q43.719 1171.98 45.3422 1174.72 Q46.9655 1177.46 50.8804 1177.46 Q53.9996 1177.46 55.8457 1175.42 Q57.6599 1173.35 57.6599 1169.82 Q57.6599 1164.95 54.2224 1162.02 Q50.7531 1159.06 45.0239 1159.06 L43.719 1159.06 L43.719 1164.88 M41.3 1153.2 L61.6384 1153.2 L61.6384 1159.06 L56.2276 1159.06 Q59.4741 1161.06 61.0337 1164.06 Q62.5615 1167.05 62.5615 1171.38 Q62.5615 1176.85 59.5059 1180.1 Q56.4186 1183.31 51.2623 1183.31 Q45.2467 1183.31 42.1912 1179.3 Q39.1357 1175.26 39.1357 1167.27 L39.1357 1159.06 L38.5628 1159.06 Q34.5205 1159.06 32.3244 1161.73 Q30.0964 1164.37 30.0964 1169.18 Q30.0964 1172.24 30.8284 1175.13 Q31.5605 1178.03 33.0246 1180.7 L27.6137 1180.7 Q26.3724 1177.49 25.7677 1174.46 Q25.1311 1171.44 25.1311 1168.58 Q25.1311 1160.84 29.1415 1157.02 Q33.1519 1153.2 41.3 1153.2 Z" fill="#000000" fill-rule="nonzero" fill-opacity="1" /><path clip-path="url(#clip390)" d="M27.3591 1115.49 L32.8336 1115.49 Q31.465 1117.97 30.7966 1120.48 Q30.0964 1122.97 30.0964 1125.51 Q30.0964 1131.21 33.7248 1134.36 Q37.3214 1137.51 43.8463 1137.51 Q50.3711 1137.51 53.9996 1134.36 Q57.5962 1131.21 57.5962 1125.51 Q57.5962 1122.97 56.9278 1120.48 Q56.2276 1117.97 54.859 1115.49 L60.2698 1115.49 Q61.4156 1117.94 61.9886 1120.58 Q62.5615 1123.19 62.5615 1126.15 Q62.5615 1134.2 57.5007 1138.94 Q52.44 1143.69 43.8463 1143.69 Q35.1253 1143.69 30.1282 1138.91 Q25.1311 1134.11 25.1311 1125.77 Q25.1311 1123.06 25.704 1120.48 Q26.2451 1117.9 27.3591 1115.49 Z" fill="#000000" fill-rule="nonzero" fill-opacity="1" /><path clip-path="url(#clip390)" d="M15.869 1099.51 L25.9905 1099.51 L25.9905 1087.44 L30.542 1087.44 L30.542 1099.51 L49.8937 1099.51 Q54.2542 1099.51 55.4955 1098.33 Q56.7368 1097.12 56.7368 1093.46 L56.7368 1087.44 L61.6384 1087.44 L61.6384 1093.46 Q61.6384 1100.24 59.124 1102.82 Q56.5777 1105.4 49.8937 1105.4 L30.542 1105.4 L30.542 1109.69 L25.9905 1109.69 L25.9905 1105.4 L15.869 1105.4 L15.869 1099.51 Z" fill="#000000" fill-rule="nonzero" fill-opacity="1" /><path clip-path="url(#clip390)" d="M25.9905 1079.74 L25.9905 1073.89 L61.6384 1073.89 L61.6384 1079.74 L25.9905 1079.74 M12.1132 1079.74 L12.1132 1073.89 L19.5293 1073.89 L19.5293 1079.74 L12.1132 1079.74 Z" fill="#000000" fill-rule="nonzero" fill-opacity="1" /><path clip-path="url(#clip390)" d="M30.0964 1047.82 Q30.0964 1052.53 33.7885 1055.27 Q37.4488 1058 43.8463 1058 Q50.2438 1058 53.9359 1055.3 Q57.5962 1052.56 57.5962 1047.82 Q57.5962 1043.14 53.9041 1040.4 Q50.212 1037.66 43.8463 1037.66 Q37.5124 1037.66 33.8203 1040.4 Q30.0964 1043.14 30.0964 1047.82 M25.1311 1047.82 Q25.1311 1040.18 30.0964 1035.82 Q35.0616 1031.46 43.8463 1031.46 Q52.5991 1031.46 57.5962 1035.82 Q62.5615 1040.18 62.5615 1047.82 Q62.5615 1055.49 57.5962 1059.85 Q52.5991 1064.18 43.8463 1064.18 Q35.0616 1064.18 30.0964 1059.85 Q25.1311 1055.49 25.1311 1047.82 Z" fill="#000000" fill-rule="nonzero" fill-opacity="1" /><path clip-path="url(#clip390)" d="M40.1224 992.118 L61.6384 992.118 L61.6384 997.975 L40.3133 997.975 Q35.2526 997.975 32.7381 999.948 Q30.2237 1001.92 30.2237 1005.87 Q30.2237 1010.61 33.2474 1013.35 Q36.2711 1016.08 41.491 1016.08 L61.6384 1016.08 L61.6384 1021.97 L25.9905 1021.97 L25.9905 1016.08 L31.5287 1016.08 Q28.314 1013.98 26.7225 1011.15 Q25.1311 1008.29 25.1311 1004.56 Q25.1311 998.42 28.9505 995.269 Q32.7381 992.118 40.1224 992.118 Z" fill="#000000" fill-rule="nonzero" fill-opacity="1" /><path clip-path="url(#clip390)" d="M30.0964 945.903 Q30.0964 950.614 33.7885 953.351 Q37.4488 956.088 43.8463 956.088 Q50.2438 956.088 53.9359 953.383 Q57.5962 950.645 57.5962 945.903 Q57.5962 941.224 53.9041 938.487 Q50.212 935.75 43.8463 935.75 Q37.5124 935.75 33.8203 938.487 Q30.0964 941.224 30.0964 945.903 M25.1311 945.903 Q25.1311 938.264 30.0964 933.904 Q35.0616 929.543 43.8463 929.543 Q52.5991 929.543 57.5962 933.904 Q62.5615 938.264 62.5615 945.903 Q62.5615 953.574 57.5962 957.934 Q52.5991 962.263 43.8463 962.263 Q35.0616 962.263 30.0964 957.934 Q25.1311 953.574 25.1311 945.903 Z" fill="#000000" fill-rule="nonzero" fill-opacity="1" /><path clip-path="url(#clip390)" d="M12.1132 901.789 L16.983 901.789 L16.983 907.391 Q16.983 910.542 18.2562 911.783 Q19.5293 912.992 22.8395 912.992 L25.9905 912.992 L25.9905 903.348 L30.542 903.348 L30.542 912.992 L61.6384 912.992 L61.6384 918.881 L30.542 918.881 L30.542 924.482 L25.9905 924.482 L25.9905 918.881 L23.5079 918.881 Q17.5559 918.881 14.8505 916.112 Q12.1132 913.342 12.1132 907.327 L12.1132 901.789 Z" fill="#000000" fill-rule="nonzero" fill-opacity="1" /><path clip-path="url(#clip390)" d="M56.2912 870.501 L75.1974 870.501 L75.1974 876.39 L25.9905 876.39 L25.9905 870.501 L31.4013 870.501 Q28.2185 868.655 26.6907 865.854 Q25.1311 863.022 25.1311 859.107 Q25.1311 852.614 30.2873 848.571 Q35.4436 844.497 43.8463 844.497 Q52.249 844.497 57.4052 848.571 Q62.5615 852.614 62.5615 859.107 Q62.5615 863.022 61.0337 865.854 Q59.4741 868.655 56.2912 870.501 M43.8463 850.577 Q37.3851 850.577 33.7248 853.25 Q30.0327 855.892 30.0327 860.539 Q30.0327 865.186 33.7248 867.859 Q37.3851 870.501 43.8463 870.501 Q50.3075 870.501 53.9996 867.859 Q57.6599 865.186 57.6599 860.539 Q57.6599 855.892 53.9996 853.25 Q50.3075 850.577 43.8463 850.577 Z" fill="#000000" fill-rule="nonzero" fill-opacity="1" /><path clip-path="url(#clip390)" d="M30.0964 820.976 Q30.0964 825.687 33.7885 828.424 Q37.4488 831.161 43.8463 831.161 Q50.2438 831.161 53.9359 828.456 Q57.5962 825.719 57.5962 820.976 Q57.5962 816.297 53.9041 813.56 Q50.212 810.823 43.8463 810.823 Q37.5124 810.823 33.8203 813.56 Q30.0964 816.297 30.0964 820.976 M25.1311 820.976 Q25.1311 813.337 30.0964 808.977 Q35.0616 804.616 43.8463 804.616 Q52.5991 804.616 57.5962 808.977 Q62.5615 813.337 62.5615 820.976 Q62.5615 828.647 57.5962 833.007 Q52.5991 837.336 43.8463 837.336 Q35.0616 837.336 30.0964 833.007 Q25.1311 828.647 25.1311 820.976 Z" fill="#000000" fill-rule="nonzero" fill-opacity="1" /><path clip-path="url(#clip390)" d="M56.2912 789.243 L75.1974 789.243 L75.1974 795.131 L25.9905 795.131 L25.9905 789.243 L31.4013 789.243 Q28.2185 787.397 26.6907 784.596 Q25.1311 781.763 25.1311 777.848 Q25.1311 771.355 30.2873 767.313 Q35.4436 763.239 43.8463 763.239 Q52.249 763.239 57.4052 767.313 Q62.5615 771.355 62.5615 777.848 Q62.5615 781.763 61.0337 784.596 Q59.4741 787.397 56.2912 789.243 M43.8463 769.318 Q37.3851 769.318 33.7248 771.992 Q30.0327 774.634 30.0327 779.281 Q30.0327 783.928 33.7248 786.601 Q37.3851 789.243 43.8463 789.243 Q50.3075 789.243 53.9996 786.601 Q57.6599 783.928 57.6599 779.281 Q57.6599 774.634 53.9996 771.992 Q50.3075 769.318 43.8463 769.318 Z" fill="#000000" fill-rule="nonzero" fill-opacity="1" /><path clip-path="url(#clip390)" d="M47.5702 754.136 L25.9905 754.136 L25.9905 748.28 L47.3474 748.28 Q52.4082 748.28 54.9545 746.306 Q57.4689 744.333 57.4689 740.386 Q57.4689 735.644 54.4452 732.907 Q51.4215 730.137 46.2016 730.137 L25.9905 730.137 L25.9905 724.281 L61.6384 724.281 L61.6384 730.137 L56.1639 730.137 Q59.4104 732.27 61.0019 735.103 Q62.5615 737.904 62.5615 741.628 Q62.5615 747.77 58.742 750.953 Q54.9226 754.136 47.5702 754.136 M25.1311 739.4 L25.1311 739.4 Z" fill="#000000" fill-rule="nonzero" fill-opacity="1" /><path clip-path="url(#clip390)" d="M12.1132 712.218 L12.1132 706.362 L61.6384 706.362 L61.6384 712.218 L12.1132 712.218 Z" fill="#000000" fill-rule="nonzero" fill-opacity="1" /><path clip-path="url(#clip390)" d="M43.719 677.907 Q43.719 685.005 45.3422 687.742 Q46.9655 690.479 50.8804 690.479 Q53.9996 690.479 55.8457 688.442 Q57.6599 686.373 57.6599 682.84 Q57.6599 677.97 54.2224 675.042 Q50.7531 672.082 45.0239 672.082 L43.719 672.082 L43.719 677.907 M41.3 666.226 L61.6384 666.226 L61.6384 672.082 L56.2276 672.082 Q59.4741 674.087 61.0337 677.079 Q62.5615 680.071 62.5615 684.4 Q62.5615 689.874 59.5059 693.121 Q56.4186 696.336 51.2623 696.336 Q45.2467 696.336 42.1912 692.325 Q39.1357 688.283 39.1357 680.294 L39.1357 672.082 L38.5628 672.082 Q34.5205 672.082 32.3244 674.756 Q30.0964 677.398 30.0964 682.204 Q30.0964 685.259 30.8284 688.156 Q31.5605 691.052 33.0246 693.726 L27.6137 693.726 Q26.3724 690.511 25.7677 687.487 Q25.1311 684.463 25.1311 681.599 Q25.1311 673.865 29.1415 670.045 Q33.1519 666.226 41.3 666.226 Z" fill="#000000" fill-rule="nonzero" fill-opacity="1" /><path clip-path="url(#clip390)" d="M15.869 648.37 L25.9905 648.37 L25.9905 636.307 L30.542 636.307 L30.542 648.37 L49.8937 648.37 Q54.2542 648.37 55.4955 647.192 Q56.7368 645.983 56.7368 642.322 L56.7368 636.307 L61.6384 636.307 L61.6384 642.322 Q61.6384 649.102 59.124 651.68 Q56.5777 654.258 49.8937 654.258 L30.542 654.258 L30.542 658.555 L25.9905 658.555 L25.9905 654.258 L15.869 654.258 L15.869 648.37 Z" fill="#000000" fill-rule="nonzero" fill-opacity="1" /><path clip-path="url(#clip390)" d="M25.9905 628.604 L25.9905 622.748 L61.6384 622.748 L61.6384 628.604 L25.9905 628.604 M12.1132 628.604 L12.1132 622.748 L19.5293 622.748 L19.5293 628.604 L12.1132 628.604 Z" fill="#000000" fill-rule="nonzero" fill-opacity="1" /><path clip-path="url(#clip390)" d="M30.0964 596.68 Q30.0964 601.391 33.7885 604.128 Q37.4488 606.866 43.8463 606.866 Q50.2438 606.866 53.9359 604.16 Q57.5962 601.423 57.5962 596.68 Q57.5962 592.002 53.9041 589.264 Q50.212 586.527 43.8463 586.527 Q37.5124 586.527 33.8203 589.264 Q30.0964 592.002 30.0964 596.68 M25.1311 596.68 Q25.1311 589.042 30.0964 584.681 Q35.0616 580.321 43.8463 580.321 Q52.5991 580.321 57.5962 584.681 Q62.5615 589.042 62.5615 596.68 Q62.5615 604.351 57.5962 608.712 Q52.5991 613.04 43.8463 613.04 Q35.0616 613.04 30.0964 608.712 Q25.1311 604.351 25.1311 596.68 Z" fill="#000000" fill-rule="nonzero" fill-opacity="1" /><path clip-path="url(#clip390)" d="M40.1224 540.98 L61.6384 540.98 L61.6384 546.837 L40.3133 546.837 Q35.2526 546.837 32.7381 548.81 Q30.2237 550.784 30.2237 554.73 Q30.2237 559.473 33.2474 562.21 Q36.2711 564.947 41.491 564.947 L61.6384 564.947 L61.6384 570.836 L25.9905 570.836 L25.9905 564.947 L31.5287 564.947 Q28.314 562.847 26.7225 560.014 Q25.1311 557.149 25.1311 553.425 Q25.1311 547.282 28.9505 544.131 Q32.7381 540.98 40.1224 540.98 Z" fill="#000000" fill-rule="nonzero" fill-opacity="1" /><polyline clip-path="url(#clip392)" style="stroke:#009af9; stroke-linecap:round; stroke-linejoin:round; stroke-width:6; stroke-opacity:1; fill:none" points="255.816,94.9858 258.201,95.7911 260.586,96.6159 262.971,97.4608 265.356,98.326 267.741,99.2121 270.126,100.12 272.511,101.049 274.896,102 277.281,102.975 279.666,103.973 282.051,104.994 284.436,106.04 286.821,107.11 289.205,108.207 291.59,109.329 293.975,110.477 296.36,111.653 298.745,112.856 301.13,114.087 303.515,115.347 305.9,116.637 308.285,117.956 310.67,119.306 313.055,120.688 315.44,122.101 317.825,123.547 320.21,125.026 322.595,126.538 324.98,128.086 327.365,129.668 329.749,131.286 332.134,132.941 334.519,134.633 336.904,136.363 339.289,138.131 341.674,139.939 344.059,141.787 346.444,143.676 348.829,145.606 351.214,147.578 353.599,149.594 355.984,151.653 358.369,153.757 360.754,155.906 363.139,158.101 365.524,160.342 367.908,162.632 370.293,164.969 372.678,167.356 375.063,169.792 377.448,172.28 379.833,174.818 382.218,177.409 384.603,180.052 386.988,182.749 389.373,185.501 391.758,188.307 394.143,191.169 396.528,194.088 398.913,197.065 401.298,200.099 403.683,203.192 406.068,206.344 408.452,209.557 410.837,212.83 413.222,216.164 415.607,219.561 417.992,223.02 420.377,226.543 422.762,230.129 425.147,233.78 427.532,237.496 429.917,241.278 432.302,245.126 434.687,249.041 437.072,253.022 439.457,257.071 441.842,261.187 444.227,265.372 446.611,269.625 448.996,273.946 451.381,278.337 453.766,282.797 456.151,287.326 458.536,291.925 460.921,296.594 463.306,301.332 465.691,306.14 468.076,311.019 470.461,315.967 472.846,320.985 475.231,326.072 477.616,331.229 480.001,336.455 482.386,341.75 484.771,347.114 487.155,352.546 489.54,358.045 491.925,363.612 494.31,369.245 496.695,374.945 499.08,380.71 501.465,386.539 503.85,392.433 506.235,398.389 508.62,404.408 511.005,410.489 513.39,416.63 515.775,422.83 518.16,429.088 520.545,435.404 522.93,441.776 525.314,448.203 527.699,454.683 530.084,461.216 532.469,467.799 534.854,474.432 537.239,481.113 539.624,487.841 542.009,494.614 544.394,501.431 546.779,508.29 549.164,515.19 551.549,522.129 553.934,529.104 556.319,536.114 558.704,543.156 561.089,550.228 563.474,557.33 565.858,564.458 568.243,571.61 570.628,578.786 573.013,585.982 575.398,593.197 577.783,600.428 580.168,607.675 582.553,614.935 584.938,622.205 587.323,629.485 589.708,636.771 592.093,644.063 594.478,651.358 596.863,658.654 599.248,665.95 601.633,673.242 604.017,680.53 606.402,687.812 608.787,695.085 611.172,702.347 613.557,709.598 615.942,716.834 618.327,724.053 620.712,731.255 623.097,738.436 625.482,745.595 627.867,752.73 630.252,759.84 632.637,766.921 635.022,773.973 637.407,780.995 639.792,787.985 642.177,794.941 644.561,801.863 646.946,808.747 649.331,815.594 651.716,822.402 654.101,829.169 656.486,835.894 658.871,842.576 661.256,849.214 663.641,855.806 666.026,862.352 668.411,868.851 670.796,875.301 673.181,881.702 675.566,888.052 677.951,894.351 680.336,900.599 682.721,906.793 685.105,912.934 687.49,919.021 689.875,925.053 692.26,931.03 694.645,936.95 697.03,942.815 699.415,948.622 701.8,954.373 704.185,960.065 706.57,965.7 708.955,971.277 711.34,976.795 713.725,982.255 716.11,987.656 718.495,992.998 720.88,998.281 723.264,1003.51 725.649,1008.67 728.034,1013.78 730.419,1018.82 732.804,1023.81 735.189,1028.74 737.574,1033.61 739.959,1038.42 742.344,1043.17 744.729,1047.86 747.114,1052.5 749.499,1057.07 751.884,1061.59 754.269,1066.06 756.654,1070.46 759.039,1074.81 761.424,1079.11 763.808,1083.35 766.193,1087.53 768.578,1091.66 770.963,1095.73 773.348,1099.75 775.733,1103.72 778.118,1107.63 780.503,1111.49 782.888,1115.29 785.273,1119.05 787.658,1122.75 790.043,1126.4 792.428,1130 794.813,1133.55 797.198,1137.04 799.583,1140.49 801.967,1143.89 804.352,1147.24 806.737,1150.55 809.122,1153.8 811.507,1157.01 813.892,1160.17 816.277,1163.29 818.662,1166.36 821.047,1169.39 823.432,1172.37 825.817,1175.31 828.202,1178.2 830.587,1181.05 832.972,1183.86 835.357,1186.63 837.742,1189.36 840.127,1192.04 842.511,1194.69 844.896,1197.3 847.281,1199.87 849.666,1202.4 852.051,1204.89 854.436,1207.34 856.821,1209.76 859.206,1212.14 861.591,1214.48 863.976,1216.79 866.361,1219.07 868.746,1221.31 871.131,1223.51 873.516,1225.68 875.901,1227.82 878.286,1229.93 880.67,1232 883.055,1234.05 885.44,1236.06 887.825,1238.04 890.21,1239.99 892.595,1241.91 894.98,1243.8 897.365,1245.66 899.75,1247.5 902.135,1249.3 904.52,1251.08 906.905,1252.83 909.29,1254.56 911.675,1256.25 914.06,1257.92 916.445,1259.57 918.83,1261.19 921.214,1262.78 923.599,1264.35 925.984,1265.9 928.369,1267.42 930.754,1268.92 933.139,1270.4 935.524,1271.85 937.909,1273.28 940.294,1274.69 942.679,1276.07 945.064,1277.44 947.449,1278.78 949.834,1280.1 952.219,1281.4 954.604,1282.69 956.989,1283.95 959.373,1285.19 961.758,1286.41 964.143,1287.62 966.528,1288.81 968.913,1289.97 971.298,1291.12 973.683,1292.25 976.068,1293.37 978.453,1294.47 980.838,1295.55 983.223,1296.61 985.608,1297.66 987.993,1298.69 990.378,1299.7 992.763,1300.7 995.148,1301.68 997.533,1302.65 999.917,1303.6 1002.3,1304.54 1004.69,1305.47 1007.07,1306.38 1009.46,1307.27 1011.84,1308.15 1014.23,1309.02 1016.61,1309.88 1019,1310.72 1021.38,1311.55 1023.77,1312.36 1026.15,1313.17 1028.54,1313.96 1030.92,1314.74 1033.31,1315.5 1035.69,1316.26 1038.08,1317 1040.46,1317.73 1042.85,1318.45 1045.23,1319.16 1047.62,1319.86 1050,1320.55 1052.39,1321.22 1054.77,1321.89 1057.16,1322.55 1059.54,1323.19 1061.93,1323.83 1064.31,1324.46 1066.7,1325.08 1069.08,1325.68 1071.47,1326.28 1073.85,1326.87 1076.24,1327.45 1078.62,1328.02 1081.01,1328.59 1083.39,1329.14 1085.78,1329.69 1088.16,1330.22 1090.55,1330.75 1092.93,1331.27 1095.32,1331.79 1097.7,1332.29 1100.08,1332.79 1102.47,1333.28 1104.85,1333.77 1107.24,1334.24 1109.62,1334.71 1112.01,1335.17 1114.39,1335.62 1116.78,1336.07 1119.16,1336.51 1121.55,1336.95 1123.93,1337.37 1126.32,1337.79 1128.7,1338.21 1131.09,1338.61 1133.47,1339.01 1135.86,1339.41 1138.24,1339.8 1140.63,1340.18 1143.01,1340.56 1145.4,1340.93 1147.78,1341.3 1150.17,1341.66 1152.55,1342.01 1154.94,1342.36 1157.32,1342.7 1159.71,1343.04 1162.09,1343.37 1164.48,1343.7 1166.86,1344.02 1169.25,1344.34 1171.63,1344.66 1174.02,1344.96 1176.4,1345.27 1178.79,1345.57 1181.17,1345.86 1183.56,1346.15 1185.94,1346.44 1188.33,1346.72 1190.71,1347 1193.1,1347.27 1195.48,1347.54 1197.87,1347.8 1200.25,1348.06 1202.64,1348.32 1205.02,1348.57 1207.41,1348.82 1209.79,1349.07 1212.18,1349.31 1214.56,1349.55 1216.95,1349.78 1219.33,1350.01 1221.72,1350.24 1224.1,1350.46 1226.49,1350.69 1228.87,1350.9 1231.26,1351.12 1233.64,1351.33 1236.03,1351.54 1238.41,1351.74 1240.8,1351.94 1243.18,1352.14 1245.57,1352.34 1247.95,1352.53 1250.34,1352.72 1252.72,1352.91 1255.11,1353.09 1257.49,1353.27 1259.88,1353.45 1262.26,1353.63 1264.65,1353.8 1267.03,1353.97 1269.42,1354.14 1271.8,1354.31 1274.19,1354.47 1276.57,1354.63 1278.96,1354.79 1281.34,1354.95 1283.73,1355.1 1286.11,1355.25 1288.5,1355.4 1290.88,1355.55 1293.27,1355.69 1295.65,1355.83 1298.03,1355.97 1300.42,1356.11 1302.8,1356.25 1305.19,1356.38 1307.57,1356.51 1309.96,1356.64 1312.34,1356.77 1314.73,1356.9 1317.11,1357.02 1319.5,1357.14 1321.88,1357.26 1324.27,1357.38 1326.65,1357.5 1329.04,1357.61 1331.42,1357.73 1333.81,1357.84 1336.19,1357.95 1338.58,1358.06 1340.96,1358.16 1343.35,1358.27 1345.73,1358.37 1348.12,1358.48 1350.5,1358.58 1352.89,1358.67 1355.27,1358.77 1357.66,1358.87 1360.04,1358.96 1362.43,1359.06 1364.81,1359.15 1367.2,1359.24 1369.58,1359.33 1371.97,1359.42 1374.35,1359.5 1376.74,1359.59 1379.12,1359.67 1381.51,1359.75 1383.89,1359.84 1386.28,1359.92 1388.66,1360 1391.05,1360.07 1393.43,1360.15 1395.82,1360.23 1398.2,1360.3 1400.59,1360.37 1402.97,1360.45 1405.36,1360.52 1407.74,1360.59 1410.13,1360.66 1412.51,1360.72 1414.9,1360.79 1417.28,1360.86 1419.67,1360.92 1422.05,1360.98 1424.44,1361.05 1426.82,1361.11 1429.21,1361.17 1431.59,1361.23 1433.98,1361.29 1436.36,1361.35 1438.75,1361.41 1441.13,1361.46 1443.52,1361.52 1445.9,1361.57 1448.29,1361.63 1450.67,1361.68 1453.06,1361.73 1455.44,1361.78 1457.83,1361.84 1460.21,1361.89 1462.6,1361.94 1464.98,1361.98 1467.37,1362.03 1469.75,1362.08 1472.14,1362.13 1474.52,1362.17 1476.91,1362.22 1479.29,1362.26 1481.68,1362.3 1484.06,1362.35 1486.45,1362.39 1488.83,1362.43 1491.22,1362.47 1493.6,1362.51 1495.98,1362.55 1498.37,1362.59 1500.75,1362.63 1503.14,1362.67 1505.52,1362.71 1507.91,1362.75 1510.29,1362.78 1512.68,1362.82 1515.06,1362.85 1517.45,1362.89 1519.83,1362.92 1522.22,1362.96 1524.6,1362.99 1526.99,1363.02 1529.37,1363.06 1531.76,1363.09 1534.14,1363.12 1536.53,1363.15 1538.91,1363.18 1541.3,1363.21 1543.68,1363.24 1546.07,1363.27 1548.45,1363.3 1550.84,1363.33 1553.22,1363.36 1555.61,1363.38 1557.99,1363.41 1560.38,1363.44 1562.76,1363.46 1565.15,1363.49 1567.53,1363.52 1569.92,1363.54 1572.3,1363.57 1574.69,1363.59 1577.07,1363.61 1579.46,1363.64 1581.84,1363.66 1584.23,1363.68 1586.61,1363.71 1589,1363.73 1591.38,1363.75 1593.77,1363.77 1596.15,1363.79 1598.54,1363.81 1600.92,1363.83 1603.31,1363.86 1605.69,1363.88 1608.08,1363.9 1610.46,1363.91 1612.85,1363.93 1615.23,1363.95 1617.62,1363.97 1620,1363.99 1622.39,1364.01 1624.77,1364.03 1627.16,1364.04 1629.54,1364.06 1631.93,1364.08 1634.31,1364.09 1636.7,1364.11 1639.08,1364.13 1641.47,1364.14 1643.85,1364.16 1646.24,1364.17 1648.62,1364.19 1651.01,1364.2 1653.39,1364.22 1655.78,1364.23 1658.16,1364.25 1660.55,1364.26 1662.93,1364.28 1665.32,1364.29 1667.7,1364.3 1670.09,1364.32 1672.47,1364.33 1674.86,1364.34 1677.24,1364.36 1679.63,1364.37 1682.01,1364.38 1684.4,1364.39 1686.78,1364.41 1689.17,1364.42 1691.55,1364.43 1693.93,1364.44 1696.32,1364.45 1698.7,1364.46 1701.09,1364.47 1703.47,1364.49 1705.86,1364.5 1708.24,1364.51 1710.63,1364.52 1713.01,1364.53 1715.4,1364.54 1717.78,1364.55 1720.17,1364.56 1722.55,1364.57 1724.94,1364.58 1727.32,1364.59 1729.71,1364.59 1732.09,1364.6 1734.48,1364.61 1736.86,1364.62 1739.25,1364.63 1741.63,1364.64 1744.02,1364.65 1746.4,1364.65 1748.79,1364.66 1751.17,1364.67 1753.56,1364.68 1755.94,1364.69 1758.33,1364.69 1760.71,1364.7 1763.1,1364.71 1765.48,1364.72 1767.87,1364.72 1770.25,1364.73 1772.64,1364.74 1775.02,1364.74 1777.41,1364.75 1779.79,1364.76 1782.18,1364.76 1784.56,1364.77 1786.95,1364.78 1789.33,1364.78 1791.72,1364.79 1794.1,1364.8 1796.49,1364.8 1798.87,1364.81 1801.26,1364.81 1803.64,1364.82 1806.03,1364.83 1808.41,1364.83 1810.8,1364.84 1813.18,1364.84 1815.57,1364.85 1817.95,1364.85 1820.34,1364.86 1822.72,1364.86 1825.11,1364.87 1827.49,1364.87 1829.88,1364.88 1832.26,1364.88 1834.65,1364.89 1837.03,1364.89 1839.42,1364.9 1841.8,1364.9 1844.19,1364.91 1846.57,1364.91 1848.96,1364.91 1851.34,1364.92 1853.73,1364.92 1856.11,1364.93 1858.5,1364.93 1860.88,1364.94 1863.27,1364.94 1865.65,1364.94 1868.04,1364.95 1870.42,1364.95 1872.81,1364.95 1875.19,1364.96 1877.58,1364.96 1879.96,1364.97 1882.35,1364.97 1884.73,1364.97 1887.11,1364.98 1889.5,1364.98 1891.88,1364.98 1894.27,1364.99 1896.65,1364.99 1899.04,1364.99 1901.42,1365 1903.81,1365 1906.19,1365 1908.58,1365 1910.96,1365.01 1913.35,1365.01 1915.73,1365.01 1918.12,1365.02 1920.5,1365.02 1922.89,1365.02 1925.27,1365.02 1927.66,1365.03 1930.04,1365.03 1932.43,1365.03 1934.81,1365.03 1937.2,1365.04 1939.58,1365.04 1941.97,1365.04 1944.35,1365.04 1946.74,1365.05 1949.12,1365.05 1951.51,1365.05 1953.89,1365.05 1956.28,1365.06 1958.66,1365.06 1961.05,1365.06 1963.43,1365.06 1965.82,1365.06 1968.2,1365.07 1970.59,1365.07 1972.97,1365.07 1975.36,1365.07 1977.74,1365.07 1980.13,1365.08 1982.51,1365.08 1984.9,1365.08 1987.28,1365.08 1989.67,1365.08 1992.05,1365.09 1994.44,1365.09 1996.82,1365.09 1999.21,1365.09 2001.59,1365.09 2003.98,1365.09 2006.36,1365.1 2008.75,1365.1 2011.13,1365.1 2013.52,1365.1 2015.9,1365.1 2018.29,1365.1 2020.67,1365.1 2023.06,1365.11 2025.44,1365.11 2027.83,1365.11 2030.21,1365.11 2032.6,1365.11 2034.98,1365.11 2037.37,1365.11 2039.75,1365.12 2042.14,1365.12 2044.52,1365.12 2046.91,1365.12 2049.29,1365.12 2051.68,1365.12 2054.06,1365.12 2056.45,1365.12 2058.83,1365.13 2061.22,1365.13 2063.6,1365.13 2065.99,1365.13 2068.37,1365.13 2070.76,1365.13 2073.14,1365.13 2075.53,1365.13 2077.91,1365.13 2080.3,1365.13 2082.68,1365.14 2085.06,1365.14 2087.45,1365.14 2089.83,1365.14 2092.22,1365.14 2094.6,1365.14 2096.99,1365.14 2099.37,1365.14 2101.76,1365.14 2104.14,1365.14 2106.53,1365.14 2108.91,1365.15 2111.3,1365.15 2113.68,1365.15 2116.07,1365.15 2118.45,1365.15 2120.84,1365.15 2123.22,1365.15 2125.61,1365.15 2127.99,1365.15 2130.38,1365.15 2132.76,1365.15 2135.15,1365.15 2137.53,1365.16 2139.92,1365.16 2142.3,1365.16 2144.69,1365.16 2147.07,1365.16 2149.46,1365.16 2151.84,1365.16 2154.23,1365.16 2156.61,1365.16 2159,1365.16 2161.38,1365.16 2163.77,1365.16 2166.15,1365.16 2168.54,1365.16 2170.92,1365.16 2173.31,1365.16 2175.69,1365.16 2178.08,1365.17 2180.46,1365.17 2182.85,1365.17 2185.23,1365.17 2187.62,1365.17 2190,1365.17 2192.39,1365.17 2194.77,1365.17 2197.16,1365.17 2199.54,1365.17 2201.93,1365.17 2204.31,1365.17 2206.7,1365.17 2209.08,1365.17 2211.47,1365.17 2213.85,1365.17 2216.24,1365.17 2218.62,1365.17 2221.01,1365.17 2223.39,1365.17 2225.78,1365.17 2228.16,1365.18 2230.55,1365.18 2232.93,1365.18 2235.32,1365.18 2237.7,1365.18 2240.09,1365.18 2242.47,1365.18 2244.86,1365.18 2247.24,1365.18 2249.63,1365.18 2252.01,1365.18 2254.4,1365.18 2256.78,1365.18 2259.17,1365.18 2261.55,1365.18 2263.94,1365.18 2266.32,1365.18 2268.71,1365.18 2271.09,1365.18 2273.48,1365.18 2275.86,1365.18 2278.25,1365.18 2280.63,1365.18 2283.01,1365.18 2285.4,1365.18 2287.78,1365.18 2290.17,1365.18 2292.55,1365.18 2294.94,1365.18 2297.32,1365.18 2299.71,1365.18 2302.09,1365.19 2304.48,1365.19 2306.86,1365.19 2309.25,1365.19 2311.63,1365.19 2314.02,1365.19 2316.4,1365.19 2318.79,1365.19 2321.17,1365.19 2323.56,1365.19 2325.94,1365.19 2328.33,1365.19 2330.71,1365.19 2333.1,1365.19 2335.48,1365.19 2337.87,1365.19 2340.25,1365.19 2342.64,1365.19 2345.02,1365.19 2347.41,1365.19 2349.79,1365.19 2352.18,1365.19 2354.56,1365.19 2356.95,1365.19 2359.33,1365.19 2361.72,1365.19 2364.1,1365.19 2366.49,1365.19 2368.87,1365.19 2371.26,1365.19 2373.64,1365.19 2376.03,1365.19 2378.41,1365.19 2380.8,1365.19 2383.18,1365.19 2385.57,1365.19 2387.95,1365.19 2390.34,1365.19 2392.72,1365.19 2395.11,1365.19 2397.49,1365.19 2399.88,1365.19 2402.26,1365.19 2404.65,1365.19 2407.03,1365.19 2409.42,1365.19 2411.8,1365.19 2414.19,1365.19 2416.57,1365.19 2418.96,1365.19 2421.34,1365.19 2423.73,1365.19 2426.11,1365.19 2428.5,1365.19 2430.88,1365.19 2433.27,1365.19 2435.65,1365.19 2438.04,1365.19 2440.42,1365.19 2442.81,1365.19 2445.19,1365.19 2447.58,1365.19 2449.96,1365.2 2452.35,1365.2 2454.73,1365.2 2457.12,1365.2 2459.5,1365.2 2461.89,1365.2 2464.27,1365.2 2466.66,1365.2 2469.04,1365.2 2471.43,1365.2 2473.81,1365.2 2476.2,1365.2 2478.58,1365.2 2480.96,1365.2 2483.35,1365.2 2485.73,1365.2 2488.12,1365.2 2490.5,1365.2 2492.89,1365.2 2495.27,1365.2 2497.66,1365.2 2500.04,1365.2 2502.43,1365.2 2504.81,1365.2 2507.2,1365.2 2509.58,1365.2 2511.97,1365.2 2514.35,1365.2 2516.74,1365.2 2519.12,1365.2 2521.51,1365.2 2523.89,1365.2 2526.28,1365.2 2528.66,1365.2 2531.05,1365.2 2533.43,1365.2 2535.82,1365.2 2538.2,1365.2 2540.59,1365.2 2542.97,1365.2 2545.36,1365.2 2547.74,1365.2 2550.13,1365.2 2552.51,1365.2 2554.9,1365.2 2557.28,1365.2 2559.67,1365.2 2562.05,1365.2 2564.44,1365.2 2566.82,1365.2 2569.21,1365.2 2571.59,1365.2 2573.98,1365.2 2576.36,1365.2 2578.75,1365.2 2581.13,1365.2 2583.52,1365.2 2585.9,1365.2 2588.29,1365.2 2590.67,1365.2 2593.06,1365.2 2595.44,1365.2 2597.83,1365.2 2600.21,1365.2 2602.6,1365.2 2604.98,1365.2 2607.37,1365.2 2609.75,1365.2 2612.14,1365.2 2614.52,1365.2 2616.91,1365.2 2619.29,1365.2 2621.68,1365.2 2624.06,1365.2 2626.45,1365.2 2628.83,1365.2 2631.22,1365.2 2633.6,1365.2 2635.99,1365.2 2638.37,1365.2 2640.76,1365.2 "/>
<polyline clip-path="url(#clip392)" style="stroke:#e26f46; stroke-linecap:round; stroke-linejoin:round; stroke-width:6; stroke-opacity:1; fill:none" points="255.816,1670.3 258.201,1669.9 260.586,1669.49 262.971,1669.08 265.356,1668.65 267.741,1668.21 270.126,1667.76 272.511,1667.31 274.896,1666.84 277.281,1666.36 279.666,1665.87 282.051,1665.36 284.436,1664.85 286.821,1664.32 289.205,1663.78 291.59,1663.23 293.975,1662.67 296.36,1662.1 298.745,1661.51 301.13,1660.9 303.515,1660.29 305.9,1659.66 308.285,1659.02 310.67,1658.36 313.055,1657.69 315.44,1657 317.825,1656.3 320.21,1655.58 322.595,1654.84 324.98,1654.09 327.365,1653.33 329.749,1652.55 332.134,1651.75 334.519,1650.93 336.904,1650.1 339.289,1649.25 341.674,1648.38 344.059,1647.49 346.444,1646.59 348.829,1645.66 351.214,1644.72 353.599,1643.76 355.984,1642.78 358.369,1641.77 360.754,1640.75 363.139,1639.71 365.524,1638.65 367.908,1637.57 370.293,1636.46 372.678,1635.34 375.063,1634.19 377.448,1633.02 379.833,1631.83 382.218,1630.62 384.603,1629.39 386.988,1628.13 389.373,1626.85 391.758,1625.55 394.143,1624.22 396.528,1622.88 398.913,1621.5 401.298,1620.11 403.683,1618.69 406.068,1617.25 408.452,1615.78 410.837,1614.29 413.222,1612.78 415.607,1611.24 417.992,1609.68 420.377,1608.09 422.762,1606.48 425.147,1604.85 427.532,1603.19 429.917,1601.51 432.302,1599.81 434.687,1598.08 437.072,1596.33 439.457,1594.55 441.842,1592.75 444.227,1590.93 446.611,1589.09 448.996,1587.22 451.381,1585.33 453.766,1583.42 456.151,1581.49 458.536,1579.54 460.921,1577.57 463.306,1575.57 465.691,1573.56 468.076,1571.53 470.461,1569.48 472.846,1567.41 475.231,1565.32 477.616,1563.21 480.001,1561.09 482.386,1558.96 484.771,1556.81 487.155,1554.64 489.54,1552.46 491.925,1550.27 494.31,1548.07 496.695,1545.85 499.08,1543.63 501.465,1541.4 503.85,1539.16 506.235,1536.91 508.62,1534.65 511.005,1532.4 513.39,1530.13 515.775,1527.87 518.16,1525.6 520.545,1523.33 522.93,1521.06 525.314,1518.8 527.699,1516.54 530.084,1514.28 532.469,1512.02 534.854,1509.78 537.239,1507.54 539.624,1505.31 542.009,1503.09 544.394,1500.88 546.779,1498.69 549.164,1496.51 551.549,1494.35 553.934,1492.2 556.319,1490.07 558.704,1487.97 561.089,1485.88 563.474,1483.82 565.858,1481.78 568.243,1479.77 570.628,1477.78 573.013,1475.83 575.398,1473.9 577.783,1472 580.168,1470.14 582.553,1468.31 584.938,1466.51 587.323,1464.75 589.708,1463.02 592.093,1461.34 594.478,1459.69 596.863,1458.08 599.248,1456.51 601.633,1454.98 604.017,1453.49 606.402,1452.05 608.787,1450.66 611.172,1449.3 613.557,1448 615.942,1446.73 618.327,1445.52 620.712,1444.36 623.097,1443.24 625.482,1442.17 627.867,1441.16 630.252,1440.19 632.637,1439.27 635.022,1438.41 637.407,1437.6 639.792,1436.84 642.177,1436.13 644.561,1435.47 646.946,1434.87 649.331,1434.32 651.716,1433.82 654.101,1433.37 656.486,1432.98 658.871,1432.64 661.256,1432.35 663.641,1432.11 666.026,1431.92 668.411,1431.78 670.796,1431.7 673.181,1431.66 675.566,1431.68 677.951,1431.75 680.336,1431.86 682.721,1432.03 685.105,1432.24 687.49,1432.51 689.875,1432.82 692.26,1433.17 694.645,1433.58 697.03,1434.03 699.415,1434.52 701.8,1435.06 704.185,1435.64 706.57,1436.27 708.955,1436.94 711.34,1437.65 713.725,1438.4 716.11,1439.19 718.495,1440.01 720.88,1440.88 723.264,1441.78 725.649,1442.72 728.034,1443.69 730.419,1444.7 732.804,1445.74 735.189,1446.81 737.574,1447.92 739.959,1449.06 742.344,1450.22 744.729,1451.42 747.114,1452.64 749.499,1453.89 751.884,1455.16 754.269,1456.46 756.654,1457.79 759.039,1459.13 761.424,1460.5 763.808,1461.89 766.193,1463.3 768.578,1464.74 770.963,1466.18 773.348,1467.65 775.733,1469.14 778.118,1470.64 780.503,1472.15 782.888,1473.69 785.273,1475.23 787.658,1476.79 790.043,1478.36 792.428,1479.94 794.813,1481.54 797.198,1483.14 799.583,1484.75 801.967,1486.37 804.352,1488 806.737,1489.64 809.122,1491.28 811.507,1492.93 813.892,1494.58 816.277,1496.24 818.662,1497.9 821.047,1499.57 823.432,1501.24 825.817,1502.91 828.202,1504.58 830.587,1506.25 832.972,1507.92 835.357,1509.6 837.742,1511.27 840.127,1512.94 842.511,1514.6 844.896,1516.27 847.281,1517.93 849.666,1519.59 852.051,1521.25 854.436,1522.9 856.821,1524.55 859.206,1526.19 861.591,1527.83 863.976,1529.46 866.361,1531.09 868.746,1532.71 871.131,1534.33 873.516,1535.94 875.901,1537.54 878.286,1539.13 880.67,1540.72 883.055,1542.3 885.44,1543.87 887.825,1545.43 890.21,1546.98 892.595,1548.53 894.98,1550.07 897.365,1551.59 899.75,1553.11 902.135,1554.62 904.52,1556.12 906.905,1557.61 909.29,1559.08 911.675,1560.55 914.06,1562.01 916.445,1563.46 918.83,1564.89 921.214,1566.32 923.599,1567.73 925.984,1569.13 928.369,1570.53 930.754,1571.91 933.139,1573.28 935.524,1574.64 937.909,1575.98 940.294,1577.32 942.679,1578.64 945.064,1579.95 947.449,1581.25 949.834,1582.54 952.219,1583.82 954.604,1585.09 956.989,1586.34 959.373,1587.59 961.758,1588.82 964.143,1590.04 966.528,1591.24 968.913,1592.44 971.298,1593.62 973.683,1594.8 976.068,1595.96 978.453,1597.11 980.838,1598.24 983.223,1599.37 985.608,1600.48 987.993,1601.59 990.378,1602.68 992.763,1603.76 995.148,1604.83 997.533,1605.88 999.917,1606.93 1002.3,1607.97 1004.69,1608.99 1007.07,1610 1009.46,1611 1011.84,1611.99 1014.23,1612.97 1016.61,1613.94 1019,1614.9 1021.38,1615.85 1023.77,1616.78 1026.15,1617.71 1028.54,1618.62 1030.92,1619.53 1033.31,1620.42 1035.69,1621.3 1038.08,1622.17 1040.46,1623.04 1042.85,1623.89 1045.23,1624.73 1047.62,1625.56 1050,1626.39 1052.39,1627.2 1054.77,1628 1057.16,1628.79 1059.54,1629.57 1061.93,1630.35 1064.31,1631.11 1066.7,1631.87 1069.08,1632.61 1071.47,1633.35 1073.85,1634.07 1076.24,1634.79 1078.62,1635.5 1081.01,1636.2 1083.39,1636.89 1085.78,1637.58 1088.16,1638.25 1090.55,1638.92 1092.93,1639.58 1095.32,1640.23 1097.7,1640.87 1100.08,1641.5 1102.47,1642.13 1104.85,1642.74 1107.24,1643.35 1109.62,1643.95 1112.01,1644.55 1114.39,1645.13 1116.78,1645.71 1119.16,1646.28 1121.55,1646.84 1123.93,1647.4 1126.32,1647.95 1128.7,1648.49 1131.09,1649.02 1133.47,1649.55 1135.86,1650.07 1138.24,1650.58 1140.63,1651.09 1143.01,1651.59 1145.4,1652.08 1147.78,1652.57 1150.17,1653.05 1152.55,1653.52 1154.94,1653.99 1157.32,1654.45 1159.71,1654.9 1162.09,1655.35 1164.48,1655.79 1166.86,1656.23 1169.25,1656.65 1171.63,1657.08 1174.02,1657.5 1176.4,1657.91 1178.79,1658.31 1181.17,1658.72 1183.56,1659.11 1185.94,1659.5 1188.33,1659.88 1190.71,1660.26 1193.1,1660.64 1195.48,1661.01 1197.87,1661.37 1200.25,1661.73 1202.64,1662.08 1205.02,1662.43 1207.41,1662.77 1209.79,1663.11 1212.18,1663.45 1214.56,1663.78 1216.95,1664.1 1219.33,1664.42 1221.72,1664.74 1224.1,1665.05 1226.49,1665.36 1228.87,1665.66 1231.26,1665.96 1233.64,1666.26 1236.03,1666.55 1238.41,1666.84 1240.8,1667.12 1243.18,1667.4 1245.57,1667.68 1247.95,1667.95 1250.34,1668.21 1252.72,1668.48 1255.11,1668.74 1257.49,1668.99 1259.88,1669.25 1262.26,1669.5 1264.65,1669.74 1267.03,1669.98 1269.42,1670.22 1271.8,1670.46 1274.19,1670.69 1276.57,1670.92 1278.96,1671.14 1281.34,1671.37 1283.73,1671.59 1286.11,1671.8 1288.5,1672.01 1290.88,1672.22 1293.27,1672.43 1295.65,1672.63 1298.03,1672.83 1300.42,1673.03 1302.8,1673.23 1305.19,1673.42 1307.57,1673.61 1309.96,1673.8 1312.34,1673.98 1314.73,1674.16 1317.11,1674.34 1319.5,1674.52 1321.88,1674.69 1324.27,1674.86 1326.65,1675.03 1329.04,1675.2 1331.42,1675.36 1333.81,1675.52 1336.19,1675.68 1338.58,1675.84 1340.96,1675.99 1343.35,1676.14 1345.73,1676.29 1348.12,1676.44 1350.5,1676.59 1352.89,1676.73 1355.27,1676.87 1357.66,1677.01 1360.04,1677.15 1362.43,1677.29 1364.81,1677.42 1367.2,1677.55 1369.58,1677.68 1371.97,1677.81 1374.35,1677.94 1376.74,1678.06 1379.12,1678.18 1381.51,1678.3 1383.89,1678.42 1386.28,1678.54 1388.66,1678.66 1391.05,1678.77 1393.43,1678.88 1395.82,1678.99 1398.2,1679.1 1400.59,1679.21 1402.97,1679.32 1405.36,1679.42 1407.74,1679.52 1410.13,1679.62 1412.51,1679.72 1414.9,1679.82 1417.28,1679.92 1419.67,1680.01 1422.05,1680.11 1424.44,1680.2 1426.82,1680.29 1429.21,1680.38 1431.59,1680.47 1433.98,1680.56 1436.36,1680.64 1438.75,1680.73 1441.13,1680.81 1443.52,1680.89 1445.9,1680.97 1448.29,1681.05 1450.67,1681.13 1453.06,1681.21 1455.44,1681.29 1457.83,1681.36 1460.21,1681.44 1462.6,1681.51 1464.98,1681.58 1467.37,1681.65 1469.75,1681.72 1472.14,1681.79 1474.52,1681.86 1476.91,1681.92 1479.29,1681.99 1481.68,1682.05 1484.06,1682.12 1486.45,1682.18 1488.83,1682.24 1491.22,1682.31 1493.6,1682.37 1495.98,1682.42 1498.37,1682.48 1500.75,1682.54 1503.14,1682.6 1505.52,1682.65 1507.91,1682.71 1510.29,1682.76 1512.68,1682.82 1515.06,1682.87 1517.45,1682.92 1519.83,1682.97 1522.22,1683.02 1524.6,1683.07 1526.99,1683.12 1529.37,1683.17 1531.76,1683.22 1534.14,1683.27 1536.53,1683.31 1538.91,1683.36 1541.3,1683.4 1543.68,1683.45 1546.07,1683.49 1548.45,1683.53 1550.84,1683.57 1553.22,1683.62 1555.61,1683.66 1557.99,1683.7 1560.38,1683.74 1562.76,1683.78 1565.15,1683.81 1567.53,1683.85 1569.92,1683.89 1572.3,1683.93 1574.69,1683.96 1577.07,1684 1579.46,1684.03 1581.84,1684.07 1584.23,1684.1 1586.61,1684.14 1589,1684.17 1591.38,1684.2 1593.77,1684.24 1596.15,1684.27 1598.54,1684.3 1600.92,1684.33 1603.31,1684.36 1605.69,1684.39 1608.08,1684.42 1610.46,1684.45 1612.85,1684.48 1615.23,1684.5 1617.62,1684.53 1620,1684.56 1622.39,1684.59 1624.77,1684.61 1627.16,1684.64 1629.54,1684.67 1631.93,1684.69 1634.31,1684.72 1636.7,1684.74 1639.08,1684.76 1641.47,1684.79 1643.85,1684.81 1646.24,1684.84 1648.62,1684.86 1651.01,1684.88 1653.39,1684.9 1655.78,1684.93 1658.16,1684.95 1660.55,1684.97 1662.93,1684.99 1665.32,1685.01 1667.7,1685.03 1670.09,1685.05 1672.47,1685.07 1674.86,1685.09 1677.24,1685.11 1679.63,1685.13 1682.01,1685.15 1684.4,1685.16 1686.78,1685.18 1689.17,1685.2 1691.55,1685.22 1693.93,1685.23 1696.32,1685.25 1698.7,1685.27 1701.09,1685.28 1703.47,1685.3 1705.86,1685.32 1708.24,1685.33 1710.63,1685.35 1713.01,1685.36 1715.4,1685.38 1717.78,1685.39 1720.17,1685.41 1722.55,1685.42 1724.94,1685.44 1727.32,1685.45 1729.71,1685.46 1732.09,1685.48 1734.48,1685.49 1736.86,1685.5 1739.25,1685.52 1741.63,1685.53 1744.02,1685.54 1746.4,1685.55 1748.79,1685.57 1751.17,1685.58 1753.56,1685.59 1755.94,1685.6 1758.33,1685.61 1760.71,1685.63 1763.1,1685.64 1765.48,1685.65 1767.87,1685.66 1770.25,1685.67 1772.64,1685.68 1775.02,1685.69 1777.41,1685.7 1779.79,1685.71 1782.18,1685.72 1784.56,1685.73 1786.95,1685.74 1789.33,1685.75 1791.72,1685.76 1794.1,1685.77 1796.49,1685.78 1798.87,1685.79 1801.26,1685.79 1803.64,1685.8 1806.03,1685.81 1808.41,1685.82 1810.8,1685.83 1813.18,1685.84 1815.57,1685.84 1817.95,1685.85 1820.34,1685.86 1822.72,1685.87 1825.11,1685.88 1827.49,1685.88 1829.88,1685.89 1832.26,1685.9 1834.65,1685.9 1837.03,1685.91 1839.42,1685.92 1841.8,1685.92 1844.19,1685.93 1846.57,1685.94 1848.96,1685.94 1851.34,1685.95 1853.73,1685.96 1856.11,1685.96 1858.5,1685.97 1860.88,1685.98 1863.27,1685.98 1865.65,1685.99 1868.04,1685.99 1870.42,1686 1872.81,1686 1875.19,1686.01 1877.58,1686.02 1879.96,1686.02 1882.35,1686.03 1884.73,1686.03 1887.11,1686.04 1889.5,1686.04 1891.88,1686.05 1894.27,1686.05 1896.65,1686.06 1899.04,1686.06 1901.42,1686.07 1903.81,1686.07 1906.19,1686.07 1908.58,1686.08 1910.96,1686.08 1913.35,1686.09 1915.73,1686.09 1918.12,1686.1 1920.5,1686.1 1922.89,1686.1 1925.27,1686.11 1927.66,1686.11 1930.04,1686.12 1932.43,1686.12 1934.81,1686.12 1937.2,1686.13 1939.58,1686.13 1941.97,1686.14 1944.35,1686.14 1946.74,1686.14 1949.12,1686.15 1951.51,1686.15 1953.89,1686.15 1956.28,1686.16 1958.66,1686.16 1961.05,1686.16 1963.43,1686.17 1965.82,1686.17 1968.2,1686.17 1970.59,1686.17 1972.97,1686.18 1975.36,1686.18 1977.74,1686.18 1980.13,1686.19 1982.51,1686.19 1984.9,1686.19 1987.28,1686.19 1989.67,1686.2 1992.05,1686.2 1994.44,1686.2 1996.82,1686.21 1999.21,1686.21 2001.59,1686.21 2003.98,1686.21 2006.36,1686.22 2008.75,1686.22 2011.13,1686.22 2013.52,1686.22 2015.9,1686.22 2018.29,1686.23 2020.67,1686.23 2023.06,1686.23 2025.44,1686.23 2027.83,1686.24 2030.21,1686.24 2032.6,1686.24 2034.98,1686.24 2037.37,1686.24 2039.75,1686.25 2042.14,1686.25 2044.52,1686.25 2046.91,1686.25 2049.29,1686.25 2051.68,1686.25 2054.06,1686.26 2056.45,1686.26 2058.83,1686.26 2061.22,1686.26 2063.6,1686.26 2065.99,1686.27 2068.37,1686.27 2070.76,1686.27 2073.14,1686.27 2075.53,1686.27 2077.91,1686.27 2080.3,1686.27 2082.68,1686.28 2085.06,1686.28 2087.45,1686.28 2089.83,1686.28 2092.22,1686.28 2094.6,1686.28 2096.99,1686.28 2099.37,1686.29 2101.76,1686.29 2104.14,1686.29 2106.53,1686.29 2108.91,1686.29 2111.3,1686.29 2113.68,1686.29 2116.07,1686.3 2118.45,1686.3 2120.84,1686.3 2123.22,1686.3 2125.61,1686.3 2127.99,1686.3 2130.38,1686.3 2132.76,1686.3 2135.15,1686.3 2137.53,1686.31 2139.92,1686.31 2142.3,1686.31 2144.69,1686.31 2147.07,1686.31 2149.46,1686.31 2151.84,1686.31 2154.23,1686.31 2156.61,1686.31 2159,1686.31 2161.38,1686.32 2163.77,1686.32 2166.15,1686.32 2168.54,1686.32 2170.92,1686.32 2173.31,1686.32 2175.69,1686.32 2178.08,1686.32 2180.46,1686.32 2182.85,1686.32 2185.23,1686.32 2187.62,1686.32 2190,1686.32 2192.39,1686.33 2194.77,1686.33 2197.16,1686.33 2199.54,1686.33 2201.93,1686.33 2204.31,1686.33 2206.7,1686.33 2209.08,1686.33 2211.47,1686.33 2213.85,1686.33 2216.24,1686.33 2218.62,1686.33 2221.01,1686.33 2223.39,1686.33 2225.78,1686.34 2228.16,1686.34 2230.55,1686.34 2232.93,1686.34 2235.32,1686.34 2237.7,1686.34 2240.09,1686.34 2242.47,1686.34 2244.86,1686.34 2247.24,1686.34 2249.63,1686.34 2252.01,1686.34 2254.4,1686.34 2256.78,1686.34 2259.17,1686.34 2261.55,1686.34 2263.94,1686.34 2266.32,1686.34 2268.71,1686.34 2271.09,1686.34 2273.48,1686.35 2275.86,1686.35 2278.25,1686.35 2280.63,1686.35 2283.01,1686.35 2285.4,1686.35 2287.78,1686.35 2290.17,1686.35 2292.55,1686.35 2294.94,1686.35 2297.32,1686.35 2299.71,1686.35 2302.09,1686.35 2304.48,1686.35 2306.86,1686.35 2309.25,1686.35 2311.63,1686.35 2314.02,1686.35 2316.4,1686.35 2318.79,1686.35 2321.17,1686.35 2323.56,1686.35 2325.94,1686.35 2328.33,1686.35 2330.71,1686.35 2333.1,1686.35 2335.48,1686.36 2337.87,1686.36 2340.25,1686.36 2342.64,1686.36 2345.02,1686.36 2347.41,1686.36 2349.79,1686.36 2352.18,1686.36 2354.56,1686.36 2356.95,1686.36 2359.33,1686.36 2361.72,1686.36 2364.1,1686.36 2366.49,1686.36 2368.87,1686.36 2371.26,1686.36 2373.64,1686.36 2376.03,1686.36 2378.41,1686.36 2380.8,1686.36 2383.18,1686.36 2385.57,1686.36 2387.95,1686.36 2390.34,1686.36 2392.72,1686.36 2395.11,1686.36 2397.49,1686.36 2399.88,1686.36 2402.26,1686.36 2404.65,1686.36 2407.03,1686.36 2409.42,1686.36 2411.8,1686.36 2414.19,1686.36 2416.57,1686.36 2418.96,1686.36 2421.34,1686.36 2423.73,1686.36 2426.11,1686.36 2428.5,1686.36 2430.88,1686.36 2433.27,1686.36 2435.65,1686.36 2438.04,1686.36 2440.42,1686.36 2442.81,1686.36 2445.19,1686.37 2447.58,1686.37 2449.96,1686.37 2452.35,1686.37 2454.73,1686.37 2457.12,1686.37 2459.5,1686.37 2461.89,1686.37 2464.27,1686.37 2466.66,1686.37 2469.04,1686.37 2471.43,1686.37 2473.81,1686.37 2476.2,1686.37 2478.58,1686.37 2480.96,1686.37 2483.35,1686.37 2485.73,1686.37 2488.12,1686.37 2490.5,1686.37 2492.89,1686.37 2495.27,1686.37 2497.66,1686.37 2500.04,1686.37 2502.43,1686.37 2504.81,1686.37 2507.2,1686.37 2509.58,1686.37 2511.97,1686.37 2514.35,1686.37 2516.74,1686.37 2519.12,1686.37 2521.51,1686.37 2523.89,1686.37 2526.28,1686.37 2528.66,1686.37 2531.05,1686.37 2533.43,1686.37 2535.82,1686.37 2538.2,1686.37 2540.59,1686.37 2542.97,1686.37 2545.36,1686.37 2547.74,1686.37 2550.13,1686.37 2552.51,1686.37 2554.9,1686.37 2557.28,1686.37 2559.67,1686.37 2562.05,1686.37 2564.44,1686.37 2566.82,1686.37 2569.21,1686.37 2571.59,1686.37 2573.98,1686.37 2576.36,1686.37 2578.75,1686.37 2581.13,1686.37 2583.52,1686.37 2585.9,1686.37 2588.29,1686.37 2590.67,1686.37 2593.06,1686.37 2595.44,1686.37 2597.83,1686.37 2600.21,1686.37 2602.6,1686.37 2604.98,1686.37 2607.37,1686.37 2609.75,1686.37 2612.14,1686.37 2614.52,1686.37 2616.91,1686.37 2619.29,1686.37 2621.68,1686.37 2624.06,1686.37 2626.45,1686.37 2628.83,1686.37 2631.22,1686.37 2633.6,1686.37 2635.99,1686.37 2638.37,1686.37 2640.76,1686.37 "/>
<polyline clip-path="url(#clip392)" style="stroke:#3da44d; stroke-linecap:round; stroke-linejoin:round; stroke-width:6; stroke-opacity:1; fill:none" points="255.816,1686.38 258.201,1685.57 260.586,1684.75 262.971,1683.9 265.356,1683.04 267.741,1682.15 270.126,1681.24 272.511,1680.31 274.896,1679.36 277.281,1678.39 279.666,1677.39 282.051,1676.37 284.436,1675.32 286.821,1674.25 289.205,1673.15 291.59,1672.03 293.975,1670.88 296.36,1669.71 298.745,1668.51 301.13,1667.27 303.515,1666.01 305.9,1664.72 308.285,1663.4 310.67,1662.05 313.055,1660.67 315.44,1659.26 317.825,1657.81 320.21,1656.34 322.595,1654.82 324.98,1653.28 327.365,1651.69 329.749,1650.07 332.134,1648.42 334.519,1646.73 336.904,1645 339.289,1643.23 341.674,1641.42 344.059,1639.57 346.444,1637.69 348.829,1635.76 351.214,1633.78 353.599,1631.77 355.984,1629.71 358.369,1627.6 360.754,1625.46 363.139,1623.26 365.524,1621.02 367.908,1618.73 370.293,1616.39 372.678,1614.01 375.063,1611.57 377.448,1609.08 379.833,1606.54 382.218,1603.95 384.603,1601.31 386.988,1598.61 389.373,1595.86 391.758,1593.05 394.143,1590.19 396.528,1587.27 398.913,1584.3 401.298,1581.26 403.683,1578.17 406.068,1575.02 408.452,1571.8 410.837,1568.53 413.222,1565.2 415.607,1561.8 417.992,1558.34 420.377,1554.82 422.762,1551.23 425.147,1547.58 427.532,1543.86 429.917,1540.08 432.302,1536.23 434.687,1532.32 437.072,1528.34 439.457,1524.29 441.842,1520.17 444.227,1515.99 446.611,1511.74 448.996,1507.41 451.381,1503.02 453.766,1498.56 456.151,1494.03 458.536,1489.44 460.921,1484.77 463.306,1480.03 465.691,1475.22 468.076,1470.34 470.461,1465.39 472.846,1460.38 475.231,1455.29 477.616,1450.13 480.001,1444.91 482.386,1439.61 484.771,1434.25 487.155,1428.82 489.54,1423.32 491.925,1417.75 494.31,1412.12 496.695,1406.42 499.08,1400.65 501.465,1394.82 503.85,1388.93 506.235,1382.97 508.62,1376.95 511.005,1370.87 513.39,1364.73 515.775,1358.53 518.16,1352.27 520.545,1345.96 522.93,1339.59 525.314,1333.16 527.699,1326.68 530.084,1320.15 532.469,1313.56 534.854,1306.93 537.239,1300.25 539.624,1293.52 542.009,1286.75 544.394,1279.93 546.779,1273.07 549.164,1266.17 551.549,1259.23 553.934,1252.26 556.319,1245.25 558.704,1238.21 561.089,1231.13 563.474,1224.03 565.858,1216.9 568.243,1209.75 570.628,1202.58 573.013,1195.38 575.398,1188.16 577.783,1180.93 580.168,1173.69 582.553,1166.43 584.938,1159.16 587.323,1151.88 589.708,1144.59 592.093,1137.3 594.478,1130 596.863,1122.71 599.248,1115.41 601.633,1108.12 604.017,1100.83 606.402,1093.55 608.787,1086.28 611.172,1079.01 613.557,1071.76 615.942,1064.53 618.327,1057.31 620.712,1050.11 623.097,1042.93 625.482,1035.77 627.867,1028.63 630.252,1021.52 632.637,1014.44 635.022,1007.39 637.407,1000.37 639.792,993.376 642.177,986.42 644.561,979.499 646.946,972.614 649.331,965.767 651.716,958.959 654.101,952.192 656.486,945.467 658.871,938.785 661.256,932.147 663.641,925.555 666.026,919.009 668.411,912.51 670.796,906.06 673.181,899.659 675.566,893.309 677.951,887.01 680.336,880.763 682.721,874.568 685.105,868.427 687.49,862.34 689.875,856.308 692.26,850.332 694.645,844.411 697.03,838.546 699.415,832.739 701.8,826.988 704.185,821.296 706.57,815.661 708.955,810.084 711.34,804.566 713.725,799.106 716.11,793.705 718.495,788.363 720.88,783.08 723.264,777.855 725.649,772.689 728.034,767.584 730.419,762.537 732.804,757.551 735.189,752.623 737.574,747.755 739.959,742.945 742.344,738.193 744.729,733.5 747.114,728.865 749.499,724.287 751.884,719.767 754.269,715.303 756.654,710.897 759.039,706.546 761.424,702.252 763.808,698.014 766.193,693.831 768.578,689.703 770.963,685.629 773.348,681.61 775.733,677.645 778.118,673.734 780.503,669.875 782.888,666.069 785.273,662.316 787.658,658.614 790.043,654.964 792.428,651.364 794.813,647.816 797.198,644.317 799.583,640.868 801.967,637.468 804.352,634.116 806.737,630.813 809.122,627.557 811.507,624.348 813.892,621.186 816.277,618.07 818.662,614.999 821.047,611.974 823.432,608.992 825.817,606.055 828.202,603.16 830.587,600.309 832.972,597.499 835.357,594.73 837.742,592.003 840.127,589.316 842.511,586.67 844.896,584.063 847.281,581.495 849.666,578.965 852.051,576.474 854.436,574.02 856.821,571.603 859.206,569.223 861.591,566.878 863.976,564.569 866.361,562.295 868.746,560.055 871.131,557.85 873.516,555.678 875.901,553.539 878.286,551.432 880.67,549.358 883.055,547.315 885.44,545.303 887.825,543.322 890.21,541.372 892.595,539.451 894.98,537.56 897.365,535.697 899.75,533.864 902.135,532.058 904.52,530.28 906.905,528.53 909.29,526.806 911.675,525.109 914.06,523.438 916.445,521.793 918.83,520.173 921.214,518.578 923.599,517.008 925.984,515.462 928.369,513.94 930.754,512.441 933.139,510.966 935.524,509.513 937.909,508.083 940.294,506.675 942.679,505.289 945.064,503.924 947.449,502.581 949.834,501.258 952.219,499.956 954.604,498.674 956.989,497.412 959.373,496.17 961.758,494.946 964.143,493.742 966.528,492.556 968.913,491.388 971.298,490.239 973.683,489.107 976.068,487.993 978.453,486.896 980.838,485.815 983.223,484.752 985.608,483.705 987.993,482.675 990.378,481.66 992.763,480.661 995.148,479.678 997.533,478.709 999.917,477.756 1002.3,476.818 1004.69,475.894 1007.07,474.984 1009.46,474.088 1011.84,473.207 1014.23,472.339 1016.61,471.484 1019,470.643 1021.38,469.814 1023.77,468.998 1026.15,468.195 1028.54,467.405 1030.92,466.626 1033.31,465.86 1035.69,465.105 1038.08,464.362 1040.46,463.63 1042.85,462.91 1045.23,462.2 1047.62,461.502 1050,460.814 1052.39,460.137 1054.77,459.47 1057.16,458.813 1059.54,458.167 1061.93,457.53 1064.31,456.903 1066.7,456.286 1069.08,455.678 1071.47,455.08 1073.85,454.49 1076.24,453.91 1078.62,453.338 1081.01,452.775 1083.39,452.221 1085.78,451.675 1088.16,451.137 1090.55,450.608 1092.93,450.086 1095.32,449.573 1097.7,449.067 1100.08,448.569 1102.47,448.079 1104.85,447.596 1107.24,447.12 1109.62,446.652 1112.01,446.191 1114.39,445.737 1116.78,445.29 1119.16,444.849 1121.55,444.416 1123.93,443.989 1126.32,443.569 1128.7,443.155 1131.09,442.748 1133.47,442.346 1135.86,441.951 1138.24,441.563 1140.63,441.18 1143.01,440.803 1145.4,440.431 1147.78,440.066 1150.17,439.706 1152.55,439.351 1154.94,439.003 1157.32,438.659 1159.71,438.321 1162.09,437.987 1164.48,437.659 1166.86,437.336 1169.25,437.018 1171.63,436.705 1174.02,436.397 1176.4,436.093 1178.79,435.794 1181.17,435.499 1183.56,435.209 1185.94,434.924 1188.33,434.643 1190.71,434.365 1193.1,434.093 1195.48,433.824 1197.87,433.559 1200.25,433.299 1202.64,433.042 1205.02,432.789 1207.41,432.54 1209.79,432.294 1212.18,432.053 1214.56,431.814 1216.95,431.58 1219.33,431.349 1221.72,431.121 1224.1,430.897 1226.49,430.676 1228.87,430.458 1231.26,430.244 1233.64,430.032 1236.03,429.824 1238.41,429.619 1240.8,429.417 1243.18,429.218 1245.57,429.023 1247.95,428.83 1250.34,428.64 1252.72,428.452 1255.11,428.268 1257.49,428.086 1259.88,427.908 1262.26,427.731 1264.65,427.558 1267.03,427.387 1269.42,427.219 1271.8,427.053 1274.19,426.89 1276.57,426.729 1278.96,426.571 1281.34,426.415 1283.73,426.261 1286.11,426.11 1288.5,425.961 1290.88,425.814 1293.27,425.67 1295.65,425.528 1298.03,425.387 1300.42,425.249 1302.8,425.114 1305.19,424.98 1307.57,424.848 1309.96,424.718 1312.34,424.59 1314.73,424.464 1317.11,424.34 1319.5,424.217 1321.88,424.097 1324.27,423.978 1326.65,423.862 1329.04,423.747 1331.42,423.633 1333.81,423.522 1336.19,423.412 1338.58,423.303 1340.96,423.196 1343.35,423.091 1345.73,422.988 1348.12,422.886 1350.5,422.785 1352.89,422.686 1355.27,422.589 1357.66,422.492 1360.04,422.398 1362.43,422.305 1364.81,422.213 1367.2,422.122 1369.58,422.033 1371.97,421.945 1374.35,421.858 1376.74,421.773 1379.12,421.689 1381.51,421.607 1383.89,421.525 1386.28,421.445 1388.66,421.366 1391.05,421.288 1393.43,421.211 1395.82,421.136 1398.2,421.061 1400.59,420.988 1402.97,420.916 1405.36,420.845 1407.74,420.775 1410.13,420.706 1412.51,420.638 1414.9,420.571 1417.28,420.505 1419.67,420.44 1422.05,420.376 1424.44,420.313 1426.82,420.251 1429.21,420.19 1431.59,420.13 1433.98,420.071 1436.36,420.013 1438.75,419.955 1441.13,419.899 1443.52,419.843 1445.9,419.788 1448.29,419.734 1450.67,419.681 1453.06,419.628 1455.44,419.576 1457.83,419.526 1460.21,419.475 1462.6,419.426 1464.98,419.377 1467.37,419.329 1469.75,419.282 1472.14,419.236 1474.52,419.19 1476.91,419.145 1479.29,419.1 1481.68,419.056 1484.06,419.013 1486.45,418.971 1488.83,418.929 1491.22,418.888 1493.6,418.847 1495.98,418.807 1498.37,418.767 1500.75,418.728 1503.14,418.69 1505.52,418.652 1507.91,418.615 1510.29,418.578 1512.68,418.542 1515.06,418.507 1517.45,418.472 1519.83,418.437 1522.22,418.403 1524.6,418.37 1526.99,418.337 1529.37,418.304 1531.76,418.272 1534.14,418.241 1536.53,418.209 1538.91,418.179 1541.3,418.149 1543.68,418.119 1546.07,418.09 1548.45,418.061 1550.84,418.033 1553.22,418.005 1555.61,417.977 1557.99,417.95 1560.38,417.923 1562.76,417.897 1565.15,417.871 1567.53,417.846 1569.92,417.821 1572.3,417.796 1574.69,417.771 1577.07,417.747 1579.46,417.724 1581.84,417.7 1584.23,417.677 1586.61,417.655 1589,417.633 1591.38,417.611 1593.77,417.589 1596.15,417.568 1598.54,417.547 1600.92,417.526 1603.31,417.506 1605.69,417.486 1608.08,417.466 1610.46,417.447 1612.85,417.427 1615.23,417.409 1617.62,417.39 1620,417.372 1622.39,417.354 1624.77,417.336 1627.16,417.318 1629.54,417.301 1631.93,417.284 1634.31,417.267 1636.7,417.251 1639.08,417.234 1641.47,417.218 1643.85,417.203 1646.24,417.187 1648.62,417.172 1651.01,417.157 1653.39,417.142 1655.78,417.127 1658.16,417.113 1660.55,417.098 1662.93,417.084 1665.32,417.071 1667.7,417.057 1670.09,417.044 1672.47,417.03 1674.86,417.017 1677.24,417.005 1679.63,416.992 1682.01,416.979 1684.4,416.967 1686.78,416.955 1689.17,416.943 1691.55,416.932 1693.93,416.92 1696.32,416.909 1698.7,416.898 1701.09,416.887 1703.47,416.876 1705.86,416.865 1708.24,416.855 1710.63,416.844 1713.01,416.834 1715.4,416.824 1717.78,416.814 1720.17,416.804 1722.55,416.795 1724.94,416.785 1727.32,416.776 1729.71,416.767 1732.09,416.758 1734.48,416.749 1736.86,416.74 1739.25,416.732 1741.63,416.723 1744.02,416.715 1746.4,416.706 1748.79,416.698 1751.17,416.69 1753.56,416.682 1755.94,416.675 1758.33,416.667 1760.71,416.659 1763.1,416.652 1765.48,416.645 1767.87,416.637 1770.25,416.63 1772.64,416.623 1775.02,416.616 1777.41,416.61 1779.79,416.603 1782.18,416.596 1784.56,416.59 1786.95,416.583 1789.33,416.577 1791.72,416.571 1794.1,416.565 1796.49,416.559 1798.87,416.553 1801.26,416.547 1803.64,416.541 1806.03,416.535 1808.41,416.53 1810.8,416.524 1813.18,416.519 1815.57,416.513 1817.95,416.508 1820.34,416.503 1822.72,416.498 1825.11,416.493 1827.49,416.488 1829.88,416.483 1832.26,416.478 1834.65,416.473 1837.03,416.469 1839.42,416.464 1841.8,416.459 1844.19,416.455 1846.57,416.45 1848.96,416.446 1851.34,416.442 1853.73,416.438 1856.11,416.434 1858.5,416.429 1860.88,416.425 1863.27,416.421 1865.65,416.418 1868.04,416.414 1870.42,416.41 1872.81,416.406 1875.19,416.403 1877.58,416.399 1879.96,416.395 1882.35,416.392 1884.73,416.388 1887.11,416.385 1889.5,416.382 1891.88,416.378 1894.27,416.375 1896.65,416.372 1899.04,416.369 1901.42,416.366 1903.81,416.363 1906.19,416.36 1908.58,416.357 1910.96,416.354 1913.35,416.351 1915.73,416.348 1918.12,416.345 1920.5,416.342 1922.89,416.34 1925.27,416.337 1927.66,416.334 1930.04,416.332 1932.43,416.329 1934.81,416.327 1937.2,416.324 1939.58,416.322 1941.97,416.319 1944.35,416.317 1946.74,416.314 1949.12,416.312 1951.51,416.31 1953.89,416.308 1956.28,416.305 1958.66,416.303 1961.05,416.301 1963.43,416.299 1965.82,416.297 1968.2,416.295 1970.59,416.293 1972.97,416.291 1975.36,416.289 1977.74,416.287 1980.13,416.285 1982.51,416.283 1984.9,416.281 1987.28,416.279 1989.67,416.278 1992.05,416.276 1994.44,416.274 1996.82,416.272 1999.21,416.271 2001.59,416.269 2003.98,416.268 2006.36,416.266 2008.75,416.264 2011.13,416.263 2013.52,416.261 2015.9,416.26 2018.29,416.258 2020.67,416.257 2023.06,416.255 2025.44,416.254 2027.83,416.252 2030.21,416.251 2032.6,416.25 2034.98,416.248 2037.37,416.247 2039.75,416.246 2042.14,416.244 2044.52,416.243 2046.91,416.242 2049.29,416.241 2051.68,416.24 2054.06,416.238 2056.45,416.237 2058.83,416.236 2061.22,416.235 2063.6,416.234 2065.99,416.233 2068.37,416.232 2070.76,416.231 2073.14,416.229 2075.53,416.228 2077.91,416.227 2080.3,416.226 2082.68,416.225 2085.06,416.224 2087.45,416.223 2089.83,416.222 2092.22,416.222 2094.6,416.221 2096.99,416.22 2099.37,416.219 2101.76,416.218 2104.14,416.217 2106.53,416.216 2108.91,416.215 2111.3,416.214 2113.68,416.214 2116.07,416.213 2118.45,416.212 2120.84,416.211 2123.22,416.21 2125.61,416.21 2127.99,416.209 2130.38,416.208 2132.76,416.207 2135.15,416.207 2137.53,416.206 2139.92,416.205 2142.3,416.205 2144.69,416.204 2147.07,416.203 2149.46,416.203 2151.84,416.202 2154.23,416.201 2156.61,416.201 2159,416.2 2161.38,416.2 2163.77,416.199 2166.15,416.198 2168.54,416.198 2170.92,416.197 2173.31,416.197 2175.69,416.196 2178.08,416.196 2180.46,416.195 2182.85,416.194 2185.23,416.194 2187.62,416.193 2190,416.193 2192.39,416.192 2194.77,416.192 2197.16,416.191 2199.54,416.191 2201.93,416.191 2204.31,416.19 2206.7,416.19 2209.08,416.189 2211.47,416.189 2213.85,416.188 2216.24,416.188 2218.62,416.187 2221.01,416.187 2223.39,416.187 2225.78,416.186 2228.16,416.186 2230.55,416.185 2232.93,416.185 2235.32,416.185 2237.7,416.184 2240.09,416.184 2242.47,416.184 2244.86,416.183 2247.24,416.183 2249.63,416.183 2252.01,416.182 2254.4,416.182 2256.78,416.182 2259.17,416.181 2261.55,416.181 2263.94,416.181 2266.32,416.18 2268.71,416.18 2271.09,416.18 2273.48,416.179 2275.86,416.179 2278.25,416.179 2280.63,416.178 2283.01,416.178 2285.4,416.178 2287.78,416.178 2290.17,416.177 2292.55,416.177 2294.94,416.177 2297.32,416.177 2299.71,416.176 2302.09,416.176 2304.48,416.176 2306.86,416.176 2309.25,416.175 2311.63,416.175 2314.02,416.175 2316.4,416.175 2318.79,416.174 2321.17,416.174 2323.56,416.174 2325.94,416.174 2328.33,416.173 2330.71,416.173 2333.1,416.173 2335.48,416.173 2337.87,416.173 2340.25,416.172 2342.64,416.172 2345.02,416.172 2347.41,416.172 2349.79,416.172 2352.18,416.171 2354.56,416.171 2356.95,416.171 2359.33,416.171 2361.72,416.171 2364.1,416.171 2366.49,416.17 2368.87,416.17 2371.26,416.17 2373.64,416.17 2376.03,416.17 2378.41,416.17 2380.8,416.17 2383.18,416.169 2385.57,416.169 2387.95,416.169 2390.34,416.169 2392.72,416.169 2395.11,416.169 2397.49,416.169 2399.88,416.168 2402.26,416.168 2404.65,416.168 2407.03,416.168 2409.42,416.168 2411.8,416.168 2414.19,416.168 2416.57,416.168 2418.96,416.167 2421.34,416.167 2423.73,416.167 2426.11,416.167 2428.5,416.167 2430.88,416.167 2433.27,416.167 2435.65,416.167 2438.04,416.167 2440.42,416.166 2442.81,416.166 2445.19,416.166 2447.58,416.166 2449.96,416.166 2452.35,416.166 2454.73,416.166 2457.12,416.166 2459.5,416.166 2461.89,416.166 2464.27,416.165 2466.66,416.165 2469.04,416.165 2471.43,416.165 2473.81,416.165 2476.2,416.165 2478.58,416.165 2480.96,416.165 2483.35,416.165 2485.73,416.165 2488.12,416.165 2490.5,416.165 2492.89,416.164 2495.27,416.164 2497.66,416.164 2500.04,416.164 2502.43,416.164 2504.81,416.164 2507.2,416.164 2509.58,416.164 2511.97,416.164 2514.35,416.164 2516.74,416.164 2519.12,416.164 2521.51,416.164 2523.89,416.164 2526.28,416.163 2528.66,416.163 2531.05,416.163 2533.43,416.163 2535.82,416.163 2538.2,416.163 2540.59,416.163 2542.97,416.163 2545.36,416.163 2547.74,416.163 2550.13,416.163 2552.51,416.163 2554.9,416.163 2557.28,416.163 2559.67,416.163 2562.05,416.163 2564.44,416.163 2566.82,416.163 2569.21,416.163 2571.59,416.162 2573.98,416.162 2576.36,416.162 2578.75,416.162 2581.13,416.162 2583.52,416.162 2585.9,416.162 2588.29,416.162 2590.67,416.162 2593.06,416.162 2595.44,416.162 2597.83,416.162 2600.21,416.162 2602.6,416.162 2604.98,416.162 2607.37,416.162 2609.75,416.162 2612.14,416.162 2614.52,416.162 2616.91,416.162 2619.29,416.162 2621.68,416.162 2624.06,416.162 2626.45,416.162 2628.83,416.162 2631.22,416.162 2633.6,416.162 2635.99,416.161 2638.37,416.161 2640.76,416.161 "/>
<path clip-path="url(#clip390)" d="M2294.89 310.833 L2561.26 310.833 L2561.26 103.473 L2294.89 103.473  Z" fill="#ffffff" fill-rule="evenodd" fill-opacity="1"/>
<polyline clip-path="url(#clip390)" style="stroke:#000000; stroke-linecap:round; stroke-linejoin:round; stroke-width:4; stroke-opacity:1; fill:none" points="2294.89,310.833 2561.26,310.833 2561.26,103.473 2294.89,103.473 2294.89,310.833 "/>
<polyline clip-path="url(#clip390)" style="stroke:#009af9; stroke-linecap:round; stroke-linejoin:round; stroke-width:6; stroke-opacity:1; fill:none" points="2321.39,155.313 2480.39,155.313 "/>
<path clip-path="url(#clip390)" d="M2529.13 139.167 L2529.13 143.728 Q2526.47 142.454 2524.11 141.829 Q2521.75 141.204 2519.55 141.204 Q2515.73 141.204 2513.65 142.686 Q2511.59 144.167 2511.59 146.899 Q2511.59 149.191 2512.95 150.371 Q2514.34 151.528 2518.18 152.246 L2521.01 152.825 Q2526.24 153.82 2528.72 156.343 Q2531.22 158.843 2531.22 163.056 Q2531.22 168.079 2527.84 170.672 Q2524.48 173.264 2517.98 173.264 Q2515.52 173.264 2512.74 172.709 Q2509.99 172.153 2507.03 171.065 L2507.03 166.251 Q2509.87 167.848 2512.61 168.658 Q2515.34 169.468 2517.98 169.468 Q2521.98 169.468 2524.16 167.894 Q2526.33 166.32 2526.33 163.403 Q2526.33 160.857 2524.76 159.422 Q2523.21 157.987 2519.64 157.269 L2516.8 156.714 Q2511.56 155.672 2509.23 153.45 Q2506.89 151.228 2506.89 147.269 Q2506.89 142.686 2510.11 140.047 Q2513.35 137.408 2519.02 137.408 Q2521.45 137.408 2523.97 137.848 Q2526.49 138.288 2529.13 139.167 Z" fill="#000000" fill-rule="nonzero" fill-opacity="1" /><polyline clip-path="url(#clip390)" style="stroke:#e26f46; stroke-linecap:round; stroke-linejoin:round; stroke-width:6; stroke-opacity:1; fill:none" points="2321.39,207.153 2480.39,207.153 "/>
<path clip-path="url(#clip390)" d="M2506.89 189.873 L2511.56 189.873 L2511.56 224.433 L2506.89 224.433 L2506.89 189.873 Z" fill="#000000" fill-rule="nonzero" fill-opacity="1" /><polyline clip-path="url(#clip390)" style="stroke:#3da44d; stroke-linecap:round; stroke-linejoin:round; stroke-width:6; stroke-opacity:1; fill:none" points="2321.39,258.993 2480.39,258.993 "/>
<path clip-path="url(#clip390)" d="M2534.76 244.375 L2534.76 249.306 Q2532.4 247.107 2529.71 246.019 Q2527.05 244.931 2524.04 244.931 Q2518.12 244.931 2514.97 248.565 Q2511.82 252.176 2511.82 259.028 Q2511.82 265.857 2514.97 269.491 Q2518.12 273.102 2524.04 273.102 Q2527.05 273.102 2529.71 272.014 Q2532.4 270.926 2534.76 268.727 L2534.76 273.611 Q2532.3 275.278 2529.55 276.111 Q2526.82 276.944 2523.76 276.944 Q2515.92 276.944 2511.4 272.153 Q2506.89 267.338 2506.89 259.028 Q2506.89 250.695 2511.4 245.903 Q2515.92 241.088 2523.76 241.088 Q2526.87 241.088 2529.6 241.922 Q2532.35 242.732 2534.76 244.375 Z" fill="#000000" fill-rule="nonzero" fill-opacity="1" /></svg>
